<svg xmlns="http://www.w3.org/2000/svg" viewBox="0 0 169.01 246.76"><defs><style>.a{fill:#fff;stroke:#000;stroke-width:2.5px;}.b{isolation:isolate;font-size:45.45px;font-family:Arial-BoldMT, Arial;font-weight:700;}</style></defs><title>c7</title><path class="a" d="M1.25,238a6.89,6.89,0,0,0,6.87,6.87H160.91a6.88,6.88,0,0,0,6.86-6.87V9.72a6.88,6.88,0,0,0-6.86-6.87H8.12A6.89,6.89,0,0,0,1.25,9.72Z"/><text class="b" transform="translate(5.25 38.99) scale(0.53 1)">7</text><text class="b" transform="translate(164.76 207.77) rotate(180) scale(0.53 1)">7</text><path d="M11.55,48.33a3.38,3.38,0,1,0,3.38-3.28A3.33,3.33,0,0,0,11.55,48.33Z"/><path d="M7.19,54.54a3.38,3.38,0,1,0,3.38-3.28A3.33,3.33,0,0,0,7.19,54.54Z"/><path d="M15.84,54.56a3.21,3.21,0,0,0,.55,1.8,3.41,3.41,0,0,0,2.83,1.48,3.28,3.28,0,1,0-3.38-3.28Z"/><path d="M11,60.93c1.67,0,2.55-1.36,3-2.72a10.56,10.56,0,0,0,.5-2.72h.86s.16,5.43,3.5,5.44Z"/><path d="M17.21,50.74a7.42,7.42,0,0,0-1.9,4.75h-.85a7.48,7.48,0,0,0-1.85-4.76"/><path d="M16.83,56.84a7.42,7.42,0,0,0-4.75-1.9v-.85a7.48,7.48,0,0,0,4.76-1.85"/><path d="M13,56.85a7.42,7.42,0,0,1,4.75-1.9V54.1A7.48,7.48,0,0,1,13,52.25"/><path d="M158.46,198.43a3.38,3.38,0,1,0-3.38,3.28A3.33,3.33,0,0,0,158.46,198.43Z"/><path d="M162.82,192.22a3.38,3.38,0,1,0-3.38,3.28A3.33,3.33,0,0,0,162.82,192.22Z"/><path d="M154.16,192.2a3.21,3.21,0,0,0-.55-1.8,3.41,3.41,0,0,0-2.83-1.48,3.28,3.28,0,1,0,3.38,3.28Z"/><path d="M159.05,185.84c-1.67,0-2.55,1.36-3,2.72a10.56,10.56,0,0,0-.5,2.72h-.86s-.16-5.43-3.5-5.44Z"/><path d="M152.79,196a7.42,7.42,0,0,0,1.9-4.75h.85a7.48,7.48,0,0,0,1.85,4.76"/><path d="M153.17,189.93a7.42,7.42,0,0,0,4.75,1.9v.85a7.48,7.48,0,0,0-4.76,1.85"/><path d="M157,189.92a7.42,7.42,0,0,1-4.75,1.9v.85a7.48,7.48,0,0,1,4.76,1.85"/><path d="M37.06,28.42a8.11,8.11,0,1,0,8.11-7.87A8,8,0,0,0,37.06,28.42Z"/><path d="M26.6,43.32a8.11,8.11,0,1,0,8.11-7.87A8,8,0,0,0,26.6,43.32Z"/><path d="M47.37,43.37a7.71,7.71,0,0,0,1.32,4.32,8.19,8.19,0,0,0,6.79,3.55,7.87,7.87,0,1,0-8.11-7.87Z"/><path d="M35.64,58.65c4,0,6.12-3.26,7.22-6.53a25.34,25.34,0,0,0,1.2-6.53h2.06s.38,13,8.4,13.05Z"/><path d="M50.66,34.2C46.1,38.76,46.1,45.6,46.1,45.6l-2,0s0-7-4.44-11.42"/><path d="M49.75,48.84c-4.56-4.56-11.4-4.56-11.4-4.56v-2s7,0,11.42-4.44"/><path d="M40.61,48.86C45.16,44.3,52,44.3,52,44.3v-2s-7,0-11.42-4.44"/><path d="M37.06,105.33a8.11,8.11,0,1,0,8.11-7.87A8,8,0,0,0,37.06,105.33Z"/><path d="M26.6,120.23a8.11,8.11,0,1,0,8.11-7.87A8,8,0,0,0,26.6,120.23Z"/><path d="M47.37,120.28a7.71,7.71,0,0,0,1.32,4.32,8.19,8.19,0,0,0,6.79,3.55,7.87,7.87,0,1,0-8.11-7.87Z"/><path d="M35.64,135.56c4,0,6.12-3.26,7.22-6.53a25.34,25.34,0,0,0,1.2-6.53h2.06s.38,13,8.4,13.05Z"/><path d="M50.66,111.12c-4.56,4.56-4.56,11.4-4.56,11.4l-2,0s0-7-4.44-11.42"/><path d="M49.75,125.75c-4.56-4.56-11.4-4.56-11.4-4.56v-2s7,0,11.42-4.44"/><path d="M40.61,125.77c4.56-4.56,11.4-4.56,11.4-4.56v-2s-7,0-11.42-4.44"/><path d="M53.13,214.19A8.11,8.11,0,1,0,45,222.06,8,8,0,0,0,53.13,214.19Z"/><path d="M63.59,199.29a8.11,8.11,0,1,0-8.11,7.87A8,8,0,0,0,63.59,199.29Z"/><path d="M42.81,199.25a7.71,7.71,0,0,0-1.32-4.32,8.19,8.19,0,0,0-6.79-3.55,7.87,7.87,0,1,0,8.11,7.87Z"/><path d="M54.55,184c-4,0-6.12,3.26-7.22,6.53a25.34,25.34,0,0,0-1.2,6.53H44.06s-.38-13-8.4-13.05Z"/><path d="M39.53,208.41c4.56-4.56,4.56-11.4,4.56-11.4l2,0s0,7,4.44,11.42"/><path d="M40.44,193.78c4.56,4.56,11.4,4.56,11.4,4.56v2s-7,0-11.42,4.44"/><path d="M49.58,193.75c-4.56,4.56-11.4,4.56-11.4,4.56v2s7,0,11.42,4.44"/><path d="M116.88,28.42A8.11,8.11,0,1,0,125,20.55,8,8,0,0,0,116.88,28.42Z"/><path d="M106.42,43.32a8.11,8.11,0,1,0,8.11-7.87A8,8,0,0,0,106.42,43.32Z"/><path d="M127.2,43.37a7.71,7.71,0,0,0,1.32,4.32,8.19,8.19,0,0,0,6.79,3.55,7.87,7.87,0,1,0-8.11-7.87Z"/><path d="M115.47,58.65c4,0,6.12-3.26,7.22-6.53a25.34,25.34,0,0,0,1.2-6.53H126s.38,13,8.4,13.05Z"/><path d="M130.49,34.2c-4.56,4.56-4.56,11.4-4.56,11.4l-2,0s0-7-4.44-11.42"/><path d="M129.57,48.84c-4.56-4.56-11.4-4.56-11.4-4.56v-2s7,0,11.42-4.44"/><path d="M120.43,48.86c4.56-4.56,11.4-4.56,11.4-4.56v-2s-7,0-11.42-4.44"/><path d="M116.88,105.33A8.11,8.11,0,1,0,125,97.46,8,8,0,0,0,116.88,105.33Z"/><path d="M106.42,120.23a8.11,8.11,0,1,0,8.11-7.87A8,8,0,0,0,106.42,120.23Z"/><path d="M127.2,120.28a7.71,7.71,0,0,0,1.32,4.32,8.19,8.19,0,0,0,6.79,3.55,7.87,7.87,0,1,0-8.11-7.87Z"/><path d="M115.47,135.56c4,0,6.12-3.26,7.22-6.53a25.34,25.34,0,0,0,1.2-6.53H126s.38,13,8.4,13.05Z"/><path d="M130.49,111.12c-4.56,4.56-4.56,11.4-4.56,11.4l-2,0s0-7-4.44-11.42"/><path d="M129.57,125.75c-4.56-4.56-11.4-4.56-11.4-4.56v-2s7,0,11.42-4.44"/><path d="M120.43,125.77c4.56-4.56,11.4-4.56,11.4-4.56v-2s-7,0-11.42-4.44"/><path d="M133,214.19a8.11,8.11,0,1,0-8.11,7.87A8,8,0,0,0,133,214.19Z"/><path d="M143.42,199.29a8.11,8.11,0,1,0-8.11,7.87A8,8,0,0,0,143.42,199.29Z"/><path d="M122.64,199.25a7.71,7.71,0,0,0-1.32-4.32,8.19,8.19,0,0,0-6.79-3.55,7.87,7.87,0,1,0,8.11,7.87Z"/><path d="M134.37,184c-4,0-6.12,3.26-7.22,6.53A25.34,25.34,0,0,0,126,197h-2.06s-.38-13-8.4-13.05Z"/><path d="M119.35,208.41c4.56-4.56,4.56-11.4,4.56-11.4l2,0s0,7,4.44,11.42"/><path d="M120.27,193.78c4.56,4.56,11.4,4.56,11.4,4.56v2s-7,0-11.42,4.44"/><path d="M129.41,193.75c-4.56,4.56-11.4,4.56-11.4,4.56v2s7,0,11.42,4.44"/><path d="M77,82.56a8.11,8.11,0,1,0,8.11-7.87A8,8,0,0,0,77,82.56Z"/><path d="M66.51,97.46a8.11,8.11,0,1,0,8.11-7.87A8,8,0,0,0,66.51,97.46Z"/><path d="M87.29,97.5a7.71,7.71,0,0,0,1.32,4.32,8.19,8.19,0,0,0,6.79,3.55,7.87,7.87,0,1,0-8.11-7.87Z"/><path d="M75.55,112.79c4,0,6.12-3.26,7.22-6.53A25.34,25.34,0,0,0,84,99.73H86s.38,13,8.4,13.05Z"/><path d="M90.57,88.34C86,92.9,86,99.73,86,99.73l-2,0s0-7-4.44-11.42"/><path d="M89.66,103c-4.56-4.56-11.4-4.56-11.4-4.56v-2s7,0,11.42-4.44"/><path d="M80.52,103c4.56-4.56,11.4-4.56,11.4-4.56v-2s-7,0-11.42-4.44"/></svg>