<svg xmlns="http://www.w3.org/2000/svg" viewBox="0 0 169.01 245.84"><defs><style>.a,.d{fill:#fff;}.a,.b,.e{stroke:#000;}.a{stroke-width:2.5px;}.b,.e{fill:none;}.c,.f{fill:#e6180a;}.e{stroke-width:7.25px;}.f{isolation:isolate;font-size:39.99px;font-family:Arial-BoldMT, Arial;font-weight:700;}.g{fill:#1c1585;}.h{fill:#e61408;}.i{fill:#f8c20f;}</style></defs><title>dj</title><path class="a" d="M1.25,237.58a6.89,6.89,0,0,0,6.87,6.87H160.91a6.88,6.88,0,0,0,6.86-6.87V9.26a6.88,6.88,0,0,0-6.86-6.87H8.12A6.89,6.89,0,0,0,1.25,9.26Z"/><path class="b" d="M9.25,62.52V239.84"/><path class="b" d="M9.25,239.84H141.48"/><path class="b" d="M160.77,183.57V6"/><path class="b" d="M160.77,6H28.54"/><path class="c" d="M37.32,33H55.75c-2.1-.09-3.88-1.45-5.57-2.57A48.84,48.84,0,0,1,40,20.49c-1.31-1.93-2.68-4.1-2.72-6.51M55.75,33c-2.66.08-4.94,1.78-7,3.34a50.66,50.66,0,0,0-9.31,10.47c-1,1.61-2.09,3.31-2.15,5.24V33m0,19c-.09-2.84-1.82-5.29-3.45-7.49a50.12,50.12,0,0,0-10.14-9.51c-1.47-.92-3-2-4.83-2.06H37.32M18.9,33c2.66-.08,4.94-1.78,7-3.34a50.73,50.73,0,0,0,9.31-10.47c1-1.61,2.09-3.31,2.15-5.24V33"/><rect class="d" x="18.82" y="14.06" width="9.69" height="37.95"/><path class="c" d="M132.69,212.93H114.27c2.1.09,3.88,1.45,5.57,2.57a48.84,48.84,0,0,1,10.14,10c1.31,1.93,2.68,4.1,2.72,6.51m-18.43-19c2.66-.08,4.94-1.78,7-3.34a50.66,50.66,0,0,0,9.31-10.47c1-1.61,2.09-3.31,2.15-5.24v19m0-19c.09,2.84,1.82,5.29,3.45,7.49a50.12,50.12,0,0,0,10.14,9.51c1.47.92,3,2,4.83,2.06H132.69m18.43,0c-2.66.08-4.94,1.78-7,3.34a50.73,50.73,0,0,0-9.31,10.47c-1,1.61-2.09,3.31-2.15,5.24v-19"/><rect class="d" x="141.94" y="193.95" width="9.69" height="37.95"/><line class="e" x1="50.15" y1="177.07" x2="119.87" y2="68.77"/><circle class="d" cx="52.47" cy="173.94" r="2.2" transform="translate(-5.44 1.73) rotate(-1.8)"/><circle cx="52.47" cy="173.94" r="0.7" transform="translate(-5.44 1.73) rotate(-1.8)"/><circle class="d" cx="55.73" cy="168.86" r="2.2" transform="translate(-5.28 1.83) rotate(-1.8)"/><circle cx="55.73" cy="168.86" r="0.7" transform="translate(-5.28 1.83) rotate(-1.8)"/><circle class="d" cx="59" cy="163.78" r="2.2" transform="translate(-5.12 1.93) rotate(-1.8)"/><circle cx="59" cy="163.78" r="0.7" transform="translate(-5.12 1.93) rotate(-1.8)"/><circle class="d" cx="62.27" cy="158.7" r="2.2" transform="translate(-4.95 2.03) rotate(-1.8)"/><circle cx="62.27" cy="158.7" r="0.7" transform="translate(-4.95 2.03) rotate(-1.8)"/><circle class="d" cx="65.54" cy="153.63" r="2.2" transform="translate(-4.79 2.13) rotate(-1.8)"/><circle cx="65.54" cy="153.63" r="0.7" transform="translate(-4.79 2.13) rotate(-1.8)"/><circle class="d" cx="68.81" cy="148.55" r="2.2" transform="translate(-4.63 2.23) rotate(-1.8)"/><circle cx="68.81" cy="148.55" r="0.7" transform="translate(-4.63 2.23) rotate(-1.8)"/><circle class="d" cx="72.07" cy="143.47" r="2.2" transform="translate(-4.47 2.33) rotate(-1.8)"/><circle cx="72.07" cy="143.47" r="0.7" transform="translate(-4.47 2.33) rotate(-1.8)"/><circle class="d" cx="75.34" cy="138.4" r="2.2" transform="translate(-4.31 2.43) rotate(-1.8)"/><circle cx="75.34" cy="138.4" r="0.7" transform="translate(-4.31 2.43) rotate(-1.8)"/><circle class="d" cx="78.61" cy="133.32" r="2.2" transform="translate(-4.15 2.54) rotate(-1.8)"/><circle cx="78.61" cy="133.32" r="0.7" transform="translate(-4.15 2.54) rotate(-1.8)"/><circle class="d" cx="81.89" cy="128.24" r="2.2" transform="translate(-3.99 2.64) rotate(-1.8)"/><circle cx="81.89" cy="128.24" r="0.7" transform="translate(-3.99 2.64) rotate(-1.8)"/><circle class="d" cx="85.15" cy="123.17" r="2.2" transform="translate(-3.83 2.74) rotate(-1.8)"/><circle cx="85.15" cy="123.17" r="0.7" transform="translate(-3.83 2.74) rotate(-1.8)"/><circle class="d" cx="88.42" cy="118.09" r="2.2" transform="translate(-3.67 2.84) rotate(-1.8)"/><circle cx="88.42" cy="118.09" r="0.7" transform="translate(-3.67 2.84) rotate(-1.8)"/><circle class="d" cx="91.69" cy="113.01" r="2.2" transform="translate(-3.5 2.94) rotate(-1.8)"/><circle cx="91.69" cy="113.01" r="0.7" transform="translate(-3.5 2.94) rotate(-1.8)"/><circle class="d" cx="94.96" cy="107.94" r="2.2" transform="translate(-3.34 3.04) rotate(-1.8)"/><circle cx="94.96" cy="107.94" r="0.7" transform="translate(-3.34 3.04) rotate(-1.8)"/><circle class="d" cx="98.23" cy="102.86" r="2.2" transform="translate(-3.18 3.14) rotate(-1.8)"/><circle cx="98.23" cy="102.86" r="0.7" transform="translate(-3.18 3.14) rotate(-1.8)"/><circle class="d" cx="101.49" cy="97.78" r="2.2" transform="translate(-3.02 3.24) rotate(-1.8)"/><circle cx="101.49" cy="97.78" r="0.7" transform="translate(-3.02 3.24) rotate(-1.8)"/><circle class="d" cx="104.76" cy="92.71" r="2.2" transform="translate(-2.86 3.34) rotate(-1.8)"/><circle cx="104.76" cy="92.71" r="0.7" transform="translate(-2.86 3.34) rotate(-1.8)"/><circle class="d" cx="108.03" cy="87.63" r="2.2" transform="translate(-2.7 3.44) rotate(-1.8)"/><circle cx="108.03" cy="87.63" r="0.7" transform="translate(-2.7 3.44) rotate(-1.8)"/><circle class="d" cx="111.3" cy="82.55" r="2.2" transform="translate(-2.54 3.54) rotate(-1.8)"/><circle cx="111.3" cy="82.55" r="0.7" transform="translate(-2.54 3.54) rotate(-1.8)"/><circle class="d" cx="114.57" cy="77.47" r="2.2" transform="translate(-2.38 3.64) rotate(-1.8)"/><circle cx="114.57" cy="77.47" r="0.7" transform="translate(-2.38 3.64) rotate(-1.8)"/><circle class="d" cx="117.84" cy="72.4" r="2.2" transform="translate(-2.22 3.74) rotate(-1.8)"/><circle cx="117.84" cy="72.4" r="0.7" transform="translate(-2.22 3.74) rotate(-1.8)"/><text class="f" transform="translate(10.28 34.3) scale(0.56 1)">J</text><text class="f" transform="translate(159.74 211.54) rotate(180) scale(0.56 1)">J</text><path class="c" d="M14.89,52.53h7.68a4.81,4.81,0,0,1-2.32-1.07A20.35,20.35,0,0,1,16,47.3a5.18,5.18,0,0,1-1.13-2.71m7.68,7.94a5.28,5.28,0,0,0-2.9,1.39,21.11,21.11,0,0,0-3.88,4.36,4.69,4.69,0,0,0-.89,2.18V52.53m0,7.94a5.79,5.79,0,0,0-1.44-3.12,20.88,20.88,0,0,0-4.23-4,4.19,4.19,0,0,0-2-.86h7.68m-7.68,0a5.29,5.29,0,0,0,2.9-1.39A21.14,21.14,0,0,0,14,46.77a4.69,4.69,0,0,0,.89-2.18v7.94"/><path class="c" d="M155.11,193.31h-7.68a4.81,4.81,0,0,1,2.32,1.07,20.35,20.35,0,0,1,4.22,4.15,5.18,5.18,0,0,1,1.13,2.71m-7.68-7.94a5.28,5.28,0,0,0,2.9-1.39,21.11,21.11,0,0,0,3.88-4.36,4.69,4.69,0,0,0,.89-2.18v7.94m0-7.94a5.79,5.79,0,0,0,1.44,3.12,20.88,20.88,0,0,0,4.23,4,4.19,4.19,0,0,0,2,.86h-7.68m7.68,0a5.29,5.29,0,0,0-2.9,1.39,21.14,21.14,0,0,0-3.88,4.36,4.69,4.69,0,0,0-.89,2.18v-7.94"/><rect class="g" x="9.07" y="101.7" width="3.08" height="1.62" transform="translate(-91.92 112.96) rotate(-89.91)"/><path class="h" d="M42.71,166.57c1.07,2.9,3.06,5.3,4.92,7.76l.63-.46c1.14-1.79,3-5.26,3-5.26l-5.62-1.23"/><path class="i" d="M57.63,146.95l-6.31,1.72-4.5-.91q-1.62-1.86-3.24-3.71l-.58-3-1.75,0-.71,2.12a133.7,133.7,0,0,0-6.62,12.93l-1.45,3.31-.85,2.44a52.56,52.56,0,0,0,10.15,4.29c3.15,1,6.27,1.7,9.48,2.4a22.93,22.93,0,0,0,3.08-4.05s6-9.7,8.59-13.73l-.74-1.24"/><path class="h" d="M56.11,25.62Q59,27.79,62,29.85A53.54,53.54,0,0,1,75.81,23c5.07-1.53,10.39-2.2,15.6-3.06v0l7.27-.17c1.68-2.28,3.21-4.54,4.67-7l-.87-.76c-3.94-1.58-7.34-3.35-11.56-4.14v.27c-4.33.3-8.45.91-12.73,1.62-3.64.61-7.66.74-11.2,1.69-2.34,1.77-4.24,4-6.45,5.91-2.43,2.11-4.9,4.18-7.37,6.23l-.29.89,1.63.2,1.58.94"/><path class="i" d="M80.14,82.31,75.68,78h-.11l-2.62-2.31v1.3h0c1.24,8.77,2.56,17.48,3.56,26.28l16.3-.11v-.85l1.52-.24,1.38-2.36-3-4.07v0c-4.29-4.32-8.43-8.8-12.63-13.22"/><path class="h" d="M46.3,91.58,43.88,90.1v1.39l2.41.09"/><path class="h" d="M73.75,82.45,73,76.95h0v-1.3C68.11,71.37,63.14,67.38,58,63.41A270,270,0,0,1,46.55,91.74l-.16-.1-1.1,2.3,6.27.07-.07.51,6.42,0,0,4.43,3.5,0,0,5.14,13.78-.1v-.23l1.33,0c-.81-7.12-1.69-14.14-2.84-21.2"/><polyline class="h" points="52.87 59.73 52.8 59.72 53.67 60.29 52.87 59.73"/><path class="g" d="M45.06,145.73l1.77,2,4.5.91,6.31-1.72,2.11-1.89-.1-.22-.43-4.73c1.56-5.28,3.25-10.53,4.46-15.91h-.06l2.83-15-9.61.8q-5.69,11.5-11.51,22.93l.23.37h-.12l-2.75,6.21.88,4.54,1.48,1.67"/><path class="h" d="M76.57,108.38h.09v0l-10.12.43q-1.47,7.72-2.92,15.44h.12c-1.06,5.38-3,10.65-4.52,15.92l.43,4.73,2.2,4.64,1.48.4c4.75-6.8,9.18-13.83,13.73-20.77v-.26l-.4-.9-.07-19.58"/><path class="g" d="M9.57,103.41c.06,7.46.08,14.92.18,22.39A47.41,47.41,0,0,0,10.85,136c.89,4,1.34,8.19,3.33,11.76l.08-.22v-.12c.82-4.1,1.65-8.18,2.41-12.29h-.11c2.13-8.12,4.3-16.12,6.95-24.1h.07c1.95-4.41,3.47-8.72,7.08-12A39.15,39.15,0,0,1,43.4,91.46l.25-1.5c-3.05-1.85-6.26-3.38-9.44-5,0,0-3.52-.63-5.36-.71l-5.1,1.87v0c-.42.22-6,3.09-8.11,4.36-1.56.95-2.71,2.63-3.93,4l-1,4.35"/><path class="h" d="M23.73,86.1v0l5.1-1.87c1.84.08,3.67.19,5.51.33a89.66,89.66,0,0,1,6.77-13.19c2.73-4.5,6.18-8.76,8.48-13.46l-1.75-1.46-4.58.05-2.87,1.19-2.86,2.45c-1.58,2.55-3.2,5.06-4.87,7.56l-.29-.1a108.25,108.25,0,0,0-8.71,9l-.08,0-1.71,2.82A40.24,40.24,0,0,0,21,86.71a9.12,9.12,0,0,0,2.75-.61"/><path class="i" d="M44.2,66.31c-3.69,6.07-7.35,12.05-10,18.66,4.14,2.08,8.16,4.19,12.1,6.61l-2.91-.11A38.3,38.3,0,0,0,31,98.69c-3.8,3.5-5.41,7.73-7.46,12.4h-.07c-2.65,8-4.81,16-6.95,24.1h.11c-.77,4.11-1.6,8.19-2.41,12.29.73,6,4.77,13.05,9.88,16.31,0-4.63-.11-9.19.74-13.75,1-5.31,2-10.55,3.31-15.79h0a139.54,139.54,0,0,1,8.38-22.51h.17l1.43-3,4.08,2,1.67-.85-1.13-2a16.81,16.81,0,0,1,5.29-4.36l2.2.12c.42-3.22.85-6.43,1.27-9.65l-6.27-.07,1.1-2.3.16.1A270,270,0,0,0,58,63.41a97.2,97.2,0,0,0-8.32-5.68,64.76,64.76,0,0,1-5.47,8.58"/><path class="i" d="M76.57,108.38,76.63,128c.16.34.31.68.46,1l13.54-21-14.07.41"/><path class="h" d="M72.46,58.7l4.86,4.71c4.44,0,9.24.49,13.64-.19,1.75-3,3.28-6.08,4.91-9.13l-1-.7-2.37-.08-2.16,5-1.22,1.13-3.24,0,0,.14a47.94,47.94,0,0,0-6.31.34l-2.11-1a90,90,0,0,0-10.13-9.29l-3.85.32c3,3,6,5.89,9,8.78"/><path class="i" d="M90,63.31l-13.3.1c3.45,3.77,6.69,7.71,10.3,11.31a101.33,101.33,0,0,1,4.08-11.11V63.3H90"/><path class="i" d="M108,63.12c0,1.76,0,3.53,0,5.29l3.88,6.19c1.5-2.31,3-4.6,4.37-7l.15-1c-1.58-2.06-3.09-4.16-4.6-6.28l-3.83,1v1.84"/><path class="h" d="M108,63.15l0-1.67L105.08,63a77.76,77.76,0,0,0-7.17,9.2c-1.86,2.73-2.93,6-4.41,9l-1.14.48,7.26,12.13,12.05-18.94L108,68.69c0-1.85-.05-3.7-.07-5.54"/><path class="g" d="M57.16,62.74a258.69,258.69,0,0,1,20.31,17C84,86,89.94,92.69,96.27,99.05l3.16-5C97.23,90.38,95,86.65,92.78,83A65,65,0,0,1,105.06,63a29.82,29.82,0,0,1,5.63-2.44l1-.9-2.21-2.34c-3.57-1.83-7.14-2.64-11-3.65L96,53.85a132.18,132.18,0,0,0-9,20.87c-4.33-4.31-8.24-9.06-12.37-13.57v0c-3.71-3.79-7.49-7.49-11.26-11.23L61,49.64l-1.84,2.71L55.68,52c-2.57,1.47-5.13,2.88-7.75,4.24l9.23,6.48"/><path d="M52.12,24.52a8.66,8.66,0,0,1,2.93.72,23,23,0,0,1,3.88,3c.54.5,2.26,1.67,2.39,2.48a13.3,13.3,0,0,0,1,4.15c.55,1.08,2,2.11,2,3.4,0,.87.14.92-.66,1.28-.55.24-1-.22-1.32-.65s-.59-.87-1-.92c-.66-.07-1,.67-1.26,1.12-.63,1,0,2.25-.58,3.14-.26.4-.92.55-1.28.86A4.42,4.42,0,0,0,57,44.71a4.79,4.79,0,0,1-.79,1.7c-.9.9-3.16.14-3.13,2.1,2-.41,3.45,1,5.45.95-.61,1.08-1.89.55-2.87.58A3.44,3.44,0,0,0,53,51.31a11.85,11.85,0,0,0-.78,1.16c-.36.43-.82.76-1.19,1.19a7.32,7.32,0,0,1-2.62,1.75c-2,.95-4.18.31-6.25,1.09a12.79,12.79,0,0,0-5.38,4c-1.32,1.59-1.73,3.7-3,5.26a42.8,42.8,0,0,1-5.19,4.91c-3.27,2.81-6.47,6.28-7.5,10.59-.47,1.94,0,4.57-1.53,6.07S15.64,89.54,13.94,91a11.4,11.4,0,0,0-3.26,5.25c-1.79,5.42-1.25,11.16-1.22,16.79,0,3.1.09,6.2.08,9.29,0,2.92-.14,5.8.11,8.71a84.3,84.3,0,0,0,1.57,8.72,31,31,0,0,0,2.45,8c.57,1.18.74,2.51,1.23,3.73a42.48,42.48,0,0,0,1.9,4.29,32.24,32.24,0,0,0,4.84,6.7,12.4,12.4,0,0,0,2.68,1.87,7.65,7.65,0,0,0,6.22,1.09c1.08-.29,2-.81,3.09-1.13s2,.19,3,.51c1.36.45,2.71.94,4.08,1.39,1.73.58,2.49,2.48,3.45,3.88.6.88,1.28,1.74,1.8,2.67a7.25,7.25,0,0,0,1.56,2.42c1.71-2.65,3.82-5.33,5.14-8.2-1.89.15-3.64-.79-5.37-1.37-1.92-.65-3.87-1.18-5.78-1.89s-3.75-1.4-5.63-2.09c-1.09-.4-4.05-1.71-2.54-3.26.32-.33.75-1.07,1.27-1A10.17,10.17,0,0,1,39,159.68c-.84,0-1.62.26-2.47.26.16,1,.88,1.28,1.66,1.77.4.25.5.38,1,.32a12.35,12.35,0,0,1,1.36-.15,3.79,3.79,0,0,0-1.25-2.22,14.47,14.47,0,0,1,3.59,1.2c1.28.52,2.6.91,3.91,1.35,2.52.85,5.23,1.07,7.63,2.28.29-1,1.14-1.74,1.46-2.73-1.55.28-3.32-.67-4.82-1a57.23,57.23,0,0,1-5.82-1.94c-1.94-.69-3.86-1.42-5.72-2.3-.89-.42-1.76-.87-2.62-1.35s-1.77-.36-1.45-1.31a4.7,4.7,0,0,1,2-2.44c.87-.53,2.08-1.44,3.11-1.47a2.09,2.09,0,0,1,1.78.63,4,4,0,0,1,.88,1.15c-1.1.23-2-1.23-3-.84-.72.31-1.36,2.38-1.49,3s.88.61,1.22.66a4.49,4.49,0,0,0,.89,0c.24,0,.49.2.72.25,1.48.33,1.48-1,.89-2.07.79,0,1.2.8,1.44,1.45a9.33,9.33,0,0,0,1.54,2.6,3.37,3.37,0,0,0,2.14.85,5.14,5.14,0,0,0,2.58-1c-.35,1.23,1.26,2.27,2,3,.41.42,1.28-.72,1.53-1s.71-1,.4-1.48c-.15-.24-1.68-.9-.68-1.16a1.3,1.3,0,0,1,1.53.76c.57,1.17.92,2.6,2.16,3.24a19.06,19.06,0,0,0,1.12-2.14c.22-.5.75-.68.94-1a8.29,8.29,0,0,0,.6-1.51c.13-.46-.37-.55-.72-.79s-.51-.44-.86-.09a2,2,0,0,0-.28,1.21c0,.27-.07,1-.58.66a7.61,7.61,0,0,1-.41-1.11,3.46,3.46,0,0,0-1.64-1.73,3.7,3.7,0,0,0-2.33-.58,9.68,9.68,0,0,0-2.32.5c.12-.47.24-1.3-.39-1.49a9.27,9.27,0,0,0-1.89-.65c-.74,0-1.25-.22-1.44.65-.13.58-.32,1.16-1,1.28,0-1.55-.88-3.07-1.52-4.45,2.92.72,5.62,2.36,8.5,3.27,1.55.49,3.15.9,4.69,1.41,1,.33,2.41.94,3.42.39-.32-.37-2.48-.92-2.48-1.05,0-1,1.88-.3,2.42-1,.24-.3.66-1.14,1.11-1.15a2.24,2.24,0,0,1,.84.14c.17.06.35-.54.41-.71.22-.59,0-.48-.42-.78a3.66,3.66,0,0,1-1-1c-.51-.75-1.63-3.78-2.54-3.52-1.19.34-2.21,1.53-3.36,2.06A13.37,13.37,0,0,1,52,148a8.57,8.57,0,0,1-6-1.71,7.52,7.52,0,0,1-2.42-5.76,12.85,12.85,0,0,1,0-1.63,8.31,8.31,0,0,1,1.16-2.95c.6-1.21,1.18-2.42,1.78-3.64,1.3-2.63,2.33-5.37,3.65-8s2.49-5.05,3.73-7.58c.63-1.27,1.25-2.52,1.9-3.78.41-.8.85-2.13,1.94-2.15a13.3,13.3,0,0,1-1.6,3.6c-.63,1.25-1.22,2.51-1.78,3.79-1.16,2.67-2.4,5.3-3.54,8-1,2.43-2.25,4.8-3.11,7.3s-1.9,5.63-1.22,8.26a5.34,5.34,0,0,0,4.74,3.94c2.06.32,4.47-1.08,5.88-2.45a7.88,7.88,0,0,0,2-2.53,60.1,60.1,0,0,0,2.55-7c.71-2.69,1.49-5.36,2.09-8.08s1.2-5.58,1.78-8.38c.29-1.39.57-2.8.85-4.19.14-.69.2-2,.79-2.57a5.61,5.61,0,0,1,1.45-.76c.58,2.72-.33,5.72-.77,8.41-.51,3.11-1.23,6.17-1.79,9.27-.52,2.88-1.06,5.76-1.65,8.63s-1.25,5.72-.89,8.79c0,.37.74,2.54,1.23,2.54,1,0,.33-1.49.12-2a10.81,10.81,0,0,1-.42-5.28c.41-3.83,1.58-7.62,2.29-11.4.68-3.56,1.51-7.11,2.06-10.69.27-1.74.55-3.5.73-5.25.07-.65,0-2.46.79-2.72a11.57,11.57,0,0,1,3.18-.6c1,0,2.22-.38,2.68.66.56,1.25.1,2.74.11,4,0,1.74,0,3.48,0,5.22,0,3.53-.2,7.06-.18,10.59a4.64,4.64,0,0,0,1.72-2.48c-.61.32-.74.4-.74-.29,0-3.55.26-7.11.21-10.66,0-.81-.78-7.17.65-7.27,1-.07.77,2.21.84,2.81.11,1-.14,1.88,0,2.83a32.51,32.51,0,0,1,.09,3.4c0,2.39,0,4.79,0,7.18,1.13-.25,1.08-2,1.07-2.9,0-1.65-.12-3.3-.14-4.95,0-2.21-.24-4.43-.21-6.64,0-2.39,1.35-2.17,3.2-2.53a3.22,3.22,0,0,1,1.44-.07c.84.33.92.39,1.15,1.25.49,1.85.08,4.22.1,6.13,1.11-.91,1.12-2.52,1.07-3.83,0-.79-.11-1.58-.08-2.38a7,7,0,0,1,.19-1.43c0-.15.49-.07.53.06a15,15,0,0,1,.5,4.1c1.24-1,.57-2.37.92-3.62.25-.87,1.2-.67,1.86-.62.5,0,1.42-2.14,1.66-2.5.78-1.23,2.37-2.87,2.54-4.35.08-.69,0-1.39.11-2.08a3.17,3.17,0,0,1,.25,1.48c.45-.27,1.84-2,1.29-2.36-1.82-1.23-3.15-3.49-4.67-5.07-1.85-1.93-3.63-3.92-5.51-5.81q-6-6-12.1-12A114.87,114.87,0,0,0,61.85,65.05c-2.11-1.56-4.27-3-6.46-4.49a57.07,57.07,0,0,1-6.5-4.43c1.11-.18,2-1.06,3-1.52,1.22-.56,2.41-1.42,3.64-1.88,1-.38,2,0,3.08-.09,1.37-.16,1.78-1.43,2.72-2.24.51-.44.85-.34,1.42,0,3.81,2.37,7,5.95,10,9.22q5,5.38,9.84,10.89A111.79,111.79,0,0,1,91.47,82c1.37,2,2.7,4.12,4,6.22.64,1.05,1.27,2.1,1.9,3.15s1.51,2.08,1.53,3.24c1.44-1.24,1.67-3.16,1.92-4.94.35-2.41.94-4.88,1.43-7.34a59.76,59.76,0,0,0,1.09-7.24,19.59,19.59,0,0,0-.53-6.92,2.59,2.59,0,0,1,.08-2,6.77,6.77,0,0,1,1.66,2.51c.16.5.31,1,.42,1.49.27,1.18,3.22-2,3.12-.07,0,.88-1.36,1.81-1.78,2.52-1.57,2.65-2.28,5.92-3,8.88-.37,1.45-.63,2.92-.87,4.4s-1.13,3.2-.85,4.53a15.57,15.57,0,0,0,1.51-1.91c.62-.75.61-.83.45-1.66a8.74,8.74,0,0,1,.39-3.11c.26-1.32.59-2.61,1-3.9.66-2.29,1.12-4.88,2.52-6.85.71-1,1.56-1.38,2.34-.23s-.27,2.63-1,3.61c-1.13,1.5-1.1,2.56-1,4.37.79-.69.8-1.81,1.26-2.69a22,22,0,0,0,1.66-3.26c.22.21.56.74.87.32.1-.15.64-.77.58-.88a28.49,28.49,0,0,1-3.47-6.35,5.31,5.31,0,0,1,1.63,2.53,24.62,24.62,0,0,0,1.88,3.39,1.18,1.18,0,0,0,.49-1.48,2.84,2.84,0,0,0,.71-.14c.48-.22,0-2.58,0-3.14,0-1.31,0-2.31-1.27-2.88a6.5,6.5,0,0,0-1.78-.48c-.42-.06-.48.08-.5-.38s0-.69,0-1c0-.8-.14-3.15,1-3.3a5.18,5.18,0,0,0-.32,2.49c0,.55-.09,1.15.4,1.5a5.22,5.22,0,0,0,1.49.56c1.16.38,1.41,1.05,1.44,2.19a4.77,4.77,0,0,0,.52,2.87,8.79,8.79,0,0,0,1.8-2.49,4.45,4.45,0,0,0,.53-1.48c0-1-1.43-2.29-2-3a25.14,25.14,0,0,1-2.36-4.05c-.89-1.72-3.63-3.17-5.31-3.91a15.48,15.48,0,0,0-3.21-.82,28.46,28.46,0,0,1-3.57-1.07,11.85,11.85,0,0,0-3.67-.62A7.19,7.19,0,0,1,93,52.48c-.77-.45-.63-.69,0-1.17S95.43,51,96.13,51c.85,0,2.14-.24,2.5-1.16.17-.43.66-1.19.63-1.65a11.89,11.89,0,0,0-.37-1.66c-.21-.85.93-1.9,1.24-2.68a2.84,2.84,0,0,0,.23-1.54c-.22-1.51.56-1.31,1.69-1.88s.64-2.18.39-3.19c-.39-1.65-.93-3.26-1.37-4.89a20.22,20.22,0,0,1-.6-4.92,23.05,23.05,0,0,0-1.17-4.86,3.65,3.65,0,0,1,.52-3.67c.86-1.27,1.82-2.48,2.71-3.73.38-.52,1.67-1.87,1.24-2.59-.84-1.42-3.6-1.69-5-2.39-2.25-1.13-4.38-2.45-7-2.47-4,0-7.94.9-11.82,1.57s-7.79,1.17-11.69,1.61c-1.84.21-3.24,1.81-4.48,3.06s-2.69,2.67-4.12,3.92-3,2.66-4.63,3.87c-.8.65-2.93,1.54-2.93,2.81m1.49-.5c.71-1.44,2.44-2.35,3.66-3.33,1.61-1.29,3.18-2.62,4.69-4,1.35-1.24,2.53-2.62,3.81-3.93s2.74-1.55,4.56-1.68a106.37,106.37,0,0,0,11.86-1.5C85.9,8.9,90,8,93.76,8.72c2.09.37,3.89,1.6,5.79,2.45.67.31,3,.76,2.94,1.78-.09.86-.23.76-1.05,1-.53.18-1.18-.3-1.66-.46a31.35,31.35,0,0,1-3.22-1.3c-1.84-.86-3.68-2.19-5.77-2.28a20,20,0,0,0-4.41.83c-1.72.34-3.43.7-5.17.93-3.45.47-6.95,1.07-10.43,1.28a6,6,0,0,0-4,1.47,26.83,26.83,0,0,0-2.69,3.11A27.86,27.86,0,0,1,56.26,24a3.11,3.11,0,0,1-2.65,0M90.38,11.89a5.34,5.34,0,0,1-.49,1.25c-.26-.4.16-1,.49-1.25m-3.71.27c-.2,1.33-1.83,2.58-1.45,4a12.56,12.56,0,0,0,2.45-3.23c.64,1-1.39,2.58-1.21,3.72.73-.36,1.26-1.08,2-1.5a3.49,3.49,0,0,0-.23,2c1.43-.87,1.83-2.81,3.19-3.74-.56,1.21-1.8,2.36-2,3.73,2,0,2.65-3.56,4.17-4.49-.06.32-3,4.86-2.44,5s1.48-1.39,1.69-1.73a7.79,7.79,0,0,1,2.24-2.76,13.92,13.92,0,0,1-1.81,3.16c0,.08-1.08,2.08-.57,1.76a6.85,6.85,0,0,0,2-2.41c.46-.74.88-1.83,1.83-2-.56,1.69-2.21,2.9-2.44,4.72,1.78-.59,2-3.74,3.68-4-.24,1.64-2.2,2.7-1.95,4.47,1.54-.93,1.63-3.41,3.43-4a29.16,29.16,0,0,1-1.8,3.72c-.57,1.3-4,.82-5.14.88a86.34,86.34,0,0,0-12.29,1.94A48.73,48.73,0,0,0,63.83,28c-1.79,1.1-2.79,1.14-4.29-.33-.8-.78-1.73-1.52-2.45-2.37-.4-.48-.21-.54.22-.8a32.8,32.8,0,0,0,6.24-5.09c.93-.95,1.84-1.95,2.69-3a5,5,0,0,1,2.39-2c2.59-.75,5.51-.65,8.19-1a62.35,62.35,0,0,1,8.13-1c-.23,1.12-1.28,1.85-1.46,3,1.16-.21,2.55-2.07,2.2-3.23.34,0,.66,0,1,0M82,14.91c.48.06,2.23-1,1.66-1.56s-1.59,1-1.66,1.56m7.17-.79c-.37.75-.74.37,0,0m11.39,1.16c.54,1-1.27,3.16-2.2,3.48a6.34,6.34,0,0,1,2.2-3.48m-2.3,24.51c-.58.12-.75-.35-.64-.85a4.05,4.05,0,0,1,.87-1.37c-.6.22-1.44.79-1.48,1.49-.06,1.16,1.19,1.25,2,1.22,0,.84,0,1.53-.75,2-.53.35-1.86.87-1.71-.29a3.33,3.33,0,0,0-1,1.74,1.74,1.74,0,0,1,1.4.58,9.41,9.41,0,0,1,1,2.18c.35.67.91,1.58.56,2.37-1,2.23-4,1.81-6,1.83a13,13,0,0,1-6.1-1.3,17.19,17.19,0,0,1-4-3.18c-1-1.12-1.67-3.07-3-3.84a17.63,17.63,0,0,0,3.48,5.08,16.82,16.82,0,0,0,3.56,2.44c1.29.63,2.74.74,4,1.35.84.41.52,4,.36,4.65a5.61,5.61,0,0,1-1.46,2.86c-1.34,1-4.1.4-5.68.5-2.37.14-4.8.75-6.6-1.14s-3.38-3.56-5.25-5.18c-.84-.72-1.68-1.46-2.55-2.13-.7-.55-1.58-1.18-1.47-2.19,0-.19.38-1,.58-.92.38.23.72.5,1.08.75a4.36,4.36,0,0,0,3.09.78c1,0,1.79-1.09,2.38-1.77a2.94,2.94,0,0,0-1.68-4.53,3.26,3.26,0,0,1,1.44-1.53c.71-.48,1.4-1.37,2.24-1.62s1.54,1.2,2.13,1.65c1.08.81,2.28-1.58,2.82-2.21s1.32-1.16,2-1.77a7.32,7.32,0,0,0,1.33-2.73c.59-1.48-1-3.1-.43-4.5A15.42,15.42,0,0,0,86,27a5,5,0,0,0,0-1.44c0-.53-.36-.83.29-1A5.9,5.9,0,0,0,88.75,23a6.51,6.51,0,0,1-1.69.27c-.72.08-.71-1-.77-1.37-.14-.92,1.92-1.06,2.57-1.14a38,38,0,0,1,8-.54c.75.06.91.06,1.32.68a14.14,14.14,0,0,1,1.22,3.59,11,11,0,0,1,.44,4,13.6,13.6,0,0,0,.79,4c.38,1.49.76,3,1.17,4.45.14.5.94,3.07-.29,2.85-1-.19-2.64-1.43-3.25-.13m-14.48-18c0,.84-.24,1.63-.23,2.47a2.09,2.09,0,0,1,.23-2.47m-3,.52c-.17,1-.61,1.94-.69,3A9.13,9.13,0,0,0,81.22,30a9,9,0,0,1,1.4,4.21c-1-.26-1.5-1.54-2-2.3a9.63,9.63,0,0,1-1.77-3.25c-.33-1.65-.64-6.23,2-6.31m-2.47.76c-.89,2.73-1.15,5.93.45,8.5.78,1.25,1.93,2.54,2.31,4,.31,1.18.73,3.47-.92,3.84a5.28,5.28,0,0,0-1.25-3c-1.3-1.8-3.66-3.13-4.22-5.41a15.23,15.23,0,0,1-.31-3.67c.39.47.37,1.35.59,1.9a11.75,11.75,0,0,0,1,2c.94,1.5,2.52,2.48,3.62,3.87a7.74,7.74,0,0,1,1.05,3c.71-1.19-.11-3.1-1.05-4a14,14,0,0,1-3.27-3.52A7.34,7.34,0,0,1,75.74,26c.16-.88,1.35-3.56,2.6-2.92m-2.23.26a2.45,2.45,0,0,1-.49,1.24c-.29-.22-.6-.39-.75-.73a6.37,6.37,0,0,1,1.24-.5m5.44,0a27.9,27.9,0,0,0,.13,3.4c.18,1.37.73,2.64.91,4-1-.71-1.5-2.64-1.74-3.75s-.35-3,.69-3.66M85,24a5.29,5.29,0,0,1,.26,1.24A.87.87,0,0,1,85,24m-11.63.58a2.94,2.94,0,0,1-.73.75c0-.47.23-.8.73-.75m9.15-.06A8.74,8.74,0,0,1,84,27.17c0,.21-.53.37-.71.42s-.7.32-.79,0c-.2-.78-.52-2.32,0-3m5.24,5.65c.72-.57.75-1.66,1.62-2.18a10.29,10.29,0,0,1,3.16-1.25c2.08-.47,4.29,0,6.33.39-.16-1.17-2-1.26-2.93-1.5a7.19,7.19,0,0,0-3.27.24,8.8,8.8,0,0,0-3.15,1.33,5.89,5.89,0,0,0-1.36,1.22,3.88,3.88,0,0,0-.41,1.76M72.42,25.87c-.16,1-.62,1.94-.84,2.91a7.65,7.65,0,0,0,.74,4.69c.52,1.34,1.15,3,.29,4.38-1.18,1.8-3.4,2.81-4.16,4.89-.62,1.68-.27,4.7-2.06,5.69a8.47,8.47,0,0,1,.24-1,20.89,20.89,0,0,1-4,.26,2.92,2.92,0,0,0-1.81.72c-.85.79-.84,2.74-2.08,3.15-.67.23-1.37-.18-2-.23a2.92,2.92,0,0,0-2.12.6,9.66,9.66,0,0,1-1.54,1,2.71,2.71,0,0,1,1.55-2.32c1.15-.31,2.08.59,3.15.36,1.56-.33,1.31-2.09,2.06-3.09.4-.52,1-.82,1.37-1.38s.59-.57,1.32-.34a1.18,1.18,0,0,1,.61.36c.17.19-.1.39.21.44a2.59,2.59,0,0,0,2.85-1A3.07,3.07,0,0,0,67,44.65c.19-1.4.24-3.35,1.44-4.3s2.5-1.58,3.27-2.83c1-1.68-.38-3.91-.9-5.54a7.23,7.23,0,0,1,.7-5.75c.2-.46.39-.35.89-.34m1.24,0c-.06,1.73-.57,3.63,0,5.33.56,1.54,1.77,3.41,1.72,5.09a6.13,6.13,0,0,1-.79,2.85c-.69,1.5-2.72,2.63-2.91,4.35a3.22,3.22,0,0,0,.58,2.43,2.68,2.68,0,0,1,1-.5c-.16,1.36-2.1,1-2.38-.11a4.68,4.68,0,0,1-.19-2c.07-.6.21-1.21.32-1.81a4.54,4.54,0,0,0-1.2,2.82,7.37,7.37,0,0,0,.18,1.6c0,.31,1,.89,1.21,1.09,1.72,1.51,4.08-1.34,2.06-2.82.44-.38.84.14,1.1.45.4.5.19,1.16.16,1.78-.07,1.27-1.18,1.53-2.19,1.72-.56.11-.87.26-1.37,0a4.18,4.18,0,0,1-1.5-1.14A4.3,4.3,0,0,1,69,43.88a4.46,4.46,0,0,1,1.5-2.75c.85-.68,1.82-1.17,2.66-1.9a4.73,4.73,0,0,0,1.19-2.89c.11-1.85-1.45-3.12-2-4.75a6.64,6.64,0,0,1-.18-2,5.13,5.13,0,0,1,1.46-3.71M70,26.13c0,1-.21,1.94-.33,2.92-.26,2.19,1.38,3.75,1.55,5.77.07.84.29,2.23-.65,2.68,0-2.19-2.16-4.09-2.9-6.1s-.21-5.28,2.32-5.27m-3.45,2c0,1.35-.35,2.65.39,3.91.65,1.1,1.93,2.46,2.13,3.74a5.19,5.19,0,0,1-1-.73,12.81,12.81,0,0,0,.26,2c-1.16-.7-2-2.93-2.19-4.19-.15-.94-.58-4,.4-4.71m23.28,3.79c.83.53.91,1.74,2,2a4.5,4.5,0,0,1-.25-1.48,4.55,4.55,0,0,0,3.72.72c0,.33,0,.66,0,1,1.08-.19,1.12-2,1.27-2.84.11-.62,1.6-3.64-.41-3.25-1.44.28-2.42,1.2-3.64,1.91-.86.5-2.49.84-2.69,2M84.07,28.5l.25.5c-.62.14-.66-.55-.25-.5m-20.29.89c0,.62-.26,1.25-.23,1.86.13,2.27,1.46,4.09,1.77,6.29-1.42-1-1.88-2.69-2.31-4.25-.21-.78-.58-4.14.77-3.9m1.24,0a11.49,11.49,0,0,0,.67,4.48,16.71,16.71,0,0,1,1.63,4.9,6.66,6.66,0,0,1-.93-2.41c-.34-.91-.79-1.78-1.13-2.7-.42-1.15-1.28-3.21-.23-4.28m29.45.28a2.47,2.47,0,0,1-1.72,1.25,2,2,0,0,1,1.72-1.25M93,31.9a2.21,2.21,0,0,1,1-.37c.53.07.44.44.51.9,0,.31-.7.28-.86.24-.37-.07-.49-.47-.62-.76m-9.65-.17a11.05,11.05,0,0,1,.52,3.22c-.4-.48-1-2.71-.52-3.22M78.69,37.2c.17.26,1.14,2.44.41,2.19a1.3,1.3,0,0,1-.41-2.19M60.64,39.56c.38.33.65.76,1,1.12a3.44,3.44,0,0,0,1.61.91c1,.35,1.72-1.4,2.6-1.58-.2,1.44-1.56,3.14-3.19,2.89-1.3-.19-3-2.05-2-3.35m5.72,2.68A5.19,5.19,0,0,1,66,44.7c-.42.91-.64,1.89-1.86,1.76.39-.65,1.09-1.07,1.47-1.74-.52.11-1,.34-1.53.46-.87.21-1.77-.06-2.64.12s-1.62.58-2.49.7c0-1.75,2.12-1.83,3.33-2a6.93,6.93,0,0,0,2.22-.47c.65-.39,1.21-.89,1.85-1.27M60.18,43a7.29,7.29,0,0,1-2.46,2,2.32,2.32,0,0,1,2.46-2m38.6,2c-.58-.19-1.71-.71-.78-1.19s1.09.58.78,1.19M63.42,48.19a1.89,1.89,0,0,1-1.24.26,2,2,0,0,1,1.24-.26m1,2c2-1,3.9.37,5.38,1.7,1.85,1.67,3.76,3.28,5.46,5.09,1.33,1.42,2.67,3.24,4.82,3.23.8,0,1.6-.24,2.42-.26l2.57,0c1.42,0,3.31.27,4.58-.52A7.24,7.24,0,0,0,91.93,56c.33-.77,1.53-2.94,2.73-2.06.27.2.07,1.22-.12,1.49a26.28,26.28,0,0,0-2.06,3.91c-.42.88-.92,2.42-1.76,3s-2.41.23-3.26.27c-1.44.06-2.87.16-4.3.26-2.13.15-5,.8-6.77-.74-2.2-1.93-4-4.25-6.14-6.28-1-1-2-2-3.11-3a9.9,9.9,0,0,1-2.73-2.72m39.63,5.66A8.77,8.77,0,0,1,102,58a32.72,32.72,0,0,0-2.4,2.43A25,25,0,0,0,95.79,66a41.83,41.83,0,0,0-2.64,6.47c-.74,2.17-1.67,4.3-2.29,6.5a9.31,9.31,0,0,1-2.2-2.37A3,3,0,0,1,88,73.71a71.92,71.92,0,0,1,3.82-10.59c.72-1.67,1.41-3.35,2.26-5,.65-1.21,1.71-3.52,3.12-4,1-.35,2.12.24,3.06.54,1.25.39,2.5.84,3.79,1.15M21.38,86.11a16,16,0,0,1,.94-6.44c1.71-4.1,5.43-6.79,8.59-9.7.81-.76,1.47-1.66,2.21-2.49a12,12,0,0,0,2-2.35c1.05-2,1.9-3.91,3.66-5.45a10.76,10.76,0,0,1,5.64-2.93,8,8,0,0,1,3.36.45c1.22.32,1.19,1.35.68,2.25-1.15,2-2.83,3.81-4.07,5.8-1.49,2.4-2.94,4.82-4.37,7.27a73.93,73.93,0,0,0-3.64,6.68c-.67,1.45-1.22,4.79-3.15,4.91a16.14,16.14,0,0,1-3-.32c-3.26-.46-5.75,2.3-8.86,2.32M111,59.74c-1.93.65-4,1.23-5.57,2.58a39.55,39.55,0,0,0-8.5,10.37,29.32,29.32,0,0,0-2.66,5.64,9.8,9.8,0,0,1-.82,2.07c-.21.35-1.17,1.45-1.46.7-.07-.18-.28-.52-.25-.71a42,42,0,0,1,2.48-8,44.91,44.91,0,0,1,3.47-7.82,28,28,0,0,1,5.48-6.17,11.16,11.16,0,0,1,2.67-2.1c.93-.41,2.16.48,2.87,1s2.17,1.36,2.29,2.41m-60.88-.63c1.39-.21-.3,2.14-.52,2.43A103.29,103.29,0,0,0,41.68,74c-1.13,2.13-2.16,4.31-3.14,6.53-.35.79-1.43,5.23-2.91,4.59-.62-.28-.38-1-.35-1.5a8.23,8.23,0,0,1,1.21-3c.53-1.07,1-2.16,1.57-3.2C39.29,75,40.6,72.69,42,70.43s2.8-4.42,4.27-6.58c1-1.54,2.09-4,3.89-4.74m1.51,1.3c.31,1.23.52,2.47.89,3.69.2.62.69,1.91.09,2.45-1.18,1.07-2.85,1.39-4.3,1.92-.7.26.41,3.88.43,4.57,0,1.35-.9,1.53-2,1.95a7,7,0,0,0-1.38.64c-.7.45-.84.56-1,1.39-.25,1.44.67,2.85.33,4.32-.2.87-2.7,1.51-3.36,1.91s-.48,1.11-.4,1.66a22.14,22.14,0,0,1,.2,3c-1-.33-1.29-1.23-1.51-2.19a10.8,10.8,0,0,1-.52-3.4c.08-.81,2.16-1.24,2.76-1.51,1.2-.54,1-1.64.87-2.69a7,7,0,0,1-.14-3c.77-2.17,4.77-.8,4.42-3.88a14.28,14.28,0,0,1-.38-3.3c.17-1.67,4.17-.6,4.25-2.59.07-1.66-1.15-3.84.69-5m3.47,1.71a2.71,2.71,0,0,1-1,1,1.65,1.65,0,0,0,1.48.49c0,2.15-1.24,4.61-2,6.59-.86,2.27-1.74,4.56-2.72,6.78s-2,4.33-3.22,6.42c-1,1.85-2.08,4.38-3.74,5.74-.29.24-1.26-.23-1.38-.51a8.49,8.49,0,0,1-.84-3.07,4,4,0,0,1,.13-1.69c.17-.52,1.38-.85,1.83-1,.76-.31,1.81-.76,1.76-1.74s-.84-4.08.06-4.65a13.62,13.62,0,0,1,2.6-1.23c.67-.25,1.36-.63,1.43-1.42a21.59,21.59,0,0,0-.37-3.17c-.09-1.22.07-1.77,1.34-2.21.86-.3,2.37-.62,2.9-1.41s.1-1.94-.08-2.72c-.29-1.2-.46-2.42-.71-3.62a4.17,4.17,0,0,1,2.49,1.47m56.66-.9c.82,1.07,1.7,2.09,2.52,3.15s1.81,2,2,3.25c-1.1-.21-2.22-2.1-2.81-2.94-.41-.61-2-2.67-1.69-3.46m-2.87,5.58c0,.33-.35.15-.35.15l.17-5.34.45-.18m-1.59.82a9.44,9.44,0,0,1,0,3.34c0,.57.22,1.9-.29,2.31a4.24,4.24,0,0,1-1,.67c-.47.2-.5.11-.75-.28a16.93,16.93,0,0,1-1-1.61c-.4-.8-.65-1.19-.21-2a5.22,5.22,0,0,1,3.18-2.42M57.1,63.83c-.83,5.15-2.92,10-4.9,14.81-1,2.45-2.07,4.89-3.2,7.28-.45.95-1.82,5.14-3.34,5-1.19-.14-.41-2-.11-2.5,2.36-4.18,4.8-8.34,6.75-12.75,1-2.19,1.81-4.43,2.6-6.68.25-.69,1.28-5.34,2.21-5.12m33.15-.23c-.07,1.82-1.12,3.56-1.7,5.25-.34,1-.66,2-1,3-.19.56-.33,1.91-1.13,1.92-.35,0-.78-.81-1-1.05a6.9,6.9,0,0,1-1.77-2.6c-.12-.47.46-.63.46-1.17s-.62-1.05-1.07-.81-.48.6-1,.21a14.64,14.64,0,0,1-3.33-3.61,2.24,2.24,0,0,1-.34-.81c1.77,0,3.53-.29,5.31-.29,2.2,0,4.38,0,6.57,0m-2.91.68c-.58.3-.46.77-.35,1.31.07.37.91.42,1.25.51.1-.46.19-.93.29-1.39,0-.1-1-.37-1.19-.42m-29,.29c1.43.62,4,2.19,4.59,3.72a64.63,64.63,0,0,1,2.48,9.42A81.54,81.54,0,0,1,67,87.46c.32,3.16.86,6.29,1.11,9.45,0,.63.79,6.28-1,5.63-.64-.23-1-.27-1-1a166.19,166.19,0,0,0-2.62-19.64A91,91,0,0,0,61,72.18a33.58,33.58,0,0,0-2-4.69c-.36-.68-1.39-2.18-.7-2.92m25.85.06c-.13.45-.37.84-.18,1.27.32.74,1.42.29,1.47-.39s-.68-1.4-1.29-.87m-3,.27c0,.38-.09.75-.14,1.12l1.15.13c0-.2.22-1,.11-1.15s-.92-.08-1.12-.1M57.86,66.54c1.47,2,2.1,5,2.77,7.29.82,2.82,1.42,5.7,2,8.58A97.81,97.81,0,0,1,65,101.13a8.6,8.6,0,0,0-1.24,0,5.84,5.84,0,0,0-.25-1.48c-.71.37-.76.28-.94-.49-.11-.49-.19-1-.31-1.48a2.64,2.64,0,0,0-.49,1c-.5-.54-.56-2.53-.52-3.21-1,.65-.73,2.21-.72,3.23-.53-.57-.29-1.5-.27-2.21,0-1.09-.25-2.15-.25-3.24a2,2,0,0,0-.73.75c-.44-.48-.29-1.48-.44-2.09-.22-.91.11-1.32.28-2.16a47,47,0,0,0,.53-6.36c0-.59.34-8.2-.76-8.2-1.42,0,.65,4.17-1.11,4.44-.25,0-.08,1.62-.08,1.75a3.54,3.54,0,0,1-1-.49c-.07.42-.17.82-.24,1.24a7.49,7.49,0,0,0-.75-.49,6.88,6.88,0,0,0-.23,1.73c-.29-.16-.35-.48-.5-.74,0,0-.58.77-.49.74-.31.11-.55-.31-.74-.49a1.34,1.34,0,0,0,.51,1.73c0-.33,0-.66,0-1,.36.44.28,1,.57,1.52s.68.35.68,1,0,1,0,1.46l1-.5c0,.57,0,1.16,0,1.73.35-.15.52-.46.73-.75,1.44,2.18-1,4.08-2.19,5.71-.46-.72.16-1.75.07-2.54-.13-1.13-1.26-2-2.09-2.65-.4,1.26,1.39,2,.77,3.21a1.89,1.89,0,0,1-.26-1.24,1.3,1.3,0,0,1-.74.26,4.16,4.16,0,0,1,0,1.48c-.49-.59-.26-1.73-.51-2.47a4.09,4.09,0,0,0-.47,2.72c-.39-.45-.19-2-.76-2s-.23,2.41-.23,2.72c-.54-.65-.15-1.69-1-2.22a2.63,2.63,0,0,1-.24,1.24,8.66,8.66,0,0,0-.74-.49,1.3,1.3,0,0,0-.24.74,1.9,1.9,0,0,1-1.24-.67c-.38-.36,0-1.11.15-1.49.8-2,1.95-3.95,2.85-5.94s1.82-4.15,2.69-6.25,1.76-4.24,2.49-6.42c.27-.81,1.16-5.43,2.24-5.24m51.46-.36c1.1.55,3,0,3,1.8a26.92,26.92,0,0,0,.28,4.37,7.73,7.73,0,0,1-2-3.45,8.55,8.55,0,0,1,1-.26c-.16-1.28-1.29.07-1.6-.41s-1.09-1.52-.65-2.06M86.13,68.07c-.12.09-.6.61-.34.76s.83.65,1.07.54a1.71,1.71,0,0,0,.33-1c-.17-.44-.68-.29-1.06-.29m15.29.14c2,2.51.75,5.87.55,8.71a52.38,52.38,0,0,1-.85,5.23,19.36,19.36,0,0,1-.49,2.39c-.16.5-1,0-1.07.75a3.63,3.63,0,0,1-.5-1.49c-.11.18-.54.42-.74.26s0-.84,0-1c-.23.12-.74.49-.74.06,0-2.61.8-5.29,1.25-7.86.38-2.22.42-5.76,2.6-7.07M64.81,69.46a15.81,15.81,0,0,1,2.34,1.8c.81.69,5.28,6.79,5.5,7.8.87,4.2,1.76,8.33,2.24,12.59.23,2.12.56,4.22.78,6.33.1.93.83,4.29-.14,4.63a11.56,11.56,0,0,1-3.83.17c-.45,0-2.09.22-2.45-.2s0-2.11,0-2.74c0-1.46-.27-2.94-.42-4.39-.31-3.12-.78-6.21-1.19-9.31s-.85-6.23-1.55-9.31c-.34-1.5-.72-3-1.06-4.5-.18-.73-.78-1.94-.32-2.66l.11-.19M50.72,71.3c.74,0,1-.19.88-.93,0-.26-.55-.05-.66.06a1.55,1.55,0,0,0-.22.87M98,73.43c-.08,2.22-.71,4.36-1,6.56-.14,1.1-.34,2.2-.51,3.28a11.11,11.11,0,0,1-.63,3.27c-.81-.56-.35-2-.28-2.74.14-1.48.33-3,.48-4.45.19-1.9,0-4.77,1.93-5.92M73.52,76.83c1.67,1.36,3.58,2.9,4,5.1.76,3.58.55,7.3,1.16,10.9.29,1.77.36,3.57.5,5.36,0,.64.69,4-.28,4.35a1.82,1.82,0,0,1-1.45-.15c-1.27-.87-.87-3.84-1-5.12-.19-2.46-.54-4.92-1-7.35s-.9-4.87-1.38-7.3c-.21-1-.39-2.11-.64-3.16-.17-.75-.54-2,0-2.64m-25.67.67c-.19.14-.47.43-.37.7s.63.26.95.31c0-.43.16-1.43-.58-1m47,2.39c0,1.14.19,3.56-.71,4.46a2.46,2.46,0,0,1-.43-2.28,4.48,4.48,0,0,1,1.14-2.19M78.76,82c.78.74,2.61,1.93,2.61,3.14s-.53,3.17,1.15,3.52A3.88,3.88,0,0,1,83,87.35c.35-.66.55-.33,1.09,0,.38.26.61,1,.82,1.45a7.1,7.1,0,0,1,.26,2.47c.11,1,.15,2.09.21,3.13.14,2,.36,4,.41,6.1a3.69,3.69,0,0,1-.14,1.54c-.28.63-1.06.39-1.61.45-1,.11-3.43.67-3.7-.84-.63-3.44-.31-7-.88-10.45-.3-1.78-.26-3.63-.49-5.43-.15-1.17-1.07-2.75-.23-3.83M42,89.92c.35-.18.43-.35.66,0a3.19,3.19,0,0,0,.44.36c.33.28.38,0,.38.53s-.1.4-.56.51C37.79,92.57,33,96,29.45,99.76c-2.6,2.74-4.2,6.32-5.63,9.77a101.4,101.4,0,0,0-4,12.06c-1.16,4.22-2.3,8.48-3.35,12.73S14.9,142.8,14.15,147c-.91-.86-1.07-2.65-1.37-3.81-.42-1.69-.72-3.42-1-5.14-.56-3.51-1.16-7.08-1.42-10.62s1-6.09,2.16-9.24c.44-1.25,1.61-4.87-.49-5.28-.57-.11-.89,1.66-1,2a13.6,13.6,0,0,0,0,3.75,8.08,8.08,0,0,1-.82,3.62,3.34,3.34,0,0,1-.34-2.54,28.08,28.08,0,0,0,.07-3.65c-.06-2.76,0-5.54-.07-8.3,0-1-.16-2.08-.12-3.12a14,14,0,0,1,.91-3.45c.73-2.41.47-5.23,2-7.4,1.75-2.53,4.76-4.24,7.45-5.57,3.19-1.57,6.52-3.3,10.11-3.59,2-.16,4.57,1,6.31,1.86A38.15,38.15,0,0,1,40,88.4c.61.35,1.81.74,2,1.52m1.45-4a.91.91,0,0,0,1.23-1c-.63,0-1.23.29-1.23,1M86.24,89.6c1.85,1.16,1,4.83,1.16,6.62.06.92.92,5.64-.56,6-.07-2.42-.49-4.82-.57-7.25-.06-1.36-1-4.15,0-5.36m-4.45.77c-.24.74-.73,1.36-.61,2.18a2.25,2.25,0,0,0,1.27,2c.48.16.72-2.08.76-2.31a2,2,0,0,0-1.42-1.86M45.43,92.11c-.48.75-1.55.83-2.33,1.06a16,16,0,0,0-3.77,1.71A32.07,32.07,0,0,0,32.44,100c-4.15,4.23-6.4,9.55-8.32,15-1,2.77-1.72,5.59-2.42,8.44s-1.61,5.75-2.3,8.67c-1.41,6-2.6,12.06-3.76,18.11-1.92-.36-.64-4.32-.47-5.48,1.14-7.64,3.32-15.12,5.23-22.59,1.83-7.15,4.07-15,8.5-21a20,20,0,0,1,5.49-4.82,42,42,0,0,1,6.53-3.76c1.17-.46,3.33-1,4.5-.41M58.3,92c0,.91,0,1.81,0,2.72a2.94,2.94,0,0,1,0-2.72m29.94-.21a5.35,5.35,0,0,1,2.5,3c.25.55-.29,1.24-.51,1.72a2.79,2.79,0,0,0-.09,2c.16.54.43,1.08.56,1.62.23,1,.85-.35,1-.7a5.53,5.53,0,0,0,.51-1.78A10.15,10.15,0,0,1,92,95.74a3.68,3.68,0,0,1,1.57,2.09,5.79,5.79,0,0,1,.19,2.63c-.1.38-.13,1.17-.44,1.41-.49.4-5,.63-5,.2,0-1.94,0-3.87-.15-5.81-.11-1.09-.67-3.49.09-4.45M47.67,94.32a1.36,1.36,0,0,1-1.3,1.94c-.8-.12-2.44-.72-3.2-.32-1,.55-1.1,2-2,2.66S39,98.43,38,98.67c-.73.2-1,.13-1.34.82-.42,1-.07,2.17-.67,3.08-.5.75-1.93.67-2.71.85-1.15.26-1.94.82-2,2.08,0,.8.64,2.76,0,3.38-1,.9-2.23,1.4-3.24,2.24-1.25,1-.16,2.89,0,4.19.08.49.21.92-.17,1.3-1.18,1.23-3.12,1.88-2.88,3.85.14,1.09.66,2.1.83,3.19.21,1.33-1.79,2.33-2.53,3.17-1.39,1.56,1.42,3.38.44,5-.56.94-1.64,1.41-2.29,2.26a2.66,2.66,0,0,0-.37,2.92c.31.9,1,2.29.7,3.25s-1.7,1.64-2.43,2.4c-1,1,.87,3.38,1.07,4.47.36,2-2.15,2.1-2.67,3.67s2.69,4.67.09,5.3c-.1-.45.16-.89.2-1.32.14-1.29-1.19-2.29-1.53-3.46-.51-1.8,1.31-2.16,2.08-3.35a1.53,1.53,0,0,0,.35-1.58,12.1,12.1,0,0,0-.53-1.63c-.39-1.07-.82-2.09-.1-3s1.91-1.38,2.29-2.39c.66-1.76-1.41-3.4-.57-5.14.46-.95,2.71-2.17,2.56-3.24s-.67-2.09-.78-3.15c-.07-.66-.17-1,.32-1.51s.88-.74,1.3-1.12c.88-.79,1.56-1.52,1.25-2.77-.27-1.07-.68-2.09-.87-3.18s1.2-1.78,2.05-2.36a2.17,2.17,0,0,0,.8-2.63c-.19-.69-.92-2.58-.3-3.21a15.12,15.12,0,0,1,2.74-2.13,2.58,2.58,0,0,0,1.25-2.59c0-.84-.26-2.76.53-3.32s2.16-.45,3-.93a2.51,2.51,0,0,0,1.34-1.66c.17-.66.11-1.93.63-2.44.8-.79,2.82,0,3.84-.15,1.65-.3,1.53-2.46,2.91-3.09.67-.31,1.85.29,2.54.39a2.64,2.64,0,0,0,2.39-.79m11.63-.08c0,.74,0,1.48,0,2.23a2.17,2.17,0,0,1,0-2.23m-3.46,1a31.49,31.49,0,0,0,1.8,4.15,5,5,0,0,1,.71,3.87c-.94,2.78-2,5.52-2.89,8.31-.82-.17-1.06-1-1.33-1.68-.43-1-.81-2.13-1.27-3.17s-1.47-2.23-1.21-3.45c.17-.8.28-1.6.41-2.41.2-1.25,1.44-2.18,1.84-3.4.31-1,.74-2.18,2-2.21m-6.68.54a3.84,3.84,0,0,1,.5,1.49c-.29,0-.57-.12-.87-.16s-.62,0-.62-.37a1,1,0,0,1,1-1M82.35,100c.64,0,.59.07.88-.4a4.1,4.1,0,0,0,.39-1c.22-.76.29-1.91-.59-2.34-.46-.22-.68-.31-1,.11a1.9,1.9,0,0,0-.4,1.2c.14.89.58,1.61.76,2.44M46.2,97.31a4.75,4.75,0,0,1-1.23.61c-.61.2-.7.21-.88-.43s-.7-.59-.65.08c0,.44.46.86.07,1.15-4.28,3.06-7.19,8-9.55,12.61a91.33,91.33,0,0,0-6.27,15.61c-1.62,5.38-3.23,10.88-4.39,16.38-.61,2.88-1.13,5.79-1.56,8.7-.2,1.34-.31,2.66-.43,4s-.65,2.84-.39,4.07c-.51-.07-.66-.62-.8-1-.2-.59-.86-.87-1.1-1.46-.39-1,1-1.55.8-2.55s-1-1.89-1.09-2.9c-.06-.45-.32-1.17,0-1.52a19,19,0,0,0,2.51-2.54c.62-.95-1.22-3.39-1.24-4.49s1.14-1.73,1.85-2.43c1.16-1.14.39-2.46.12-3.82s-.56-2.48.58-3.52c.49-.44,2.2-1.52,2.05-2.32a10,10,0,0,0-.4-1.79c-.46-1.25-.61-1.93.15-3.06.61-.89,1.65-1.42,2.28-2.34.42-.6-.35-2.42-.56-3.09-.34-1.13-.57-2,.53-2.76.48-.35,2.33-1.32,2.32-2a23.74,23.74,0,0,0-.68-3.19c-.21-1.34.27-1.94,1.42-2.57.84-.46,2.08-1.09,2.47-2,.65-1.5-.92-3.71,1.08-4.59,1-.43,3.45-.37,3.64-1.79a8.34,8.34,0,0,1,.25-1.64c.31-.87.28-1,1.14-1.25,1.1-.37,2.22.33,3.28-.31.57-.36,1.26-2.25,1.89-2.3.89-.06,2.13-.25,2.78.49m4,2.19a6.28,6.28,0,0,0-3.28-.24A7.27,7.27,0,0,0,44,100.71c-4.08,3.3-6.29,8.14-8.68,12.67a87.59,87.59,0,0,0-6.27,15.86c-3.27,10.93-5.5,22.36-5.43,33.78-2-1.05-2.08-3.66-1.81-5.64.32-2.32.4-4.66.74-7s.88-4.76,1.4-7.12c1.08-4.89,2.38-9.7,3.75-14.51a85.51,85.51,0,0,1,5-13.74c2-4.23,4.32-8.57,7.48-12.08A28.32,28.32,0,0,1,45,98.73a4.48,4.48,0,0,1,2.69-.89c.9.05,2.35.63,2.48,1.66m-1.23,1c-1.62,0-3.08,1.26-4.3,2.21-.7.55-1.4,1.11-2.05,1.71s-1.17,1.4-2,1.58a6.07,6.07,0,0,1,1.32-2.49,9.4,9.4,0,0,1,2.21-2.3c.84-.57,4.4-2.52,4.85-.7m-10.88,1.07a.71.71,0,0,0,1-1c-.47.24-.88.42-1,1m11.65,1.65a4.46,4.46,0,0,0-2.06.21c-1.16.74-2.25,1.55-3.34,2.37-.87.65-2,1.5-2.23,2.66.43,0,1.31.74,1,1.23s-1.82,0-2-.41c-.12-.21-.64-.87-.57-1.1a3.47,3.47,0,0,1,.52-1.25A20.37,20.37,0,0,1,46.6,102c.56-.34,1.52-.87,2.16-.58s1.4.82,1,1.77M42.21,126c.65.13,1.39,1.09,2,1a2.55,2.55,0,0,0,2.28-1.43,13.41,13.41,0,0,0,.8-2.48,6.22,6.22,0,0,0-.68-2.93c-.46-1.19-.77-2.45-1.14-3.66-.61-2-2-4.72-.44-6.62a3.22,3.22,0,0,1-1-.65,3.12,3.12,0,0,1-.56-1.55c.06-.79,1.35-1.83,1.91-2.28a6.24,6.24,0,0,1,2.86-1.64,3.22,3.22,0,0,1,2.9,1.14c1,1.09,1.3,2.7,1.86,4s1.65,3.57,1.13,5.18A61.73,61.73,0,0,1,50,122.93c-.66,1.29-1.23,2.61-1.91,3.88A3.76,3.76,0,0,1,45.2,129a1.59,1.59,0,0,1-2-.79,7.52,7.52,0,0,1-1-2.2m-8.19-20c-.41.29.08,1,.51.74s-.16-.93-.51-.74m10.78.91c0,.61.06,1.27.75,1.48,0-.51-.2-1.29-.75-1.48m-3.92,5.48c.32-.28.64-.5,1-.75.59,1.09.37,2.52.29,3.7-.1,1.46.19,3.63-.47,5-.64-.58-.39-1.6-.32-2.35a35.49,35.49,0,0,0,0-3.84c-.88.57-1,2-1,3-.6-.36-.87-1.33-1.07-1.94-.14-.44-.33-.71.14-.91s.81-.2,1-.54-.39-.85-.69-.79a9,9,0,0,1-1.31.36.78.78,0,0,1-.8-.53c-.08-.16-.82.13-1,.17-.27-1.13,1.12-2.69,1.93-3.28.5-.37,1.3.66,1.54.94a4.93,4.93,0,0,1,.73,1.82m42.32.93a3.46,3.46,0,0,0,.68-2c-.09-.62-.22-2.07-1.19-2-.69,0-1,1.51-.86,2,.16.82.43,1.83,1.38,2m-44.7-2.64c-.39.32-.39.6-.41,1.07,0,.68.3.68.9.67s.59-2.3-.49-1.74m27.35-.45a48.38,48.38,0,0,1-1.33,7.78c-.57,2.82-1.14,5.64-1.8,8.44-1.23,5.14-2.37,10.53-5.41,14.94-1.1,1.6-3.07,3.32-5.12,3.34s-4.9-1.09-4.91-3.47c0-5.91,2.65-10.89,5-16.17,1.16-2.63,2.23-5.29,3.49-7.87.68-1.37,1.37-2.73,2.11-4.06.47-.85.73-2.06,1.73-2.45,1.82-.74,4.35-.45,6.28-.46M30,112.51c.36.74.79.94,1.15.11.24-.55-1-.22-1.15-.11m7.68,1.43a2,2,0,0,1-1,1.74c0-.33,0-.66,0-1-.78.49-.56,2.17-.72,3,.48.09,1.37-.63,1.38.18a6.89,6.89,0,0,0,.37,1.78,8.79,8.79,0,0,0,.85-1.59c.24-.49.33-.39.89-.34a2.9,2.9,0,0,0,1-.07c0,2.91-.1,5.82-.15,8.73,0,1.2,0,2.39,0,3.59,0,.81-.09,2.11.8,2.52,0-1.67.15-3.29.22-4.95,1.67,1.27-.8,4.45,1.28,5.44,0-.83-.31-2.14.47-2.72.54,1-.23,2.87,1,3.46,0-.83-.16-2.07.48-2.72,1,1.82-.34,4.36-1.26,5.92-2.08,3.54-3.94,7.22-5.74,10.91-.9,1.85-1.74,3.72-2.65,5.57-.45.92-.91,1.84-1.41,2.73a3.44,3.44,0,0,1-.68,1.09c-.26.19-.79.3-.93.6a10.66,10.66,0,0,0,.25,1.48c-.47-.14-.58-.56-.75-1A10.57,10.57,0,0,0,28.38,162c1.07,0,1,1.25,1,2a2.76,2.76,0,0,0,.9-.92c.48-.65.74-.53,1.48-.39a1.3,1.3,0,0,1,1,.9c.12.57-.53.7-1,1-1.38.76-4.85,1.38-6-.11a4.86,4.86,0,0,1-1.37-2.94c0-1.48.67-16.48,1.81-16.24a1.63,1.63,0,0,1,.68.22c.54.41.88.53.51,1.22S26,148.2,25.8,149.17c.79,0,1-.23,1,.58s0,1.43,0,2.14a3.94,3.94,0,0,0,1.22-2c.17-.39.23-.64.69-.39a4.3,4.3,0,0,0,1,.36c-.21-.76-1.25-3.64-.28-3.89a2,2,0,0,0,1-.44c.44-.34-.15-.55-.44-.74s-.76,0-1,0c-.75,0-1.43-.48-2.21-.55-.58-.05-.57-.12-.47-.69.19-1.06.94-1.86,1-2.95s-.14-2.31.61-3.09c.48.88.26,2.26.27,3.22,1.12-1.45.75-4.19.86-6,.06-.91.11-1.83.23-2.74,0-.17,0-.52.15-.66s1.16.17,1.17.52c0,.63,0,1.28,0,1.92a5.4,5.4,0,0,0,1.07-1.25c.52-.63.81-.5,1.63-.51a22.53,22.53,0,0,1-.69-2.51c-.23-1.29.14-.69,1-1,.38-.15.66-.25.47-.66s-.64-.42-1.13-.47c-.3,0-.34-2-.41-2.24-.35.18-.67.42-.87-.08a2.06,2.06,0,0,1,0-1.07,5.74,5.74,0,0,1,.8-2.07c.74.56.51,2.15.52,3,2.1-1.21-.42-5.06,1.19-6.69.6,1.11.21,3,.17,4.18a13.61,13.61,0,0,0,.38,4.47,2.14,2.14,0,0,1,.66-.47c.19-.07.28.58.31.74a51.72,51.72,0,0,1,.08,6.9,4.61,4.61,0,0,0,.73-3.26c0-1.38,0-2.76.12-4.14.16-2.82.06-5.61,0-8.43-1.05,1.25-.87,3.16-.77,4.67,0,.69.37,2.83-.66,3,0-2.42,0-4.85-.08-7.27,0-.28,0-5.1.79-4.84a3,3,0,0,0,1.67.18m-25.47.93a6.3,6.3,0,0,1-.23,2.47,2.15,2.15,0,0,1,.23-2.47M83,119.31c1.1-.54,1.74-3.95.09-4.17-.76-.1-1.25,1.38-1.18,1.95A4.6,4.6,0,0,0,83,119.31M43.12,115.4c.28.5.62,4.45,0,4.45-.41,0-.25-.34-.26-.71,0-1-.41-2.92.22-3.74M27.31,120c-.06.44.41.8.75.57a1.61,1.61,0,0,0,.49-1.07,2.57,2.57,0,0,0-1.24.5m11.63-.33c0,2.4-.21,4.8-.24,7.19,0,1.17,0,2.35.05,3.51,0,.89-.32,1.66.71,1.65.2,0,.19-6.06.19-6.48,0-1.37,0-2.73,0-4.1v-1.13c0-.66-.1-.65-.74-.65m-1.24.26a5.63,5.63,0,0,0-.29,2.66c0,1-.17,2.09-.16,3.14l0,6.83c.72-.17.76-1.16.76-1.74,0-1.14,0-2.26.06-3.4.12-1.55.1-3.11.09-4.66,0-.65.45-2.86-.51-2.82m5.46,1.7c.52.35.88.77,1.44,1.08s1.13-.33,1.53-.85c1.3.79,0,2.79-1.29,2.56-.92-.17-2.45-1.82-1.68-2.79m-1.23,1.24c.72.63,1.58,2.07,2.62,2.16a12.35,12.35,0,0,0,1.36,0c0,1.44-1.55,1.7-2.5.88-.59-.52-2.23-2.16-1.48-3.07m-17,5.32a1.32,1.32,0,0,0,.84.12c.21-.08.57-.48.4-.76-.43-.63-1.1.31-1.24.64m6.18.2a2.2,2.2,0,0,1-1.47,2.23c.23-.88.4-2.08,1.47-2.23m3.46,0a33.74,33.74,0,0,0-.2,6.93c1.4-.29.71-4.91.7-5.83,0-.67.25-1.14-.5-1.1m-4.67,4.49c-.48,2-.21,4.17-.21,6.18.94-.15.87-2.39.91-3.14a4.6,4.6,0,0,0-.7-3m3,.48c0,.75-.61,3,.52,3.22-.09-1.06.71-2.56-.52-3.22m4.47,2.19c.85,0,1.84-1.82.67-2.09-.91-.22-.81,1.6-.67,2.09M31.63,134c-.72,1-.48,2.56-.47,3.71,1.13-.18,1.28-3.13.47-3.71m-8.64,2a1,1,0,0,0,1.23-1c-.63,0-1.24.29-1.23,1m12.11-.57c-.19,1.07,1.34.78,2,.73,0-1-1.3-1.09-2-.73m3,1.21c.39.11,2.57.18,2-.76-.2-.31-.92-.28-1.2-.26a1,1,0,0,0-.77,1m-1-.24c-.71,1.52-2,2.72-2.69,4.22a2.45,2.45,0,0,0,1.48,0,9.44,9.44,0,0,0,.26,2.47,4.58,4.58,0,0,0,1.22-2.48,11.13,11.13,0,0,0,1.25.73c.28-.78-.22-1.9-.39-2.66s-.09-2.48-1.13-2.28m5.24,5.15c.17.1.45.74.18.74h-.91a2.79,2.79,0,0,1,.73-.75m-13.86.6c-.09.49-.21,2.63.85,1.79.85-.67,0-1.84-.85-1.79m-7.41,1.28c0,.32.22,1.52.81.92s-.3-.84-.81-.92m34.19,6.19c-.35,1.89,2,1.43,2.25,3a62.23,62.23,0,0,1-9.87-3.41c-1.56-.73-3.09-1.51-4.67-2.2-.7-.31-3.2-1-3-1.93.06-.31.2-1,.59-.94a6.51,6.51,0,0,0,1.86.21c1.09,0,1.75,1.4,2.28,2.16,1,1.47,3.42,2.22,5.11,2.4,2,.21,3.69-.35,5.45.76m-13.38-2.38a4.43,4.43,0,0,1-1.73.48c-.51.12-1.66.66-1.46-.2s.47-1.27,1.39-1.14a4.75,4.75,0,0,1,1.81.85m16.08.38c.3.46.78.32,1.24.24-.14,1-1.84.49-1.24-.24m-1.48.25a1.49,1.49,0,0,1-.74.5,1.34,1.34,0,0,1,.74-.5m.32,10.14c-.82-.5-.83-1.81-1.47-2.5s-1.68-1.67-2.79-1.27A10.28,10.28,0,0,0,49.71,156a3.25,3.25,0,0,1-3.14.8c-.62-.2-1.47-1.53-1.72-2.09-.53-1.18-.46-2.5-1.17-3.64a3.76,3.76,0,0,0-2.61-1.78c-1.34-.24-2.39.88-3.64,1.08,1-1.95,3.7-2.29,5.51-1.45,2,.92,1.52,3.86,2.75,5.35.87,1.05,1.33,1.92,2.78,1.43,1-.33,1.64-1.25,2.62-1.62,1.21-.45,2-.75,3.15-.14a3.88,3.88,0,0,1,1.94,2.25,9.5,9.5,0,0,1,.61,2m4.14-8.94c-.82.13-.74,1.36-.73,2a1.86,1.86,0,0,1-.57-1.88c.19-.51.11-.89.67-.75a1,1,0,0,1,.62.64m-3.71,0A1.37,1.37,0,0,1,56,150.68a1.6,1.6,0,0,1,1.23-1.49m1.49.49c-.06.71,0,1.61-.73,2-.21-.65-.31-2.18.73-2m-39.08,1.76a1.85,1.85,0,0,0,.75.73,2.64,2.64,0,0,0,.24-1,2.81,2.81,0,0,0-1,.26m29.22,2.77c.2,1-1.78,1.21-2,.26.7-.14,1.24-.48,2-.26m-17.55,3.09c.54.1.65-.21.82-.66s0-.72-.34-1.11-.73.39-.79.55a1.43,1.43,0,0,0,.31,1.22m23.79,5.27c-.51.85-2.2.21-2.95,0A70,70,0,0,1,40.63,159,42.87,42.87,0,0,1,36.07,157c-.28-.15-2.18-1.22-1.24-1.56,1.18-.43,2.64.84,3.59,1.36a43.34,43.34,0,0,0,5.66,2.44c1.87.69,3.8,1.18,5.7,1.76s3.67.71,5.31,1.58m-3.26-5.67a10.25,10.25,0,0,0-1.73-.23c.39-.83,1.74-.84,1.73.23M28.58,158a2,2,0,0,0,1,.36c.51,0,.53-.33.69-.76s-.73-.37-.9-.41c-.33-.07-.7.57-.78.81m28.45.29a1.66,1.66,0,0,1,.5.74c-.31-.09-.9-.4-.5-.74m-5.37,9.44c-.58.46-1.45.2-2.11,0-3.33-.82-6.68-1.6-9.93-2.68A39.52,39.52,0,0,1,35,163.38c-1-.46-2.52-1.06-3-2.14,1.16-.62,3.43.89,4.51,1.31,1.77.72,3.54,1.39,5.35,2s3.37,1.05,5,1.65a36.86,36.86,0,0,1,4.7,1.57m-6.47-4.65c0,1.49,2.49,2.6,3.65,1.66.62-.5-.8-1.61-1.2-1.76-.74-.27-1.66.14-2.44.1m1,5.19a.67.67,0,0,1-.74.26c.38,1.92,2.79,3.11,2.75,5.18-1.08-.05-1.74-1.44-2.23-2.23-.83-1.32-2-2.44-2.5-3.93.78,0,2.19,0,2.72.73m4.46,1.2c-.22.29-.39.6-.73.75,0-.32,0-.63,0-1s.66.06.74.2"/><rect class="g" x="158.03" y="142.49" width="3.08" height="1.62" transform="translate(15.81 302.45) rotate(-89.83)"/><path class="h" d="M127.55,79.2c-1.07-2.9-3.05-5.3-4.91-7.76l-.63.46c-1.14,1.79-3,5.26-3,5.26l5.62,1.23"/><path class="i" d="M112.6,98.8l6.31-1.71,4.5.91q1.61,1.86,3.24,3.71l.58,3H129l.71-2.12a133.7,133.7,0,0,0,6.64-12.93l1.45-3.31.85-2.44a52.56,52.56,0,0,0-10.14-4.3c-3.14-1-6.27-1.71-9.47-2.41a22.93,22.93,0,0,0-3.09,4s-6,9.69-8.61,13.72l.74,1.24"/><path class="h" d="M114,220.14q-2.9-2.18-5.88-4.24a53.54,53.54,0,0,1-13.84,6.85c-5.07,1.52-10.4,2.19-15.61,3v0l-7.27.16c-1.68,2.28-3.22,4.53-4.68,7l.87.76c3.93,1.58,7.33,3.36,11.56,4.15v-.27c4.33-.29,8.45-.9,12.73-1.61,3.64-.6,7.66-.73,11.2-1.68,2.34-1.76,4.25-4,6.46-5.9,2.43-2.11,4.9-4.17,7.38-6.22l.29-.89-1.63-.2-1.58-.94"/><path class="i" d="M90,163.41l4.46,4.37h.11l2.62,2.31v-1.3h0c-1.23-8.77-2.54-17.48-3.53-26.29l-16.3.09v.85l-1.52.23L74.45,146l2.95,4.08v0C81.68,154.5,85.81,159,90,163.41"/><path class="h" d="M123.86,154.19l2.42,1.48v-1.39l-2.41-.1"/><path class="h" d="M96.4,163.28l.77,5.5h0v1.3c4.85,4.29,9.8,8.28,14.91,12.26A270,270,0,0,1,123.61,154l.16.1,1.11-2.3-6.27-.08.07-.51-6.42,0,0-4.43-3.5,0,0-5.14-13.78.08V142l-1.33,0c.8,7.12,1.67,14.15,2.81,21.21"/><polyline class="h" points="117.25 186.03 117.31 186.03 116.44 185.47 117.25 186.03"/><path class="g" d="M125.17,100l-1.77-2-4.5-.91L112.6,98.8l-2.11,1.88.1.22.42,4.73c-1.57,5.28-3.27,10.53-4.48,15.9h.06l-2.85,15,9.61-.78q5.7-11.49,11.54-22.92l-.23-.37h.12l2.76-6.21-.88-4.54L125.17,100"/><path class="h" d="M93.61,137.34h-.09v0l10.13-.42q1.48-7.71,2.94-15.44h-.12c1.06-5.38,3-10.65,4.54-15.91l-.42-4.73-2.19-4.64-1.48-.4c-4.76,6.79-9.19,13.82-13.76,20.75v.26l.4.9,0,19.59"/><path class="g" d="M160.61,142.41c0-7.46-.07-14.92-.15-22.39a47.41,47.41,0,0,0-1.09-10.25c-.89-4-1.33-8.19-3.31-11.77l-.08.22v.12c-.82,4.09-1.66,8.18-2.43,12.28h.11c-2.14,8.12-4.32,16.12-7,24.09h-.07c-2,4.41-3.48,8.72-7.09,12a39.15,39.15,0,0,1-12.77,7.56l-.25,1.5c3.05,1.85,6.25,3.39,9.44,5,0,0,3.52.63,5.36.72l5.1-1.87v0c.42-.22,6-3.08,8.12-4.35,1.56-.95,2.71-2.62,3.93-3.95L159.5,147"/><path class="h" d="M146.42,159.69v0l-5.1,1.87c-1.84-.08-3.67-.2-5.51-.33A89.66,89.66,0,0,1,129,174.38c-2.73,4.49-6.19,8.75-8.5,13.44l1.75,1.46,4.58,0,2.87-1.19,2.87-2.45c1.58-2.55,3.21-5.06,4.88-7.56l.29.1a108.25,108.25,0,0,0,8.72-9l.08,0,1.71-2.82a40.24,40.24,0,0,0,.9-7.29,9.12,9.12,0,0,0-2.75.61"/><path class="i" d="M125.92,179.46c3.7-6.07,7.37-12,10-18.65-4.14-2.09-8.15-4.2-12.09-6.63l2.91.12a38.3,38.3,0,0,0,12.38-7.21c3.8-3.49,5.42-7.72,7.48-12.39h.07c2.66-8,4.83-16,7-24.09h-.11c.77-4.1,1.61-8.19,2.43-12.28-.72-6-4.75-13.06-9.86-16.32,0,4.63.1,9.19-.76,13.75-1,5.31-2,10.54-3.33,15.78h0a139.54,139.54,0,0,1-8.41,22.5h-.17L132,137l-4.08-2-1.67.85,1.13,2a16.81,16.81,0,0,1-5.3,4.35l-2.2-.13c-.42,3.22-.86,6.43-1.28,9.65l6.27.08-1.11,2.3-.16-.1a270,270,0,0,0-11.52,28.31,97.2,97.2,0,0,0,8.32,5.69,64.76,64.76,0,0,1,5.48-8.57"/><path class="i" d="M93.61,137.34l0-19.58c-.16-.34-.3-.68-.46-1l-13.57,21,14.07-.39"/><path class="h" d="M97.66,187l-4.86-4.71c-4.44,0-9.24-.5-13.64.17-1.75,3-3.28,6.08-4.93,9.12l1,.71,2.37.09,2.16-5L81,186.3l3.24,0,0-.14a47.94,47.94,0,0,0,6.31-.33l2.1,1a90,90,0,0,0,10.12,9.3l3.85-.32c-3-3-6-5.9-9-8.79"/><path class="i" d="M80.09,182.4l13.3-.08C90,178.55,86.72,174.6,83.1,171A101.33,101.33,0,0,1,79,182.1v.31h1.08"/><path class="i" d="M62.13,182.57c0-1.76,0-3.53,0-5.29l-3.87-6.2c-1.5,2.31-3,4.59-4.37,7l-.15,1c1.58,2.06,3.09,4.17,4.59,6.29l3.83-.95v-1.84"/><path class="h" d="M62.16,182.54v1.67L65,182.65a77.76,77.76,0,0,0,7.18-9.19c1.86-2.73,2.94-6,4.42-9l1.14-.48-7.25-12.14L58.45,170.76,62.1,177c0,1.85,0,3.7.06,5.54"/><path class="g" d="M113,183A258.69,258.69,0,0,1,92.67,166c-6.48-6.19-12.45-12.93-18.77-19.3l-3.17,4.95c2.2,3.73,4.38,7.45,6.64,11.15a65,65,0,0,1-12.31,19.9,29.82,29.82,0,0,1-5.63,2.43l-1,.9,2.21,2.34c3.57,1.83,7.14,2.65,11,3.66l2.43-.12a132.18,132.18,0,0,0,9-20.86c4.32,4.32,8.23,9.07,12.35,13.58v0c3.71,3.79,7.48,7.5,11.25,11.25l2.41.24L111,193.4l3.45.34c2.57-1.47,5.13-2.87,7.75-4.23L113,183"/><path d="M118,221.24a8.66,8.66,0,0,1-2.93-.72,23,23,0,0,1-3.88-3c-.54-.5-2.26-1.67-2.39-2.48a13.3,13.3,0,0,0-1-4.15c-.55-1.08-2-2.11-2-3.4,0-.87-.14-.92.66-1.27.55-.24,1,.22,1.31.65s.59.87,1,.92c.66.07,1-.67,1.26-1.11.63-1,0-2.25.58-3.14.26-.4.92-.55,1.28-.86a4.42,4.42,0,0,0,1.28-1.67,4.79,4.79,0,0,1,.8-1.7c.9-.9,3.16-.14,3.13-2.1-2,.41-3.45-1-5.45-1,.61-1.08,1.89-.55,2.87-.58a3.44,3.44,0,0,0,2.65-1.27,11.85,11.85,0,0,0,.79-1.16c.36-.43.82-.76,1.19-1.18a7.32,7.32,0,0,1,2.62-1.74c2-.94,4.18-.3,6.25-1.08a12.79,12.79,0,0,0,5.39-4c1.32-1.59,1.73-3.7,3-5.26a42.8,42.8,0,0,1,5.2-4.9c3.27-2.8,6.48-6.28,7.51-10.58.47-1.94,0-4.57,1.54-6.07s3.88-2.24,5.57-3.71a11.4,11.4,0,0,0,3.27-5.25c1.8-5.42,1.26-11.16,1.25-16.79,0-3.1-.08-6.2-.07-9.29,0-2.92.15-5.8-.1-8.71A84.3,84.3,0,0,0,159,106a31,31,0,0,0-2.44-8c-.57-1.18-.73-2.52-1.23-3.73a42.48,42.48,0,0,0-1.9-4.29,32.24,32.24,0,0,0-4.83-6.7,12.4,12.4,0,0,0-2.68-1.88,7.65,7.65,0,0,0-6.22-1.1c-1.08.28-2,.81-3.09,1.13s-2-.19-3-.51c-1.36-.45-2.71-.95-4.07-1.4-1.73-.58-2.49-2.48-3.44-3.88-.6-.88-1.28-1.75-1.79-2.68a7.25,7.25,0,0,0-1.56-2.42c-1.71,2.65-3.83,5.32-5.15,8.19,1.89-.14,3.64.79,5.37,1.38,1.92.65,3.87,1.19,5.77,1.9s3.75,1.41,5.62,2.09c1.09.4,4.05,1.71,2.53,3.26-.32.33-.76,1.07-1.27,1a10.17,10.17,0,0,1-4.39-2.26c.84,0,1.62-.26,2.47-.26-.16-1-.88-1.28-1.66-1.78-.4-.25-.5-.38-1-.32a12.35,12.35,0,0,1-1.36.14A3.79,3.79,0,0,0,131,86.11a14.47,14.47,0,0,1-3.59-1.21c-1.28-.52-2.6-.92-3.91-1.36-2.52-.85-5.23-1.07-7.62-2.29-.29,1-1.14,1.74-1.46,2.73,1.55-.28,3.32.67,4.82,1A57.23,57.23,0,0,1,125.05,87c1.94.69,3.86,1.43,5.71,2.3.89.42,1.76.88,2.62,1.35s1.77.36,1.45,1.31a4.7,4.7,0,0,1-2,2.44c-.87.53-2.08,1.44-3.11,1.47a2.09,2.09,0,0,1-1.78-.63,4,4,0,0,1-.88-1.15c1.1-.22,2,1.23,3,.84.72-.3,1.36-2.38,1.49-3s-.88-.62-1.22-.66a4.49,4.49,0,0,0-.89,0c-.24,0-.49-.2-.72-.25-1.48-.33-1.48,1-.9,2.07-.79,0-1.2-.81-1.44-1.45a9.33,9.33,0,0,0-1.54-2.6,3.37,3.37,0,0,0-2.14-.86,5.14,5.14,0,0,0-2.59,1c.35-1.23-1.26-2.27-2-3-.4-.42-1.28.72-1.53,1s-.72,1-.4,1.48c.15.24,1.68.91.68,1.16a1.3,1.3,0,0,1-1.53-.77c-.57-1.17-.91-2.61-2.16-3.24a19.06,19.06,0,0,0-1.12,2.13c-.22.5-.75.68-.94,1a8.29,8.29,0,0,0-.6,1.51c-.13.45.36.56.72.79s.51.44.86.09a2,2,0,0,0,.28-1.21c0-.27.07-1,.58-.66a7.61,7.61,0,0,1,.41,1.11A3.46,3.46,0,0,0,115,92.28a3.7,3.7,0,0,0,2.33.58,9.68,9.68,0,0,0,2.32-.5c-.12.47-.24,1.3.39,1.5a9.27,9.27,0,0,0,1.89.65c.74,0,1.25.22,1.44-.65.13-.58.32-1.16,1-1.28,0,1.55.87,3.07,1.51,4.45-2.92-.72-5.61-2.37-8.49-3.28-1.55-.49-3.14-.9-4.69-1.42-1-.33-2.41-.95-3.42-.4.32.37,2.48.93,2.48,1.06,0,1-1.88.3-2.42,1-.24.3-.67,1.14-1.11,1.14a2.24,2.24,0,0,1-.84-.14c-.17-.06-.35.54-.41.71-.22.59,0,.48.42.78a3.66,3.66,0,0,1,1,1c.51.75,1.62,3.79,2.53,3.52,1.19-.34,2.21-1.53,3.36-2.06a13.37,13.37,0,0,1,3.9-1.12,8.57,8.57,0,0,1,6,1.72,7.52,7.52,0,0,1,2.41,5.77,12.85,12.85,0,0,1,0,1.63,8.31,8.31,0,0,1-1.17,2.95c-.6,1.21-1.18,2.42-1.78,3.64-1.3,2.63-2.34,5.37-3.66,8s-2.5,5-3.74,7.58c-.63,1.26-1.25,2.52-1.9,3.77-.41.8-.86,2.13-1.95,2.15a13.3,13.3,0,0,1,1.6-3.6c.63-1.25,1.22-2.51,1.78-3.79,1.17-2.67,2.41-5.3,3.55-8,1-2.43,2.26-4.79,3.12-7.29s1.91-5.63,1.23-8.26A5.34,5.34,0,0,0,119,100.1c-2.06-.32-4.48,1.08-5.89,2.45a7.88,7.88,0,0,0-2,2.53,60.1,60.1,0,0,0-2.56,7c-.71,2.69-1.5,5.36-2.1,8.08s-1.2,5.58-1.79,8.38c-.29,1.39-.57,2.8-.85,4.19-.14.69-.2,2-.79,2.57a5.61,5.61,0,0,1-1.45.76c-.58-2.72.33-5.72.78-8.41.51-3.11,1.24-6.17,1.8-9.27.52-2.88,1.07-5.76,1.66-8.62s1.25-5.72.9-8.79c0-.37-.73-2.55-1.23-2.54-1,0-.33,1.49-.12,2a10.81,10.81,0,0,1,.41,5.28c-.42,3.83-1.59,7.62-2.31,11.39-.68,3.56-1.51,7.11-2.07,10.69-.27,1.74-.55,3.5-.74,5.25-.07.65,0,2.46-.79,2.72a11.57,11.57,0,0,1-3.18.59c-1,0-2.22.38-2.68-.66-.56-1.25-.1-2.74-.11-4,0-1.74,0-3.48,0-5.22,0-3.53.21-7.06.19-10.59a4.64,4.64,0,0,0-1.72,2.48c.61-.31.74-.4.74.29,0,3.55-.27,7.1-.22,10.66,0,.81.77,7.17-.66,7.27-1,.07-.77-2.21-.83-2.81-.11-1,.14-1.88,0-2.83a32.51,32.51,0,0,1-.09-3.4c0-2.39.05-4.79,0-7.18-1.13.24-1.08,2-1.08,2.9,0,1.65.12,3.3.13,4.95,0,2.21.23,4.43.2,6.64,0,2.39-1.35,2.16-3.2,2.52a3.22,3.22,0,0,1-1.44.07c-.84-.33-.92-.39-1.14-1.25-.49-1.85-.08-4.22-.09-6.13-1.11.91-1.13,2.52-1.07,3.83,0,.79.1,1.58.07,2.38a7,7,0,0,1-.19,1.43c0,.15-.5.07-.53-.06a15,15,0,0,1-.49-4.1c-1.24,1-.57,2.37-.92,3.62-.25.87-1.2.67-1.86.62-.5,0-1.42,2.13-1.66,2.5-.79,1.22-2.37,2.86-2.55,4.35-.08.69,0,1.39-.11,2.08a3.17,3.17,0,0,1-.25-1.49c-.45.27-1.85,2-1.29,2.36,1.82,1.23,3.15,3.49,4.67,5.08,1.85,1.94,3.62,3.93,5.51,5.82q6,6,12.09,12a114.87,114.87,0,0,0,12.12,10.34c2.1,1.56,4.27,3.05,6.45,4.5a57.07,57.07,0,0,1,6.5,4.44c-1.11.17-2,1.05-3,1.52-1.22.56-2.41,1.42-3.65,1.88-1,.38-2,0-3.08.09-1.37.15-1.79,1.43-2.72,2.24-.51.44-.85.33-1.42,0-3.8-2.38-7-6-10-9.23q-5-5.39-9.83-10.9a111.79,111.79,0,0,1-8.82-11.51c-1.37-2-2.69-4.12-4-6.23-.64-1.05-1.27-2.1-1.9-3.15s-1.51-2.08-1.52-3.24c-1.44,1.24-1.67,3.16-1.92,4.93-.35,2.41-.94,4.88-1.44,7.34a59.76,59.76,0,0,0-1.1,7.24,19.59,19.59,0,0,0,.52,6.92,2.59,2.59,0,0,1-.08,2A6.77,6.77,0,0,1,65.59,177c-.16-.5-.3-1-.42-1.49-.26-1.18-3.22,2-3.12.07,0-.88,1.36-1.81,1.78-2.52,1.57-2.65,2.28-5.92,3-8.88.37-1.45.63-2.92.87-4.4s1.14-3.2.85-4.53a15.57,15.57,0,0,0-1.51,1.91c-.63.75-.62.83-.45,1.66a8.74,8.74,0,0,1-.39,3.11c-.26,1.32-.59,2.61-1,3.9-.66,2.29-1.12,4.88-2.53,6.85-.72,1-1.56,1.38-2.34.23s.27-2.63,1-3.61c1.13-1.5,1.11-2.56,1.05-4.37-.79.69-.81,1.81-1.26,2.69a22,22,0,0,0-1.66,3.26c-.22-.21-.56-.74-.87-.32-.1.15-.65.77-.58.88a28.49,28.49,0,0,1,3.47,6.35,5.31,5.31,0,0,1-1.63-2.53,24.62,24.62,0,0,0-1.88-3.39,1.18,1.18,0,0,0-.49,1.48,2.84,2.84,0,0,0-.71.14c-.48.22,0,2.58,0,3.14,0,1.31,0,2.31,1.27,2.88a6.5,6.5,0,0,0,1.78.48c.42.06.48-.08.5.38s0,.69,0,1c0,.8.14,3.15-1,3.3a5.18,5.18,0,0,0,.32-2.49c0-.55.09-1.15-.4-1.51a5.22,5.22,0,0,0-1.49-.56c-1.16-.38-1.41-1.05-1.44-2.19a4.77,4.77,0,0,0-.52-2.87,8.79,8.79,0,0,0-1.8,2.49,4.45,4.45,0,0,0-.53,1.48c0,1,1.43,2.29,2,3a25.14,25.14,0,0,1,2.35,4.05c.89,1.72,3.62,3.18,5.3,3.91a15.48,15.48,0,0,0,3.21.82A28.46,28.46,0,0,1,70,191.92a11.85,11.85,0,0,0,3.67.62,7.19,7.19,0,0,1,3.43.68c.77.45.63.69,0,1.17s-2.38.31-3.07.35c-.85,0-2.14.24-2.5,1.16-.17.43-.67,1.19-.63,1.65a11.89,11.89,0,0,0,.37,1.66c.21.85-.94,1.9-1.24,2.68a2.84,2.84,0,0,0-.23,1.54c.21,1.51-.56,1.3-1.69,1.88s-.64,2.18-.4,3.19c.39,1.65.92,3.26,1.36,4.89a20.22,20.22,0,0,1,.59,4.92,23.05,23.05,0,0,0,1.16,4.86,3.65,3.65,0,0,1-.53,3.67c-.86,1.26-1.82,2.48-2.71,3.72-.38.52-1.67,1.87-1.24,2.59.84,1.42,3.6,1.69,5,2.4,2.25,1.13,4.38,2.46,7,2.47,4,0,7.94-.89,11.82-1.56s7.79-1.16,11.69-1.6c1.84-.21,3.24-1.8,4.48-3.05s2.69-2.66,4.13-3.92,3-2.65,4.63-3.87c.8-.65,2.93-1.54,2.94-2.8m-1.49.5c-.72,1.44-2.44,2.35-3.66,3.32-1.61,1.29-3.18,2.61-4.69,4-1.35,1.24-2.53,2.62-3.81,3.93s-2.75,1.55-4.57,1.67a106.37,106.37,0,0,0-11.86,1.48c-3.72.66-7.8,1.51-11.58.84-2.09-.37-3.88-1.6-5.78-2.46-.67-.31-3-.76-2.93-1.78.09-.86.23-.76,1.05-1,.53-.18,1.18.3,1.66.46a31.35,31.35,0,0,1,3.22,1.31c1.84.87,3.68,2.2,5.76,2.28a20,20,0,0,0,4.41-.83c1.72-.34,3.43-.69,5.17-.93,3.46-.47,7-1.06,10.43-1.27a6,6,0,0,0,4-1.46,26.83,26.83,0,0,0,2.69-3.11,27.86,27.86,0,0,1,7.83-6.39,3.11,3.11,0,0,1,2.65,0M79.68,233.82a5.34,5.34,0,0,1,.49-1.25c.26.4-.16,1-.49,1.25m3.71-.27c.2-1.33,1.84-2.58,1.46-4a12.56,12.56,0,0,0-2.45,3.23c-.64-1,1.39-2.58,1.22-3.72-.73.36-1.26,1.08-2,1.5a3.49,3.49,0,0,0,.23-2c-1.43.87-1.83,2.81-3.2,3.73.56-1.21,1.8-2.36,2-3.73-2,0-2.65,3.56-4.18,4.48.06-.32,3-4.86,2.45-5s-1.48,1.39-1.69,1.73A7.79,7.79,0,0,1,75,232.63a13.92,13.92,0,0,1,1.81-3.16c0-.08,1.08-2.08.57-1.76a6.85,6.85,0,0,0-2,2.41c-.46.74-.89,1.83-1.84,2,.56-1.69,2.22-2.89,2.45-4.71-1.78.59-2,3.74-3.68,4,.24-1.64,2.2-2.7,2-4.47-1.54.93-1.63,3.41-3.44,4a29.16,29.16,0,0,1,1.8-3.72c.57-1.29,4-.81,5.14-.88A86.34,86.34,0,0,0,90,224.41a48.73,48.73,0,0,0,16.25-6.63c1.79-1.09,2.79-1.14,4.29.34.8.78,1.73,1.52,2.45,2.37.4.48.21.54-.22.8a32.8,32.8,0,0,0-6.25,5.08c-.93.95-1.85,1.94-2.69,3a5,5,0,0,1-2.39,2c-2.59.74-5.51.65-8.19,1a62.35,62.35,0,0,1-8.13,1c.23-1.12,1.28-1.85,1.46-3-1.16.2-2.55,2.07-2.21,3.23-.34,0-.66,0-1,0m4.68-2.75c-.48-.06-2.23,1-1.66,1.56s1.6-1,1.66-1.56m-7.17.78c.37-.75.74-.37,0,0m-11.39-1.17c-.54-1,1.28-3.16,2.21-3.48a6.34,6.34,0,0,1-2.21,3.48m2.33-24.51c.58-.12.75.35.64.85a4.05,4.05,0,0,1-.87,1.37c.6-.22,1.44-.79,1.48-1.49.06-1.16-1.18-1.25-2-1.22,0-.84,0-1.53.75-2,.54-.34,1.86-.87,1.71.29a3.33,3.33,0,0,0,1-1.74,1.74,1.74,0,0,1-1.4-.58,9.41,9.41,0,0,1-1-2.18c-.34-.67-.91-1.59-.56-2.37,1-2.22,4-1.81,6.05-1.82a13,13,0,0,1,6.1,1.3,17.19,17.19,0,0,1,4,3.19c1,1.12,1.66,3.07,3,3.85a17.63,17.63,0,0,0-3.47-5.09,16.82,16.82,0,0,0-3.56-2.44c-1.28-.63-2.74-.74-4-1.36-.84-.41-.51-4-.35-4.65a5.61,5.61,0,0,1,1.46-2.86c1.34-1,4.1-.39,5.68-.49,2.37-.14,4.8-.75,6.6,1.15s3.37,3.56,5.24,5.19c.84.72,1.68,1.46,2.55,2.14.7.55,1.58,1.18,1.47,2.19,0,.19-.38,1-.58.92-.38-.23-.72-.5-1.08-.76a4.36,4.36,0,0,0-3.09-.78c-1,0-1.79,1.08-2.38,1.76a2.94,2.94,0,0,0,1.68,4.53,3.26,3.26,0,0,1-1.44,1.53c-.71.48-1.4,1.37-2.24,1.62s-1.54-1.2-2.12-1.65c-1.08-.81-2.28,1.58-2.83,2.21s-1.32,1.15-2,1.77A7.32,7.32,0,0,0,84.87,211c-.59,1.48,1,3.1.42,4.5a15.42,15.42,0,0,0-1.19,3.18,5,5,0,0,0,0,1.44c0,.53.36.83-.29,1a5.9,5.9,0,0,0-2.52,1.58A6.51,6.51,0,0,1,83,222.4c.72-.08.71,1,.77,1.37.14.92-1.92,1.05-2.58,1.14a38,38,0,0,1-8,.53c-.75-.06-.91-.06-1.31-.68a14.14,14.14,0,0,1-1.22-3.6,11,11,0,0,1-.43-4,13.6,13.6,0,0,0-.78-4c-.38-1.49-.75-3-1.16-4.45-.14-.51-.93-3.07.3-2.85,1,.19,2.64,1.43,3.25.14m14.46,18c0-.84.24-1.63.23-2.47a2.09,2.09,0,0,1-.23,2.47m3-.52c.17-1,.61-1.94.69-3a9.13,9.13,0,0,0-1.1-4.63,9,9,0,0,1-1.39-4.21c1,.26,1.5,1.54,2,2.3a9.63,9.63,0,0,1,1.76,3.25c.33,1.65.64,6.23-2,6.31m2.47-.75c.89-2.73,1.16-5.92-.44-8.5-.78-1.25-1.92-2.54-2.3-4-.31-1.18-.72-3.48.92-3.84a5.28,5.28,0,0,0,1.25,3c1.3,1.8,3.65,3.14,4.21,5.42a15.23,15.23,0,0,1,.31,3.67c-.38-.47-.37-1.35-.59-1.9a11.75,11.75,0,0,0-1-2c-.94-1.5-2.52-2.48-3.61-3.87a7.74,7.74,0,0,1-1.05-3c-.72,1.19.11,3.1,1,4a14,14,0,0,1,3.27,3.52,7.34,7.34,0,0,1,.6,4.66c-.16.88-1.36,3.56-2.6,2.91m2.23-.26a2.45,2.45,0,0,1,.49-1.24c.29.22.6.39.75.73a6.37,6.37,0,0,1-1.24.5m-5.44,0a27.9,27.9,0,0,0-.13-3.4c-.17-1.37-.72-2.64-.91-4,1,.72,1.5,2.65,1.73,3.76s.35,3-.69,3.66M85,221.68a5.29,5.29,0,0,1-.25-1.24.87.87,0,0,1,.25,1.24m11.63-.57a2.94,2.94,0,0,1,.73-.75c0,.47-.23.8-.73.75m-9.15.05A8.74,8.74,0,0,1,86,218.55c0-.21.53-.36.71-.42s.7-.31.79,0c.2.78.52,2.32,0,3m-5.23-5.66c-.72.57-.76,1.66-1.62,2.18a10.29,10.29,0,0,1-3.16,1.25c-2.08.47-4.28-.05-6.33-.39.15,1.17,2,1.26,2.92,1.5a7.19,7.19,0,0,0,3.27-.24,8.8,8.8,0,0,0,3.15-1.33,5.89,5.89,0,0,0,1.36-1.21,3.88,3.88,0,0,0,.41-1.76m15.36,4.36c.16-1,.62-1.94.84-2.91a7.65,7.65,0,0,0-.74-4.69c-.52-1.34-1.15-3.05-.28-4.38,1.18-1.8,3.4-2.8,4.17-4.89.62-1.68.28-4.7,2.06-5.68a8.47,8.47,0,0,1-.24,1,20.89,20.89,0,0,1,4-.26,2.92,2.92,0,0,0,1.81-.72c.85-.79.84-2.74,2.09-3.15.67-.23,1.37.18,2,.23a2.92,2.92,0,0,0,2.12-.6,9.66,9.66,0,0,1,1.54-1,2.71,2.71,0,0,1-1.55,2.32c-1.15.31-2.08-.59-3.15-.37-1.56.33-1.31,2.08-2.07,3.09-.4.52-1,.82-1.37,1.38s-.6.57-1.32.34a1.18,1.18,0,0,1-.61-.36c-.17-.19.1-.39-.21-.44a2.59,2.59,0,0,0-2.85,1,3.07,3.07,0,0,0-.84,1.34c-.19,1.39-.25,3.35-1.45,4.3s-2.5,1.58-3.27,2.83c-1,1.68.37,3.91.89,5.54a7.23,7.23,0,0,1-.71,5.75c-.2.46-.39.35-.89.34m-1.24,0c.06-1.73.57-3.63,0-5.33-.56-1.55-1.76-3.41-1.72-5.09a6.13,6.13,0,0,1,.79-2.85c.69-1.5,2.72-2.62,2.91-4.35a3.22,3.22,0,0,0-.58-2.43,2.68,2.68,0,0,1-1,.5c.16-1.36,2.1-1,2.38.12a4.68,4.68,0,0,1,.19,2c-.07.6-.21,1.21-.32,1.81a4.54,4.54,0,0,0,1.21-2.82,7.37,7.37,0,0,0-.17-1.6c0-.31-1-.89-1.2-1.09-1.72-1.51-4.08,1.33-2.07,2.81-.44.37-.84-.14-1.1-.45-.4-.5-.18-1.16-.15-1.78.07-1.27,1.18-1.53,2.19-1.72.56-.11.87-.25,1.37,0a4.18,4.18,0,0,1,1.5,1.14,4.3,4.3,0,0,1,.48,3.07,4.46,4.46,0,0,1-1.5,2.75c-.85.68-1.82,1.17-2.66,1.89a4.73,4.73,0,0,0-1.2,2.89c-.11,1.85,1.45,3.12,2,4.76a6.64,6.64,0,0,1,.18,2,5.13,5.13,0,0,1-1.47,3.71m3.71-.28c0-1,.21-1.94.34-2.92.26-2.19-1.37-3.75-1.55-5.77-.07-.84-.29-2.23.65-2.68,0,2.19,2.16,4.09,2.89,6.1s.2,5.28-2.33,5.27m3.45-2c0-1.35.35-2.65-.38-3.91-.65-1.1-1.92-2.46-2.13-3.75a5.19,5.19,0,0,1,1,.74,12.81,12.81,0,0,0-.26-2c1.16.71,2,2.94,2.18,4.19.15.94.57,4-.41,4.71M80.3,213.78c-.83-.53-.91-1.74-2-2a4.5,4.5,0,0,1,.25,1.49,4.55,4.55,0,0,0-3.72-.72c0-.33,0-.66,0-1-1.08.18-1.12,2-1.27,2.84-.11.62-1.6,3.64.41,3.25,1.44-.28,2.42-1.2,3.64-1.91.86-.5,2.49-.83,2.7-2M86,217.22l-.25-.5c.62-.14.66.55.25.5m20.29-.86c0-.62.26-1.25.23-1.86-.12-2.27-1.45-4.09-1.76-6.29,1.42,1,1.87,2.7,2.3,4.25.21.78.57,4.14-.77,3.9m-1.24,0a11.49,11.49,0,0,0-.66-4.48,16.71,16.71,0,0,1-1.62-4.9,6.66,6.66,0,0,1,.92,2.41c.34.91.79,1.78,1.13,2.7.42,1.15,1.28,3.21.23,4.28M75.61,216a2.47,2.47,0,0,1,1.73-1.25A2,2,0,0,1,75.61,216m1.47-2.23a2.21,2.21,0,0,1-1,.37c-.53-.07-.44-.44-.51-.9,0-.31.7-.28.86-.24.37.07.49.47.62.76m9.65.19a11.05,11.05,0,0,1-.52-3.22c.4.48,1,2.71.52,3.22m4.67-5.47c-.17-.26-1.14-2.44-.41-2.19a1.3,1.3,0,0,1,.41,2.19m18.06-2.33c-.38-.33-.65-.76-1-1.12a3.44,3.44,0,0,0-1.61-.92c-1-.35-1.73,1.4-2.6,1.58.2-1.44,1.56-3.14,3.19-2.89,1.3.19,3,2.06,2,3.35m-5.71-2.69a5.19,5.19,0,0,1,.34-2.46c.42-.91.64-1.89,1.87-1.76-.39.65-1.09,1.07-1.47,1.74.52-.11,1-.34,1.54-.46.87-.21,1.77.06,2.64-.12s1.62-.58,2.49-.7c0,1.75-2.12,1.82-3.33,2a6.93,6.93,0,0,0-2.22.47c-.65.39-1.21.89-1.85,1.27m6.18-.77a7.29,7.29,0,0,1,2.46-2,2.32,2.32,0,0,1-2.46,2m-38.6-2c.58.19,1.71.71.78,1.19s-1.09-.58-.78-1.19m35.36-3.17a1.89,1.89,0,0,1,1.24-.25,2,2,0,0,1-1.24.25m-1-2c-2,1-3.9-.38-5.38-1.71-1.85-1.67-3.75-3.29-5.46-5.09-1.33-1.42-2.66-3.24-4.82-3.24-.8,0-1.6.24-2.42.26l-2.57,0c-1.42,0-3.31-.28-4.58.51a7.24,7.24,0,0,0-2.27,3.37c-.33.77-1.53,2.93-2.74,2.06-.27-.2-.07-1.22.12-1.49a26.28,26.28,0,0,0,2.07-3.9c.42-.88.93-2.42,1.76-3s2.41-.23,3.26-.27c1.44-.06,2.87-.16,4.3-.25,2.13-.14,5-.8,6.77.75,2.2,1.94,4,4.26,6.13,6.29,1,1,2,2,3.11,3a9.9,9.9,0,0,1,2.72,2.72m-39.62-5.71a8.77,8.77,0,0,1,2.09-2.18,32.72,32.72,0,0,0,2.4-2.43,25,25,0,0,0,3.78-5.52A41.83,41.83,0,0,0,77,173.27c.74-2.17,1.67-4.3,2.29-6.5a9.31,9.31,0,0,1,2.2,2.37,3,3,0,0,1,.65,2.86A71.92,71.92,0,0,1,78.3,182.6c-.72,1.67-1.41,3.35-2.27,5-.65,1.21-1.71,3.52-3.13,4-1,.35-2.12-.24-3.06-.54-1.25-.39-2.5-.84-3.79-1.16m82.71-30.17a16,16,0,0,1-.95,6.44c-1.71,4.1-5.44,6.78-8.6,9.69-.81.76-1.47,1.66-2.21,2.49a12,12,0,0,0-2,2.35c-1.05,2-1.9,3.9-3.67,5.44A10.76,10.76,0,0,1,125.7,189a8,8,0,0,1-3.36-.46c-1.22-.32-1.18-1.35-.68-2.25,1.15-2,2.83-3.8,4.07-5.8,1.49-2.4,2.94-4.82,4.38-7.26a73.93,73.93,0,0,0,3.65-6.68c.67-1.45,1.22-4.79,3.16-4.91a16.14,16.14,0,0,1,3,.33c3.25.46,5.76-2.29,8.86-2.31M59.11,185.94c1.93-.65,4-1.23,5.57-2.58A39.55,39.55,0,0,0,73.19,173a29.32,29.32,0,0,0,2.67-5.63,9.8,9.8,0,0,1,.83-2.07c.21-.35,1.17-1.45,1.46-.7.07.18.28.52.25.71a42,42,0,0,1-2.49,7.95,44.91,44.91,0,0,1-3.48,7.82,28,28,0,0,1-5.49,6.16,11.16,11.16,0,0,1-2.67,2.1c-.93.41-2.16-.48-2.87-1s-2.16-1.36-2.29-2.41m60.88.71c-1.39.2.3-2.14.52-2.43a103.29,103.29,0,0,0,7.94-12.43c1.13-2.12,2.17-4.31,3.15-6.52.35-.79,1.44-5.23,2.91-4.58.62.28.38,1,.35,1.51a8.23,8.23,0,0,1-1.22,3c-.53,1.07-1,2.15-1.57,3.2-1.23,2.34-2.55,4.65-3.92,6.91s-2.8,4.42-4.27,6.58c-1,1.54-2.1,4-3.89,4.74m-1.51-1.3c-.31-1.23-.52-2.48-.89-3.69-.2-.62-.69-1.91-.08-2.45,1.18-1.07,2.85-1.39,4.3-1.92.7-.26-.4-3.88-.42-4.57,0-1.35.9-1.53,2-1.94a7,7,0,0,0,1.38-.64c.7-.45.84-.56,1-1.39.25-1.44-.66-2.85-.32-4.32.2-.87,2.71-1.51,3.36-1.91s.48-1.11.4-1.66a22.14,22.14,0,0,1-.2-3c1,.33,1.29,1.23,1.51,2.19a10.8,10.8,0,0,1,.51,3.4c-.08.81-2.16,1.24-2.77,1.51-1.2.54-1,1.64-.87,2.69a7,7,0,0,1,.14,3c-.77,2.17-4.77.8-4.42,3.88a14.28,14.28,0,0,1,.38,3.3c-.17,1.67-4.17.59-4.25,2.58-.07,1.66,1.15,3.84-.7,5M115,183.64a2.71,2.71,0,0,1,1-1,1.65,1.65,0,0,0-1.48-.49c0-2.15,1.25-4.61,2-6.59.87-2.27,1.75-4.56,2.73-6.78s2.05-4.33,3.22-6.41c1-1.85,2.08-4.38,3.75-5.74.29-.24,1.26.23,1.38.51a8.49,8.49,0,0,1,.83,3.07,4,4,0,0,1-.13,1.69c-.17.52-1.38.85-1.83,1-.76.3-1.81.76-1.77,1.74s.84,4.08-.06,4.65a13.62,13.62,0,0,1-2.61,1.23c-.67.25-1.36.63-1.43,1.42a21.59,21.59,0,0,0,.37,3.17c.09,1.22-.07,1.77-1.34,2.21-.86.29-2.37.62-2.9,1.41s-.1,1.94.08,2.72c.28,1.2.46,2.42.7,3.62a4.17,4.17,0,0,1-2.49-1.47m-56.66.83c-.82-1.07-1.7-2.09-2.51-3.15s-1.81-2-2-3.25c1.1.21,2.22,2.1,2.8,2.95.41.61,2,2.67,1.68,3.46m2.88-5.57c0-.33.35-.15.35-.15l-.17,5.34-.45.18m1.6-.82a9.44,9.44,0,0,1,0-3.34c0-.57-.22-1.9.29-2.31a4.24,4.24,0,0,1,1-.67c.47-.2.51-.11.75.28a16.93,16.93,0,0,1,1,1.62c.4.8.65,1.19.21,2a5.22,5.22,0,0,1-3.18,2.42M113,181.92c.84-5.15,2.93-10,4.92-14.8,1-2.45,2.07-4.88,3.21-7.27.45-.95,1.83-5.14,3.35-5,1.19.14.41,2,.11,2.5-2.37,4.18-4.81,8.34-6.77,12.74-1,2.18-1.81,4.43-2.61,6.67-.25.69-1.28,5.34-2.21,5.12m-33.15.19c.07-1.82,1.13-3.56,1.71-5.25.34-1,.66-2,1-3,.19-.56.33-1.91,1.13-1.92.35,0,.78.81,1,1.05a6.9,6.9,0,0,1,1.76,2.6c.12.47-.46.63-.46,1.17s.62,1.05,1.07.81.48-.6,1-.2A14.64,14.64,0,0,1,91.42,181a2.24,2.24,0,0,1,.33.81c-1.77,0-3.53.29-5.32.28-2.2,0-4.38,0-6.57,0m2.91-.67c.58-.3.46-.77.35-1.31-.07-.37-.91-.42-1.25-.51-.1.46-.19.93-.29,1.39,0,.1,1,.37,1.19.42m29-.25c-1.43-.62-4-2.2-4.58-3.72a64.63,64.63,0,0,1-2.47-9.42,81.54,81.54,0,0,1-1.58-9.76c-.32-3.16-.85-6.29-1.1-9.45,0-.63-.78-6.28,1-5.63.64.23,1,.27,1,1a166.19,166.19,0,0,0,2.6,19.64,91,91,0,0,0,2.46,9.74,33.58,33.58,0,0,0,2,4.7c.35.68,1.39,2.18.69,2.92m-25.85-.09c.13-.44.37-.84.18-1.27-.31-.74-1.42-.29-1.47.39s.68,1.4,1.28.87m3-.27c0-.38.09-.75.14-1.12l-1.15-.13c0,.2-.22,1-.11,1.15s.92.08,1.12.1m23.37-1.61c-1.47-2-2.09-5-2.76-7.29-.81-2.82-1.41-5.7-2-8.59a97.81,97.81,0,0,1-2.37-18.72,8.6,8.6,0,0,0,1.24,0,5.84,5.84,0,0,0,.25,1.49c.71-.36.76-.27.94.49.11.5.19,1,.31,1.49a2.64,2.64,0,0,0,.49-1c.5.54.56,2.54.52,3.21,1-.65.73-2.2.72-3.22.53.58.29,1.51.27,2.21,0,1.09.25,2.15.25,3.24a2,2,0,0,0,.73-.75c.44.48.29,1.49.44,2.09.22.91-.11,1.32-.28,2.16a47,47,0,0,0-.54,6.36c0,.59-.35,8.2.75,8.2,1.42,0-.64-4.17,1.11-4.44.25,0,.08-1.62.08-1.75a3.54,3.54,0,0,1,1,.49c.07-.42.17-.82.24-1.24a7.49,7.49,0,0,0,.75.49,6.88,6.88,0,0,0,.23-1.73c.29.16.34.48.5.74,0,0,.58-.77.49-.74.31-.11.55.31.74.49a1.34,1.34,0,0,0-.51-1.73c0,.33,0,.66,0,1-.36-.44-.27-1-.57-1.52s-.68-.35-.68-1,0-1,0-1.46l-1,.5c0-.57,0-1.16,0-1.73-.35.15-.52.46-.73.75-1.44-2.18,1-4.07,2.19-5.7.46.72-.16,1.75-.08,2.54.13,1.13,1.26,2,2.09,2.65.4-1.26-1.39-2-.76-3.21a1.89,1.89,0,0,1,.25,1.24,1.3,1.3,0,0,1,.74-.26,4.16,4.16,0,0,1,0-1.48c.49.6.26,1.73.51,2.48a4.09,4.09,0,0,0,.47-2.72c.38.45.19,2,.76,2s.23-2.41.24-2.72c.54.65.14,1.69,1,2.22a2.63,2.63,0,0,1,.24-1.24,8.66,8.66,0,0,0,.74.49,1.3,1.3,0,0,0,.24-.74,1.9,1.9,0,0,1,1.24.67c.38.36,0,1.11-.15,1.49-.8,2-2,3.94-2.86,5.94s-1.82,4.15-2.7,6.25-1.76,4.24-2.5,6.42c-.27.81-1.16,5.43-2.25,5.24m-51.46.3c-1.1-.55-3,0-3-1.8a26.92,26.92,0,0,0-.27-4.37,7.73,7.73,0,0,1,2,3.45,8.55,8.55,0,0,1-1,.25c.15,1.28,1.29-.07,1.6.41s1.08,1.52.65,2.06M84,177.64c.12-.09.61-.61.34-.76s-.83-.66-1.07-.54a1.71,1.71,0,0,0-.33,1c.17.44.68.29,1.06.29m-15.29-.16c-2-2.51-.75-5.87-.54-8.71a52.38,52.38,0,0,1,.86-5.23,19.36,19.36,0,0,1,.49-2.39c.16-.5,1,0,1.07-.75a3.63,3.63,0,0,1,.5,1.49c.11-.18.54-.42.74-.26s0,.84,0,1c.23-.12.74-.49.74-.06,0,2.61-.81,5.29-1.26,7.85-.38,2.22-.42,5.76-2.61,7.07m36.61-1.2a15.81,15.81,0,0,1-2.34-1.8c-.81-.7-5.27-6.79-5.49-7.8-.87-4.2-1.75-8.33-2.22-12.59-.23-2.12-.55-4.22-.77-6.34-.1-.93-.83-4.29.14-4.63a11.56,11.56,0,0,1,3.83-.17c.45,0,2.09-.22,2.45.21s0,2.11,0,2.74c0,1.46.27,2.94.41,4.4.31,3.12.77,6.21,1.18,9.32s.84,6.23,1.54,9.32c.34,1.51.71,3,1.06,4.51.18.73.78,1.94.32,2.66l-.11.19m14.1-1.82c-.74,0-1,.19-.88.93,0,.26.55.05.66-.06a1.55,1.55,0,0,0,.22-.87m-47.28-2.19c.09-2.22.72-4.36,1-6.56.14-1.1.34-2.2.51-3.28a11.11,11.11,0,0,1,.63-3.27c.81.56.35,2,.28,2.74-.14,1.48-.34,3-.49,4.45-.19,1.9,0,4.77-1.94,5.92m24.48-3.36c-1.67-1.36-3.57-2.9-4-5.11-.75-3.58-.54-7.31-1.15-10.9-.29-1.77-.36-3.57-.49-5.37,0-.64-.68-4,.29-4.35a1.82,1.82,0,0,1,1.45.15c1.26.87.87,3.84,1,5.12.19,2.46.53,4.92.95,7.36s.9,4.87,1.37,7.3c.2,1,.39,2.11.63,3.16.17.75.54,2,0,2.64m25.67-.64c.19-.14.47-.43.37-.7s-.63-.26-.95-.31c0,.43-.16,1.43.58,1m-47-2.45c0-1.14-.19-3.56.72-4.46a2.46,2.46,0,0,1,.43,2.28,4.48,4.48,0,0,1-1.14,2.18m16.07-2.07c-.78-.74-2.61-1.94-2.6-3.14s.53-3.17-1.15-3.52a3.88,3.88,0,0,1-.51,1.29c-.35.66-.56.32-1.09,0-.38-.26-.61-1.05-.82-1.45A7.1,7.1,0,0,1,85,154.4c-.11-1-.14-2.09-.21-3.13-.13-2-.35-4-.4-6.1a3.69,3.69,0,0,1,.14-1.54c.28-.63,1.06-.39,1.61-.45,1-.11,3.43-.66,3.7.84.62,3.44.3,7,.87,10.45.3,1.78.26,3.63.48,5.43.15,1.17,1.07,2.75.23,3.83m36.82-7.89c-.35.18-.43.35-.66,0a3.19,3.19,0,0,0-.44-.36c-.33-.28-.38,0-.37-.53s.1-.4.57-.51c5.08-1.27,9.87-4.7,13.43-8.45,2.6-2.73,4.2-6.31,5.64-9.76a101.4,101.4,0,0,0,4.05-12.05c1.17-4.22,2.31-8.47,3.36-12.73s1.55-8.49,2.3-12.71c.91.86,1.07,2.66,1.36,3.81.42,1.69.71,3.42,1,5.14.55,3.51,1.15,7.08,1.4,10.62s-1.06,6.09-2.17,9.24c-.44,1.25-1.62,4.86.48,5.28.57.11.9-1.66,1-2a13.6,13.6,0,0,0,0-3.75,8.08,8.08,0,0,1,.82-3.62,3.34,3.34,0,0,1,.34,2.54,28.08,28.08,0,0,0-.07,3.65c.06,2.76,0,5.54.06,8.3,0,1,.16,2.08.12,3.12a14,14,0,0,1-.91,3.45c-.73,2.41-.48,5.23-2,7.4-1.75,2.53-4.76,4.23-7.46,5.56-3.19,1.56-6.52,3.3-10.11,3.57-2,.15-4.57-1.05-6.31-1.87a38.15,38.15,0,0,1-3.43-1.85c-.61-.35-1.81-.74-2-1.52m-1.46,4a.91.91,0,0,0-1.23,1c.63,0,1.23-.29,1.23-1m-42.83-3.71c-1.85-1.16-1-4.83-1.15-6.62-.06-.92-.91-5.64.57-6,.06,2.42.48,4.82.56,7.26.06,1.36,1,4.15,0,5.36m4.46-.77c.24-.74.74-1.36.61-2.18a2.25,2.25,0,0,0-1.27-2c-.48-.16-.72,2.08-.76,2.31a2,2,0,0,0,1.42,1.86m36.35-1.7c.48-.75,1.55-.83,2.33-1.05a16,16,0,0,0,3.78-1.7,32.07,32.07,0,0,0,6.89-5.07c4.16-4.22,6.41-9.54,8.34-15,1-2.77,1.73-5.59,2.43-8.43s1.62-5.75,2.31-8.66c1.41-6,2.62-12.06,3.78-18.11,1.92.36.63,4.32.46,5.48-1.15,7.64-3.34,15.11-5.26,22.59-1.84,7.15-4.09,15-8.52,21a20,20,0,0,1-5.5,4.81,42,42,0,0,1-6.53,3.75c-1.17.46-3.33,1-4.5.4m-12.87.07c0-.91,0-1.81,0-2.72a2.94,2.94,0,0,1,0,2.72m-29.94.17a5.35,5.35,0,0,1-2.5-3c-.25-.55.29-1.24.51-1.72a2.79,2.79,0,0,0,.09-2c-.16-.54-.43-1.08-.56-1.62-.22-1-.85.34-1,.7A5.53,5.53,0,0,0,78,148a10.15,10.15,0,0,1,.22,1.94,3.68,3.68,0,0,1-1.57-2.09,5.79,5.79,0,0,1-.19-2.63c.1-.38.13-1.17.44-1.41.49-.39,5-.62,5-.19,0,1.94-.05,3.87.14,5.81.11,1.09.66,3.5-.09,4.45m40.56-2.46a1.36,1.36,0,0,1,1.3-1.94c.8.12,2.44.72,3.2.33,1.05-.55,1.1-2,2-2.66s2.21.17,3.14-.07c.73-.2,1-.13,1.34-.82.42-1,.08-2.17.67-3.08.5-.75,1.93-.67,2.71-.84,1.15-.25,1.94-.82,2-2.08,0-.8-.64-2.76,0-3.38,1-.9,2.23-1.4,3.24-2.24,1.25-1,.17-2.89,0-4.19-.08-.49-.21-.92.17-1.3,1.18-1.22,3.12-1.87,2.88-3.85-.14-1.09-.66-2.1-.82-3.19-.2-1.33,1.8-2.33,2.53-3.17,1.39-1.56-1.42-3.38-.43-5,.56-.94,1.64-1.41,2.29-2.26a2.66,2.66,0,0,0,.37-2.92c-.3-.9-1-2.29-.69-3.25s1.71-1.64,2.43-2.4c1-1-.86-3.38-1.07-4.48-.36-2,2.15-2.1,2.67-3.66s-2.69-4.67-.08-5.3c.1.45-.16.89-.2,1.32-.14,1.29,1.19,2.29,1.52,3.46.51,1.8-1.31,2.15-2.09,3.35a1.53,1.53,0,0,0-.35,1.58,12.1,12.1,0,0,0,.53,1.63c.39,1.07.82,2.09.1,3s-1.91,1.38-2.29,2.39c-.66,1.76,1.41,3.4.56,5.14-.46.95-2.71,2.17-2.56,3.24s.67,2.09.77,3.15c.07.66.17,1-.32,1.51s-.88.74-1.3,1.11c-.88.79-1.56,1.52-1.25,2.77.26,1.07.68,2.09.86,3.18s-1.2,1.78-2.06,2.36a2.17,2.17,0,0,0-.8,2.63c.19.69.91,2.59.3,3.21a15.12,15.12,0,0,1-2.75,2.13,2.58,2.58,0,0,0-1.25,2.59c0,.84.26,2.76-.53,3.32s-2.16.45-3.05.92a2.51,2.51,0,0,0-1.34,1.66c-.17.66-.11,1.93-.63,2.44-.8.79-2.82,0-3.84.15-1.65.3-1.53,2.46-2.92,3.09-.67.3-1.85-.29-2.54-.39a2.64,2.64,0,0,0-2.39.78m-11.63.07c0-.74,0-1.48,0-2.23a2.17,2.17,0,0,1,0,2.23m3.46-1a31.49,31.49,0,0,0-1.8-4.15,5,5,0,0,1-.7-3.87c.95-2.78,2-5.52,2.9-8.3.82.17,1.06,1,1.33,1.69.43,1.05.81,2.13,1.27,3.17s1.47,2.23,1.21,3.45c-.17.8-.28,1.6-.41,2.41-.2,1.25-1.44,2.18-1.84,3.4-.31,1-.74,2.18-2,2.21M121,150a3.84,3.84,0,0,1-.5-1.49c.29.05.57.12.87.16s.62,0,.62.37a1,1,0,0,1-1,1M87.82,145.7c-.64,0-.59-.07-.88.4a4.1,4.1,0,0,0-.39,1c-.22.76-.29,1.91.59,2.34.46.22.68.31,1-.11a1.9,1.9,0,0,0,.4-1.2c-.14-.89-.58-1.61-.75-2.44M124,148.46a4.75,4.75,0,0,1,1.23-.61c.61-.2.7-.21.88.43s.7.59.65-.08c0-.44-.46-.86-.07-1.15,4.28-3.06,7.2-8,9.57-12.6a91.33,91.33,0,0,0,6.29-15.6c1.63-5.38,3.25-10.88,4.41-16.38.61-2.88,1.13-5.79,1.57-8.69.2-1.34.31-2.66.44-4s.65-2.84.4-4.07c.51.07.66.63.8,1,.2.59.86.87,1.09,1.46.39,1-1,1.55-.8,2.55s1,1.89,1.09,2.9c.06.45.32,1.17,0,1.52A19,19,0,0,0,149,97.72c-.63.95,1.22,3.39,1.23,4.5s-1.14,1.73-1.86,2.43c-1.16,1.13-.39,2.46-.12,3.82s.56,2.49-.58,3.52c-.49.44-2.2,1.52-2.06,2.32a10,10,0,0,0,.4,1.79c.46,1.25.61,1.93-.16,3.06-.61.89-1.65,1.42-2.28,2.34-.42.6.35,2.42.56,3.09.34,1.13.57,2-.53,2.76-.48.34-2.33,1.32-2.32,2a23.74,23.74,0,0,0,.67,3.19c.2,1.34-.27,1.94-1.42,2.57-.84.46-2.08,1.08-2.47,2-.65,1.5.92,3.71-1.08,4.59-1,.43-3.45.37-3.65,1.78a8.34,8.34,0,0,1-.25,1.64c-.31.87-.28,1-1.14,1.25-1.1.37-2.22-.33-3.28.31-.58.35-1.26,2.25-1.9,2.3-.89.06-2.13.25-2.78-.49m-4-2.2a6.28,6.28,0,0,0,3.27.25,7.27,7.27,0,0,0,2.86-1.45c4.09-3.29,6.3-8.14,8.7-12.66a87.59,87.59,0,0,0,6.29-15.86c3.29-10.93,5.53-22.35,5.47-33.77,2,1.05,2.08,3.66,1.8,5.65-.32,2.31-.41,4.66-.75,7s-.88,4.76-1.41,7.12c-1.08,4.89-2.39,9.7-3.77,14.51a85.51,85.51,0,0,1-5,13.73c-2.05,4.23-4.33,8.57-7.5,12.07a28.32,28.32,0,0,1-4.83,4.2,4.48,4.48,0,0,1-2.69.88c-.9-.05-2.35-.63-2.48-1.66m1.23-1c1.62,0,3.08-1.26,4.3-2.2.7-.55,1.4-1.1,2.05-1.71s1.17-1.4,2-1.58a6.07,6.07,0,0,1-1.32,2.49,9.4,9.4,0,0,1-2.21,2.3c-.84.57-4.4,2.51-4.85.7m10.88-1.06a.71.71,0,0,0-1,1c.47-.24.88-.42,1-1m-11.64-1.67a4.46,4.46,0,0,0,2.06-.21c1.16-.74,2.25-1.55,3.34-2.37.87-.65,2-1.5,2.23-2.66-.43,0-1.3-.75-1-1.23s1.82,0,2,.41c.12.21.64.87.57,1.1a3.47,3.47,0,0,1-.52,1.25,20.37,20.37,0,0,1-5.63,4.9c-.57.33-1.52.87-2.16.58s-1.4-.83-1-1.77m7.54-22.8c-.65-.13-1.39-1.09-2-1a2.55,2.55,0,0,0-2.28,1.43,13.41,13.41,0,0,0-.8,2.48,6.22,6.22,0,0,0,.67,2.93c.46,1.19.76,2.45,1.14,3.66.61,2,2,4.73.44,6.62a3.22,3.22,0,0,1,1,.66,3.12,3.12,0,0,1,.56,1.56c-.06.79-1.35,1.83-1.92,2.28A6.24,6.24,0,0,1,122,142a3.22,3.22,0,0,1-2.9-1.15c-1-1.09-1.3-2.71-1.86-4s-1.64-3.57-1.12-5.18a61.73,61.73,0,0,1,4.14-8.78c.66-1.28,1.23-2.61,1.91-3.87a3.76,3.76,0,0,1,2.88-2.21,1.59,1.59,0,0,1,2,.79,7.52,7.52,0,0,1,1,2.2m8.17,20c.41-.29-.08-1-.51-.74s.16.93.51.74m-10.77-.92c0-.61-.06-1.27-.75-1.48,0,.51.19,1.29.75,1.48m3.92-5.47c-.32.28-.64.5-1,.75-.59-1.09-.37-2.52-.29-3.7.1-1.46-.19-3.63.48-5,.64.59.39,1.6.32,2.35a35.49,35.49,0,0,0,0,3.84c.88-.57,1-2,1-3,.6.36.87,1.33,1.06,1.94.14.44.32.71-.14.91s-.81.2-1,.54.39.85.69.79a9,9,0,0,1,1.31-.36.78.78,0,0,1,.8.53c.08.16.82-.13,1-.17.26,1.13-1.13,2.69-1.93,3.28-.5.36-1.29-.66-1.54-.94a4.93,4.93,0,0,1-.73-1.82m-42.31-1a3.46,3.46,0,0,0-.68,2c.09.62.22,2.07,1.19,2,.69,0,1-1.51.87-2-.16-.82-.43-1.83-1.38-2m44.69,2.7c.39-.32.39-.6.41-1.07,0-.68-.29-.68-.9-.68s-.59,2.29.49,1.74m-27.35.42a48.38,48.38,0,0,1,1.34-7.77c.57-2.82,1.14-5.64,1.82-8.44,1.23-5.14,2.39-10.52,5.43-14.94C114,102.72,116,101,118,101s4.9,1.09,4.91,3.48c0,5.91-2.66,10.89-5,16.17-1.17,2.63-2.23,5.29-3.5,7.87-.68,1.37-1.37,2.73-2.12,4.06-.47.85-.73,2.06-1.73,2.45-1.82.74-4.35.44-6.28.46m35.86-2.19c-.35-.74-.79-.94-1.15-.11-.24.55,1,.22,1.15.11m-7.68-1.44a2,2,0,0,1,1-1.74c0,.33,0,.66,0,1,.78-.49.56-2.17.72-3-.48-.09-1.37.63-1.38-.18a6.89,6.89,0,0,0-.37-1.78,8.79,8.79,0,0,0-.86,1.59c-.24.49-.33.39-.89.34a2.9,2.9,0,0,0-1,.07c0-2.91.11-5.82.16-8.73,0-1.2,0-2.39,0-3.59,0-.81.1-2.11-.79-2.53,0,1.67-.16,3.29-.22,4.95-1.67-1.27.8-4.45-1.27-5.44,0,.83.31,2.14-.47,2.72-.54-1,.24-2.87-1-3.46,0,.83.15,2.07-.48,2.72-1-1.82.35-4.36,1.26-5.91,2.09-3.54,3.95-7.21,5.75-10.9.91-1.85,1.74-3.72,2.66-5.56.45-.92.92-1.84,1.41-2.73a3.44,3.44,0,0,1,.69-1.09c.26-.19.79-.29.93-.6a10.66,10.66,0,0,0-.25-1.49c.47.14.58.56.75,1a10.57,10.57,0,0,0,2.95-3.73c-1.07,0-1-1.25-1-2a2.76,2.76,0,0,0-.9.92c-.48.65-.74.53-1.48.39a1.3,1.3,0,0,1-1-.9c-.12-.57.53-.7,1-1,1.38-.76,4.85-1.37,6,.12a4.86,4.86,0,0,1,1.37,2.94c0,1.48-.69,16.48-1.83,16.23a1.63,1.63,0,0,1-.68-.22c-.54-.41-.88-.53-.51-1.22s1.45-1.51,1.61-2.48c-.79,0-1,.22-1-.58s0-1.43,0-2.14a3.94,3.94,0,0,0-1.22,2c-.17.39-.23.64-.69.39a4.3,4.3,0,0,0-1-.36c.21.76,1.25,3.65.28,3.89a2,2,0,0,0-1,.44c-.44.34.15.55.44.74s.76,0,1,0c.75,0,1.43.48,2.21.55.58.05.57.12.47.69-.19,1.06-.95,1.86-1,2.95s.14,2.31-.61,3.09c-.48-.88-.26-2.26-.27-3.22-1.12,1.45-.75,4.19-.87,6-.06.91-.11,1.83-.24,2.74,0,.17,0,.52-.15.66s-1.16-.17-1.17-.52c0-.63,0-1.28,0-1.92a5.4,5.4,0,0,0-1.07,1.24c-.52.63-.81.5-1.63.51a22.53,22.53,0,0,1,.69,2.52c.22,1.29-.14.69-1,1-.38.15-.66.25-.47.66s.64.42,1.13.47c.3,0,.34,2,.41,2.24.35-.18.67-.42.87.08a2.06,2.06,0,0,1,0,1.07,5.74,5.74,0,0,1-.81,2.07c-.74-.56-.51-2.15-.52-3-2.1,1.21.41,5.06-1.2,6.69-.6-1.11-.21-3-.17-4.18a13.61,13.61,0,0,0-.37-4.47,2.14,2.14,0,0,1-.66.47c-.19.07-.28-.58-.3-.74a51.72,51.72,0,0,1-.07-6.9,4.61,4.61,0,0,0-.73,3.26c0,1.38,0,2.76-.12,4.14-.17,2.82-.07,5.61,0,8.43,1.05-1.24.87-3.15.78-4.67,0-.69-.37-2.83.66-3,0,2.42,0,4.85.07,7.27,0,.28,0,5.1-.8,4.84a3,3,0,0,0-1.67-.18m25.48-.9a6.3,6.3,0,0,1,.23-2.47,2.15,2.15,0,0,1-.23,2.47m-70.79-4.53c-1.1.54-1.74,3.94-.09,4.17.76.1,1.25-1.38,1.18-1.95a4.6,4.6,0,0,0-1.09-2.22m39.86,4c-.28-.5-.61-4.46,0-4.45.41,0,.25.34.26.71,0,1,.41,2.92-.23,3.74m15.81-4.54c.06-.44-.41-.8-.75-.57a1.61,1.61,0,0,0-.49,1.07,2.57,2.57,0,0,0,1.24-.5m-11.63.31c0-2.4.21-4.8.25-7.19,0-1.17,0-2.35,0-3.51,0-.89.32-1.66-.71-1.65-.2,0-.2,6.06-.2,6.48,0,1.37,0,2.73,0,4.1v1.13c0,.66.1.65.74.66m1.24-.25a5.63,5.63,0,0,0,.29-2.66c0-1,.17-2.09.17-3.14l0-6.83c-.72.17-.77,1.16-.77,1.74,0,1.14,0,2.26-.07,3.4-.12,1.55-.11,3.11-.09,4.66,0,.65-.45,2.86.51,2.82M127,124.19c-.52-.35-.88-.77-1.44-1.08s-1.13.33-1.53.85c-1.29-.8,0-2.79,1.29-2.56.92.17,2.45,1.83,1.67,2.8m1.23-1.24c-.72-.64-1.58-2.07-2.62-2.16a12.35,12.35,0,0,0-1.36,0c0-1.44,1.55-1.7,2.5-.87.59.52,2.23,2.16,1.48,3.07m17-5.29a1.32,1.32,0,0,0-.84-.12c-.21.08-.58.48-.4.76.43.63,1.1-.31,1.24-.64m-6.18-.21a2.2,2.2,0,0,1,1.47-2.23c-.23.88-.4,2.08-1.47,2.23m-3.46,0a33.74,33.74,0,0,0,.21-6.93c-1.4.29-.72,4.91-.71,5.83,0,.67-.25,1.14.5,1.1m4.67-4.48c.48-2,.22-4.17.22-6.18-.94.15-.88,2.39-.91,3.13a4.6,4.6,0,0,0,.69,3.05m-3-.48c0-.75.61-3-.52-3.22.09,1.06-.71,2.56.52,3.22m-4.47-2.2c-.85,0-1.85,1.82-.67,2.09.91.22.82-1.6.67-2.09m5.7,1.45c.73-1,.48-2.56.48-3.71-1.13.17-1.29,3.12-.48,3.71m8.65-2a1,1,0,0,0-1.23,1c.63,0,1.24-.29,1.23-1m-12.11.56c.19-1.07-1.34-.79-2-.73,0,1,1.3,1.09,2,.73m-3-1.22c-.39-.11-2.57-.19-2,.76.2.31.92.28,1.2.26a1,1,0,0,0,.77-1m1,.24c.71-1.52,2-2.72,2.69-4.22a2.45,2.45,0,0,0-1.48,0,9.44,9.44,0,0,0-.26-2.47,4.58,4.58,0,0,0-1.22,2.48,11.13,11.13,0,0,0-1.24-.74c-.28.78.22,1.9.39,2.66s.09,2.48,1.13,2.28m-5.23-5.16c-.17-.1-.45-.74-.18-.74h.91a2.79,2.79,0,0,1-.73.75m13.86-.58c.09-.49.22-2.63-.85-1.79-.85.67,0,1.84.85,1.79m7.42-1.28c0-.32-.21-1.52-.81-.92s.29.84.81.92M115,96.06c.35-1.89-2-1.43-2.25-3a62.23,62.23,0,0,1,9.87,3.42c1.56.74,3.08,1.51,4.66,2.21.7.31,3.2,1,3,1.94-.06.31-.2,1-.59.94a6.51,6.51,0,0,0-1.86-.21c-1.09,0-1.75-1.4-2.28-2.16-1-1.47-3.42-2.23-5.11-2.41-2-.21-3.69.35-5.45-.77m13.37,2.39A4.43,4.43,0,0,1,130.1,98c.51-.12,1.66-.66,1.46.2s-.47,1.27-1.39,1.13a4.75,4.75,0,0,1-1.81-.86m-16.08-.4c-.3-.46-.78-.32-1.24-.24.14-1,1.84-.49,1.24.24m1.49-.25a1.49,1.49,0,0,1,.74-.5,1.34,1.34,0,0,1-.74.5m-.31-10.14c.82.5.83,1.81,1.47,2.5s1.68,1.67,2.79,1.27a10.28,10.28,0,0,0,2.82-1.62,3.25,3.25,0,0,1,3.14-.79c.62.2,1.47,1.53,1.72,2.09.53,1.18.46,2.51,1.17,3.65a3.76,3.76,0,0,0,2.61,1.78c1.34.24,2.39-.87,3.64-1.08-1,1.95-3.71,2.29-5.52,1.44-2-.93-1.51-3.86-2.75-5.35-.87-1.05-1.33-1.92-2.78-1.43-1,.33-1.65,1.25-2.62,1.62-1.21.45-2,.75-3.15.14a3.88,3.88,0,0,1-1.93-2.25,9.5,9.5,0,0,1-.61-2m-4.15,8.93c.82-.13.75-1.36.73-2a1.86,1.86,0,0,1,.57,1.88c-.19.51-.11.89-.68.75a1,1,0,0,1-.62-.65m3.71,0a1.37,1.37,0,0,1,1.23-1.49A1.6,1.6,0,0,1,113,96.57m-1.49-.49c.06-.71,0-1.61.73-2,.21.65.31,2.18-.73,2m39.09-1.71a1.85,1.85,0,0,0-.75-.73,2.64,2.64,0,0,0-.24,1,2.81,2.81,0,0,0,1-.25M121.4,91.56c-.19-1,1.78-1.21,2-.26-.7.14-1.24.48-2,.26M139,88.5c-.54-.1-.65.21-.82.66s0,.72.34,1.11.73-.39.79-.55A1.43,1.43,0,0,0,139,88.5m-23.79-5.3c.51-.85,2.2-.21,2.95,0a70,70,0,0,1,11.5,3.59,42.87,42.87,0,0,1,4.56,2.07c.28.15,2.17,1.22,1.24,1.56-1.18.43-2.64-.84-3.59-1.37a43.34,43.34,0,0,0-5.65-2.45c-1.87-.69-3.8-1.19-5.7-1.77s-3.67-.71-5.31-1.59m3.25,5.67a10.25,10.25,0,0,0,1.73.23c-.39.83-1.74.84-1.73-.23m23.25-1.12a2,2,0,0,0-1-.36c-.51,0-.53.33-.69.76s.73.37.9.41c.33.07.7-.57.78-.81m-28.45-.33a1.66,1.66,0,0,1-.5-.74c.31.09.9.4.5.74M118.59,78c.59-.46,1.45-.19,2.11,0,3.33.82,6.68,1.61,9.93,2.69a39.52,39.52,0,0,1,4.59,1.76c1,.46,2.52,1.07,3,2.15-1.16.62-3.43-.89-4.51-1.32-1.77-.72-3.54-1.4-5.35-2s-3.37-1.06-5-1.66a36.86,36.86,0,0,1-4.7-1.58m6.47,4.66c0-1.49-2.49-2.6-3.65-1.66-.62.5.8,1.62,1.2,1.77.74.27,1.66-.13,2.44-.1m-1-5.19a.67.67,0,0,1,.74-.26C124.4,75.27,122,74.08,122,72c1.08.05,1.74,1.44,2.23,2.23.83,1.32,2,2.44,2.49,3.94-.78,0-2.19,0-2.72-.73m-4.46-1.21c.22-.29.39-.6.73-.75,0,.32,0,.63,0,1s-.66-.06-.74-.2"/></svg>