<svg xmlns="http://www.w3.org/2000/svg" viewBox="0 0 169.01 246.76"><defs><style>.a{fill:#fff;stroke:#000;stroke-width:2.5px;}.b{isolation:isolate;font-size:45.45px;font-family:Arial-BoldMT, Arial;font-weight:700;}.b,.c{fill:#e6180a;}</style></defs><title>h10</title><path class="a" d="M1.25,238a6.89,6.89,0,0,0,6.87,6.87H160.91a6.88,6.88,0,0,0,6.86-6.87V9.72a6.88,6.88,0,0,0-6.86-6.87H8.12A6.89,6.89,0,0,0,1.25,9.72Z"/><text class="b" transform="translate(5.25 38.99) scale(0.31 1)">10</text><text class="b" transform="translate(164.77 207.77) rotate(180) scale(0.31 1)">10</text><path class="c" d="M22.57,49.06c0,4.71-5.91,8.14-7.64,11.87-1.75-3.72-7.66-7.12-7.7-11.83a3.92,3.92,0,0,1,3.82-4,3.93,3.93,0,0,1,3.85,4,3.84,3.84,0,1,1,7.67,0Z"/><path class="c" d="M147.46,197.7c0-4.71,5.91-8.14,7.64-11.87,1.75,3.72,7.66,7.12,7.7,11.83a3.84,3.84,0,1,1-7.67,0,3.84,3.84,0,1,1-7.67,0Z"/><path class="c" d="M63.5,30.17c0,11.3-14.18,19.53-18.33,28.48C41,49.73,26.79,41.57,26.7,30.27a9.42,9.42,0,0,1,9.16-9.67,9.44,9.44,0,0,1,9.24,9.62,9.21,9.21,0,1,1,18.4,0Z"/><path class="c" d="M63.5,84.31c0,11.3-14.18,19.53-18.33,28.48C41,103.86,26.79,95.71,26.7,84.41a9.42,9.42,0,0,1,9.16-9.67,9.44,9.44,0,0,1,9.24,9.62,9.21,9.21,0,1,1,18.4,0Z"/><path class="c" d="M26.7,158.31c0-11.3,14.18-19.53,18.33-28.48,4.2,8.92,18.38,17.08,18.47,28.38a9.21,9.21,0,1,1-18.4,0,9.42,9.42,0,0,1-9.16,9.67A9.44,9.44,0,0,1,26.7,158.31Z"/><path class="c" d="M26.7,212.44c0-11.3,14.18-19.53,18.33-28.48,4.2,8.92,18.38,17.08,18.47,28.38a9.21,9.21,0,1,1-18.4,0,9.42,9.42,0,0,1-9.16,9.67A9.44,9.44,0,0,1,26.7,212.44Z"/><path class="c" d="M143.33,30.17c0,11.3-14.18,19.53-18.33,28.48-4.2-8.92-18.38-17.08-18.47-28.38a9.21,9.21,0,1,1,18.4,0,9.21,9.21,0,1,1,18.4,0Z"/><path class="c" d="M143.33,84.31c0,11.3-14.18,19.53-18.33,28.48-4.2-8.92-18.38-17.08-18.47-28.38a9.21,9.21,0,1,1,18.4,0,9.21,9.21,0,1,1,18.4,0Z"/><path class="c" d="M106.52,158.31c0-11.3,14.18-19.53,18.33-28.48,4.2,8.92,18.38,17.08,18.47,28.38a9.21,9.21,0,1,1-18.4,0,9.21,9.21,0,1,1-18.4,0Z"/><path class="c" d="M106.52,212.44c0-11.3,14.18-19.53,18.33-28.48,4.2,8.92,18.38,17.08,18.47,28.38a9.21,9.21,0,1,1-18.4,0,9.21,9.21,0,1,1-18.4,0Z"/><path class="c" d="M103.41,57.24c0,11.3-14.18,19.53-18.33,28.48-4.2-8.92-18.38-17.08-18.47-28.38a9.21,9.21,0,1,1,18.4,0,9.21,9.21,0,1,1,18.4,0Z"/><path class="c" d="M66.61,185.37c0-11.3,14.18-19.53,18.33-28.48,4.2,8.92,18.38,17.08,18.47,28.38a9.21,9.21,0,1,1-18.4,0,9.21,9.21,0,1,1-18.4,0Z"/></svg>