<svg xmlns="http://www.w3.org/2000/svg" viewBox="0 0 169.01 245.84"><defs><style>.a,.d{fill:#fff;}.a,.b,.e{stroke:#000;}.a{stroke-width:2.5px;}.b,.e{fill:none;}.c,.f{fill:#e6180a;}.e{stroke-width:7.25px;}.f{isolation:isolate;font-size:39.99px;font-family:Arial-BoldMT, Arial;font-weight:700;}.g{fill:#1c1585;}.h{fill:#f8c20f;}.i{fill:#e61408;}</style></defs><title>hj</title><path class="a" d="M1.25,237.58a6.89,6.89,0,0,0,6.87,6.87H160.91a6.88,6.88,0,0,0,6.86-6.87V9.26a6.88,6.88,0,0,0-6.86-6.87H8.12A6.89,6.89,0,0,0,1.25,9.26Z"/><path class="b" d="M10.38,62.52V239.85"/><path class="b" d="M10.38,239.85h131.1"/><path class="b" d="M159.64,183.57V6"/><path class="b" d="M159.64,6H28.54"/><path class="c" d="M55.72,23.61c0,11.3-14.18,19.53-18.33,28.48C33.19,43.16,19,35,18.92,23.7A9.42,9.42,0,0,1,28.08,14a9.44,9.44,0,0,1,9.24,9.62,9.21,9.21,0,1,1,18.4,0Z"/><rect class="d" x="18.82" y="14.06" width="9.69" height="37.95"/><path class="c" d="M114.29,222.35c0-11.3,14.18-19.53,18.33-28.48,4.2,8.92,18.38,17.08,18.47,28.38a9.21,9.21,0,1,1-18.4,0,9.21,9.21,0,1,1-18.4,0Z"/><rect class="d" x="141.94" y="193.95" width="9.69" height="37.95"/><line class="e" x1="46.33" y1="182.98" x2="123.68" y2="62.86"/><circle class="d" cx="48.65" cy="179.85" r="2.2" transform="translate(-5.63 1.62) rotate(-1.8)"/><circle cx="48.65" cy="179.85" r="0.7" transform="translate(-5.63 1.62) rotate(-1.8)"/><circle class="d" cx="51.83" cy="174.92" r="2.2" transform="translate(-5.47 1.71) rotate(-1.8)"/><circle cx="51.83" cy="174.92" r="0.7" transform="translate(-5.47 1.71) rotate(-1.8)"/><circle class="d" cx="55.01" cy="169.98" r="2.2" transform="translate(-5.31 1.81) rotate(-1.8)"/><circle cx="55.01" cy="169.98" r="0.7" transform="matrix(1, -0.03, 0.03, 1, -5.31, 1.81)"/><circle class="d" cx="58.19" cy="165.05" r="2.2" transform="translate(-5.16 1.91) rotate(-1.8)"/><circle cx="58.19" cy="165.05" r="0.7" transform="translate(-5.16 1.91) rotate(-1.8)"/><circle class="d" cx="61.36" cy="160.11" r="2.2" transform="translate(-5 2.01) rotate(-1.8)"/><circle cx="61.36" cy="160.11" r="0.7" transform="translate(-5 2.01) rotate(-1.8)"/><circle class="d" cx="64.54" cy="155.18" r="2.2" transform="translate(-4.84 2.1) rotate(-1.8)"/><circle cx="64.54" cy="155.18" r="0.7" transform="translate(-4.84 2.1) rotate(-1.8)"/><circle class="d" cx="67.73" cy="150.24" r="2.2" transform="translate(-4.69 2.2) rotate(-1.8)"/><circle cx="67.73" cy="150.24" r="0.7" transform="translate(-4.69 2.2) rotate(-1.8)"/><circle class="d" cx="70.9" cy="145.31" r="2.2" transform="translate(-4.53 2.3) rotate(-1.8)"/><circle cx="70.9" cy="145.31" r="0.7" transform="translate(-4.53 2.3) rotate(-1.8)"/><circle class="d" cx="74.08" cy="140.37" r="2.2" transform="translate(-4.37 2.4) rotate(-1.8)"/><circle cx="74.08" cy="140.37" r="0.7" transform="translate(-4.37 2.4) rotate(-1.8)"/><circle class="d" cx="77.25" cy="135.43" r="2.2" transform="translate(-4.22 2.49) rotate(-1.8)"/><circle cx="77.25" cy="135.43" r="0.7" transform="matrix(1, -0.03, 0.03, 1, -4.22, 2.49)"/><circle class="d" cx="80.43" cy="130.5" r="2.2" transform="translate(-4.06 2.59) rotate(-1.8)"/><circle cx="80.43" cy="130.5" r="0.7" transform="translate(-4.06 2.59) rotate(-1.8)"/><circle class="d" cx="83.61" cy="125.56" r="2.2" transform="translate(-3.9 2.69) rotate(-1.8)"/><circle cx="83.61" cy="125.56" r="0.7" transform="translate(-3.9 2.69) rotate(-1.8)"/><circle class="d" cx="86.79" cy="120.63" r="2.2" transform="translate(-3.75 2.79) rotate(-1.8)"/><circle cx="86.79" cy="120.63" r="0.7" transform="translate(-3.75 2.79) rotate(-1.8)"/><circle class="d" cx="89.96" cy="115.69" r="2.2" transform="translate(-3.59 2.88) rotate(-1.8)"/><circle cx="89.96" cy="115.69" r="0.7" transform="matrix(1, -0.03, 0.03, 1, -3.59, 2.88)"/><circle class="d" cx="93.14" cy="110.76" r="2.2" transform="translate(-3.43 2.98) rotate(-1.8)"/><circle cx="93.14" cy="110.76" r="0.7" transform="translate(-3.43 2.98) rotate(-1.8)"/><circle class="d" cx="96.32" cy="105.82" r="2.2" transform="translate(-3.28 3.08) rotate(-1.8)"/><circle cx="96.32" cy="105.82" r="0.7" transform="translate(-3.28 3.08) rotate(-1.8)"/><circle class="d" cx="99.5" cy="100.89" r="2.2" transform="translate(-3.12 3.18) rotate(-1.8)"/><circle cx="99.5" cy="100.89" r="0.7" transform="translate(-3.12 3.18) rotate(-1.8)"/><circle class="d" cx="102.67" cy="95.95" r="2.2" transform="translate(-2.96 3.27) rotate(-1.8)"/><circle cx="102.67" cy="95.95" r="0.7" transform="translate(-2.96 3.27) rotate(-1.8)"/><circle class="d" cx="105.85" cy="91.02" r="2.2" transform="translate(-2.81 3.37) rotate(-1.8)"/><circle cx="105.85" cy="91.02" r="0.7" transform="translate(-2.81 3.37) rotate(-1.8)"/><circle class="d" cx="109.02" cy="86.08" r="2.2" transform="matrix(1, -0.03, 0.03, 1, -2.65, 3.47)"/><circle cx="109.02" cy="86.08" r="0.7" transform="matrix(1, -0.03, 0.03, 1, -2.65, 3.47)"/><circle class="d" cx="112.21" cy="81.15" r="2.2" transform="translate(-2.49 3.56) rotate(-1.8)"/><circle cx="112.21" cy="81.15" r="0.7" transform="translate(-2.49 3.56) rotate(-1.8)"/><circle class="d" cx="115.38" cy="76.21" r="2.2" transform="translate(-2.34 3.66) rotate(-1.8)"/><circle cx="115.38" cy="76.21" r="0.7" transform="translate(-2.34 3.66) rotate(-1.8)"/><circle class="d" cx="118.56" cy="71.28" r="2.2" transform="translate(-2.18 3.76) rotate(-1.8)"/><circle cx="118.56" cy="71.28" r="0.7" transform="translate(-2.18 3.76) rotate(-1.8)"/><circle class="d" cx="121.74" cy="66.34" r="2.2" transform="translate(-2.02 3.86) rotate(-1.8)"/><circle cx="121.74" cy="66.34" r="0.7" transform="translate(-2.02 3.86) rotate(-1.8)"/><text class="f" transform="translate(10.28 34.3) scale(0.56 1)">J</text><text class="f" transform="translate(159.74 211.54) rotate(180) scale(0.56 1)">J</text><path class="c" d="M22.56,48.6c0,4.71-5.91,8.14-7.64,11.87-1.75-3.72-7.66-7.12-7.7-11.83a3.92,3.92,0,0,1,3.82-4,3.93,3.93,0,0,1,3.85,4,3.92,3.92,0,0,1,3.82-4A3.93,3.93,0,0,1,22.56,48.6Z"/><path class="c" d="M147.45,197.24c0-4.71,5.91-8.14,7.64-11.87,1.75,3.72,7.66,7.12,7.7,11.83a3.84,3.84,0,1,1-7.67,0,3.84,3.84,0,1,1-7.67,0Z"/><path class="g" d="M108.55,219.9l-1.46-.78a26.09,26.09,0,0,1-8.42,4.44,54.7,54.7,0,0,1-12,1.83c-6.93.36-13.93-2.2-20.44-4.29l-1.77,8.38c4.68,2.31,9.18,4.81,13.63,7.55,4,.87,8.71-.37,12.72-.8a72.74,72.74,0,0,1,12.55-.21c3.61-3,7.18-6,10.95-8.85l-2.8-2.25-2.93-5"/><path class="g" d="M73.74,188l5.61-2.33v-.3c-1.36.31-2.67.81-4,1.23.76-2.73,2.08-5.71,2.27-8.54q.43-6.65.87-13.29a184.54,184.54,0,0,0,.17-19.44l-1.7-.29-3.18,2.14-9.42,15c-1.37,2.17-1.3,4.93-1.51,7.39a61.58,61.58,0,0,1-1.33,8.49l-.59.78,0,.15a36.06,36.06,0,0,0-3.12,4A20.5,20.5,0,0,1,54,186.18l-1.24.44,0,0a14,14,0,0,0,5.94,6.17A62.16,62.16,0,0,0,67.56,196l2.27-4.42L73.74,188"/><polyline class="g" points="107.89 153.12 107.9 148.42 99.36 148.4 106.93 151.96 107.89 153.12"/><path class="g" d="M119.72,186.35l-3.92-1.22-3.57-2.94.09-.18c-7.8-9.92-12.5-21.33-15.73-33.44l.12-.17h-.48a62.56,62.56,0,0,0-9.82-6.35v.27l.06,0c.9,11.16,1.76,22,4.33,32.88h.11a89.85,89.85,0,0,0,3.8,10.06c1.6,1.44,3.16,2.92,4.8,4.32l.06.16,0,0c.13.48.28.94.45,1.41l2,.27.27-2.6,1.27-1.44,2.58-.18,1.49,1.28,1,2.58-.76,2.43,3.93,1,.17-1.09,1.62-1.51,1.67.25,1.29,2c3.57-1.07,7-2.49,10.58-3.5l.13-.61c-2.5-1.32-4.94-2.58-7.55-3.75l0,0"/><path class="h" d="M57.45,183.44l4.07-5.36a89.9,89.9,0,0,0,1.67-12.41l-.69-1.57c-4.24,6.67-9.7,13.32-11.79,21l1.54,1.71,1.73-.61,3.46-2.74"/><path class="i" d="M99.6,189.79a25.64,25.64,0,0,0-6.52-4.92c-3.06-.33-6.3-1.28-9.36-.52a70.78,70.78,0,0,0-10,3.69l-3.91,3.54-2.55,5,4.2,1L76.93,192l8-3.13,7.7.56,5.19,3.86,2.23-1.91-.39-1.5-.06-.06"/><path class="h" d="M78.74,160.83q-.48,7.35-1,14.7c-.26,3.87-1.39,7.36-2.43,11.11,3.34-1.06,6.71-1.9,10.11-2.74,3,.38,5.94.87,8.93,1a60.74,60.74,0,0,1-3.58-9.73c-.9-3.8-1.62-7.58-2.31-11.43-1.25-7-1.44-14.26-2-21.38l-3.26-1.72-4.66,2.61c.25,5.86.18,11.73.18,17.59"/><path class="g" d="M127.42,189.66l.87.11a4.48,4.48,0,0,0,2.28-1.4l.7-1.95a39.27,39.27,0,0,0-4,3.19l.11,0"/><path class="g" d="M93.19,132.07v6.29h8.43l-.11-.12q3.5-9.87,7-19.75c2.2-6.21,3.39-13,5.07-19.34l-3-2.53a38.78,38.78,0,0,0-3.86-.65c-4,6.19-8.18,12.26-12.23,18.46l-.31,5.4H94l-.39,12.37-.4-.14"/><path class="i" d="M124.46,105.87l-3-.92a18.24,18.24,0,0,0-2.56-3.87A17.9,17.9,0,0,0,114,99.46l-.3-.3c-1.71,6.39-3,13.11-5.2,19.36q-3.5,9.87-7,19.75l7.78,8.5a23.7,23.7,0,0,0,6.08-6.67,92.36,92.36,0,0,0,5.46-9.18c3.15-6.83,6.12-13.54,8.06-20.82-.85-1.95-2.77-3.06-4.42-4.23"/><path class="i" d="M124.16,78.64l5.11,2.61A34,34,0,0,1,135,76.83l4.32-1c-4.31-3.75-8.55-7.58-13-11.14-2.39,3.8-4.72,7.64-7.13,11.43,1.69.85,3.38,1.65,5,2.56"/><path class="i" d="M98.62,156.15c3.64,9.24,7.52,18,13.71,25.86a121.83,121.83,0,0,1,5.58-10.85c2.67-4.21,5.41-8.36,8-12.64l-1.7-1.59-8.22,5.86-9-10.84-9.58-4.49-.77,1.1,2,7.59"/><path class="h" d="M111.33,96.81,114,99.46l4,.71a22.61,22.61,0,0,1,3.4,4.77,13.67,13.67,0,0,1,7.26,4.64c2.33-8,3.51-16.2,5-24.36-1.21-2.45-4.66-3.89-6.92-5.14-2.54-1.41-5-2.72-7.71-3.88-3.73,6.72-8.46,12.85-12.27,19.55l4.54,1.07"/><path class="i" d="M133.24,156.67l2.56-.49a39.18,39.18,0,0,0,7.85-14l-4.28-2.51a27.46,27.46,0,0,0-5.93.91l1.76,3.88-4.28.06,1.24,3.58-3.7-.35-.43,1.34.32,2.58-1.49-1.16c2,2.07,3.93,4.12,6,6l.33.13"/><path class="g" d="M159.44,102.52h0l.11-1.1-2.73-5-.78.16c.41,2.06.78,4.14,1.23,6.2h0l.42,2.72h.31a22.55,22.55,0,0,0,.2,3.37h-.21c-.14,5.34.33,10.82.35,16.18a48.59,48.59,0,0,1-2.39,14.13h.06a39.92,39.92,0,0,1-6.66,13.85v.22h-.17l-2.63,3.53.07.11a88.26,88.26,0,0,1-7.23,7.16v.58l.92-.07,7.72,2.45-.07.08h3.41v.17l1-.21a101.26,101.26,0,0,0,6.74-11.94l-.08-1.52h.46l0-28h-.12l.06-23.18"/><path class="i" d="M140.24,164.62l-1.54.11c-3.39,3.49-7,6.8-10.42,10.26-3.27,3.27-5.88,7.55-8.53,11.32l7.5,3.34a105.44,105.44,0,0,0,11.58-10.45c1.75-1.92,3.06-4.43,4.52-6.58,1.34-2,3.08-3.73,4.6-5.56l-7.71-2.44"/><path class="h" d="M117.25,172.17q-2.51,5-5,10l3.57,2.94,3.92,1.22a119.33,119.33,0,0,1,13.18-16c4.51-4.5,9.34-8.68,13.65-13.42l-.07-.11c3.94-5.28,7.94-11.05,9.45-17.61h-.06a48.54,48.54,0,0,0,2.39-14.13c0-5.42-.07-10.77-.42-16.18h.28c-.87-5.75-1.09-12.6-4.64-17.42a72.39,72.39,0,0,0-14-14.86,63.91,63.91,0,0,0,3.57,7.87A67.75,67.75,0,0,1,146,92.81a82,82,0,0,1,3.46,15.94h-.38c-.63,8.47-.66,17-3,25.15-2.26,8-4.58,15.93-10.3,22.28l-2.73.52c-3.15-2.84-6.1-5.87-9.09-8.86l-.45.52.19,6.62,2.24,3.35c-2.77,4.68-5.78,9.24-8.7,13.84"/><path class="h" d="M128,149.09l.43-1.34,3.7.35-1.24-3.58,4.28-.06-1.76-3.88,3.94-.92L135,137.71c-2.48-.4-4.91-.83-7.35-1.42a65.79,65.79,0,0,1-6,7.64,24.24,24.24,0,0,0,6.64,7.74l-.31-2.58"/><path class="h" d="M93.6,132.22,94.13,115c-3.11,4.62-6,9.38-9.07,14,2.85,1,5.69,2.1,8.54,3.15"/><path d="M114.84,227.67c0-.65,0-.71-.49-1.06a16.91,16.91,0,0,1-5.91-7.51,38.28,38.28,0,0,1-1.09-4.74c-.4-1.55-1.33-3.33-1.1-5a5.19,5.19,0,0,1,1.94-2.63c.43-.29,1.14-.47,1.61-.71,1.76-.91,1.28-3.13.87-4.62a8.89,8.89,0,0,0,3.17-1.14c.82-.49.89-1.59,1.29-2.37a14.45,14.45,0,0,1,1.89-3.08,4.9,4.9,0,0,1,2.39-1.1,26.61,26.61,0,0,0,3.32-1.33c2.23-1,4.59-1.5,6.84-2.43a3.86,3.86,0,0,0,2-1.68,12.87,12.87,0,0,1,1.5-2.79c.85-.91,1.92-1.64,2.82-2.51a36,36,0,0,0,2.92-3.1c1.74-2.14,3-4.63,4.68-6.82.78-1,1.58-2,2.44-3a7,7,0,0,1,2.76-2.3,18.77,18.77,0,0,1,3.34-.29c1-.12,1.64-1.42,2.11-2.2.79-1.33,1.53-2.66,2.25-4,1.25-2.39,3.36-4.95,3.37-7.75q0-19.64.07-39.29c0-3.23,0-6.46,0-9.69a27.27,27.27,0,0,0,0-3.36c-.15-1.43-.89-2.2-1.67-3.33-1.66-2.39-3-5-4.71-7.33A82.31,82.31,0,0,0,148,83.79a105.63,105.63,0,0,0-10.07-9.67c-1.95-1.65-3.87-3.34-5.84-5a39.53,39.53,0,0,0-5.79-4.48,3.86,3.86,0,0,1-.23.75,9.27,9.27,0,0,1,2.5,2.35,2.75,2.75,0,0,1,0,1.76c-.17,1-.35,2.1-.52,3.14a44.38,44.38,0,0,1-1.54,6.6A11.1,11.1,0,0,1,124,78.08c-.83-.45-1.86-1-1.72-2.09a51.67,51.67,0,0,0,.75-5.9,12.31,12.31,0,0,0-2.32,3.35c-.84,1.44-1.78,2.85-2.68,4.27s-1.85,3-2.86,4.48c-.78,1.14-1.85,2.31-2.07,3.72,1.42-.1,3,.75,4.22,1.33A41.94,41.94,0,0,1,122,89.73a55.77,55.77,0,0,1,8.2,6.15c.93.85.86,1.71.67,2.87a36,36,0,0,0-1,5.25c-1.22-.35-1.65.11-1.73,1.24-1.31-.27-2.34-1.49-3.71-1.74.13-.64,1.71-1.86,1.49-2.47-.09-.23-.91-.4-1.12-.48a16.25,16.25,0,0,1-1.8-1c-.91-.54-1.26.21-1.29,1-1.45-.82-2.7-1.94-4.2-2.73.61-.62,1.25-1.13,1.25-2,0-.48-1.34-.49-1.64-.55-.92-.18-1.4-1.36-2.42-1.37-.42,0-.47.27-.43.61a4.71,4.71,0,0,1-.22,1.61,16.8,16.8,0,0,0-4.95-2.24c.54-.83,1.21-1.79.5-2.72a10.91,10.91,0,0,0-1.92,2.83c-.7,1.18-1.46,2.32-2.18,3.47a74.61,74.61,0,0,0-4.33,7c1.26-.83,2-2.62,2.78-3.86.47-.73,1-1.43,1.41-2.2a4.67,4.67,0,0,1,1.35-1.74c.78-.51,2.26-.19,3.09.11s2.33.91,2.77,1.76.07,2.27-.12,3.22c-.35,1.69-.75,3.37-1.17,5-.83,3.44-1.76,6.87-2.81,10.24s-2.21,6.76-3.37,10.11q-.88,2.52-1.84,5a46,46,0,0,0-1.88,4.44,11,11,0,0,1-2.47-1.42c-1-.62-1.9-1.26-2.84-1.9s-1.84-1.26-1.85-2.44c0-1.47,0-2.95,0-4.42s.22-2.9.24-4.36a13.3,13.3,0,0,1,.22-2.17c.13-.7,0-1.4.09-2.11s.12-1.46.2-2.19a7.92,7.92,0,0,0,.27-2,5,5,0,0,0-1.15,1.54,7.57,7.57,0,0,0-.35,3.27c0,1.46-.21,2.9-.27,4.35-.11,2.79-.24,5.59-.25,8.39-1.68-.22-1.38-3.49-1.32-4.62.13-2.83.35-5.67.36-8.49a11.07,11.07,0,0,0-1.72,2.33c-.7,1-1.4,2.08-2.09,3.13-1.39,2.09-2.73,4.21-4.13,6.28q-4.23,6.34-8.29,12.79c-2.71,4.3-5.37,8.63-8.06,13q-2,3.16-4,6.29c-.45.7-2.35,2.59-1.87,3.48.59,1.12.22,2.37.12,3.54,0,.31-.19,2.85-.61,2.84-.12,0-.4.07-.45-.06-.4-1-1.33-1.84-1.45-2.91-1.4,1.19,0,2.59.68,3.71a6.61,6.61,0,0,1,.53,5.2,12.33,12.33,0,0,1-1.75-3A8.27,8.27,0,0,1,58,171.38a5.39,5.39,0,0,0-1.48,2.23c.73.11,2.47,1.55,1.65,2.34-.61.58-.8.75-1.66.44a13.41,13.41,0,0,1-1.48-.79A6.28,6.28,0,0,1,54,177.46c-.46.62-.83,1.31-1.23,2a24,24,0,0,0-2.35,4,1.62,1.62,0,0,0,0,1.47c.58,1.63,2,2.83,3.22,4,.63.63,1.17,1.35,1.77,2a11.42,11.42,0,0,1,1.93,2.22,8.94,8.94,0,0,1-2-.3,8.1,8.1,0,0,0-2.23-.46,12.85,12.85,0,0,0,3.19,3.11c.27.19.94-.11,1.21-.18a3,3,0,0,1,1.79-.21c.6.27.63,1.22.81,1.76a10.38,10.38,0,0,0,1.16,2.46c-1.48,0-2.31-1.42-3.71-1.49.64,1,.93,2.25,1.92,3a14.59,14.59,0,0,1,3,2.71C61.6,203.09,61,202.27,60,202a11.28,11.28,0,0,0-3.27-.18c.08.59.75.86,1.24,1.06a4.19,4.19,0,0,1,2,1.43,2.79,2.79,0,0,0-2.47.25,5.45,5.45,0,0,0,.93.62c.48.35.91.73,1.35,1.12a2.19,2.19,0,0,0,2.41.5c-.1.59-.87,1.48-1.52,1.34s-2-.55-2.19.39a5.82,5.82,0,0,1,1.85,1.08c1,.67,2.07.16,3.06.61s1.94,1.27,3.25,1.29a6.5,6.5,0,0,0-1,3,6.37,6.37,0,0,0,1.11,3.06c.37.7-.1,1.54-.45,2.15a8,8,0,0,0-1,2.5c-.2,1.06-.43,2.11-.68,3.16a19.77,19.77,0,0,0-.77,2.89c-.09.91-.14,1,.49,1.67a3,3,0,0,0,1.26.53,12.41,12.41,0,0,1,1.72.81c1.28.63,2.53,1.33,3.77,2s2.58,1.52,3.88,2.29c1.09.64,2.37,1.76,3.67,1.86,4.11.3,8.18-.49,12.25-.91a56.55,56.55,0,0,1,6.33-.53c1,0,1.91,0,2.87.07s2.12.25,3.19.26c.84,0,1.59-1,2.14-1.54,1-.9,2-1.75,3-2.6a31.41,31.41,0,0,1,6.42-4.48m-49.47-.34c2.54.39,5,1.95,7.28,3.11,1.28.65,2.52,1.37,3.74,2.13s2.06,1.65,3.22,2.26,2.59-.2,3.76-.48c1.52-.37,3.07-.67,4.62-.9a86.36,86.36,0,0,1,8.9-.8c1.39-.06,2.75.24,4.12.2s2.26-1.27,3.15-2.16a31.16,31.16,0,0,1,3.23-2.57,9.58,9.58,0,0,1,3.65-2.21c.75-.16,1,.07,1.72.41.48.23,1,.48.74,1-.33.81-1.84,1.43-2.51,1.92-1,.75-2.07,1.51-3.08,2.31A32.48,32.48,0,0,0,105,234.1c-.8.79-1.52,1.75-2.78,1.54a42.26,42.26,0,0,0-11.23,0c-1.8.2-3.56.58-5.35.85-1,.15-1.94.24-2.9.41a12.19,12.19,0,0,1-2.8.35,6.38,6.38,0,0,1-3.22-1.43c-1.17-.78-2.35-1.57-3.57-2.27-2.45-1.41-5.06-2.58-7.56-3.91-.81-.47-.53-1.64-.19-2.34m15.07,6.21c-1.09-.56-3.5-1.62-3.8-3a5.66,5.66,0,0,1,.43-2.3,10.72,10.72,0,0,1,1-2.55c.42-.74,1.7-.39,2.35-.25a26.71,26.71,0,0,0,3.87.5,46.14,46.14,0,0,0,9.34-.5,28.66,28.66,0,0,0,7-1.95,31.21,31.21,0,0,0,3.4-1.7c.92-.54,1.91-1.49,3-1.68,1.31-.24,2.72,2.32,2.94,3.38.11.54.2.9-.32,1.28a40.36,40.36,0,0,0-5.18,4.07c-1.08,1.12-2.42,2.72-4.17,2.42a19.26,19.26,0,0,0-4.95-.1c-1.69.16-3.39.22-5.09.37-3.34.26-6.4,1.87-9.75,2m-5.19-3.47a19.63,19.63,0,0,1,1.25-4.95c.74.82-.2,2.92-.45,3.84-.17.6-.08,1.2-.8,1.11M74,229.34a17.28,17.28,0,0,1,1-4.45c.52.57.08,1.58-.07,2.23s-.21,1.77-.93,2.23m-1.24-1a9.79,9.79,0,0,1,1-4c.43.55,0,1.41-.19,2s-.23,1.53-.81,2m-1.48-.5a5.83,5.83,0,0,1,.25-1.24.86.86,0,0,1-.25,1.24m-1.23-.74v-.74a.55.55,0,0,1,0,.74m-1.48-.49a7.45,7.45,0,0,1,1-3.71c.35.54,0,1.31-.17,1.85a3.41,3.41,0,0,1-.83,1.86m3.22-.49a5.23,5.23,0,0,1,.49-2.23c.49.51,0,1.85-.49,2.23m-4.45-.49a7.67,7.67,0,0,1,.75-3.22,3.79,3.79,0,0,1-.75,3.22m3.22-.25a10.22,10.22,0,0,1,.25-2c.45.47.16,1.56-.25,2M80.75,195a5.88,5.88,0,0,1-1.42,1.55c-.65.58-1.2,1.28-1.81,1.9A20.46,20.46,0,0,0,80,196.5a19,19,0,0,1,2.85-1.81,12.2,12.2,0,0,1,6.2-1.45c2,0,4.28.35,5.59,2.07s3,3.49,4.5,5.27a20.08,20.08,0,0,1,2.88,5.77c.78,2.06.85,4.43,1.86,6.38s2.06,3.8,2.16,6c0,.27-.6,1-.8,1.24a9.82,9.82,0,0,1-2.36,1.47,27.8,27.8,0,0,1-3.12,1.44,29.47,29.47,0,0,1-6.62,1.7c-2.08.3-4.16.28-6.24.38-1.57.08-3.59.29-4.92-.75-2.86-2.24-2.55-5.91-3.14-9.13a6.05,6.05,0,0,0-1.18-2.12,6.58,6.58,0,0,1-1-2.69,11,11,0,0,0-.27-2.79c-.27-.67-1.23-1.68-1.21-2.4a13.57,13.57,0,0,0,.06-2.76,7.28,7.28,0,0,1-.31-2.39c.19-1.09,1.35-2,2.06-2.8A7.48,7.48,0,0,1,80.75,195m-5,19.29c0,.22,0,1.28-.41,1.23-.91-.11-.91-.09-1.27-.94a3.25,3.25,0,0,1,.31-1.44c.35-.54,1.08-.26,1.6-.21s.91,0,1.29.47a5.12,5.12,0,0,1,.86,1.6c.59,1.63.22,3.49.65,5.18a16.52,16.52,0,0,0,.9,2.63c.14.31.7,1,.5,1.4-.37.63-2.39-.21-2.76-.48a5,5,0,0,1-1.86-2.75,8.41,8.41,0,0,1,.08-3.94c.28-.85,1.23-2.1.1-2.74M75,223.15c-.87-.57-1.16-1.88-1.41-2.82a11.87,11.87,0,0,1-.32-3.13c.74,0,1.24-.24,1.24.57a15.73,15.73,0,0,0,0,2.27c.13.86,1,2.3.45,3.11m-1.48-.49c-1.29-1-1.41-3.66-1.47-5.2-.49,1-.25,2.42-.26,3.46a2.43,2.43,0,0,1-.7-2.13,2.64,2.64,0,0,1,.45-1.29.56.56,0,0,1,1,0c.48.77.3,1.78.48,2.63s.85,1.66.53,2.47m19.06-3.19c-1.39-.29-2.91,1-4.24,1.23a10.2,10.2,0,0,1-5.15.13c-.91-.3-1.59-1.06-2.49-1.38a4,4,0,0,0,2.41,2c2.16.74,4.64.21,6.8-.3.73-.17,2.49-.88,2.66-1.72m-23.26,1.2a13,13,0,0,1-.25-2.47c-.5.78-.33,1.68-.74,2.47-.6-.43-.29-1.38-.09-1.95.35-1.06,1-1.12,2-.76.52.19.46.51.51,1,0,.22.15,1.06,0,1.18-.44.4-.53-.36-.56-.57a7.59,7.59,0,0,1-.17-1.16c-.33.66-.11,1.74-.75,2.22m20.79-5.4a6.39,6.39,0,0,0-1.73-.4,8.7,8.7,0,0,0-2.32-.31,7.68,7.68,0,0,0-1.95.35,17.36,17.36,0,0,1-1.92.84,16.84,16.84,0,0,1,.25-2.23c-.92.2-1.57,2.72-1.11,3.41a3.25,3.25,0,0,0,1.44.88c.7.34,1.35.75,2.08,1a4.31,4.31,0,0,0,3.89,0,1.91,1.91,0,0,0,.86-1.41c.11-.73.38-1.42.5-2.14m15.08,1.26c-1,.21-1.64,1.41-2.76,1.54-.6.08-2.78-.16-2.94.67,1.57.24,5.63.07,5.7-2.22m-21.77.7a13.36,13.36,0,0,0,2.67.66,10.36,10.36,0,0,0,2.77-.41c0,1.16-1.42,1.56-2.38,1.39-1.23-.22-2.39-.47-3.07-1.64M99,218a9.89,9.89,0,0,1-1-2.72c.57.83,1.61,1.74,2.7,1.4s2.5-.92,2.49-2.38c-.73.46-1.07,1.09-1.92,1.41-.63.23-1.89.7-2-.42a9.27,9.27,0,0,0,1.48-.08,3.89,3.89,0,0,0,2.31-2.07c.21-.51,0-.94-.57-.82.48-.82-.49-1.6-1.24-1.73.32.5.64,1,1,1.48-.87,0-1.85.28-2.71.23a.93.93,0,0,1-.94-.58c-.14-.24.09-.45-.31-.39-.14,0-.4.39-.49.49a27.63,27.63,0,0,1-.48-4.42c0-1.48-.68-2.84-2.29-3a2.79,2.79,0,0,0-1.76.47c-.72.46-1.57.35-2.27.78-.18.11-.7.3-.7.52v1.55a.89.89,0,0,0,1.33.83c-.23-.28-.58-.46-.74-.79a6.8,6.8,0,0,1-.25-1.43c.58.12,1.7.7,2.27.32s1.38-1.4,2.09-1.54c1.77-.37,1.72,2.9,1.82,4,.16,1.67,0,3.36.16,5,.15,1.15.43,3.86,2.07,3.86m-12.62-.51c.06-.49.56-.66,1-.74.15.65-.53.68-1,.74m20.29-.21c-.35-.64-.49-1.37-.83-2a8.68,8.68,0,0,1-.93-2.53c-.2-1.21-1-3.64.54-4.36a14.07,14.07,0,0,0,.14,2.74,24,24,0,0,0,.76,2.3c.33,1,1.11,2.87.32,3.88M69.34,212a7.93,7.93,0,0,0,.09,2.51,5.24,5.24,0,0,1,.64,2.44,2.62,2.62,0,0,1-1.93-2.47c-.07-.93-.06-2.47,1.2-2.48m-2,.74a7.68,7.68,0,0,0,.13,2,5.42,5.42,0,0,1,.61,2.2c-1,0-1.61-.85-1.78-1.8s.06-2.2,1-2.41m17.8,3.74a1.37,1.37,0,0,1,1.41-1.28c.77,0,1.54,0,1.56,1a4.16,4.16,0,0,0-1.39-.17c-.53.11-1,.33-1.58.42m-1.24,0c-.25-.48.07-.81.49-1a1.19,1.19,0,0,1-.49,1m-11.37-4.23v1.48a3,3,0,0,1,1-1,12,12,0,0,1-.16,1.78,4.15,4.15,0,0,0,.4,1.68c-1.8.94-3.22-3.58-1.23-4m-1.48,3.95c-.75-1-1.64-4.11.26-4.45a11.18,11.18,0,0,0-.45,2.65c.06.56.59,1.26.19,1.8m29.44-1.43c0-.51.29-.69.74-.74.1.54-.2.84-.74.74m-12.12-.52c-.11-.47-.21-.88-.74-1a1.87,1.87,0,0,0,.74,1m11.13-.48c.28-.81,2.24-1.7,2.47-.49a3.54,3.54,0,0,0-1.29,0c-.41.17-.79.35-1.19.53m-34.14-3.28c0-.34.28-.52.49-.74a.93.93,0,0,1-.74-.74h1c-.26-.27-.85-.74-.18-.74h5.18c2.22,0,4.66.83,4.65,3.47-1.65,0-2.81-1.62-4.47-1.66-2,0-3.89.89-5.92.41M60,208.77c.77,0,1.43.49,2.23.25-.31.91-1.88.4-2.23-.25m43.54.33a19.46,19.46,0,0,1-.64-2.59,4.7,4.7,0,0,1,.78-2.35,6.43,6.43,0,0,1,4.08-2.72c-1.78-1-3.45,1.69-4.95,2.22,0-1.62,1.24-2.27,2.45-3a4.46,4.46,0,0,1,2-.2,3.34,3.34,0,0,1,1.93.66c.51.59-.18,1.42-.69,1.73a6.53,6.53,0,0,1-2.08.43,4,4,0,0,0-2.88,2.62c.5-.31.87-.72,1.36-1a5.46,5.46,0,0,1,2.52-.46,24.37,24.37,0,0,0,2.81-.72,2.21,2.21,0,0,1-.79,1.87c-.26.19-.66.63-1,.7-1.23.26-2.64.44-3.56,1.38-.47.48-.6,1.62-1.36,1.48m-39.34-4.52a13.7,13.7,0,0,0,2,.74c-1.27-1-2.09-2.6-3.4-3.49-.94-.64-2.41-.62-3-1.71,1.6.35,3.18.42,4.33,1.74a12.45,12.45,0,0,0,1.92,1.9,5.84,5.84,0,0,0,3.17.78A16,16,0,0,1,73,205a3.67,3.67,0,0,1,2.51,3.59c-1.39,0-2.68-1.15-4-1.5-1.62-.44-3.39-.31-5.07-.62-.79-.14-2.19-.94-2.3-1.84m.49,2c.73-.15,1.79.5,2.47.74-.71.67-2.07-.06-2.47-.74m-4.95-1.25a8.45,8.45,0,0,0,1.48.25,10.8,10.8,0,0,0,1.48-.25c-.61,1.17-2.61,1.62-3,0m1.48-.73a2.18,2.18,0,0,1-.74-1.24c.4.22,1,.73.74,1.24M60,193.93a4.67,4.67,0,0,1,2.15,2.32,4.9,4.9,0,0,0,2.65,2.19,11.65,11.65,0,0,0,3.25.47,14.45,14.45,0,0,1,3.82.75,5.64,5.64,0,0,1-1.24-1.24,3.6,3.6,0,0,1,3.16,2.11,3.54,3.54,0,0,1,.52,1.76c-.07.68-.23,1.39-.24,2.07a2.25,2.25,0,0,1-1.84-.87,9,9,0,0,0-1.74-1.73,8.22,8.22,0,0,0-3.14-1.28l-1.56-.31c-.69-.14-1.42,0-2.11-.18-1-.26-1.41-.85-2.08-1.65a5.33,5.33,0,0,1-.8-2,24.32,24.32,0,0,1-.8-2.44m35.37,8a2.61,2.61,0,0,0,1,.25c-.12-.89-.61-1.1-1.42-.92-2.1.48-4.33,1.4-6.5,1.4a5,5,0,0,0,.3,1c.18.48.11.47.59.42.32,0,.71-.22,1-.29a7.49,7.49,0,0,1,1.48.1,7.56,7.56,0,0,0,1.8-.42c.84-.24,1.68-.46,1.71-1.5m-29.44.19c.44.11,3.81.68,3.22,1.48-.3.4-1.42,0-1.73-.09-.61-.21-1.4-.68-1.48-1.4m24.49,1a4.07,4.07,0,0,1,1.92-.61,19.4,19.4,0,0,1,2.78-.61c-.33,1-1.14,1-2,1.15a4.72,4.72,0,0,1-1.39.23,4.79,4.79,0,0,0-1.3-.15m10.89-.23c-1.51-2.28-3.69-5.22-3.19-8.12A2.68,2.68,0,0,1,99.81,193c-.17.59-.5,1.13-.62,1.73a11.17,11.17,0,0,0-.12,2.23c.27-.53.5-1.07.79-1.6s.41-1.14.84-1.48c1.16-.92,2.41-.66,3.81-.61-.55.69-1.63.79-2.37,1.23s-1.56.87-1.84,1.73a33.92,33.92,0,0,1,4.08-1.9c1.12-.35,2.63-1,2.86-2.3-.65.33-1.29.76-1.95,1s-1.15-.43-1.76-.56a10.62,10.62,0,0,1,1.89-1c1-.59.81-1.08.56-2.09-.11-.45-.23-.53-.62-.76s-.53-.1-1,.12c-.24.11-1,.3-1.07.55a3.12,3.12,0,0,0-.24,1.17c-.93-.68-.27-2.29.74-2.46s2.84-.64,3.45.52c.45.85,1.43,2.44.83,3.46a15.35,15.35,0,0,1-2.31,2.93c1.21-.18,2.42-.84,3.66-.68a3.88,3.88,0,0,1,1.93.59c.52.4.84,1.09,1.58,1.09-.81,1.18-4.08-.15-5.24-.33-1.78-.28-3.93.06-4.92,1.79,1.69-.8,3.29-1.61,5.24-1.12a22.79,22.79,0,0,0,5.9.63c-.75,1.29-2.43,1-3.66.79-1.41-.28-3.44-.88-4.79-.24a10.62,10.62,0,0,0-2.69,1.9c1-.2,1.86-.94,2.92-1.1,1.47-.23,3,.36,4.48.52a7.27,7.27,0,0,0,1.91.07c.37-.06,1-.36,1.33-.21.59.24-.21,1-.49,1.24-1.8,1.15-4.43.08-6.36-.16-1.2-.14-2.11.68-3,1.31s-1.26,1.66-2.25,1.81m-36.62-1.55a1.4,1.4,0,0,1,1-.25.77.77,0,0,1-1,.25m25.24-.2a7.14,7.14,0,0,1,2.23-1,6.33,6.33,0,0,1,2.47.25c-.48-1-1.84-.86-2.72-.67-.44.1-2.71.57-2,1.42M101,199.94a3,3,0,0,0-.25-1.48c-.34.38-.24,1-.25,1.48a4.13,4.13,0,0,0,.49,0m-34.64-.06c.15-.61-.3-.52-.74-.61-1.43-.29-2.24-1.23-3.46-1.87-.09,2.36,2.5,2.47,4.21,2.48m26.24-3.42c0,.23,0,.65-.13.8l-1.22,1c-.67.56-1.12,0-1.87.15.68.89,1.94.3,2.79.07s.67-.3,1-1a.73.73,0,0,0-.54-1m-20,1.45a5.59,5.59,0,0,1,1.55-2.54,17.59,17.59,0,0,1,2.58-2.49,17.87,17.87,0,0,1,9.13-3.24A15.2,15.2,0,0,1,95,191.87a6.74,6.74,0,0,1,2.13,1.9,2.44,2.44,0,0,1,.5,1.19c0,.45-.58.43-1,.53a5.47,5.47,0,0,1,1.24,2c-.94-.13-1.63-1.18-2.24-1.81a7.87,7.87,0,0,0-2.37-2,13.78,13.78,0,0,0-6.32-1A17.35,17.35,0,0,0,75.18,198c-.9.9-1.62.59-2.59-.08m8.66.5c0-.3.08-.59-.25-.74a1.42,1.42,0,0,0,.25.74m-16.33-.77c.54-.45,1.69-.11,2.3,0a24.7,24.7,0,0,0,3.14.52c-.56.53-1.66.09-2.32,0a8.16,8.16,0,0,1-3.12-.51m17.32,0a2.61,2.61,0,0,0,.25-1,.61.61,0,0,0-.25,1m-7.42-1.25a1.58,1.58,0,0,0-1.48,1.24,1.39,1.39,0,0,0,1.48-1.24m8.41,1a4.76,4.76,0,0,0,.25-1.48,1.14,1.14,0,0,0-.25,1.48m-14.84-1.26c.67-4.16,4.61-7.91,8.43-9.27a29.25,29.25,0,0,1,4.72-1.7c1.64-.29,3.25-.62,4.9-.86a8.32,8.32,0,0,1,2.27.17c.77.11,1.54.13,2.31.28a12.67,12.67,0,0,1,4.7,1.94c1.3.89,4.69,3.06,3.36,4.93-.63.89-1.73,0-2.34-.44A31.57,31.57,0,0,0,93.41,189a5.94,5.94,0,0,0-2.31-.6A23.14,23.14,0,0,0,88,188a24.26,24.26,0,0,0-3.29,0,21.93,21.93,0,0,0-3.65.83A18.76,18.76,0,0,0,75.23,192c-1.76,1.37-2.86,3.27-4.51,4.72-.48.42-1.81-.27-2.34-.54m17.07.28a2.23,2.23,0,0,0,.25-1.24,1,1,0,0,0-.25,1.24m-1,0v-.74a1.33,1.33,0,0,0-.49.74,4.13,4.13,0,0,0,.49,0m-21-.78c.52-.39,1.43.08,2,.25-.48.48-1.51.09-2-.25m51.71.34c-.45-.55,0-1.4-.64-1.57a1.67,1.67,0,0,0-.66,0c-.72.09-.7,0-1-.56a1.21,1.21,0,0,1,.23-1.31c.62-.42.7-.37,1.44-.21.43.09.82.29.89.79.11.79.57,2.28-.28,2.85m-28.2,0a3,3,0,0,0,.25-1.24c-.52.25-.62.72-.74,1.24a2.75,2.75,0,0,0,.49,0M77,194.2a1.42,1.42,0,0,0-1.24,1.24A1.26,1.26,0,0,0,77,194.2M53.56,187c1.89-.62,3.28-2.29,4.54-3.73a26,26,0,0,1,2.2-2.46c.57-.5,1.6-1,1.43-1.95a4.16,4.16,0,0,1,1.24.74c.12-.77-.13-1.55-.06-2.33s.06-1.58.06-2.38c.69.44.27,1.41.74,2a16.74,16.74,0,0,0,0-3c0-1.21.24-2.39.24-3.59s0-2.32,0-3.47.25-2.37.26-3.55c.7.86.18,2.82,0,3.79-.25,1.85.19,3.75.19,5.61.7-.89.55-2.19.51-3.25-.06-1.56.24-3.11.24-4.67.52.57.31,1.61.29,2.32a16.56,16.56,0,0,0,.45,3.62,4.28,4.28,0,0,0,.25-2.06c0-1,0-2,0-3.07a28.7,28.7,0,0,1,.73-5.26c.61.67.16,1.94,0,2.72a13.28,13.28,0,0,0,.19,4,3.77,3.77,0,0,0,.51-2.12c0-.85.2-1.69.24-2.54.09-1.74.5-3.48.5-5.23.62.68.35,2.07.28,2.89-.13,1.5,0,3,0,4.53.8-1,.48-2.44.5-3.63,0-1.52.49-3,.49-4.53a2.8,2.8,0,0,1,.36,1.44,19.61,19.61,0,0,0,.38,2,7.44,7.44,0,0,0,.41-2.51,20.65,20.65,0,0,0,.1-2.93c.34.4.35,2.23.74,2.23s.61-4.55.75-5.2a2.51,2.51,0,0,1,.32,1.54c0,.81.2,1.6.17,2.41a6.74,6.74,0,0,0,.36-2.63c.1-1.11.4-2.19.4-3.31.73.69.49,2.33.48,3.22a6.92,6.92,0,0,0,.57-2.61c0-.54,0-1.61.67-1.84v2a6.17,6.17,0,0,0,.74-2.23,2.28,2.28,0,0,1,.49,1,6.08,6.08,0,0,0,.49-2.72,3.39,3.39,0,0,1,.49,1.24,4.21,4.21,0,0,1,.49-.74c.6,1.19.25,2.92.24,4.21,0,1.66,0,3.33,0,5,0,3.38-.11,6.76-.18,10.14,0,1.66-.2,3.32-.3,5a40.51,40.51,0,0,1-.31,4.66,42.21,42.21,0,0,1-2.35,9.61,6.14,6.14,0,0,1-1.84,2.54,17.72,17.72,0,0,0-2.72,2.29,12.5,12.5,0,0,0-2,2.94c-.23.48-.73,2.09-1.22,2.36s-1-.15-1.36-.28c-.68-.27-1.36-.53-2-.78-1.56-.53-3.13-1-4.63-1.69a17.49,17.49,0,0,1-2.17-1,9.76,9.76,0,0,1-1.57-1.43c-.84-.8-2-1.9-2.06-3.19m2,7.18c1.17.37,2.28-.29,3.46-.24-.37.86-3.62,1.61-3.46.24m40.08.07c0-.5-.66-1.56-1.17-1.06s.9,1,1.17,1.06m13.12-1c.17-1,.72-1.87.35-2.88a6.51,6.51,0,0,0-1.87-2.87,3.5,3.5,0,0,0-5.38.91,2,2,0,0,0-.37,1.5c.07.51.17,1.27-.61.84a1.45,1.45,0,0,1-.51-.79,3.87,3.87,0,0,0-.94-1.11c-.78-.78-1.59-1.54-2.41-2.3A16.61,16.61,0,0,1,93.5,182c-1.95-3.64-2.87-8-3.58-12.06-.78-4.45-1.63-8.87-2.11-13.36A128.84,128.84,0,0,1,87,143.32c0-.36,0-.34.4-.31,1.23.07,2.46,1.28,3.42,1.93a35.08,35.08,0,0,1,4.63,3.34,4.46,4.46,0,0,1,1,2.31c.26,1.11.56,2.21.92,3.29q1.16,3.53,2.43,7c.79,2.17,1.88,4.24,2.81,6.34a66.49,66.49,0,0,0,3.32,6.61c2.23,3.86,4.83,7.85,8.32,10.67,1.77,1.43,4,1.92,6,2.8a58.85,58.85,0,0,0,6.46,2.74,4,4,0,0,1-1.89.76,23,23,0,0,0-2.49,1.07c-.89.36-1.82.56-2.71.93s-1.92.91-2.91.47c-.74-.34-1.13-1.37-1.87-1.78a2.08,2.08,0,0,0-2.54.32c-.62.43-.35,2-1.16,1.89a20.3,20.3,0,0,0-2.49-.45m-28.45-1a2.35,2.35,0,0,0-1.48,1c.66.38,2-.07,1.48-1m12.62,0c0-.59-.5-.81-1-1a1,1,0,0,0,1,1m-8.91-1c-.57,0-1.61,0-1.73.74.65,0,1.41-.06,1.73-.74m6.19-.48H88.68a.76.76,0,0,0,1.48,0m-3.22.48a1.34,1.34,0,0,0-1.73-.25,1.37,1.37,0,0,0,1.73.25m18.06-.09c-.68.14-.86-.09-1.11-.68a1.37,1.37,0,0,1,.53-1.25c.66-.28.8.33,1.09.81s-.14.92-.51,1.12m30.47-23.08c-.69-.14-1.35.64-1.75,1.09-.69.75-1.47,1.43-2.2,2.16a58.37,58.37,0,0,0-4.57,4.82c-1.39,1.74-2.91,3.35-4.16,5.21L121,184.13c-.42.64-1,1.48-1.85,1.5.34-2,1.74-3.6,2.88-5.17,1.32-1.81,2.7-3.51,4.18-5.2s3.16-3.44,4.74-5.16a41.89,41.89,0,0,1,4.55-4.72c.65-.52,1.58-1.37,2.5-1.25,0,1.61-2.44,2.28-2.48,3.94.78-.77,1.53-1.57,2.36-2.31a2.69,2.69,0,0,1,2.9-.52c1.09.27,2.14.58,3.21.92a11.67,11.67,0,0,1,2.83,1c.52.33.19.59-.1,1-.66,1-1.66,1.77-2.42,2.68a33.35,33.35,0,0,0-2.37,3.14,70.82,70.82,0,0,1-4.62,6.49,16.88,16.88,0,0,1-2.58,2.79c-.93.7-2,1.31-2.93,2a25.9,25.9,0,0,1-3.51,1.86c-1.23.57-2.72,1.59-4.12,1a15.8,15.8,0,0,1-2.87-1.56c-1-.74.23-2.09.78-2.75,1.08-1.29,2-2.72,3-4.07s2.28-2.9,3.48-4.29,2.47-2.65,3.71-4c.55-.59,1.12-1.18,1.69-1.76s.92-1.19,1.58-1.54m-84.4,16.18a4.27,4.27,0,0,1,2,1.73,2.12,2.12,0,0,1-2-1.73m25.24,1.52c0-1.45.88-3,1.21-4.37a42.26,42.26,0,0,0,.9-5.33c.17-1.76.3-3.51.45-5.27s.1-3.54.3-5.28c.42-3.57.1-7.22.17-10.82,0-1.84.17-3.68.09-5.53s-.32-3.59-.32-5.41c0-.36.06-.27.42-.27a27.09,27.09,0,0,1,.41,3.84,34.69,34.69,0,0,0,0,5c.24,1.64-.16,3.3,0,4.95.14,1.87.18,3.73.18,5.6,0,3.57-.32,7.14-.26,10.7a40.72,40.72,0,0,1,0,5c-.09.83-.21,1.66-.22,2.5a5.69,5.69,0,0,1,0,2.09c-.31.73-.47,1.47-1.21,1.87a5.74,5.74,0,0,1-2,.74m-22.27-.29c-.45-.7-3.2-5.21-1.31-5.2.4,0,1.37,2.37,1.55,2.69.43.77,1.32,2.31-.25,2.5m60.62-2.12a21.9,21.9,0,0,0,2.11-1c.45-.18.59-.31.78.2a3.36,3.36,0,0,1-.16,2.18c-.29.53-.48.34-1,.15s-1.63-.71-1.74-1.48M85.54,142.76c.94.59.46,2.36.49,3.27.1,2,.48,4,.48,5.95a46.56,46.56,0,0,0,.55,5.63c.24,2,.44,4,.86,5.92.81,3.71,1.19,7.43,2.24,11.09.52,1.83,1,3.71,1.64,5.49.34.85.75,1.67,1.15,2.49.28.57.82,1.3.68,2a4.52,4.52,0,0,1-2.75-1.25c-.85-1.29-1-3.07-1.35-4.54-.39-1.7-.75-3.4-1.08-5.12-.64-3.34-1-6.71-1.63-10.05s-.41-6.89-.83-10.3a83.68,83.68,0,0,1-.46-10.56M82.26,184a2.1,2.1,0,0,1-1.7-2.18c.17-1,.3-2.26,1.27-2.88a7.22,7.22,0,0,1,3.13-1c1.06-.16,2.15.63,3,1.14,1.76,1.06,1.61,5.08-1,4.53-.58-.13-.77-.52-1.09-1s-.79-1.07-1.2-.55l-.6.77c-.15.2-.13.48-.31.65a3,3,0,0,1-1.51.51m-26.47,0a8.42,8.42,0,0,1-.4-3.74c.08-.59.21-1.18.31-1.76,0-.2-.06-.79.1-.93.37-.32,1.7.29,2,.42s1.89.66,1.78,1.18a3.89,3.89,0,0,1-.74,1.83c-.77,1-1.84,2.61-3.09,3m62.84-.88c0-.82.1-1.51-.5-2.13-.39-.4-1.49.47-1.93.56-.92.22-.3-1.46-.12-1.86s1.46-1.08,1.94-1.42a4.34,4.34,0,0,1,2.2-1.1c.53,0,.38.14.33.55a8,8,0,0,0-.06,1.38c.08,1.43-.28,3.49-1.85,4m-5.44-.75c0-1.95,1.29-4.13,2.13-5.83,1-2,2.27-3.84,3.29-5.83a54.67,54.67,0,0,1,7.23-10.81,1.82,1.82,0,0,1,.92-.67c.89-.13.84,0,.84.84,0,.71-.86,1.41-1.3,1.87a26.18,26.18,0,0,0-1.89,2.52c-1.52,2.1-2.94,4.27-4.31,6.46s-2.73,4.31-4,6.52c-.57,1-1.07,2-1.57,3.09-.24.51-.54,2-1.34,1.83m-12.81-31.7c.13,0,1-.33,1-.19.19.51.47,1.92,1.13,1.92.2,0,.12-.8.08-1,1.11.64,1.38,2.83,1.72,4a4.56,4.56,0,0,0,0-3c1.46,1,.92,3.34,2.22,4.45a31.33,31.33,0,0,0-.73-4c1.77,1.41,1,4.73,3,5.94a9.17,9.17,0,0,1-.73-3.71,3.57,3.57,0,0,1,1,1.77c.33.9.72,1.77,1,2.69.54-1-.23-2.19-.24-3.22a3.72,3.72,0,0,1,1,1.92c.3.93.62,1.85.92,2.78.38-.75,0-2-.24-2.72a2.73,2.73,0,0,1,1,1.5,12,12,0,0,1,.78,2.21,3,3,0,0,0,0-2,2.34,2.34,0,0,1,.81,1.11,10.43,10.43,0,0,0,.89,1.37c1,1.42-.41,3.46-1.48,4.42s-2.93,2.23-3.21,4a15.31,15.31,0,0,0,2.63-2.37c.2-.18,1.29-.86,1.58-.59s.19,1.43.28,1.89a5.84,5.84,0,0,1,.21,1.48c0,.16-.14.71,0,.84s.49.07.49-.11c0-1.37,0-2.73,0-4.1a4.36,4.36,0,0,1,.74,2.23,7.92,7.92,0,0,0,.5-3.46c.69.74.4,2,1.24,2.72a27.62,27.62,0,0,1-.24-4.7c.53.35.6,1.19.69,1.76a6.63,6.63,0,0,0,0,.89c0,.13.5.08.5.06,0-1.4,0-2.8,0-4.2a4.53,4.53,0,0,1,.6,2.75,7.09,7.09,0,0,1-1.09,3.19c-.61,1.31-1.33,2.56-2.06,3.81a39,39,0,0,0-2,3.8c-.57,1.31-1.08,2.64-1.71,3.92-.27.53-.69.11-1-.25a24.07,24.07,0,0,1-2.92-3.91c-.94-1.51-1.84-3-2.69-4.62a95,95,0,0,1-4.47-9.4,91.14,91.14,0,0,1-3.39-9.81c-.16-.56-1.42-4.37-.5-4.37a2.47,2.47,0,0,1,2,.84,3.47,3.47,0,0,1,.8,1.42M53.81,178.58a2,2,0,0,1,1.24-1.73c-.21.67-.42,1.6-1.24,1.73m27-.2c.54-3.29,7.06-3.71,7.67-.24-1.28-.17-2.36-1-3.71-1s-2.6,1-4,1.24m40.82-.18a10.49,10.49,0,0,0-.25-2.72,4.66,4.66,0,0,1-2.51.89c-.66,0-.37-.49-.26-.92a4.17,4.17,0,0,1,.54-1.45,9.1,9.1,0,0,1,5.2-2.71,21,21,0,0,1-.38,4.09c-.24,1.26-.86,2.79-2.35,2.83m-8.9-2c.24-1,.28-1.95.44-2.93s.49-1.89,0-2.72-1.77,1.46-1.91,1.69c-.44.73-1.06,1.84-.74,2.71a5.83,5.83,0,0,0,1.48-1.73,6.46,6.46,0,0,1,.24,2c0,.46-.14,1,.5.94m-30.18-.94c-.25-.1-1-.23-1.11-.47a3.18,3.18,0,0,1-.43-2.28,8.42,8.42,0,0,1,.31-2.07,2.57,2.57,0,0,1,2.52-1.27,4.52,4.52,0,0,1,2.71,1c.51.32.86,1.92.85,2.54,0,.79-.28,2.07-1.26,2.13s-.91-1.69-2-1.64c-.89,0-.82,1.82-1.62,2.09m43.06-5.47c-1,.14-1.87.76-3,.74a3,3,0,0,1,.5-2,8.61,8.61,0,0,1,2.75-1.52,11.44,11.44,0,0,1,3.18-1.16,12,12,0,0,1-1.2,5.87,5.93,5.93,0,0,1-1.22,1.11c-.18.16-1.12-.07-1.26-.27-.56-.87.39-1.88.21-2.76M81,169a2.85,2.85,0,0,1,2.52-2.26c1.21,0,2.72.65,2.93,2a10.46,10.46,0,0,0-2.75-.5c-1,0-1.76.59-2.7.74m49.49-4.36c-1-.28-2.15.54-3.08.82a1.29,1.29,0,0,1-1.26-.09c-.51-.48-.21-1,0-1.54a3.84,3.84,0,0,1,2.39-1.73,4.18,4.18,0,0,1,3.25-.24c.8.29,1.95.7,2,1.66a5.56,5.56,0,0,1-.79,3.09,4,4,0,0,1-1.13,1.11c-.59.38-.91.14-1.5-.13-.83-.38,0-2.36.1-2.95m9.9-.48c.22-1.16,1.47-1.91,2.3-2.63a31.68,31.68,0,0,0,3.17-3.35,45.68,45.68,0,0,0,5.32-7.36,58,58,0,0,0,6.31-16.21,28.11,28.11,0,0,0,.87-5.19c0-1.6,0-3.21,0-4.81,0-4.83,0-9.66,0-14.49a36.2,36.2,0,0,0-.78-6.35,35.91,35.91,0,0,1-.93-5.95c0-2.15,2,3.17,2,3.17a10,10,0,0,1,.34,3.22c.32,7,.15,14.1,0,21.15,0,2.28,0,4.53,0,6.81S159,136.68,159,139s0,4.73,0,7.1.12,4.44-.06,6.65a19.49,19.49,0,0,1-3,8.23c-.74,1.26-1.55,2.47-2.37,3.69-.52.78-1,2.12-2,2.32-1.91.36-3.92-.45-5.7-1.06a29.81,29.81,0,0,0-5.39-1.74M81.83,166a3.59,3.59,0,0,1-.41-4.22,3.06,3.06,0,0,1,2-.91c.93-.13,1.25.53,1.66,1.19a3.73,3.73,0,0,1,.88,2.2c0,.47-.45,1.73-1.09,1.58s-.8-1.48-1.58-1.27c-.3.08-.54.76-.66,1-.22.38-.45.37-.84.45m38.31.13a5,5,0,0,1-.25-2.36c0-1.11,0-2.23,0-3.34.61.67.42,1.92.57,2.75s.56,2.21-.34,2.94M65.47,164.5v-2a1.86,1.86,0,0,1,0,2m55.67-.15c0-1.07,0-2.15,0-3.22.59.63.79,2.67,0,3.22m17.07-1c-.08-.92,1.67-1.71,2.3-2.18a21.37,21.37,0,0,0,3.12-3.23,53.85,53.85,0,0,0,5.09-7.21,60.08,60.08,0,0,0,6.81-16.54,53.55,53.55,0,0,0,1.22-9.06c.25-3,.1-6,.1-9s-.25-6.1-.4-9.14a29.69,29.69,0,0,0-.34-4.5c-.33-1.56-.67-3.11-1-4.68s-.59-2.95-1-4.39c.91.45,1.09,1.64,1.35,2.51a47.77,47.77,0,0,1,1.13,4.7,69.93,69.93,0,0,1,1.1,9.41c.08,1.54.32,3.07.37,4.61s0,3.35,0,5c0,3.22,0,6.43-.29,9.64a46.08,46.08,0,0,1-1.95,9.16,52.87,52.87,0,0,1-3.23,8.48,45.55,45.55,0,0,1-4.5,7.44c-.86,1.14-1.8,2.21-2.64,3.36a37.46,37.46,0,0,1-2.71,2.9c-1.07,1.16-2.71,3.18-4.54,2.71M137,159.68a4.31,4.31,0,0,1-.16,1.47c-.13.4-.46,1.15-.89,1.3-.75.26-2.57-.6-3.15-1-.19-.15-.84-1-.48-1.14a5.76,5.76,0,0,1,2.16-.41c.84-.07,1.67-.18,2.51-.18m-14.85,2.94c0-1.16,0-2.31,0-3.46a2.51,2.51,0,0,1,.29,1.4c.08.69.14,1.39.2,2.07a4.13,4.13,0,0,1-.49,0m-6.19-1c-.9-1.43-1.9-2.78-2.88-4.15s-2-2.5-2.9-3.82a3.82,3.82,0,0,1-.41-2.66,31.89,31.89,0,0,1,.56-3.74,3.92,3.92,0,0,1,1.22-1.78,26.48,26.48,0,0,0,1.93-2.14c1.28-1.62,2.37-3.38,3.56-5.07.47-.66.68-.44.89.28a10,10,0,0,0,2.21,4.17,29.5,29.5,0,0,1,2.7,4.23,4.79,4.79,0,0,1,.29,2.9c-.28,2.37-2.29,4.42-3.58,6.31a25.57,25.57,0,0,0-1.89,3,6,6,0,0,1-1.7,2.42m7.17-.24c0-1.16,0-2.31,0-3.46a1.65,1.65,0,0,1,.27,1.17c0,.54.22,1,.22,1.59s.14.81-.49.7m15.35-2.94a16.84,16.84,0,0,1-2.23.25c.2-1.06,1.45-1.76,2.36-2.16a13.54,13.54,0,0,1,3.34-1.3c0,1.43.21,3.61-1,4.72-.85.79-1.23,1.07-2.35.67-.69-.25-.26-1.67-.16-2.19m-53.2,2.14a14,14,0,0,0-1.94-.52,10.86,10.86,0,0,0-2,.27c0-1.1,1.3-1.47,2.23-1.48.72,0,2.28.86,1.73,1.74m38.85-.67a13.94,13.94,0,0,0,0-2.23c.55.52.44,1.54.49,2.23h-.49m0-11.13a4.36,4.36,0,0,1,2,1.51c.73.74,1.4,1.54,2.09,2.33,1.16,1.3,2.74,2.27,3.56,3.84-.76.14-2.46.52-3-.25a9.24,9.24,0,0,1-1.7-3,3.13,3.13,0,0,0,.51,2.74c.26.26.7.92,1.06,1,2.28.31,4.58.65,6.76-.29a8.85,8.85,0,0,0,2.64-2.64,26.07,26.07,0,0,0,2.39-3.56,46.25,46.25,0,0,0,3.35-7.7c1-2.95,1.87-5.95,2.61-9a33.37,33.37,0,0,1,1.14-4.15,17.11,17.11,0,0,0,.93-4.51c.18-1.49.53-3,.75-4.46s.25-3.15.48-4.71a29.38,29.38,0,0,0,.19-4.28,24.37,24.37,0,0,0-.26-4.65c-.57-3.06-1-6.12-1.74-9.14A91.07,91.07,0,0,0,145,88.79c-.74-2-1.45-4-2.33-6-.76-1.7-2.13-3.42-2.4-5.29,1.15.38,1.65,1.58,2.2,2.55.78,1.41,1.53,2.81,2.23,4.26A55.62,55.62,0,0,1,148,93.15c.84,3,1.82,5.87,2.43,8.88a44.21,44.21,0,0,1,1,8.84,75.3,75.3,0,0,1-2.44,18.31,127,127,0,0,1-5.57,17.69,35.07,35.07,0,0,1-2.76,5.26,27.73,27.73,0,0,1-3.4,4.68,8.87,8.87,0,0,1-5.77,2.07,7.15,7.15,0,0,1-3.47-.5c-1.29-.63-2.1-2.84-2.63-4.08a15.58,15.58,0,0,1-1.2-5.53m-40.35,7.6c-1,0-2.2,2.71-2.81.85a6.59,6.59,0,0,1,0-2.07c0-.79.7-1.17,1.33-1.36a3.65,3.65,0,0,1,2,.23c.65.16.68,1.33.8,1.83a1.33,1.33,0,0,1-.63,1.73c-.65.33-.73-.83-.73-1.22m-15.09.47v-.74a.54.54,0,0,1,0,.74m60.39-9c-.65-.48-2-.65-1.92.49a11.77,11.77,0,0,0,.92,2.72c-1-.28-3.18-2.42-2.58-3.46A7.63,7.63,0,0,1,127,146c.64-.62,1.26-1.3,1.86-1.95a38.53,38.53,0,0,0,3.45-4.45c.53-.77.91-1.46,2-1.29a4.36,4.36,0,0,1,2.23,1c-1.2.57-2.69.56-4,1,.57,1.32,1.79,2.33,2.22,3.71-1.4,0-2.95-.52-4.28-.15-.68.2,1.16,3.34,1.3,3.85-.89.22-1.8-.15-2.7,0,.56.31,3.19,1.19,3.5.54.65-1.34-1-2.43-1-3.76a17.13,17.13,0,0,1,3.1.32c1.56.27,1.12-1.23.62-2a11.66,11.66,0,0,1-.8-1.41c-.28-.62,0-.71.58-.89a9,9,0,0,1,3-.42,9.12,9.12,0,0,1,3.18,1c1,.48,1.62,1.09,1.47,2.29a16,16,0,0,1-2.1,5.52,41.67,41.67,0,0,1-3.14,5.12c-1.13,1.53-2.27,2.67-4.28,2.06a8.24,8.24,0,0,1-2.12-1.61c-1.43-1.15-1.64-3.1-2.29-4.72-.3-.67-.69-1.69.29-2m-19.57,8.37.25-.25-.25.25m33.41-2.66c-.53.3-1.4,1-2,.38s.27-1.65.61-2.07a8.24,8.24,0,0,1,1.91-1.89,6,6,0,0,1,2.39-1.1c.76,0,.14,4.51,0,5.16s-1,1.64-1.77,1.56-.62-.11-.79-.7-.22-.89-.34-1.34m-35.14,1.43.25-.25-.25.25m-26.71-2c.33-2.14,3.67-1.72,4,.26a11.77,11.77,0,0,1-2.1-.43,7.36,7.36,0,0,0-1.86.17m.25-2.23a3.42,3.42,0,0,1-.13-3.38c.22-.36.88-1.12,1.4-.86s1.43.48,1.7.94a3.05,3.05,0,0,1,.46,1.92c0,.53-.06,1.5-.76,1-.47-.36-.85-1.24-1.47-.74-.47.37-.48,1-1.19,1.16m65.82-3.84c-.53.32-1.65,1.17-2.27.79-.77-.47-.32-1.95,0-2.52a13.36,13.36,0,0,1,2.22-2.21,4.54,4.54,0,0,1,2.24-1.25c.25.9.46,1.81.63,2.72a8.13,8.13,0,0,1-.22,3,5.09,5.09,0,0,1-.52,1.22c-.15.31-1,.32-1.35.39-.85.18-.7-1.58-.77-2.15m-51,.9c-2.15-1.49-4.22-3.09-6.42-4.49a30.09,30.09,0,0,0-3.39-1.91c-1-.47-2.07-1.23-3.21-1.14-1.31.1-2.8,1.38-3.84,2.09s-2.46,2.15-3.91,2.21c.68-1.19,2.09-1.89,3.19-2.62a20.33,20.33,0,0,1,4.46-2.26c1.16-.43,3,.74,3.94,1.26,1.73.9,3.42,1.89,5.07,2.95.69.43,4.74,2.88,4.12,3.92m36.13-9.84c-.42,1.48-6.66,10.41-8.15,8.71-.08-.09-.53-.49-.48-.6a14.66,14.66,0,0,1,2.33-2.69,19.26,19.26,0,0,0,2.14-2.68c.65-1,2.1-3.83,3.72-2.95l.45.22m-48,8.09a5,5,0,0,0-1.52-.46c-.65,0-1.3.18-1.94.2.34-1,1.22-1,2.13-1.21.59-.15,1.73.81,1.34,1.46m32.49-45.47c2.43,0,3.18,2.78,4.25,4.42.55.85,1.82.84,2.7,1.09a6.35,6.35,0,0,1,2.94,1.78,5.18,5.18,0,0,1,1.51,3.1c.2,1.43-.78,3.25-1.21,4.57a36.85,36.85,0,0,1-2,4.95c-.8,1.61-1.39,3.33-2.06,5s-1.52,3.35-2.36,5A85.77,85.77,0,0,1,115,140c-.81,1.21-1.54,2.43-2.45,3.57-.38.48-1.48,2.13-2.27,1.74a10.63,10.63,0,0,1-3-2.44c-1-1.06-2-2.11-2.89-3.21-.46-.53-.21-1,0-1.58a36.91,36.91,0,0,1,1.83-3.85c.62-1.5,1.28-3,1.86-4.51,1.24-3.21,2.3-6.49,3.38-9.76s2-6.57,3-9.89,1.55-6.42,2.45-9.6m12.8,36.4c.25,1-1.12,2.39-1.72,3.09-1,1.18-1.92,2.51-3,3.61-.36.35-1.78,2-2.39,1.39-.81-.85,1.26-2.82,1.75-3.36,1.4-1.51,2.47-3.36,4-4.69.31-.24,1,0,1.34,0M81.5,143.6c-.5-.27-.8-.24-.7-.81a1.39,1.39,0,0,1,.68-.85c.63-.33,2-1.16,2.7-.43.51.54.46,2-.5,1.68-.32-.11-.75-.63-1.08-.6s-.87.77-1.1,1m43.91-20.81c0,2.37.79,4.64,1.12,7a16.24,16.24,0,0,1,.3,3.45,20.24,20.24,0,0,0,0,3.63c.06.63-.54,1.28-.87,1.77a21.91,21.91,0,0,1-1.44,1.87c-.7.83-1.56,2.53-2.8,2.57-.93,0-1.86-1.45-2.17-2.16a8.18,8.18,0,0,1-1-4.76,10.46,10.46,0,0,1,1.5-3.19c.73-1.22,1.35-2.51,2-3.79s1.07-2.49,1.65-3.71c.34-.74.82-2.45,1.74-2.66m25,17.36c-.88,0-1.45.87-2.23,1.14-1,.36-1.76-.14-1.39-1.27a7.34,7.34,0,0,1,3.87-3.82c1.43-.49,2,3.4,1.84,4.32a2.9,2.9,0,0,1-.39,1.18c-.24.44-1.19,1.11-1.53.41a4.36,4.36,0,0,1-.18-2m-7.92,0c0-1-.18-1.89-.2-2.85a14.8,14.8,0,0,0-.29-3.1c-.78,1.59-.5,3.73-.5,5.44-1.15-.37-.68-2.73-.55-3.57.18-1.12.54-3.4-.67-4.11,0,1.3,0,2.59-.08,3.89a7.38,7.38,0,0,1-.43,3.29,2.12,2.12,0,0,1-.29-1.93,20.62,20.62,0,0,0,0-2.82c0-2,0-4,0-6s0-4.15,0-6.22a36.14,36.14,0,0,1,0-5.67c.19-1.16,1.44-1.09,1.95-2-.35-.09-1.42-.24-1.61-.55a4,4,0,0,1-.35-2.31c0-1,0-1.9,0-2.84a4.18,4.18,0,0,0-.5,2.68c0,1.11-.06,2.21-.08,3.32s-.19,2.15-.18,3.23.24,2.16.24,3.25-.25,2.14-.25,3.23,0,2.18,0,3.27c0,2.25,0,4.49-.08,6.74a1.41,1.41,0,0,1-.91,1.16c-.33.12-.47.19-.62-.13-.27-.52.56-1.37.69-2a13.57,13.57,0,0,0,.19-2.83c0-2.29.32-4.84-.24-7.08-.87,1.28-.59,3.09-.52,4.53.08,1.7.33,3.8-.48,5.36a2.1,2.1,0,0,1-.25-1.45,17.76,17.76,0,0,0,0-2.51c-.17-1.56.17-3.16-.21-4.7a4.41,4.41,0,0,0-.51,2.68c0,1.25,0,2.49,0,3.73a10.64,10.64,0,0,0,.24,2.5,1.13,1.13,0,0,1-.88,1.55c-.28.07-.63,0-.55.36a4.26,4.26,0,0,1,.2,1c0,.42-.88.46-1.24.53a10.37,10.37,0,0,0-.21-2.28c0-.92.22-1.84.22-2.76,0-1.95,0-3.91,0-5.86V122.3H134c.12,0,1,0,1,0a3.24,3.24,0,0,0,.18,1.24c.39.59.56.34,1.14,0,.37-.21,0-.84-.25-1.06-.48-.48-.79.07-.79-.73s.33-.42.74,0c.28-.82.53-1.66.85-2.47a5,5,0,0,0,.64-2.47c-.18.11-1,.38-1,.14-.15-.47-.33-.92-.47-1.39a6.1,6.1,0,0,0-.65,1.09c-.21.42,0,.36-.48.32a8.68,8.68,0,0,1-.85-.18c0,1.39.9,2.86,1.23,4.21a2.34,2.34,0,0,0-1.2-.07c-.5.12-.46-.45-.51-.85a21.87,21.87,0,0,1,0-2.79c-.6.29-.69.94-.73,1.53,0,.31,0,.61,0,.91,0,.57,0,.51-.55.51-.38,0-.19-.71-.19-.93,0-.38-.24-.31-.54-.31-.47,0-.07,1.09-.94,1,.14-.77.73-1.43.74-2.23-1.07-.06-2.14-.19-3.21-.27-.43,0-1,0-.94-.52.26-1.32.83-2.61,1.22-3.9s.82-2.83,1.19-4.26c.7-2.76,1-5.6,1.61-8.39s1-5.64,1.54-8.44c.31-1.49.67-3,.91-4.47.16-1,.68-2.24-.16-3.12A12.25,12.25,0,0,0,131,82.29c-1.28-.79-.8-1.56.07-2.45a13.23,13.23,0,0,1,5.74-3.08,2.12,2.12,0,0,1,2.76,1.09,62.67,62.67,0,0,1,4.74,10.59c.72,1.89,1.34,3.79,1.89,5.74.41,1.43,1.41,3.2,1.28,4.71,0,.49,0,.27-.37.47a4.49,4.49,0,0,1-.62.18,9.84,9.84,0,0,0,1.38,2.5c.18.29.53.89.15,1a3.55,3.55,0,0,1-1.29.17c0,1.06,1.12.7,1.38,1.33a10.74,10.74,0,0,1,.6,2.14c-.91-.46-.74-.1-.74.72,0,3,.09,6.07,0,9.08-.06,1.46-.24,2.91-.24,4.37a21.56,21.56,0,0,1-.26,4.37c-.53-.46-.49-1.28-.49-1.92,0-1.16,0-2.33,0-3.48,0-2.14.25-4.27.29-6.4,0-1.67,0-3.34,0-5,0-1,.25-2.87-.8-3.47,0,4.84-.21,9.67-.31,14.51,0,2.43.07,4.87.11,7.3,0,1.15,0,2.31,0,3.45s.06,2.35-.56,3.2a4.62,4.62,0,0,1-.49-1.73,6.53,6.53,0,0,0-.73,3.33c0,.71.11,1.41.1,2.12a8.53,8.53,0,0,1-.38,2c-.37-.41-.23-1-.24-1.54,0-.67-.11-1.33-.08-2s.52-2.26.08-2.89c-.07-.11-.57-.17-.73-.37a1.55,1.55,0,0,1-.26-.88,1.06,1.06,0,0,0-.91,1.65c.2.31.7.45.85.77a4.45,4.45,0,0,1,.13,2.2c-.07,1.08-.08,2.15-.08,3.23,0,.62.22.89-.47.84m-4.21-1.49c-.69-.6-1-2.28.25-2.47,0,.71.23,1.87-.25,2.47m-35.63-.55c-.58-1.1.48-2.62.92-3.6.64-1.46,1.22-3,1.75-4.47,1.1-3.14,2.14-6.34,3.1-9.52s1.93-6.58,2.84-9.9,1.61-6.55,2.39-9.85c.2-.81.18-.73,1-.59.48.08,1-.09,1,.45-.12,3.31-1.25,6.57-2.08,9.77-.91,3.48-2,6.9-3.18,10.3s-2.24,6.74-3.52,10a42.15,42.15,0,0,1-2.07,4.81c-.32.58-1.21,2.72-2.07,2.56m29.69-1.19c-.67-1-.34-2.32-.47-3.47,0-.29-.49-.41-.54-.11a18,18,0,0,0-.23,3.09c-.82-.13-.75-1.37-.74-2a7.19,7.19,0,0,0-.74,1.21c-.26.51-.33.56-.87.33-1.07-.47-1.14-1.75-1-2.79.06-.48.51-.67.67-1.1s-.25-.92-.6-1.39c-.65-.86,0-2.06-.15-2.95,1.24.75.56,3.75,2.22,4a6.74,6.74,0,0,1,1-2.47,1.37,1.37,0,0,1-.49,2.23c.67,1.18,2.21.74,2.47,2.23a5.28,5.28,0,0,1-.5,3.23M151.87,134c-.73.39-1.28,1.2-2,1.51-.11,0-1.15.4-1.17.17a5.19,5.19,0,0,1,0-1.56c.41-1.89,2-3,3.35-4.19.39-.36.45-.45.81,0a6.85,6.85,0,0,1,1.1,2.9,5,5,0,0,1,.09,2.68c-.12.27-.78.84-1.08.82-.8,0-.92-1.76-1-2.31m-23.26,1.43a2.23,2.23,0,0,0,.25-1.24.71.71,0,0,0-.25,1.24m6.19-1a45.94,45.94,0,0,0,.33-6.28c0-.85.42-3.57-.8-3.86,0,1.65,0,3.3,0,4.95s-.17,3.1-.06,4.6c0,.43,0,.72.54.59m-4.7-2.24a1,1,0,0,0-.91,1.53c.3.48.71-.06,1-.28s0-1,0-1.26m15.4-31.65c-.57,0-.49,0-.49.51q0,3.33,0,6.64a33.67,33.67,0,0,1-.26,6.7c-.81-.25-2-.12-2,1a4.45,4.45,0,0,0,2,0c0,3.7,0,7.42,0,11.13a1.29,1.29,0,0,1-1.24-1.24l.49.25c0-3,0-6.11,0-9.15-1,.15-.8,2.3-.78,3a30.33,30.33,0,0,0,.27,5.2c-.58,0-.84.6-1.08,1s-.91.57-1.15,1.07c-.47,1,.56,2.35.48,3.35-1-.2-2,0-2,1.24a5.77,5.77,0,0,0,3-.73c.09.29.5,1,.88.83.87-.35,1.69-.46,1.86-1.53a22.47,22.47,0,0,0,0-3.36c0-3,0-6,0-8.95a24.83,24.83,0,0,1,.14-4.12,26.53,26.53,0,0,0,.13-4.07c0-2.94-.1-5.83-.22-8.75m-13.17,30.91c-.48-.41-.38-1.07-.3-1.61a17,17,0,0,0,.06-2.56c0-1.35-.39-3,.26-4.24,1.06.63.54,3.13.49,4.13s.61,3.54-.51,4.29m21-3.67c-.73.15-1.26,1.06-1.94,1.13-.48,0-1,.33-1.06-.22a2.84,2.84,0,0,1,.07-1.42,8,8,0,0,1,3.25-3.86c.59-.37.94,1.08,1.13,1.5a8.52,8.52,0,0,1,.77,2.87c.06.59-.17,1.88-1,1.94s-1.1-1.37-1.25-1.95M143.22,130a12.26,12.26,0,0,1,1.48-3c.41.43.07,1.39,0,1.9-.11.88-.79.91-1.49,1.07m-2.47-.49a3.79,3.79,0,0,0,.07-2.18,13.34,13.34,0,0,1,.12-2.51c.08-1,.07-2,.08-3,0-.39.08-5.19-.08-5.19-.55,0-.27,0-.42.4-.57,1.61-.25,3.73-.26,5.41,0,.75,0,1.5,0,2.25,0,.35-.07,4.81.08,4.81h.43m-54.68-1.09a5.59,5.59,0,0,1,.93-2,8.48,8.48,0,0,1,1.35-2c.78-.73,1.37,0,2.15.46.5.31.53,1.51.52,2a3.3,3.3,0,0,1-.72,2.23c-.16.24-.72-.07-1-.15s-.21-.67-.31-.89-.51-1.42-1-1.22c-.83.32-.73,1.54-1.9,1.5m44.53-1.16c-.71-1,.12-1.7,0-2.72,1.12.22.76,2.29,0,2.72m-2,0a2.83,2.83,0,0,1-.82-1.12l-.42-1.61c1.31,0,.62,1.77,1.73,2a1.37,1.37,0,0,1-.49.75m.49-1c0-.48,0-1.41.74-1.24a2,2,0,0,1-.74,1.24m12.88-.72c.65-.82.49-1.94.49-2.91,0-1.34,0-2.67,0-4-1.16.22-.74,2.24-.75,3,0,1.09-.56,3,.25,3.9M127.64,123c.84-.43,2,.26,1.48,1.24-.59-.14-1.4-.57-1.48-1.24m3,.5c.34-.6.62.23.74.49a1.59,1.59,0,0,1-.74-.49M89.54,123a1.24,1.24,0,0,1,1-1.2c.62-.09.53,1.21.53,1.69a10,10,0,0,1-1.48-.49m64.82-1.38c-.72.13-1.25.89-1.81,1.31-.82.6-1.2-.5-1.06-1.19a14.11,14.11,0,0,1,2.18-4.24c.56-.9,1,.21,1.34.73a6.35,6.35,0,0,1,1,2.31c.1.78.34,1.75-.33,2.31s-1.23-.54-1.31-1.23m-27.71.94c-.35-.52-.46-1.09.08-1.47a2.28,2.28,0,0,1,2.08-.66c1.29.12,2.47.88,3.78.91-.33,2-3.16.73-4.4.85-.5,0-1,.3-1.53.38M138,118.36c-.55-.13-.51.2-.57.61a6.72,6.72,0,0,0-.12,1c0,.18.18.62.1.8-.22.48-1.09.6-.48,1.28s2,0,1.48-.87a5.68,5.68,0,0,1-.42-2.82m-11.63,1.46a1.46,1.46,0,0,1,1.54-1.48,5.37,5.37,0,0,1,2.41.25c-.62,1.26-2.78,1.2-4,1.24m16.08-4.42a1.4,1.4,0,0,0-1,.74c-.23.57.2.66.62.94.88.57.65-1.26.34-1.68m11.88,0c-.71.15-.93.86-1.48,1.24-1,.68-.9-.48-.79-1.18.18-1.15.86-2.93,2-3.4.65-.26.75.43,1,1a6.06,6.06,0,0,1,.79,2c0,.25.09,2.11-.46,1.87a1.87,1.87,0,0,1-1.13-1.44m-16.33.71c0-1.73,0-3.46,0-5.2-.59.44-.7,1.84-.71,2.51s-.28,2.43.7,2.68m-1.48-1.24c0-.6.3-1.35-.49-1.24a1.55,1.55,0,0,0,.49,1.24m5.94-.24c.21-.72.45-1.44.69-2.16a10,10,0,0,0,.72-2.15c0-.29.15-.48-.17-.64a.63.63,0,0,0-.74.25c-.2-.6-.48-1.86-1.24-2a5.17,5.17,0,0,1-.49,2,2.61,2.61,0,0,0-1-.25c0,1.48,1,2.89,1.33,4.3.19.66.17.64.89.64m9.91-3.44a3.83,3.83,0,0,1,.37-2.53c.11-.28.68-2,1-1.88,1.7.58,2,2.66,1.87,4.18-.64,0-1.2-.68-1.73-1a1.72,1.72,0,0,1-1.48,1.23M141,108.72a7.36,7.36,0,0,0,0-2,1.08,1.08,0,0,0-.56,1.1c0,.48-.08,1,.56.88m-12.62,0a10,10,0,0,0-3.09-2.72,8.62,8.62,0,0,0-2-.85c-.55-.15-1.28-.14-1.6-.68-.43-.7-.7-1.43-1.2-2.1a8.93,8.93,0,0,0-1.87-2,6.86,6.86,0,0,0-2.69-1,5.05,5.05,0,0,1-2.46-1.4,8.6,8.6,0,0,0-5.65-2.4c-.21,0-.73-.14-.39-.49s2.76.19,3.16.32c1.65.55,2.71,1.66,4,2.69a4.87,4.87,0,0,0,2.22.79,7.17,7.17,0,0,1,2.39,1.12c1.38.94,1.91,2.39,3,3.51s3.13,1.41,4.51,2.28c.64.42,1.86,1.72,1.76,2.57a.65.65,0,0,1-.13.35m15.59-.22c.2-1,.94-5.4-.48-5.69,0,1.13,0,2.25,0,3.37,0,.74-.2,1.81.49,2.32m-9.27-.26c.17-.38.59-1.91-.46-1.52-.25.09-.32.83-.38,1.07s.57.37.83.46m7.79-1a20.82,20.82,0,0,0,0-2.72,2,2,0,0,0,0,2.72m9.65-1c-.67-1-.21-2.13.1-3.18,0-.19.38-1.28.5-1.26a2.11,2.11,0,0,1,1.33.84,3.68,3.68,0,0,1,1.2,2.9c-.06.69-.53.35-.91.1s-.79-.62-1.24-.88c-.13.57-.19,1.62-1,1.47m-15.59,0a3.34,3.34,0,0,0-.21-.89c-.09-.2-.77.08-1,.13-.41.11.07.57.25.65a2.8,2.8,0,0,0,.91.11m-3.46,0c.56-.34.14-1.32-.49-1s-.12,1.11.49,1m1.73-.24c.27-1.59,1-3.12,1.25-4.7a3,3,0,0,0-1.24.25,6.11,6.11,0,0,0-.49-1.73c-.75.54-.54,2-1.73,2,.17,1.25,1,2.4,1.33,3.64.16.65.23.55.89.56M123,103a1.81,1.81,0,0,1-.13-1.4c.24-.58,1-.1,1.61-.08-.26.58-.81,1.38-1.48,1.47m28.2-1.19c-.54-1.64.26-3.39.75-4.95,1.43.3,2.16,2.1,2.83,3.21a4.43,4.43,0,0,1,.13,1.5c-1,0-1.73-.93-2.47-1.48-.22.6-.41,1.88-1.24,1.72M140.8,96.1c-.27,0-.74.27-.74.59s-.18,1,.2,1.18c.9.41.72-1.38.54-1.77m-25,1.68a3.81,3.81,0,0,1-.25-1.73,8.5,8.5,0,0,0,1.73.25,2.15,2.15,0,0,1-1.48,1.48m34.4-5.63c1.29,0,2.86,1.57,3.31,2.73.19.48.33,1.87-.43,1.62a12.15,12.15,0,0,1-1.64-1.13,9.2,9.2,0,0,1-.7,1.67c-.38.6-1.09-1-1.13-1.14a3.06,3.06,0,0,1,.17-1.65c.14-.7.29-1.41.43-2.11m-7.67,3.45c.16-.84-.9-.74-1.48-.74a.94.94,0,0,0,1.48.74m-2.72-.75c-.38-.2-1.85-.29-1.4.42s1.26.32,1.4-.42m-8.66.73c-2.88-2-5.58-4.28-8.55-6.16A48.05,48.05,0,0,0,118,86.89c-1.06-.51-2.82-.78-3.53-1.79-.89-1.28,1.45-.65,2-.41,1.47.61,1.82-.23,2.26-1.45a19.35,19.35,0,0,0,.65-2.33,4.27,4.27,0,0,0,.29-1.92c-.13-.5-.62-.7-.83-1.13-.67-1.35,1.25-.86,1.81-.58,2.22,1.09,4.41,2.17,6.55,3.41a33.35,33.35,0,0,1,5.73,3.74c.23.21.2,1.19.25,1.51A4.66,4.66,0,0,1,131,84.79c-.79-.61-1.62-1.18-2.47-1.72-1.51-1-3.25-2.39-5-2.85-.77-.2-1,.16-1.52.65a4,4,0,0,0-.88,2c-.22.84-.46,1.67-.61,2.53-.11.6.46.93.85,1.33a24.58,24.58,0,0,0,4.3,2.9c.94.6,1.9,1.17,2.83,1.79s4.13,2.68,2.69,4.17m9.4-.48c.14-.5,1.89-3.45,1.44-3.74s-.81-.47-1-.84c-.08-.21,0-.72-.24-.86-.58-.44-.68,1.14-.74,1.48-.42-.07-.82-.18-1.24-.25a7.63,7.63,0,0,0,.68,2.31,3.26,3.26,0,0,0,1,1.9m-8.91-2A7.86,7.86,0,0,1,129,91c-.45-.54-2.07-2.67-.76-3.13,1-.34,2.37,1.38,2.77,2s1.36,2.27.63,3.18m17.07-.47a5.31,5.31,0,0,1-.69-3.39,4.25,4.25,0,0,1,.16-.86c.09-.36.39-.17.64-.09,1.16.36,2.78,1,3.33,2.16.2.42.3,1.44-.46,1.28-.24,0-1.55-.62-1.72-.45a7.13,7.13,0,0,1-1.26,1.36m-16.07-5.23a6.29,6.29,0,0,1-2.32.15c-.35,0-1.92-.52-1.43-1.16a2.13,2.13,0,0,1,2.1-.54c.79.23,1.61.61,1.64,1.55m14.1-.22A7.09,7.09,0,0,1,146,84a5.12,5.12,0,0,1,3.11,2.45c.28.45.53,1.3-.35.91a3.47,3.47,0,0,0-2-.15m-25.47-1.78a8.09,8.09,0,0,1,4.45.5c-.52-.89-1.58-1.5-2.22-2.37a5.08,5.08,0,0,1-1-2.84c1-.12,2.19,1,2.75,1.76.74,1,1.45,1.84,1,3.14a1.84,1.84,0,0,1-2.38,1.47c-.92-.14-2.66-.45-2.65-1.67m14.23,1.27c.25-.42.4-.61.28-1.09-.16-.65-.29-.55-1-.66-.43-.07-.3.91-.27,1.08.07.38.5.89.94.67m-8.55.23c0-.29,0-1.24.56-.67.37.36-.24.53-.56.67m10.4-2.7c.2-1.06-1.41-.59-2-.49a6.51,6.51,0,0,1,.18-1.75,4.29,4.29,0,0,0,.33-1.56c-.07-.56,0-.2-.39-.42-.59-.33-1.17-1.09-1.83-1.22a2.07,2.07,0,0,1-.8,1.83c-.51.4.55,1.69.81,2.09a3.81,3.81,0,0,0,1.56,1.69,2.16,2.16,0,0,0,2.12-.17m-22.27-1c.29-.92.54-1.17,1.43-.76a2.11,2.11,0,0,1,.79,1.75,5.94,5.94,0,0,1-2.23-1m29.69-.94a1.29,1.29,0,0,1-.49-1c.31.26.76.56.49,1M129.72,68.37c2.23.89,1.13,3.75.77,5.51-.25,1.19-.55,2.37-.76,3.56a5.59,5.59,0,0,1-.86,2.72c-.14.17-.52,0-.72,0-.37,0-.33-.09-.48-.45-.3-.69.21-1.68.37-2.36.23-1,.42-1.92.6-2.89.39-2,.58-4.1,1.09-6.11m.48,10.89a19.46,19.46,0,0,1,.82-4.12c.36-1.58.64-3.19.93-4.79,1.28.25,2.24,1.39,3.17,2.21s2.35,1.71,3,3c-1.37.67-2.93.79-4.23,1.62s-2.32,1.81-3.71,2.08m-12.62,0c.06-.13.35-.9.56-.67.38.39-.11.77-.56.67m2-3.45c.39-.83,1.28-2.75,2.24-3a14.63,14.63,0,0,1-.34,2.62c-.12.61,0,.88-.65.8a2.8,2.8,0,0,1-1.25-.46"/><path class="g" d="M61.5,26l1.46.78a26.09,26.09,0,0,1,8.42-4.44,54.7,54.7,0,0,1,12-1.83c6.93-.35,13.93,2.2,20.44,4.29l1.77-8.38c-4.68-2.31-9.18-4.81-13.63-7.55-4-.87-8.71.36-12.72.8a72.74,72.74,0,0,1-12.55.21c-3.61,3-7.19,6-10.95,8.85l2.8,2.25,2.93,5"/><path class="g" d="M96.31,57.84,90.7,60.17v.3c1.36-.31,2.67-.81,4-1.23-.76,2.73-2.08,5.71-2.27,8.54q-.43,6.65-.87,13.29a184.54,184.54,0,0,0-.17,19.44l1.7.29,3.18-2.14,9.42-15c1.37-2.17,1.3-4.93,1.52-7.39a61.58,61.58,0,0,1,1.33-8.49l.59-.78,0-.15a36.06,36.06,0,0,0,3.12-4,20.5,20.5,0,0,1,3.78-3.18l1.24-.44,0,0a14,14,0,0,0-5.94-6.17,62.16,62.16,0,0,0-8.89-3.21l-2.27,4.42-3.91,3.54"/><polyline class="g" points="62.15 92.76 62.14 97.45 70.68 97.47 63.11 93.92 62.15 92.76"/><path class="g" d="M50.32,59.53l3.92,1.22,3.57,2.94-.09.18c7.8,9.92,12.49,21.33,15.72,33.44l-.12.17h.48a62.56,62.56,0,0,0,9.82,6.36v-.27l-.06,0c-.9-11.16-1.76-22-4.33-32.88h-.11a89.85,89.85,0,0,0-3.8-10.07c-1.6-1.45-3.16-2.92-4.8-4.33l-.06-.16,0,0c-.13-.48-.28-.94-.45-1.41l-2-.27L67.74,57l-1.27,1.44-2.58.18L62.4,57.33l-1-2.58.76-2.43-3.93-1L58,52.45,56.42,54l-1.67-.25-1.29-2c-3.57,1.07-7,2.49-10.58,3.5l-.13.61c2.5,1.32,4.94,2.58,7.55,3.75l0,0"/><path class="h" d="M112.6,62.45l-4.07,5.36a89.91,89.91,0,0,0-1.68,12.41l.69,1.57c4.24-6.67,9.7-13.32,11.79-21l-1.54-1.71-1.73.61-3.46,2.74"/><path class="i" d="M70.45,56.09A25.64,25.64,0,0,0,77,61c3.06.33,6.3,1.28,9.36.53a70.78,70.78,0,0,0,10-3.69l3.91-3.54,2.55-5-4.2-1-5.44,5.59-8,3.13-7.7-.57-5.18-3.86L70,54.52l.39,1.5.06.06"/><path class="h" d="M91.3,85q.48-7.35,1-14.7c.26-3.87,1.39-7.36,2.44-11.11C91.35,60.3,88,61.14,84.58,62c-3-.38-5.94-.87-8.93-1a60.74,60.74,0,0,1,3.58,9.73c.9,3.8,1.62,7.58,2.3,11.43,1.25,7,1.44,14.26,2,21.38l3.26,1.72,4.66-2.61c-.25-5.86-.18-11.73-.17-17.59"/><path class="g" d="M42.62,56.21l-.87-.11a4.48,4.48,0,0,0-2.28,1.39l-.7,1.95a39.27,39.27,0,0,0,4-3.19l-.11,0"/><path class="g" d="M76.84,113.81v-6.29H68.42l.11.12q-3.51,9.87-7,19.75c-2.2,6.21-3.4,13-5.07,19.34l3,2.53a38.78,38.78,0,0,0,3.86.65c4-6.18,8.19-12.26,12.24-18.45l.31-5.4h.24l.39-12.37.4.14"/><path class="i" d="M45.56,140l3,.92a18.24,18.24,0,0,0,2.56,3.87A17.9,17.9,0,0,0,56,146.42l.3.3c1.71-6.39,3-13.11,5.2-19.36q3.51-9.87,7-19.75l-7.78-8.5a23.7,23.7,0,0,0-6.08,6.67A92.36,92.36,0,0,0,49.2,115c-3.15,6.83-6.12,13.54-8.06,20.82.85,1.95,2.77,3.06,4.42,4.23"/><path class="i" d="M45.87,167.23l-5.11-2.61A34,34,0,0,1,35.07,169l-4.32,1c4.31,3.75,8.55,7.58,13,11.15,2.4-3.8,4.72-7.64,7.13-11.43-1.69-.85-3.38-1.65-5-2.56"/><path class="i" d="M71.42,89.72c-3.64-9.24-7.52-18-13.7-25.86a121.83,121.83,0,0,1-5.58,10.85c-2.67,4.21-5.42,8.36-8,12.64l1.7,1.59,8.23-5.86,9,10.84,9.58,4.49.77-1.1-2-7.59"/><path class="h" d="M58.69,149.06,56,146.42l-4-.71a22.61,22.61,0,0,1-3.4-4.77,13.67,13.67,0,0,1-7.26-4.64c-2.33,8-3.52,16.2-5,24.36,1.21,2.45,4.66,3.89,6.92,5.14,2.54,1.41,5,2.72,7.71,3.88,3.73-6.72,8.46-12.84,12.28-19.54l-4.54-1.07"/><path class="i" d="M36.8,89.2l-2.56.49a39.18,39.18,0,0,0-7.85,14l4.27,2.51a27.46,27.46,0,0,0,5.93-.91l-1.76-3.88,4.28-.06-1.24-3.58,3.7.35L42,96.79l-.32-2.58,1.49,1.16c-2-2.07-3.93-4.12-6-6l-.33-.13"/><path class="g" d="M10.59,143.34h0l-.11,1.1,2.73,5,.78-.16c-.41-2.06-.78-4.14-1.23-6.2h0l-.42-2.72h-.31a22.55,22.55,0,0,0-.2-3.37h.21c.14-5.34-.32-10.82-.34-16.18a48.59,48.59,0,0,1,2.4-14.13H14.1a39.92,39.92,0,0,1,6.66-13.85v-.22h.17L23.57,89l-.07-.11a88.26,88.26,0,0,1,7.24-7.16v-.58l-.92.07-7.72-2.46.07-.08H18.75v-.17l-1,.21A101.26,101.26,0,0,0,11,90.68L11,92.21h-.46l-.06,28h.12l-.06,23.18"/><path class="i" d="M29.8,81.24l1.54-.11c3.4-3.49,7-6.8,10.42-10.26,3.27-3.27,5.88-7.55,8.53-11.32l-7.5-3.35A105.44,105.44,0,0,0,31.22,66.66c-1.75,1.92-3.06,4.43-4.52,6.58-1.34,2-3.08,3.73-4.6,5.56l7.71,2.45"/><path class="h" d="M52.79,73.7q2.51-5,5-10l-3.57-2.94-3.92-1.22a119.33,119.33,0,0,1-13.19,16C32.63,80,27.8,84.19,23.5,88.93l.07.11c-3.94,5.28-7.94,11.05-9.45,17.6h.06a48.54,48.54,0,0,0-2.4,14.13c0,5.42.07,10.77.41,16.18h-.28c.87,5.75,1.09,12.6,4.64,17.42a72.39,72.39,0,0,0,14,14.87,63.91,63.91,0,0,0-3.57-7.87,67.75,67.75,0,0,1-2.88-8.32,82,82,0,0,1-3.46-15.94H21c.64-8.47.67-17,3-25.15,2.26-8,4.59-15.93,10.31-22.27L37,89.17C40.12,92,43.07,95,46.07,98l.45-.52-.19-6.62-2.24-3.36c2.77-4.68,5.78-9.24,8.7-13.83"/><path class="h" d="M42,96.78l-.43,1.34-3.7-.35,1.24,3.58-4.28.06,1.76,3.88-3.94.92,2.35,2c2.48.4,4.91.83,7.35,1.42a65.79,65.79,0,0,1,6-7.64,24.24,24.24,0,0,0-6.64-7.74L42,96.78"/><path class="h" d="M76.44,113.65l-.54,17.18c3.11-4.62,6-9.38,9.08-14-2.85-1-5.69-2.1-8.54-3.15"/><path d="M55.22,18.2c0,.65,0,.71.49,1.06a16.91,16.91,0,0,1,5.91,7.51,38.28,38.28,0,0,1,1.09,4.74c.4,1.55,1.33,3.33,1.1,5a5.19,5.19,0,0,1-1.94,2.63c-.43.29-1.14.46-1.61.71-1.76.91-1.28,3.13-.87,4.62a8.89,8.89,0,0,0-3.17,1.14c-.82.49-.89,1.59-1.29,2.36A14.45,14.45,0,0,1,53,51a4.9,4.9,0,0,1-2.39,1.1,26.61,26.61,0,0,0-3.32,1.33c-2.23,1-4.59,1.5-6.84,2.43a3.86,3.86,0,0,0-2,1.68A12.87,12.87,0,0,1,37,60.34c-.85.91-1.92,1.64-2.82,2.51A36,36,0,0,0,31.26,66c-1.74,2.14-3,4.63-4.68,6.82-.78,1-1.58,2-2.45,3a7,7,0,0,1-2.76,2.3,18.77,18.77,0,0,1-3.35.29c-1,.12-1.64,1.41-2.11,2.2-.79,1.33-1.53,2.66-2.25,4-1.25,2.38-3.37,4.95-3.38,7.75q0,19.64-.08,39.29c0,3.23,0,6.46,0,9.69a27.27,27.27,0,0,0,0,3.36c.15,1.43.89,2.2,1.67,3.33,1.66,2.39,3,5,4.71,7.33a82.31,82.31,0,0,0,5.53,6.76,105.63,105.63,0,0,0,10.07,9.67c1.95,1.65,3.87,3.35,5.84,5a39.53,39.53,0,0,0,5.79,4.48,3.86,3.86,0,0,1,.23-.75,9.27,9.27,0,0,1-2.5-2.35,2.75,2.75,0,0,1,0-1.76c.17-1,.35-2.1.53-3.14a44.38,44.38,0,0,1,1.55-6.6A11.1,11.1,0,0,1,46,167.79c.83.45,1.86,1,1.72,2.09a51.67,51.67,0,0,0-.75,5.9,12.31,12.31,0,0,0,2.32-3.35c.84-1.44,1.78-2.85,2.68-4.26s1.85-3,2.86-4.48c.78-1.14,1.85-2.31,2.07-3.72-1.42.1-3-.75-4.22-1.33A41.94,41.94,0,0,1,48,156.14a55.77,55.77,0,0,1-8.2-6.15c-.93-.85-.86-1.71-.67-2.87a36,36,0,0,0,1-5.25c1.22.35,1.65-.11,1.73-1.24,1.31.27,2.34,1.49,3.71,1.74-.13.64-1.71,1.86-1.49,2.47.09.23.91.4,1.12.49a16.25,16.25,0,0,1,1.8,1c.91.54,1.26-.21,1.29-1,1.45.82,2.7,1.94,4.2,2.73-.61.62-1.25,1.13-1.25,2,0,.48,1.34.5,1.64.55.92.18,1.4,1.36,2.42,1.37.42,0,.47-.27.43-.61a4.71,4.71,0,0,1,.22-1.61,16.8,16.8,0,0,0,4.95,2.24c-.54.83-1.21,1.79-.51,2.72A10.91,10.91,0,0,0,62.3,152c.7-1.18,1.47-2.32,2.18-3.47a74.61,74.61,0,0,0,4.34-7c-1.26.83-2,2.62-2.78,3.86-.47.73-1,1.43-1.41,2.2a4.67,4.67,0,0,1-1.35,1.74c-.78.51-2.26.19-3.09-.11s-2.33-.91-2.77-1.76-.07-2.27.12-3.22c.35-1.69.75-3.37,1.17-5,.83-3.44,1.76-6.87,2.81-10.24s2.21-6.76,3.38-10.11q.88-2.52,1.84-5a46,46,0,0,0,1.88-4.44,11,11,0,0,1,2.47,1.42c.95.62,1.9,1.26,2.84,1.9s1.84,1.26,1.85,2.44c0,1.47,0,2.95,0,4.42s-.22,2.9-.24,4.36a13.3,13.3,0,0,1-.22,2.17c-.13.7,0,1.4-.09,2.11s-.12,1.46-.2,2.19a7.92,7.92,0,0,0-.27,2,5,5,0,0,0,1.15-1.54,7.57,7.57,0,0,0,.35-3.27c0-1.46.21-2.9.27-4.35.11-2.79.24-5.59.25-8.39,1.68.22,1.37,3.49,1.32,4.62-.13,2.83-.35,5.67-.36,8.49a11.07,11.07,0,0,0,1.72-2.33c.7-1,1.4-2.08,2.09-3.13,1.39-2.09,2.73-4.21,4.13-6.28q4.23-6.34,8.3-12.78c2.71-4.3,5.38-8.63,8.06-13q2-3.16,4-6.29c.45-.7,2.35-2.59,1.87-3.48-.59-1.12-.22-2.37-.12-3.54,0-.31.19-2.85.61-2.84.12,0,.4-.07.45.06.4,1,1.33,1.84,1.45,2.91,1.4-1.19,0-2.59-.68-3.71a6.61,6.61,0,0,1-.53-5.2,12.33,12.33,0,0,1,1.75,3A8.27,8.27,0,0,1,112,74.5a5.39,5.39,0,0,0,1.48-2.23c-.73-.11-2.47-1.55-1.65-2.34.61-.58.8-.75,1.66-.44a13.41,13.41,0,0,1,1.48.79,6.28,6.28,0,0,1,1.11-1.87c.46-.62.83-1.31,1.23-2a24,24,0,0,0,2.35-4,1.62,1.62,0,0,0,0-1.47c-.58-1.63-2-2.83-3.22-4-.63-.63-1.17-1.35-1.77-2a11.42,11.42,0,0,1-1.93-2.22,8.94,8.94,0,0,1,2,.3,8.1,8.1,0,0,0,2.23.46,12.85,12.85,0,0,0-3.19-3.11c-.27-.19-.94.11-1.21.18a3,3,0,0,1-1.79.21c-.6-.27-.63-1.22-.81-1.76a10.38,10.38,0,0,0-1.16-2.46c1.48,0,2.31,1.42,3.71,1.5-.64-1-.93-2.25-1.92-3a14.59,14.59,0,0,1-3-2.71c.83.46,1.48,1.28,2.41,1.56a11.28,11.28,0,0,0,3.27.18c-.08-.59-.75-.86-1.24-1.06a4.19,4.19,0,0,1-2-1.43,2.79,2.79,0,0,0,2.47-.25,5.45,5.45,0,0,0-.93-.62c-.47-.35-.91-.73-1.35-1.12a2.19,2.19,0,0,0-2.41-.51c.1-.59.87-1.48,1.52-1.34s2,.55,2.19-.39a5.82,5.82,0,0,1-1.85-1.08c-1-.67-2.07-.16-3.06-.61s-1.94-1.27-3.25-1.29a6.5,6.5,0,0,0,1-3,6.37,6.37,0,0,0-1.11-3.06c-.37-.7.1-1.54.45-2.15a8,8,0,0,0,1-2.5c.2-1.06.43-2.11.68-3.16a19.77,19.77,0,0,0,.77-2.89c.09-.91.14-1-.49-1.67a3,3,0,0,0-1.26-.53,12.41,12.41,0,0,1-1.72-.81c-1.28-.63-2.53-1.33-3.77-2s-2.58-1.52-3.88-2.29C94,9.68,92.7,8.56,91.39,8.46c-4.11-.3-8.18.49-12.25.91a56.55,56.55,0,0,1-6.33.53c-1,0-1.91,0-2.87-.07s-2.12-.25-3.19-.26c-.84,0-1.59,1-2.14,1.54-1,.9-2,1.75-3,2.6a31.41,31.41,0,0,1-6.42,4.48m49.47.35c-2.54-.39-5-2-7.28-3.11-1.28-.65-2.52-1.37-3.74-2.13s-2.06-1.65-3.22-2.26-2.59.2-3.76.47c-1.52.37-3.07.67-4.62.9a86.36,86.36,0,0,1-8.9.8c-1.39.06-2.75-.24-4.12-.2s-2.26,1.27-3.15,2.16a31.16,31.16,0,0,1-3.23,2.57A9.58,9.58,0,0,1,59,20c-.75.16-1-.07-1.72-.41-.47-.23-.95-.49-.74-1,.33-.81,1.84-1.43,2.51-1.92,1-.75,2.07-1.51,3.08-2.31a32.48,32.48,0,0,0,2.93-2.54c.8-.79,1.52-1.75,2.78-1.54a42.26,42.26,0,0,0,11.23,0c1.8-.2,3.56-.58,5.35-.85,1-.15,1.94-.24,2.9-.41a12.19,12.19,0,0,1,2.8-.35A6.38,6.38,0,0,1,93.37,10c1.17.78,2.35,1.57,3.57,2.27,2.45,1.41,5.06,2.58,7.56,3.91.81.47.53,1.64.19,2.34M89.62,12.33c1.09.56,3.5,1.62,3.8,3A5.66,5.66,0,0,1,93,17.6a10.72,10.72,0,0,1-1,2.55c-.42.74-1.7.39-2.35.25a26.71,26.71,0,0,0-3.87-.51,46.14,46.14,0,0,0-9.34.5,28.66,28.66,0,0,0-7,1.95,31.21,31.21,0,0,0-3.4,1.7c-.92.54-1.91,1.49-3,1.68-1.31.24-2.72-2.32-2.94-3.39-.11-.54-.2-.9.32-1.28A40.36,40.36,0,0,0,65.67,17c1.08-1.12,2.43-2.72,4.17-2.42a19.26,19.26,0,0,0,4.95.1c1.69-.16,3.39-.22,5.09-.37,3.34-.26,6.4-1.87,9.75-2M94.8,15.8a19.63,19.63,0,0,1-1.25,4.95c-.74-.82.2-2.92.45-3.84.17-.6.08-1.2.8-1.11m1.24.74A17.28,17.28,0,0,1,95,21c-.52-.57-.08-1.58.07-2.23s.21-1.77.93-2.23m1.24,1a9.79,9.79,0,0,1-1,4c-.43-.55,0-1.41.19-2s.23-1.53.81-2m1.48.51a5.83,5.83,0,0,1-.25,1.24A.86.86,0,0,1,98.76,18m1.23.74v.74a.55.55,0,0,1,0-.74m1.48.5a7.45,7.45,0,0,1-1,3.71c-.35-.54,0-1.31.17-1.85a3.41,3.41,0,0,1,.83-1.86m-3.22.49a5.23,5.23,0,0,1-.5,2.23c-.49-.51,0-1.85.5-2.23m4.45.5a7.67,7.67,0,0,1-.75,3.22,3.79,3.79,0,0,1,.75-3.22m-3.22.25a10.22,10.22,0,0,1-.25,2c-.45-.47-.16-1.56.25-2M89.29,50.92a5.88,5.88,0,0,1,1.42-1.55c.65-.58,1.2-1.28,1.81-1.9a20.46,20.46,0,0,0-2.43,1.91,19,19,0,0,1-2.85,1.81A12.2,12.2,0,0,1,81,52.64c-2,0-4.28-.35-5.59-2.07s-3-3.49-4.5-5.28a20.08,20.08,0,0,1-2.88-5.77c-.78-2.06-.85-4.43-1.86-6.38s-2.06-3.8-2.16-6c0-.27.6-1,.8-1.24a9.82,9.82,0,0,1,2.36-1.47A27.8,27.8,0,0,1,70.33,23,29.47,29.47,0,0,1,77,21.31c2.08-.3,4.16-.28,6.24-.37,1.57-.08,3.59-.29,4.92.75,2.86,2.24,2.55,5.91,3.14,9.13a6.05,6.05,0,0,0,1.18,2.12,6.58,6.58,0,0,1,1,2.69,11,11,0,0,0,.27,2.79c.27.67,1.23,1.68,1.21,2.41a13.57,13.57,0,0,0-.06,2.76A7.28,7.28,0,0,1,95.14,46c-.19,1.09-1.35,2-2.06,2.8a7.48,7.48,0,0,1-3.79,2.14m5-19.29c0-.22,0-1.28.41-1.23.91.11.91.09,1.27.94a3.25,3.25,0,0,1-.31,1.44c-.35.54-1.08.26-1.6.21s-.91,0-1.29-.47a5.12,5.12,0,0,1-.86-1.6c-.59-1.63-.22-3.49-.65-5.18a16.52,16.52,0,0,0-.9-2.63c-.14-.31-.7-1-.5-1.4.37-.63,2.39.21,2.76.48A5,5,0,0,1,94.46,25a8.41,8.41,0,0,1-.08,3.94c-.28.85-1.23,2.1-.1,2.74M95,22.73c.87.57,1.16,1.88,1.4,2.82a11.87,11.87,0,0,1,.32,3.13c-.74,0-1.24.24-1.24-.57a15.73,15.73,0,0,0,0-2.27c-.13-.86-1-2.3-.44-3.11m1.48.5c1.29,1,1.4,3.66,1.47,5.2.5-1,.25-2.42.26-3.46a2.43,2.43,0,0,1,.7,2.13,2.64,2.64,0,0,1-.45,1.29.56.56,0,0,1-1,0c-.48-.77-.3-1.78-.48-2.63s-.85-1.66-.53-2.47M77.46,26.41c1.39.29,2.91-1,4.24-1.23a10.2,10.2,0,0,1,5.15-.13c.91.3,1.59,1.06,2.49,1.38a4,4,0,0,0-2.41-2c-2.16-.74-4.64-.21-6.8.3-.73.17-2.49.88-2.66,1.72m23.26-1.19a13,13,0,0,1,.25,2.47c.5-.78.33-1.68.74-2.47.6.43.29,1.38.09,1.95-.35,1.06-1,1.12-2,.76-.52-.19-.46-.51-.51-1,0-.22-.15-1.06,0-1.18.44-.4.53.36.56.57a7.59,7.59,0,0,1,.17,1.16c.33-.66.11-1.74.75-2.22m-20.79,5.4a6.39,6.39,0,0,0,1.73.4,8.7,8.7,0,0,0,2.32.31A7.68,7.68,0,0,0,85.92,31a17.36,17.36,0,0,1,1.92-.84,16.84,16.84,0,0,1-.25,2.23c.92-.2,1.57-2.72,1.11-3.41a3.25,3.25,0,0,0-1.44-.88c-.7-.34-1.35-.75-2.08-1a4.31,4.31,0,0,0-3.89,0,1.91,1.91,0,0,0-.86,1.41c-.11.73-.38,1.42-.51,2.14M64.85,29.36c1-.21,1.64-1.4,2.76-1.54.6-.08,2.78.16,2.94-.67-1.57-.24-5.63-.07-5.7,2.22m21.77-.7A13.36,13.36,0,0,0,83.95,28a10.36,10.36,0,0,0-2.77.41c0-1.16,1.42-1.56,2.38-1.38,1.23.22,2.39.47,3.07,1.64M71,27.88a9.89,9.89,0,0,1,1,2.72c-.57-.83-1.61-1.74-2.7-1.4s-2.5.92-2.49,2.37c.73-.46,1.07-1.09,1.92-1.4.63-.23,1.89-.7,2,.42a9.27,9.27,0,0,0-1.48.08A3.89,3.89,0,0,0,67,32.74c-.21.51,0,.94.57.82-.48.82.49,1.6,1.24,1.73-.32-.5-.64-1-1-1.48.87,0,1.85-.28,2.71-.23a.93.93,0,0,1,.94.58c.14.24-.09.45.31.39.14,0,.4-.39.49-.49a27.63,27.63,0,0,1,.48,4.42c0,1.48.68,2.84,2.29,3A2.79,2.79,0,0,0,76.8,41c.72-.46,1.57-.35,2.27-.78.18-.11.7-.3.7-.52V38.12a.89.89,0,0,0-1.33-.83c.23.28.58.46.74.79a6.8,6.8,0,0,1,.25,1.44c-.58-.12-1.7-.7-2.27-.32s-1.38,1.4-2.09,1.54c-1.77.37-1.72-2.9-1.82-4-.16-1.67,0-3.36-.16-5-.15-1.15-.42-3.86-2.07-3.86m12.62.52c-.06.49-.56.66-1,.74-.15-.65.53-.68,1-.74m-20.29.2c.35.64.49,1.37.83,2a8.68,8.68,0,0,1,.93,2.53c.2,1.21.95,3.64-.55,4.36a14.07,14.07,0,0,0-.14-2.74,24,24,0,0,0-.76-2.3c-.33-1-1.11-2.87-.32-3.88m37.35,5.27a7.93,7.93,0,0,0-.09-2.51,5.24,5.24,0,0,1-.64-2.44,2.62,2.62,0,0,1,1.93,2.47c.07.93.06,2.47-1.2,2.48m2-.74a7.68,7.68,0,0,0-.13-2,5.42,5.42,0,0,1-.61-2.2c1,0,1.61.85,1.78,1.8s-.06,2.2-1,2.41m-17.8-3.74a1.37,1.37,0,0,1-1.41,1.28c-.77,0-1.54,0-1.56-1a4.16,4.16,0,0,0,1.39.17c.53-.11,1-.33,1.58-.42m1.24,0c.25.48-.07.81-.5,1a1.19,1.19,0,0,1,.5-1m11.37,4.23V32.13a3,3,0,0,1-1,1,12,12,0,0,1,.16-1.78,4.15,4.15,0,0,0-.4-1.68c1.8-.94,3.22,3.58,1.23,4M99,29.67c.75,1,1.64,4.11-.26,4.45a11.18,11.18,0,0,0,.45-2.65c-.06-.56-.59-1.26-.19-1.8M69.54,31.09c0,.51-.29.69-.74.74-.1-.54.2-.84.74-.74m12.12.53c.11.47.21.88.74,1a1.87,1.87,0,0,0-.74-1m-11.13.47c-.28.81-2.24,1.7-2.47.49a3.54,3.54,0,0,0,1.29,0c.41-.17.79-.35,1.19-.53m34.14,3.28c0,.34-.28.52-.49.74a.93.93,0,0,1,.74.74h-1c.26.27.85.74.18.74H98.93c-2.22,0-4.66-.83-4.65-3.47,1.65,0,2.81,1.62,4.47,1.66,2,0,3.89-.89,5.92-.4m5.43,1.74c-.77,0-1.43-.5-2.23-.25.31-.91,1.88-.4,2.23.25m-43.54-.34a19.46,19.46,0,0,1,.64,2.59,4.7,4.7,0,0,1-.78,2.35,6.43,6.43,0,0,1-4.08,2.72c1.78,1,3.45-1.69,4.95-2.22,0,1.62-1.24,2.27-2.45,3a4.46,4.46,0,0,1-2,.2,3.34,3.34,0,0,1-1.93-.66c-.51-.59.18-1.42.69-1.73a6.53,6.53,0,0,1,2.08-.43A4,4,0,0,0,66.56,40c-.5.31-.87.72-1.36,1a5.46,5.46,0,0,1-2.52.45,24.37,24.37,0,0,0-2.81.72,2.21,2.21,0,0,1,.79-1.87c.26-.19.66-.63,1-.7,1.23-.26,2.64-.43,3.56-1.37.47-.48.6-1.62,1.36-1.48m39.34,4.53a13.7,13.7,0,0,0-2-.74c1.27,1,2.09,2.6,3.4,3.49.94.64,2.41.62,3,1.71-1.6-.35-3.18-.42-4.33-1.74a12.45,12.45,0,0,0-1.92-1.9,5.84,5.84,0,0,0-3.17-.78A16,16,0,0,1,97,40.93a3.67,3.67,0,0,1-2.51-3.59c1.39,0,2.68,1.15,4,1.51,1.62.44,3.39.31,5.07.62.79.14,2.19.94,2.3,1.84m-.49-2c-.73.15-1.79-.51-2.47-.74.71-.67,2.07.06,2.47.74m4.95,1.25a8.45,8.45,0,0,0-1.48-.25,10.8,10.8,0,0,0-1.48.25c.61-1.17,2.61-1.62,3,0m-1.48.73a2.18,2.18,0,0,1,.74,1.24c-.4-.22-1-.73-.74-1.24M110.08,52a4.67,4.67,0,0,1-2.15-2.32,4.9,4.9,0,0,0-2.65-2.19A11.65,11.65,0,0,0,102,47a14.45,14.45,0,0,1-3.82-.75,5.64,5.64,0,0,1,1.24,1.24,3.6,3.6,0,0,1-3.16-2.11,3.54,3.54,0,0,1-.52-1.76c.07-.68.23-1.39.24-2.07a2.25,2.25,0,0,1,1.84.87,9,9,0,0,0,1.74,1.73,8.22,8.22,0,0,0,3.14,1.28l1.56.31c.69.14,1.42,0,2.11.18,1,.26,1.41.85,2.08,1.65a5.33,5.33,0,0,1,.8,2,24.32,24.32,0,0,1,.8,2.44M74.71,44a2.61,2.61,0,0,0-1-.25c.12.89.61,1.1,1.41.92,2.1-.47,4.33-1.39,6.5-1.39a5,5,0,0,0-.3-1c-.18-.48-.11-.47-.59-.42-.32,0-.71.22-1,.29a7.49,7.49,0,0,1-1.48-.1,7.56,7.56,0,0,0-1.8.42c-.84.24-1.68.45-1.71,1.5m29.44-.18c-.44-.11-3.81-.68-3.22-1.49.3-.4,1.42,0,1.73.09.61.21,1.4.68,1.48,1.4m-24.49-1a4.07,4.07,0,0,1-1.92.61A19.4,19.4,0,0,1,75,44c.33-1,1.14-1,2-1.15a4.72,4.72,0,0,1,1.39-.23,4.79,4.79,0,0,0,1.3.15M68.77,43c1.51,2.28,3.69,5.22,3.18,8.13a2.68,2.68,0,0,1-1.72,1.77c.17-.59.5-1.13.62-1.73A11.17,11.17,0,0,0,71,48.9c-.27.53-.5,1.07-.79,1.6s-.41,1.14-.84,1.48c-1.16.92-2.41.66-3.81.61.55-.69,1.63-.79,2.37-1.23s1.56-.87,1.84-1.73a33.92,33.92,0,0,1-4.08,1.9c-1.12.35-2.63,1-2.86,2.3.65-.33,1.29-.76,1.95-1s1.15.43,1.76.56a10.62,10.62,0,0,1-1.89,1c-1,.59-.81,1.08-.56,2.09.11.45.23.53.62.76s.53.1,1-.12c.24-.11,1-.3,1.07-.55A3.12,3.12,0,0,0,67,55.33c.93.68.27,2.29-.74,2.46s-2.84.64-3.45-.53c-.45-.85-1.43-2.44-.83-3.46a15.35,15.35,0,0,1,2.31-2.93c-1.21.18-2.42.84-3.66.68A3.88,3.88,0,0,1,58.69,51c-.52-.4-.84-1.09-1.58-1.09.81-1.18,4.08.15,5.24.33,1.78.28,3.93-.06,4.92-1.79C65.56,49.22,64,50,62,49.53a22.79,22.79,0,0,0-5.9-.63c.75-1.29,2.43-1,3.66-.79,1.41.28,3.44.88,4.79.24a10.62,10.62,0,0,0,2.69-1.9c-1,.2-1.86.94-2.92,1.1-1.47.23-3-.36-4.48-.53A7.27,7.27,0,0,0,58,46.95c-.37.06-1,.36-1.33.21-.59-.24.21-1,.5-1.24,1.8-1.15,4.43-.08,6.36.16,1.2.14,2.11-.68,3-1.31s1.26-1.66,2.25-1.81m36.62,1.56a1.4,1.4,0,0,1-1,.25.77.77,0,0,1,1-.25m-25.24.19a7.14,7.14,0,0,1-2.23,1,6.33,6.33,0,0,1-2.47-.25c.48,1,1.84.86,2.72.67.44-.1,2.71-.57,2-1.41M69,45.93a3,3,0,0,0,.25,1.48c.34-.38.24-1,.25-1.48a4.13,4.13,0,0,0-.49,0m34.64.07c-.15.61.3.52.74.61,1.43.29,2.24,1.23,3.46,1.87.09-2.36-2.5-2.47-4.21-2.48M77.42,49.42c0-.23,0-.65.13-.8l1.22-1c.67-.56,1.12,0,1.87-.15-.68-.89-1.94-.3-2.79-.07s-.67.3-1,1a.73.73,0,0,0,.54,1m20-1.45a5.59,5.59,0,0,1-1.55,2.54A17.59,17.59,0,0,1,93.32,53a17.87,17.87,0,0,1-9.13,3.23A15.2,15.2,0,0,1,75.09,54,6.74,6.74,0,0,1,73,52.11a2.44,2.44,0,0,1-.5-1.19c0-.45.58-.43,1-.53a5.47,5.47,0,0,1-1.24-2c.94.13,1.63,1.18,2.24,1.81a7.87,7.87,0,0,0,2.36,2,13.78,13.78,0,0,0,6.32,1,17.35,17.35,0,0,0,11.73-5.36c.9-.9,1.62-.59,2.59.08m-8.66-.51c0,.3-.08.59.25.74a1.42,1.42,0,0,0-.25-.74m16.33.78c-.54.45-1.69.11-2.3,0a24.7,24.7,0,0,0-3.14-.53c.56-.53,1.66-.09,2.32,0a8.16,8.16,0,0,1,3.12.52m-17.32,0a2.61,2.61,0,0,0-.25,1,.61.61,0,0,0,.25-1m7.42,1.25a1.58,1.58,0,0,0,1.48-1.24,1.39,1.39,0,0,0-1.48,1.24m-8.41-1a4.76,4.76,0,0,0-.25,1.48,1.14,1.14,0,0,0,.25-1.48m14.84,1.26c-.67,4.16-4.61,7.91-8.43,9.27a29.25,29.25,0,0,1-4.72,1.7c-1.64.29-3.25.62-4.9.86a8.32,8.32,0,0,1-2.27-.17c-.77-.11-1.54-.13-2.31-.28a12.67,12.67,0,0,1-4.7-1.94C73,58.26,69.65,56.1,71,54.23c.63-.89,1.73,0,2.34.44a31.57,31.57,0,0,0,3.32,2.25,5.94,5.94,0,0,0,2.31.6,23.14,23.14,0,0,0,3.1.32,24.26,24.26,0,0,0,3.29,0A21.93,21.93,0,0,0,89,57a18.76,18.76,0,0,0,5.84-3.11c1.76-1.37,2.86-3.27,4.51-4.72.48-.42,1.81.27,2.34.54m-17.07-.28a2.23,2.23,0,0,0-.25,1.24,1,1,0,0,0,.25-1.24m1,0v.74a1.33,1.33,0,0,0,.49-.74,4.13,4.13,0,0,0-.49,0m21,.79c-.52.39-1.43-.08-2-.25.49-.47,1.51-.09,2,.25m-51.71-.35c.45.55,0,1.4.64,1.57a1.67,1.67,0,0,0,.66,0c.72-.09.7,0,1,.56A1.21,1.21,0,0,1,57,53.3c-.62.42-.7.37-1.44.21-.43-.09-.82-.29-.89-.79-.11-.79-.57-2.28.28-2.85m28.2.06a3,3,0,0,0-.25,1.24c.52-.25.62-.72.74-1.24a2.75,2.75,0,0,0-.49,0M93,51.68a1.42,1.42,0,0,0,1.24-1.24A1.26,1.26,0,0,0,93,51.68m23.48,7.22c-1.89.62-3.28,2.29-4.54,3.73a26,26,0,0,1-2.2,2.46c-.57.5-1.6,1-1.44,1.95a4.16,4.16,0,0,1-1.24-.74c-.12.77.13,1.55.06,2.33s-.06,1.58-.06,2.38c-.69-.44-.27-1.41-.74-2a16.74,16.74,0,0,0,0,3c0,1.21-.24,2.39-.24,3.59s0,2.32,0,3.47-.25,2.37-.26,3.55c-.7-.86-.18-2.82,0-3.79.25-1.85-.19-3.75-.19-5.61-.7.89-.55,2.19-.52,3.25.06,1.56-.24,3.11-.24,4.67-.52-.57-.31-1.61-.29-2.32a16.56,16.56,0,0,0-.44-3.62,4.28,4.28,0,0,0-.25,2.06c0,1,0,2,0,3.07a28.7,28.7,0,0,1-.73,5.26c-.61-.67-.16-1.94,0-2.72a13.28,13.28,0,0,0-.19-4,3.77,3.77,0,0,0-.52,2.12c0,.85-.2,1.69-.24,2.54-.09,1.74-.51,3.48-.51,5.23-.62-.68-.35-2.07-.28-2.89.13-1.5,0-3,.05-4.53-.8,1-.48,2.44-.51,3.63,0,1.52-.5,3-.5,4.53A2.8,2.8,0,0,1,100,88.1a19.61,19.61,0,0,0-.38-2,7.44,7.44,0,0,0-.41,2.51,20.65,20.65,0,0,0-.1,2.93c-.34-.4-.35-2.23-.74-2.23s-.61,4.55-.75,5.2a2.51,2.51,0,0,1-.32-1.54c0-.81-.2-1.6-.17-2.41a6.74,6.74,0,0,0-.36,2.63c-.1,1.11-.4,2.19-.4,3.31-.73-.69-.49-2.33-.48-3.22a6.92,6.92,0,0,0-.57,2.61c0,.54,0,1.61-.67,1.84v-2A6.17,6.17,0,0,0,93.91,98a2.28,2.28,0,0,1-.49-1,6.08,6.08,0,0,0-.5,2.72,3.39,3.39,0,0,1-.49-1.24,4.21,4.21,0,0,1-.49.74c-.6-1.19-.25-2.92-.24-4.21,0-1.66,0-3.33,0-5,0-3.38.11-6.76.18-10.14,0-1.66.2-3.32.3-5a40.51,40.51,0,0,1,.31-4.66,42.21,42.21,0,0,1,2.35-9.61,6.14,6.14,0,0,1,1.84-2.54,17.72,17.72,0,0,0,2.72-2.29,12.5,12.5,0,0,0,2-2.94c.23-.47.73-2.09,1.22-2.36s1,.15,1.36.28c.68.27,1.36.53,2,.78,1.56.53,3.13,1,4.63,1.69a17.49,17.49,0,0,1,2.17,1,9.76,9.76,0,0,1,1.57,1.43c.84.8,2,1.9,2.06,3.19m-2-7.19c-1.17-.37-2.28.29-3.46.24.37-.86,3.62-1.61,3.46-.24m-40.08-.08c0,.5.66,1.56,1.17,1.06s-.9-1-1.17-1.06m-13.12,1c-.17,1-.72,1.87-.35,2.88a6.51,6.51,0,0,0,1.87,2.87,3.5,3.5,0,0,0,5.38-.91,2,2,0,0,0,.37-1.5c-.07-.51-.17-1.27.61-.84a1.45,1.45,0,0,1,.51.79A3.87,3.87,0,0,0,70.67,57c.78.78,1.59,1.54,2.41,2.3a16.61,16.61,0,0,1,3.46,4.59c1.95,3.64,2.87,8,3.58,12.06.78,4.45,1.63,8.87,2.11,13.36A128.84,128.84,0,0,1,83,102.56c0,.36,0,.34-.4.31-1.23-.07-2.46-1.28-3.42-1.93a35.08,35.08,0,0,1-4.63-3.35,4.46,4.46,0,0,1-1-2.31c-.26-1.11-.56-2.21-.92-3.29q-1.16-3.53-2.43-7c-.79-2.17-1.88-4.24-2.81-6.34A66.49,66.49,0,0,0,64.08,72c-2.23-3.86-4.83-7.85-8.32-10.67-1.77-1.43-4-1.92-6-2.8a58.85,58.85,0,0,0-6.46-2.74A4,4,0,0,1,45.15,55,23,23,0,0,0,47.64,54c.89-.36,1.82-.56,2.71-.93s1.92-.91,2.91-.46c.74.34,1.13,1.37,1.87,1.78A2.08,2.08,0,0,0,57.68,54c.62-.43.35-2,1.16-1.89a20.3,20.3,0,0,0,2.49.45m28.45,1a2.35,2.35,0,0,0,1.48-1c-.66-.38-2,.07-1.48,1m-12.62,0c0,.59.5.81,1,1a1,1,0,0,0-1-1m8.91,1c.57,0,1.61,0,1.73-.74-.65,0-1.41.06-1.73.74m-6.19.48h1.48a.76.76,0,0,0-1.48,0m3.22-.48a1.34,1.34,0,0,0,1.73.25,1.37,1.37,0,0,0-1.73-.25M65,54.71c.68-.14.86.09,1.11.68a1.37,1.37,0,0,1-.53,1.25c-.66.28-.8-.33-1.09-.81s.14-.92.51-1.12M34.56,77.78c.69.14,1.35-.64,1.75-1.09.69-.75,1.47-1.43,2.2-2.16a58.37,58.37,0,0,0,4.57-4.82c1.39-1.74,2.91-3.35,4.16-5.2l1.84-2.77c.42-.64,1-1.48,1.85-1.5-.34,2-1.74,3.6-2.88,5.17-1.32,1.81-2.7,3.51-4.18,5.19S40.72,74,39.13,75.75a41.89,41.89,0,0,1-4.55,4.72c-.65.52-1.58,1.37-2.5,1.25,0-1.61,2.44-2.28,2.48-3.94-.78.77-1.53,1.57-2.36,2.31a2.69,2.69,0,0,1-2.9.52c-1.09-.27-2.14-.58-3.21-.92a11.67,11.67,0,0,1-2.83-1c-.52-.33-.19-.59.1-1,.66-1,1.66-1.77,2.43-2.68a33.35,33.35,0,0,0,2.37-3.14,70.82,70.82,0,0,1,4.62-6.49,16.88,16.88,0,0,1,2.58-2.79c.93-.7,2-1.31,2.93-2a25.9,25.9,0,0,1,3.51-1.86c1.23-.57,2.72-1.59,4.12-.95A15.8,15.8,0,0,1,48.8,59.4c1,.74-.23,2.09-.78,2.75-1.08,1.29-2,2.72-3,4.07s-2.28,2.9-3.48,4.29-2.47,2.65-3.71,4c-.55.59-1.12,1.18-1.69,1.76s-.92,1.19-1.58,1.54M119,61.62a4.27,4.27,0,0,1-2-1.73,2.12,2.12,0,0,1,2,1.73M93.73,60.09c0,1.45-.88,3-1.21,4.37a42.26,42.26,0,0,0-.9,5.33c-.17,1.76-.3,3.51-.45,5.27s-.1,3.54-.3,5.28c-.42,3.57-.1,7.22-.17,10.82,0,1.84-.17,3.68-.09,5.53s.32,3.59.32,5.41c0,.36-.06.27-.42.27a27.09,27.09,0,0,1-.4-3.84,34.69,34.69,0,0,0,0-5c-.24-1.64.16-3.3,0-4.95C90,86.76,90,84.9,90,83c0-3.57.32-7.14.26-10.7a40.72,40.72,0,0,1,.05-5c.09-.83.21-1.66.22-2.5a5.69,5.69,0,0,1,0-2.09c.31-.73.47-1.47,1.21-1.87a5.74,5.74,0,0,1,2-.74m22.27.29c.45.7,3.2,5.21,1.31,5.2-.4,0-1.37-2.37-1.55-2.69-.43-.77-1.32-2.31.25-2.5M55.38,62.49a21.9,21.9,0,0,0-2.11,1c-.45.18-.59.31-.78-.2a3.36,3.36,0,0,1,.16-2.18c.29-.53.48-.34,1-.15s1.63.71,1.74,1.48m29.12,40.63c-.94-.59-.45-2.36-.49-3.27-.1-2-.47-4-.47-5.95A46.56,46.56,0,0,0,83,88.27c-.24-2-.43-4-.86-5.92-.81-3.71-1.19-7.43-2.23-11.09-.52-1.83-.95-3.71-1.64-5.49-.34-.85-.75-1.67-1.15-2.49-.28-.57-.82-1.3-.68-2a4.52,4.52,0,0,1,2.75,1.25c.85,1.29,1,3.07,1.34,4.54.39,1.7.75,3.4,1.08,5.12.64,3.34,1,6.71,1.63,10.06s.4,6.89.83,10.3a83.68,83.68,0,0,1,.45,10.56m3.29-41.23a2.1,2.1,0,0,1,1.7,2.18c-.17,1-.3,2.26-1.27,2.88a7.22,7.22,0,0,1-3.13,1c-1.06.16-2.15-.63-3-1.14-1.76-1.06-1.61-5.08,1-4.53.58.13.77.52,1.09,1s.79,1.07,1.2.55l.6-.77c.15-.2.13-.47.31-.65a3,3,0,0,1,1.51-.51m26.47,0a8.42,8.42,0,0,1,.4,3.74c-.08.59-.21,1.18-.31,1.76,0,.2.06.79-.1.93-.37.32-1.7-.29-2-.42s-1.89-.66-1.78-1.18a3.89,3.89,0,0,1,.74-1.83c.77-1,1.84-2.61,3.09-3m-62.84.87c0,.82-.1,1.51.5,2.13.39.4,1.49-.46,1.93-.56.92-.22.3,1.46.12,1.86S52.51,67.23,52,67.56a4.34,4.34,0,0,1-2.2,1.1c-.53,0-.38-.14-.33-.55a8,8,0,0,0,.06-1.38c-.08-1.43.28-3.49,1.85-4m5.44.75c0,1.95-1.29,4.13-2.13,5.83-1,2-2.27,3.84-3.29,5.83a54.67,54.67,0,0,1-7.24,10.81,1.82,1.82,0,0,1-.92.67c-.89.13-.84,0-.84-.84,0-.71.86-1.41,1.3-1.87a26.18,26.18,0,0,0,1.89-2.52c1.52-2.1,2.94-4.26,4.32-6.46s2.73-4.31,4-6.52c.57-1,1.07-2,1.57-3.09.24-.51.54-2,1.34-1.83m12.8,31.7c-.13,0-1,.33-1,.19-.19-.51-.46-1.92-1.13-1.92-.2,0-.12.8-.08,1-1.11-.64-1.38-2.83-1.72-4a4.56,4.56,0,0,0,0,3c-1.46-1-.92-3.35-2.22-4.45a31.33,31.33,0,0,0,.73,4c-1.77-1.41-.95-4.73-3-5.94A9.17,9.17,0,0,1,62,90.72,3.57,3.57,0,0,1,61,89c-.33-.9-.72-1.77-1-2.69-.54,1,.23,2.19.24,3.22a3.72,3.72,0,0,1-1-1.92c-.3-.93-.62-1.85-.92-2.78-.38.75,0,2,.24,2.72A2.73,2.73,0,0,1,57.6,86a12,12,0,0,1-.78-2.21,3,3,0,0,0,0,2A2.34,2.34,0,0,1,56,84.65a10.43,10.43,0,0,0-.89-1.37c-1-1.42.41-3.46,1.49-4.42s2.93-2.23,3.21-4a15.31,15.31,0,0,0-2.63,2.36c-.2.18-1.29.86-1.58.59s-.19-1.43-.28-1.89a5.84,5.84,0,0,1-.21-1.48c0-.16.14-.71,0-.84s-.49-.07-.49.11c0,1.37,0,2.73,0,4.1a4.36,4.36,0,0,1-.74-2.23,7.92,7.92,0,0,0-.51,3.46c-.69-.74-.4-2-1.24-2.72a27.62,27.62,0,0,1,.24,4.7c-.53-.35-.6-1.19-.69-1.76a6.63,6.63,0,0,0,0-.89c0-.13-.5-.08-.5-.06,0,1.4,0,2.8,0,4.2a4.53,4.53,0,0,1-.6-2.75,7.09,7.09,0,0,1,1.09-3.19c.61-1.31,1.33-2.56,2.06-3.81a39,39,0,0,0,2-3.8c.57-1.31,1.08-2.64,1.71-3.92.27-.53.69-.11,1,.25a24.07,24.07,0,0,1,2.92,3.91c.94,1.51,1.84,3,2.69,4.62a95,95,0,0,1,4.47,9.4,91.14,91.14,0,0,1,3.39,9.81c.16.56,1.41,4.37.5,4.37a2.47,2.47,0,0,1-2-.84,3.47,3.47,0,0,1-.8-1.42m46.57-27.87A2,2,0,0,1,115,69c.21-.67.42-1.6,1.24-1.73m-27,.19c-.54,3.29-7.06,3.71-7.67.24,1.28.17,2.36,1,3.71,1s2.6-1,4-1.24m-40.82.17a10.49,10.49,0,0,0,.25,2.72,4.66,4.66,0,0,1,2.51-.89c.66,0,.37.49.26.92a4.17,4.17,0,0,1-.54,1.45,9.1,9.1,0,0,1-5.2,2.71,21,21,0,0,1,.38-4.09c.24-1.26.86-2.79,2.35-2.83m8.9,2c-.24,1-.28,1.95-.44,2.93s-.5,1.89,0,2.72,1.77-1.46,1.91-1.69c.44-.73,1.06-1.84.74-2.71a5.83,5.83,0,0,0-1.48,1.73,6.47,6.47,0,0,1-.24-2c0-.46.14-1-.5-.94m30.18.95c.25.1,1,.23,1.11.47a3.18,3.18,0,0,1,.43,2.28,8.42,8.42,0,0,1-.31,2.07,2.57,2.57,0,0,1-2.52,1.27,4.52,4.52,0,0,1-2.71-1c-.51-.32-.86-1.92-.85-2.54,0-.79.28-2.07,1.26-2.13s.91,1.69,2,1.64c.89,0,.82-1.82,1.62-2.09M44.46,76.07c1-.14,1.87-.76,3-.74a3,3,0,0,1-.51,2,8.61,8.61,0,0,1-2.75,1.52A11.44,11.44,0,0,1,41,80a12,12,0,0,1,1.2-5.87A5.93,5.93,0,0,1,43.41,73c.18-.16,1.12.07,1.26.27.56.87-.39,1.88-.21,2.76M89,76.9a2.85,2.85,0,0,1-2.52,2.26c-1.21,0-2.72-.65-2.93-2a10.46,10.46,0,0,0,2.75.51c1,0,1.76-.59,2.7-.74M39.5,81.26c1,.28,2.15-.54,3.08-.82a1.29,1.29,0,0,1,1.26.09c.51.49.21,1,0,1.54a3.84,3.84,0,0,1-2.39,1.73,4.18,4.18,0,0,1-3.25.24c-.8-.29-1.95-.7-2-1.66A5.56,5.56,0,0,1,37,79.29a4,4,0,0,1,1.13-1.11c.59-.38.91-.14,1.5.13.83.38,0,2.36-.1,2.95m-9.9.47c-.22,1.16-1.47,1.91-2.3,2.63a31.68,31.68,0,0,0-3.17,3.35,45.68,45.68,0,0,0-5.33,7.36,58,58,0,0,0-6.32,16.21,28.11,28.11,0,0,0-.87,5.19c0,1.6,0,3.21,0,4.81,0,4.83,0,9.66,0,14.49a36.2,36.2,0,0,0,.78,6.35,35.91,35.91,0,0,1,.93,5.95c0,2.15-2-3.17-2-3.17a10,10,0,0,1-.34-3.22c-.32-7-.15-14.1,0-21.15,0-2.28,0-4.53,0-6.81s.13-4.54.13-6.82,0-4.73,0-7.1-.12-4.44.06-6.65a19.49,19.49,0,0,1,3-8.23c.74-1.26,1.55-2.47,2.37-3.69.52-.78,1-2.12,2-2.32,1.91-.36,3.92.45,5.7,1.06a29.81,29.81,0,0,0,5.39,1.74m58.61-1.8a3.59,3.59,0,0,1,.4,4.22,3.06,3.06,0,0,1-2,.91c-.93.13-1.25-.53-1.66-1.19a3.73,3.73,0,0,1-.88-2.2c0-.47.45-1.73,1.09-1.58s.8,1.48,1.58,1.27c.3-.08.54-.76.66-1,.22-.38.45-.37.84-.45M49.9,79.79a5,5,0,0,1,.25,2.36c0,1.11,0,2.23,0,3.34-.61-.67-.42-1.92-.57-2.75s-.56-2.21.34-2.94m54.67,1.59v2a1.86,1.86,0,0,1,0-2m-55.67.14c0,1.07,0,2.15,0,3.22-.59-.63-.79-2.67,0-3.22m-17.07,1c.08.92-1.67,1.71-2.3,2.18a21.37,21.37,0,0,0-3.12,3.23,53.85,53.85,0,0,0-5.09,7.21,60.08,60.08,0,0,0-6.81,16.54,53.55,53.55,0,0,0-1.22,9.05c-.25,3-.1,6-.1,9s.25,6.1.39,9.14a29.69,29.69,0,0,0,.34,4.5c.33,1.56.67,3.11,1,4.68s.59,2.95,1,4.39c-.91-.45-1.09-1.64-1.35-2.51a47.77,47.77,0,0,1-1.13-4.7,69.93,69.93,0,0,1-1.1-9.41c-.08-1.54-.32-3.07-.37-4.61s0-3.35,0-5c0-3.22,0-6.43.29-9.64a46.08,46.08,0,0,1,2-9.16,52.87,52.87,0,0,1,3.23-8.48,45.55,45.55,0,0,1,4.5-7.44c.86-1.14,1.8-2.21,2.64-3.36a37.46,37.46,0,0,1,2.71-2.9C28.36,84,30,82,31.83,82.48m1.23,3.71a4.31,4.31,0,0,1,.16-1.47c.13-.4.46-1.15.89-1.3.75-.26,2.57.6,3.15,1,.19.15.84,1,.47,1.14a5.76,5.76,0,0,1-2.16.41c-.84.07-1.67.18-2.51.18m14.85-2.94c0,1.16,0,2.31,0,3.46a2.51,2.51,0,0,1-.29-1.4c-.08-.69-.14-1.39-.2-2.07a4.13,4.13,0,0,1,.49,0m6.18,1C55,85.68,56,87,57,88.4s2,2.5,2.9,3.82a3.82,3.82,0,0,1,.41,2.66,31.89,31.89,0,0,1-.56,3.74,3.92,3.92,0,0,1-1.22,1.78,26.48,26.48,0,0,0-1.93,2.14c-1.28,1.62-2.37,3.38-3.56,5.07-.47.66-.68.44-.89-.28a10,10,0,0,0-2.21-4.17,29.5,29.5,0,0,1-2.7-4.23,4.79,4.79,0,0,1-.29-2.9c.28-2.37,2.29-4.42,3.58-6.31a25.57,25.57,0,0,0,1.89-3,6,6,0,0,1,1.7-2.42m-7.17.24c0,1.16,0,2.31,0,3.46a1.65,1.65,0,0,1-.27-1.17c0-.54-.22-1-.22-1.59s-.14-.81.49-.7M31.57,87.43a16.84,16.84,0,0,1,2.23-.25c-.2,1.06-1.46,1.76-2.36,2.16a13.54,13.54,0,0,1-3.35,1.3c0-1.43-.21-3.61,1-4.72.85-.79,1.23-1.07,2.35-.67.69.25.26,1.67.16,2.19m53.2-2.13a14,14,0,0,0,1.94.52,10.86,10.86,0,0,0,2-.27c0,1.1-1.3,1.47-2.23,1.48-.72,0-2.28-.86-1.73-1.74M45.92,86a13.94,13.94,0,0,0,0,2.23c-.55-.52-.44-1.54-.49-2.23h.49m0,11.13a4.36,4.36,0,0,1-2-1.51c-.73-.74-1.4-1.54-2.09-2.33C40.66,92,39.07,91,38.25,89.42c.76-.14,2.46-.52,3,.25a9.24,9.24,0,0,1,1.7,3,3.13,3.13,0,0,0-.51-2.74c-.26-.26-.7-.92-1.06-1-2.28-.31-4.58-.65-6.76.29A8.85,8.85,0,0,0,32,91.86a26.07,26.07,0,0,0-2.4,3.56,46.25,46.25,0,0,0-3.36,7.7c-1,2.95-1.87,5.95-2.61,9a33.37,33.37,0,0,1-1.14,4.15,17.11,17.11,0,0,0-.93,4.51c-.18,1.49-.54,3-.75,4.46s-.25,3.15-.48,4.71a29.38,29.38,0,0,0-.19,4.28,24.37,24.37,0,0,0,.26,4.65c.57,3.06,1,6.12,1.74,9.14A91.07,91.07,0,0,0,25,157.08c.74,2,1.45,4,2.32,6,.76,1.7,2.13,3.42,2.4,5.3-1.15-.38-1.65-1.58-2.2-2.55-.78-1.41-1.53-2.81-2.23-4.26a55.62,55.62,0,0,1-3.22-8.82c-.84-3-1.82-5.87-2.43-8.88a44.21,44.21,0,0,1-1-8.84,75.3,75.3,0,0,1,2.45-18.31A127,127,0,0,1,26.66,99a35.07,35.07,0,0,1,2.76-5.26,27.73,27.73,0,0,1,3.41-4.68A8.87,8.87,0,0,1,38.6,87a7.15,7.15,0,0,1,3.47.51c1.29.63,2.1,2.84,2.63,4.08a15.58,15.58,0,0,1,1.2,5.53m40.35-7.59c1,0,2.2-2.71,2.81-.85a6.59,6.59,0,0,1,0,2.07c0,.79-.7,1.17-1.33,1.36a3.65,3.65,0,0,1-2-.23C85,91.7,85,90.53,84.88,90a1.33,1.33,0,0,1,.63-1.73c.65-.33.73.83.73,1.22M101.34,89v.74a.54.54,0,0,1,0-.74M41,98.08c.65.48,2,.65,1.92-.49A11.77,11.77,0,0,0,42,94.86c1,.28,3.18,2.43,2.58,3.46A7.63,7.63,0,0,1,43,99.83c-.64.62-1.26,1.3-1.86,1.95a38.53,38.53,0,0,0-3.45,4.45c-.53.77-.91,1.46-2,1.29a4.36,4.36,0,0,1-2.23-1c1.2-.57,2.69-.56,4-1-.57-1.32-1.79-2.33-2.22-3.71,1.4,0,2.95.53,4.28.15.68-.2-1.16-3.35-1.3-3.85.89-.22,1.8.15,2.7,0-.56-.31-3.19-1.19-3.5-.55-.65,1.34,1,2.43,1,3.76a17.13,17.13,0,0,1-3.1-.32c-1.56-.27-1.12,1.23-.62,2a11.66,11.66,0,0,1,.8,1.41c.28.62,0,.71-.58.89a9,9,0,0,1-3,.42,9.12,9.12,0,0,1-3.18-1c-1-.49-1.62-1.09-1.47-2.29a16,16,0,0,1,2.1-5.52,41.67,41.67,0,0,1,3.14-5.12c1.13-1.53,2.27-2.67,4.28-2.06A8.24,8.24,0,0,1,39,91.38c1.43,1.15,1.64,3.1,2.29,4.72.3.67.69,1.69-.29,2m19.57-8.37-.25.25.25-.25M27.11,92.37c.53-.3,1.4-.95,2-.38s-.27,1.65-.61,2.07a8.24,8.24,0,0,1-1.91,1.89A6,6,0,0,1,24.18,97c-.76,0-.14-4.51,0-5.16s1-1.64,1.77-1.56.62.11.79.7.22.89.34,1.34m35.14-1.42L62,91.2l.25-.25M89,93c-.33,2.14-3.67,1.72-4-.26a11.77,11.77,0,0,1,2.1.43A7.36,7.36,0,0,0,89,93m-.25,2.23a3.42,3.42,0,0,1,.13,3.38c-.22.36-.88,1.12-1.4.86S86,99,85.74,98.51a3.05,3.05,0,0,1-.45-1.92c0-.53.06-1.5.76-1,.47.36.85,1.24,1.47.74.47-.37.49-1,1.19-1.16M22.89,99c.53-.32,1.65-1.17,2.27-.79.77.47.32,1.95,0,2.52A13.36,13.36,0,0,1,22.9,103a4.54,4.54,0,0,1-2.24,1.25c-.25-.9-.45-1.81-.63-2.72a8.13,8.13,0,0,1,.22-3,5.09,5.09,0,0,1,.52-1.22c.15-.31,1-.32,1.35-.39.85-.18.7,1.58.77,2.15m51-.89c2.15,1.49,4.22,3.09,6.42,4.49a30.09,30.09,0,0,0,3.39,1.91c1,.47,2.07,1.23,3.21,1.14,1.31-.1,2.8-1.38,3.84-2.09s2.46-2.15,3.91-2.21c-.68,1.19-2.09,1.89-3.19,2.62A20.33,20.33,0,0,1,87,106.27c-1.16.43-3-.74-3.94-1.26-1.73-.9-3.42-1.89-5.07-3-.69-.43-4.74-2.88-4.12-3.92M37.72,108c.42-1.48,6.66-10.41,8.16-8.71.08.09.53.49.47.6A14.66,14.66,0,0,1,44,102.56a19.26,19.26,0,0,0-2.14,2.68c-.65,1-2.1,3.83-3.72,2.95l-.45-.22m48-8.08a5,5,0,0,0,1.52.46c.65,0,1.3-.18,1.94-.2-.34,1-1.22,1-2.13,1.21-.59.15-1.73-.81-1.34-1.46m-32.5,45.47c-2.43,0-3.18-2.78-4.24-4.42-.55-.85-1.82-.84-2.7-1.09a6.35,6.35,0,0,1-2.94-1.78,5.18,5.18,0,0,1-1.51-3.1c-.2-1.43.78-3.25,1.21-4.57a36.85,36.85,0,0,1,2-4.95c.8-1.61,1.39-3.32,2.06-5s1.52-3.35,2.36-5a85.77,85.77,0,0,1,5.62-9.63c.81-1.21,1.54-2.43,2.46-3.57.38-.47,1.48-2.13,2.27-1.74a10.63,10.63,0,0,1,3,2.45c1,1.06,2,2.11,2.89,3.21.46.53.21,1,0,1.58a36.91,36.91,0,0,1-1.83,3.85c-.62,1.5-1.28,3-1.86,4.51-1.24,3.21-2.3,6.49-3.39,9.76s-2,6.57-3,9.89-1.56,6.42-2.46,9.6M40.44,109c-.25-1,1.12-2.39,1.72-3.09,1-1.18,1.92-2.51,3-3.61.36-.35,1.78-2,2.39-1.38.81.85-1.26,2.82-1.75,3.36-1.4,1.51-2.47,3.36-4,4.69-.31.24-1,0-1.34,0m48.09-6.69c.5.27.8.24.7.81a1.39,1.39,0,0,1-.68.85c-.63.33-2,1.16-2.7.42-.51-.54-.45-2,.51-1.68.32.11.75.63,1.08.6s.87-.77,1.1-1m-43.91,20.8c0-2.37-.79-4.64-1.12-7a16.24,16.24,0,0,1-.3-3.45,20.24,20.24,0,0,0,0-3.63c-.06-.63.54-1.28.87-1.77a21.91,21.91,0,0,1,1.45-1.87c.7-.83,1.56-2.53,2.8-2.57.93,0,1.86,1.46,2.17,2.16a8.18,8.18,0,0,1,.95,4.76,10.46,10.46,0,0,1-1.5,3.19c-.73,1.22-1.35,2.51-2,3.79s-1.07,2.49-1.65,3.71c-.34.74-.82,2.45-1.74,2.66m-25-17.36c.88,0,1.45-.87,2.23-1.14,1-.36,1.76.14,1.39,1.27a7.34,7.34,0,0,1-3.87,3.82c-1.44.49-2-3.4-1.84-4.33a2.9,2.9,0,0,1,.39-1.18c.24-.44,1.19-1.11,1.53-.41a4.36,4.36,0,0,1,.18,2m7.92,0c0,1,.18,1.89.2,2.85a14.8,14.8,0,0,0,.29,3.1c.78-1.59.51-3.73.51-5.44,1.15.37.68,2.73.55,3.57-.18,1.12-.54,3.4.67,4.11,0-1.3.05-2.59.08-3.89a7.38,7.38,0,0,1,.43-3.29,2.12,2.12,0,0,1,.29,1.93,20.62,20.62,0,0,0-.05,2.82c0,2,0,4,0,6s0,4.15,0,6.22a36.14,36.14,0,0,1,0,5.67c-.19,1.16-1.45,1.09-1.95,2,.35.09,1.42.24,1.61.55a4,4,0,0,1,.35,2.31c0,1,0,1.9,0,2.84A4.18,4.18,0,0,0,31,134.5c0-1.11.06-2.21.08-3.32s.19-2.15.18-3.23S31,125.8,31,124.71s.25-2.14.25-3.23,0-2.18,0-3.27c0-2.25,0-4.49.08-6.74a1.41,1.41,0,0,1,.91-1.16c.33-.12.47-.19.62.13.27.52-.56,1.37-.69,2a13.57,13.57,0,0,0-.19,2.83c0,2.29-.32,4.84.24,7.08.87-1.28.59-3.09.53-4.53-.08-1.7-.33-3.8.49-5.36a2.1,2.1,0,0,1,.25,1.45,17.76,17.76,0,0,0,0,2.51c.17,1.56-.17,3.16.21,4.7a4.41,4.41,0,0,0,.52-2.68c0-1.25,0-2.49,0-3.73a10.64,10.64,0,0,0-.24-2.5,1.13,1.13,0,0,1,.88-1.55c.28-.07.63,0,.55-.36a4.26,4.26,0,0,1-.2-1c0-.42.88-.46,1.24-.53a10.37,10.37,0,0,0,.21,2.28c0,.92-.22,1.84-.22,2.76,0,1.95,0,3.91,0,5.86v3.94H36c-.12,0-1,0-1,0a3.24,3.24,0,0,0-.18-1.24c-.39-.59-.56-.34-1.14,0-.37.21,0,.84.25,1.06.48.48.79-.07.79.73s-.33.42-.74,0c-.28.82-.53,1.66-.85,2.47a5,5,0,0,0-.64,2.47c.18-.11,1-.38,1-.14.15.47.33.92.46,1.39a6.1,6.1,0,0,0,.65-1.09c.21-.42,0-.36.48-.32A8.68,8.68,0,0,1,36,129c0-1.39-.9-2.86-1.23-4.21a2.34,2.34,0,0,0,1.2.07c.5-.12.46.45.51.85a21.87,21.87,0,0,1,0,2.79c.6-.29.69-.94.73-1.53,0-.31,0-.61,0-.91,0-.57,0-.51.55-.51.38,0,.19.71.19.93,0,.38.24.31.54.31.47,0,.07-1.09.94-1-.14.77-.73,1.43-.74,2.23,1.07.06,2.14.19,3.21.27.43,0,1,0,.94.52-.26,1.32-.83,2.61-1.22,3.9s-.82,2.83-1.19,4.26c-.7,2.76-1,5.6-1.61,8.39s-1,5.64-1.55,8.44c-.31,1.49-.67,3-.91,4.47-.16,1-.68,2.24.16,3.12a12.25,12.25,0,0,0,2.53,2.15c1.28.79.8,1.56-.07,2.45a13.23,13.23,0,0,1-5.74,3.08A2.12,2.12,0,0,1,30.49,168a62.67,62.67,0,0,1-4.74-10.59c-.72-1.89-1.34-3.79-1.89-5.74-.41-1.44-1.4-3.2-1.28-4.71,0-.49,0-.27.37-.47a4.49,4.49,0,0,1,.62-.18,9.84,9.84,0,0,0-1.38-2.5c-.18-.29-.53-.89-.15-1a3.55,3.55,0,0,1,1.29-.17c0-1.06-1.12-.7-1.38-1.33a10.74,10.74,0,0,1-.6-2.14c.91.46.74.1.74-.72,0-3-.09-6.07,0-9.08.06-1.46.24-2.91.24-4.37a21.56,21.56,0,0,1,.26-4.37c.53.46.49,1.28.49,1.92,0,1.16,0,2.33,0,3.48,0,2.14-.25,4.27-.29,6.4,0,1.67,0,3.34-.05,5,0,1-.25,2.87.8,3.47,0-4.84.21-9.67.31-14.51,0-2.43-.07-4.87-.11-7.3,0-1.15,0-2.31,0-3.45s-.06-2.35.56-3.2a4.62,4.62,0,0,1,.49,1.73,6.53,6.53,0,0,0,.73-3.33c0-.71-.11-1.41-.1-2.12a8.53,8.53,0,0,1,.38-2c.37.41.23,1,.24,1.54,0,.67.11,1.33.08,2s-.52,2.26-.08,2.89c.07.11.57.17.73.37a1.55,1.55,0,0,1,.26.88,1.06,1.06,0,0,0,.91-1.65c-.2-.31-.7-.45-.85-.77a4.45,4.45,0,0,1-.13-2.2c.07-1.08.08-2.15.08-3.23,0-.62-.22-.89.47-.84m4.21,1.5c.69.6,1,2.28-.25,2.47,0-.71-.23-1.87.25-2.47m35.63.56c.58,1.1-.49,2.62-.92,3.6-.64,1.46-1.22,3-1.75,4.47-1.1,3.14-2.14,6.34-3.1,9.52s-1.93,6.58-2.84,9.9-1.61,6.55-2.4,9.85c-.2.81-.18.73-1,.59-.48-.08-1,.09-.95-.45.12-3.31,1.25-6.57,2.08-9.77.91-3.48,2-6.9,3.18-10.3s2.24-6.74,3.53-10a42.15,42.15,0,0,1,2.07-4.81c.32-.58,1.21-2.72,2.07-2.56M37.72,109c.67,1,.34,2.32.46,3.47,0,.29.49.41.54.11a18,18,0,0,0,.23-3.09c.82.13.75,1.37.74,2a7.19,7.19,0,0,0,.74-1.21c.26-.51.33-.56.87-.33,1.07.47,1.14,1.75,1,2.79-.06.48-.51.67-.67,1.1s.25.92.6,1.39c.65.86,0,2.06.15,2.95-1.24-.75-.56-3.75-2.22-4a6.74,6.74,0,0,1-1,2.47,1.37,1.37,0,0,1,.5-2.23c-.67-1.18-2.21-.74-2.47-2.23a5.28,5.28,0,0,1,.51-3.23m-19.56,2.93c.73-.39,1.28-1.2,2-1.51.11,0,1.15-.4,1.17-.17a5.19,5.19,0,0,1,0,1.56c-.41,1.89-2,3-3.36,4.19-.39.36-.45.45-.81,0a6.85,6.85,0,0,1-1.1-2.9,5,5,0,0,1-.09-2.68c.12-.27.78-.84,1.08-.82.8,0,.92,1.76,1,2.31m23.26-1.43a2.23,2.23,0,0,0-.25,1.24.71.71,0,0,0,.25-1.24m-6.19,1a45.94,45.94,0,0,0-.33,6.28c0,.85-.42,3.57.8,3.86,0-1.65,0-3.3,0-4.95s.17-3.1.06-4.6c0-.43,0-.72-.54-.59m4.7,2.24a1,1,0,0,0,.91-1.53c-.3-.48-.71.06-1,.28s0,1,0,1.26M24.53,145.31c.57,0,.49,0,.49-.51q0-3.33,0-6.64a33.67,33.67,0,0,1,.26-6.7c.81.25,2,.12,2-1a4.45,4.45,0,0,0-2,0c0-3.7,0-7.42,0-11.13a1.29,1.29,0,0,1,1.24,1.24l-.49-.25c0,3,0,6.11,0,9.15,1-.15.8-2.3.78-3a30.33,30.33,0,0,0-.27-5.2c.58,0,.84-.6,1.08-1s.91-.57,1.15-1.07c.47-1-.56-2.35-.48-3.35,1,.2,2,0,2-1.24a5.77,5.77,0,0,0-3,.73c-.09-.29-.5-1-.88-.83-.87.35-1.69.45-1.86,1.53a22.47,22.47,0,0,0,0,3.36c0,3,0,6,0,8.95a24.83,24.83,0,0,1-.14,4.12,26.53,26.53,0,0,0-.13,4.07c0,2.94.1,5.83.22,8.75m13.18-30.9c.48.41.38,1.07.3,1.61a17,17,0,0,0-.06,2.56c0,1.35.39,3-.26,4.24-1.06-.63-.54-3.13-.49-4.13s-.61-3.54.52-4.28m-21,3.67c.73-.15,1.26-1.06,1.94-1.13.48,0,1-.33,1.06.22a2.84,2.84,0,0,1-.07,1.42,8,8,0,0,1-3.25,3.86c-.59.37-.94-1.08-1.13-1.5a8.52,8.52,0,0,1-.77-2.87c-.06-.59.17-1.88,1-1.94s1.1,1.37,1.25,1.95m10.14-2.2a12.26,12.26,0,0,1-1.49,3c-.41-.43-.07-1.39,0-1.9.11-.88.79-.91,1.49-1.07m2.47.5a3.79,3.79,0,0,0-.07,2.18,13.34,13.34,0,0,1-.12,2.51c-.08,1-.07,2-.08,3,0,.39-.08,5.19.08,5.19.55,0,.27,0,.42-.4.57-1.61.25-3.73.26-5.41,0-.75,0-1.5,0-2.25,0-.35.07-4.81-.08-4.81h-.43M84,117.47a5.59,5.59,0,0,1-.93,2,8.48,8.48,0,0,1-1.35,2c-.78.73-1.37,0-2.15-.46-.5-.31-.53-1.51-.52-2a3.3,3.3,0,0,1,.72-2.23c.16-.24.72.07,1,.15s.21.67.31.89.51,1.42,1,1.22c.83-.32.73-1.54,1.9-1.5m-44.53,1.15c.71,1-.12,1.7,0,2.72-1.12-.22-.76-2.29,0-2.72m2,0a2.83,2.83,0,0,1,.82,1.12l.42,1.61c-1.31,0-.62-1.77-1.73-2a1.37,1.37,0,0,1,.49-.75m-.5,1c0,.48,0,1.41-.74,1.24a2,2,0,0,1,.74-1.24M28,120.32c-.65.82-.5,1.94-.5,2.91,0,1.34,0,2.67,0,4,1.16-.22.74-2.24.75-3,0-1.09.56-3-.25-3.9m14.35,2.51c-.84.43-2-.26-1.48-1.24.59.14,1.4.57,1.48,1.24m-3-.51c-.34.6-.62-.23-.74-.49a1.59,1.59,0,0,1,.74.49m41.07.57a1.24,1.24,0,0,1-1,1.2c-.62.09-.53-1.21-.53-1.69a10,10,0,0,1,1.48.5m-64.82,1.36c.72-.13,1.25-.89,1.81-1.31.82-.6,1.2.5,1.06,1.19a14.11,14.11,0,0,1-2.18,4.24c-.56.9-1-.21-1.34-.73a6.35,6.35,0,0,1-1-2.31c-.1-.78-.34-1.75.33-2.31s1.23.54,1.31,1.23m27.71-.93c.35.52.45,1.09-.08,1.47a2.28,2.28,0,0,1-2.08.66c-1.29-.12-2.47-.88-3.78-.91.33-2,3.16-.73,4.4-.85.5,0,1-.3,1.53-.38M32,127.51c.55.13.51-.2.57-.61a6.72,6.72,0,0,0,.12-1c0-.18-.18-.62-.1-.8.22-.48,1.09-.6.48-1.28s-2,0-1.48.87a5.68,5.68,0,0,1,.42,2.82M43.62,126a1.46,1.46,0,0,1-1.54,1.48,5.37,5.37,0,0,1-2.41-.25c.62-1.26,2.78-1.2,4-1.24m-16.08,4.42a1.4,1.4,0,0,0,1-.74c.23-.57-.2-.66-.62-.94-.88-.57-.65,1.26-.34,1.68m-11.88,0c.71-.15.93-.86,1.48-1.24,1-.68.9.48.79,1.18-.18,1.15-.86,2.93-2,3.4-.65.26-.75-.43-1-1a6.06,6.06,0,0,1-.79-2c0-.25-.09-2.11.46-1.87a1.87,1.87,0,0,1,1.13,1.45M32,129.74c0,1.73,0,3.46,0,5.2.59-.44.7-1.84.71-2.51S33,130,32,129.74M33.47,131c0,.6-.3,1.35.49,1.24a1.55,1.55,0,0,0-.49-1.24m-5.94.24c-.21.72-.45,1.44-.69,2.16a10,10,0,0,0-.72,2.15c0,.29-.15.47.17.64a.63.63,0,0,0,.74-.25c.2.6.48,1.86,1.24,2a5.17,5.17,0,0,1,.5-2,2.61,2.61,0,0,0,1,.25c0-1.48-.95-2.89-1.33-4.31-.19-.66-.17-.64-.89-.64m-9.91,3.44a3.83,3.83,0,0,1-.37,2.53c-.11.28-.68,2-1,1.88-1.7-.58-2-2.66-1.87-4.18.64,0,1.2.68,1.73,1a1.72,1.72,0,0,1,1.48-1.23M29,137.15a7.36,7.36,0,0,0,0,2,1.08,1.08,0,0,0,.56-1.1c0-.48.08-1-.56-.88m12.62,0a10,10,0,0,0,3.09,2.72,8.62,8.62,0,0,0,2,.85c.55.15,1.28.14,1.6.68.43.7.7,1.43,1.2,2.1a8.93,8.93,0,0,0,1.87,2,6.86,6.86,0,0,0,2.69,1,5.05,5.05,0,0,1,2.46,1.4,8.6,8.6,0,0,0,5.65,2.41c.21,0,.73.14.39.49s-2.76-.19-3.16-.32c-1.65-.55-2.71-1.66-4-2.69a4.87,4.87,0,0,0-2.22-.79,7.17,7.17,0,0,1-2.39-1.12c-1.38-.94-1.91-2.39-3-3.51s-3.13-1.41-4.51-2.28c-.64-.42-1.86-1.72-1.76-2.57a.65.65,0,0,1,.13-.35M26,137.4c-.2,1-.94,5.4.48,5.69,0-1.13,0-2.25,0-3.37,0-.74.2-1.81-.49-2.32m9.27.26c-.17.38-.59,1.91.45,1.52.25-.09.32-.83.38-1.07s-.57-.37-.83-.46m-7.79,1a20.82,20.82,0,0,0,0,2.72,2,2,0,0,0,0-2.72m-9.65,1c.67,1,.21,2.13-.1,3.18,0,.19-.38,1.28-.5,1.26a2.11,2.11,0,0,1-1.33-.84,3.68,3.68,0,0,1-1.2-2.9c.06-.69.53-.35.91-.1s.79.62,1.24.88c.13-.57.19-1.62,1-1.47m15.59,0a3.34,3.34,0,0,0,.21.89c.09.2.77-.08,1-.13.41-.11-.07-.57-.25-.65a2.8,2.8,0,0,0-.91-.11m3.46,0c-.56.34-.14,1.32.49,1s.12-1.11-.49-1m-1.73.24c-.27,1.59-1,3.12-1.25,4.7a3,3,0,0,0,1.24-.25,6.11,6.11,0,0,0,.49,1.73c.75-.54.54-2,1.73-2-.17-1.25-1-2.41-1.33-3.64-.16-.65-.23-.55-.89-.56m11.87,3a1.81,1.81,0,0,1,.13,1.4c-.24.58-1,.1-1.61.08.26-.58.81-1.38,1.48-1.47m-28.2,1.18c.54,1.64-.26,3.39-.75,4.95-1.43-.3-2.16-2.1-2.83-3.21a4.43,4.43,0,0,1-.13-1.5c1,0,1.73.93,2.47,1.48.22-.6.41-1.88,1.24-1.72m10.38,5.7c.27,0,.74-.27.74-.59s.18-1-.2-1.18c-.9-.41-.72,1.38-.54,1.77m25-1.68a3.81,3.81,0,0,1,.25,1.73,8.5,8.5,0,0,0-1.73-.25,2.15,2.15,0,0,1,1.48-1.48m-34.4,5.62c-1.29,0-2.86-1.57-3.3-2.73-.19-.48-.33-1.87.43-1.62a12.15,12.15,0,0,1,1.64,1.13,9.2,9.2,0,0,1,.7-1.67c.38-.6,1.09,1,1.13,1.14a3.06,3.06,0,0,1-.17,1.65c-.14.7-.29,1.41-.43,2.11m7.67-3.45c-.16.84.9.74,1.48.74a.94.94,0,0,0-1.48-.74m2.72.75c.38.2,1.85.29,1.4-.42s-1.26-.32-1.4.42m8.66-.73c2.88,2,5.58,4.28,8.55,6.16A48.05,48.05,0,0,0,52.07,159c1.06.51,2.82.78,3.53,1.79.89,1.28-1.45.65-2,.41-1.47-.61-1.82.23-2.26,1.45a19.35,19.35,0,0,0-.65,2.33,4.27,4.27,0,0,0-.29,1.92c.13.5.62.7.83,1.13.67,1.35-1.25.86-1.81.58-2.22-1.09-4.41-2.17-6.55-3.42a33.35,33.35,0,0,1-5.73-3.74c-.23-.21-.2-1.19-.25-1.51A4.66,4.66,0,0,1,39,161.08c.79.61,1.62,1.18,2.47,1.72,1.51,1,3.25,2.39,5,2.85.77.2,1-.16,1.52-.65a4,4,0,0,0,.88-2c.22-.84.46-1.67.61-2.53.11-.6-.46-.93-.85-1.33a24.58,24.58,0,0,0-4.29-2.9c-.94-.6-1.9-1.17-2.83-1.79s-4.13-2.68-2.69-4.17m-9.4.48c-.14.5-1.89,3.45-1.45,3.74s.81.47.95.84c.08.21,0,.72.24.86.58.44.68-1.14.74-1.48.42.07.82.18,1.24.25a7.63,7.63,0,0,0-.68-2.31,3.26,3.26,0,0,0-1-1.9m8.91,2A7.86,7.86,0,0,1,41,154.85c.45.54,2.07,2.67.76,3.13-1,.34-2.36-1.38-2.77-2s-1.36-2.27-.63-3.18m-17.07.46a5.31,5.31,0,0,1,.69,3.39,4.25,4.25,0,0,1-.16.86c-.09.36-.39.17-.64.09-1.16-.36-2.78-1-3.32-2.16-.2-.42-.3-1.44.46-1.28.24,0,1.55.62,1.72.45a7.13,7.13,0,0,1,1.26-1.36m16.07,5.23a6.29,6.29,0,0,1,2.32-.15c.35,0,1.92.52,1.42,1.16A2.13,2.13,0,0,1,39,160c-.79-.23-1.61-.61-1.64-1.55m-14.1.21a7.09,7.09,0,0,1,.73,3.22,5.12,5.12,0,0,1-3.11-2.45c-.28-.45-.53-1.3.35-.91a3.47,3.47,0,0,0,2,.15m25.47,1.79a8.09,8.09,0,0,1-4.45-.51c.52.89,1.58,1.5,2.22,2.37a5.08,5.08,0,0,1,1,2.84c-1,.12-2.19-1-2.75-1.76-.74-1-1.45-1.84-1-3.14a1.84,1.84,0,0,1,2.38-1.47c.92.14,2.66.45,2.65,1.67m-14.23-1.27c-.25.42-.4.61-.28,1.09.16.65.29.55.95.66.43.07.3-.91.27-1.08-.07-.38-.5-.89-.94-.67m8.55-.23c0,.29,0,1.24-.56.67-.37-.36.24-.53.56-.67m-10.4,2.7c-.2,1.06,1.41.59,2,.5a6.51,6.51,0,0,1-.18,1.75,4.29,4.29,0,0,0-.33,1.56c.07.56,0,.2.39.42.59.33,1.17,1.09,1.83,1.22a2.07,2.07,0,0,1,.8-1.83c.51-.4-.55-1.69-.81-2.09a3.81,3.81,0,0,0-1.56-1.69,2.16,2.16,0,0,0-2.12.17m22.27,1c-.29.92-.54,1.17-1.44.76a2.11,2.11,0,0,1-.79-1.75,5.94,5.94,0,0,1,2.23,1m-29.69.93a1.29,1.29,0,0,1,.49,1c-.31-.26-.76-.56-.49-1M40.3,177.5c-2.23-.89-1.13-3.75-.77-5.51.25-1.19.55-2.37.76-3.56a5.59,5.59,0,0,1,.86-2.72c.14-.17.52,0,.72,0,.37,0,.33.09.48.45.3.69-.21,1.68-.37,2.36-.23,1-.42,1.92-.6,2.89-.39,2-.58,4.1-1.09,6.11m-.47-10.89a19.46,19.46,0,0,1-.82,4.12c-.36,1.58-.64,3.19-.93,4.79-1.28-.25-2.24-1.39-3.17-2.21s-2.35-1.71-3-3c1.37-.67,2.93-.79,4.23-1.62s2.32-1.81,3.71-2.08m12.62,0c-.06.13-.35.9-.56.67-.38-.39.11-.77.56-.67m-2,3.45c-.39.83-1.28,2.75-2.24,3a14.63,14.63,0,0,1,.34-2.62c.12-.61,0-.88.65-.8a2.8,2.8,0,0,1,1.25.46"/></svg>