<svg xmlns="http://www.w3.org/2000/svg" viewBox="0 0 169.01 244.55"><defs><style>.a{fill:#fff;stroke:#000;stroke-width:2.5px;}.b,.c,.d,.e{fill:#0062ff;}.c,.d,.e{stroke:#fff;stroke-linejoin:round;}.c{stroke-width:1.31px;}.d{stroke-width:1.25px;}.e{stroke-width:1.34px;}</style></defs><title>back</title><path class="a" d="M1.25,236.43a6.89,6.89,0,0,0,6.87,6.87H160.91a6.88,6.88,0,0,0,6.86-6.87V8.12a6.88,6.88,0,0,0-6.86-6.87H8.12A6.89,6.89,0,0,0,1.25,8.12Z"/><path class="b" d="M11.38,7.81H157.72a3.37,3.37,0,0,1,3.17,3.54V233.41a3.37,3.37,0,0,1-3.17,3.54H11.38a3.37,3.37,0,0,1-3.17-3.54V11.35A3.37,3.37,0,0,1,11.38,7.81Z"/><path class="c" d="M17.49,13.54H151.61a3.37,3.37,0,0,1,3.17,3.54v210.6a3.37,3.37,0,0,1-3.17,3.54H17.49a3.37,3.37,0,0,1-3.17-3.54V17.08A3.37,3.37,0,0,1,17.49,13.54Z"/><rect class="d" x="25.1" y="24.15" width="118.89" height="196.46"/><rect class="e" x="29.86" y="29.06" width="109.38" height="186.64"/></svg>