<svg xmlns="http://www.w3.org/2000/svg" viewBox="0 0 169.01 246.76"><defs><style>.a{fill:#fff;stroke:#000;stroke-width:2.5px;}.b{isolation:isolate;font-size:45.45px;font-family:Arial-BoldMT, Arial;font-weight:700;letter-spacing:-0.04em;}</style></defs><title>c1</title><path class="a" d="M1.25,238a6.89,6.89,0,0,0,6.87,6.87H160.91a6.88,6.88,0,0,0,6.86-6.87V9.72a6.88,6.88,0,0,0-6.86-6.87H8.12A6.89,6.89,0,0,0,1.25,9.72Z"/><text class="b" transform="translate(5.25 38.99) scale(0.53 1)">A</text><text class="b" transform="translate(164.76 207.77) rotate(180) scale(0.53 1)">A</text><path d="M11.55,48.33a3.38,3.38,0,1,0,3.38-3.28A3.33,3.33,0,0,0,11.55,48.33Z"/><path d="M7.19,54.54a3.38,3.38,0,1,0,3.38-3.28A3.33,3.33,0,0,0,7.19,54.54Z"/><path d="M15.84,54.56a3.21,3.21,0,0,0,.55,1.8,3.41,3.41,0,0,0,2.83,1.48,3.28,3.28,0,1,0-3.38-3.28Z"/><path d="M11,60.93c1.67,0,2.55-1.36,3-2.72a10.56,10.56,0,0,0,.5-2.72h.86s.16,5.43,3.5,5.44Z"/><path d="M17.21,50.74a7.42,7.42,0,0,0-1.9,4.75h-.85a7.48,7.48,0,0,0-1.85-4.76"/><path d="M16.83,56.84a7.42,7.42,0,0,0-4.75-1.9v-.85a7.48,7.48,0,0,0,4.76-1.85"/><path d="M13,56.85a7.42,7.42,0,0,1,4.75-1.9V54.1A7.48,7.48,0,0,1,13,52.25"/><path d="M158.47,198.43a3.38,3.38,0,1,0-3.38,3.28A3.33,3.33,0,0,0,158.47,198.43Z"/><path d="M162.82,192.22a3.38,3.38,0,1,0-3.38,3.28A3.33,3.33,0,0,0,162.82,192.22Z"/><path d="M154.17,192.2a3.21,3.21,0,0,0-.55-1.8,3.41,3.41,0,0,0-2.83-1.48,3.28,3.28,0,1,0,3.38,3.28Z"/><path d="M159.06,185.84c-1.67,0-2.55,1.36-3,2.72a10.56,10.56,0,0,0-.5,2.72h-.86s-.16-5.43-3.5-5.44Z"/><path d="M152.8,196a7.42,7.42,0,0,0,1.9-4.75h.85A7.48,7.48,0,0,0,157.4,196"/><path d="M153.18,189.93a7.42,7.42,0,0,0,4.75,1.9v.85a7.48,7.48,0,0,0-4.76,1.85"/><path d="M157,189.92a7.42,7.42,0,0,1-4.75,1.9v.85a7.48,7.48,0,0,1,4.76,1.85"/><path d="M77,105.33a8.11,8.11,0,1,0,8.11-7.87A8,8,0,0,0,77,105.33Z"/><path d="M66.51,120.23a8.11,8.11,0,1,0,8.11-7.87A8,8,0,0,0,66.51,120.23Z"/><path d="M87.29,120.28a7.71,7.71,0,0,0,1.32,4.32,8.19,8.19,0,0,0,6.79,3.55,7.87,7.87,0,1,0-8.11-7.87Z"/><path d="M75.55,135.56c4,0,6.12-3.26,7.22-6.53a25.34,25.34,0,0,0,1.2-6.53H86s.38,13,8.4,13.05Z"/><path d="M90.57,111.12C86,115.67,86,122.51,86,122.51l-2,0s0-7-4.44-11.42"/><path d="M89.66,125.75c-4.56-4.56-11.4-4.56-11.4-4.56v-2s7,0,11.42-4.44"/><path d="M80.52,125.77c4.56-4.56,11.4-4.56,11.4-4.56v-2s-7,0-11.42-4.44"/><path d="M95.51,152.58c1.16.47,0,1.14,0,0m-16,0c0,1.75,1.34.29,0,0m2.27-1.11c.7,0,1.83.89.61,1.2-.8.2-1.72-1-.61-1.2m5.77,1.2c-2.33-.74.55-2.58,0,0m-8.22-1.84c.44.92.71,2.54,2,2.54-.5-.7-.92-.94-1-1.84.27.21,1.58,1.43,1.45,1.74-.67,1.54-2.46,0-3.11-.59-1.68-1.51-1.85-1.52.7-1.85m-3-.13c.24.49-.11.63,0,0m15.38-.57a.61.61,0,0,1-.44.35.45.45,0,0,1,.44-.35m-.87.09a1,1,0,0,0-.7-.09,1,1,0,0,1,.35.7H90a2.34,2.34,0,0,1-.77,2.91c-.44.34-1.13.83-1.35.24.38-.58,1.54-6,2.91-3.76m-14.87.26c-.22,1.48-2.68.11-2.62-.87.87.39,1.7.47,2.62.87m13.21-.87a1.7,1.7,0,0,1-1,1c0-.54.37-1.4,1-1m-12.86-.17c.48.64-.65.82,0,0m5,1c0,.28-4.24.41-4.11-.52,1,.26.64-.76,1.76-.46a9.79,9.79,0,0,1,1.46.29c.42.43.3.69.89.7m18.37-.87a3,3,0,0,0,1.22-.26,1.72,1.72,0,0,0-1.22.26m-8-.35.09.09c-.11.47-.82.62-.09-.09m-8-.52a7,7,0,0,0,1,1.31c.27-.53-.38-1.67-1-1.31m1,2.36c-.81-.2-2.56-2-1.58-2.65,1.59-1.11,2.34,1,2.57,2,.12.55,2.43,3.45,1.28,3.57-.65,0-2.89-2.36-2.27-2.95m13.64-3.41c.12,0,.19.48.44,0-.18-.1-.28,0-.44,0M70.67,146.2a2.58,2.58,0,0,0,.09,1.4c-.56-.35-1.69-1.91-.09-1.4M95,145.94c.55,2.49-3.45.88-3.41,2.89-1.36-1.75,1.6-3.4,1.22-1.75.74-.33,1.43-.81,2.19-1.14m-28.51-1c1,.76,2.23,1.08,3.06,2,.14.16.93,1,0,.86-.31.08-.62-.65-.71-.73-.85-.49-2.15-1.2-2.35-2.16m26.94,1.22A.79.79,0,0,1,92.8,145c.57-1,1.15.42.61,1.14m-4.72-1.84-.09.87c-.36-.28-.28-.65.09-.87m-.79-.17c0,.42,0,.88,0,1.31a.91.91,0,0,1,0-1.31m11.55-.52a1.57,1.57,0,0,0-.17.61.63.63,0,0,0,.44-.52s-.26-.17-.26-.09m-33.67,0a1.39,1.39,0,0,1,.61,1.14,1,1,0,0,1-.61-1.14m35-.87-.17.7c.31-.29.19-.82.17-.7m1.4-.52c-.45,1.33-2.18,2.14-2.45,3.24a9.89,9.89,0,0,1,2.36-.35c-.35-.27-.82-.18-1.31-.17.46-.67,1.28-.79,1.84-1.22h-.35a1.71,1.71,0,0,0,.52-.79l-.44.09c0-2,0-.23-.17-.79m11.28-.87c-.11,1.18-.69,3.27-2.32,3.09-1.43-.16-2.15,2.46-3.56.81-.65-.16-2,.49-2.3-.14-.45-1,3.47-.93,3.89-.79-.72-1,1-.95,1.57-.7.12-1.18,1.78-1.68,2.71-2.27m-44.7-.79c.17.51.63,1,.44,1.57a4.43,4.43,0,0,0-1.31-.09c.74,1.29,2,.2,2.62,1.66-.83,0-1.17-.47-2-.44.22.26.45.2.79.26-.27.42-.5.32-.61.7.89,0,2.6-.35,3.15.61a2.19,2.19,0,0,0-1.22.35,7,7,0,0,0,1.49-.14,21,21,0,0,0,2.19,1.37,2.39,2.39,0,0,1-.61-1.4c-.83,0-.75,0-1-.85-.52-1.57-1.27-2-.55,0-1.54-.22-2.08-2.86-3.32-3.59m29.83,6c.14-.68-.78.65.17-.79a21.72,21.72,0,0,0-2.45.79,1.64,1.64,0,0,0,.52-1.14c-.87.34-1.4,1.37-.35,1.66-.15.83-1.07.82-1.72,1-.8.28-1.77,1.39-2.48,1.49.71-1.39,1.47-1.32,2.62-2.39.28-.26,1.47-3.07.49-2.57-.54.28-1.65-.07-1.4-.9.51-1.46,1.55.29,2.14.17.52.34.83.72,1.49.46,1.18-.46.7-2.45,1.75-2.86.33-.13.75.45,1.18.36.88-.19,1-1.75,1.79-1.84.75-.26.66.78,1.22,1,.79.37,1.51-.86,2.06.13.27.49,0,.8-.31,1.2-1.23.9-1,.9-1.18,2.3-.27.73-2.21,2.74-3,2.76-1-.41-1-.73-1.87-.13-.39.67-1.12,1.91-2,1.08-.54-1.5-.16-1.77,1.32-1.88m13.56-5.07a.68.68,0,0,1-.09-.35c-.53.49-.77,1.23-1.57,1.49a4.07,4.07,0,0,1,.17-1c-.44.7-.53,1.52-1.49,1.66a1.2,1.2,0,0,1,.26-1c-.82.83-1.06,2-1.49.35-.32.16-1,2.48-2.1,1.64-.8-.63.86-2.66,1.49-3,1.3.09,1.57-.82,2.54-1.29.75-.36,1.39.14,2.27-.17.6-.21,1.68-.38,1.67.52s-1.1.88-1.66,1.22m-55.28-2.54a1.52,1.52,0,0,0,.44,1.31A16,16,0,0,0,55,139.11c.49.74,1.29,1.13,1.84,1.75a2.69,2.69,0,0,1-.52.09v.17c1.81.07,3.1,1.22,4.9,1.66A9.15,9.15,0,0,0,59,140.34a15.12,15.12,0,0,0,.79,1.4c-1.64-.43-1.84-2-2.89-2.8m18.28,8.4c-1.34-.42-3.51,0-3.85-1.84-2.46.81-2.55-.33-4.42-1.53a6.75,6.75,0,0,1-.37-.92c.19-1-1.19-1.48-1-2.19s.21-.47,1-.52c1-.06,1.07-.53,1.45-1.45,1.14-.72,1.75.74,2,1.62.69.66,1.71.17,2.33.77s.16,1.35.71,1.91c1,1.06,1.18,0,1.1,1.56,0,.53.48.62.79,1a16,16,0,0,1,.29,1.57m35.86-9.1c0,1.85-2.43.77,0,0m1.75-1.4c0,.88-.56.69,0,0m-5.6,1.92c-.94-.14-1.43-1.83-.26-1.83,1.93.73,0,.75.26,1.83m-45.75-2c-.48.3-1.66.07-1.4-.79.07-.72,1.63-.4,1.4.79m51-1.66c0,.46-.08.73-.44.79a.71.71,0,0,1,.44-.79m-4-.26c1,.7.71,2.45-.73,1.92-1.1-.4.06-1.72.73-1.92m9-.41c1.39.09.52,1.22-.15,1.64-1.52,1-.76-1.33.15-1.64m-3.76,0a1.71,1.71,0,0,1-.44,2.27c.07-.68-.22-1.86.44-2.27m-52.48-1c.85,3.3-2.69.8,0,0m53.62-.52a1.08,1.08,0,0,1-.17.52c-.33-.08-.49-.08-.44-.35l.61-.17m-59.48-.44c.59.31.79,1.51.87,2.1-.55-.1-.89-1.56-.87-2.1m-4.64-1.53c1,.08,1.7,1.15.44,1.44-1.14.11-1.83-1.07-.44-1.44m4.11.48c-.68-.77.44-1.1,0,0M50,129.32c-.17.58.16.57.61.79-.8,2.29-2.27-.87-.61-.79m2.19-2.8a14.28,14.28,0,0,1,1.57,1.66c-.8.22-1.43-1.12-1.57-1.66M114,126a5.91,5.91,0,0,1-.26,3.67.4.4,0,0,0-.35-.44c0,.2,0,2,.47,1.71a8.46,8.46,0,0,0,1.28-2.58,4.49,4.49,0,0,0-.7.79c-.26-1,.27-1.74.52-2.71-.42.47-.66.19-.7-.44H114m5-.09-.35,2.19a2.51,2.51,0,0,0,.35-2.19m-.17-1.92c0,.33.07,1.66-.7,1.22a2,2,0,0,1,.7-1.22m-68-.87c1,.84.9,1.16.44,2.27-.65-.53-1.11-1.62-.44-2.27m67.52,6.73c.28-.4.66-.45,1.14-.61-1.34-.44.81-1.81,1.49-2-1.14-.28.85-2.2,1.22-2.71-.65.32-.93,1.06-1.57,1.4a4.37,4.37,0,0,1,.26-1.31c-.65.68-.88,1.93-1.35,2.81a22.2,22.2,0,0,1-2.15,3c.53.62-.35,1-.92,1.19-1.93.65-.3-.79.19-1.42s1.2-1.42,1.2-2.13c-.35-.61-.71-1.26-.34-1.91.28-.48.75-.44,1.28-.56.65-.48.39-.55.56-1.43.37-2,1.59-.69,2.9-.92,1.54-.28,1.79.59.64,1.76-.21.78.43,1.44.23,2.17s-1.39.47-1.87.68c-1.79,1.38-.13,2-2.89,2m-.79-7.52a.43.43,0,0,1-.17.61,1.14,1.14,0,0,1,.17-.61M52,122c.15,1.21.59,2.88,2,2.8-.13.67-2.08,1.75-2.22.64-.06-.43.27-.82.19-1.25-.32-1.08-1.07-1.24,0-2.19m66-.17c.26.22.28.44,0,.61a.52.52,0,0,1,0-.61m-65.25,1a2.38,2.38,0,0,1-.09-1.4.74.74,0,0,1,.09,1.4m61.75-2.16c1.06-.11,1.63,1.2.52,1.2-.73.08-1.21-.88-.52-1.2m3-.29a3.31,3.31,0,0,1,.52,1.31,1.18,1.18,0,0,1-.52-1.31m-65.25-.7c2.6.87-.54,1.92,0,0m65.34-.79-.09.35a1,1,0,0,0,.79-.09,4.94,4.94,0,0,1-.09,1.31c-.48-.35-1.22-1.21-.61-1.57m-66.13,0a4.18,4.18,0,0,1,.17,1.22c-.61-.07-.38-.93-.17-1.22m69.19-.21c.68.14,1.73,1.55.52,1.74-.92.15-1-1.29-.52-1.74m-5.51,1.43c-1.62.87-1.34-1.28-.67-1.35,1.08-.11.31.65.67,1.35m-60.35.17c-2.56.8-.75-4,0,0m-.09-1.84c-1.93-.32,1.86-2.29,0,0m-2.89-1.57c.67.37.6,1.29.7,1.92a1.62,1.62,0,0,1-.7-1.92m-1.66,6.21c-.68-.42-.35-1.42-.09-2.1-1.13,1.18-.85-.91-.61-1.84-.17.18-.24.08-.44.35-.67-1-1.42-2.23-.7.17a1,1,0,0,1-.87-.09,4.78,4.78,0,0,1,1.4,2.36,4.3,4.3,0,0,0-1.22-.26,1.4,1.4,0,0,0,1.4.61,19,19,0,0,0,1.14,2.54,1.35,1.35,0,0,1-1.51-.26c-.27-1.29-1.09-1.06-1.48-2.1-.1-.25.07-.61.11-.82.13-.81-.51-.92-.82-1.55-.43-.9.8-1.53.57-2.55-.66-2.89,1.71.36,2.52.64.78.76.31.87.7,1.88.17.45.88.59,1,1,.17.62-.71,1.6-1.09,2m1.57-7.52c.16.28.33.39.17.61-.38-.11-.29-.35-.44-.61h.26m66.39,2.71c-.58-.34-.53-.76-.52-1.49-.45-.81-.74-.66-.53-1.55.66-2.82,1,2.65,1.06,3m-65.69-2.71c-.61-4,1.79-1.7,0,0m65.16-3.85a10.26,10.26,0,0,1,.09,1.57c-.61-.47-.75-1.15-.09-1.57M52,111.56a2.71,2.71,0,0,1,0,1.84c-.73-.52-.36-1.39,0-1.84m63.06-.17a3.81,3.81,0,0,1-.44,1.49c-.64-.2-.82-.6-1.22-.17.37.13,1.29.83,1.71.62s.5-1.82,0-1.93m-61.75,1a3.22,3.22,0,0,1-1.22-2.1,2.79,2.79,0,0,1,1.22,2.1m-3.94-3.32c-.1.52-.1,2.15-1.17,1-.76-.81.48-1.07,1.17-1m72.77.7c-.59,0-1.92.71-1.52-.61,1.3-1.75,1.1-.13,1.52.61M117,108.33a.23.23,0,0,1-.09.26c-.22-.19-.22-.3.09-.26m-64.73-1a1.73,1.73,0,0,1,.09,1.84,1.21,1.21,0,0,1-.09-1.84m-3-.52a1.09,1.09,0,0,0-.17.52c1-.06-.42,1.67-1.08,1.27s.37-2.72,1.25-1.8m66.39,7.78c.32.92.87,1.72,1.22,2.62-1.63-.21-1.44-1.79-2.84-2.05s-.91-1.44-1.53-2.41c-.29-.45-1-.56-.94-1.23.85-1.7,1.62-.56,2.78.17.15-.63.81-2.57.17-2.89-.08.43-.14.88-.17,1.31-.66-.78-.42-2-.79-2.8a13.27,13.27,0,0,0,.35,3.59c-1.09-.62-3-1.81-2-3.2,1-.78.84-1.14,1-2.22s1.7-.22,1.85.43-.19,1.18.44,1.62a.86.86,0,0,1,.29,1.27c-.56,1,.55,1.14.87,1.92s-.62,1.15-.56,1.84c.41.67,1,1.82-.21,2M53.18,105.7a.68.68,0,0,1-.44-.87c.37.14.44.43.44.87M57.12,104c.38.79.73.49,1.31.26a2.81,2.81,0,0,1-.18,1.4c.11.46.42.82.4,1.31,0,.29-.49.43-.64.71s0,.91,0,1.3c-.61,1.06-1.26.28-1.52,1.75a3.65,3.65,0,0,1-2.09.61c0-.44.21-.46.35-.85,1.08-1,.4-.1.64-1,.14-.53.64-.76.94-1.17a8.32,8.32,0,0,1,1.49-3.12c-.6.22-.86.82-1.4,1.22-.64-.77-.4,1.43-1,1.84q-.1-.74-.17-1.49a1,1,0,0,0,.17,1.57,11.83,11.83,0,0,1-1.84,3.24c-.37-1.09,1.84-2.88.52-3.24v1c-.89-.58-.52-.89-.35-1.53.73-.48.47-1,.77-1.79.39-.52.91-.36,1.5-.6s.62-1,1.05-1.41m58.43,1.4c-1.64-.37,1-2.84,0,0m-.7-2.54a.6.6,0,0,1-.44-.61c.38.06.55.24.44.61M55.1,102.2a.63.63,0,0,1-.44.52c-.12-.35.16-.34.44-.52M113.27,101v.17h-.17c0-.1.07-.16.17-.17m.35-.52a.49.49,0,0,1-.26.44c.06-.33,0-.49.26-.44m-55.8,1.14a1,1,0,0,1-1.11-1.18c.35-1.72,1.84-.49,1.11,1.18m55.28-2.1c1.66-.37.29,1.73,0,0m-54.14,1c-.92-.16-.72-1.55.13-1.7,2-.35.14,1.32-.13,1.7m53.18-2a1.58,1.58,0,0,1,.09,1.31c-.57-.27-.41-.8-.09-1.31m-4.64-.44c.47,1,.37,1.9,1.28,2.75.58.53.81,1.55,1.69,1.63,0-.79-.33-1.79-1.22-1.81-.88-.72-1.12-.89-.52-2a10.35,10.35,0,0,0-1.22-.52m3.67-.09a.33.33,0,0,1-.17.44.48.48,0,0,1,.17-.44m4.29-1.4c.28,1.06.9,2.21.7,3.32a4.69,4.69,0,0,0-1.14-.87c.47.78,1.22,1.43,1.66,2.27.38.07,1.07-2.05,1.22-2.36a1.22,1.22,0,0,0-1,.44c0-.71.92-2.11-.17-2.36a5,5,0,0,0-.17,1.22c-.45-.49-.73-1.32-1.14-1.66m-56-1.31c1.74.34-.2,1.2,0,0M108,94.68c.1.42.05.78.35,1,0-.5,0-.79-.35-1m-1.4-1a3,3,0,0,0,.44,1,1,1,0,0,0-.44-1m7.08,1.4c.2-.94.44-1.08,1.19-1,.43.07.64.78.79,1.14.57.59,1.16.43,1.87.62.31.24.32.41.57.69-.21,1.31,1,.8,1.21,1.75.11.42-.43.89-.59,1.22-.13.77.79,1.33.39,2-.49.86-.93,1-.6,2.07-.26.77-1.34,1.25-.9,2.19a7,7,0,0,0,1.51-1.92c.06-1,.8-1.86.71-2.84-.06-.66-.56-1.19-.18-1.79a1.39,1.39,0,0,0,.09-1.55c-.76-1.06-1.06-1.88-2.13-2.55-1.34,0-1.64-1.33-3-1.62s-1.52.53-1,1.52m-10.5-2c.19.12,0,.18.35.17a.42.42,0,0,0-.35-.17m1.75-.17a4.08,4.08,0,0,1,.26.79c-.49.12-1-.35-1.49-.44a30,30,0,0,0,2.8,1.84c-.46-.75-1.1-1.43-1.57-2.19M55.54,94.77a3.37,3.37,0,0,0-.52-.35,6.1,6.1,0,0,1-.44,2.71c-.38-.43-.33-2-.92-1.92-.17,0,.27,3.25.13,3.67-.33-.36-.45-1-1-.7a7.31,7.31,0,0,1,.79,3.41,4.31,4.31,0,0,0,.61-1.66c.41-.63,1.26-.95,1.78-1.51,1.52-1.67-1.24.52-1.51.72.21-1.61,1.78-2.4,2.54-3.67-.59,0-1,.65-1.4,1,.48-1.45,1.34-5.45,0-1.66m5.77-.26c1.46-.16,2.78.51,4.2.7a3.3,3.3,0,0,0-.79-.61c1.05-.47,1.58.35,2.54.35-.18-.25-.34-.69-.52-.87a7,7,0,0,1,1.84.09q-.48-.62.26-.87c-1.53-.35-1.09.22-2.54.54-.7.18-1-.35-1.92.27-.35.07-.55-.33-.88-.28a4.58,4.58,0,0,1-2.45.3c-.39.31-.54.51-1,.48a8,8,0,0,1,1.56-1.23c.45-.2.93,0,1.33-.2,1-.54.85-1.85,2.18-1.1.77.43.72.39,1.63,0,1.33-.52.92.1,2.09.26.29,0,2.22-.34,1.66.74-.33.62-.89.77-1.37,1.28s-.55,1.27-1,1.48c-.74.31-1.46-.31-2.19.24s-1.39-.47-2.22-.55-2,.34-2.32-1m-5.34-3c.53,0,.82.41,1.08.84,0,.93,1,1.4,1,2.19s-.69,1.18-.59,2.08c.2,1.64-1.34,3-2.62,3.79-.62,1-.46,1.42-1.57,2-.58,0-.63-1.15-.81-1.52-.26-.55-.83-1-.85-1.63s.51-.81.56-1.31c-.73-2.25,0-1,1-2.62.64-1.06-.17-1.35,1.38-1.93,1.15-.43.43-1.48,1.44-1.89m51.78,5.74c-.54-.1-1.42-.73-2.19-.93-.88.33-1.53.25-2-.55s-1-.17-1.67-.67a7.21,7.21,0,0,1-1.36-2.57c.37-1.15,2.24-.46,3.09-.79.12.75,1.06.56,1.66.7-.51-1.94-2.34-.76-3.76-.94-2.24.46-1.11,1.49-.62,2.75.59,1.49,1.6,1.43,2.82,2.31a2.16,2.16,0,0,0,2,.12c.54.28,1.36,1,2,.57m2.36-6.47c-.26.55-.74.43-1.22.15a.35.35,0,0,1-.12-.43c.24-.48,1,.22,1.34.28m-45.66-.35c0-1.73,1.58-.08,0,0m-3.24-1.49a4.37,4.37,0,0,1-.17,2.1c-.45-.56-.43-1.76.17-2.1m5.6-.87a.87.87,0,0,1-.61.79c-.08-.39.22-.64.61-.79M109,87.75c.69.6.81,2.54-.58,2.1-.81-.25-.37-2.07.58-2.1m-45.22-1.2c-.26,1.13-.48,2.49-1.49,3.24a5.57,5.57,0,0,1,1.49-3.24M93.5,86.2c-.52,0-.79-.22-1,.26,1,.16,2.78.89,1.53-.82-.49-.18-.51.12-.57.56m-20.82.61c.72.42,1.31.27,2.1.49,1,.26,1.84.75,2.8,1-.5-1.24,1.61.14,2,.35-.18-1.19,1.26-.79,1.84-1-1.13-.07-2.31.24-3.41-.17a2.08,2.08,0,0,1,1-.7c-1,0-1.94.93-2.89.44a1,1,0,0,1,.61-.7c-.61.26-2.79,1-3.26.17C72.8,85.32,77,85.57,77,85.56c.75-.28.63-.31,1.35,0s1.91-.43,2.42,0c.58,1,.5,1,1.6,1.29.22.19.64.5.6.84-.09.88-1,.74-1.64,1.12-.41.26-.73.8-1.23.88s-.9-.38-1.4-.3c-1.38.21-.79,1.09-2,.08-.82-.68-1.66-.4-2.53-1.18-.49-.44-1.29-1-1.49-1.47m19.07-1.66a4.7,4.7,0,0,0,.09,1c-.69-.32-.93.16-.79.87.06-.06,2.79-1.68.7-1.92M98.49,85v.17h.7a.87.87,0,0,0-.7-.17m-8.57.09c-1.17-.9-1,.69-.44.79a.68.68,0,0,0,.09-.35,5.12,5.12,0,0,0,1.66.44c-.26-.63-1.2-2.28-1.31-.87m10.41-1.4a1,1,0,0,0,.35.7c.24-.44-.11-.44-.35-.7m-1,0c-.41,0-.07.2-.87.09.42.41,1.31.61,1,1.31.91-.06,1.5-.15,1,.7a4,4,0,0,0,1.49,0,13.53,13.53,0,0,0-2.71-2.1m-29.39-.44c-.12.85,0,1.83-.87,2.27,0-.84-1.63-1.56-.76-2.5.51-.55,1.16,0,1.64.23m22.65.09a3.31,3.31,0,0,0,.7,1.32c.76.27,1.47,1.08,2.14,1.25s2.05.24.93,1.14c-.72.58-1.27.37-2.11.46-.66.61-.63.86-1.45.35-1.3-.79-.43.18-1.78,0-1.26-.42-1-.92-2.3-.53s-1.12-.54-1-1.39c-.35-.81-.94-.52-1.65-.95-1.18-.7,1.06-2,1.4-2.73a8.75,8.75,0,0,0,1.73.75c.16,0,.38-.78.72-.66.58.2.62.94,1.31,1.26.53.15.9-.18,1.4-.3m2.27,0c.38-1,1.71,1.21,1.54,1.86-.22.81-2.88-2-3.19-2.27s-2.28.38-2-.54c.54-1.75,3.18.58,3.64,1M81.34,81.65v.17a.91.91,0,0,0,.79,0,1.11,1.11,0,0,0-.79-.17m21.25,4.81h-.44v.17c1.63,0,0-1.35.48-2,.29-1,1.82,2,1.86,2.35-.64,1.64-.15,1-2,1.27-.38-.13-.63-.13-.89-.48-.74-1-1.44.15-2.37-.44-.65-1.21-1.41-.45-2.1-1.4A5.23,5.23,0,0,0,95.88,83c-.34-.37-.8-.69-.28-1.15s1.41.06,1.84.17c1.31-.6,1.63-.32,2.71.43.52.24,1.1.08,1.46.54a6.76,6.76,0,0,1,1,3.43M79.77,80.6c-1,1.78-2.9,2.74.87,2.19-.9,0-1-.13-.87-.79a1.15,1.15,0,0,1-1,.26c.44-.44,1.15-1.31,1-1.66m1.31-.7a4.44,4.44,0,0,0-.7,1.66,1.29,1.29,0,0,0,.61-.17c-.16-.54.39-1.26.09-1.49M67.7,87.25a3.62,3.62,0,0,0,1.14-.79c.58-.29,1.09.06,1.66-.44a6.88,6.88,0,0,1-1.14.09c.36-1.66,1.67-1,2.62-1.75-2.19.14-.11-1.11.7-1.31-.84-.29-.5-.4-.26-1.22-.31.43-1,1.21-.87,0-.28.41-.55,2.36-1.22,2.36s.23-3.15.35-3.5c1.1.69,1.4-.17,2.36-.65.81-.4,1.61,0,1.45.94-.24,1.39.13,2.78-1.4,3.57-.39.82-.44,1.31-1.39,1.65-.58.21-.78.07-1,.61s-.86.71-1.52.88c-1.27.32-1.54,1.07-1.89-.24-.54-2,2.16-2.23.43-.2m15.83-7.61a.67.67,0,0,0-.17.35c.19-.06.26-.18.17-.35m6.39,1.66c.27-.18.77-1.39,1.3-.92.29.25-.34,1.46.63.74.06,1.58-3.39.21-3.27-1.13a1.06,1.06,0,0,1,1.52-.79c.71.47-.38,1.5-.17,2.1M87.82,79c.33.52,1.39,2.58,1.06,3.06s-1.34-.19-1.72-.14c-.69.09-1.13.94-1.52,1.43-1,1.28-.31,1.88,1.12,2.23.3.42-.13.86.06,1.38.48,1,1.09,1,2,.76s.6-.15,1.25.34,1.23.34,2.08.09c.59.06,1.11.78,1.79.42.47-.25.7-.59,1.18-.77,1.41.21,2.16-1.4,3.32-.93.41.17.4.87.88,1.1,1.56.44,1.45-.71,2.54.92-1.37-.36-2.16.19-3.47.39-1,.16-2.41-.11-3.18.57,1-.3,3-.07,1.57,1.31a8.84,8.84,0,0,1,2.13-1.44c1.45-.79,2.37,0,3.82-.48.56.43,1.39.48,1.88.9.49.91.75,2.14,1.88,2.07.54.38,1.09.85,1.66,1.22,1,.18,1.07-.21,1.35.83.18.67,0,1.48.12,2,.44.73.87,1.08.54,1.92-.67-.43-1-1.53-1.84-1.57.47.7.92,1.42,1.45,2.08s.54,1.68,1.35,1.33a.71.71,0,0,0,.61.87,4.85,4.85,0,0,0-.44,1.14,1.26,1.26,0,0,1,1,.35,1.81,1.81,0,0,1,.79-2.19c-.18.53.27,1.2-.35,1.31.09.67.14.38.26.7a2.2,2.2,0,0,0,.61-.35c-.14.76-.4,1.47-1.14.61.45,2.21,1.21-.26,1.75-.09a3.53,3.53,0,0,1-1.4,2.56,2.24,2.24,0,0,0-.3,1.55c-.19.45-.68.7-.95,1.15-.93,1.52.36,1.38.47,2.44s-1.61,1.28-.34,2.45c.82.76.61,1.7,1.31,2.62.49.41,1.26.43,1.78.79.2,1,1.06,1.24,1.88,1.75a3.57,3.57,0,0,1,.22,2c0,1.21.06,4.56-.65,5.18a13.26,13.26,0,0,1-.26-2.23c0-1,.57-1.62.3-2.61s-1.24-1.64-1.7-2.6c-1.13.87-1.69,3.85-.06,4.65.26.13.71,0,.91.22.39.37.39,2.21.38,2.66-1-.7-1.88-2-2.95-.42-.57.81.1,1.54-.7,2.27-.09.51.28,1.36.06,1.74-.4.69-1.49,1.32-.85,2.22.5.69,1.08.75,1.37,1.63,0,.49-.55,1.2-.7,1.66a15,15,0,0,0,1.66-2c-.43-.16-2-1.23-2.13-1.75s.12-.62.29-.95c.75-.6,1-.64.72-1.54a7.14,7.14,0,0,1,.57-3.11c.49-.78,1.07-.66,1.61,0,.3.9,1.28,1.24,1.45,2.09-.29,1.15-.81,1.64.1,2.54a1.54,1.54,0,0,1-1.22,1.49c0-.1.09-.68.09-.61-1.24,1.08.17,1.65-1.15,2.47-2.2,1.37-2.76,4.18-4.71,5.66a6,6,0,0,1,.14-2.62,4.49,4.49,0,0,1-.31-2.1c-1.15.76-4.26,3.34-3.12,5,1.91,2.76-3.2.73-4.14,1.2-.38.31-1,1.65-1.53,1.5s-.71-.44-1.27-.27c-.76.6-1.19,2.91-2.1,2.84-.68-.05-.73-.45-.52-1.07-1.54.09-3.62-.07-4.29,1.7S89.77,150,87.29,149c1-1.38,3.53-2.49,2.29-4.43-.82-1.28-2.52-.9-3.8-.86a19.86,19.86,0,0,1-4.59-.52c-4.9-1-3.59,4.36.33,4.77-.79-.85-2.09-1.22-2.89-2.27-.42-.73-.47-2,.62-2s3-.37,4,.62c.43.43.09,1.14.69,1.32.07-1.32,0-2,.87-.61.13-1.16.65-.85,1,.17.37,0,.23-.76.61-1a4.36,4.36,0,0,0,.17,1.22c.49-.31.07-.94.52-1.22.16.74-.27,1.66.09,2a10.85,10.85,0,0,0-1,1.57,7.74,7.74,0,0,1,2.1-1.4c.36,1-1.49,2.56-2.36,2.64-.32,0-1.12-.68-1.42-.82a5,5,0,0,1-2.69-2.26,11.31,11.31,0,0,0,4.72.26c-1.44-.23-6.3-1.92-7.26-.44,1.12,0,.83-.38,1.46.53.49.7,1.08.55,1.6,1.11.8.86-.27,1.07-.7,1.77a.6.6,0,0,1,.61.52c-1.37-.33-3.05-.23-4.33-.81-1-.46-1.23-1.06-2.15-.94.51-.51.12-2.09-.17-2.75-.61-1.39-.13-1.63-1.49-2.67-.6-1-1.53-2.48-3-2.22-.68-.44-.88-1.27-1.64-1.69-1.59-.9-1.81.68-2.83,1.3-.7-.06-1.58.06-1.79.87-.27,1,1.05,1.18,1,2a9.19,9.19,0,0,1-2.48-1.57c-.49-1.19-1.56-1.71-2-2.93-.28-.77,1.12-1.6,1.26-2.53.2-1.38-.86-2.45-1.5-3.55a5.24,5.24,0,0,1-.89,1.28c-.71.85-.58,2.44-1.65,1.44a13.52,13.52,0,0,0,1,2.51C60,138,60.7,138.41,61,139s-.23.69-.69.69a.7.7,0,0,0-.44-.44c-.15,1.12.68,1.25,1.62,1.24.72,0,.85.28,1.28.9.72,1.06.71,1.61,2,2.07a1,1,0,0,0-.35.61,12.89,12.89,0,0,1-2.27-1.66c.12.89,1.11,1.25.61,2,1.31-.38,2.67.63,3.5,1.57,1.47-.54-1.2.49-1,.44h.87c-1,.56.27,1.25.26,2.27.39-.3,2.36-1.36,1.95.09s-4.58-.29-3.78-2.27c-.59.18-1.11,0-1.57.26.72,0,.76.43.82,1a3.36,3.36,0,0,0,2.29,1.71,2.47,2.47,0,0,0,2.69-.77c.74-1,1.51-.74,2.69-.42,0-.43-.14-1-.17-1.31.69.4,3.47,1.24,4,.35a.63.63,0,0,1-.7.87,1.18,1.18,0,0,0,.52.87c-.63-.06-2.67.1-2.19-1.14a1.12,1.12,0,0,0-1.14.52,3.2,3.2,0,0,0,.7.7,1.4,1.4,0,0,1-.44.09c1.4,1.59-.91,1.46-.44.09-.54,0-.92.33-.77.83a1.29,1.29,0,0,0,.68.69c1.33.19,2.36-.29,3.58.64.86.66-1.68,1.25-.91,1.86s2.6,1,3.37.35c-.77,0-1.94.3-1.14-.7a5.37,5.37,0,0,1-1.31.35c-.13-2.72,2.75-1.1,3.62,0,1.85,2.3,3.35-.9,5-1.4.64-.19,1.41,1.44,1.73,1.84a3.19,3.19,0,0,0,3.92,0c.42-.26,1.1-1.23,1.63-.83.82.61,1.05,2,2.38,1.6-1.08-.17-2.7-1.77-1-2.45.18.67,2,3.06,2.45,2a2.35,2.35,0,0,1-2-2.27c.67.29,2.56,2.07,3.32,1.81s.5-1.11-.09-1.4c-1.22-.61-3.06.29-4-1.39-.19-.32.06-.2.09-.49a1.58,1.58,0,0,1,.93-.27c.4-.29.15-.86.65-1.23a.76.76,0,0,0,.61.87c-.13-1.63,1.21-1.67,2.21-.93,2.09,1.57,4.85,1.47,7.32,1.36-1.23-.38-2,0-3.26-.23s-3.14-.13-1.77-1.31c.35-.3.55-1,1-1.16s.91.46,1.4.44c1.14,0,1.82.32,2.88-.35.33,0,.36,0,.6.28a8.7,8.7,0,0,1,.63,1.37c.07.15.58.11.63.42s-.45.48-.8.64a8,8,0,0,0-.79.84c-.84.2-1.37-.18-2.2.16-1.45.59-2.15-1-3.66.07-1.38.17-1.77-2.75-3.76-2.42.61.63,1.59.79,2.18,1.7.21.33.4.82.79,1,.71.14,1.63-.37,2.2-.23,1,1.62,2.2.35,3.52.39a4.78,4.78,0,0,0,3.21-1.54c.55-.51.34-.79.13-1.27-1-.48-1.21-1.73-2.33-1.9-.56-.08-1.34.88-1.76.34s.59-1.18,1-1.39.38-.45.86-.5c.79.88,2.2.11,3.2.39,1.57.44,1.86-.93,3.11-1s1.22-.65,2.28-1.36c1.6-1.07,2-5.1-.8-4.16-.28.09-1.6.63-1.49-.22A3.38,3.38,0,0,1,112,137c0,.79-.62,1.49.52,1.49a7.88,7.88,0,0,0,2.71-1.75,3.75,3.75,0,0,0,3.14-1.57c.74-1.54-1.38-.81-1.8-.45-1,.87-2.22,3.26-3.74,3.16,1.53-2.15,1.57-4.3,4-5.81,1.13-.69,1.52-1.55,2.92-1.17,1.1-.44,1.06-1.43,1.84-2.07,1.12-.2,2.27-1,2.14-2.25,0-.39-.4-1-.33-1.34.1-.52.56-.87.68-1.44,0-1.15-1.07-1.23-1.93-1-1,.27-1.63-.32-2.74,0,.36-1.51,1.71-1.84,2.89-2.5,1.39-1.14.36-2.62.61-4.06-.76.64-2.08.55-2.45,1.66.84-.44,1.86-1.22,2.27.26a3.39,3.39,0,0,1-2.45-.09,2.33,2.33,0,0,0-.12,2.45c-.13.66-1.23,1.65-1.63,2.36a18,18,0,0,1,.55-5.73c.32-1.18.75-2.33,1.07-3.52.37-1.33.8-.37,1.35-1.34-.64,0-2.49-.86-1.66-1.75.52-.84,2.13.69,2.1,1.4,1.45-.91.75-3.51.7-4.9a9.35,9.35,0,0,0-2.7,2.39,2.78,2.78,0,0,0-.08,2.94,2.17,2.17,0,0,1-.4,1c-.74.52-.55,1.12-.93,1.88-1.44-2.41-1.52-6.58-1-9.27-.77.06-1.22.09-1.47-1,.45-1.23-.29-1.76-.79-2.79-.27-.55-1-.61-1.18-1.23s.56-1.12.11-1.66c-1.48-1.25-.35-1.24-.86-2.8a2.79,2.79,0,0,0-.79,1.4c-1.34-.94-.4-2-.79-3.32.36-1.62-.55-1.81-1-3.2-.35-1-.23-2.59-.83-3.48-.38-.56-1.26-.72-1.82-1-.32,1.59-.74,4.24,1.57,4.52,1.35,1.14.74,2.64,1.31,4.14-.93.17-.87-2.63-1.92-3.15.1,2.08-1.71-1.25-1.95-1.76-.84-1.81-.85-.41-1.9-.08,1.1-3.53-.64-5.86-3.18-8.06-1.5-1.3-3-.9-4.61-.89-1.07-.47-2.51-.14-2.54,1.16-.77-.54-1.55-1.06-2.32-1.6-.33-.43-.28-1-.59-1.46-1-1.15-2.78-1-4.17-.79m-6.12,2c.32-.2,2.36-3.88,3-1.92.13.38-.16.59-.36.89-.38.58.15,1.1-.22,1.62s-.95.42-1.28.58-.19.57-.37.8c-.51.63-1.91.38-2.61.71s-1.72.48-2.21-.24c-.43-1.69.87-1.38.65-3,.61-.78,1.16-.55,1.9-1.24.35-.21.36-1.17,1-.51,1,1.14.72.56.51,2.28M61.58,92.41c-.43-2,2.55-4.44,3-6.47-1.62-.7-2,2.47-2.71,2.89,0-1,.31-2.09-.87-2.19-.27,1.89-.43,3.79-.62,5.69-.12,1.18-.7,1.06-.87,2C58.22,93,55.91,89,54.75,92.62c-.21.65-1.47.66-1.87,1.27-.79,1.22-.12,1.23-1.58,2.21-.41.69.09,1.27,0,2-.78,1.61.3,2.7.92,4.2s-.44,3.86-.72,5.46q-.53,3-.82,6.09a3.91,3.91,0,0,0-.57-1.4c-.43-.23-.93-.54-.94-1.09s.53-.6.85-.95c.67-.75.38-1.58.13-2.45s-.64-2.25-1.35-2.64c-.38-.2-1.08,1.44-1.22,1.74-1.18,2.46.87,3.59,1.54,5.74a6.3,6.3,0,0,0-1.31-.35c.77,1.09,2.15.78,2.53,2.45a16.46,16.46,0,0,1,.88,3.58,20.27,20.27,0,0,0-2.74-2.38,1.37,1.37,0,0,0-2,.28,3.68,3.68,0,0,0-.15.7c.34,1.12-.1,1.48-.5,2.54a1.45,1.45,0,0,0,.4,1.11c.62.88.13.78.22,1.69s1.08,1,1.5,1.58.21.92,1,1.35c1.39-.23,2.62,1.57,3.39,2.48,1.22,1.46,1.7,3.42,2.3,5.17-1.4-.32.47,1.14.61,1.31-1.72.35-3.06-1.6-2.9-3.06-.44-2.24-1.79-2-3.15-3.06-.76.23-.57,2.74-.16,3.5a2.1,2.1,0,0,0,2.28,1.08,13.75,13.75,0,0,1,2.6,1.64c.95.66,4.18,3,1.26,3.35a1.87,1.87,0,0,0-1.84,1c-.57.85.67,1.46.89,2.11.33,1,.16,1.67,1.2,2.26A10.28,10.28,0,0,1,58,144c.95.49,1.4-.4,2.21-.19.95.55,1.17,1.24,2.36,1-.82-.74-2.12-1.66-3.27-1.13s-1.64-.76-2.67-.88c-1.22-.15-1.26-.67-1.59-1.79-.2-.69-1.43-1.54-1-2.22s.84-.38,1.75-.51c1.18-.33,1.09-1.07,2,.41.83.41.77,0,1.73-.09a2,2,0,0,1-1.14-1.92.68.68,0,0,0-.26.61,4.3,4.3,0,0,1-2.1-2.1c.58.48,1-.18,1-.44.11.69,0,1.33.44,1.66a4,4,0,0,0-.4-2.41,24.62,24.62,0,0,1-1.75-2.4c-.27-.55.41-.71-.18-1.31-.43-.43-1-.25-1.26-1-.14-.53.56-.89.5-1.4-.94-1.62-.2-1.36.35-2.76.25-.64-.4-1.16.15-1.65,1-.84,1.75,1.05,2.42,1.47,2-.3,1.23.81,1.57,1.88.2.61.7.8.82,1.4,0,.18-.35.43-.34.61s.51,1.22.42,1.4-.52.49-.73.7.17.7.1,1.09c0,.17-.17.61-.45.52-.73-.23-.25-2.44-.09-2.93a3.14,3.14,0,0,0-.52.52,3.62,3.62,0,0,1,.17-3c-.41,0-.77.39-1,.7-.27-.83,0-1.21.09-2-.24,0-.31.19-.44.35-.3-.42-.5-1.56-1.14-1.4a14.24,14.24,0,0,1,.44,1.4,2.82,2.82,0,0,0-1-.35c.51.86,1.31,1.36,1.57,2.36-.44-.19-1.56-1-1.92-.44a3.59,3.59,0,0,1,2.45,2.36,4.72,4.72,0,0,0-1.31-.35c.76.85,1.54,1,1.81,2.19a7.44,7.44,0,0,0,.73,2.62c.35-1.85,2.39-3.4,1.86-5.34.13-.94.65-.94.07-1.81s-.78-2.15-1.41-2.8-1-.4-1.56-.7a3.28,3.28,0,0,0-1.81-1.15c-1.33-.31-2.4,1-2.2-1.49a.88.88,0,0,1,.17-.26,2.13,2.13,0,0,0,2.18-1.33c.61-1.22.2-2.48.17-3.74-.56.93-2,.91-2.86,1.6-.94-.26-.13-2.43.2-3a3.67,3.67,0,0,1,.53-2.36c.69-.83,1.63-.39,2.5-.81.64-.31.75-.49.83-1.11.54-.53,1.2-.64,1.41-1.47s.79-1,.92-1.68-.07-1.33,0-2c.1-.86-.05-1.16-.83-1.66-.47-.16-1.88-.55-2.32-.23-.48,1.65-.54,1.22-1.53,1.89-.6.41-.73.14-.95,1-.15.58-.1,1-.72,1.08.81-2,2.05-3.86,3-5.86,2.31,2.08,4-1,4.72-2.89a7.73,7.73,0,0,0-3.63.47c.09-.88,1.46-1.49,2.26-1.83,1.16-.48.39-.45,1-1.14.35-.41,1.1.34,1.26.45a2,2,0,0,0,1.32,0c1-.26,1.23.28,2.22.17s1.16-.51,2-.46a2.29,2.29,0,0,0,2-.91c.51-.54,2.26-1.4,2.08-2.32-.28-1.47-2.85-1.65-4.12-1.54-1.08.58-1.52.82-2.41-.07a.38.38,0,0,1,0-.55c.63-1,2.88-1.76,3.9-2.27,2-1,3.21-1.73,4.91.07a2.81,2.81,0,0,0,2.3,1,3.11,3.11,0,0,0,1.22.82,2.49,2.49,0,0,0,1.66-.55,2.89,2.89,0,0,0,1.7.08,13,13,0,0,0,2.47-1.51,1,1,0,0,0,.13-1.12c-.39-1-1.49-.71-2-1.75-.85-.48-1.29.08-2.16,0-1.34-.7-1.42-.12-2.76-.11-.43,0-.94-.16-.92-.65,0-.92,1.91,0,2.28-.13,2.6-1,5.13-.07,7.07-2.67.48-1.29,1.42-3.85-1-3.49a3.16,3.16,0,0,1-2,0,1.64,1.64,0,0,0-1.55.13c-.41.15-.89.78-1.42,1-1.4.57-.68,1.45-1.76,2.37-.1.2-.11,1-.35,1.08-1.45.41-1.15-1.36-1.26-2.4-.2-1.77-1.88-1.82-3.07-.62-.67.68-1.45-.11-2.08.53-.41.42-.48,1.06-1,1.39-.74.49-1.65.57-1.78,1.65.14.73.76,1.29.09,1.89s-1,.42-1,1.21c-.07,2.25-3.94,3.75-5,5.73"/></svg>