<svg xmlns="http://www.w3.org/2000/svg" viewBox="0 0 169.01 246.76"><defs><style>.a{fill:#fff;stroke:#000;stroke-width:2.5px;}.b{isolation:isolate;font-size:45.45px;font-family:Arial-BoldMT, Arial;font-weight:700;}</style></defs><title>c8</title><path class="a" d="M1.25,238a6.89,6.89,0,0,0,6.87,6.87H160.91a6.88,6.88,0,0,0,6.86-6.87V9.72a6.88,6.88,0,0,0-6.86-6.87H8.12A6.89,6.89,0,0,0,1.25,9.72Z"/><text class="b" transform="translate(5.25 38.99) scale(0.53 1)">8</text><text class="b" transform="translate(164.77 207.77) rotate(180) scale(0.53 1)">8</text><path d="M11.55,48.33a3.38,3.38,0,1,0,3.38-3.28A3.33,3.33,0,0,0,11.55,48.33Z"/><path d="M7.19,54.54a3.38,3.38,0,1,0,3.38-3.28A3.33,3.33,0,0,0,7.19,54.54Z"/><path d="M15.84,54.56a3.21,3.21,0,0,0,.55,1.8,3.41,3.41,0,0,0,2.83,1.48,3.28,3.28,0,1,0-3.38-3.28Z"/><path d="M11,60.93c1.67,0,2.55-1.36,3-2.72a10.56,10.56,0,0,0,.5-2.72h.86s.16,5.43,3.5,5.44Z"/><path d="M17.21,50.74a7.42,7.42,0,0,0-1.9,4.75h-.85a7.48,7.48,0,0,0-1.85-4.76"/><path d="M16.83,56.84a7.42,7.42,0,0,0-4.75-1.9v-.85a7.48,7.48,0,0,0,4.76-1.85"/><path d="M13,56.85a7.42,7.42,0,0,1,4.75-1.9V54.1A7.48,7.48,0,0,1,13,52.25"/><path d="M158.47,198.43a3.38,3.38,0,1,0-3.38,3.28A3.33,3.33,0,0,0,158.47,198.43Z"/><path d="M162.83,192.22a3.38,3.38,0,1,0-3.38,3.28A3.33,3.33,0,0,0,162.83,192.22Z"/><path d="M154.17,192.2a3.21,3.21,0,0,0-.55-1.8,3.41,3.41,0,0,0-2.83-1.48,3.28,3.28,0,1,0,3.38,3.28Z"/><path d="M159.06,185.84c-1.67,0-2.55,1.36-3,2.72a10.56,10.56,0,0,0-.5,2.72h-.86s-.16-5.43-3.5-5.44Z"/><path d="M152.8,196a7.42,7.42,0,0,0,1.9-4.75h.85A7.48,7.48,0,0,0,157.4,196"/><path d="M153.18,189.93a7.42,7.42,0,0,0,4.75,1.9v.85a7.48,7.48,0,0,0-4.76,1.85"/><path d="M157,189.92a7.42,7.42,0,0,1-4.75,1.9v.85a7.48,7.48,0,0,1,4.76,1.85"/><path d="M37.06,28.42a8.11,8.11,0,1,0,8.11-7.87A8,8,0,0,0,37.06,28.42Z"/><path d="M26.6,43.32a8.11,8.11,0,1,0,8.11-7.87A8,8,0,0,0,26.6,43.32Z"/><path d="M47.38,43.37a7.71,7.71,0,0,0,1.32,4.32,8.19,8.19,0,0,0,6.79,3.55,7.87,7.87,0,1,0-8.11-7.87Z"/><path d="M35.65,58.65c4,0,6.12-3.26,7.22-6.53a25.34,25.34,0,0,0,1.2-6.53h2.06s.38,13,8.4,13.05Z"/><path d="M50.66,34.2c-4.56,4.56-4.56,11.4-4.56,11.4l-2,0s0-7-4.44-11.42"/><path d="M49.75,48.84c-4.56-4.56-11.4-4.56-11.4-4.56v-2s7,0,11.42-4.44"/><path d="M40.61,48.86C45.17,44.3,52,44.3,52,44.3v-2s-7,0-11.42-4.44"/><path d="M37.06,82.56a8.11,8.11,0,1,0,8.11-7.87A8,8,0,0,0,37.06,82.56Z"/><path d="M26.6,97.46a8.11,8.11,0,1,0,8.11-7.87A8,8,0,0,0,26.6,97.46Z"/><path d="M47.38,97.5a7.71,7.71,0,0,0,1.32,4.32,8.19,8.19,0,0,0,6.79,3.55,7.87,7.87,0,1,0-8.11-7.87Z"/><path d="M35.65,112.79c4,0,6.12-3.26,7.22-6.53a25.34,25.34,0,0,0,1.2-6.53h2.06s.38,13,8.4,13.05Z"/><path d="M50.66,88.34c-4.56,4.56-4.56,11.4-4.56,11.4l-2,0s0-7-4.44-11.42"/><path d="M49.75,103c-4.56-4.56-11.4-4.56-11.4-4.56v-2s7,0,11.42-4.44"/><path d="M40.61,103C45.17,98.44,52,98.44,52,98.44v-2s-7,0-11.42-4.44"/><path d="M53.13,160.06A8.11,8.11,0,1,0,45,167.93,8,8,0,0,0,53.13,160.06Z"/><path d="M63.59,145.16A8.11,8.11,0,1,0,55.49,153,8,8,0,0,0,63.59,145.16Z"/><path d="M42.82,145.11a7.71,7.71,0,0,0-1.32-4.32,8.19,8.19,0,0,0-6.79-3.55,7.87,7.87,0,1,0,8.11,7.87Z"/><path d="M54.55,129.83c-4,0-6.12,3.26-7.22,6.53a25.34,25.34,0,0,0-1.2,6.53H44.07s-.38-13-8.4-13.05Z"/><path d="M39.53,154.27c4.56-4.56,4.56-11.4,4.56-11.4l2,0s0,7,4.44,11.42"/><path d="M40.44,139.64c4.56,4.56,11.4,4.56,11.4,4.56v2s-7,0-11.42,4.44"/><path d="M49.58,139.62c-4.56,4.56-11.4,4.56-11.4,4.56v2s7,0,11.42,4.44"/><path d="M53.13,214.19A8.11,8.11,0,1,0,45,222.06,8,8,0,0,0,53.13,214.19Z"/><path d="M63.59,199.29a8.11,8.11,0,1,0-8.11,7.87A8,8,0,0,0,63.59,199.29Z"/><path d="M42.82,199.25a7.71,7.71,0,0,0-1.32-4.32,8.19,8.19,0,0,0-6.79-3.55,7.87,7.87,0,1,0,8.11,7.87Z"/><path d="M54.55,184c-4,0-6.12,3.26-7.22,6.53a25.34,25.34,0,0,0-1.2,6.53H44.07s-.38-13-8.4-13.05Z"/><path d="M39.53,208.41c4.56-4.56,4.56-11.4,4.56-11.4l2,0s0,7,4.44,11.42"/><path d="M40.44,193.78c4.56,4.56,11.4,4.56,11.4,4.56v2s-7,0-11.42,4.44"/><path d="M49.58,193.75c-4.56,4.56-11.4,4.56-11.4,4.56v2s7,0,11.42,4.44"/><path d="M116.89,28.42A8.11,8.11,0,1,0,125,20.55,8,8,0,0,0,116.89,28.42Z"/><path d="M106.43,43.32a8.11,8.11,0,1,0,8.11-7.87A8,8,0,0,0,106.43,43.32Z"/><path d="M127.2,43.37a7.71,7.71,0,0,0,1.32,4.32,8.19,8.19,0,0,0,6.79,3.55,7.87,7.87,0,1,0-8.11-7.87Z"/><path d="M115.47,58.65c4,0,6.12-3.26,7.22-6.53a25.34,25.34,0,0,0,1.2-6.53H126s.38,13,8.4,13.05Z"/><path d="M130.49,34.2c-4.56,4.56-4.56,11.4-4.56,11.4l-2,0s0-7-4.44-11.42"/><path d="M129.58,48.84c-4.56-4.56-11.4-4.56-11.4-4.56v-2s7,0,11.42-4.44"/><path d="M120.44,48.86c4.56-4.56,11.4-4.56,11.4-4.56v-2s-7,0-11.42-4.44"/><path d="M116.89,82.56A8.11,8.11,0,1,0,125,74.69,8,8,0,0,0,116.89,82.56Z"/><path d="M106.43,97.46a8.11,8.11,0,1,0,8.11-7.87A8,8,0,0,0,106.43,97.46Z"/><path d="M127.2,97.5a7.71,7.71,0,0,0,1.32,4.32,8.19,8.19,0,0,0,6.79,3.55,7.87,7.87,0,1,0-8.11-7.87Z"/><path d="M115.47,112.79c4,0,6.12-3.26,7.22-6.53a25.34,25.34,0,0,0,1.2-6.53H126s.38,13,8.4,13.05Z"/><path d="M130.49,88.34c-4.56,4.56-4.56,11.4-4.56,11.4l-2,0s0-7-4.44-11.42"/><path d="M129.58,103c-4.56-4.56-11.4-4.56-11.4-4.56v-2s7,0,11.42-4.44"/><path d="M120.44,103c4.56-4.56,11.4-4.56,11.4-4.56v-2s-7,0-11.42-4.44"/><path d="M133,160.06a8.11,8.11,0,1,0-8.11,7.87A8,8,0,0,0,133,160.06Z"/><path d="M143.42,145.16a8.11,8.11,0,1,0-8.11,7.87A8,8,0,0,0,143.42,145.16Z"/><path d="M122.65,145.11a7.71,7.71,0,0,0-1.32-4.32,8.19,8.19,0,0,0-6.79-3.55,7.87,7.87,0,1,0,8.11,7.87Z"/><path d="M134.38,129.83c-4,0-6.12,3.26-7.22,6.53a25.34,25.34,0,0,0-1.2,6.53h-2.06s-.38-13-8.4-13.05Z"/><path d="M119.36,154.27c4.56-4.56,4.56-11.4,4.56-11.4l2,0s0,7,4.44,11.42"/><path d="M120.27,139.64c4.56,4.56,11.4,4.56,11.4,4.56v2s-7,0-11.42,4.44"/><path d="M129.41,139.62c-4.56,4.56-11.4,4.56-11.4,4.56v2s7,0,11.42,4.44"/><path d="M133,214.19a8.11,8.11,0,1,0-8.11,7.87A8,8,0,0,0,133,214.19Z"/><path d="M143.42,199.29a8.11,8.11,0,1,0-8.11,7.87A8,8,0,0,0,143.42,199.29Z"/><path d="M122.65,199.25a7.71,7.71,0,0,0-1.32-4.32,8.19,8.19,0,0,0-6.79-3.55,7.87,7.87,0,1,0,8.11,7.87Z"/><path d="M134.38,184c-4,0-6.12,3.26-7.22,6.53A25.34,25.34,0,0,0,126,197h-2.06s-.38-13-8.4-13.05Z"/><path d="M119.36,208.41c4.56-4.56,4.56-11.4,4.56-11.4l2,0s0,7,4.44,11.42"/><path d="M120.27,193.78c4.56,4.56,11.4,4.56,11.4,4.56v2s-7,0-11.42,4.44"/><path d="M129.41,193.75c-4.56,4.56-11.4,4.56-11.4,4.56v2s7,0,11.42,4.44"/></svg>