<svg xmlns="http://www.w3.org/2000/svg" viewBox="0 0 169.01 246.76"><defs><style>.a{fill:#fff;stroke:#000;stroke-width:2.5px;}.b{isolation:isolate;font-size:45.45px;font-family:Arial-BoldMT, Arial;font-weight:700;}.b,.c{fill:#e6180a;}</style></defs><title>d10</title><path class="a" d="M1.25,238a6.89,6.89,0,0,0,6.87,6.87H160.91a6.88,6.88,0,0,0,6.86-6.87V9.72a6.88,6.88,0,0,0-6.86-6.87H8.12A6.89,6.89,0,0,0,1.25,9.72Z"/><text class="b" transform="translate(5.25 38.99) scale(0.31 1)">10</text><text class="b" transform="translate(164.77 207.77) rotate(180) scale(0.31 1)">10</text><path class="c" d="M14.9,53h7.68a4.81,4.81,0,0,1-2.32-1.07A20.35,20.35,0,0,1,16,47.76a5.18,5.18,0,0,1-1.13-2.71M22.58,53a5.28,5.28,0,0,0-2.9,1.39,21.11,21.11,0,0,0-3.88,4.36,4.69,4.69,0,0,0-.89,2.18V53m0,7.94a5.79,5.79,0,0,0-1.44-3.12,20.88,20.88,0,0,0-4.23-4,4.19,4.19,0,0,0-2-.86H14.9M7.23,53a5.29,5.29,0,0,0,2.9-1.39A21.14,21.14,0,0,0,14,47.23a4.69,4.69,0,0,0,.89-2.18V53"/><path class="c" d="M155.12,193.77h-7.68a4.81,4.81,0,0,1,2.32,1.07A20.35,20.35,0,0,1,154,199a5.18,5.18,0,0,1,1.13,2.71m-7.68-7.94a5.28,5.28,0,0,0,2.9-1.39,21.11,21.11,0,0,0,3.88-4.36,4.69,4.69,0,0,0,.89-2.18v7.94m0-7.94a5.79,5.79,0,0,0,1.44,3.12,20.88,20.88,0,0,0,4.23,4,4.19,4.19,0,0,0,2,.86h-7.68m7.68,0a5.29,5.29,0,0,0-2.9,1.39,21.14,21.14,0,0,0-3.88,4.36,4.69,4.69,0,0,0-.89,2.18v-7.94"/><path class="c" d="M45.1,39.6H63.52c-2.1-.09-3.88-1.45-5.57-2.57a48.84,48.84,0,0,1-10.14-10c-1.31-1.93-2.68-4.1-2.72-6.51m18.43,19c-2.66.08-4.94,1.78-7,3.34a50.66,50.66,0,0,0-9.31,10.47c-1,1.61-2.09,3.31-2.15,5.24v-19m0,19c-.09-2.84-1.82-5.29-3.45-7.49A50.12,50.12,0,0,0,31.5,41.66c-1.47-.92-3-2-4.83-2.06H45.1m-18.43,0c2.66-.08,4.94-1.78,7-3.34A50.73,50.73,0,0,0,43,25.79c1-1.61,2.09-3.31,2.15-5.24v19"/><path class="c" d="M45.1,93.74H63.52c-2.1-.09-3.88-1.45-5.57-2.57a48.84,48.84,0,0,1-10.14-10c-1.31-1.93-2.68-4.1-2.72-6.51m18.43,19c-2.66.08-4.94,1.78-7,3.34a50.66,50.66,0,0,0-9.31,10.47c-1,1.61-2.09,3.31-2.15,5.24v-19m0,19c-.09-2.84-1.82-5.29-3.45-7.49A50.12,50.12,0,0,0,31.5,95.79c-1.47-.92-3-2-4.83-2.06H45.1m-18.43,0c2.66-.08,4.94-1.78,7-3.34A50.73,50.73,0,0,0,43,79.93c1-1.61,2.09-3.31,2.15-5.24v19"/><path class="c" d="M45.1,148.88H26.67c2.1.09,3.88,1.45,5.57,2.57a48.84,48.84,0,0,1,10.14,10c1.31,1.93,2.68,4.1,2.72,6.51m-18.43-19c2.66-.08,4.94-1.78,7-3.34A50.66,50.66,0,0,0,43,135.07c1-1.61,2.09-3.31,2.15-5.24v19m0-19c.09,2.84,1.82,5.29,3.45,7.49a50.12,50.12,0,0,0,10.14,9.51c1.47.92,3,2,4.83,2.06H45.1m18.43,0c-2.66.08-4.94,1.78-7,3.34a50.73,50.73,0,0,0-9.31,10.47c-1,1.61-2.09,3.31-2.15,5.24v-19"/><path class="c" d="M45.1,203H26.67c2.1.09,3.88,1.45,5.57,2.57a48.84,48.84,0,0,1,10.14,10c1.31,1.93,2.68,4.1,2.72,6.51M26.67,203c2.66-.08,4.94-1.78,7-3.34A50.66,50.66,0,0,0,43,189.2c1-1.61,2.09-3.31,2.15-5.24v19m0-19c.09,2.84,1.82,5.29,3.45,7.49A50.12,50.12,0,0,0,58.69,201c1.47.92,3,2,4.83,2.06H45.1m18.43,0c-2.66.08-4.94,1.78-7,3.34a50.73,50.73,0,0,0-9.31,10.47c-1,1.61-2.09,3.31-2.15,5.24V203"/><path class="c" d="M124.93,39.6h18.43c-2.1-.09-3.88-1.45-5.57-2.57a48.84,48.84,0,0,1-10.14-10c-1.31-1.93-2.68-4.1-2.72-6.51m18.43,19c-2.66.08-4.94,1.78-7,3.34a50.66,50.66,0,0,0-9.31,10.47c-1,1.61-2.09,3.31-2.15,5.24v-19m0,19c-.09-2.84-1.82-5.29-3.45-7.49a50.12,50.12,0,0,0-10.14-9.51c-1.47-.92-3-2-4.83-2.06h18.43m-18.43,0c2.66-.08,4.94-1.78,7-3.34a50.73,50.73,0,0,0,9.31-10.47c1-1.61,2.09-3.31,2.15-5.24v19"/><path class="c" d="M124.93,93.74h18.43c-2.1-.09-3.88-1.45-5.57-2.57a48.84,48.84,0,0,1-10.14-10c-1.31-1.93-2.68-4.1-2.72-6.51m18.43,19c-2.66.08-4.94,1.78-7,3.34a50.66,50.66,0,0,0-9.31,10.47c-1,1.61-2.09,3.31-2.15,5.24v-19m0,19c-.09-2.84-1.82-5.29-3.45-7.49a50.12,50.12,0,0,0-10.14-9.51c-1.47-.92-3-2-4.83-2.06h18.43m-18.43,0c2.66-.08,4.94-1.78,7-3.34a50.73,50.73,0,0,0,9.31-10.47c1-1.61,2.09-3.31,2.15-5.24v19"/><path class="c" d="M124.93,148.88H106.5c2.1.09,3.88,1.45,5.57,2.57a48.84,48.84,0,0,1,10.14,10c1.31,1.93,2.68,4.1,2.72,6.51m-18.43-19c2.66-.08,4.94-1.78,7-3.34a50.66,50.66,0,0,0,9.31-10.47c1-1.61,2.09-3.31,2.15-5.24v19m0-19c.09,2.84,1.82,5.29,3.45,7.49a50.12,50.12,0,0,0,10.14,9.51c1.47.92,3,2,4.83,2.06H124.93m18.43,0c-2.66.08-4.94,1.78-7,3.34a50.73,50.73,0,0,0-9.31,10.47c-1,1.61-2.09,3.31-2.15,5.24v-19"/><path class="c" d="M124.93,203H106.5c2.1.09,3.88,1.45,5.57,2.57a48.84,48.84,0,0,1,10.14,10c1.31,1.93,2.68,4.1,2.72,6.51M106.5,203c2.66-.08,4.94-1.78,7-3.34a50.66,50.66,0,0,0,9.31-10.47c1-1.61,2.09-3.31,2.15-5.24v19m0-19c.09,2.84,1.82,5.29,3.45,7.49A50.12,50.12,0,0,0,138.52,201c1.47.92,3,2,4.83,2.06H124.93m18.43,0c-2.66.08-4.94,1.78-7,3.34a50.73,50.73,0,0,0-9.31,10.47c-1,1.61-2.09,3.31-2.15,5.24V203"/><path class="c" d="M85,66.67h18.43c-2.1-.09-3.88-1.45-5.57-2.57a48.84,48.84,0,0,1-10.14-10C86.42,52.2,85,50,85,47.62m18.43,19c-2.66.08-4.94,1.78-7,3.34a50.66,50.66,0,0,0-9.31,10.47c-1,1.61-2.09,3.31-2.15,5.24v-19m0,19c-.09-2.84-1.82-5.29-3.45-7.49a50.12,50.12,0,0,0-10.14-9.51c-1.47-.92-3-2-4.83-2.06H85m-18.43,0c2.66-.08,4.94-1.78,7-3.34a50.73,50.73,0,0,0,9.31-10.47c1-1.61,2.09-3.31,2.15-5.24v19"/><path class="c" d="M85,175.95H66.59c2.1.09,3.88,1.45,5.57,2.57a48.84,48.84,0,0,1,10.14,10C83.6,190.42,85,192.59,85,195m-18.43-19c2.66-.08,4.94-1.78,7-3.34a50.66,50.66,0,0,0,9.31-10.47c1-1.61,2.09-3.31,2.15-5.24v19m0-19c.09,2.84,1.82,5.29,3.45,7.49a50.12,50.12,0,0,0,10.14,9.51c1.47.92,3,2,4.83,2.06H85m18.43,0c-2.66.08-4.94,1.78-7,3.34a50.73,50.73,0,0,0-9.31,10.47c-1,1.61-2.09,3.31-2.15,5.24v-19"/></svg>