<svg xmlns="http://www.w3.org/2000/svg" viewBox="0 0 169.01 246.76"><defs><style>.a,.d{fill:#fff;}.a,.b,.e{stroke:#000;}.a{stroke-width:2.5px;}.b,.e{fill:none;}.c,.f{fill:#e6180a;}.e{stroke-width:7.25px;}.f{isolation:isolate;font-size:45.45px;font-family:Arial-BoldMT, Arial;font-weight:700;}.g{fill:#1c1585;}.h{fill:#e61408;}.i{fill:#f8c20f;}</style></defs><title>dk</title><path class="a" d="M1.25,238a6.89,6.89,0,0,0,6.87,6.87H160.91a6.88,6.88,0,0,0,6.86-6.87V9.72a6.88,6.88,0,0,0-6.86-6.87H8.12A6.89,6.89,0,0,0,1.25,9.72Z"/><path class="b" d="M10.62,63V240.31"/><path class="b" d="M10.62,240.31H141.47"/><path class="b" d="M159.39,184V6.46"/><path class="b" d="M159.39,6.46H28.54"/><path class="c" d="M37.32,33.5H55.75c-2.1-.09-3.88-1.45-5.57-2.57A48.84,48.84,0,0,1,40,21c-1.31-1.93-2.68-4.1-2.72-6.51m18.43,19c-2.66.08-4.94,1.78-7,3.34a50.66,50.66,0,0,0-9.31,10.47c-1,1.61-2.09,3.31-2.15,5.24v-19m0,19c-.09-2.84-1.82-5.29-3.45-7.49a50.12,50.12,0,0,0-10.14-9.51c-1.47-.92-3-2-4.83-2.06H37.32m-18.43,0c2.66-.08,4.94-1.78,7-3.34a50.73,50.73,0,0,0,9.31-10.47c1-1.61,2.09-3.31,2.15-5.24v19"/><rect class="d" x="18.82" y="14.52" width="9.69" height="37.95"/><path class="c" d="M132.69,213.39H114.27c2.1.09,3.88,1.45,5.57,2.57a48.84,48.84,0,0,1,10.14,10c1.31,1.93,2.68,4.1,2.72,6.51m-18.43-19c2.66-.08,4.94-1.78,7-3.34a50.66,50.66,0,0,0,9.31-10.47c1-1.61,2.09-3.31,2.15-5.24v19m0-19c.09,2.84,1.82,5.29,3.45,7.49a50.12,50.12,0,0,0,10.14,9.51c1.47.92,3,2,4.83,2.06H132.69m18.43,0c-2.66.08-4.94,1.78-7,3.34a50.73,50.73,0,0,0-9.31,10.47c-1,1.61-2.09,3.31-2.15,5.24v-19"/><rect class="d" x="141.94" y="194.41" width="9.69" height="37.95"/><line class="e" x1="41.7" y1="190.65" x2="128.31" y2="56.12"/><circle class="d" cx="44.02" cy="187.51" r="2.2" transform="translate(-5.87 1.48) rotate(-1.8)"/><circle cx="44.02" cy="187.51" r="0.7" transform="translate(-5.87 1.48) rotate(-1.8)"/><circle class="d" cx="47.07" cy="182.77" r="2.2" transform="translate(-5.72 1.57) rotate(-1.8)"/><circle cx="47.07" cy="182.77" r="0.7" transform="translate(-5.72 1.57) rotate(-1.8)"/><circle class="d" cx="50.13" cy="178.02" r="2.2" transform="translate(-5.57 1.66) rotate(-1.8)"/><circle cx="50.13" cy="178.02" r="0.7" transform="translate(-5.57 1.66) rotate(-1.8)"/><circle class="d" cx="53.18" cy="173.28" r="2.2" transform="translate(-5.42 1.76) rotate(-1.8)"/><circle cx="53.18" cy="173.28" r="0.7" transform="translate(-5.42 1.76) rotate(-1.8)"/><circle class="d" cx="56.23" cy="168.54" r="2.2" transform="translate(-5.27 1.85) rotate(-1.8)"/><circle cx="56.23" cy="168.54" r="0.7" transform="translate(-5.27 1.85) rotate(-1.8)"/><circle class="d" cx="59.3" cy="163.79" r="2.2" transform="translate(-5.12 1.94) rotate(-1.8)"/><circle cx="59.3" cy="163.79" r="0.7" transform="translate(-5.12 1.94) rotate(-1.8)"/><circle class="d" cx="62.35" cy="159.05" r="2.2" transform="translate(-4.97 2.04) rotate(-1.8)"/><circle cx="62.35" cy="159.05" r="0.7" transform="translate(-4.97 2.04) rotate(-1.8)"/><circle class="d" cx="65.4" cy="154.3" r="2.2" transform="translate(-4.81 2.13) rotate(-1.8)"/><circle cx="65.4" cy="154.3" r="0.7" transform="translate(-4.81 2.13) rotate(-1.8)"/><circle class="d" cx="68.46" cy="149.56" r="2.2" transform="translate(-4.66 2.22) rotate(-1.8)"/><circle cx="68.46" cy="149.56" r="0.7" transform="translate(-4.66 2.22) rotate(-1.8)"/><circle class="d" cx="71.51" cy="144.81" r="2.2" transform="translate(-4.51 2.32) rotate(-1.8)"/><circle cx="71.51" cy="144.81" r="0.7" transform="translate(-4.51 2.32) rotate(-1.8)"/><circle class="d" cx="74.56" cy="140.07" r="2.2" transform="translate(-4.36 2.41) rotate(-1.8)"/><circle cx="74.56" cy="140.07" r="0.7" transform="translate(-4.36 2.41) rotate(-1.8)"/><circle class="d" cx="77.62" cy="135.32" r="2.2" transform="translate(-4.21 2.5) rotate(-1.8)"/><circle cx="77.62" cy="135.32" r="0.7" transform="translate(-4.21 2.5) rotate(-1.8)"/><circle class="d" cx="80.67" cy="130.58" r="2.2" transform="translate(-4.06 2.6) rotate(-1.8)"/><circle cx="80.67" cy="130.58" r="0.7" transform="translate(-4.06 2.6) rotate(-1.8)"/><circle class="d" cx="83.74" cy="125.84" r="2.2" transform="translate(-3.91 2.69) rotate(-1.8)"/><circle cx="83.74" cy="125.84" r="0.7" transform="translate(-3.91 2.69) rotate(-1.8)"/><circle class="d" cx="86.79" cy="121.09" r="2.2" transform="translate(-3.76 2.79) rotate(-1.8)"/><circle cx="86.79" cy="121.09" r="0.7" transform="translate(-3.76 2.79) rotate(-1.8)"/><circle class="d" cx="89.84" cy="116.35" r="2.2" transform="translate(-3.61 2.88) rotate(-1.8)"/><circle cx="89.84" cy="116.35" r="0.7" transform="translate(-3.61 2.88) rotate(-1.8)"/><circle class="d" cx="92.9" cy="111.6" r="2.2" transform="translate(-3.46 2.97) rotate(-1.8)"/><circle cx="92.9" cy="111.6" r="0.7" transform="translate(-3.46 2.97) rotate(-1.8)"/><circle class="d" cx="95.95" cy="106.86" r="2.2" transform="translate(-3.31 3.07) rotate(-1.8)"/><circle cx="95.95" cy="106.86" r="0.7" transform="translate(-3.31 3.07) rotate(-1.8)"/><circle class="d" cx="99" cy="102.11" r="2.2" transform="translate(-3.16 3.16) rotate(-1.8)"/><circle cx="99" cy="102.11" r="0.7" transform="translate(-3.16 3.16) rotate(-1.8)"/><circle class="d" cx="102.06" cy="97.37" r="2.2" transform="translate(-3.01 3.25) rotate(-1.8)"/><circle cx="102.06" cy="97.37" r="0.7" transform="translate(-3.01 3.25) rotate(-1.8)"/><circle class="d" cx="105.11" cy="92.62" r="2.2" transform="translate(-2.86 3.35) rotate(-1.8)"/><circle cx="105.11" cy="92.62" r="0.7" transform="translate(-2.86 3.35) rotate(-1.8)"/><circle class="d" cx="108.17" cy="87.88" r="2.2" transform="translate(-2.71 3.44) rotate(-1.8)"/><circle cx="108.17" cy="87.88" r="0.7" transform="translate(-2.71 3.44) rotate(-1.8)"/><circle class="d" cx="111.23" cy="83.13" r="2.2" transform="translate(-2.56 3.53) rotate(-1.8)"/><circle cx="111.23" cy="83.13" r="0.7" transform="translate(-2.56 3.53) rotate(-1.8)"/><circle class="d" cx="114.28" cy="78.39" r="2.2" transform="translate(-2.41 3.63) rotate(-1.8)"/><circle cx="114.28" cy="78.39" r="0.7" transform="translate(-2.41 3.63) rotate(-1.8)"/><circle class="d" cx="117.33" cy="73.65" r="2.2" transform="translate(-2.26 3.72) rotate(-1.8)"/><circle cx="117.33" cy="73.65" r="0.7" transform="translate(-2.26 3.72) rotate(-1.8)"/><circle class="d" cx="120.39" cy="68.9" r="2.2" transform="translate(-2.1 3.82) rotate(-1.8)"/><circle cx="120.39" cy="68.9" r="0.7" transform="translate(-2.1 3.82) rotate(-1.8)"/><circle class="d" cx="123.44" cy="64.16" r="2.2" transform="translate(-1.95 3.91) rotate(-1.8)"/><circle cx="123.44" cy="64.16" r="0.7" transform="translate(-1.95 3.91) rotate(-1.8)"/><circle class="d" cx="126.49" cy="59.41" r="2.2" transform="translate(-1.8 4) rotate(-1.8)"/><circle cx="126.49" cy="59.41" r="0.7" transform="translate(-1.8 4) rotate(-1.8)"/><text class="f" transform="translate(5.25 38.99) scale(0.53 1)">K</text><text class="f" transform="translate(164.76 207.77) rotate(180) scale(0.53 1)">K</text><path class="c" d="M14.89,53h7.68a4.81,4.81,0,0,1-2.32-1.07A20.35,20.35,0,0,1,16,47.76a5.18,5.18,0,0,1-1.13-2.71M22.57,53a5.28,5.28,0,0,0-2.9,1.39,21.11,21.11,0,0,0-3.88,4.36,4.69,4.69,0,0,0-.89,2.18V53m0,7.94a5.79,5.79,0,0,0-1.44-3.12,20.88,20.88,0,0,0-4.23-4,4.19,4.19,0,0,0-2-.86h7.68M7.22,53a5.29,5.29,0,0,0,2.9-1.39A21.14,21.14,0,0,0,14,47.23a4.69,4.69,0,0,0,.89-2.18V53"/><path class="c" d="M155.11,193.77h-7.68a4.81,4.81,0,0,1,2.32,1.07A20.35,20.35,0,0,1,154,199a5.18,5.18,0,0,1,1.13,2.71m-7.68-7.94a5.28,5.28,0,0,0,2.9-1.39,21.11,21.11,0,0,0,3.88-4.36,4.69,4.69,0,0,0,.89-2.18v7.94m0-7.94a5.79,5.79,0,0,0,1.44,3.12,20.88,20.88,0,0,0,4.23,4,4.19,4.19,0,0,0,2,.86h-7.68m7.68,0a5.29,5.29,0,0,0-2.9,1.39,21.14,21.14,0,0,0-3.88,4.36,4.69,4.69,0,0,0-.89,2.18v-7.94"/><path class="g" d="M158.27,89.95l-2.79-4-1.27-.08c.32,2.87,1,5.71,1.12,8.6l.36,9.51c.1,2.63-.57,5.32-.61,8,0,2.9-.06,5.79,0,8.69.16,12-.91,23.75-7.24,34.23l-.08.12v.19h-.11c-3.07,5.07-6,9.86-9.51,14.67-3,4.18-6.4,8.06-9.42,12.23l2.64,3.34c3.16-1.08,7.49-2.52,9.8-5a49,49,0,0,0,4.53-4.81,49.54,49.54,0,0,0,2.82-5.23l-.32-4.34.87-2.31,4.65-3.39c2.42-4.18,5.08-8,5.09-13q0-9.27,0-18.52,0-12.79.07-25.57c0-4.43.52-9-.63-13.26"/><path class="h" d="M89.74,147.89c6.31-.59,12.57-1.27,18.84-2.11l-.46-.32h-.19c-4.82-3.81-9.86-6-15.43-8.55l0,0c-3.43-1.13-7.77-.91-11.37-1.3-2.25,3.9-5,7.61-7.47,11.41,5.36.41,10.69.68,16.05.9"/><path class="h" d="M138,101.63q-2.4,6.06-4.79,12.13c-1.22,3.08-.55,7.56-.7,10.87,3.38-.79,7-2.12,10.42-2.44l11.32-1.07.67-.7c.13-8.2.75-16.28.43-24.47-.15-3.91-.36-8.54-2-12.12a67,67,0,0,0-6.92-11.62l-1.17,0A96.43,96.43,0,0,1,143,84.95q-2.47,8.34-4.92,16.68"/><path class="h" d="M129.88,103.6c.51-1.7,1-3.39,1.54-5.09.42-1.38,1.26-3,1.23-4.5-8.68,7-19.18,9.83-30.18,9.88a6.93,6.93,0,0,0-1,3c-.54,2.28-1.09,4.56-1.63,6.84-.78,3.28-1.78,6.44-1.84,9.82l10.65,6.23c3.43,2,5.84,5.38,9.44,7.2,4-11.11,8-22.22,11.8-33.39"/><path class="h" d="M142.18,164.18l5.46-9h.11V155a72.14,72.14,0,0,0,3.87-8.08c1.19-2.67,1.48-5.54,2-8.42a62.78,62.78,0,0,0-12-.19l-.5.59h-5.67c-.22,2.66-1,5.32-1,8l-.06.07h-.27c-1.17,7.49-8.67,13.32-15.34,15.51v3.17h.13a35.08,35.08,0,0,0,1.88,7.77c2.32,2.67,4.66,5.18,7.19,7.65l1.29.3q6.51-8.55,13-17.11"/><polyline class="h" points="118.72 146.9 118.72 148.69 119.24 146.9 118.72 146.9"/><path class="g" d="M128.64,125.42c3.23-8.19,7.24-16.47,9.73-24.91q2.53-8.59,5.06-17.19c1.13-3.84,1.39-8,2-12a37.63,37.63,0,0,0-7.84-7.09l-.12.72a67.62,67.62,0,0,1,3.62,8.38c-.28,7.85-1.85,15.35-8.3,20.54-1.68,7.57-4.72,15-7.23,22.31s-5.07,14.28-7.63,21.42l3.16,3.72c1.29-2.67,2.64-5.31,3.88-8,1.14-2.51,1.88-5.84,3.67-7.95"/><path class="i" d="M109.74,103.52a44.34,44.34,0,0,0,22.58-9.24c6.7-5.38,8.48-12.69,8.77-20.92a86.52,86.52,0,0,0-5-10.9L131.16,59l-1.29.47c-2.33,3.63-4.54,7.34-7,10.9a120,120,0,0,0-7.25,11.32c-2.1,4-5,7.71-7.42,11.55-2.24,3.56-4.5,7.19-6.92,10.62a78.8,78.8,0,0,0,8.42-.37"/><path class="i" d="M102.15,141.26c2.17.75,4,2.79,5.79,4.2l11.44.54.65-2.66c-6.7-6.92-13.9-13.62-23.14-16.86a21.25,21.25,0,0,1-.71,6.78,50.67,50.67,0,0,0-3.67,3.66l9.65,4.35"/><path class="i" d="M125.57,159.17c2-1.8,4.85-4,6-6.46a40.42,40.42,0,0,0,3.09-8.41,23.12,23.12,0,0,0,.79-8.39c-.21-1.39-.12-3.41-.79-4.66q-1.24-2.34-2.48-4.68l-2.72-2.33c-4,5.59-6.3,13.17-9.07,19.44s-2.57,12.16-2,18.82a33.28,33.28,0,0,0,7.15-3.35"/><path class="h" d="M121.79,180.86l-2.12-1.38c-4.17,5.1-8.42,9.47-14.11,12.84l3.83.72,2.31,2.83,1.45.6a22.48,22.48,0,0,1,6.18-4.73,37.86,37.86,0,0,0,7-5.5l-1.18-2.64-3.35-2.74"/><path class="h" d="M57.84,181.33l-1.91-3.88-.15-2.13.25-.38a67,67,0,0,0-3.53,5.95,15.43,15.43,0,0,0,3,4.06l5.77,1.88,1.88-.55-3-.63-2.34-4.32"/><path class="h" d="M85.66,177.5l.95-9.55,3.68-.37-.62-.24a43.28,43.28,0,0,1-9-.94,35.85,35.85,0,0,1-5.22,1.46c.68,4.84,1.06,9.63,1.4,14.5L74,183c2.18-.17,4.73-.8,6.88-.36l8.22,1.65L84.92,183l.74-5.49"/><polyline class="h" points="95.5 168.55 95.2 168.41 92.52 168.4 92.77 168.5 95.5 168.55"/><polyline class="h" points="69.62 168.19 69.25 168.29 73.12 167.99 69.62 168.19"/><path class="h" d="M67.53,178l-1.41-8.18,1.48-1.1c-2.53.7-5.07,1.35-7.62,2l-1.69,2.5-1.14.09,0,.07,1.37.6c1.55,3.76,2.82,7.75,5.07,11.14l-.35,1.14c2.27-.67,4.44-1.48,6.66-2.33l-.48.11-1.84-6"/><path class="h" d="M102.16,185.84c3-3.76,5.87-7.64,8.57-11.66l1.54-.17-1.22-.33-.63-.82c-1.22-.73-2.66-2-4-2.33l-5.72-1.34-3,.4L96.47,169l1.14.69a144.78,144.78,0,0,1-4.79,15.77l-.17,0c2.86,1.44,6,2.65,8.7,4.44l-1.92-1.47,2.73-2.57"/><path class="i" d="M113.14,186.9c2.25-2.47,4.49-4.92,6.61-7.51l-1.57-1.84-2.58-1.17-1.38-1.85-1.61-.56-1.88.21c-3.41,5.07-6.84,10-11.3,14.22l5.55,4.25a74.53,74.53,0,0,0,8.16-5.76"/><path class="i" d="M95.77,177.34l1.84-7.63-1.9-1.16-2.94-.06-2.32-.93-3.85.39c-.5,5-1,10-1.69,15l7.91,2.5,2.95-8.15"/><path class="i" d="M76.24,173.42c-.26-1.87-.53-3.74-.79-5.61l-7.36.56-2,1.47a115,115,0,0,0,3.25,14.2l7.49-1.68-.62-8.95"/><path class="i" d="M62.14,183c-1.2-3-2.44-6-3.67-9l-1.42-.62-1.28,1.95.15,2.13c1.36,2.77,2.78,5.49,4.25,8.2l3,.63c.12-.38.23-.77.35-1.15L62.14,183"/><path class="i" d="M115.82,227.92l-2.36-.84-1-1.82c-1-.18-2-.48-3-.75a27.49,27.49,0,0,1-2.79-3l-1-3.2-2-1.82a80.57,80.57,0,0,1-17.37,6,78.9,78.9,0,0,1-17.69,1.45l-1.23.86L66.33,227l.58.92c-.18,4.33-2.14,7.68-5.17,10.69l-.13,1.13,1,.07,1.11-1.93.83-.19.09,2.89.8.07c1.11-.39,2.18-.88,3.26-1.34l1.67-2.64.22-2.31-.73-.74a14,14,0,0,1-3.39,1.16c.32-.83.63-1.67,1-2.48l2.25-1a42,42,0,0,0,5.77,2.89l-.07,2.52,1.85.8.77-.64,1.29-.21.25-.62-.49-1.1.43-.52,3.2.28a15.29,15.29,0,0,0,2.35,3.92,12.21,12.21,0,0,0,4.24,1.27,12.6,12.6,0,0,0,4.07-2.69l.69-4.12L98,231.27l.15,2.43h2.46l.77-1.2.74-.4a10,10,0,0,1-1.34-2.68,21.74,21.74,0,0,0,2.57-5.34l4,.41,2.76,1.67-3.58,1.32,1.72,2.55,3,1.4,3.32-.3a8.38,8.38,0,0,0,2.25-2.27l-.18-.55-.77-.4"/><path d="M70.78,233.32c-1.12-.09-2,.74-3.1,1-.42.09-1.13.48-.73-.31a8.2,8.2,0,0,0,.58-1.41,7,7,0,0,0-1,.25c.45-.84.88-2,2-2a7.54,7.54,0,0,0-1,1.5c.56-.11,1.49-.81,2.06-.6,1.56.58,2.71,1.78,4.38,2.16.74.17,1.58.65,1.28,1.52s-.5,1.58.45,1.88c.6.2,1.42.8,2,.42.34-.22.59-.61,1-.58.16,0,1,.15,1-.07.26-.71-.06-1.26-.27-1.94.85-.2,2.37-.54,3.13.13s.84,1.92,1.38,2.63a6.56,6.56,0,0,0,5.81,2.21,4.66,4.66,0,0,0,2.66-1.39,4.85,4.85,0,0,0,1.62-2.57,5.55,5.55,0,0,1,.9-3c.62-.71,1.93-1,2.76-1.41.27.92-.18,1.74,0,2.65,0,.07,2.26-.18,2.57-.16.62,0,.64,0,.82-.61s1.41-.94,1.35-1.4a2.27,2.27,0,0,0-1.2-1.46c.13.43.35.83.49,1.25a.93.93,0,0,0-.74.36c-.29.36-.06.9-.56.86s-1.34-.32-1.95,0c0-.41-.2-2.21.15-2.52s.75-.88,1.11-1,.9.18,1.25.25c0-1,.81-1.78,1.29-2.58s.85-1.95,1.74-2.44c1.57-.85,4.09.21,5.23,1.3-.35,0-2.79.42-3,.74s.2,1.06.29,1.3a4,4,0,0,0,.95,1.46,7.77,7.77,0,0,0,2.8,1.83,6.32,6.32,0,0,0,3.09.13,3.82,3.82,0,0,0,2.75-1.53c.27-.41.86-1,.75-1.49-.18-.9-1.94-1.09-2.61-1.44a3.25,3.25,0,0,1-1.38-1.24c-.19-.34-.33-1-.79-1a8.17,8.17,0,0,1-1.78-.29,4.85,4.85,0,0,1-2.43-2.06,16.33,16.33,0,0,1-1.51-4.23c-.12-.56-.61-.87-1-1.26a2.53,2.53,0,0,1-.33-2.72,13.74,13.74,0,0,0,.62-3.42,11.18,11.18,0,0,0-.45-3.5c-.3-1-.83-2.19-.23-3.21a4.75,4.75,0,0,1,2.84-1.72c.7-.22,2.08.65,2.64,1a10,10,0,0,0,3.61,1.13,5.32,5.32,0,0,0,3.12-.67c1.15-.61,1.15-2.32,1.16-3.45,0-.67,0-2.35,1.09-2a7.19,7.19,0,0,0,3.26.57c1.3-.17,1.75-1.23,2.36-2.23,1.1-1.82-.84-3.64-.38-5.39.23-.85.55-1.88,1.7-1.7-.45-.74-1-.54-1.64-.2s-.78.9-.86,1.64c-.15,1.33.57,2.83.71,4.15a3.22,3.22,0,0,1-2,3c-1.19.46-3.19,0-3.49-1.36,1.3,0,3.53.3,4.25-1.11s.15-3.23-.17-4.84c-.19-1,2.06-3.41,3-2.63s1.4.9.8,2-1.28.26-1.91-.14a1.07,1.07,0,0,0,.76,1.41,4.11,4.11,0,0,0,1.17-.26c.36-.08.35-.24.51-.58a2.29,2.29,0,0,0,.26-2,4.16,4.16,0,0,0-.94-1.52c4.2-.13,8.35-2.7,11.82-4.84a25.19,25.19,0,0,0,9.11-9.37,10.22,10.22,0,0,0,1.12-4.27c.07-1-.63-2.61-.26-3.56.5-1.29,2.7-2.12,3.69-3a20.88,20.88,0,0,0,3.58-4.58,26,26,0,0,0,3-6.09,12.92,12.92,0,0,0,.19-2.71c.08-1.16.21-2.29.22-3.46,0-2.46,0-4.92,0-7.38q0-7.42,0-14.83c0-10.11,0-20.21.11-30.33,0-3.36-3-5.93-5-8.27a19.63,19.63,0,0,1-2.31-4.37,32.17,32.17,0,0,0-3.07-5.06,58.39,58.39,0,0,0-7.43-8.51,56.24,56.24,0,0,0-8.76-7.18c-.58-.35-2.32-1.67-2.68-.78s-1,1.58-1.37,2.41c1.74-.2,3.95,2.53,4.89,3.71,1.18,1.49,3.13,3.94,3.09,5.93,0,.82-.22.78-1,1a4.79,4.79,0,0,1-2.4-.45,9,9,0,0,0-3.24-.63,16.77,16.77,0,0,0-2.75.31,5.32,5.32,0,0,1-2.65.21,14.29,14.29,0,0,1-2-.83c-.14.43-.36.82-.5,1.25,1-.16,1.88.41,2.83.45a11,11,0,0,0,2.73-.45c1.28-.27,3.4-.6,4.2.78-.91-.21-2.67.57-3.5.9-1,.39-2.47,1-2.51,2.33a29.66,29.66,0,0,1,3.25.51c-.45,1-1.78,1.4-2.13,2.36-.15.41-.14.4.27.55,1.15.41,3.19-.66,4.06.32.55.62,1,1.51,1.7.56a7.42,7.42,0,0,0,1.1-2,3.3,3.3,0,0,0,1.5.5,10.79,10.79,0,0,0,0-2.78,14.13,14.13,0,0,1-.78-3,6.17,6.17,0,0,1,1.55.14c1.59.38,1,3.9.92,5A17.28,17.28,0,0,1,135.91,84a23.25,23.25,0,0,1-8.18,9.46A38.47,38.47,0,0,1,116.15,99a63.89,63.89,0,0,1-6.46,1.21c-1.89.33-4.13.7-5.92-.22-.31.6-.72,1.14-1,1.75a50.27,50.27,0,0,1,6.5-.73c2.4-.23,4.68-.88,7-1.3a27.49,27.49,0,0,0,5.94-2.18,35.44,35.44,0,0,0,6.25-3.5,22.62,22.62,0,0,0,8-9.48,19.27,19.27,0,0,0,1.62-6.41,23.59,23.59,0,0,0-.24-7,15.77,15.77,0,0,0-2.63-5.95,22.3,22.3,0,0,0-2.56-2.92c-.7-.62-1.73-1-2.17-1.88-.75-1.49,1.2-.78,1.85-.29a22,22,0,0,1,5.42,6.31,21.58,21.58,0,0,1,2.74,8.08c.08.56.58,1,.6.17a11.83,11.83,0,0,0-.25-2.79,28.08,28.08,0,0,0-1.2-3.67c-.44-1.13-1.21-2.14-1.54-3.32,2,1.67,4.47,3.45,6,5.62a2,2,0,0,1,.58,1.68c-.09,1.55-.78,3-.84,4.57a35,35,0,0,1-.47,4.2,70,70,0,0,1-2,8.32A137.21,137.21,0,0,1,135.54,107q-1.81,4.29-3.64,8.56a72.76,72.76,0,0,0-3.49,8.56c-.81,2.88-2.37,5.44-3.48,8.21s-2.47,5.56-3.82,8.27a14.31,14.31,0,0,1-2.22-2.51c-.65-1.1.19-2.47.58-3.52a38.56,38.56,0,0,0,1.42-4.08c.69-2.7,2.14-5.24,3-7.89,1.88-5.49,3.81-10.95,5.58-16.46.91-2.84,1.56-5.71,2.4-8.55a8.14,8.14,0,0,1,1.38-3.19c.9-1,2-1.84,2.82-2.91a20.55,20.55,0,0,0,2.06-3.28,22.51,22.51,0,0,0,1.82-4,29.39,29.39,0,0,0,1.09-8.25c-.65.47-.53,1.43-.51,2.13a12.43,12.43,0,0,1-.52,3.42,23.43,23.43,0,0,1-2.68,6.65c-3.3,5.43-9.25,9.13-14.91,11.7a45.7,45.7,0,0,1-15.75,3.65c-.9,0-1.79,0-2.69,0s-1.92-.29-2.6.28,0,.66,0,1.29a17.86,17.86,0,0,1-.5,2.8c-.47,2.15-.93,4.31-1.43,6.46s-1,4.19-1.52,6.28c-.2.78-.8,3,0,3.54,1.71,1.15,3.68,1.88,5.45,2.95a69,69,0,0,1,5.75,4,73.28,73.28,0,0,1,10.09,9c.68.74,1.41,1.72,1.09,2.77a11.53,11.53,0,0,1-2-2c-.95-1-1.87-1.91-2.9-2.79-2-1.7-4-3.39-6-5a51.62,51.62,0,0,0-6.13-4.22,28.82,28.82,0,0,0-3.53-1.73,7.64,7.64,0,0,1-2.85-1.34,3.25,3.25,0,0,1-1.17-2.49c.12-2.55,1.22-5.06,1.82-7.53.68-2.81,1.24-5.66,1.95-8.46a5.14,5.14,0,0,0-1.59,2.21,3.12,3.12,0,0,0-.22,1.17,4.9,4.9,0,0,1-.61,1.73A4.3,4.3,0,0,1,95.81,114c-.68.48-1.08.17-1.59.95a5,5,0,0,0-.54,1c1-.25,1.51-.37,2.06.56a2.43,2.43,0,0,1,.22,2.22,4.31,4.31,0,0,1-1.77,2c-.53.32-1.52-.64-2-.81.1.7.37,1.41.51,2.12.1.54-.36,1.13-.52,1.63a5.12,5.12,0,0,1,4.44,4.21c.26,2.06.12,4.64-1.58,6.14a8.45,8.45,0,0,1-2.84,1.85c-1.85.59-4-.24-5.84-.42-1-.1-2-.17-3.07-.26-.62,0-1.69-.51-2.1.1s-3.4,4.92-2.88,5.18a2.22,2.22,0,0,1,.65.38c.07.08.38.52.42.54.62.14,1.8-1.78,2.26-2.15a2.3,2.3,0,0,1,2.94.41c1,.91,2,.06,2.94-.5s2.23.3,2.67.95a6.47,6.47,0,0,1,.54,1.24c.27.66,1.2,0,1.59-.18a2.31,2.31,0,0,1,2.58.22c.38.36,1,.76,1.2,1.26s.29,1,.49,1.49c0-.06,3-.77,3.18-.82s1,.63,1.33.83.3,1.09.13,1.46c-.69,1.47-4.46,1.25-5.75,1.32-2.75.15-5.41.53-8.17.51s-5.49-.29-8.22-.47a32.76,32.76,0,0,1-3.44-.11,7.73,7.73,0,0,1-1.58-.44,7.65,7.65,0,0,0-1,1.71,12.72,12.72,0,0,1,5.49-.35c1.81.22,3.62,0,5.43.24a43.43,43.43,0,0,0,11.22-.19c1.9-.3,3.79-.36,5.7-.57s3.81-.66,5.73-.87,3.71-.23,5.57-.27a26.83,26.83,0,0,1,5.67.29c1.29.28.58,2.1-.39,2.28a8.19,8.19,0,0,1-2.37-.11,18.29,18.29,0,0,0-3,.07,44.88,44.88,0,0,0-5.55.64,86.42,86.42,0,0,1-11.47,1.21,31.21,31.21,0,0,1-5.47,0,54.24,54.24,0,0,0-5.55-.38c-2,0-3.91-.09-5.86-.29a54.78,54.78,0,0,1-5.89-.44c-.41-.09-.38.07-.55.43s-.36.66-.52,1a8.09,8.09,0,0,1,5.3.13c.88.31.44,3.74.43,4.35,0,2.15.57,4.68,0,6.76-.42,1.39-3.64,1.22-4.72,1.26,0-1-.24-2-.24-3a2.55,2.55,0,0,0-.32,1.78c0,.45.33,1.28-.31,1.22a10.8,10.8,0,0,1-.26-2.25c0-.23,0-2.86-.61-2.26-.18.22,0,1.29,0,1.52,0,1,0,2,0,3a6.48,6.48,0,0,1-.49-3.08c0-1.15-.25-2.27-.24-3.42-.75.83-.27,3.46-.27,4.5a6.72,6.72,0,0,1-.43-2.92c-.06-1.28,0-2.54,0-3.83A13.67,13.67,0,0,0,67.11,157c-.49.71-.69.73-.26,1.46.82,1.37.3,3.41.39,4.92s.93,1.53,2.2,1.36a80.64,80.64,0,0,1,9.44-1.07c1.49,0,3-.26,4.45-.22s3.16.18,4.74.23c3.1.09,6.17.88,9.23,1.27a32.12,32.12,0,0,1,4.36.68c1.67.43,3.36,1,5.06,1.33.87.16.77-.07.92-.88a1.62,1.62,0,0,0-.16-1,1.91,1.91,0,0,0-.25,1.25c-1.77,0-3.61-.84-5.32-1.25s-3.88-.39-5.65-1.13c-.79-.33-.79-.52-1-1.36-.37-1.46.14-3,.22-4.47.09-1.7-.25-3.53.14-5.2.12-.52.08-1.16.57-1.43,1.38-.73,3.35-.51,4.86-.68,1-.11,2-.21,3-.41a5.2,5.2,0,0,1,2.41-.22c.34.09,1.1.11,1.11.57,0,2.26,0,4.55,0,6.81s-.57,4.42-.08,6.76a3.51,3.51,0,0,0,.29-2.35c-.07-1.1,0-2.21,0-3.31,0-2.39.22-4.79.31-7.18a4.66,4.66,0,0,1,.57-1.44c.22-.5,1.2-.32,1.62-.36s.87.21,1.31.07a10.35,10.35,0,0,1,1.82-.39c.73-.08,4.16-.41,4.66.5.15.27-.12,1-.17,1.25a19.37,19.37,0,0,0-.19,2,23.21,23.21,0,0,0,.16,5.77c.25,1.67.2,3.36.41,5a40.43,40.43,0,0,0,1.08,5.56A15.9,15.9,0,0,0,121,174a24,24,0,0,0,3.4,4.19c1.28,1.27,2.66,2.43,3.83,3.8.87,1,2.31,2.26,2.51,3.66-1,.14-2,.67-3,.77s-1.44-1.83-2-2.57a18.32,18.32,0,0,0-4.27-3.68c-1.52-1-2.58-2.56-4.18-3.44a5,5,0,0,1-1.68-1.08,6.2,6.2,0,0,0-2.29-1.87c-.26-.11-1.83-.36-1.9-.48a6.29,6.29,0,0,1-.31-2.45c-.07-2.22,0-4.48,0-6.7,0-2.06.37-4.06.33-6.12,0-2.31,0-4.62,0-6.93-.61.65-.49,2.93-.51,3.77,0,2,0,3.95,0,5.93s0,4.09,0,6.13a22.34,22.34,0,0,1-.27,5.42c-1-.46-1.93-1.17-3-1.59a24.57,24.57,0,0,0-3.24-1.07,30.85,30.85,0,0,0-3.39-.8c-1.08-.13-2.13.36-3.19.25s-1.66-.8-2.58-.89a8.38,8.38,0,0,1-2.92-.31,8.62,8.62,0,0,0-3-.88c-1.14-.09-2.23.32-3.33-.12a12,12,0,0,0-6.38-.53,27.68,27.68,0,0,0-3.08.88,13.43,13.43,0,0,1-3.8.19c-1,0-2,.51-3.07.49a7.45,7.45,0,0,0-3.19.9,12.65,12.65,0,0,1-3.13.45A10.12,10.12,0,0,0,60,170.51a3.79,3.79,0,0,0-2,2.39c-.26-.15-.5-.34-.75-.5a49.26,49.26,0,0,1-2.71,4.53,24.94,24.94,0,0,0-2.82,4.69c.93.2,1.36,1.16,1.72,1.94a3.7,3.7,0,0,0,2,1.87c.79.37,1.75.3,2.58.67a4,4,0,0,1,2.18,1.55c-.52.15-1,.52-1.5.64a11.2,11.2,0,0,1-5.43-.18c-1.06-.4-2.47-.91-2.44-2.35a4.54,4.54,0,0,1,.16-1.91,5.11,5.11,0,0,0,.73-2c-1.1.64-1.57,2.27-2.45,3.18-.13.13.36.85.45,1,.44.85.66,1.82-.32,2.38-.77.44-1.69.25-2.46.66a5.89,5.89,0,0,1,.25-1.25c-.36.29-3.13,4.53-2.57,4.86A8,8,0,0,0,47.06,194,1.53,1.53,0,0,0,49,192.6a4.49,4.49,0,0,1-2.18.24,1.56,1.56,0,0,1-.79-.77c-.13-.43.16-.81.33-1.22.74-1.75,2.87-.78,3.92.08.53.43.9,1.11,1.53,1.39a3.25,3.25,0,0,0,2.36.35,14.78,14.78,0,0,0,2.3-.85,3.6,3.6,0,0,1,2.27.06,4.65,4.65,0,0,1-2.81,1.93,5.23,5.23,0,0,1-3.91-.09c-1.17-.44-1.49-2.28-2.53-3a1.74,1.74,0,0,0-2.75,1.33,12.1,12.1,0,0,0,1.72-.69c.45-.18,1,.56,1.22.9.57.85,1.07,2.46,1.93,3.06a9.28,9.28,0,0,0,1.61,1.12,4.71,4.71,0,0,0,2,.07,4.27,4.27,0,0,0,3-1.66c-1.81.24-4,2.3-5.5.23a8.41,8.41,0,0,0,3.61-.71c.8-.42,1.67-1.33,2.65-1.21s1.14,2.14,1.47,2.79,2.24,1.26,2.95,1.32a5.54,5.54,0,0,0,3-1c.75-.43,1.92-.67,2.27-1.57.08-.2,2.79.46,2.28,1.17-.21.29-1.11.35-1.43.63-.85.73.28,2.37-1,2.48-.63,0-1-.37-1.33.28-.51,1-.18,2-1.15,2.81-.75.62-1.9,1.07-1.76,2.24.21,1.66.61,3.27.78,4.94s1,3,.93,4.56c0,1.11-.68,2.17-.58,3.3a23,23,0,0,0,.81,3c.26,1.14.52,2.28.8,3.41s-.45,2.34-.85,3.28c-.26.63.44,1.55.39,2.23a11.39,11.39,0,0,1-.84,3.59c-.49,1.15-1.32,2.06-1.88,3.17s-1.38,1.45-2,2.3c-.35.44-.81.76-.72,1.32s.91.68,1.42.74c.91.11,1.69-1.28,1.82-2.08a4.69,4.69,0,0,1,0,2.75c2,0,3.68-.25,5.16-1.76s1.31-3.82,1.31-5.83M65,240.55a18.58,18.58,0,0,1,.26-3.25c.58.43.66,1.32.82,2A1,1,0,0,1,65,240.55m2-.74a7.31,7.31,0,0,1-.88-3c0-.2.57-.78.7-.94.64-.83,2.63-1.89,3.7-1.33-.42,1.25-1.66,1.23-2.75,1.49a3.93,3.93,0,0,0,2,.76c0,1.66-1.55.84-2.5.49.14.83,1.22,2.22-.27,2.5m20.74-.18c-.64-1.16.6-2.58.76-3.75-1.1.92-1.53,3.68-3.51,2.49.54-.93,1.54-1.54,2-2.49-.77.11-2.45,1.75-3.13.87-.9-1.17,1.8-1.45,2.38-1.62-.43-.22-2.79-.47-2.29-1.32.84-1.41,3.69,1.07,4.66.93s1.77-1.74,2.63-2.27a4.12,4.12,0,0,1,1.75-.31c-.37.62-1.18.87-1.75,1.24a5.47,5.47,0,0,0,2.5-.24c0,1.18-1.65,1.27-2.51,1.49.87.58,2.25,0,2.24,1.26a17,17,0,0,1-2.75-.26A5.36,5.36,0,0,0,93,236.91c-.42,1.31-1.39,1-2.25.24.07.39.49,1.07.33,1.46s-1,.79-1.33.41c-.63-.65-.47-2.56-.49-3.38-.58,1.17.39,3.74-1.49,4M62,239.54c0-.25.12-.88.5-.5s-.25.55-.5.5m15-2.2a4.25,4.25,0,0,1,0-2.75,2.58,2.58,0,0,0-.75,1.25c-.34-.37-.18-.89,0-1.31s.9-.64,1.28-.84,1,.52,1.07.72a14.81,14.81,0,0,1,.7,1.7c-1.11-.16-1.34,1.41-2.26,1.23m-12.75,0c-.28-1.39,1.38.28,0,0m.75-1.25a1.07,1.07,0,0,1,1-1,1,1,0,0,1-1,1m22.75-1.92c.09-.37.52-1.47,1.13-1,.81.65-.85,1-1.13,1m-5.25-.77a6.09,6.09,0,0,1-2-1.26,5.18,5.18,0,0,0,.5,1.25c-.72-.09-1.43-.15-2.14-.25s-.13-1.24.17-1.51a7.25,7.25,0,0,1,2.65-1,6.67,6.67,0,0,1,3.8.27c.33.09,1.51.88,1.35,1.35-.3.9-.56,1-1.38.51a9.76,9.76,0,0,0-1.7-1.08c.25,1.13-1.55.62-2,.24.25.41.9,1,.75,1.51M71,230.82c1.15-.29,2,.66,3,1-.08-.17-.17-.34-.25-.5a1.76,1.76,0,0,1,1.4,1c.13.4-.1.34-.25.68s-.23.36-.66.24c-1.15-.32-3.21-.91-3.24-2.4m18.24,1.07A5.13,5.13,0,0,1,93,228.53a24,24,0,0,1,2.94-.11,3.19,3.19,0,0,1,1.2.48c.51.23.55.6.77,1.13.33.78-1,1.41-1.54,1.68a2,2,0,0,1-2.29.12c-.3-.23-.64-.74-1-.86-1.22-.43-2.42,1.6-3.75.92M75,231.08c-.12-.87,1.09-.75,1.73-.74H79c-.21,1.16-.9,1.32-1.93,1.52s-1.32-.38-2.07-.79m11.26-1.46a13.09,13.09,0,0,0,1.88-.13,4.51,4.51,0,0,1,1.87-.36,4.52,4.52,0,0,1-1.47,2.18c-.23.21-1.09-.26-1.31-.44a2.19,2.19,0,0,1-1-1.25m26.24-.15c-.36.72-.36,2-1.56,1.64-.68-.22-.32-.52-.14-1.07a9.42,9.42,0,0,0,.46-1.57c-.74.92-1.35,2.06-2.69,1.52-.08,0,1.66-2.54,1.7-2.76a5.37,5.37,0,0,1-1.75,1.24,1.19,1.19,0,0,1-1,0c-.3-.16-.63-.62-.29-.83,2.66-1.68,6.2-.23,8.85.6.48.15.55.14.36.71a1.12,1.12,0,0,1-.66.7c-.67.17-1.44-.57-2-.87a4.84,4.84,0,0,1,.88,1.08c.26.51.55.85,0,1.16-1.07.54-2-.49-2.11-1.5m-11.26,1-.25-.25.25.25m-30.73-.86c.78-.62,2.26-.25,3.19-.33a32.51,32.51,0,0,1,4.52-.24c1.54.08,3-.38,4.53-.39A24.05,24.05,0,0,0,88,228a81.18,81.18,0,0,0,9.56-2.69c1.49-.53,3-1.07,4.45-1.68a35.77,35.77,0,0,1,4.08-1.89c-.26,1-1.77,1.33-2.56,1.68-1.52.67-3.08,1.25-4.63,1.83s-3,1.07-4.46,1.57a30,30,0,0,1-4.5,1.48c-3,.51-5.88,1.45-9,1.42-1.64,0-3.27.16-4.91.16-1.85,0-3.68-.25-5.51-.26m-3.25,0c.49-.7,2.28-.26,3-.24a3.08,3.08,0,0,1-3,.24m32.24-.89c.22-1.32,1.61-3.08,3-3.24.27,1.19-1.64,4-3,3.24M96,227.41c.64-1,3.12-1.85,4.26-1.74a22.57,22.57,0,0,1-1.23,2.89c-.12.38-2.65-.95-3-1.15m-25,.66c-.09-.33-.19-.66-.25-1a.54.54,0,0,1,.25,1m9-.22a.84.84,0,0,1,.5-1.25,1.45,1.45,0,0,1-.5,1.25m-4.5,0c-.19-.77.28-.44.5,0a2.79,2.79,0,0,1-.5,0m-1.25,0c-.58-.41-.48-2.38-.49-3,1-.18.72.75.68,1.39s.2,1.12-.19,1.61m10-.21a3.78,3.78,0,0,1,.63-1.44,2.32,2.32,0,0,1,1.35-1.29,4.41,4.41,0,0,1,1.87-.27c.93,0,.67.46.67,1.27a1.12,1.12,0,0,0,.13-1.78,2.5,2.5,0,0,0-2.37-.56c-.6.18-1.17.47-1.78.6-.29.06-1.19-.16-1.29.23a.78.78,0,0,1-.68.49c0-1.28,1.21-1.29,2.2-1.48a55.34,55.34,0,0,0,13.06-3.83c1.43-.68,2.8-1.48,4.25-2.12.34-.15,1.19-.59,1.54-.24s-.24,1.21-.28,1.52a1.65,1.65,0,0,0,.52,1.63c.23.25.54.34.75.61a7.77,7.77,0,0,1-2,1,2.65,2.65,0,0,0-.25-1.6,1.07,1.07,0,0,0-1.32-.48c-1.27.64-.55,2,.57,2.33a5.19,5.19,0,0,1-3.51,1.49c.33-.93,1.2-1.56,1.51-2.5a11.06,11.06,0,0,0-2.21-.5c-.78-.1-1.31.49-1.82,1s-.88,1.15-.38,1.55,1.3.43,1.9.73c-.86,1.47-3.94,1.78-5.41,2.12-2.53.57-5,1.47-7.65,1.57m-17.49-.31c0-.6-.18-.75.53-.74s1.55-.27,2.22.25c-.49.43-2.14.46-2.75.49m10-1h1.5a.76.76,0,0,1-1.5,0m34.74.12c-.94-.56.3-.93.75-1-.08.51,0,1.17-.75,1m-40.73-.39a3.46,3.46,0,0,1,.25-1.5c.59.35.21,1.22-.25,1.5m4.5-.23c0-.28-.09-1.59.57-.93.48.47.06,1-.57.93m4.5-.24c0-.12-.08-1.87.5-1.25.37.37,0,1.32-.5,1.25m12.5-.36c.55-.28,1.23-.52,1-1.21-.16-.43-.32-.85-.49-1.28-.09-.24-.83-.18-1.06-.21s-.57.33-.79.51-.07.83,0,1.13c.07.83.55,1.2,1.43,1.06m-22.74.08a.67.67,0,0,1-.25-.75c.29.13.59.2.75.5l-.5.25m11.75-.21a2.68,2.68,0,0,1,.25-1c.31.4.51,1.16-.25,1m10.75-.46a2.68,2.68,0,0,1-.25-1h1a1.49,1.49,0,0,1-.75,1m13-1c.34-.57,1.06-1.34,1.75-1a2.43,2.43,0,0,1,1.49,1.48c-1.09,0-2.14-.51-3.24-.51M67.14,202.82c-.13,1.06,1.39,1.71,2.24,1.72.54,0,1.28-.52,1.35.2a2.76,2.76,0,0,1-.61,1.35c1.17-.16,1.31-1.66,2.32-2.11l1.56-.71c1.34-.62,2.19-2.89,3.84-3a2.54,2.54,0,0,1,2.64,1.44c.24.49.55.75.77.06a1.77,1.77,0,0,0-.24-1.57,3.53,3.53,0,0,0-2.62-1.95c-2.25-.28-4.39.8-6.68.64-.85-.06-2.6-.34-2.12-1.56.22-.54,2.52.14,3.08.31-.83-.88-.7-1.39-.49-2.5-1,0-2.28-.83-3.16-1.31a3.55,3.55,0,0,1-2.08-2.71c.29.16.35.48.5.75.52-1.41-.86-3.28-1.74-4.26.33.77,1.1,1.63,1,2.5-.85-.57-.89-1.77-1.74-2.38s-1.92.23-2.75.37c0-1.78,2.54-1.67,3.7-1.32,1.56.47,1.54,2.35,2.79,3.09,0-.69.71-2.22,0-2.68a9.41,9.41,0,0,1-1-.58c-.53-.44.56-.71.82-.64,1.17.28,1.09,1.53,1,2.45a21.12,21.12,0,0,0-.63,2.7,7.53,7.53,0,0,0,1.24-2.93c.19-1.12-.45-2.21-.47-3.32,2.33-.33,2.49,2.69,2.49,4.26a3.72,3.72,0,0,0,1.26-2.5c.86.22,1.47,2,1.74,2.76.46-.86-.25-1.86-.24-2.75a2.57,2.57,0,0,1,.69,1.08,7.28,7.28,0,0,0,1.3,1.67c-.26-1.58-1.17-2.86-1.23-4.5.83.49,1,1.61,1.51,2.37s1.42,1.84,1.22,2.89c.6-1.29-.25-2.06-.49-3.25.9.49,2.21,2.45,2,3.51.26-.15.5-.33.75-.5a1.93,1.93,0,0,0,.75,1c0-1,.64-1.75.25-2.72-.14-.34-.79-1.84.16-1.31,2,1.14.42,3.35.33,5a5.22,5.22,0,0,1,1-.75v1.5c1.07-1.36.08-3,.57-4.5.24-.71.78-.62,1.39-.53A30.7,30.7,0,0,1,89,188.67a12.29,12.29,0,0,1,3.85,1.5,2.36,2.36,0,0,1,.89,1.44,8,8,0,0,0,1.33,2.4c.46.61,2.09,2.25,1.76,3.18-.42,1.15-.77,2.08-2.09,2.41a2,2,0,0,1-.6,0c.18-1,.51-3.22-1-3.5a3.19,3.19,0,0,1,.74,2.25c-.89-.34-1.6-2.22-2-3a4.35,4.35,0,0,0-1.23-1.56c-.49-.37-1.17-.63-1.44-1.22s.17-1.15.32-1.69c.21-.74-.3-1-1-1.24s-1.22.44-1.74.22-1.11-.58-1.69-.79a.89.89,0,0,1-.5.63c-.16.08-.51,0-.49.22.11,1.06.42,2.07.48,3.15a7.12,7.12,0,0,1,1-1.25,8.76,8.76,0,0,1,.49,1.5c.06-.13.37-.87.57-.69a4.28,4.28,0,0,1,1.43,2.7,4.06,4.06,0,0,0,.51-2.25,2.1,2.1,0,0,1,.74,1.79c0,.59.77.85,1,1.47.43-.76-.11-1.5-.24-2.25a2.44,2.44,0,0,1,1.15,2.44,2.59,2.59,0,0,0-.16.81c0,.06.29.17.34.31a1.39,1.39,0,0,1-.1,1.19,5.26,5.26,0,0,0,1-1c.76,1.46-1.89,2.55-2.83,3-1.92.9-3.61,2.48-3.69,4.74-.06,1.8.85,3.42,1.65,5a9.92,9.92,0,0,1,1.56,5c-.82-.1-1.42-1.15-1.67-1.85a9.38,9.38,0,0,1-.56-3.16c-2,0-2.85,3.4-2.63,4.93a2.71,2.71,0,0,1,0,1.52c-.21.47-.8.79-1.2,1.11a2.3,2.3,0,0,0-.52,2.13c.06.23.48.56.61.21.21-.58.56-.77,1.11-.52s.51.83.42,1.52c-.15,1.07-1.75,1.28-2.63,1.45a65.41,65.41,0,0,1-8.84.82,15.15,15.15,0,0,1-4.09-.2c-1.27-.28-1.7-.5-1.92-1.77a7.43,7.43,0,0,0-.27-2.22A9.11,9.11,0,0,1,66,217c-.19-1.07.64-2.23.53-3.38a24.78,24.78,0,0,0-.93-3.58c-.3-1.2-.12-2.44-.39-3.64-.19-.85-1.1-2.15-.42-3a2.58,2.58,0,0,1,2.37-.65m29.17,20.09c-.17-.95,1.32-1,2-1,0,1.26-1.1,1.07-2,1m-12.73-4c.2-1,2.52-.72,2.95-.09a4.92,4.92,0,0,1,.55,1.1c.4-1.1-1.22-2.93-1.67-3.88a3.42,3.42,0,0,1,.41-3.57c.4-.64,1.48,1.95,1.63,2.18.78,1.2,1.36,3.27,2.63,4,0-1,.3-2,.29-3a9,9,0,0,0-.69-2.69c-.27-.83-.15-1.7-.42-2.53s-.7-1.5-.93-2.29a4.44,4.44,0,0,1,.3-3.5c.62.77.18,2.31.46,3.25a8.12,8.12,0,0,0,1.77,3c-.38-1.21-1.25-2.29-1.39-3.58a6.62,6.62,0,0,1,.66-3.92c.25.42.06.95,0,1.39a5.08,5.08,0,0,0,.38,1.83c.51,1.4,1.65,2.52,2.34,3.82a10.31,10.31,0,0,1,1.46,4.65c0,1.43-1,2.65-1,4.07a8,8,0,0,0,1.52-4.29,8.34,8.34,0,0,0-1.54-4.69c-.81-1.25-2.23-2.22-2.33-3.83-.08-1.32.35-3.27,1.66-3.95-.11.63-.58,1.15-.64,1.79s-.12,1.47-.13,2.21c.46-.85.31-1.9.78-2.79,1.64-3.1,6.52-2.42,7.66-6.12.77-2.49-2.7-3.32-3.78-4.86-.53-.75-.69-2.44.44-2.63a2.29,2.29,0,0,1,1.69,0c.8.4.54,2,.52,2.64-1.19,0-1.24-1.93-2-1.76-.13,3.26,7.07,4,5.13,7.83a7.29,7.29,0,0,1-3.73,3.47c-1.51.61-3.31,1.2-4.19,2.68a3,3,0,0,1,1.25-.5c-.18,1-.88,2-.94,3-.09,1.49.76,2.89,1.18,4.28a7.49,7.49,0,0,1,.23,2.26c0,.18-.19,1.58,0,1.72s.5.06.5-.11a32.8,32.8,0,0,0,0-3.29,19.92,19.92,0,0,0-.86-2.92c-.46-1.72-.46-4.75,1.67-5.43-.14,1-.68,2-.84,3-.23,1.52.5,2.94,1,4.34a8.27,8.27,0,0,1,.22,5.11c-.29.92-.57,2.36-1.45,2.83-1.71.93-3.87,1.24-5.73,1.76-.73.2-2.81,1.33-3.45.69-1.09-1-1.93-2.54-3.53-2.81m17.73,2.32c.13-.47.56-.63,1-.75a.75.75,0,0,1-1,.75m3-1.24a3.46,3.46,0,0,1,.25-1.5,2,2,0,0,1,.75,1.5h-1m-13.25-.55a5.65,5.65,0,0,0,.52-4.5c-.52.58-.23,1.55-.37,2.25s-.65,1.62-.15,2.25m-2.25-.26c.15-1.18-1.29-2.93-2.24-3.51,0,1.1,1.49,2.8,2.24,3.51m-7.73-4.77c-.88.51-1.6,1.44-2.46,2a7.58,7.58,0,0,1-4.23.95c-1.71,0-3.63.81-5.31.23.08.68.7.88,1.28.82.34,0,.69-.22.76.15s.18.44.52.42c1.31-.09,2.58-.45,3.88-.58a6.9,6.9,0,0,0,3.38-1.18c.87-.66,2.33-1.57,2.18-2.85m16.48,4.3a7.52,7.52,0,0,1,1-2.69,5.55,5.55,0,0,0,.34-3.34c-.46-2.13-1.73-4.29-1.26-6.53.74-3.47,5-4.2,6.83-6.77a7.52,7.52,0,0,0,1.43-3.1,4.37,4.37,0,0,0,0-.81c.75.45.4,1.82.24,2.5a4.12,4.12,0,0,0,.76-2.75c.91.2,1.25,1.38,1.11,2.2a6.14,6.14,0,0,1-1.54,2.91c-1.37,1.61-3.71,1.94-5,3.72-1.14,1.58-1.13,3.4-.92,5.26a24.56,24.56,0,0,1-.47,6.63,8.65,8.65,0,0,0,1.38-5.22c0-1.44-1-3.52-.25-4.86.55-1,1.25-2.59,2.66-2.4-.11.79-.57,1.5-.71,2.3a9.21,9.21,0,0,0,.5,3.48,17,17,0,0,1,.18,4,4.38,4.38,0,0,0,.37-2.69c-.15-.88-.57-1.95-.1-2.81,1.38,1.36.95,5.42.17,6.93-1.19,2.31-4.43,3.32-6.72,4.07m-18.47-6.06c-.13-.76-.63-2.09-1.49-2.25.07.42.18.83.25,1.25a26.65,26.65,0,0,1-3.14-.89c-.52-.15-2.15-1-2.54-.55-.58.7-.18,1.24.42,1.68-1,.31-1.57,1.72-1.72,2.67-.28,1.64,1,1.48,2.09,1.08,2.14-.84,4-2.16,6.13-3m-7.26,2.47c.22-.84,1.77-1,2.5-1a2.26,2.26,0,0,1-2.5,1m31.74-.14a7.48,7.48,0,0,0,.26-1.75,1.66,1.66,0,0,0-.26,1.75m-1.25-.5a26.25,26.25,0,0,0,.27-5.09c0-.78-.28-1.53-.23-2.31s.24-1.72.24-2.59c-1.27.92-.69,3-.55,4.24a25.21,25.21,0,0,1,.09,3c0,.8-.39,2.07.18,2.74M72.1,213.33c-.19-.77.28-.44.5,0a2.09,2.09,0,0,1-.5,0m2.26-.74c-.5-.84-.13-1.4.85-1.09,1.18.38-.34.95-.85,1.09m-1.5-.5c.33-.61.62.23.75.5a1.56,1.56,0,0,1-.75-.5m14.25-3.95a4.94,4.94,0,0,1,.77-5,5.84,5.84,0,0,1,1.91-1.62c.65-.31,1.86-1.07,2.6-.9a4.73,4.73,0,0,1-1.23,1.85c-.37.45-.47.68-1.06.4s-.92.35-1.19.64a5.16,5.16,0,0,0-1.33,2.17c-.19.71,0,1.84-.47,2.43m6.76-1.48c.1-.6.42-1.15.51-1.75a1.3,1.3,0,0,0-.51,1.75m-9.25,0c.38-1.31,1.14-2.45,1.51-3.74-1,.27-2.32,2.84-1.51,3.74m-.75-1.5a4.26,4.26,0,0,0,.76-1.5c-.55.14-1.08,1-.76,1.5m28-3.41a2,2,0,0,1-.36-2.67c.85-1.84,4.19.49,5.32-1.63.4-.75.29-.89,0-1.71-.16-.5-.77-.58-1.21-.47.15.23.76,1.33.55,1.52-.37.32-1.21,1.38-1.74.67-1-1.33.13-2.79,1.63-2.76a2.94,2.94,0,0,1,1.66.82c.48.53.2,1.59.17,2.22,0,1.2-2,1.91-2.53,2.77l1.75-.49c.26,1.25-1,1.85-2,2.06-1.23.27-2.09-.14-3.29-.33a4.66,4.66,0,0,0,2.55.94c1-.11,1.95-.53,2.95-.67-.33,2.45-3.34,2.49-5.13,1.81a6.66,6.66,0,0,1-2.81-1.59c-.33-.36.45-.88.78-.85.61.08,1.09.26,1.66.36m-29,1.9a4,4,0,0,0,.76-1.75c-.66.21-1.26,1.14-.76,1.75m-14.24-.3c-.37-1.21-1.73-1.92-1-3.25.62.45,1.14,1.22,1.94.92.58-.21,1.89-1,2.06.1a9.86,9.86,0,0,1,1.75-.74v.75a11.65,11.65,0,0,1,5.5-2c-.59.74-1.67.92-2.47,1.33s-1.53,1.48-2.28,2.17a3,3,0,0,1-2.27.68,29.2,29.2,0,0,0-3.24,0m13.49-.45c.46-.79,1.32-1.21,1.76-2-.73.12-2.51,1.06-1.76,2m23.74-.67c1-1.69,3.72-2.41,4.13-4.54a3.23,3.23,0,0,0-.71-2.84c-.6-.64-2.27-.62-2.39-1.61a7.32,7.32,0,0,1,1.75.11c.67.17,1.08.8,1.54,1.28a3.73,3.73,0,0,1,.78,3.25,6.4,6.4,0,0,1-1.81,3.08,7.52,7.52,0,0,1-3.29,1.27m-10.24-1.53c.91-1.36,2.56-2,2.26-4,.42,0,.66.53,1,.75-.06-1.73-1.76-2.36-2.91-3.29s-2.18-2.57-1.48-4a2.79,2.79,0,0,1,1.43-1.62,4.23,4.23,0,0,1,2.46.23c1.47.4,2.91,1.7,1.78,3.21-.5-.53-.35-1.52-.93-2s-1.48-1.38-2.36-.7a3.3,3.3,0,0,0-1.59,2.16c-.21,1.17,1.86,2.15,2.61,2.76,1.09.89,2.18,2,2,3.56-.21,1.86-2.74,2.76-4.29,3m-2.75-.26c-.08-.33.25-.38.5-.5.08.33-.25.37-.5.5m-2.75-.51c.23-.91.46-2.49-.74-2.75a5.81,5.81,0,0,1,.44,1.25,7,7,0,0,1-.2,1.5c.16,0,.34,0,.5,0m13.25-.46c.06-1.74,1.33-3.87-.73-5,1-1,2.09,1,2.21,1.81a3.25,3.25,0,0,1-1.48,3.19m5.51-1.23c-.06-1.11-.45-2.16-.49-3.25,1.3.25,1.55,2.59.49,3.25m-48.22-3.67a31,31,0,0,0,3.34.16,4.81,4.81,0,0,0,2.91-1.14,9.76,9.76,0,0,1-3.75.48,16.48,16.48,0,0,1-2.07-.52c-.66-.16-.94-.71-1.38-1.22a2.72,2.72,0,0,1-.56-1.43,2.44,2.44,0,0,1,.55-2c.34-.59,1.11-.45,1.61-.3a16,16,0,0,0,1.62.69,1.31,1.31,0,0,1,.34-.95c.16-.16,1,0,1.23.13.91.68,1.21,2,1.68,3s2,2.16,2.23,3.36c-1.44,0-2.58,1.55-4,1.66s-3.67,0-3.7-1.93m56.48-1.3a17.42,17.42,0,0,0,4.25-.48,3.34,3.34,0,0,1-.75,1.25,4.16,4.16,0,0,1,1,0c.16.27-.36.61-.5.75.66,0,1.38-.32,2,0a2.67,2.67,0,0,1-3.41,1.55c-.59-.16-.94-.8-1.26-1.27s-1.22-1.09-1.33-1.81m-4.25,2.49c0-1.73,1.63-2.15,3-2.24a10.74,10.74,0,0,1-1.56,1.11c-.44.34-.76,1.26-1.45,1.13m-1.25-.76a12.37,12.37,0,0,0-1.64-1.82c-.56-.41-1.61-1.1-2.35-.95.16-1,1.47-1.59,2.18-2.2,1.1-1,2.25-1.86,3.33-2.84s2.11-2.08,3.11-3.19a32.83,32.83,0,0,1,2.82-3.18c.85-.73,1.9-.27,2.68.35,1.17.93,3,1.91,3.63,3.31.38.78.45.9,0,1.64a10.51,10.51,0,0,1-2.82,2.7,29.41,29.41,0,0,1-3.68,2.82c-1.34.75-2.73.38-4.13.79a4.65,4.65,0,0,0-1.64,1c-.57.45-.91,1.19-1.51,1.59m-10.24-4.28c1,.16,2.73,1.37,2.74,2.51-.67,0-2.36.33-2.95,0-.8-.54-.12-1.82.21-2.46m-36.24,2.37c-.43-.68-1.45-.35-2-.62a3.11,3.11,0,0,1-1.69-1.4c-.6.77.62,1.54,1.19,1.79a6.78,6.78,0,0,0,2.55.23m-15.23-4a6.11,6.11,0,0,1,2,.2c.66.23,1.28.76,1.93,1,1.17.53,2.82.08,4.07,0-.14.72-1,.87-1.62,1-1,.23-1.87.94-2.89.92-1.59,0-3.11-1.76-3.49-3.2m55.47,2.93c-1.19-.54-1.66-1.32-.76-2.44,1.74-2.2,4-4.11,5.86-6.2,1-1.08,1.87-2.23,2.73-3.4.71-.95,1.37-2.25,2.47-2.8.83-.42,2.38.46,2.85,1.14.82,1.19,0,2.12-.71,3.06a55.06,55.06,0,0,1-6.11,6.3c-1.78,1.62-4,3.59-6.33,4.34m-35.24-.11c.35-2.06,2.27-4.41.77-6.5-.54.66,0,2.17-.26,3a11.57,11.57,0,0,0-1,3.48,2.78,2.78,0,0,0,.5,0m36.24-.63a2.25,2.25,0,0,0-.25-1.25,1.18,1.18,0,0,0-.75,1.25h1m-53-1.68c.75-.64,4.25-1.36,4.5,0-1.49.23-3.11.91-4.5,0m46.73-1.09a17.11,17.11,0,0,1,2.5-2.75c.92-1,1.69-2.08,2.51-3.15,1.74-2.27,3.3-4.6,4.9-7a2.42,2.42,0,0,1,2.85-1.21c.95.14,2.1,1.11,1.86,2.12a10.38,10.38,0,0,1-2,3.29c-.9,1.24-2,2.31-3,3.46-1.82,2.1-3.58,4.47-5.88,6.08a1.7,1.7,0,0,1-2,.26,10.76,10.76,0,0,1-1.71-1.13M79.7,186.87c-.61-.12-1.24-1.17-.37-1.4a10.07,10.07,0,0,1,3.9.23,24.82,24.82,0,0,1,4.39,1.13c1.2.42,2.39.85,3.61,1.21.83.25,2.25.62,2.47,1.63a7.68,7.68,0,0,1-2.89-.91,29.72,29.72,0,0,0-3.56-1.19c-1.15-.34-2.3-.61-3.47-.87-.67-.15-2.11-1-2.78-.81a2.19,2.19,0,0,0-1.3,1m29,1.35c-.77-.45-1.27.27-1.25,1a1.12,1.12,0,0,0,1.25-1m-5.5-.77a1.29,1.29,0,0,0-1,1.25c.72,0,1.44-.47,1-1.25m-7.5,0a1.91,1.91,0,0,1-2.56.87c-2.06-.8-4.11-1.58-6.22-2.24a26.58,26.58,0,0,0-3.53-.94,12.31,12.31,0,0,1-3-.58c-.39-.18-.23-1.07.15-1.25.68-.32,2.34.13,3,.23a34.08,34.08,0,0,1,4.48,1,28.72,28.72,0,0,1,7.65,2.92m-14.74.95.25-.25c-.08.08-.17.16-.25.25m18.24-.85A32.14,32.14,0,0,1,95.7,186c-.85-.36-1.95-.7-2.08-1.77a4.59,4.59,0,0,1,.66-2.38c.48-1,.88-2.14,1.26-3.23a61.66,61.66,0,0,0,1.94-6.95,2.25,2.25,0,0,1,2.22-2c1.58-.24,3.43.39,5,.77a10.67,10.67,0,0,1,4.22,1.85c.42.34,1,.65,1.19,1.15s-.13,1.19-.3,1.71a11.68,11.68,0,0,1-2.06,3c-.92,1.25-1.76,2.55-2.69,3.79-1.56,2.09-3.32,4.57-5.84,5.54m-40-.23c-.25-1-1.7-1-2.53-1-1.33.06-2.48.35-3.53-.75a3.13,3.13,0,0,1-.68-2c-1.33,1,.36,3.43,1.64,3.59a10.38,10.38,0,0,0,2.23,0,27.45,27.45,0,0,1,2.87.19m52-1.57c-.77-.45-1.28.27-1.25,1a1.28,1.28,0,0,0,1.25-1m-5.25-1.27c-.42.06-.69.16-.85.55s-.44.71,0,.95.85-.16.95-.41a1.2,1.2,0,0,0-.06-1.09m-34.48-.37a7.43,7.43,0,0,1,4.25-1,3.21,3.21,0,0,1-1.89,2.16c-.75.21-1,.42-1.58-.06a2.91,2.91,0,0,1-.78-1.11m-10.26,1c.87-.11.65-1.4-.16-1.15-.36.11-.51.55-.88.28a4.37,4.37,0,0,1-.83-.94,21.63,21.63,0,0,1-1.65-2.74A12,12,0,0,1,56,176.05c0-.86.49-2.51,1.71-2,.67.25.94,1.21,1.14,1.82.37,1.11.82,2.18,1.28,3.25.55,1.28,1.12,2.55,1.68,3.83.41.92,1.21,1.87,1.1,2.94-.67-.08-1.36-.1-1.73-.78m-2,.24c-1.89-1.94-4.55-4.7-5-7.52.72.36.84,1.22,1.29,1.81s1.24.65,1.63,1.45a14.62,14.62,0,0,0,1.36,2.41c.29.4,1.07,1.3.69,1.85m95.56-98.88c1.78.95,3,3.34,3.41,5.26.46,2.21,0,4.61,0,6.85l0,8.39-.06,16-.06,16c0,4.74.82,10-1.1,14.52a20,20,0,0,1-3.12,5.71,25.35,25.35,0,0,1-3.15,3c-.79.63-2.7,1.43-3.07,2.4-.23.63.15,1.37.25,2a16.89,16.89,0,0,1,.09,2.66,10.05,10.05,0,0,1-2.56,6.07,34.89,34.89,0,0,1-5.82,5.64c-2.14,1.63-4.82,3.48-7.48,4.07-1,.22-1.79-1-2.31-1.78a1.56,1.56,0,0,1-.4-1.51,7.61,7.61,0,0,1,1.64-2.24c.69-.8,1.36-1.61,2-2.44,1.3-1.65,2.62-3.28,3.9-4.94,2.64-3.43,5-7.08,7.43-10.66,4.67-6.9,8.78-15.05,9.91-23.39.26-1.95.74-3.87,1-5.83a36.22,36.22,0,0,0,.16-6.42c-.22-4.4-.34-8.83-.28-13.23,0-2,.6-3.91.6-5.91,0-2.27.27-4.51.12-6.79s-.19-4.25-.31-6.38c-.13-2.36-.76-4.64-.82-7M76.7,185.11a2.62,2.62,0,0,1,.45-1.52c.19-.34,1.11-.36,1.43-.11s.4,1.2-.17,1.06a5,5,0,0,1-1.21-.69,2.34,2.34,0,0,1-.5,1.26m-21.49-.57a.91.91,0,0,1,1,0,.91.91,0,0,1-1,0m34.5-.63a28.84,28.84,0,0,1,1.11-6.45c.55-2.16.84-4.41,1.44-6.54.3-1,.63-2.15,1.9-2.11a6.64,6.64,0,0,1,1.78.17c.23.07,1.13.79,1.13,1,.08,2.63-1,5.48-1.91,7.94-.44,1.23-1,2.42-1.39,3.65-.31.87-.41,2.23-1.26,2.76s-2.06-.31-2.8-.43m-23,.67a3.49,3.49,0,0,0-1.24-1.5,4.61,4.61,0,0,1,.24,1.5A8.62,8.62,0,0,1,64,181.76c-.36-.89-.64-2.16-1.54-2.69a27.15,27.15,0,0,1,1.24,3.25,4.2,4.2,0,0,1-1.45-2.18A17.56,17.56,0,0,1,61,177.06a.65.65,0,0,0-.25.75c-.87-.49-1.08-1.75-1.37-2.63s-.81-2.1,0-3a5.61,5.61,0,0,1,2.75-1.83c.83-.24,2.35-.71,3.2-.31,1.36.64,1.25,3.84,1.41,5a57.43,57.43,0,0,0,2,8.25.82.82,0,0,1-.75-.75,2.48,2.48,0,0,0,0,1.5c-.8-.48-1-1.52-1.74-2,.08.69.89,1.85.48,2.49M113.45,183a1.1,1.1,0,0,0-1.25,1.25,1.12,1.12,0,0,0,1.25-1.25m-25,.28c-.88,0-2.38,0-2.84-1a3.93,3.93,0,0,1,0-2.4c.2-1.13.18-2.29.36-3.42.38-2.33.42-4.71.81-7,.23-1.39,1.09-1.55,2.29-1.67.87-.09,2.46.2,2.78,1.14s-.14,2.27-.35,3.27c-.31,1.53-.59,3.07-.95,4.58s-.77,2.74-1,4.14c-.13.76-.27,2-1.09,2.37m-19,.07a68,68,0,0,1-2.91-12.61c-.15-1.19.88-1.74,1.92-1.84a2.57,2.57,0,0,1,1.75.23c.5.24.44,1.17.55,1.62.27,1.11.29,2.29.49,3.42.4,2.28.8,4.58,1.1,6.88a1.38,1.38,0,0,1-.88,1.66,5.25,5.25,0,0,1-2,.64m-16.23-3.06c.53.29,1,.7,1.5,1a4.91,4.91,0,0,1-.75-1.5,6.1,6.1,0,0,1,2.24,3.51,1.87,1.87,0,0,1-1.79-.86,4.13,4.13,0,0,1-1.2-2.16m55.22,1.44a1,1,0,0,0-.76,1.5c.71-.21.72-.88.76-1.5M92,181.66c-.75-.14-.75.67-.75,1.25a.82.82,0,0,0,.75-1.25m-31.74.89a.94.94,0,0,0-.75-1.5,1.63,1.63,0,0,0,.75,1.5m24-.28c-2,0-4.62.08-6.54-.63-1.13-.43-1-3.91-1.11-4.84-.21-2.55-.77-5.67-.1-8.17.27-1,1.92-1.28,2.77-1.49a10.16,10.16,0,0,1,3.21-.09c1.46.15,3.57-.07,3.78,1.79A19.5,19.5,0,0,1,86,172c-.07,1.34-.33,2.66-.44,4s-.26,2.54-.43,3.81c-.09.73-.16,2.09-.92,2.48m-7.75-.41c-.95-.2-2.15.67-3.09,0-1.13-.8-1.12-4-1.28-5.15s-.28-2.43-.43-3.64a10.91,10.91,0,0,1-.23-3.9c.14-.57.4-.66.94-.79a3.47,3.47,0,0,1,1.68-.25c.45.15,1.13.19,1.29.69.68,2,.33,4.16.5,6.27s.55,4.51.62,6.78m-14.24.2a2.63,2.63,0,0,1-.25-1,.89.89,0,0,1,.25,1M88,180.4c-.85-.16-.74.9-.75,1.5.87,0,1-.81.75-1.5m-16.75,1.44a1.06,1.06,0,0,0-1-1,1,1,0,0,0,1,1m4-.74c0-.29-.09-1.75-.75-1.25s.25,1.27.75,1.25m53.23-.26a6.23,6.23,0,0,1-3.26-3.36c-.27-1,2.2-2.95,2.81-3.68a50.84,50.84,0,0,0,3.4-4.59,94.1,94.1,0,0,0,5.69-9.89,32.18,32.18,0,0,0,3-10.56c.24-1.83.55-3.63.74-5.47.09-.88.1-3.9,1.09-4.34s11-1.67,11.15.23a14.3,14.3,0,0,1-1.11,5.38,54.5,54.5,0,0,1-2.07,5.56,93.84,93.84,0,0,1-6.27,11.15c-2.26,3.58-4.7,7-7.29,10.35q-2,2.55-4,5.08c-1.12,1.45-2.16,3.41-3.94,4.14m-13-1.09c-.09.3-.17.6-.23.9s.55.3.73.2c.69-.37.08-1.09-.5-1.1m-4.75-.52c-.38,0-1.68.56-1.19,1.06s1.19-.55,1.19-1.06M93,178.92c-.71,0-1,.61-1,1.25a1.06,1.06,0,0,0,1-1.25m-33.74,1.13a1.45,1.45,0,0,0-.23-.95c-.07-.12-.69-.78-.79-.5a1.06,1.06,0,0,0,1,1.45m-3-.26.25-.25c-.08.08-.17.16-.25.25m14-.45c.2-.35.25-2.06-.49-1.5-.18.13-.17.68-.14.86.07.47.07.76.63.64m18.24-.19c0-.15,0-2.06-.75-1.25-.17.17,0,.72,0,.92,0,.49.37.33.76.33m-13.74-.3A.81.81,0,0,0,74,177.6c0,.57,0,1.39.75,1.25m-19-.06a9.06,9.06,0,0,1-.49-1.5c.39.3.79,1,.49,1.5m57-1.3c0-.29-.09-1.75-.75-1.25s.25,1.26.75,1.25m-19.24-1.57c-.61.53-.78.82-.06,1.29.18.12.39-.29.4-.44a1.19,1.19,0,0,0-.34-.85M58,177.3a1,1,0,0,0,.08-.82c-.09-.18-.5-.85-.82-.69-.66.33.32,1.45.74,1.51m11.75-.46c.3-.54.2-1.37-.5-1.5a1.75,1.75,0,0,0,.5,1.5m61-17.28c-1.8,0-2.58,3-3.23,4.26a36.73,36.73,0,0,1-4.19,6.16c-.48.57-1.76,2.4-2.6,1.64-1.18-1.07-1.41-3.29-1.67-4.76a14.68,14.68,0,0,1-.32-2.88c0-1.47.16-1.1,1.42-1.5a21.62,21.62,0,0,0,9.73-6.94,26,26,0,0,0,4.1-7.18c1-2.64,1.08-5.47,2-8.11.26-.77,2.14-1.09,2.86-1.16a13.53,13.53,0,0,1,1.56,0c.63,0-.59,7.62-.67,8.34a39.71,39.71,0,0,1-2.83,11,69.6,69.6,0,0,1-5,9.11,42.28,42.28,0,0,1-6.89,8.64c-1,1-1.88-.15-2.5-1a4.2,4.2,0,0,1-1.07-2.08c0-1,1.54-1.92,2.12-2.57,1.09-1.21,2.09-2.54,3.08-3.84s1.78-2.61,2.72-3.88c.55-.75,1.64-2.32,1.42-3.32M88.47,176.4a1.4,1.4,0,0,0,.26-1.75,1.18,1.18,0,0,0-.26,1.75m-13.74-.55c-.08-.3-.17-.6-.23-.91s-.58,0-.66.2-.33.79-.11,1,.87-.17,1-.25m19.76-2.93c-.72-.14-1.36,1.29-.61,1.39s.89-.87.61-1.39m-25.25.92a1.75,1.75,0,0,0,0-1.5c-.57.26-.94,1.72,0,1.5m5-.24a9.1,9.1,0,0,0-.08-1c-.06-.52-.66-.74-.77-.11a.9.9,0,0,0,.85,1.16m15-.45a1.75,1.75,0,0,0,0-1.5c-.53.3-1,1.74,0,1.5m6-3.23a1.6,1.6,0,0,0-.76,1.5,1,1,0,0,0,.76-1.5m-26.5,1.16c.44-.58.42-1.5-.49-1.5a1.71,1.71,0,0,0,.49,1.5m5-.23c.2-.35.26-2-.5-1.5-.5.35-.24,1.63.5,1.5M90,170.17v-1c-1.2.18-1.2.81,0,1m4.27-6.63c-1.75.46-1.33-3.86-1.27-4.7.09-1.29,0-2.58.14-3.86.06-.79-.19-3.19.63-3.61,1.85-.92,1.57,2.55,1.5,3.46a26.19,26.19,0,0,0-.22,2.8c0,1.76.38,3.7-.4,5.35a1.14,1.14,0,0,1-.38.56m-6-2.38c0,.52.5,1.46-.15,1.65-.86.27-1.36-.49-1.73-1.12a13.8,13.8,0,0,1-1.26-3c-.28-.82,1.47-1.75,1.19-2.75s-1.84-3.21-.84-4.15a2.8,2.8,0,0,1,2.07-.68c.09.63-.52,1.29-.26,1.91a6.74,6.74,0,0,0,1.24,1.85c-.21-.61-.8-1.35-.79-2a2.08,2.08,0,0,1,1.51-1.63,5,5,0,0,1,2.51.15c.83.23.78,1,.78,1.79,0,3.32-.27,6.62-.29,10-1.6,0-3.58,0-4-2m-3.72-10c-.14.45-.37.84-.5,1.3-.24.9,1,2.26,1.32,3s-.78,2.26-1.16,3c-.29.6.8,2.3,1,2.88s.57,1.19,0,1.32a8.26,8.26,0,0,1-2.53,0c-.64-.06-1.66.08-2.17-.41s-.24-1.63-.24-2.23c0-1.43,0-2.86,0-4.29,0-.77-.54-4.71.83-4.81a10.46,10.46,0,0,1,3.45.21M79,162.75c-1.55.16-1.07-4-1-4.77.07-1.36,0-2.72.06-4.08,0-.72-.6-2.95.43-3.18,2-.46,1.36,4.75,1.32,5.76s.69,6.21-.78,6.27m-10.75-.66c0-.5,0-1,0-1.5a1.23,1.23,0,0,1,0,1.5m50.23-.07a6.37,6.37,0,0,1-.13-1.63c0-.49.89-.79,1.26-.92a29,29,0,0,0,3.1-1.43,19.63,19.63,0,0,0,5.15-4.15c3-3.12,4.29-7.88,5-12a17,17,0,0,0-.7-8.37,20.86,20.86,0,0,0-1.75-3.85c-.53-.91-1.85-1.83-1.76-3s1-1.61,2-.84C135,129.13,135.8,136.09,135,141c-.83,5.49-2.49,10.64-6.31,14.8a20.72,20.72,0,0,1-4.7,4c-1.68,1-3.5,2.23-5.53,2.23M88,161.16a16.2,16.2,0,0,1-.46-1.79c0-.53.61-1.07.91-1.45.74-.94,1.48-2.24.07-3a2.47,2.47,0,0,1,.07,1.65,13.92,13.92,0,0,1-1.1,1.65,2.2,2.2,0,0,0,.51,2.94m39.85-32.85c1.89.4,3.23,3.25,3.72,4.89a16.88,16.88,0,0,1,1,6.17,28.13,28.13,0,0,1-4.08,12.79c-1.87,2.86-5.35,5.92-8.79,6.63-.4.08-1.38.19-1.33-.52,0-1,2.71-1.71,3.43-2.13a19.38,19.38,0,0,0,9.28-17.22c0-2.84-1.44-5.88-3-8.2a2.31,2.31,0,0,1-.23-2.4m-59.58,30c0-.75,0-1.5,0-2.25a2.23,2.23,0,0,1,0,2.25m50-2.07a14.54,14.54,0,0,1,.27-6.46c.08-.34.35-1,.76-1.06l1.85-.08a5.74,5.74,0,0,0,2.89-1.41,5.43,5.43,0,0,0,1.62-5.84,17,17,0,0,0-1.83-3c-.69-1,.36-2.41.74-3.29.28-.66,1.14-3.61,2.06-3.59.45,0,.63.65.71,1a3.94,3.94,0,0,1-.42,3.06c-.58.83-1.54,1.79-1.06,2.89a5.76,5.76,0,0,1,2.51-1.88,1.52,1.52,0,0,1,1.89,1.63c0,.42,0,1.29-.24,1.61a23.66,23.66,0,0,1-2.63,2.17c-.11.09.06.6.08.74s.6.28.76.32c1.34.36,1.38,1.56,1.19,2.73-.07.39-.2,1-.57,1.23-1,.59-1.32,1-2.48.61-.86-.28-1.48-.22-1,.84.25.59,1,2.69.31,3.27s-2.18,2.22-3.14.77c-.3-.45-.1-1.06-.27-1.56-.28-.79-.37-1.15-1.15-1.5-.16,1.32.15,2.67-.24,3.94a4.36,4.36,0,0,1-2.58,2.83m1.29-9a6.18,6.18,0,0,0,2.75-.58,3.84,3.84,0,0,0,1.78-2,5.4,5.4,0,0,0-.09-3.06c-.27-.79-1.17-1.41-1.17-2.31,1.14-.17,2,1.38,2.26,2.31a6.07,6.07,0,0,1-.23,3.65,4.51,4.51,0,0,1-2.35,2.3c-.75.25-2.7,1-2.95-.28m.5-1a8.39,8.39,0,0,1,1.95-4.84c.12-.11.41-.51.62-.38s.67.32.73.51a3.27,3.27,0,0,1-.19,3.31,3.21,3.21,0,0,1-3.11,1.4m-3.5-1a1.79,1.79,0,0,0-.74-2.25c-.2.69-1,2-1.74,2a4.56,4.56,0,0,1-3.38-.87c-2.41-1.65-4.7-3.44-7.16-5-1.13-.73-2.27-1.46-3.45-2.1a30.75,30.75,0,0,1-3.47-1.67c-1-.75-.28-1.76.16-2.67a4.16,4.16,0,0,0,.33-.75c.31.37.41.94.69,1.36.4.59,1-.47,1.07-.85s.37-1.5.15-1.8-.31-.65-.66-.58a2.17,2.17,0,0,0-1,.37c0-.69,0-1.38,0-2.06,0-.89-.13-1.35.92-1.08,2.8.73,5.46,2.56,7.78,4.22,2.49,1.79,5,3.57,7.35,5.54q1.77,1.48,3.39,3.14c.87.88,2.51,2.13,2.82,3.39a1,1,0,0,1-.11,1c-.1.16-.52,1-.71,1a4.93,4.93,0,0,1-2.23-.37m-36-7.88c0-.71-.06-.71.61-.82a26.82,26.82,0,0,1,6.2.14,27,27,0,0,1,6.11,1.14,41.58,41.58,0,0,1,11.28,5.46c.75.52,1.83,1.21,2,2.17l-1.72-.19c-.56-.07-1-.7-1.44-1-1-.71-1.95-1.43-3-2.07a38.75,38.75,0,0,0-6.32-3.06,39.67,39.67,0,0,0-6.88-1.76,23.22,23.22,0,0,0-3.43-.28c-1.18-.06-2.28.28-3.45.28m12.75-.95a4.43,4.43,0,0,1,4.49.37c2.35,1.32,4.72,2.52,7,4,1.74,1.12,4.49,2.26,5.48,4.19-1.31.62-2.42-.25-3.42-1-1.4-1.08-2.95-2-4.44-2.94a40.92,40.92,0,0,0-4.88-2.52c-.81-.38-1.63-.73-2.46-1.07-.63-.25-1.41-.34-1.77-1m17.73,2.31a2.87,2.87,0,0,0,.11,2.38c.35.6.44.85,1.08,1.1a3.2,3.2,0,0,0,1.54,0c.29,0,.47-.86.42-1.14a3.56,3.56,0,0,0-.55-1.37c-.51-.8-1.74-.83-2.6-1M108.85,140c.31-.6,1.53-4,0-3.83-.63,0-1,1.32-1,1.83,0,.95-.19,1.84,1,2m27.77-1.27c-.46,0-.74-.73-.68-1.13s.75-.82,1.18-.95A40.38,40.38,0,0,1,145,135.2a31.09,31.09,0,0,1,8.12,0c.76.14.72.54.91,1.21a2.82,2.82,0,0,1-.79,1.28,13,13,0,0,1-3.47,0c-1.59,0-3.19-.07-4.77.07-1.3.12-2.61.13-3.9.34a35.71,35.71,0,0,1-4.47.67m-30.51-.49a5.08,5.08,0,0,0,.81-2.15c.07-.51.06-2.5-.85-1.89-1.11.73-1.72,3.81,0,4m25.38-42.14a58.6,58.6,0,0,1-2.58,9.35c-1.13,3.38-2.18,6.77-3.39,10.12-2.41,6.65-4.84,13.29-7.21,19.94-.22.62-.45.82-1,.66-1.62-.42-3-2.15-4.25-3.17-.94-.75-2.79-1.73-3.08-3-.35-1.51,1.08-3.93,1.58-5.32.88-2.44,1.69-4.9,2.52-7.36s1.38-4.82,2.09-7.22c.36-1.23.68-2.47,1-3.72a15.58,15.58,0,0,1,.91-3.6c.44-.82,1.83-1.14,2.62-1.47,1.37-.57,2.76-1.12,4.09-1.78a37.33,37.33,0,0,0,3.35-1.83c1-.64,2.13-1.59,3.41-1.62m-27.12,38.65c.16-.75-.65-1.82-1.18-2.27a1.52,1.52,0,0,0-1.23-.4c-.25,0-1.38-.07-1.58.16s.14,1.13.24,1.37a2.23,2.23,0,0,0,.93,1.08c.8.52,2,.17,2.82.06m33-.14c.15-1.59-2.13-2.19-1.78-3.51.17-.65.66-1.2.51-1.91,0-.14-.29-.95-.21-1.08s.9-.09,1.08,0c1.46.5-.2,3.12.48,4a7.85,7.85,0,0,1,1.12,1.55c.35.71-.63,1-1.2,1m-46-.16c1.13-.64,2.59-2.07,2.6-3.51,0-.9,0-1.81,0-2.71s-.71-1.51-1.13-2.16c-.94-1.42-2.64-1.21-4-1.88-.54-.27-.43-.25-.77.2a17.06,17.06,0,0,0-1.73,2.79A14,14,0,0,1,88,127c.52,0,.87.79,1,1.19a9.92,9.92,0,0,1,.38,3.25c.75-.44,1.4-1.25,2.26-1.49a3.87,3.87,0,0,1,0,2.56c-.22.51-.73,1.42-.25,1.94m-4.5-.51c1.58-.81.37-3-1.22-2.65-1.75.41-.44,3.54,1.22,2.65m51.49-2.82c.38-.65,1.1-1.13,1.39-1.83.19-.45.34-.92.49-1.38s.06-.86.57-.74a1.1,1.1,0,0,1,.84,1.52c-.32.73-1.18,1.43-1.29,2.19a3.58,3.58,0,0,1,2.46.88c.75.62.15,1.76-.63,2s-.94-1.33-1.39-1.74a4.93,4.93,0,0,0-2.44-.87m5.75-1c0-1.14,2-3,3.06-3.39a2.35,2.35,0,0,1,2.4.54,5.34,5.34,0,0,1,1.83,1.83c.53.95-2.5,3-3.19,3.33-.51.25-.61.32-1.13.11-1.21-.48-1.83-1.81-3-2.42m9,2.54c-.56-1,.13-2.75,1.41-2.74.15,0-.25,3-1.41,2.74m-60.23-1.71c-.14-.53-.43-1.4-.95-1.67s-1.33.52-1.78-.24c-.32-.54-1.79-3.19-1.07-3.58s1.36,0,2,.2,1.08.83,1.53,1.44a3.11,3.11,0,0,1,.75,2.1c0,.57,0,1.39-.5,1.75m10.78-7.22a3.4,3.4,0,0,1,0,2.25c-1.4-.46-.91-2.21-.61-3.25a23.36,23.36,0,0,0,1.15-6.24,11.69,11.69,0,0,0-1.26,3.69c-.27,1.28-.35,2.91-1.14,4-.3.42-1,.38-1.5.16-1-.45-2.22-1-1.95-2.25.71-3.25,1.45-6.5,2.18-9.74.35-1.55.68-3.11,1.07-4.64.22-.84.25-2.53,1-3.1a4.14,4.14,0,0,1,2.49-.36c1.35,0,2.64-.11,4-.23s2.79-.28,4.18-.52c1.06-.19,2.67-.93,3.73-.71-.21,4.42-1.89,8.59-3.18,12.77-.66,2.16-1.23,4.35-2,6.46s-1.28,4.32-2.24,6.36c-.45,1-1.06.93-1.85.46a14,14,0,0,1-1.87-1.28,3.41,3.41,0,0,1-1.16-1.5c-.26-.79-.24-1.82-1-2.33m49.22,2.18c1,.15,2.18,1.56,1.81,2.56-.22.6-1.25-.52-1.46-.78a1.51,1.51,0,0,1-.35-1.78M133.64,127c-.34,0-1.11-.29-1.15-.63-.1-.86-.16-.94.61-1.34,2.84-1.46,6.46-1.7,9.55-2.26,1.78-.33,3.59-.46,5.39-.67.9-.11,1.8-.23,2.7-.28s2-.41,2.95,0,.82.39,1,1.32c.32,1.69-5.81,1.08-6.71,1.17A101.29,101.29,0,0,0,133.64,127m10-1.38a3.1,3.1,0,0,1,2-.45c.9,0,1.87-.47,2.77-.28-.84.8-3.75,1.28-4.75.73m-8.74-2c-.81-1.52,0-4,0-5.61,0-2.22.26-4.43.27-6.65,1,.93.39,3.39.4,4.57,0,2.21-.17,4.46-.19,6.68,1-2,.53-4.42.75-6.61.27-2.61.08-5.31.54-7.89.45.55.29,1.45.25,2.1-.06.95,0,1.91,0,2.85s0,2.07,0,3.1a7.42,7.42,0,0,0,0,2.7,4.37,4.37,0,0,0,.54-2.73c0-1.35.21-2.68.24-4,0-2.58.27-5.14.27-7.73.78.95.24,3.6.23,4.73s0,2.06,0,3.09-.41,2.22.23,3.19a28.81,28.81,0,0,0,.52-6.56c0-2.4.27-4.79.27-7.2.53.58.3,1.64.25,2.35a12.93,12.93,0,0,0,.23,3.4,9.93,9.93,0,0,0,.51-4c0-1.57,0-3.15,0-4.72.91,1,.49,3.48.48,4.75.86-1.08.63-2.78.58-4.06-.07-1.82.2-3.63.2-5.44.66.73.26,2.23.4,3.14,0,.34-.16,2.16.08,2.36.7.58.51-2.88.52-3.28,0-1.68,0-3.36,0-5a18.21,18.21,0,0,1,.76-4.32c.37-1.5.39-3.56,1.28-4.85a4.66,4.66,0,0,1,1.29,2.7c.39,1.67.75,3.36,1,5a34.51,34.51,0,0,1,0,10.25c-.47,3.57-1.3,7.08-2,10.6q-.55,2.61-1.07,5.22c-.17.87-.34,1.75-.5,2.62a12.94,12.94,0,0,1-.31,2.48c-.43,1.14-1.42,1.31-2.5,1.51-1.85.36-3.7.79-5.52,1.3m-1.5,0a35.49,35.49,0,0,1,.52-5.24,3.47,3.47,0,0,1,.24,2.54c-.1.56.09,2.79-.76,2.7m10.26-2a47.71,47.71,0,0,1,.74-5.82,50.87,50.87,0,0,1,1.23-6.47,55.23,55.23,0,0,0,2.1-13.2c.07-4.13,0-8.58-1.46-12.49-.63-1.72-1.5-3.32-1.26-5.2s.2-4.22,1.06-5.8c1.5.82,2.54,3,3.44,4.34a34.71,34.71,0,0,1,3.06,5.74,31,31,0,0,1,2.36,12.33c0,2.25.38,4.5.37,6.76s-.15,4.68-.3,7c-.14,2.12-.66,4.16-.49,6.28.08,1-.12,2.1-.1,3.16,0,.39.4,2.12-.14,2.37-1.37.62-3.26.32-4.74.48a54.87,54.87,0,0,1-5.87.51m-9.74-4c0-.67,0-1.33,0-2a1.9,1.9,0,0,1,0,2M111.53,88.77c1.59-1.22,4.1-.82,5.87-1.88s4.07-2.58,4.41-4.84a8.77,8.77,0,0,0-2.72.54,8.83,8.83,0,0,1-3.12,0c-.51-.07-1,.09-1.16.64a16.92,16.92,0,0,0,3.18.12A18,18,0,0,1,120.8,83a10.68,10.68,0,0,1-4.24,3.36,17.48,17.48,0,0,1-2.31.79c-.34.08-2.16,0-2.29.16a6.63,6.63,0,0,0-1.19,2.14c1.15,0,1.87,1.19,2.43,2,.43.65.65,1.87-.2,2-1.16.19-2,1.11-3.18,1.42-.89.25-2.25,1.29-2.56-.22a4.41,4.41,0,0,0-1,1.5,9.45,9.45,0,0,0,1.55.45,2.36,2.36,0,0,0,1.41-.35c.73-.34,1.56-.45,2.27-.83s2.74-1.31,2.81-2.24a5,5,0,0,0-.43-1.81,3.79,3.79,0,0,0-2.34-2.68m-2.77,5c0-.42,0-.83,0-1.25.42.07.83.18,1.25.25a9.44,9.44,0,0,1-.24-1.75c.56.34.92.92,1.5,1.26.16-.72-.65-1.69-1-2.25A8.3,8.3,0,0,0,108,93.75h.73m6.79-11.48a8.22,8.22,0,0,1,3.26-1.49c-.32-.63-1.53-1.14-2.08-.61s-1.35,1.48-1.18,2.1m16.75-3.19a4.43,4.43,0,0,1,1.51-3c.29.57-.07,1.23-.32,1.75s-.48,1.38-1.19,1.24m-3.49-.76c.13-1,1.22-1.53,1.87-2.11s1.54-1.71,2.64-1.88a3.22,3.22,0,0,1-1.37,2.59c-1,.73-1.83,1.41-3.14,1.4m6.25-1.48c-.7-.54-.71-2-.74-2.75a2.16,2.16,0,0,1,.74,2.75m-7-2c.74-1.22,2.72-1.4,4-1.49-.35,1.66-2.68,2.19-4,1.49m-.49-4.75c-.46-.77-1.74-1-2.47-1.41-.48-.28-.54-.42-1,0a3.71,3.71,0,0,0-.79,1.14c1.5-.37,2.76.31,4.25.27m-2.24-3c.95-.75,2.24-.34,3.25-1-.49-.4-1.58-.3-2.19-.41s-.51-.1-.76.38c-.15.31-.4.68-.3,1"/><path class="g" d="M11.7,156.84l2.79,4,1.27.08c-.32-2.87-1-5.71-1.12-8.6l-.36-9.51c-.1-2.63.57-5.32.61-8,0-2.9.06-5.79,0-8.69-.16-12,.91-23.75,7.24-34.23l.08-.12v-.19h.11c3.07-5.07,6-9.86,9.51-14.67,3-4.18,6.4-8.06,9.42-12.23l-2.64-3.34c-3.16,1.08-7.49,2.52-9.8,5a49,49,0,0,0-4.53,4.81,49.54,49.54,0,0,0-2.82,5.23l.32,4.34-.87,2.31-4.65,3.39c-2.42,4.18-5.08,8-5.09,13q0,9.27,0,18.52,0,12.79-.07,25.57c0,4.43-.52,9,.63,13.26"/><path class="h" d="M80.23,98.89c-6.31.59-12.57,1.27-18.84,2.11l.46.32H62c4.82,3.81,9.86,6,15.43,8.55l0,0c3.43,1.13,7.77.91,11.37,1.3,2.25-3.9,5-7.61,7.47-11.41-5.36-.41-10.69-.68-16.05-.9"/><path class="h" d="M31.93,145.15q2.4-6.06,4.79-12.13c1.22-3.08.55-7.56.7-10.87-3.38.79-7,2.12-10.42,2.44l-11.32,1.07-.67.7c-.13,8.2-.75,16.28-.43,24.47.15,3.91.36,8.54,2,12.12a67,67,0,0,0,6.92,11.62l1.17,0A96.43,96.43,0,0,1,27,161.83q2.47-8.34,4.92-16.68"/><path class="h" d="M40.09,143.18c-.51,1.7-1,3.39-1.54,5.09-.42,1.38-1.26,3-1.23,4.5,8.68-7,19.18-9.83,30.18-9.88a6.93,6.93,0,0,0,1-3c.54-2.28,1.09-4.56,1.63-6.84.78-3.28,1.78-6.44,1.84-9.82L61.32,117c-3.43-2-5.84-5.38-9.44-7.2-4,11.11-8,22.22-11.8,33.39"/><path class="h" d="M27.79,82.6l-5.46,9h-.11v.19a72.14,72.14,0,0,0-3.87,8.08c-1.19,2.67-1.48,5.54-2,8.42a62.78,62.78,0,0,0,12,.19l.5-.59h5.67c.22-2.66,1-5.32,1-8l.06-.07h.27c1.17-7.49,8.67-13.32,15.34-15.51V81.2h-.13a35.08,35.08,0,0,0-1.88-7.77c-2.32-2.67-4.66-5.18-7.19-7.65l-1.29-.3Q34.26,74,27.79,82.6"/><polyline class="h" points="51.25 99.88 51.25 98.09 50.73 99.88 51.25 99.88"/><path class="g" d="M41.33,121.36c-3.23,8.19-7.24,16.47-9.73,24.91q-2.53,8.59-5.06,17.19c-1.13,3.84-1.39,8-2,12a37.63,37.63,0,0,0,7.84,7.09l.12-.72a67.62,67.62,0,0,1-3.62-8.38c.28-7.85,1.85-15.35,8.3-20.54,1.68-7.57,4.72-15,7.23-22.31s5.07-14.28,7.63-21.42l-3.16-3.72c-1.29,2.67-2.64,5.31-3.88,8-1.14,2.51-1.88,5.84-3.67,7.95"/><path class="i" d="M60.23,143.26a44.34,44.34,0,0,0-22.58,9.24c-6.7,5.38-8.48,12.69-8.77,20.92a86.52,86.52,0,0,0,5,10.9l4.93,3.42,1.29-.47c2.33-3.63,4.54-7.34,7-10.9a120,120,0,0,0,7.25-11.32c2.1-4,5-7.71,7.42-11.55,2.24-3.56,4.5-7.19,6.92-10.62a78.8,78.8,0,0,0-8.42.37"/><path class="i" d="M67.82,105.52c-2.17-.75-4-2.79-5.79-4.2l-11.44-.54-.65,2.66c6.7,6.92,13.9,13.62,23.14,16.86a21.25,21.25,0,0,1,.71-6.78,50.67,50.67,0,0,0,3.67-3.66l-9.65-4.35"/><path class="i" d="M44.4,87.61c-2,1.8-4.85,4-6,6.46a40.42,40.42,0,0,0-3.09,8.41,23.12,23.12,0,0,0-.79,8.39c.21,1.39.12,3.41.79,4.66q1.24,2.34,2.48,4.68l2.72,2.33c4-5.59,6.3-13.17,9.07-19.44s2.57-12.16,2-18.82a33.28,33.28,0,0,0-7.15,3.35"/><path class="h" d="M48.18,65.92,50.3,67.3c4.17-5.1,8.42-9.47,14.11-12.84l-3.83-.72-2.31-2.83-1.45-.6A22.48,22.48,0,0,1,50.65,55a37.86,37.86,0,0,0-7,5.5l1.18,2.64,3.35,2.74"/><path class="h" d="M112.13,65.45,114,69.33l.15,2.13-.25.38a67,67,0,0,0,3.53-5.95,15.43,15.43,0,0,0-3-4.06L108.68,60l-1.88.55,3,.63,2.34,4.32"/><path class="h" d="M84.31,69.28l-.95,9.55-3.68.37.62.24a43.28,43.28,0,0,1,9,.94,35.85,35.85,0,0,1,5.22-1.46c-.68-4.84-1.06-9.63-1.4-14.5L96,63.77c-2.18.17-4.73.8-6.88.36L80.9,62.48l4.16,1.31-.74,5.49"/><polyline class="h" points="74.47 78.23 74.77 78.37 77.45 78.38 77.2 78.28 74.47 78.23"/><polyline class="h" points="100.35 78.59 100.72 78.49 96.85 78.79 100.35 78.59"/><path class="h" d="M102.44,68.76l1.41,8.18L102.37,78c2.53-.7,5.07-1.35,7.62-2l1.69-2.5,1.14-.09,0-.07-1.37-.6c-1.55-3.76-2.82-7.75-5.07-11.14l.35-1.14c-2.27.67-4.44,1.48-6.66,2.33l.48-.11,1.84,6"/><path class="h" d="M67.81,60.94c-3,3.76-5.87,7.64-8.57,11.66l-1.54.17,1.22.33.63.82c1.22.73,2.66,2,4,2.33l5.72,1.34,3-.4,1.19.57-1.14-.69a144.78,144.78,0,0,1,4.79-15.77l.17,0c-2.86-1.44-6-2.65-8.7-4.44l1.92,1.47-2.73,2.57"/><path class="i" d="M56.83,59.88c-2.25,2.47-4.49,4.92-6.61,7.51l1.57,1.84,2.58,1.17,1.38,1.85,1.61.56,1.88-.21c3.41-5.07,6.84-10,11.3-14.22L65,54.12a74.53,74.53,0,0,0-8.16,5.76"/><path class="i" d="M74.2,69.44l-1.84,7.63,1.9,1.16,2.94.06,2.32.93,3.85-.39c.5-5,1-10,1.69-15l-7.91-2.5L74.2,69.44"/><path class="i" d="M93.73,73.36c.26,1.87.53,3.74.79,5.61l7.36-.56,2-1.47a115,115,0,0,0-3.25-14.2l-7.49,1.68.62,8.95"/><path class="i" d="M107.83,63.76c1.2,3,2.44,6,3.67,9l1.42.62,1.28-1.95L114,69.33c-1.36-2.77-2.78-5.49-4.25-8.2l-3-.63c-.12.38-.23.77-.35,1.15l1.4,2.11"/><path class="i" d="M54.15,18.86l2.36.84,1,1.82c1,.18,2,.48,3,.75a27.49,27.49,0,0,1,2.79,3l1,3.2,2,1.82a80.57,80.57,0,0,1,17.37-6,78.9,78.9,0,0,1,17.69-1.45l1.23-.86,1.06-2.27-.58-.92c.18-4.33,2.14-7.68,5.17-10.69L108.36,7l-1-.07L106.2,8.89l-.83.19-.09-2.89-.8-.07c-1.11.39-2.18.88-3.26,1.34L99.55,10.1l-.22,2.31.73.74A14,14,0,0,1,103.45,12c-.32.83-.63,1.67-1,2.48l-2.25,1a42,42,0,0,0-5.77-2.89L94.48,10l-1.85-.8-.77.64-1.29.21-.25.62.49,1.1-.43.52L87.18,12a15.29,15.29,0,0,0-2.35-3.92A12.21,12.21,0,0,0,80.6,6.84a12.6,12.6,0,0,0-4.07,2.69l-.69,4.12L72,15.51l-.15-2.43H69.35l-.77,1.2-.74.4a10,10,0,0,1,1.34,2.68,21.74,21.74,0,0,0-2.57,5.34l-4-.41-2.76-1.67,3.58-1.32-1.72-2.55-3-1.4-3.32.3a8.38,8.38,0,0,0-2.25,2.27l.18.55.77.4"/><path d="M99.19,13.46c1.12.09,2-.74,3.1-1,.42-.09,1.13-.48.73.31a8.2,8.2,0,0,0-.58,1.41,7,7,0,0,0,1-.25c-.45.84-.88,2-2,2a7.54,7.54,0,0,0,1-1.5c-.56.11-1.49.81-2.06.6-1.56-.58-2.71-1.78-4.38-2.16-.74-.17-1.58-.65-1.28-1.52s.5-1.58-.45-1.88c-.6-.2-1.42-.8-2-.42-.34.22-.59.61-1,.58-.16,0-1-.15-1,.07-.26.71.06,1.26.27,1.94-.85.2-2.37.54-3.13-.13s-.84-1.92-1.38-2.63A6.56,6.56,0,0,0,80.14,6.7a4.66,4.66,0,0,0-2.66,1.39,4.85,4.85,0,0,0-1.62,2.57,5.55,5.55,0,0,1-.9,3c-.62.71-1.93,1-2.76,1.41-.27-.92.18-1.74,0-2.65,0-.07-2.26.18-2.57.16-.62,0-.64,0-.82.61s-1.41.94-1.35,1.4a2.27,2.27,0,0,0,1.2,1.46c-.13-.43-.35-.83-.49-1.25a.93.93,0,0,0,.74-.36c.29-.36.06-.9.56-.86s1.34.32,1.95,0c0,.41.2,2.21-.15,2.52s-.75.88-1.11,1-.9-.18-1.25-.25c0,1-.81,1.78-1.29,2.58s-.85,1.95-1.74,2.44c-1.57.85-4.09-.21-5.23-1.3.35,0,2.79-.42,3-.74s-.2-1.06-.29-1.3a4,4,0,0,0-.95-1.46,7.77,7.77,0,0,0-2.8-1.83,6.32,6.32,0,0,0-3.09-.13,3.82,3.82,0,0,0-2.75,1.53c-.27.41-.86,1-.75,1.49.18.9,1.94,1.09,2.61,1.44A3.25,3.25,0,0,1,57,20.8c.19.34.33,1,.79,1a8.17,8.17,0,0,1,1.78.29A4.85,4.85,0,0,1,62,24.17a16.33,16.33,0,0,1,1.51,4.23c.12.56.61.87,1,1.26a2.53,2.53,0,0,1,.33,2.72,13.74,13.74,0,0,0-.62,3.42,11.18,11.18,0,0,0,.45,3.5c.3,1,.83,2.19.23,3.21a4.75,4.75,0,0,1-2.84,1.72c-.7.22-2.08-.65-2.64-1a10,10,0,0,0-3.61-1.13,5.32,5.32,0,0,0-3.12.67c-1.15.61-1.15,2.32-1.16,3.45,0,.67,0,2.35-1.09,2a7.19,7.19,0,0,0-3.26-.57c-1.3.17-1.75,1.23-2.36,2.23-1.1,1.82.84,3.64.38,5.39-.23.85-.55,1.88-1.7,1.7.45.74,1,.54,1.64.2s.78-.9.86-1.64c.15-1.33-.57-2.83-.71-4.15a3.22,3.22,0,0,1,2-3c1.19-.46,3.19,0,3.49,1.36-1.3,0-3.53-.3-4.25,1.11s-.15,3.23.17,4.84c.19,1-2.06,3.41-3,2.63s-1.4-.9-.8-2,1.28-.26,1.91.14A1.07,1.07,0,0,0,44,55.08a4.11,4.11,0,0,0-1.17.26c-.36.08-.35.24-.51.58a2.29,2.29,0,0,0-.26,2A4.16,4.16,0,0,0,43,59.48c-4.2.13-8.35,2.7-11.82,4.84a25.19,25.19,0,0,0-9.11,9.37A10.22,10.22,0,0,0,21,78c-.07,1,.63,2.61.26,3.56-.5,1.29-2.7,2.12-3.69,3A20.88,20.88,0,0,0,14,89.11a26,26,0,0,0-3,6.09,12.92,12.92,0,0,0-.19,2.71c-.08,1.16-.21,2.29-.22,3.46,0,2.46,0,4.92,0,7.38q0,7.42,0,14.83c0,10.11,0,20.21-.11,30.33,0,3.36,3,5.93,5,8.27a19.63,19.63,0,0,1,2.31,4.37,32.17,32.17,0,0,0,3.07,5.06,58.39,58.39,0,0,0,7.43,8.51,56.24,56.24,0,0,0,8.76,7.18c.58.35,2.32,1.67,2.68.78s1-1.58,1.37-2.41c-1.74.2-3.95-2.53-4.89-3.71C35,180.46,33.08,178,33.12,176c0-.82.22-.78,1-1a4.79,4.79,0,0,1,2.4.45,9,9,0,0,0,3.24.63,16.77,16.77,0,0,0,2.75-.31,5.32,5.32,0,0,1,2.65-.21,14.29,14.29,0,0,1,2,.83c.14-.43.36-.82.5-1.25-1,.16-1.88-.41-2.83-.45a11,11,0,0,0-2.73.45c-1.28.27-3.4.6-4.2-.78.91.21,2.67-.57,3.5-.9,1-.39,2.47-1,2.51-2.33a29.66,29.66,0,0,1-3.25-.51c.45-1,1.78-1.4,2.13-2.36.15-.41.14-.4-.27-.55-1.15-.41-3.19.66-4.06-.32-.55-.62-1-1.51-1.7-.56a7.42,7.42,0,0,0-1.1,2,3.3,3.3,0,0,0-1.5-.5,10.79,10.79,0,0,0,0,2.78,14.13,14.13,0,0,1,.78,3A6.17,6.17,0,0,1,33.3,174c-1.59-.38-1-3.9-.92-5a17.28,17.28,0,0,1,1.68-6.17,23.25,23.25,0,0,1,8.18-9.46,38.47,38.47,0,0,1,11.58-5.57,63.89,63.89,0,0,1,6.46-1.21c1.89-.33,4.13-.7,5.92.22.31-.6.72-1.14,1-1.75a50.27,50.27,0,0,1-6.5.73c-2.4.23-4.68.88-7,1.3a27.49,27.49,0,0,0-5.94,2.18,35.44,35.44,0,0,0-6.25,3.5,22.62,22.62,0,0,0-8,9.48,19.27,19.27,0,0,0-1.62,6.41,23.59,23.59,0,0,0,.24,7,15.77,15.77,0,0,0,2.63,5.95,22.3,22.3,0,0,0,2.56,2.92c.7.62,1.73,1,2.17,1.88.75,1.49-1.2.78-1.85.29a22,22,0,0,1-5.42-6.31,21.58,21.58,0,0,1-2.74-8.08c-.08-.56-.58-1-.6-.17a11.83,11.83,0,0,0,.25,2.79,28.08,28.08,0,0,0,1.2,3.67c.44,1.13,1.21,2.14,1.54,3.32-2-1.67-4.47-3.45-6-5.62a2,2,0,0,1-.58-1.68c.09-1.55.78-3,.84-4.57a35,35,0,0,1,.47-4.2,70,70,0,0,1,2-8.32,137.21,137.21,0,0,1,5.83-17.69q1.81-4.29,3.64-8.56a72.76,72.76,0,0,0,3.49-8.56c.81-2.88,2.37-5.44,3.48-8.21s2.47-5.56,3.82-8.27a14.31,14.31,0,0,1,2.22,2.51c.65,1.1-.19,2.47-.58,3.52a38.56,38.56,0,0,0-1.42,4.08c-.69,2.7-2.14,5.24-3,7.89-1.88,5.49-3.81,10.95-5.58,16.46-.91,2.84-1.56,5.71-2.4,8.55a8.14,8.14,0,0,1-1.38,3.19c-.9,1-2,1.84-2.82,2.91a20.55,20.55,0,0,0-2.06,3.28,22.51,22.51,0,0,0-1.82,4,29.39,29.39,0,0,0-1.09,8.25c.65-.47.53-1.43.51-2.13a12.43,12.43,0,0,1,.52-3.42,23.43,23.43,0,0,1,2.68-6.65c3.3-5.43,9.25-9.13,14.91-11.7a45.7,45.7,0,0,1,15.75-3.65c.9,0,1.79,0,2.69,0s1.92.29,2.6-.28,0-.66,0-1.29a17.86,17.86,0,0,1,.5-2.8c.47-2.15.93-4.31,1.43-6.46s1-4.19,1.52-6.28c.2-.78.8-3,0-3.54-1.71-1.15-3.68-1.88-5.45-2.95a69,69,0,0,1-5.75-4,73.28,73.28,0,0,1-10.09-9c-.68-.74-1.41-1.72-1.09-2.77a11.53,11.53,0,0,1,2,2c.95,1,1.87,1.91,2.9,2.79,2,1.7,4,3.39,6,5A51.62,51.62,0,0,0,66.73,118a28.82,28.82,0,0,0,3.53,1.73,7.64,7.64,0,0,1,2.85,1.34,3.25,3.25,0,0,1,1.17,2.49c-.12,2.55-1.22,5.06-1.82,7.53-.68,2.81-1.24,5.66-1.95,8.46a5.14,5.14,0,0,0,1.59-2.21,3.12,3.12,0,0,0,.22-1.17,4.9,4.9,0,0,1,.61-1.73,4.3,4.3,0,0,1,1.23-1.66c.68-.48,1.08-.17,1.59-.95a5,5,0,0,0,.54-1c-1,.25-1.51.37-2.06-.56A2.43,2.43,0,0,1,74,128a4.31,4.31,0,0,1,1.77-2c.53-.32,1.52.64,2,.81-.1-.7-.37-1.41-.51-2.12-.1-.54.36-1.13.52-1.63a5.12,5.12,0,0,1-4.44-4.21c-.26-2.06-.12-4.64,1.58-6.14a8.45,8.45,0,0,1,2.84-1.85c1.85-.59,4,.24,5.84.42,1,.1,2,.17,3.07.26.62,0,1.69.51,2.1-.1s3.4-4.92,2.88-5.18a2.22,2.22,0,0,1-.65-.38c-.07-.08-.38-.52-.42-.54-.62-.14-1.8,1.78-2.26,2.15a2.3,2.3,0,0,1-2.94-.41c-1-.91-2-.06-2.94.5s-2.23-.3-2.67-.95a6.47,6.47,0,0,1-.54-1.24c-.27-.66-1.2,0-1.59.18a2.31,2.31,0,0,1-2.58-.22c-.38-.36-1-.76-1.2-1.26s-.29-1-.49-1.49c0,.06-3,.77-3.18.82s-1-.63-1.33-.83-.3-1.09-.13-1.46c.69-1.47,4.46-1.25,5.75-1.32,2.75-.15,5.41-.53,8.17-.51s5.49.29,8.22.47a32.76,32.76,0,0,1,3.44.11,7.73,7.73,0,0,1,1.58.44,7.65,7.65,0,0,0,1-1.71,12.72,12.72,0,0,1-5.49.35c-1.81-.22-3.62,0-5.43-.24a43.43,43.43,0,0,0-11.22.19c-1.9.3-3.79.36-5.7.57s-3.81.66-5.73.87-3.71.23-5.57.27a26.83,26.83,0,0,1-5.67-.29c-1.29-.28-.58-2.1.39-2.28a8.19,8.19,0,0,1,2.37.11,18.29,18.29,0,0,0,3-.07,44.88,44.88,0,0,0,5.55-.64,86.42,86.42,0,0,1,11.47-1.21,31.21,31.21,0,0,1,5.47,0,54.24,54.24,0,0,0,5.55.38c2,0,3.91.09,5.86.29a54.78,54.78,0,0,1,5.89.44c.41.09.38-.07.55-.43s.36-.66.52-1a8.09,8.09,0,0,1-5.3-.13c-.88-.31-.44-3.74-.43-4.35,0-2.15-.57-4.68,0-6.76.42-1.39,3.64-1.22,4.72-1.26,0,1,.24,2,.24,3a2.55,2.55,0,0,0,.32-1.78c0-.45-.33-1.28.31-1.22a10.8,10.8,0,0,1,.26,2.25c0,.23,0,2.86.61,2.26.18-.22,0-1.29,0-1.52,0-1,0-2,0-3a6.48,6.48,0,0,1,.49,3.08c0,1.15.25,2.27.24,3.42.75-.83.27-3.46.27-4.5a6.72,6.72,0,0,1,.43,2.92c.06,1.28,0,2.54,0,3.83a13.67,13.67,0,0,0,1.91-2.37c.49-.71.69-.73.26-1.46-.82-1.37-.3-3.41-.39-4.92s-.93-1.53-2.2-1.36a80.64,80.64,0,0,1-9.44,1.07c-1.49,0-3,.26-4.45.22s-3.16-.18-4.74-.23c-3.1-.09-6.17-.88-9.23-1.27a32.12,32.12,0,0,1-4.36-.68c-1.67-.43-3.36-1-5.06-1.33-.87-.16-.77.07-.92.88a1.62,1.62,0,0,0,.16,1,1.91,1.91,0,0,0,.25-1.25c1.77,0,3.61.84,5.32,1.25s3.88.39,5.65,1.13c.79.33.79.52,1,1.36.37,1.46-.14,3-.22,4.47-.09,1.7.25,3.53-.14,5.2-.12.52-.08,1.16-.57,1.43-1.38.73-3.35.51-4.86.68-1,.11-2,.21-3,.41a5.2,5.2,0,0,1-2.41.22c-.34-.09-1.1-.11-1.11-.57,0-2.26,0-4.55,0-6.81s.57-4.42.08-6.76a3.51,3.51,0,0,0-.29,2.35c.07,1.1,0,2.21,0,3.31,0,2.39-.22,4.79-.31,7.18a4.66,4.66,0,0,1-.57,1.44c-.22.5-1.2.32-1.62.36s-.87-.21-1.31-.07a10.35,10.35,0,0,1-1.82.39c-.73.08-4.16.41-4.66-.5-.15-.27.12-1,.17-1.25a19.37,19.37,0,0,0,.19-2,23.21,23.21,0,0,0-.16-5.77c-.25-1.67-.2-3.36-.41-5a40.43,40.43,0,0,0-1.08-5.56A15.9,15.9,0,0,0,49,72.82a24,24,0,0,0-3.4-4.19c-1.28-1.27-2.66-2.43-3.83-3.8-.87-1-2.31-2.26-2.51-3.66,1-.14,2-.67,3-.77s1.44,1.83,2,2.57a18.32,18.32,0,0,0,4.27,3.68c1.52,1,2.58,2.56,4.18,3.44a5,5,0,0,1,1.68,1.08A6.2,6.2,0,0,0,56.78,73c.26.11,1.83.36,1.9.48A6.29,6.29,0,0,1,59,76c.07,2.22,0,4.48,0,6.7,0,2.06-.37,4.06-.33,6.12,0,2.31,0,4.62,0,6.93.61-.65.49-2.93.51-3.77,0-2,0-3.95,0-5.93s0-4.09,0-6.13a22.34,22.34,0,0,1,.27-5.42c1,.46,1.93,1.17,3,1.59a24.57,24.57,0,0,0,3.24,1.07,30.85,30.85,0,0,0,3.39.8c1.08.13,2.13-.36,3.19-.25s1.66.8,2.58.89a8.38,8.38,0,0,1,2.92.31,8.62,8.62,0,0,0,3,.88c1.14.09,2.23-.32,3.33.12a12,12,0,0,0,6.38.53,27.68,27.68,0,0,0,3.08-.88,13.43,13.43,0,0,1,3.8-.19c1,0,2-.51,3.07-.49a7.45,7.45,0,0,0,3.19-.9,12.65,12.65,0,0,1,3.13-.45A10.12,10.12,0,0,0,110,76.27a3.79,3.79,0,0,0,2-2.39c.26.15.5.34.75.5a49.26,49.26,0,0,1,2.71-4.53,24.94,24.94,0,0,0,2.82-4.69c-.93-.2-1.36-1.16-1.72-1.94a3.7,3.7,0,0,0-2-1.87c-.79-.37-1.75-.3-2.58-.67a4,4,0,0,1-2.18-1.55c.52-.15,1-.52,1.5-.64a11.2,11.2,0,0,1,5.43.18c1.06.4,2.47.91,2.44,2.35a4.54,4.54,0,0,1-.16,1.91,5.11,5.11,0,0,0-.73,2c1.1-.64,1.57-2.27,2.45-3.18.13-.13-.36-.85-.45-1-.44-.85-.66-1.82.32-2.38.77-.44,1.69-.25,2.46-.66a5.89,5.89,0,0,1-.25,1.25c.36-.29,3.13-4.53,2.57-4.86a8,8,0,0,0-2.39-1.34A1.53,1.53,0,0,0,121,54.18a4.49,4.49,0,0,1,2.18-.24,1.56,1.56,0,0,1,.79.77c.13.43-.16.81-.33,1.22-.74,1.75-2.87.78-3.92-.08-.53-.43-.9-1.11-1.53-1.39a3.25,3.25,0,0,0-2.36-.35,14.78,14.78,0,0,0-2.3.85,3.6,3.6,0,0,1-2.27-.06A4.65,4.65,0,0,1,114.07,53a5.23,5.23,0,0,1,3.91.09c1.17.44,1.49,2.28,2.53,3a1.74,1.74,0,0,0,2.75-1.33,12.1,12.1,0,0,0-1.72.69c-.45.18-1-.56-1.22-.9-.57-.85-1.07-2.46-1.93-3.06a9.28,9.28,0,0,0-1.61-1.12,4.71,4.71,0,0,0-2-.07,4.27,4.27,0,0,0-3,1.66c1.81-.24,4-2.3,5.5-.23a8.41,8.41,0,0,0-3.61.71c-.8.42-1.67,1.33-2.65,1.21s-1.14-2.14-1.47-2.79-2.24-1.26-2.95-1.32a5.54,5.54,0,0,0-3,1c-.75.43-1.92.67-2.27,1.57-.08.2-2.79-.46-2.28-1.17.21-.29,1.11-.35,1.43-.63.85-.73-.28-2.37,1-2.48.63,0,1,.37,1.33-.28.51-1,.18-2,1.15-2.81.75-.62,1.9-1.07,1.76-2.24-.21-1.66-.61-3.27-.78-4.94s-1-3-.93-4.56c0-1.11.68-2.17.58-3.3a23,23,0,0,0-.81-3c-.26-1.14-.52-2.28-.8-3.41s.45-2.34.85-3.28c.26-.63-.44-1.55-.39-2.23a11.39,11.39,0,0,1,.84-3.59c.49-1.15,1.32-2.06,1.88-3.17s1.38-1.45,2-2.3c.35-.44.81-.76.72-1.32s-.91-.68-1.42-.74c-.91-.11-1.69,1.28-1.82,2.08a4.69,4.69,0,0,1,0-2.75c-2,0-3.68.25-5.16,1.76s-1.31,3.82-1.31,5.83M105,6.23a18.58,18.58,0,0,1-.26,3.25c-.58-.43-.66-1.32-.82-2A1,1,0,0,1,105,6.23M103,7a7.31,7.31,0,0,1,.88,3c0,.2-.57.78-.7.94-.64.83-2.63,1.89-3.7,1.33.42-1.25,1.66-1.23,2.75-1.49a3.93,3.93,0,0,0-2-.76c0-1.66,1.55-.84,2.5-.49-.14-.83-1.22-2.22.27-2.5m-20.74.18c.64,1.16-.6,2.58-.76,3.75C82.55,10,83,7.22,85,8.41c-.54.93-1.54,1.54-2,2.49.77-.11,2.45-1.75,3.13-.87.9,1.17-1.8,1.45-2.38,1.62.43.22,2.79.47,2.29,1.32-.84,1.41-3.69-1.07-4.66-.93s-1.77,1.74-2.63,2.27a4.12,4.12,0,0,1-1.75.31c.37-.62,1.18-.87,1.75-1.24a5.47,5.47,0,0,0-2.5.24c0-1.18,1.65-1.27,2.51-1.49-.87-.58-2.25,0-2.24-1.26a17,17,0,0,1,2.75.26A5.36,5.36,0,0,0,77,9.87c.42-1.31,1.39-1,2.25-.24-.07-.39-.49-1.07-.33-1.46s1-.79,1.33-.41c.63.65.47,2.56.49,3.38.58-1.17-.39-3.74,1.49-4M108,7.24c0,.25-.12.88-.5.5s.25-.55.5-.5M93,9.44a4.25,4.25,0,0,1,0,2.75,2.58,2.58,0,0,0,.75-1.25c.34.37.18.89,0,1.31s-.9.64-1.28.84-1-.52-1.07-.72a14.81,14.81,0,0,1-.7-1.7C91.8,10.83,92,9.26,93,9.44m12.75,0c.28,1.39-1.38-.28,0,0m-.75,1.25a1.07,1.07,0,0,1-1,1,1,1,0,0,1,1-1M82.19,12.65c-.09.37-.52,1.47-1.13,1-.81-.65.85-1,1.13-1m5.25.77a6.09,6.09,0,0,1,2,1.26,5.18,5.18,0,0,0-.5-1.25c.72.09,1.43.15,2.14.25s.13,1.24-.17,1.51a7.25,7.25,0,0,1-2.65,1,6.67,6.67,0,0,1-3.8-.27c-.33-.09-1.51-.88-1.35-1.35.3-.9.56-1,1.38-.51a9.76,9.76,0,0,0,1.7,1.08c-.25-1.13,1.55-.62,2-.24-.25-.41-.9-1-.75-1.51M98.93,16c-1.15.29-2-.66-3-1,.08.17.17.34.25.5a1.76,1.76,0,0,1-1.4-1c-.13-.4.1-.34.25-.68s.23-.36.66-.24c1.15.32,3.21.91,3.24,2.4M80.69,14.89A5.13,5.13,0,0,1,77,18.25a24,24,0,0,1-2.94.11,3.19,3.19,0,0,1-1.2-.48c-.51-.23-.55-.6-.77-1.13-.33-.78,1-1.41,1.54-1.68a2,2,0,0,1,2.29-.12c.3.23.64.74,1,.86,1.22.43,2.42-1.6,3.75-.92m14.24.81c.12.87-1.09.75-1.73.74H90.93c.21-1.16.9-1.32,1.93-1.52s1.32.38,2.07.79M83.67,17.16a13.09,13.09,0,0,0-1.88.13,4.51,4.51,0,0,1-1.87.36,4.52,4.52,0,0,1,1.47-2.18c.23-.21,1.09.26,1.31.44a2.19,2.19,0,0,1,1,1.25m-26.24.15c.36-.72.36-2,1.56-1.64.68.22.32.52.14,1.07a9.42,9.42,0,0,0-.46,1.57c.74-.92,1.35-2.06,2.69-1.52.08,0-1.66,2.54-1.7,2.76a5.37,5.37,0,0,1,1.75-1.24,1.19,1.19,0,0,1,1,0c.3.16.63.62.29.83-2.66,1.68-6.2.23-8.85-.6-.48-.15-.55-.14-.36-.71a1.12,1.12,0,0,1,.66-.7c.67-.17,1.44.57,2,.87A4.84,4.84,0,0,1,55.28,17c-.26-.51-.55-.85,0-1.16,1.07-.54,2,.49,2.11,1.5m11.26-1,.25.25-.25-.25m30.73.86c-.78.62-2.26.25-3.19.33a32.51,32.51,0,0,1-4.52.24c-1.54-.08-3,.38-4.53.39a24.05,24.05,0,0,0-5.21.66,81.18,81.18,0,0,0-9.56,2.69c-1.49.53-3,1.07-4.45,1.68a35.77,35.77,0,0,1-4.08,1.89c.26-1,1.77-1.33,2.56-1.68,1.52-.67,3.08-1.25,4.63-1.83s3-1.07,4.46-1.57A30,30,0,0,1,80,18.53c3-.51,5.88-1.45,9-1.42,1.64,0,3.27-.16,4.91-.16,1.85,0,3.68.25,5.51.26m3.25,0c-.49.7-2.28.26-3,.24a3.08,3.08,0,0,1,3-.24m-32.24.89c-.22,1.32-1.61,3.08-3,3.24-.27-1.19,1.64-4,3-3.24m3.5,1.26c-.64,1-3.12,1.85-4.26,1.74a22.57,22.57,0,0,1,1.23-2.89c.12-.38,2.65.95,3,1.15m25-.66c.09.33.19.66.25,1a.54.54,0,0,1-.25-1m-9,.22a.84.84,0,0,1-.5,1.25,1.45,1.45,0,0,1,.5-1.25m4.5,0c.19.77-.28.44-.5,0a2.79,2.79,0,0,1,.5,0m1.25,0c.58.41.48,2.38.49,3-1,.18-.72-.75-.68-1.39s-.2-1.12.19-1.61m-10,.21A3.78,3.78,0,0,1,85,20.6a2.32,2.32,0,0,1-1.35,1.29,4.41,4.41,0,0,1-1.87.27c-.93,0-.67-.46-.67-1.27A1.12,1.12,0,0,0,81,22.67a2.5,2.5,0,0,0,2.37.56c.6-.18,1.17-.47,1.78-.6.29-.06,1.19.16,1.29-.23a.78.78,0,0,1,.68-.49c0,1.28-1.21,1.29-2.2,1.48a55.34,55.34,0,0,0-13.06,3.83c-1.43.68-2.8,1.48-4.25,2.12-.34.15-1.19.59-1.54.24s.24-1.21.28-1.52a1.65,1.65,0,0,0-.52-1.63c-.23-.25-.54-.34-.75-.61a7.77,7.77,0,0,1,2-1,2.65,2.65,0,0,0,.25,1.6,1.07,1.07,0,0,0,1.32.48c1.27-.64.55-2-.57-2.33a5.19,5.19,0,0,1,3.51-1.49c-.33.93-1.2,1.56-1.51,2.5a11.06,11.06,0,0,0,2.21.5c.78.1,1.31-.49,1.82-1s.88-1.15.38-1.55-1.3-.43-1.9-.73c.86-1.47,3.94-1.78,5.41-2.12,2.53-.57,5-1.47,7.65-1.57m17.49.31c0,.6.18.75-.53.74s-1.55.27-2.22-.25c.49-.43,2.14-.46,2.75-.49m-10,1h-1.5a.76.76,0,0,1,1.5,0m-34.74-.12c.94.56-.3.93-.75,1,.08-.51,0-1.17.75-1m40.73.39a3.46,3.46,0,0,1-.25,1.5c-.59-.35-.21-1.22.25-1.5m-4.5.23c0,.28.09,1.59-.57.93-.48-.47-.06-1,.57-.93m-4.5.24c0,.12.08,1.87-.5,1.25-.37-.37,0-1.32.5-1.25m-12.5.36c-.55.28-1.23.52-1,1.21.16.43.32.85.49,1.28.09.24.83.18,1.06.21s.57-.33.79-.51.07-.83,0-1.13c-.07-.83-.55-1.2-1.43-1.06m22.74-.08a.67.67,0,0,1,.25.75c-.29-.13-.59-.2-.75-.5l.5-.25m-11.75.21a2.68,2.68,0,0,1-.25,1c-.31-.4-.51-1.16.25-1m-10.75.46a2.68,2.68,0,0,1,.25,1h-1a1.49,1.49,0,0,1,.75-1m-13,1c-.34.57-1.06,1.34-1.75,1a2.43,2.43,0,0,1-1.49-1.48c1.09,0,2.14.51,3.24.51M102.83,44c.13-1.06-1.39-1.71-2.24-1.72-.54,0-1.28.52-1.35-.2a2.76,2.76,0,0,1,.61-1.35c-1.17.16-1.31,1.66-2.32,2.11L96,43.51c-1.34.62-2.19,2.89-3.84,3a2.54,2.54,0,0,1-2.64-1.44c-.24-.49-.55-.75-.77-.06A1.77,1.77,0,0,0,89,46.63a3.53,3.53,0,0,0,2.62,1.95c2.25.28,4.39-.8,6.68-.64.85.06,2.6.34,2.12,1.56-.22.54-2.52-.14-3.08-.31.83.88.7,1.39.49,2.5,1,0,2.28.83,3.16,1.31A3.55,3.55,0,0,1,103,55.7c-.29-.16-.35-.48-.5-.75-.52,1.41.86,3.28,1.74,4.26-.33-.77-1.1-1.63-1-2.5.85.57.89,1.77,1.74,2.38s1.92-.23,2.75-.37c0,1.78-2.54,1.67-3.7,1.32-1.56-.47-1.54-2.35-2.79-3.09,0,.69-.71,2.22,0,2.68a9.41,9.41,0,0,1,1,.58c.53.44-.56.71-.82.64-1.17-.28-1.09-1.53-1-2.45a21.12,21.12,0,0,0,.63-2.7,7.53,7.53,0,0,0-1.24,2.93c-.19,1.12.45,2.21.47,3.32-2.33.33-2.49-2.69-2.49-4.26a3.72,3.72,0,0,0-1.26,2.5c-.86-.22-1.47-2-1.74-2.76-.46.86.25,1.86.24,2.75a2.57,2.57,0,0,1-.69-1.08A7.28,7.28,0,0,0,93,57.43c.26,1.58,1.17,2.86,1.23,4.5-.83-.49-1-1.61-1.51-2.37s-1.42-1.84-1.22-2.89c-.6,1.29.25,2.06.49,3.25-.9-.49-2.21-2.45-2-3.51-.26.15-.5.33-.75.5a1.93,1.93,0,0,0-.75-1c0,1-.64,1.75-.25,2.72.14.34.79,1.84-.16,1.31-2-1.14-.42-3.35-.33-5a5.22,5.22,0,0,1-1,.75v-1.5c-1.07,1.36-.08,3-.57,4.5-.24.71-.78.62-1.39.53A30.7,30.7,0,0,1,81,58.11a12.29,12.29,0,0,1-3.85-1.5,2.36,2.36,0,0,1-.89-1.44,8,8,0,0,0-1.33-2.4c-.46-.61-2.09-2.25-1.76-3.18.42-1.15.77-2.08,2.09-2.41a2,2,0,0,1,.6,0c-.18,1-.51,3.22,1,3.5a3.19,3.19,0,0,1-.74-2.25c.89.34,1.6,2.22,2,3a4.35,4.35,0,0,0,1.23,1.56c.49.37,1.17.63,1.44,1.22s-.17,1.15-.32,1.69c-.21.74.3,1,1,1.24s1.22-.44,1.74-.22,1.11.58,1.69.79a.89.89,0,0,1,.5-.63c.16-.08.51,0,.49-.22-.11-1.06-.42-2.07-.48-3.15a7.12,7.12,0,0,1-1,1.25,8.76,8.76,0,0,1-.49-1.5c-.06.13-.37.87-.57.69a4.28,4.28,0,0,1-1.43-2.7,4.06,4.06,0,0,0-.51,2.25,2.1,2.1,0,0,1-.74-1.79c0-.59-.77-.85-1-1.47-.43.76.11,1.5.24,2.25a2.44,2.44,0,0,1-1.15-2.44,2.59,2.59,0,0,0,.16-.81c0-.06-.29-.17-.34-.31a1.39,1.39,0,0,1,.1-1.19,5.26,5.26,0,0,0-1,1c-.76-1.46,1.89-2.55,2.83-3,1.92-.9,3.61-2.48,3.69-4.74.06-1.8-.85-3.42-1.65-5a9.92,9.92,0,0,1-1.56-5c.82.1,1.42,1.15,1.67,1.85a9.38,9.38,0,0,1,.56,3.16c2,0,2.85-3.4,2.63-4.93a2.71,2.71,0,0,1,0-1.52c.21-.47.8-.79,1.2-1.11a2.3,2.3,0,0,0,.52-2.13c-.06-.23-.48-.56-.61-.21-.21.58-.56.77-1.11.52s-.51-.83-.42-1.52C85.51,24.2,87.11,24,88,23.82A65.41,65.41,0,0,1,96.83,23a15.15,15.15,0,0,1,4.09.2c1.27.28,1.7.5,1.92,1.77a7.43,7.43,0,0,0,.27,2.22,9.11,9.11,0,0,1,.88,2.54c.19,1.07-.64,2.23-.53,3.38a24.78,24.78,0,0,0,.93,3.58c.3,1.2.12,2.44.39,3.64.19.85,1.1,2.15.42,3a2.58,2.58,0,0,1-2.37.65M73.66,23.86c.17.95-1.32,1-2,1,0-1.26,1.1-1.07,2-1m12.73,4c-.2,1-2.52.72-2.95.09a4.92,4.92,0,0,1-.55-1.1c-.4,1.1,1.22,2.93,1.67,3.88a3.42,3.42,0,0,1-.41,3.57c-.4.64-1.48-1.95-1.63-2.18-.78-1.2-1.36-3.27-2.63-4,0,1-.3,2-.29,3a9,9,0,0,0,.69,2.69c.27.83.15,1.7.42,2.53s.7,1.5.93,2.29a4.44,4.44,0,0,1-.3,3.5c-.62-.77-.18-2.31-.46-3.25a8.12,8.12,0,0,0-1.77-3c.38,1.21,1.25,2.29,1.39,3.58a6.62,6.62,0,0,1-.66,3.92c-.25-.42-.06-.95,0-1.39a5.08,5.08,0,0,0-.38-1.83c-.51-1.4-1.65-2.52-2.34-3.82a10.31,10.31,0,0,1-1.46-4.65c0-1.43,1-2.65,1-4.07a8,8,0,0,0-1.52,4.29,8.34,8.34,0,0,0,1.54,4.69c.81,1.25,2.23,2.22,2.33,3.83.08,1.32-.35,3.27-1.66,3.95.11-.63.58-1.15.64-1.79s.12-1.47.13-2.21c-.46.85-.31,1.9-.78,2.79-1.64,3.1-6.52,2.42-7.66,6.12-.77,2.49,2.7,3.32,3.78,4.86.53.75.69,2.44-.44,2.63a2.29,2.29,0,0,1-1.69,0c-.8-.4-.54-2-.52-2.64,1.19,0,1.24,1.93,2,1.76.13-3.26-7.07-4-5.13-7.83a7.29,7.29,0,0,1,3.73-3.47c1.51-.61,3.31-1.2,4.19-2.68a3,3,0,0,1-1.25.5c.18-1,.88-2,.94-3,.09-1.49-.76-2.89-1.18-4.28a7.49,7.49,0,0,1-.23-2.26c0-.18.19-1.58,0-1.72s-.5-.06-.5.11a32.8,32.8,0,0,0,0,3.29,19.92,19.92,0,0,0,.86,2.92c.46,1.72.46,4.75-1.67,5.43.14-1,.68-2,.84-3,.23-1.52-.5-2.94-1-4.34a8.27,8.27,0,0,1-.22-5.11c.29-.92.57-2.36,1.45-2.83,1.71-.93,3.87-1.24,5.73-1.76.73-.2,2.81-1.33,3.45-.69,1.09,1,1.93,2.54,3.53,2.81M68.65,25.59c-.13.47-.56.63-1,.75a.75.75,0,0,1,1-.75m-3,1.24a3.46,3.46,0,0,1-.25,1.5,2,2,0,0,1-.75-1.5h1m13.25.55a5.65,5.65,0,0,0-.52,4.5c.52-.58.23-1.55.37-2.25s.65-1.62.15-2.25m2.25.26c-.15,1.18,1.29,2.93,2.24,3.51,0-1.1-1.49-2.8-2.24-3.51m7.73,4.77c.88-.51,1.6-1.44,2.46-2a7.58,7.58,0,0,1,4.23-.95c1.71,0,3.63-.81,5.31-.23-.08-.68-.7-.88-1.28-.82-.34,0-.69.22-.76-.15s-.18-.44-.52-.42c-1.31.09-2.58.45-3.88.58a6.9,6.9,0,0,0-3.38,1.18c-.87.66-2.33,1.57-2.18,2.85m-16.48-4.3a7.52,7.52,0,0,1-1,2.69,5.55,5.55,0,0,0-.34,3.34c.46,2.13,1.73,4.29,1.26,6.53-.74,3.47-5,4.2-6.83,6.77a7.52,7.52,0,0,0-1.43,3.1,4.37,4.37,0,0,0,0,.81c-.75-.45-.4-1.82-.24-2.5a4.12,4.12,0,0,0-.76,2.75c-.91-.2-1.25-1.38-1.11-2.2a6.14,6.14,0,0,1,1.54-2.91c1.37-1.61,3.71-1.94,5-3.72,1.14-1.58,1.13-3.4.92-5.26a24.56,24.56,0,0,1,.47-6.63,8.65,8.65,0,0,0-1.38,5.22c0,1.44,1,3.52.25,4.86-.55,1-1.25,2.59-2.66,2.4.11-.79.57-1.5.71-2.3a9.21,9.21,0,0,0-.5-3.48,17,17,0,0,1-.18-4,4.38,4.38,0,0,0-.37,2.69c.15.88.57,1.95.1,2.81-1.38-1.36-.95-5.42-.17-6.93,1.19-2.31,4.43-3.32,6.72-4.07m18.47,6.06c.13.76.63,2.09,1.49,2.25-.07-.42-.18-.83-.25-1.25a26.65,26.65,0,0,1,3.14.89c.52.15,2.15,1,2.54.55.58-.7.18-1.24-.42-1.68,1-.31,1.57-1.72,1.72-2.67.28-1.64-1-1.48-2.09-1.08-2.14.84-4,2.16-6.13,3m7.26-2.47c-.22.84-1.77,1-2.5,1a2.26,2.26,0,0,1,2.5-1m-31.74.14a7.48,7.48,0,0,0-.26,1.75,1.66,1.66,0,0,0,.26-1.75m1.25.5a26.25,26.25,0,0,0-.27,5.09c0,.78.28,1.53.23,2.31s-.24,1.72-.24,2.59c1.27-.92.69-3,.55-4.24a25.21,25.21,0,0,1-.09-3c0-.8.39-2.07-.18-2.74m30.24,1.11c.19.77-.28.44-.5,0a2.09,2.09,0,0,1,.5,0m-2.26.74c.5.84.13,1.4-.85,1.09-1.18-.38.34-.95.85-1.09m1.5.5c-.33.61-.62-.23-.75-.5a1.56,1.56,0,0,1,.75.5M82.85,38.64a4.94,4.94,0,0,1-.77,5,5.84,5.84,0,0,1-1.91,1.62c-.65.31-1.86,1.07-2.6.9a4.73,4.73,0,0,1,1.23-1.85c.37-.45.47-.68,1.06-.4s.92-.35,1.19-.64a5.16,5.16,0,0,0,1.33-2.17c.19-.71,0-1.84.47-2.43M76.1,40.12c-.1.6-.42,1.15-.51,1.75a1.3,1.3,0,0,0,.51-1.75m9.25,0c-.38,1.31-1.14,2.45-1.51,3.74,1-.27,2.32-2.84,1.51-3.74m.75,1.5a4.26,4.26,0,0,0-.76,1.5c.55-.14,1.08-1,.76-1.5m-28,3.41a2,2,0,0,1,.36,2.67c-.85,1.84-4.19-.49-5.32,1.63-.4.75-.29.89,0,1.71.16.5.77.58,1.21.47-.15-.23-.76-1.33-.55-1.52.37-.32,1.21-1.38,1.74-.67,1,1.33-.13,2.79-1.63,2.76a2.94,2.94,0,0,1-1.66-.82c-.48-.53-.2-1.59-.17-2.22,0-1.2,2-1.91,2.53-2.77l-1.75.49c-.26-1.25,1-1.85,2-2.06,1.23-.27,2.09.14,3.29.33a4.66,4.66,0,0,0-2.55-.94c-1,.11-1.95.53-2.95.67.33-2.45,3.34-2.49,5.13-1.81a6.66,6.66,0,0,1,2.81,1.59c.33.36-.45.88-.78.85-.61-.08-1.09-.26-1.66-.36m29-1.9a4,4,0,0,0-.76,1.75c.66-.21,1.26-1.14.76-1.75m14.24.3c.37,1.21,1.73,1.92,1,3.25-.62-.45-1.14-1.22-1.94-.92-.58.21-1.89,1-2.06-.1a9.86,9.86,0,0,1-1.75.74v-.75a11.65,11.65,0,0,1-5.5,2c.59-.74,1.67-.92,2.47-1.33s1.53-1.48,2.28-2.17a3,3,0,0,1,2.27-.68,29.2,29.2,0,0,0,3.24,0m-13.49.45c-.46.79-1.32,1.21-1.76,2,.73-.12,2.51-1.06,1.76-2m-23.74.67c-1,1.69-3.72,2.41-4.13,4.54A3.23,3.23,0,0,0,60.67,52c.6.64,2.27.62,2.39,1.61a7.32,7.32,0,0,1-1.75-.11c-.67-.17-1.08-.8-1.54-1.28A3.73,3.73,0,0,1,59,48.93a6.4,6.4,0,0,1,1.81-3.08,7.52,7.52,0,0,1,3.29-1.27m10.24,1.53c-.91,1.36-2.56,2-2.26,4-.42,0-.66-.53-1-.75.06,1.73,1.76,2.36,2.91,3.29s2.18,2.57,1.48,4A2.79,2.79,0,0,1,74,58.28a4.23,4.23,0,0,1-2.46-.23c-1.47-.4-2.91-1.7-1.78-3.21.5.53.35,1.52.93,2s1.48,1.38,2.36.7a3.3,3.3,0,0,0,1.59-2.16c.21-1.17-1.86-2.15-2.61-2.76-1.09-.89-2.18-2-2-3.56.21-1.86,2.74-2.76,4.29-3m2.75.26c.08.33-.25.38-.5.5-.08-.33.25-.37.5-.5m2.75.51c-.23.91-.46,2.49.74,2.75a5.81,5.81,0,0,1-.44-1.25,7,7,0,0,1,.2-1.5c-.16,0-.34,0-.5,0m-13.25.46c-.06,1.74-1.33,3.87.73,5-1,1-2.09-1-2.21-1.81a3.25,3.25,0,0,1,1.48-3.19m-5.51,1.23c.06,1.11.45,2.16.49,3.25-1.3-.25-1.55-2.59-.49-3.25m48.22,3.67a31,31,0,0,0-3.34-.16A4.81,4.81,0,0,0,103,53.21a9.76,9.76,0,0,1,3.75-.48,16.48,16.48,0,0,1,2.07.52c.66.16.94.71,1.38,1.22a2.72,2.72,0,0,1,.56,1.43,2.44,2.44,0,0,1-.55,2c-.34.59-1.11.45-1.61.3a16,16,0,0,0-1.62-.69,1.31,1.31,0,0,1-.34.95c-.16.16-1,0-1.23-.13-.91-.68-1.21-2-1.68-3s-2-2.16-2.23-3.36c1.44,0,2.58-1.55,4-1.66s3.67,0,3.7,1.93m-56.48,1.3a17.42,17.42,0,0,0-4.25.48,3.34,3.34,0,0,1,.75-1.25,4.16,4.16,0,0,1-1,0c-.16-.27.36-.61.5-.75-.66,0-1.38.32-2,0a2.67,2.67,0,0,1,3.41-1.55c.59.16.94.8,1.26,1.27s1.22,1.09,1.33,1.81M57.06,51c0,1.73-1.63,2.15-3,2.24a10.74,10.74,0,0,1,1.56-1.11c.44-.34.76-1.26,1.45-1.13m1.25.76A12.37,12.37,0,0,0,60,53.62c.56.41,1.61,1.1,2.35.95-.16,1-1.47,1.59-2.18,2.2-1.1,1-2.25,1.86-3.33,2.84s-2.11,2.08-3.11,3.19A32.83,32.83,0,0,1,50.87,66c-.85.73-1.9.27-2.68-.35-1.17-.93-3-1.91-3.63-3.31-.38-.78-.45-.9,0-1.64A10.51,10.51,0,0,1,47.36,58,29.41,29.41,0,0,1,51,55.16c1.34-.75,2.73-.38,4.13-.79a4.65,4.65,0,0,0,1.64-1c.57-.45.91-1.19,1.51-1.59m10.24,4.28c-1-.16-2.73-1.37-2.74-2.51.67,0,2.36-.33,2.95,0,.8.54.12,1.82-.21,2.46m36.24-2.37c.43.68,1.45.35,2,.62a3.11,3.11,0,0,1,1.69,1.4c.6-.77-.62-1.54-1.19-1.79a6.78,6.78,0,0,0-2.55-.23m15.23,4a6.11,6.11,0,0,1-2-.2c-.66-.23-1.28-.76-1.93-1-1.17-.53-2.82-.08-4.07,0,.14-.72,1-.87,1.62-1,1-.23,1.87-.94,2.89-.92,1.59,0,3.11,1.76,3.49,3.2M64.55,54.83c1.19.54,1.66,1.32.76,2.44-1.74,2.2-4,4.11-5.86,6.2-1,1.08-1.87,2.23-2.73,3.4-.71.95-1.37,2.25-2.47,2.8-.83.42-2.38-.46-2.85-1.14-.82-1.19,0-2.12.71-3.06a55.06,55.06,0,0,1,6.11-6.3c1.78-1.62,4-3.59,6.33-4.34m35.24.11c-.35,2.06-2.27,4.41-.77,6.5.54-.66,0-2.17.26-3a11.57,11.57,0,0,0,1-3.48,2.78,2.78,0,0,0-.5,0m-36.24.63a2.25,2.25,0,0,0,.25,1.25,1.18,1.18,0,0,0,.75-1.25h-1m53,1.68c-.75.64-4.25,1.36-4.5,0,1.49-.23,3.11-.91,4.5,0M69.79,58.34a17.11,17.11,0,0,1-2.5,2.75c-.92,1-1.69,2.08-2.51,3.15-1.74,2.27-3.3,4.6-4.9,7A2.42,2.42,0,0,1,57,72.42c-.95-.14-2.1-1.11-1.86-2.12a10.38,10.38,0,0,1,2-3.29c.9-1.24,2-2.31,3-3.46,1.82-2.1,3.58-4.47,5.88-6.08a1.7,1.7,0,0,1,2-.26,10.76,10.76,0,0,1,1.71,1.13m20.48,1.57c.61.12,1.24,1.17.37,1.4a10.07,10.07,0,0,1-3.9-.23A24.82,24.82,0,0,1,82.35,60c-1.2-.42-2.39-.85-3.61-1.21-.83-.25-2.25-.62-2.47-1.63a7.68,7.68,0,0,1,2.89.91,29.72,29.72,0,0,0,3.56,1.19c1.15.34,2.3.61,3.47.87.67.15,2.11,1,2.78.81a2.19,2.19,0,0,0,1.3-1m-29-1.35c.77.45,1.27-.27,1.25-1a1.12,1.12,0,0,0-1.25,1m5.5.77a1.29,1.29,0,0,0,1-1.25c-.72,0-1.44.47-1,1.25m7.5,0a1.91,1.91,0,0,1,2.56-.87c2.06.8,4.11,1.58,6.22,2.24a26.58,26.58,0,0,0,3.53.94,12.31,12.31,0,0,1,3,.58c.39.18.23,1.07-.15,1.25-.68.32-2.34-.13-3-.23a34.08,34.08,0,0,1-4.48-1,28.72,28.72,0,0,1-7.65-2.92M89,58.4l-.25.25c.08-.08.17-.16.25-.25m-18.24.85a32.14,32.14,0,0,1,3.48,1.48c.85.36,1.95.7,2.08,1.77a4.59,4.59,0,0,1-.66,2.38c-.48,1-.88,2.14-1.26,3.23a61.66,61.66,0,0,0-1.94,6.95,2.25,2.25,0,0,1-2.22,2c-1.58.24-3.43-.39-5-.77a10.67,10.67,0,0,1-4.22-1.85c-.42-.34-1-.65-1.19-1.15s.13-1.19.3-1.71a11.68,11.68,0,0,1,2.06-3C63.18,67.33,64,66,65,64.79c1.56-2.09,3.32-4.57,5.84-5.54m40,.23c.25,1,1.7,1,2.53,1,1.33-.06,2.48-.35,3.53.75a3.13,3.13,0,0,1,.68,2c1.33-1-.36-3.43-1.64-3.59a10.38,10.38,0,0,0-2.23,0,27.45,27.45,0,0,1-2.87-.19m-52,1.57c.77.45,1.28-.27,1.25-1a1.28,1.28,0,0,0-1.25,1M64,62.32c.42-.06.69-.16.85-.55s.44-.71,0-.95-.85.16-.95.41A1.2,1.2,0,0,0,64,62.32m34.48.37a7.43,7.43,0,0,1-4.25,1,3.21,3.21,0,0,1,1.89-2.16c.75-.21,1-.42,1.58.06a2.91,2.91,0,0,1,.78,1.11m10.26-1c-.87.11-.65,1.4.16,1.15.36-.11.51-.55.88-.28a4.37,4.37,0,0,1,.83.94,21.63,21.63,0,0,1,1.65,2.74,12,12,0,0,1,1.66,4.46c0,.86-.49,2.51-1.71,2-.67-.25-.94-1.21-1.14-1.82-.37-1.11-.82-2.18-1.28-3.25-.55-1.28-1.12-2.55-1.68-3.83-.41-.92-1.21-1.87-1.1-2.94.67.08,1.36.1,1.73.78m2-.24c1.89,1.94,4.55,4.7,5,7.52-.72-.36-.84-1.22-1.29-1.81s-1.24-.65-1.63-1.45a14.62,14.62,0,0,0-1.36-2.41c-.29-.4-1.07-1.3-.69-1.85M15.2,160.36c-1.78-.95-3-3.34-3.41-5.26-.46-2.21,0-4.61,0-6.85l0-8.39.06-16,.06-16c0-4.74-.82-10,1.1-14.52a20,20,0,0,1,3.12-5.71,25.35,25.35,0,0,1,3.15-3c.79-.63,2.7-1.43,3.07-2.4.23-.63-.15-1.37-.25-2A16.89,16.89,0,0,1,22,77.64a10.05,10.05,0,0,1,2.56-6.07,34.89,34.89,0,0,1,5.82-5.64c2.14-1.63,4.82-3.48,7.48-4.07,1-.22,1.79,1,2.31,1.78a1.56,1.56,0,0,1,.4,1.51,7.61,7.61,0,0,1-1.64,2.24c-.69.8-1.36,1.61-2,2.44-1.3,1.65-2.62,3.28-3.9,4.94-2.64,3.43-5,7.08-7.43,10.66-4.67,6.9-8.78,15.05-9.91,23.39-.26,1.95-.74,3.87-1,5.83a36.22,36.22,0,0,0-.16,6.42c.22,4.4.34,8.83.28,13.23,0,2-.6,3.91-.6,5.91,0,2.27-.27,4.51-.12,6.79s.19,4.25.31,6.38c.13,2.36.76,4.64.82,7M93.27,61.67a2.62,2.62,0,0,1-.45,1.52c-.19.34-1.11.36-1.43.11s-.4-1.2.17-1.06a5,5,0,0,1,1.21.69,2.34,2.34,0,0,1,.5-1.26m21.49.57a.91.91,0,0,1-1,0,.91.91,0,0,1,1,0m-34.5.63a28.84,28.84,0,0,1-1.11,6.45c-.55,2.16-.84,4.41-1.44,6.54-.3,1-.63,2.15-1.9,2.11A6.64,6.64,0,0,1,74,77.79c-.23-.07-1.13-.79-1.13-1-.08-2.63,1-5.48,1.91-7.94.44-1.23,1-2.42,1.39-3.65.31-.87.41-2.23,1.26-2.76s2.06.31,2.8.43m23-.67a3.49,3.49,0,0,0,1.24,1.5,4.61,4.61,0,0,1-.24-1.5A8.62,8.62,0,0,1,106,65c.36.89.64,2.16,1.54,2.69a27.15,27.15,0,0,1-1.24-3.25,4.2,4.2,0,0,1,1.45,2.18A17.56,17.56,0,0,1,109,69.72a.65.65,0,0,0,.25-.75c.87.49,1.08,1.75,1.37,2.63s.81,2.1,0,3a5.61,5.61,0,0,1-2.75,1.83c-.83.24-2.35.71-3.2.31-1.36-.64-1.25-3.84-1.41-5a57.43,57.43,0,0,0-2-8.25.82.82,0,0,1,.75.75,2.48,2.48,0,0,0,0-1.5c.8.48,1,1.52,1.74,2-.08-.69-.89-1.85-.48-2.49M56.52,63.79a1.1,1.1,0,0,0,1.25-1.25,1.12,1.12,0,0,0-1.25,1.25m25-.28c.88,0,2.38,0,2.84,1a3.93,3.93,0,0,1,0,2.4c-.2,1.13-.18,2.29-.36,3.42-.38,2.33-.42,4.71-.81,7-.23,1.39-1.09,1.55-2.29,1.67-.87.09-2.46-.2-2.78-1.14s.14-2.27.35-3.27c.31-1.53.59-3.07.95-4.58s.77-2.74,1-4.14c.13-.76.27-2,1.09-2.37m19-.07A68,68,0,0,1,103.42,76c.15,1.19-.88,1.74-1.92,1.84a2.57,2.57,0,0,1-1.75-.23c-.5-.24-.44-1.17-.55-1.62-.27-1.11-.29-2.29-.49-3.42-.4-2.28-.8-4.58-1.1-6.88a1.38,1.38,0,0,1,.88-1.66,5.25,5.25,0,0,1,2-.64m16.23,3.06c-.53-.29-1-.7-1.5-1A4.91,4.91,0,0,1,116,67a6.1,6.1,0,0,1-2.24-3.51,1.87,1.87,0,0,1,1.79.86,4.13,4.13,0,0,1,1.2,2.16M61.52,65.06a1,1,0,0,0,.76-1.5c-.71.21-.72.88-.76,1.5M78,65.12c.75.14.75-.67.75-1.25A.82.82,0,0,0,78,65.12m31.74-.89a.94.94,0,0,0,.75,1.5,1.63,1.63,0,0,0-.75-1.5m-24,.28c2,0,4.62-.08,6.54.63,1.13.43,1,3.91,1.11,4.84.21,2.55.77,5.67.1,8.17-.27,1-1.92,1.28-2.77,1.49a10.16,10.16,0,0,1-3.21.09c-1.46-.15-3.57.07-3.78-1.79A19.5,19.5,0,0,1,84,74.8c.07-1.34.33-2.66.44-4s.26-2.54.43-3.81c.09-.73.16-2.09.92-2.48m7.75.41c.95.2,2.15-.67,3.09,0,1.13.8,1.12,4,1.28,5.15s.28,2.43.43,3.64a10.91,10.91,0,0,1,.23,3.9c-.14.57-.4.66-.94.79a3.47,3.47,0,0,1-1.68.25c-.45-.15-1.13-.19-1.29-.69-.68-2-.33-4.16-.5-6.27s-.55-4.51-.62-6.78m14.24-.2a2.63,2.63,0,0,1,.25,1,.89.89,0,0,1-.25-1M82,66.38c.85.16.74-.9.75-1.5-.87,0-1,.81-.75,1.5m16.75-1.44a1.06,1.06,0,0,0,1,1,1,1,0,0,0-1-1m-4,.74c0,.29.09,1.75.75,1.25s-.25-1.27-.75-1.25m-53.23.26a6.23,6.23,0,0,1,3.26,3.36c.27,1-2.2,2.95-2.81,3.68a50.84,50.84,0,0,0-3.4,4.59,94.1,94.1,0,0,0-5.69,9.89,32.18,32.18,0,0,0-3,10.56c-.24,1.83-.55,3.63-.74,5.47-.09.88-.1,3.9-1.09,4.34s-11,1.67-11.15-.23A14.3,14.3,0,0,1,18,102.21,54.5,54.5,0,0,1,20,96.65,93.84,93.84,0,0,1,26.32,85.5c2.26-3.58,4.7-7,7.29-10.35q2-2.55,4-5.08c1.12-1.45,2.16-3.41,3.94-4.14m13,1.09c.09-.3.17-.6.23-.9s-.55-.3-.73-.2c-.69.37-.08,1.09.5,1.1m4.75.52c.38,0,1.68-.56,1.19-1.06s-1.19.55-1.19,1.06M77,67.86c.71,0,1-.61,1-1.25a1.06,1.06,0,0,0-1,1.25m33.74-1.13a1.45,1.45,0,0,0,.23.95c.07.12.69.78.79.5a1.06,1.06,0,0,0-1-1.45m3,.26-.25.25c.08-.08.17-.16.25-.25m-14,.45c-.2.35-.25,2.06.49,1.5.18-.13.17-.68.14-.86-.07-.47-.07-.76-.63-.64m-18.24.19c0,.15,0,2.06.75,1.25.17-.17,0-.72,0-.92,0-.49-.37-.33-.76-.33m13.74.3A.81.81,0,0,0,96,69.18c0-.57,0-1.39-.75-1.25m19,.06a9.06,9.06,0,0,1,.49,1.5c-.39-.3-.79-1-.49-1.5m-57,1.3c0,.29.09,1.75.75,1.25s-.25-1.26-.75-1.25M76.5,70.86c.61-.53.78-.82.06-1.29-.18-.12-.39.29-.4.44a1.19,1.19,0,0,0,.34.85M112,69.48a1,1,0,0,0-.08.82c.09.18.5.85.82.69.66-.33-.32-1.45-.74-1.51m-11.75.46c-.3.54-.2,1.37.5,1.5a1.75,1.75,0,0,0-.5-1.5m-61,17.28c1.8,0,2.58-3,3.23-4.26a36.73,36.73,0,0,1,4.19-6.16c.48-.57,1.76-2.4,2.6-1.64,1.18,1.07,1.41,3.29,1.67,4.76a14.68,14.68,0,0,1,.32,2.88c0,1.47-.16,1.1-1.42,1.5a21.62,21.62,0,0,0-9.73,6.94A26,26,0,0,0,36,98.42c-1,2.64-1.08,5.47-2,8.11-.26.77-2.14,1.09-2.86,1.16a13.53,13.53,0,0,1-1.56,0c-.63,0,.59-7.62.67-8.34a39.71,39.71,0,0,1,2.83-11,69.6,69.6,0,0,1,5-9.11A42.28,42.28,0,0,1,45,70.57c1-1,1.88.15,2.5,1a4.2,4.2,0,0,1,1.07,2.08c0,1-1.54,1.92-2.12,2.57-1.09,1.21-2.09,2.54-3.08,3.84s-1.78,2.61-2.72,3.88c-.55.75-1.64,2.32-1.42,3.32M81.5,70.38a1.4,1.4,0,0,0-.26,1.75,1.18,1.18,0,0,0,.26-1.75m13.74.55c.08.3.17.6.23.91s.58,0,.66-.2.33-.79.11-1-.87.17-1,.25M75.48,73.86c.72.14,1.36-1.29.61-1.39s-.89.87-.61,1.39m25.25-.92a1.75,1.75,0,0,0,0,1.5c.57-.26.94-1.72,0-1.5m-5,.24a9.1,9.1,0,0,0,.08,1c.06.52.66.74.77.11a.9.9,0,0,0-.85-1.16m-15,.45a1.75,1.75,0,0,0,0,1.5c.53-.3,1-1.74,0-1.5m-6,3.23a1.6,1.6,0,0,0,.76-1.5,1,1,0,0,0-.76,1.5m26.5-1.16c-.44.58-.42,1.5.49,1.5a1.71,1.71,0,0,0-.49-1.5m-5,.23c-.2.35-.26,2,.5,1.5.5-.35.24-1.63-.5-1.5M80,76.61v1c1.2-.18,1.2-.81,0-1M75.7,83.24c1.75-.46,1.33,3.86,1.27,4.7-.09,1.29,0,2.58-.14,3.86-.06.79.19,3.19-.63,3.61-1.85.92-1.57-2.55-1.5-3.46a26.19,26.19,0,0,0,.22-2.8c0-1.76-.38-3.7.4-5.35a1.14,1.14,0,0,1,.38-.56m6,2.38c0-.52-.5-1.46.15-1.65.86-.27,1.36.49,1.73,1.12a13.8,13.8,0,0,1,1.26,3c.28.82-1.47,1.75-1.19,2.75s1.84,3.21.84,4.15a2.8,2.8,0,0,1-2.07.68c-.09-.63.52-1.29.26-1.91a6.74,6.74,0,0,0-1.24-1.85c.21.61.8,1.35.79,2a2.08,2.08,0,0,1-1.51,1.63,5,5,0,0,1-2.51-.15c-.83-.23-.78-1-.78-1.79,0-3.32.27-6.62.29-10,1.6,0,3.58,0,4,2m3.72,10c.14-.45.37-.84.5-1.3.24-.9-1-2.26-1.32-3s.78-2.26,1.16-3c.29-.6-.8-2.3-1-2.88s-.57-1.19,0-1.32a8.26,8.26,0,0,1,2.53,0c.64.06,1.66-.08,2.17.41s.24,1.63.24,2.23c0,1.43,0,2.86,0,4.29,0,.77.54,4.71-.83,4.81a10.46,10.46,0,0,1-3.45-.21M90.94,84c1.55-.16,1.07,4,1,4.77-.07,1.36,0,2.72-.06,4.08,0,.72.6,2.95-.43,3.18-2,.46-1.36-4.75-1.32-5.76s-.69-6.21.78-6.27m10.75.66c0,.5,0,1,0,1.5a1.23,1.23,0,0,1,0-1.5m-50.23.07a6.37,6.37,0,0,1,.13,1.63c0,.49-.89.79-1.26.92a29,29,0,0,0-3.1,1.43,19.63,19.63,0,0,0-5.15,4.15c-3,3.12-4.29,7.88-5,12a17,17,0,0,0,.7,8.37,20.86,20.86,0,0,0,1.75,3.85c.53.91,1.85,1.83,1.76,3s-1,1.61-2,.84c-4.32-3.27-5.11-10.23-4.36-15.16.83-5.49,2.49-10.64,6.31-14.8a20.72,20.72,0,0,1,4.7-4c1.68-1,3.5-2.23,5.53-2.23m30.48.86a16.2,16.2,0,0,1,.46,1.79c0,.53-.61,1.07-.91,1.45-.74.94-1.48,2.24-.07,3a2.47,2.47,0,0,1-.07-1.65,13.92,13.92,0,0,1,1.1-1.65,2.2,2.2,0,0,0-.51-2.94M42.09,118.47c-1.89-.4-3.23-3.25-3.72-4.89a16.88,16.88,0,0,1-1-6.17,28.13,28.13,0,0,1,4.08-12.79c1.87-2.86,5.35-5.92,8.79-6.63.4-.08,1.38-.19,1.33.52,0,1-2.71,1.71-3.43,2.13a19.38,19.38,0,0,0-9.28,17.22c0,2.84,1.44,5.88,3,8.2a2.31,2.31,0,0,1,.23,2.4m59.58-30c0,.75,0,1.5,0,2.25a2.23,2.23,0,0,1,0-2.25m-50,2.07A14.54,14.54,0,0,1,51.42,97c-.08.34-.35,1-.76,1.06l-1.85.08a5.74,5.74,0,0,0-2.89,1.41,5.43,5.43,0,0,0-1.62,5.84,17,17,0,0,0,1.83,3c.69,1-.36,2.41-.74,3.29-.28.66-1.14,3.61-2.06,3.59-.45,0-.63-.65-.71-1a3.94,3.94,0,0,1,.42-3.06c.58-.83,1.54-1.79,1.06-2.89a5.76,5.76,0,0,1-2.51,1.88,1.52,1.52,0,0,1-1.89-1.63c0-.42,0-1.29.24-1.61a23.66,23.66,0,0,1,2.63-2.17c.11-.09-.06-.6-.08-.74s-.6-.28-.76-.32c-1.34-.36-1.38-1.56-1.19-2.73.07-.39.2-1,.57-1.23,1-.59,1.32-1,2.48-.61.86.28,1.48.22,1-.84-.25-.59-1-2.69-.31-3.27s2.18-2.22,3.14-.77c.3.45.1,1.06.27,1.56.28.79.37,1.15,1.15,1.5.16-1.32-.15-2.67.24-3.94a4.36,4.36,0,0,1,2.58-2.83m-1.29,9a6.18,6.18,0,0,0-2.75.58,3.84,3.84,0,0,0-1.78,2,5.4,5.4,0,0,0,.09,3.06c.27.79,1.17,1.41,1.17,2.31-1.14.17-2-1.38-2.26-2.31a6.07,6.07,0,0,1,.23-3.65,4.51,4.51,0,0,1,2.35-2.3c.75-.25,2.7-1,2.95.28m-.5,1a8.39,8.39,0,0,1-1.95,4.84c-.12.11-.41.51-.62.38s-.67-.32-.73-.51a3.27,3.27,0,0,1,.19-3.31,3.21,3.21,0,0,1,3.11-1.4m3.5,1a1.79,1.79,0,0,0,.74,2.25c.2-.69,1-2,1.74-2a4.56,4.56,0,0,1,3.38.87c2.41,1.65,4.7,3.44,7.16,5,1.13.73,2.27,1.46,3.45,2.1a30.75,30.75,0,0,1,3.47,1.67c1,.75.28,1.76-.16,2.67a4.16,4.16,0,0,0-.33.75c-.31-.37-.41-.94-.69-1.36-.4-.59-1,.47-1.07.85s-.37,1.5-.15,1.8.31.65.66.58a2.17,2.17,0,0,0,1-.37c0,.69,0,1.38,0,2.06,0,.89.13,1.35-.92,1.08-2.8-.73-5.46-2.56-7.78-4.22-2.49-1.79-5-3.57-7.35-5.54q-1.77-1.48-3.39-3.14c-.87-.88-2.51-2.13-2.82-3.39a1,1,0,0,1,.11-1c.1-.16.52-1,.71-1a4.93,4.93,0,0,1,2.23.37m36,7.88c0,.71.06.71-.61.82a26.82,26.82,0,0,1-6.2-.14,27,27,0,0,1-6.11-1.14,41.58,41.58,0,0,1-11.28-5.46c-.75-.52-1.83-1.21-2-2.17l1.72.19c.56.07,1,.7,1.44,1,1,.71,1.95,1.43,3,2.07a38.75,38.75,0,0,0,6.32,3.06,39.67,39.67,0,0,0,6.88,1.76,23.22,23.22,0,0,0,3.43.28c1.18.06,2.28-.28,3.45-.28m-12.75.95a4.43,4.43,0,0,1-4.49-.37c-2.35-1.32-4.72-2.52-7-4-1.74-1.12-4.49-2.26-5.48-4.19,1.31-.62,2.42.25,3.42,1,1.4,1.08,2.95,2,4.44,2.94a40.92,40.92,0,0,0,4.88,2.52c.81.38,1.63.73,2.46,1.07.63.25,1.41.34,1.77,1M58.87,108a2.87,2.87,0,0,0-.11-2.38c-.35-.6-.44-.85-1.08-1.1a3.2,3.2,0,0,0-1.54,0c-.29,0-.47.86-.42,1.14a3.56,3.56,0,0,0,.55,1.37c.51.8,1.74.83,2.6,1m2.25-1.24c-.31.6-1.53,4,0,3.83.63,0,1-1.32,1-1.83,0-.95.19-1.84-1-2m-27.77,1.27c.46,0,.74.73.68,1.13s-.75.82-1.18.95A40.38,40.38,0,0,1,25,111.58a31.09,31.09,0,0,1-8.12,0c-.76-.14-.72-.54-.91-1.21a2.82,2.82,0,0,1,.79-1.28,13,13,0,0,1,3.47,0c1.59,0,3.19.07,4.77-.07,1.3-.12,2.61-.13,3.9-.34a35.71,35.71,0,0,1,4.47-.67m30.51.49a5.08,5.08,0,0,0-.81,2.15c-.07.51-.06,2.5.85,1.89,1.11-.73,1.72-3.81,0-4M38.48,150.7a58.6,58.6,0,0,1,2.58-9.35c1.13-3.38,2.18-6.77,3.39-10.12,2.41-6.65,4.84-13.29,7.21-19.94.22-.62.45-.82,1-.66,1.62.42,3,2.15,4.25,3.17.94.75,2.79,1.73,3.08,3,.35,1.51-1.08,3.93-1.58,5.32-.88,2.44-1.69,4.9-2.52,7.36s-1.38,4.82-2.09,7.22c-.36,1.23-.68,2.47-1,3.72a15.58,15.58,0,0,1-.91,3.6c-.44.82-1.83,1.14-2.62,1.47-1.37.57-2.76,1.12-4.09,1.78a37.33,37.33,0,0,0-3.35,1.83c-1,.64-2.13,1.59-3.41,1.62M65.6,112.05c-.16.75.65,1.82,1.18,2.27a1.52,1.52,0,0,0,1.23.4c.25,0,1.38.07,1.58-.16s-.14-1.13-.24-1.37a2.23,2.23,0,0,0-.93-1.08c-.8-.52-2-.17-2.82-.06m-33,.14c-.15,1.59,2.13,2.19,1.78,3.51-.17.65-.66,1.2-.51,1.91,0,.14.29.95.21,1.08s-.9.09-1.08,0c-1.46-.5.2-3.12-.48-4a7.85,7.85,0,0,1-1.12-1.55c-.35-.71.63-1,1.2-1m46,.16c-1.13.64-2.59,2.07-2.6,3.51,0,.9,0,1.81,0,2.71s.71,1.51,1.13,2.16c.94,1.42,2.64,1.21,4,1.88.54.27.43.25.77-.2a17.06,17.06,0,0,0,1.73-2.79,14,14,0,0,1-1.6.18c-.52,0-.87-.79-1-1.19a9.92,9.92,0,0,1-.38-3.25c-.75.44-1.4,1.25-2.26,1.49a3.87,3.87,0,0,1,0-2.56c.22-.51.73-1.42.25-1.94m4.5.51c-1.58.81-.37,3,1.22,2.65,1.75-.41.44-3.54-1.22-2.65M31.6,115.68c-.38.65-1.1,1.13-1.39,1.83-.19.45-.34.92-.49,1.38s-.06.86-.57.74a1.1,1.1,0,0,1-.84-1.52c.32-.73,1.18-1.43,1.29-2.19a3.58,3.58,0,0,1-2.46-.88c-.75-.62-.15-1.76.63-2s.94,1.33,1.39,1.74a4.93,4.93,0,0,0,2.44.87m-5.75,1c0,1.14-2,3-3.06,3.39a2.35,2.35,0,0,1-2.4-.54,5.34,5.34,0,0,1-1.83-1.83c-.53-.95,2.5-3,3.19-3.33.51-.25.61-.32,1.13-.11,1.21.48,1.83,1.81,3,2.42m-9-2.54c.56,1-.13,2.75-1.41,2.74-.15,0,.25-3,1.41-2.74m60.23,1.71c.14.53.43,1.4.95,1.67s1.33-.52,1.78.24c.32.54,1.79,3.19,1.07,3.58s-1.36,0-2-.2-1.08-.83-1.53-1.44a3.11,3.11,0,0,1-.75-2.1c0-.57,0-1.39.5-1.75m-10.78,7.22a3.4,3.4,0,0,1,0-2.25c1.4.46.91,2.21.61,3.25a23.36,23.36,0,0,0-1.15,6.24A11.69,11.69,0,0,0,67,126.61c.27-1.28.35-2.91,1.14-4,.3-.42,1-.38,1.5-.16,1,.45,2.22,1,1.95,2.25-.71,3.25-1.45,6.5-2.18,9.74-.35,1.55-.68,3.11-1.07,4.64-.22.84-.25,2.53-1,3.1a4.14,4.14,0,0,1-2.49.36c-1.35,0-2.64.11-4,.23s-2.79.28-4.18.52c-1.06.19-2.67.93-3.73.71.21-4.42,1.89-8.59,3.18-12.77.66-2.16,1.23-4.35,2-6.46s1.28-4.32,2.24-6.36c.45-1,1.06-.93,1.85-.46a14,14,0,0,1,1.87,1.28,3.41,3.41,0,0,1,1.16,1.5c.26.79.24,1.82,1,2.33m-49.22-2.18c-1-.15-2.18-1.56-1.81-2.56.22-.6,1.25.52,1.46.78a1.51,1.51,0,0,1,.35,1.78m19.24-1.09c.34,0,1.11.29,1.15.63.1.86.16.94-.61,1.34-2.84,1.46-6.46,1.7-9.55,2.26-1.78.33-3.59.46-5.39.67-.9.11-1.8.23-2.7.28s-2,.41-2.95,0-.82-.39-1-1.32C15,122,21.1,122.62,22,122.53a101.29,101.29,0,0,0,14.33-2.74m-10,1.38a3.1,3.1,0,0,1-2,.45c-.9,0-1.87.47-2.77.28.84-.8,3.75-1.28,4.75-.73m8.74,2c.81,1.52,0,4,0,5.61,0,2.22-.26,4.43-.27,6.65-1-.93-.39-3.39-.4-4.57,0-2.21.17-4.46.19-6.68-1,2-.53,4.42-.75,6.61-.27,2.61-.08,5.31-.54,7.89-.45-.55-.29-1.45-.25-2.1.06-.95,0-1.91,0-2.85s0-2.07,0-3.1a7.42,7.42,0,0,0,0-2.7,4.37,4.37,0,0,0-.54,2.73c0,1.35-.21,2.68-.24,4,0,2.58-.27,5.14-.27,7.73-.78-.95-.24-3.6-.23-4.73s0-2.06,0-3.09.41-2.22-.23-3.19A28.81,28.81,0,0,0,31,138c0,2.4-.27,4.79-.27,7.2-.53-.58-.3-1.64-.25-2.35a12.93,12.93,0,0,0-.23-3.4,9.93,9.93,0,0,0-.51,4c0,1.57,0,3.15,0,4.72-.91-1-.49-3.48-.48-4.75-.86,1.08-.63,2.78-.58,4.06.07,1.82-.2,3.63-.2,5.44-.66-.73-.26-2.23-.4-3.14,0-.34.16-2.16-.08-2.36-.7-.58-.51,2.88-.52,3.28,0,1.68,0,3.36,0,5a18.21,18.21,0,0,1-.76,4.32c-.37,1.5-.39,3.56-1.28,4.85a4.66,4.66,0,0,1-1.29-2.7c-.39-1.67-.75-3.36-1-5a34.51,34.51,0,0,1,0-10.25c.47-3.57,1.3-7.08,2-10.6q.55-2.61,1.07-5.22c.17-.87.34-1.75.5-2.62a12.94,12.94,0,0,1,.31-2.48c.43-1.14,1.42-1.31,2.5-1.51,1.85-.36,3.7-.79,5.52-1.3m1.5,0a35.49,35.49,0,0,1-.52,5.24,3.47,3.47,0,0,1-.24-2.54c.1-.56-.09-2.79.76-2.7m-10.26,2a47.71,47.71,0,0,1-.74,5.82,50.87,50.87,0,0,1-1.23,6.47,55.23,55.23,0,0,0-2.1,13.2c-.07,4.13,0,8.58,1.46,12.49.63,1.72,1.5,3.32,1.26,5.2s-.2,4.22-1.06,5.8c-1.5-.82-2.54-3-3.44-4.34a34.71,34.71,0,0,1-3.06-5.74A31,31,0,0,1,15,151.73c0-2.25-.38-4.5-.37-6.76s.15-4.68.3-7c.14-2.12.66-4.16.49-6.28-.08-1,.12-2.1.1-3.16,0-.39-.4-2.12.14-2.37,1.37-.62,3.26-.32,4.74-.48a54.87,54.87,0,0,1,5.87-.51m9.74,4c0,.67,0,1.33,0,2a1.9,1.9,0,0,1,0-2M58.44,158c-1.59,1.22-4.1.82-5.87,1.88s-4.07,2.58-4.41,4.84a8.77,8.77,0,0,0,2.72-.54,8.83,8.83,0,0,1,3.12,0c.51.07,1-.09,1.16-.64a16.92,16.92,0,0,0-3.18-.12,18,18,0,0,1-2.82.35,10.68,10.68,0,0,1,4.24-3.36,17.48,17.48,0,0,1,2.31-.79c.34-.08,2.16,0,2.29-.16a6.63,6.63,0,0,0,1.19-2.14c-1.15,0-1.87-1.19-2.43-2-.43-.65-.65-1.87.2-2,1.16-.19,2-1.11,3.18-1.42.89-.25,2.25-1.29,2.56.22a4.41,4.41,0,0,0,1-1.5,9.45,9.45,0,0,0-1.55-.45,2.36,2.36,0,0,0-1.41.35c-.73.34-1.56.45-2.27.83s-2.74,1.31-2.81,2.24a5,5,0,0,0,.43,1.81A3.79,3.79,0,0,0,58.44,158m2.77-5c0,.42,0,.83,0,1.25-.42-.07-.83-.18-1.25-.25a9.44,9.44,0,0,1,.24,1.75c-.56-.34-.92-.92-1.5-1.26-.16.72.65,1.69,1,2.25A8.3,8.3,0,0,0,61.94,153h-.73M54.43,164.5A8.22,8.22,0,0,1,51.17,166c.32.63,1.53,1.14,2.08.61s1.35-1.48,1.18-2.1m-16.75,3.19a4.43,4.43,0,0,1-1.51,3c-.29-.57.07-1.23.32-1.75s.48-1.38,1.19-1.24m3.49.76c-.13,1-1.22,1.53-1.87,2.11s-1.54,1.71-2.64,1.88A3.22,3.22,0,0,1,38,169.85c1-.73,1.83-1.41,3.14-1.4m-6.25,1.48c.7.54.71,2,.74,2.75a2.16,2.16,0,0,1-.74-2.75m7,2c-.74,1.22-2.72,1.4-4,1.49.35-1.66,2.68-2.19,4-1.49m.49,4.75c.46.77,1.74,1,2.47,1.41.48.28.54.42,1,0a3.71,3.71,0,0,0,.79-1.14c-1.5.37-2.76-.31-4.25-.27m2.24,3c-.95.75-2.24.34-3.25,1,.49.4,1.58.3,2.19.41s.51.1.76-.38c.15-.31.4-.68.3-1"/></svg>