<svg xmlns="http://www.w3.org/2000/svg" viewBox="0 0 169.01 246.33"><defs><style>.a,.d{fill:#fff;}.a,.b,.e{stroke:#000;}.a{stroke-width:2.5px;}.b,.e{fill:none;}.c,.f{fill:#e6180a;}.e{stroke-width:7.25px;}.f{isolation:isolate;font-size:40.98px;font-family:Arial-BoldMT, Arial;font-weight:700;}.g{fill:#e61408;}.h{fill:#f8c20f;}.i{fill:#1c1585;}</style></defs><title>dq</title><path class="a" d="M1.25,237.82a6.89,6.89,0,0,0,6.87,6.87H160.91a6.88,6.88,0,0,0,6.86-6.87V9.51a6.88,6.88,0,0,0-6.86-6.87H8.12A6.89,6.89,0,0,0,1.25,9.51Z"/><path class="b" d="M9.25,62.77V240.09"/><path class="b" d="M9.25,240.09H141.48"/><path class="b" d="M160.77,183.81V6.24"/><path class="b" d="M160.77,6.24H28.54"/><path class="c" d="M37.33,33.28H55.75c-2.1-.09-3.88-1.45-5.57-2.57A48.84,48.84,0,0,1,40,20.74c-1.31-1.93-2.68-4.1-2.72-6.51m18.43,19c-2.66.08-4.94,1.78-7,3.34a50.66,50.66,0,0,0-9.31,10.47c-1,1.61-2.09,3.31-2.15,5.24v-19m0,19c-.09-2.84-1.82-5.29-3.45-7.49a50.12,50.12,0,0,0-10.14-9.51c-1.47-.92-3-2-4.83-2.06H37.33m-18.43,0c2.66-.08,4.94-1.78,7-3.34a50.73,50.73,0,0,0,9.31-10.47c1-1.61,2.09-3.31,2.15-5.24v19"/><rect class="d" x="18.83" y="14.3" width="9.69" height="37.95"/><path class="c" d="M132.7,213.17H114.27c2.1.09,3.88,1.45,5.57,2.57a48.84,48.84,0,0,1,10.14,10c1.31,1.93,2.68,4.1,2.72,6.51m-18.43-19c2.66-.08,4.94-1.78,7-3.34a50.66,50.66,0,0,0,9.31-10.47c1-1.61,2.09-3.31,2.15-5.24v19m0-19c.09,2.84,1.82,5.29,3.45,7.49a50.12,50.12,0,0,0,10.14,9.51c1.47.92,3,2,4.83,2.06H132.7m18.43,0c-2.66.08-4.94,1.78-7,3.34A50.73,50.73,0,0,0,134.84,227c-1,1.61-2.09,3.31-2.15,5.24v-19"/><rect class="d" x="141.95" y="194.2" width="9.69" height="37.95"/><line class="e" x1="48.32" y1="180.14" x2="121.69" y2="66.19"/><circle class="d" cx="50.65" cy="177.01" r="2.2" transform="translate(-5.54 1.68) rotate(-1.8)"/><circle cx="50.65" cy="177.01" r="0.7" transform="translate(-5.54 1.68) rotate(-1.8)"/><circle class="d" cx="53.79" cy="172.13" r="2.2" transform="translate(-5.38 1.77) rotate(-1.8)"/><circle cx="53.79" cy="172.13" r="0.7" transform="translate(-5.38 1.77) rotate(-1.8)"/><circle class="d" cx="56.93" cy="167.25" r="2.2" transform="translate(-5.23 1.87) rotate(-1.8)"/><circle cx="56.93" cy="167.25" r="0.7" transform="translate(-5.23 1.87) rotate(-1.8)"/><circle class="d" cx="60.08" cy="162.37" r="2.2" transform="translate(-5.07 1.97) rotate(-1.8)"/><circle cx="60.08" cy="162.37" r="0.7" transform="translate(-5.07 1.97) rotate(-1.8)"/><circle class="d" cx="63.21" cy="157.49" r="2.2" transform="translate(-4.92 2.06) rotate(-1.8)"/><circle cx="63.21" cy="157.49" r="0.7" transform="translate(-4.92 2.06) rotate(-1.8)"/><circle class="d" cx="66.36" cy="152.6" r="2.2" transform="translate(-4.76 2.16) rotate(-1.8)"/><circle cx="66.36" cy="152.6" r="0.7" transform="translate(-4.76 2.16) rotate(-1.8)"/><circle class="d" cx="69.51" cy="147.72" r="2.2" transform="translate(-4.61 2.26) rotate(-1.8)"/><circle cx="69.51" cy="147.72" r="0.7" transform="translate(-4.61 2.26) rotate(-1.8)"/><circle class="d" cx="72.65" cy="142.84" r="2.2" transform="translate(-4.45 2.35) rotate(-1.8)"/><circle cx="72.65" cy="142.84" r="0.7" transform="translate(-4.45 2.35) rotate(-1.8)"/><circle class="d" cx="75.79" cy="137.96" r="2.2" transform="translate(-4.3 2.45) rotate(-1.8)"/><circle cx="75.79" cy="137.96" r="0.7" transform="translate(-4.3 2.45) rotate(-1.8)"/><circle class="d" cx="78.93" cy="133.08" r="2.2" transform="translate(-4.14 2.54) rotate(-1.8)"/><circle cx="78.93" cy="133.08" r="0.7" transform="translate(-4.14 2.54) rotate(-1.8)"/><circle class="d" cx="82.08" cy="128.2" r="2.2" transform="translate(-3.99 2.64) rotate(-1.8)"/><circle cx="82.08" cy="128.2" r="0.7" transform="translate(-3.99 2.64) rotate(-1.8)"/><circle class="d" cx="85.22" cy="123.32" r="2.2" transform="translate(-3.83 2.74) rotate(-1.8)"/><circle cx="85.22" cy="123.32" r="0.7" transform="translate(-3.83 2.74) rotate(-1.8)"/><circle class="d" cx="88.36" cy="118.44" r="2.2" transform="translate(-3.68 2.83) rotate(-1.8)"/><circle cx="88.36" cy="118.44" r="0.7" transform="translate(-3.68 2.83) rotate(-1.8)"/><circle class="d" cx="91.51" cy="113.55" r="2.2" transform="translate(-3.52 2.93) rotate(-1.8)"/><circle cx="91.51" cy="113.55" r="0.7" transform="translate(-3.52 2.93) rotate(-1.8)"/><circle class="d" cx="94.64" cy="108.67" r="2.2" transform="translate(-3.37 3.03) rotate(-1.8)"/><circle cx="94.64" cy="108.67" r="0.7" transform="translate(-3.37 3.03) rotate(-1.8)"/><circle class="d" cx="97.79" cy="103.79" r="2.2" transform="translate(-3.21 3.12) rotate(-1.8)"/><circle cx="97.79" cy="103.79" r="0.7" transform="translate(-3.21 3.12) rotate(-1.8)"/><circle class="d" cx="100.94" cy="98.91" r="2.2" transform="translate(-3.06 3.22) rotate(-1.8)"/><circle cx="100.94" cy="98.91" r="0.7" transform="translate(-3.06 3.22) rotate(-1.8)"/><circle class="d" cx="104.08" cy="94.03" r="2.2" transform="translate(-2.9 3.32) rotate(-1.8)"/><circle cx="104.08" cy="94.03" r="0.7" transform="translate(-2.9 3.32) rotate(-1.8)"/><circle class="d" cx="107.22" cy="89.15" r="2.2" transform="translate(-2.75 3.41) rotate(-1.8)"/><circle cx="107.22" cy="89.15" r="0.7" transform="translate(-2.75 3.41) rotate(-1.8)"/><circle class="d" cx="110.36" cy="84.27" r="2.2" transform="translate(-2.59 3.51) rotate(-1.8)"/><circle cx="110.36" cy="84.27" r="0.7" transform="translate(-2.59 3.51) rotate(-1.8)"/><circle class="d" cx="113.51" cy="79.38" r="2.2" transform="translate(-2.44 3.6) rotate(-1.8)"/><circle cx="113.51" cy="79.38" r="0.7" transform="translate(-2.44 3.6) rotate(-1.8)"/><circle class="d" cx="116.64" cy="74.5" r="2.2" transform="translate(-2.28 3.7) rotate(-1.8)"/><circle cx="116.64" cy="74.5" r="0.7" transform="translate(-2.28 3.7) rotate(-1.8)"/><circle class="d" cx="119.79" cy="69.62" r="2.2" transform="translate(-2.13 3.8) rotate(-1.8)"/><circle cx="119.79" cy="69.62" r="0.7" transform="translate(-2.13 3.8) rotate(-1.8)"/><text class="f" transform="translate(5.25 35.16) scale(0.56 1)">Q</text><text class="f" transform="translate(164.77 211.17) rotate(180) scale(0.56 1)">Q</text><path class="c" d="M14.89,52.77h7.68a4.81,4.81,0,0,1-2.32-1.07A20.35,20.35,0,0,1,16,47.55a5.18,5.18,0,0,1-1.13-2.71m7.68,7.94a5.28,5.28,0,0,0-2.9,1.39,21.11,21.11,0,0,0-3.88,4.36,4.69,4.69,0,0,0-.89,2.18V52.77m0,7.94a5.79,5.79,0,0,0-1.44-3.12,20.88,20.88,0,0,0-4.23-4,4.19,4.19,0,0,0-2-.86h7.68m-7.68,0a5.29,5.29,0,0,0,2.9-1.39A21.14,21.14,0,0,0,14,47a4.69,4.69,0,0,0,.89-2.18v7.94"/><path class="c" d="M155.12,193.56h-7.68a4.81,4.81,0,0,1,2.32,1.07,20.35,20.35,0,0,1,4.22,4.15,5.18,5.18,0,0,1,1.13,2.71m-7.68-7.94a5.28,5.28,0,0,0,2.9-1.39,21.11,21.11,0,0,0,3.88-4.36,4.69,4.69,0,0,0,.89-2.18v7.94m0-7.94a5.79,5.79,0,0,0,1.44,3.12,20.88,20.88,0,0,0,4.23,4,4.19,4.19,0,0,0,2,.86h-7.68m7.68,0a5.29,5.29,0,0,0-2.9,1.39,21.14,21.14,0,0,0-3.88,4.36,4.69,4.69,0,0,0-.89,2.18v-7.94"/><path class="g" d="M48.61,194.63l-6,.57-2.2,3.3-1.38,5.11c1.09,1.39,2.19,2.69,3.38,4l1.69-.26,2.18.43c1.38-.59,2.76-1.19,4.15-1.76l.67-2,1.31-.56.7-2-2.24-5.25-2.32-1.53"/><path class="h" d="M53.47,183.93l-4.23.55-2,1.7-1.43-.06L44,181.89l.06-4-.56-.66-1,0-.26,1.81.66,5.14-.48,2.39-1.73-1.35c-1.95-.85-3.91-1.66-5.88-2.46l-1.66,3.34,1.63,3.63,1.81,1,2.09.36a34.26,34.26,0,0,0,4.11-3.46l.77.16,1,5.55,1.92,1-1-6.76L49.68,191a45.71,45.71,0,0,0,5,1.07l1.76-1.28.24-1.61,1.59-2.23L58,184.67l-4.54-.74"/><path class="h" d="M114.63,219.94l-2.94.14-2.5-1.91-1.68,0-3.12,4.33A76.38,76.38,0,0,1,97,229l-4.91,2.31-5.95,1-.47,1.76.48,3.07c2.47,0,4.89-.33,7.35-.59l1.79,2.68L97,239,95.61,237l1.7-2.84,2.23-.3a11.34,11.34,0,0,1-.87,2.7l.89,1.09c1.53.54,3,1.08,4.5,1.77l1.72.28,1.06-3.49.12-4.44-.89-.49-2.44,1.4-1.19,0,1-3,2.68-2.18,4.73,3.57,1.06-.56-1.14-2.63-2.67-1.18.35-2.95,2.73-2.43.42,2.21,1.07.91,2.72-.17.37-1.39,2.17-.35,1.7-1.75-2.73.19-2.29-1"/><polyline class="i" points="141.98 152.16 142.53 153.12 142.92 153.25 143.31 153.69 144.86 153.94 145.89 151.66 144.44 151.43 143.43 151.5 141.98 152.16"/><path class="i" d="M136.9,162l-1.2.7a38.32,38.32,0,0,0-2.53,3l-.33,2.36.62,1.94,1.06-1.07-.09-.61-.29-.66.1-.64-.22-1.49,1.64-1.45.5-.14.24-.24.55,0,1.46-.39-.38-1-.28-.24-.88,0"/><path class="i" d="M123.28,140.17l1.51.46a156.25,156.25,0,0,0,20,1.47l-.17-2-2.91-5.92-2.41-3.33.06-.06-5.23-6.62-1.14-.66c-1.35-1.17-2.67-2.34-4-3.49l-1.74-.75-3.77-.91.88,3.48-1.3-.27-2.16-1.27-.16,1.18.61,3.28-2.62-1.19-.9-.09.42,3.28-1.67-.18.76,2.77.11.23,1.51,1.85,4.3,8.76"/><path class="i" d="M121.86,171l.32-2v-.36a10.25,10.25,0,0,0,.32-1.64,20.76,20.76,0,0,0,1-3.07l.51-.9.07-.19c.82-1.27,1.52-2.6,2.28-3.91l.57-.52.33-.5c1.29-1,2.49-2.08,3.71-3.19l.78-.37,0,0c1.23-.54,2.43-1.12,3.64-1.68l-.39-.85-.34-.07c-3,0-5.91-1.09-8.76-1.78-1.72-.63-3.51-1.1-5.26-1.63-2.57-1.42-5.23-2.74-7.71-4.3l-.56,1.22c0,8.32-.16,16.48.78,24.74l2.7,5.49c1,1.37,2.09,2.73,3.19,4.06l4.65-1.31c-.39-1.32-.89-2.58-1.38-3.86l-.44-3.3"/><path class="g" d="M133,123.49l2.11,1.23,2.63,3.76,1.32-.11c2.38-4,3.95-8.4,5.75-12.7l1.13-4.89a47.93,47.93,0,0,0-2.2-5.94A91.78,91.78,0,0,0,146,85.46l-1.13-3c-2.32-2-4.7-3.83-7.16-5.67-1.83,6.44-3.44,13.07-5.83,19.34-2.45,6.45-5.94,12.39-9.21,18.45q5.2,4.42,10.36,8.88"/><path class="g" d="M116,175.76c-1-2-1.93-3.93-2.9-5.9-.92-8.1-.72-16.06-1.06-24.2l-9.51-5.53-17.94-4.71-1.43,4c2.8,8.4,4.61,15.75,4.65,24.66l.66.09,6.13-.18,3.49-1,.06.06h0l1.48,1a56.92,56.92,0,0,0,7.48,10.9,76.15,76.15,0,0,0,7.19,4.84l3.07.92,1.7-1.07c-1-1.26-2.07-2.52-3.11-3.8"/><path class="g" d="M111.18,139.73l.33-1.28.13-6.22,2.42-2.27,2.92-1.24a78.41,78.41,0,0,0-5-8.13l-1.31-1.25a8.14,8.14,0,0,0-1.92-.53l-.43-.32-.42-.15a15.46,15.46,0,0,0-2.17-1.76c-.37-.43-.74-.84-1.14-1.24s-.82-1-1.26-1.43l-.45-1-.54-.8a21.18,21.18,0,0,0-1.5-4l0-1.39-.37-1.38-15.91,25,0,.43,25.23,9h1.35"/><path class="g" d="M119,84.9l1.46-.07.35-5.42-.49-3.59-.7-.56-6.2,9.92a34,34,0,0,0,4.91-.51l.68.25"/><path class="g" d="M71.54,164.25,72.9,163c.91-5,1.8-9.94,2.38-15l-1-1.42c-3.65,5.26-7.11,10.64-10.56,16L67.07,164l2.58.31,1.89-.09"/><path class="h" d="M102,110.73c.46,1.06.9,2.13,1.35,3.19l2.39,2.67,3,2.23,2.25.46c.26-5.42.34-10.86,1.07-16.23a62.11,62.11,0,0,1,3.2-7.42l.48-3.21,1.58-3.07,3-2.56.49-1.24-2.44-.89-5.21,1C109,92,105.18,98.51,101,104.82l-.12,3.21,1.15,2.7"/><path class="h" d="M151.82,138.43l-6.93-5.71-4.84-2.63-.71.75,5.14,7.06c.13,1.45.25,2.92.38,4.37-7.2-.14-14.61,0-21.57-2.1L119,131.41l-2-2.48-3.5,1.76-1.77,2.74c.13,3.26,0,6.5.07,9.76,2.91,1.77,5.9,3.37,8.88,5a111.19,111.19,0,0,0,12.6,3.3c4.11.74,8.54.11,12.67-.17l3.14-3.89,3.38-6-.59-3.06"/><path class="h" d="M110.39,177.4l-3.17-2.46a90,90,0,0,1-7.83-10.79L98.12,163,94.42,164l-4.25.35-5.74-.78-2.34-.73-5.22,1.41-5.59.26-7.13-.85-.74,1.69.18.86-.13-.41-.89-1.34c-1.76,2-2.55,4.63-4.3,6.64L59.69,174a40.4,40.4,0,0,0,8.37,5.92l1.16-.59-.83-1.09c2.09,1.94,4.17,3.69,6.44,5.42l4.83,1.87,3.51-1.9,5.24-.67,4.55.24,2.89.63,3.6,1.43,3.33,2,13-5.58-.12-1.29-5.24-3"/><path class="h" d="M142.53,153.12l-2.39-.82-4.42.41-4,1.51-4.53,3.58L124,162.74l-1.53,4.16-.62,4,.44,3.3,1.13,3,1.62.81,4.07-2.5,2-1.76,2.47-3.34c-.26-.79-.5-1.58-.76-2.38.12-.83.23-1.65.35-2.48.82-1,1.62-1.95,2.51-2.85l1.2-.7c1,0,1.9,0,2.85,0,1.51-2.41,3-4.85,4.47-7.28l-1.31-1.46-.39-.13"/><path class="h" d="M136.18,163.95l-1.73,1.79-.3,1.94.56,1.31a24.86,24.86,0,0,0,3-3.87l.29-1.32-1.59-.09-.24.24"/><path d="M103.45,232.4a3.15,3.15,0,0,1,.89-2.95c.61-.67,2.1-1.58,3-.87s.38,1.76,1.49,2.25a9.32,9.32,0,0,0,3.58.81,5.21,5.21,0,0,0-.59-2.84,4.8,4.8,0,0,0-.8-1.17,8.85,8.85,0,0,0-2-.76c-1.71-.78.7-4.71,2.12-4.92a1.51,1.51,0,0,0,.14,1.74c.31.4,1.11,1.43,1.67,1.39.81,0,2.69,0,3.13-.92.15-.31.08-.83.48-.88a4.89,4.89,0,0,0,1.36-.2c1-.41,2.64-1.52,2.66-2.76,0-.33-1.77,0-2,0a6,6,0,0,1-3.44-.82c-.92-.44-2.12.33-3.14,0s-2.2-2.29-3.48-2.13c0-1.66,1.1-3.11,2.06-4.37,1.13-1.5,2.16-3.06,3.15-4.66,2.14-3.47,4-7.09,6.06-10.59s2.52-7.23,3.09-11.22c.27-1.89.9-3.71,1.31-5.56a4,4,0,0,1,2.29-3.22c3.38-1.44,5.95-4.95,8.16-7.76a112.16,112.16,0,0,0,6.82-10.1c2.16-3.45,4.19-7,6.45-10.36,1.15-1.71,2.32-3.41,3.39-5.17.89-1.44,2.21-3.08,1.51-4.85-.89-2.28-3.32-3.84-5.2-5.25-1.25-.93-2.55-1.78-3.88-2.6s-2.81-1.24-3.78-2.27.19-2.16.59-3c.73-1.49,1.41-3,2-4.55a57.08,57.08,0,0,0,3.3-8.95,7.38,7.38,0,0,0,0-4.2c-.44-1.24-1.91-2.9-1.73-4.28s.76-2.79,1.07-4.17a27.88,27.88,0,0,0,.73-5c.06-1.56.32-3.1.36-4.66s0-3.19-.08-4.8c-.16-3.24-2.33-4.66-4.63-6.59a97,97,0,0,0-8-5.9A57.05,57.05,0,0,0,125,68.12c-.58-.26-.61-.3-1,.25a10.92,10.92,0,0,0-1,1.52c-.25.54.43,1,.53,1.6a11.23,11.23,0,0,0,.63,3c.53-.24,2.38-2,2.82-1.43.79,1,.59,2.31.84,3.51,1-.17,1.8-1.27,2.76-1.66a15.28,15.28,0,0,1,.41,3.47c1.14-.16,1.89-1.21,3-1.41.13.92-.06,2.33.32,3.16.16.36.64.84,1,.41a1.81,1.81,0,0,1,1.14-.77c0,.48-.38,3.49-1.38,3.31a14.16,14.16,0,0,1-3.95-2c-1.43-.84-2.89-1.68-4.33-2.5-2.19-1.26-5.93-2.08-5.75-5.19a4.94,4.94,0,0,0-1.54,2.43c1-.39.69,2.08.72,2.5a21.43,21.43,0,0,1,.16,2.51c0,.89.39,2.09.11,2.92-.41,1.21-2.55.36-3.49.48-1.61.22-3,0-3.94,1.54,1-.25,7.37-2.09,7.32.32,0,1.83-2.83,1.4-3.89,1.43a11.27,11.27,0,0,0-2.91.54,13,13,0,0,1-1.34.41c-.31.06-.91-.16-1.12.17a9.87,9.87,0,0,0-1.17,2c2.73-1.2,4.87-2.59,8-2.51-1.16.94-2.71,1-4.11,1.24a10.47,10.47,0,0,0-3.9,2c-.35.24-.69.21-1,.54a9.14,9.14,0,0,0-.93,1.51,18,18,0,0,0-2,4.13c-.92,3.55-1.24,7.61.23,11.05a9.74,9.74,0,0,0,2.41,3.45c.77.69,2.36,1.85,1.91,3.09a15.13,15.13,0,0,1-5.6-7.7,14.92,14.92,0,0,1-.73-5.06c.06-1.26,1-2.77.83-4a5,5,0,0,0-1.33,1.95,4.91,4.91,0,0,0-.27,2.59,18.24,18.24,0,0,0,1.39,6.56,12,12,0,0,0,3.32,4.58c1.35,1.16,3.13,2.07,2.81,4.13-.07.43-1,.5-1.39.4-2.28-.76-4.68-3.23-5.93-5.23a18,18,0,0,1-2.49-8.87c-1.56,1.23-.48,3.77.06,5.25a14.84,14.84,0,0,1,1.13,3.8,15.74,15.74,0,0,1-.73,4.42c-.66,2.91-1.44,5.79-2.37,8.63-.42,1.3-1.61,7.08-3.67,6.76A3.82,3.82,0,0,1,94,132.9c-1.28-.78-.49-2.54-.25-3.69.43-2,.88-3.91,1.32-5.87.86-3.83.88-7.82,1.64-11.67-1.33.73-1.25,2.33-1.37,3.6-.17,1.9-.37,3.81-.72,5.69s-.53,3.6-.93,5.38-.67,3.88-1.72,5.32c-.61.83-2,.29-2.76,0-1.48-.48-3-.89-4.42-1.47-.45-.18-1.1,1.3-1.27,1.57a3.33,3.33,0,0,0-.32,2.95c.54,2.23-1.39,5.75-3.9,5.71a2.63,2.63,0,0,1-.87-.18c-.52-.21-.53.3-.8.73-.61,1-1.29,2-1.94,3a21.6,21.6,0,0,0-1.42,2.45c-.35.75.51,1.51.41,2.28A2.88,2.88,0,0,1,74,147c-1.47,1.21,0,3.25.22,4.7.2,1.15.53,3.22-.68,3.95.06-2.33-.59-4.42-.82-6.7-.75.58-.6,1.47-.46,2.3.24,1.33.41,2.68.52,4a53.81,53.81,0,0,1-.17,7.25c0,.08-.46.08-.49,0-.29-.3,0-1.3,0-1.66.12-1.11.07-2.27.1-3.38,0-1.44.08-4.94-1.84-5.4-.3.87.33,1.85.63,2.63a6.57,6.57,0,0,1,.35,2.55,25.29,25.29,0,0,1-.55,6.7c-1.42-.49-3-.21-4.43-.53-.17,0-2.61-1-2.74-.83s-1.59,2.14-1.18,2.44a1.57,1.57,0,0,1,.62,1.2c-.29-.15-1.15-.67-1.47-.53s-.66,1.1-.89,1.48a16.16,16.16,0,0,0-1.69,2.91,3.25,3.25,0,0,0,1.47.29c0-.8.27-3.29,1.65-2.09.45.39,1.11.85,1.18,1.5,0,.21-.76,2.42-.44,2.49.85.17,1.95-.61,2.36.58.06.18.67,1.87.24,1.86a2.49,2.49,0,0,0-1.64.46c.37.68,1.6,1.1,2.24,1.52.14.09,0,.9,0,1.08,0,.57-1.27-.08-1.48-.2a3.06,3.06,0,0,1-1.6-2.7c-.2-2.48-2.75-3.26-4.73-3.81-.6,2.23,1.51,3,2.4,4.81a17.27,17.27,0,0,1,.81,2.9,5.51,5.51,0,0,1,.48,2.53c-1.37-.2-2.39-1.43-3.43-2.22A31.51,31.51,0,0,0,55,176.43c0,.23-.31.6-.27.73s1.09.66,1.25.79c.63.51,1.3,1,2,1.45a24,24,0,0,1,3.85,3.06,7.51,7.51,0,0,1,1.67,3.73c.44,1.75.91,3.49,1.4,5.24,1,3.43,1.78,6.9,2.69,10.34.46,1.72.86,3.45,1.34,5.16.2.71.42,1.42.62,2.12.14.45.63,1,.49,1.46-.36,1.23-1.23,2.13-1.36,3.46A4.92,4.92,0,0,0,70,217.5c.87,1,.42,1.9.61,3.12s1.1,1.95,2.25,2.6,1.54,1.91,2.27,3a12.49,12.49,0,0,0,3.2,3,21.39,21.39,0,0,0,3.51,2c.52.23,3.29.84,3.31,1.57a18.9,18.9,0,0,0,.06,3.42c.13.61.21,2.18,1,2.14a5.53,5.53,0,0,0,1.72-.41,4,4,0,0,0,.47,1,4.65,4.65,0,0,1,3-1.45c.68,0,2.25,0,2.28,1,0,.5-.26,1,.32,1.19.82.24,1.65-.2,2.49-.07.62.09,1.47.29,1.82-.42-.77-.11-2.38-1.65-2.09-2.47.38-1.07,1.73-2.36,2.95-2.21-.2.52-.48,1-.7,1.52-.3.75.11,1,.6,1.58.81,1,1.88.84,2.95,1.18-.24.13-.48.73-.11.74a23.26,23.26,0,0,1,3.5.55c1.39.23,1.55-2.48,1.83-3.31a10.13,10.13,0,0,0,0-5c-.13-.6-1.51-.78-2-.76-.91.06-1.38.75-1.82,1.38m1.54,7c-.35-.79-1.15-.69-1.86-.56-.27,0-.49-1.74-.54-2-.63.3-1.29.93-2,.69-.32-.1-1.43-.39-1.4-.82s.47-1.92,1.15-1.91,1.31,1.13,1.79,1.48a4.9,4.9,0,0,0,2.68.86c.12,0,.19-.87.79-.72-.11-.78-1-.7-1.2-1.27s.71-1.44.79-2a1.31,1.31,0,0,0-.75.23,1.57,1.57,0,0,1,2.07-1.5c.68.29-.22,2.34-.76,2.5a15.31,15.31,0,0,1,.54,2.29c-.38,1,0,2.69-1.26,2.66m-9.39-.49c.33-.6.46-.6.74,0l-.74,0m-9.1-2c.5-.73,1.59-.63,2.37-.73a18.88,18.88,0,0,0,3.88-1.11,28.49,28.49,0,0,0,7.4-3.8,31.68,31.68,0,0,0,5.33-5.4c.89-1.09,1.75-2.2,2.64-3.29.58-.71,1.56-2.45,2.57-2.6.14,1-.94,1.82-1.5,2.51l-2.7,3.32A28.24,28.24,0,0,1,101,231.4c-4.42,3-9,5.46-14.53,5.49m7.68-.29c-.12-.65.49-.64,1-.71-.08.44-.48,1.65-1,.71m-6.91-.93c0-.77-.75-2.54,0-2.9a6.89,6.89,0,0,1,1.1-.29c.17,1.18-.72,1.61.17,2.73a3,3,0,0,1-1.25.46m15.13-1.09c.46.07,1.14.12,1,.77-.43-.1-.93-.28-1-.77M90,235a4.59,4.59,0,0,0,.29-1.47,1.77,1.77,0,0,1,.41,1c.11.64-.08.52-.69.49m-3.95-.35a.6.6,0,0,1,.75-.48,1.27,1.27,0,0,1-.75.48m14.13-.86a2,2,0,0,1,.77-1.1c.41-.29.68-.47,1,0,.59,1-1.11,1.32-1.72,1.11m-6.2.09c.18-.94-.51-1.61-.67-2.49.14,0,1-.31,1-.16a6.15,6.15,0,0,1,.65,2.14c0,.45-.57.45-1,.51m-4.92-1.13c.42-.61,1.39-.2,1,.52a5.18,5.18,0,0,1-1-.52m6.67.42a8.14,8.14,0,0,1-.22-1A2.83,2.83,0,0,0,97,232c.2.61-.8,1.1-1.28,1.21m1.76-.93c-.1-.79,2-1.49,2.53-2s.74-1,0-1.42-1.16.08-1.74.21a9.48,9.48,0,0,1,2.24-2.3c.39-.32,1.28-1.43,1.82-1.32s.69,1,1.46,1a1.76,1.76,0,0,1-.64,1c-.53.4-.54-.09-1-.39-.67-.43-1.5,1.3-.13,1.35a4.12,4.12,0,0,1-1.78,2.13c-.84.66-1.66,1.57-2.78,1.72M75,223.72c1.27.8,2.07,2.29,3.18,3.29A8.58,8.58,0,0,0,83,229.2a23.49,23.49,0,0,0,5.38-.48c2-.27,4-.58,6-1a11.27,11.27,0,0,0,4.63-2,20.27,20.27,0,0,0,3.48-4.44c1.06-1.54,2.11-3.08,3.25-4.56,1-1.29,2.39-2.76,2.44-4.48-1.47.22-1.87,2.39-3,3.14a11.18,11.18,0,0,1,1.6-4.69c.82-1.52.39-3.24.84-4.86,1-3.61,2.56-7.2,3.86-10.72a93.59,93.59,0,0,1,4.25-10.43c.72-1.4,1.14-3,2.51-3.93.18-.12,3.25-1.64,3.23-1.22,0,1.26-1.08,2.94-1.6,4.07-.75,1.63-1.65,3.18-2.42,4.8s-1.44,3.37-2.28,5a32.33,32.33,0,0,0-2.12,4.75c-.5,1.6-.28,3.42-.38,5.09a19,19,0,0,1-1.18,5.22,56.24,56.24,0,0,1-4.41,9.61c-3.35,5.64-8.79,11.1-15.23,13a15.12,15.12,0,0,1-10.45-.89c-2.33-1-6.52-3.48-6.39-6.48m21.35,7.49a2.22,2.22,0,0,0-1.23-.28,1.93,1.93,0,0,1,1.26-.71,1.23,1.23,0,0,1,0,1m14.36-.61c-.28-.48-.81-.8-1-1.3s-.4-1.28.34-1.15a1.44,1.44,0,0,1,1.16,1.16c.19.57.58,1.51-.45,1.29m-11.87-.32a1.51,1.51,0,0,1,.75-.48,1.23,1.23,0,0,1-.75.48m-2-.3a1.49,1.49,0,0,1,1-.71,1.44,1.44,0,0,1-1,.71M83.5,228.4c.17-.93.51-2.38,1.55-2.68a11.18,11.18,0,0,0-.31,2.22c.36-.44.51-1.17,1-1.43a4.2,4.2,0,0,1,2.23-.7A2.18,2.18,0,0,1,87.5,227c.73-.1,2.73-.86,2.9-1.62.33-1.47-1.65-.78-1.56-2.31,1.18.16,2.33.21,2.66,1.55a3.71,3.71,0,0,1-.8,2.3,4.09,4.09,0,0,1-2,1.09,13.54,13.54,0,0,1-2.74.45,4,4,0,0,1-2.49-.08M77.93,224a23.9,23.9,0,0,0,2.81,1.87,3.46,3.46,0,0,1,2,2.45c-1.21,0-2.45-1-3.47-1.56A2.75,2.75,0,0,1,77.93,224m23.65,3.84.26-.24a2.81,2.81,0,0,0-.26.24m5-.6a1.29,1.29,0,0,1,1-1.21l0,1.2a4.58,4.58,0,0,1-1,0m-14.09-.39c0-.6.36-1.57,1-1.7,0,.7-.23,1.6-1,1.7m-16-3.88c.94-.19.71,1.23.69,1.75-2.35-1.35-3.57-5.2-3.51-7.77.45-.06.84.2,1.29.18a6.3,6.3,0,0,0,1.87-.28A4.49,4.49,0,0,0,79,215.13c1.42-2,.68-4.73.23-6.94-.13-.6-1.31-6.16-.12-6.16a3.3,3.3,0,0,1,1.87.74,3.51,3.51,0,0,0,2.64.37l0,1.24c.53-.33.94-1.35.44-1.85s-1.36-.39-2.11-.51-1.36-.71-2.09-.52c-.91.24-1.58.31-1.67,1.35-.24,2.87.92,5.63.79,8.48,0,.27-.75.11-1,.11.22-.9.17-1.49-.69-2a8.14,8.14,0,0,1,.22,1,3.38,3.38,0,0,0-1.69.18c-.48.26-.73.92-1.32,1a11.18,11.18,0,0,1,.31-2.22,2.63,2.63,0,0,1-1,.22c-.57-4.8,1-9.72,3.32-13.88,1.85-3.29,5-6.42,9.06-5.69a21,21,0,0,1,6.27,2.76c1.95,1.08,3.16,3,4.95,4.31a20,20,0,0,0-6.65-5.82c-2.85-1.51-5.54-2.36-8.73-1.58-1,.25-1-3.66-.77-4.21.56-1.41,2.44-1.64,3.74-1.88a27.94,27.94,0,0,1,5.53-.32c3.49.1,7.8.86,10.44,3.33,1,.9-.16,3.26-.42,4.29a53.92,53.92,0,0,0-1.07,5.29,3.07,3.07,0,0,1-.71,2c-.35.35-.94.92-.9,1.47a43.93,43.93,0,0,1-.17,6.15c.66.17.67-.94,1-1.4s4.32,4.76,2.15,4.44a8.56,8.56,0,0,1,.22,1c-1-.25-.78-1.78-1.67-2.27.19.92-1.23.71-1.75.69.1.88.6,1.76.41,2.66a16.78,16.78,0,0,1-1.8,3.5c-1,2,.63,4.12.58,6.19a3.31,3.31,0,0,0-2.64.54,5.27,5.27,0,0,0-1.43,1.92c-.25.42-.13.37-.6.27-1-.2-2-1-3-.8-.77.17-1,1.1-1.57,1.46s-1.65.36-2.4.74a12.94,12.94,0,0,1-2,1.12c-.79.24-1.75-.44-2.31-.94s0-2.32-1.26-2.62a2.94,2.94,0,0,0-3.09.72m19.48,3c-.33-.71-.42-1.6-1.19-2l0,1.24a3,3,0,0,1-.6-1.56c0-.14-.3-1.44-.27-1.48a1.81,1.81,0,0,1,1.72-.89c-.17.53-.87.87-1.27,1.21.87-.17,1.58.77,1.69,1.52,3.88-.94,2-6.71,2.65-9.28.45-1.82,2.66-2.4,3.42-4.08a3.22,3.22,0,0,0,.26-2.83A9.26,9.26,0,0,1,101.1,205c-.13-1,.34-2.37,1.65-2.12-.26,2.33,1.25,4.34.54,6.69a10,10,0,0,1-1.6,3.12c-.59.8-1.69,1.5-2.07,2.42-.82,2,.08,4.31-.42,6.41-.4,1.62-1.35,4.23-3.27,4.45m7.69-.53c.25-.47.45-.88,1-1,0,.25-.13.49-.2.73s-.45.24-.82.23m-24.45-1.88c0-.25.14-.87.5-.48s-.26.54-.5.48m33.88.64c0-.15.13-.9,0-1s-1,0-1.24,0c0-1,.57-1.44,1-2.2.23.39-.1.88-.28,1.23,1,.07,1-.08,1,1a6.93,6.93,0,0,1,1.74-.21c0,1.18-1.43,1.09-2.27,1.18m-8.63-1c.24-1.25,1.46-.48,2.24-.44-.07,1.52-1.41.64-2.24.44m-5,.12a10.15,10.15,0,0,1,.81-2.7c.25.17.48.37.73.51.42-1.78,0-3.38.14-5.17.07-1.37.49-3,1.82-3.7a5.7,5.7,0,0,1-.08,2c-.22.57-.6,1.07-.82,1.65-.36,1-.5,2.36.48,3-.28-1.52.06-3.61,1.6-4.41a9.08,9.08,0,0,1-1.38,5c-.52.76-1.11,1.48-1.63,2.25-.42.6-.86,1.48-1.67,1.58m-27.92-1.72a2.36,2.36,0,0,0,.52-1.23,3.33,3.33,0,0,1,2.15,1.94c.11.35-.78.24-.91.23a3.15,3.15,0,0,1-1.76-.94m25.71.93a15.08,15.08,0,0,0,.23-3.46c-.18-1.15-.86-2.18-.77-3.36a8.35,8.35,0,0,1,1.41-3.17c.43-.8.54-2.21,1.21-2.83,1.76,1.76-2,4.19-1.83,6,.15,1.4.26,2.79.39,4.2.07.84.25,2.08-.62,2.6m18.58-.51a5.06,5.06,0,0,1,2.74-.67,2.37,2.37,0,0,1-2.74.67m-8.15-.46c-.47-.38-1-.69-1.45-1,.27-.46,1.09-1.42,1.7-1a2.14,2.14,0,0,1,.4,1.07,1.45,1.45,0,0,1-.64.91m6.2-.58a.76.76,0,0,1,1-.22.78.78,0,0,1-1,.22m-5.15-2.12c-.17-.76.29-.44.49,0a2.07,2.07,0,0,1-.49,0M71.66,217.7a3.22,3.22,0,0,1-1.36-2.47c-.19-.91.93-1.78.75-2.73-.51.53-1.06,1.73-1.78,1.93a3.41,3.41,0,0,1,1.25-2.09c.8-.88.59-1.84,1-2.86.25-.57,1,.52,1.11.86a5.17,5.17,0,0,1-.63,3.55,3.3,3.3,0,0,0-.42,2.14c.1.51.43,1.21,0,1.67m23.1-3.1a8.11,8.11,0,0,0-2.09,1.15,8,8,0,0,1-2.92,1,8.41,8.41,0,0,1-2.94-.22,28.71,28.71,0,0,0-3.22-.69C85.9,219,93,218,94.76,214.6m5.38,2.36c0-.25,0-.49,0-.74a.54.54,0,0,1,0,.74M73.52,212.8a17,17,0,0,0,2.84,1.44c1,.36,1.89-.66,2.84-.8.09.46-.48,1.91-.91,2.06-1.3.44-4,1.63-4.8-.2a2.54,2.54,0,0,1,0-2.5m20.06-.22c-.17-1-1.15-1.74-1.66-2.51a1.48,1.48,0,0,0-.28,1c-1.23-.84-3.78-1.35-5.19-.63a8.14,8.14,0,0,1-.22-1,2.76,2.76,0,0,0-1.3,2.2,4.79,4.79,0,0,1,1.49-.21c-.52.57-1.73,1.44-.85,2.19a3.36,3.36,0,0,0,3.51.76,38,38,0,0,0,4.48-1.77m-7.44.54a22.18,22.18,0,0,0,3.71.1c-.8,1-3.27,1.41-3.71-.1m-10.91.46a4.26,4.26,0,0,1,2.48-.43c-.2,1-1.82.8-2.48.43m.51-.71a2.59,2.59,0,0,1,.28-1c.29.41.48,1.15-.28,1m11.64,0c0-.3.14-1.36.76-.72a2.67,2.67,0,0,1,0,.74c-.09.09-.62,0-.74,0m2.76-1.65a2.29,2.29,0,0,1,1.23.28.68.68,0,0,1-1.23-.28m14.08.87a28.92,28.92,0,0,0,.58-3.45c.87.86.39,2.86-.58,3.45m-15.82-.66a2.79,2.79,0,0,0-1-.28c.4-.3.81-.12,1.24,0a2,2,0,0,1-.26.25M45.7,188.55c2.07.39,3.07,2.78,5.1,3.34,2.28.62,4.49.86,6.08-1.22a4.21,4.21,0,0,0,.49-1.33,9.3,9.3,0,0,1,.83-1.46,4.75,4.75,0,0,0,.72-3c-.25-1.13-1.72-.93-2.63-1-1.43-.08-2.38-.86-3.8-.41a4.6,4.6,0,0,1-1.84.4,3.72,3.72,0,0,0-1.67.26c-.76.33-1.7,2.12-2.67,1.56-1.43-.8-1.66-3-1.85-4.47a14.24,14.24,0,0,1-.08-2.51c.06-.94-.09-1.1-.78-1.67-.2-.17-1.3-.44-1.43-.17-1.39,2.81,1.06,6.16-.08,9.1-1-1-1.94-2.19-3.36-2.48a7.75,7.75,0,0,1-2.25-.9c-.58-.31-1.36-.47-1.74.22,1.23.68,2.26,2.1,3.78,2.06,1.77,0,2.24,2.3,3.78,2.34a3.25,3.25,0,0,1-3.87,1.08,6.47,6.47,0,0,1-1.9-1.32c-.54-.59-1-1.45-1.85-1.69,0,2.71,3,3.73,5.09,4.33a1.43,1.43,0,0,1-1.66,1c-.89-.26-1.94-.19-2.56-1a26.48,26.48,0,0,1-2.37-3.68c-1.11.73.63,2.67.93,3.46.4,1,1.24,1,2.2,1.4.55.21,1.6,1,2.21.63a6.33,6.33,0,0,0,2.21-1.56,4.31,4.31,0,0,1,2.55-1.68c.19,1.92,1.74,4.29.17,5.95a13.14,13.14,0,0,0-2.55,2.78,25.54,25.54,0,0,0-1.9,3.74A4.7,4.7,0,0,0,39,204a11,11,0,0,0,1.12,1.42c.42.47.51,1.1,1,1.52a6.89,6.89,0,0,0,1.26.79c.61.36,1.37-.14,2-.17,1.16,0,2.07.72,3.25.17.47-.22.82-.59,1.29-.8a10,10,0,0,0,1.56-.68c.55-.39.71-1,1-1.55s1-.88,1.44-1.39c1.93-2.25-.61-6.29-2.31-8-1-1-2.68-1.36-3.56-2.46a8.58,8.58,0,0,1-1.43-4.31M106,209.19a29.32,29.32,0,0,1-.41-3.23,3,3,0,0,1,.41,3.23m-36.36-1c-1-2.1-1.11-4.66-1.74-6.9q-1.2-4.23-2.3-8.49c-.7-2.75-1.39-5.5-2.08-8.25s-1.84-5.27-2-8A7.17,7.17,0,0,1,64,177.9c1.1.69,2.27,1.25,3.34,2,.69.49.78,1.69.9,2.44.23,1.41.51,2.8.83,4.19.73,3.17,1.45,6.32,2.17,9.5.34,1.48.68,3,1,4.45.22,1,.5,2-.18,2.88a4.32,4.32,0,0,0-1.28,2.89c0,1-.16,1.55-1.1,2m-26.52-7.88a4.56,4.56,0,0,1-.33,2c-.34.62-1,1.4-.77,2.16,1-.29,1.06-1.2,1.42-2s1.66-1,2.39-1.38c0,1.1-.3,2.13-.33,3.21,1.49,0,1.08-1.73,1.06-2.69.15,0,.9.13,1,0s0-1,0-1.24c1.72.38,1.07,2.57,2.19,3.29a3.06,3.06,0,0,0,.69.3c0,.23.06,1.08-.12,1.2-.65.46-1.08.66-1.64,0-.53.59-1,1.28-1.44,1.91s-1.43,0-1.93-.43c-1-.78-1.56.36-2.6.36s-1.69-1.33-2.13-2c-.6-.89-1.36-1.51-1-2.69.09-.32.09-.8.45-.94.91-.34,2.15-1.11,3.13-1.1m29.26,7.21a4.39,4.39,0,0,1-.92-2.75,2.07,2.07,0,0,0,1.48,0c.21.75.22,2.23-.56,2.71m40.07.79c.26-2.54,1.25-4.83.79-7.44a7.73,7.73,0,0,1,.72-3.63,36,36,0,0,1,1.56-3.85c1.2-2.47,2.38-5,3.62-7.41.61-1.21,1.13-2.44,1.65-3.68.41-.94.8-2.66,1.65-3.32a3.55,3.55,0,0,1,1.65-.32c-.28,2.78-1.57,5.35-1.9,8.14a28,28,0,0,1-1.68,8,73.49,73.49,0,0,1-3.84,7.31,34.81,34.81,0,0,1-2.33,3.75c-.58.81-1,1.95-1.91,2.43m-8.36-1.7c-.41-2,.45-3,1.4-4.66s-.41-2.75-1.92-3.28c-.08.26-.4,1.72-.62,1.71-.41,0-.53-.06-.57-.5-.07-.75,1.25-2.09,2.1-1.83.61.18,1.21.55,1.81.69-.43-.91-1.44-1-1.91-1.75-1-1.57-.12-3.26.36-4.87.54-1.86.94-4.09,2-5.75.87-1.42,3.24-1.83,4.66-2.43.84-.36,1.7-.67,2.51-1.08.63-.32,1.5-.88,2.25-.69a16.24,16.24,0,0,1-1.72,4.19c-.81,1.66-1.5,3.4-2.15,5.14-1.32,3.52-2.8,7-4.07,10.52a2.72,2.72,0,0,1-.63-1.33c-.25-.69-.81-1.22-1-1.94a5.22,5.22,0,0,0,.15,2.21,3.71,3.71,0,0,1-.64,2c-.34.64-1,1.13-1.19,1.83a4.39,4.39,0,0,1-.76,1.84m-52.38-3.44c-.31,0-.81.07-1-.17s-1.44-1.5-1-2.06c.1-.15.62-1,.75-1a3.29,3.29,0,0,1,2,1.45,1.18,1.18,0,0,1-.71,1.78m21.53-.09c-.89-3.75-1.64-7.54-2.42-11.32s-2.12-7.53-2.18-11.32c1.87,0,3.85,1.59,5,2.94,1.64,1.86,1.26,4.6,1.49,6.93.13,1.26.16,2.51.33,3.77s-.41,1.86-1.1,2.88c-1.16,1.72,1.08,4.75-1.17,6.13m26.74-.3a2.2,2.2,0,0,1,.31-2.22,1.24,1.24,0,0,1-.31,2.22m3.22-.16c.08-1.1.54-2.07.58-3.21,1.15.21,1,1,.94,2-.06.56-1,1.11-1.52,1.25m-59.78-4c-1.11.5-1.77,1.59-3,1.9a1.44,1.44,0,0,1,.13-1.24c.21-.49.36-.75.91-.47.33-.89.32-2.23,1.31-2.69a7.29,7.29,0,0,1-.29,1.72,8.58,8.58,0,0,0,1.32-1.37c.38-.58.87,0,1.43.2a4.2,4.2,0,0,1,.78-1.46,2.34,2.34,0,0,1,.47,1.25,1.87,1.87,0,0,1,1.74-.45c0-.57-.16-1.23.62-1,1.82.66,2.8,2.51,3.26,4.27-.48-.09-.82-.5-1.28-.6s-.87-.23-1.2.12-.34.91-.9.83c-.84-.13-1.64-1-2.29-1.49A4.28,4.28,0,0,1,45,200.45c-1,.63-1.32-1.17-1.51-1.8m55.37,2.68c0-.1-.51-2.52.15-2.19a1.3,1.3,0,0,1-.15,2.19m-15.58-.65c-.53-.8-2.68-.72-3.45-.34.37.63,2.89.49,3.45.34m2-.19a8.75,8.75,0,0,0,.53-1.47c-2.06-.06-4.12-.45-6.18-.11-.81.13-1,.63-1,1.41,1.21-.78,2.62-.65,4-.65.51,0,1.38-.16,1.78.25s.43.67.9.58m15.13-1.35a1,1,0,0,1,.78-1.46,1.65,1.65,0,0,1-.78,1.46m-25.47-.66a1.89,1.89,0,0,1,.53-1.47,1.31,1.31,0,0,1-.53,1.47m5.22-.6a6,6,0,0,1,3.72-.4c-.26-1.5-4.36-.69-3.72.4M101,195.46c.72-.12,2.69,1.3,1.62,1.63-.76.25-.89.11-1.61-.26-.4-.21-.06-1.11,0-1.38M83.12,196c-.46-.35-1.71-.13-1.94-.67-.31-.73-.81-1.69-.06-2.32s1.17-1.27,2.13-1.08a7.74,7.74,0,0,0,2.68.44c-.11-.9-2-1-2.65-1.23-1-.26-2.11,1-2.6,1.7a2.05,2.05,0,0,0-.1,2.69c.47.61.48.74,1.24.81a3.37,3.37,0,0,0,1.31-.35m11.62.55a.93.93,0,0,0-.72-.76.81.81,0,0,0,.72.76m-1.45-1c-.13-.29-.18-.59-.48-.75a1.51,1.51,0,0,0,.48.75m-16.82-.45a26.08,26.08,0,0,1-.82-5.25c0-.5-.56-4.64-.21-4.75a2.92,2.92,0,0,1,3.29,2c.5,2.84.68,6.38-2.26,8M92.3,195c-.12-.44-.23-.87-.71-1a1.49,1.49,0,0,0,.71,1m10.64,0a14.86,14.86,0,0,1,1.18-3.93,25.53,25.53,0,0,1,1.51-4.41c.47.5,0,1.4-.2,1.92-.31.91-.55,1.84-.81,2.76-.17.61-.83,3.9-1.68,3.66M43.25,177.6a8.44,8.44,0,0,1,.38,2.18,14.86,14.86,0,0,1,.29,2.1,6.51,6.51,0,0,0,.86,3.6c.37.5,0,.8-.08,1.34a5.66,5.66,0,0,0,.29,1.94,40.58,40.58,0,0,1,1.32,4.77c-1.19,0-1.35-1.66-1.45-2.51a24.41,24.41,0,0,0-1.21-4.95,5.32,5.32,0,0,1-.19-2.2,19.79,19.79,0,0,0-.29-2.64c-.13-.93-.88-2.9.09-3.62m47.83,16.86a9,9,0,0,0-.22-1c-.31.36-.07.69.22,1m10.64-.23a7.3,7.3,0,0,1,.55-2.22c.48.56,0,1.87-.55,2.22m-11.86-.56c-.12-.44-.23-.87-.71-1a1.47,1.47,0,0,0,.71,1m-1.23-.51a1.47,1.47,0,0,0-.71-1c.06.43.22.93.71,1m-1.48-.3c0-.16-.4-1.55-.77-1.2s.43,1,.77,1.2m-37.54-3a7.89,7.89,0,0,0,5.51-2.57,7.51,7.51,0,0,0-2.27,1.14,5.41,5.41,0,0,1-2.81.54c-1.56-.09-3.51-.71-4.31-2.18a3,3,0,0,0,1.6.1c.82-.36,1.17-1.33,1.91-1.77s1.42.41,2.2,0c1-.51,1.43-.88,2.54-.51s2.4-.06,3.46.45c.37.18.48,1,.43,1.32a2.37,2.37,0,0,1-.79,1.46c-.17.17-1.49.87-1.49,1,0,.76,1.23.6.73,1.43-.79,1.31-2.57,1.45-3.95,1.25-.87-.13-2.64-.61-2.76-1.67m52.92,1.88c.06-.92.5-3.95,1.59-4.17a12,12,0,0,1-.81,2.3c-.25.62-.28,1.39-.78,1.87m-23-1.58c0-1.15-.71-2.93-.14-4,.47.5.83,3.55.14,4m-.84-5.48c0-1.45,3.49-2,4.47-2.31a25.73,25.73,0,0,1,8-.57,28.54,28.54,0,0,1,7.41,1.72c1.32.46,4.55,1.2,4.55,3-1.78,0-3.75-1.59-5.29-2.35A14.87,14.87,0,0,0,92,182.85a28.38,28.38,0,0,0-6.86.14,19.39,19.39,0,0,0-3.18.8,8.42,8.42,0,0,1-3.23.92m27.21.22c-.11-.72,1.38-1.55,1.82-2a8.71,8.71,0,0,1,2.8-2.2c.72-.25,1.57.48,2.12.86.71.49.39.93-.25,1.32a29.94,29.94,0,0,1-3.19,1.32c-.89.43-2.32,1.21-3.31.67m-2.47-.06a15.9,15.9,0,0,0-3.18-1.59,18.69,18.69,0,0,0-3.43-1.3c.94-.75,2.76.56,3.66.92.61.25,3.2,1,2.95,2m1.76-.82c-.55-.19-1.66-.37-1.49-1.18a7.41,7.41,0,0,1,1.73-2.66c.54-.7,1.45-1.91,2.5-1.61a2.17,2.17,0,0,1,1.39,1.15c.81,1.45-3.14,3.84-4.13,4.3m-28-.6c.19-1.15,2.54-1.69,3.41-2a21.54,21.54,0,0,1,5.41-1.14,25.65,25.65,0,0,1,10.53,1.16c-.84.6-3-.41-3.93-.53a33.31,33.31,0,0,0-5.44-.24,29.47,29.47,0,0,0-5.46,1c-1.52.35-3,1.72-4.52,1.75m-2.46-.32a17.18,17.18,0,0,1-4.5-3.65,16.21,16.21,0,0,1-3.35-4.76,33.56,33.56,0,0,1-2.21-6c-.24-.94-1.29-3.54-.26-4.28.76-.53,2.06,0,2.86.18a42.17,42.17,0,0,0,4.74.43,27.64,27.64,0,0,0,9.66-1.5c1.2-.38,2.63.4,3.82.67a23.2,23.2,0,0,0,4.78.8,20,20,0,0,0,4.8-.51c.81-.21,2.91-1.52,3.48-.56a49.27,49.27,0,0,0,6.95,9.95c2.72,2.78,6.07,5.8,9.8,7.1.15,0,.17.49,0,.55-2.1.77-4.77-1.69-6.27-2.9a51.75,51.75,0,0,1-5.55-5.17,28.31,28.31,0,0,1-4.21-5.88c-.36-.68-1-1.65-1.78-1.81-1.3-.24-2.84.36-4.16.44a30,30,0,0,1-7.64-.46c-1-.21-2.06-.84-3.07-.57a30.42,30.42,0,0,1-3.74.94,28,28,0,0,1-7.55.28c-.79-.11-5.93-1.29-6.08,0-.35,3.13,1.49,6.5,3.14,9.06a28.5,28.5,0,0,0,3.16,4.07,16.37,16.37,0,0,0,3.43,3.38c-.1.06-.19.19-.28.23m35.77,0c.42-.27-.06-1.06-.48-.76s.08,1,.48.76m-43.81-14c1,.61,1.43,1.94,2,2.91a38.66,38.66,0,0,0,2.73,4,21.84,21.84,0,0,0,3,3.36c.8.72,2.14,1.66,2.14,2.88-1.19,0-2.12-1-2.87-1.75A32.21,32.21,0,0,1,70.75,177a27.9,27.9,0,0,1-4-7.95m37.45,6.43c1.31.27,1.77,1.16,2.3,2.26.22.44-.89,1.81-1.13,2.09a24.41,24.41,0,0,1-2.55,2.5c-.55.46-1.55-.18-1.64-.76-.12-.83.83-1.87,1.23-2.54a17.56,17.56,0,0,0,1.8-3.54M67.3,166.6c1.08.13,2.18.12,3.25.34.62.12,2.52,0,2.92.66,1.2,1.9,1.65,4.14,2.54,6.18.46,1,.9,2.1,1.43,3.11a10.26,10.26,0,0,1,1.43,2.82c.09.51.26,1.09-.4,1.3-1.44.47-2.8-1-3.68-1.93A45.22,45.22,0,0,1,71.46,175a42.73,42.73,0,0,1-2.94-4.57c-.53-1-1.84-2.68-1.22-3.84m34,5.85a3.81,3.81,0,0,1,1.86,1.53c.87,1.32-.28,3.07-.84,4.28-.37.78-1.12,2.72-2.14,2.84-.79.08-2.28.12-2.06-1.14.48-2.63,2.37-5,3.18-7.51m6.34,8.58c.42-.27,0-1-.48-.76s.12.93.48.76M74.47,167.28c.85,0,3.85-.9,4.42,0a10.53,10.53,0,0,1,.91,3.16c.34,1.39.68,2.78,1.08,4.15s.89,2.6,1.26,3.93-.43,1.56-1.5,1.5c-1.77-.09-2.86-3.85-3.41-5.17-1-2.34-2.51-5-2.75-7.59m23.26.11c1.29.06,3,3.26,2.94,4.37-.24,2.5-1.76,4.76-2.79,7-.45,1-1.28,1.67-2.33,1.1-.37-.2-1.09-.42-1-1A32.6,32.6,0,0,1,96,173a41.12,41.12,0,0,0,1.68-5.58M84.29,179.57c-1.82-.17-2.33-3-2.65-4.42-.24-1-.53-2-.79-3.08a23.77,23.77,0,0,1-1.06-4.38c-.1-2,4.39-2.63,5.23-1a4.85,4.85,0,0,1,.08,2.55,14.28,14.28,0,0,0,.09,3c.12,1.12.29,2.24.45,3.34.13.87.73,2.48.3,3.32-.29.53-1.11.58-1.63.64M67.75,178c.51.26.61.73.71,1.26a.81.81,0,0,1-.71-1.26m45-6.49c1.07,1.61,2,3.31,3.24,4.83.54.69,2.7,2.2,2.36,3.21-.72,2-5-.63-5.91-1.17-1.1-.68-2.08-1.52-3.15-2.25-.6-.41-1.81-1-1.93-1.83-.09-.63,0-.93.65-1.19,1.55-.58,3.16-1.1,4.74-1.6M97,166.63a27.2,27.2,0,0,1-1.55,6.3c-.62,1.93-.81,4.54-2.07,6.19a1.65,1.65,0,0,1-1.33.19c-.62-.25-1-.31-1-1a44.35,44.35,0,0,1,.34-6c.1-.94.09-1.89.26-2.82.08-.45.2-2,.78-2.14a14.9,14.9,0,0,1,4.59-.73m-7.5,12.59c-1.15.07-2.19,0-2.77-1.09-.77-1.39-.82-3.64-.94-5.2a13.94,13.94,0,0,1,.38-6c.26-.66,4.17-.17,4.59.31,1,1.19,0,4.39-.09,5.73s-.08,2.62-.11,3.94c0,.85-.09,2-1.06,2.28m23.42-34.69c1.48.3,2.88,1.67,4.24,2.34a53.07,53.07,0,0,0,5.34,2.44c2,.71,4,1.31,6,1.83s4,.67,6,1.12c-.52.68-2,1.11-2.73,1.53a25.17,25.17,0,0,0-3.06,2.13,18,18,0,0,0-4.76,5.9,23.13,23.13,0,0,0-2.27,7.59,13.88,13.88,0,0,0,.12,4,18.06,18.06,0,0,0,.41,1.79,5.86,5.86,0,0,1,.54,1.87c-.06.78-.16.87-.94,1.08-1.29.35-1.91.35-2.64-.85a40.2,40.2,0,0,1-3.28-7.15c-1-2.7-1.44-5.47-2.26-8.22a27.49,27.49,0,0,1-.72-8.39c.08-3-.09-6,0-9.06M104.14,178c.25.08.58.26.84.15s.57-.46.42-.74c-.39-.7-1.1.28-1.26.59m39.45-22.74c-1.49,0-2.76-1.08-4.3-1.14a11.68,11.68,0,0,0-4.37.51,15.67,15.67,0,0,0-6.84,5.17,22,22,0,0,0-3.77,7.55,13.13,13.13,0,0,0-.29,5,12.88,12.88,0,0,0,.51,2.51,6.67,6.67,0,0,1,.64,2.67c-2.89-.42-3-5.36-2.82-7.64a19.55,19.55,0,0,1,3-8.9,17.55,17.55,0,0,1,6.6-6.55c2.66-1.37,6.32-2.33,9.26-1.45,1,.31,2.51,1,2.33,2.26m-26.06,21.6c-3.68-2.94-4.82-9.33-4.84-13.75.79.61.88,1.88,1.1,2.77a33.42,33.42,0,0,0,1.32,4.35,42.71,42.71,0,0,0,1.67,4c.34.61,1.24,1.92.75,2.64m25.29-20.38c-.31.49-1.75,0-2.16-.12a8.09,8.09,0,0,0-3.2-.13,13.87,13.87,0,0,0-7.5,4.53,16.24,16.24,0,0,0-4,7.48,11.82,11.82,0,0,0,.09,4.33,8,8,0,0,0,.53,2c.15.34.52.91.41,1.3s-.4,1.26-.9.67c-1.87-2.19-1.75-5.78-1.26-8.44a19.06,19.06,0,0,1,3.88-8,13,13,0,0,1,7.4-5.09c1.46-.37,6.21-.91,6.66,1.45m-81.66,18.4a4.59,4.59,0,0,1-1.68-1.77c.75-.14,2.22,1,1.68,1.77m41.58-.15c-.48-.29-1.2-.07-1.14.56.09,1,1-.26,1.14-.56m39.07-17.55c.08,1.42-1,2.81-1.78,3.9a1.91,1.91,0,0,1-1.15.81c-.32.07-1.4-.08-1.42.38s.48.08.73.51a2.92,2.92,0,0,1-1.37.49,18.38,18.38,0,0,0-1.89.9c.53-.87,1.52-1.3,2-2.18-2.19,1.06-4.36,2.86-4.36,5.54,0,1.17.74,2.51.18,3.6a15.08,15.08,0,0,1-2.3,3c-.48.53-.89.34-1.41,0a2.4,2.4,0,0,1-.49-2.92c.56-.88,2.28-.73,2.71-1.6.11-.21.72-1.1.18-1.23a9,9,0,0,0-2.62,0c-.71,0-1.67-.14-1.82-1a3.09,3.09,0,0,1,1.47-2.8c1-.49,2,.93,3.14.42.51-.23-1.61-2.33-1.66-2.5-.31-1,1-1.85,1.72-2.07,1.27-.38,1.45,1.28,2.66,1.12.48-.06.29-.72.19-1a3.87,3.87,0,0,1-.22-2c.12-.91,1.86-1.37,2.61-1,1.16.49-.17,2.19.87,2.76s1.28-1.89,1.77-2.21a3.65,3.65,0,0,1,2.21-.88m-29.73,10.36a17.65,17.65,0,0,1,.3,2.39c0,1-1.91,1.52-2.65,1.81s-2.74,1.22-3.59.75c-.31-.17-.85-.31-.92-.68-.23-1,2.09-1.76,2.68-2.13,1-.59,3-2.37,4.19-2.14m-13,4.36a.72.72,0,0,0,.4-.73,4,4,0,0,0-1-.63c-.72.21-.2,1.78.6,1.37m5-1.35a14.46,14.46,0,0,1-.16-3.46,4.46,4.46,0,0,0-1.29.54c-.55.3-.72-.22-.55-.7.57-1.65,1.91-3.11,2.83-4.58a19.06,19.06,0,0,0,2.26-5.28,16.27,16.27,0,0,0,.46-6.21,28,28,0,0,0-.53-3,14.72,14.72,0,0,1-.84-3.24c1.13.82,1.75,2.93,2.32,4.16a38.51,38.51,0,0,1,2.09,5.57,20.43,20.43,0,0,1,.87,6.18c0,.94,0,1.88-.07,2.82a16.79,16.79,0,0,1,.17,2.7c-.59-.24-.51-1.2-.53-1.7a17.9,17.9,0,0,0-.5-3.32c-.35-1.48-.73-3.63-2.17-4.47-.82,2.9-1.31,5.9-2,8.83-.31,1.2-.68,5-2.32,5.18M70.9,169.41c.09-.19.48-.74.43-.93s-.78-.45-1-.35a3.08,3.08,0,0,0-.27,1,.6.6,0,0,0,.81.33m6.43-.08c.6-.26,0-1.56-.6-1.26s-.14,1.64.6,1.26m28.76.26a28.55,28.55,0,0,1,1.46-5.7c.38-1.35,1.29-3.44,1-4.87,1.56.36,1.57,4.57,1.74,5.72.35,2.44-1.81,4.55-4.25,4.85m-12.37-.32c.5,0,2-.33,1.21-1.16a1.19,1.19,0,0,0-1,.1,2.59,2.59,0,0,0-.24,1.06m-4.77-.37c.06-.18.37-.77.3-.93s-.62-.44-.81-.33c-.48.27-.22,1.69.51,1.26m-7.1-.2c.31,0,.89.06,1.13-.22a1.25,1.25,0,0,0,0-1.11c-.28-.32-.82-.12-1,.15a2.82,2.82,0,0,0-.15,1.18m52,.87c-.75-.68-.44-2.34-.41-3.23.36.42.73,2.81.41,3.23m.78-1.46c-.44-1.69,1.21-4.32,3.08-4.13a7.55,7.55,0,0,1-1.49,2.75c-.5.77-.61,1.4-1.58,1.38m-31.05-5c-.12.77-1.8,3.66-2.71,2.43-.58-.78,0-1.39.64-1.76a4.07,4.07,0,0,1,2.07-.67m-28.73.73c.22-3.62,1-7.23,1.4-10.84.2-1.63.14-3.3.49-4.91s-.09-3.34-.11-5c.91,1,.41,3.63.37,4.85-.06,2.12-.09,4.22-.17,6.33,0,1.09-.13,10-2,9.57m-1.48,0a52.87,52.87,0,0,1,1.43-7.63,1.88,1.88,0,0,1,.14,1.61c-.2.91-.24,1.86-.36,2.79-.09.59-.09,3.46-1.22,3.23m17.13-2c.09.53-.26,1.18-.29,1.72a4.06,4.06,0,0,1-.55-2.46,31.65,31.65,0,0,1,0-3.49c.79.66,1,2,1.59,2.89.81,1.12,2.08,1.91,2.7,3.16-1.51,0-2.1-1.5-3.42-1.81m-2,1.67c.41-2.19-.13-4.48-.07-6.69.52.59.43,2.67.42,3.42,0,.54.69,3.44-.35,3.27m-2,0A85.48,85.48,0,0,0,85.66,152a32.15,32.15,0,0,0-1.17-5.46c-.48-1.64-1.24-3.31-1.19-5,1.18.94,1.47,3.64,1.92,5a42,42,0,0,1,1.57,6.12,57.94,57.94,0,0,1,.69,6.54c0,.92.5,4.23-1,4.23M82.31,142c1,.75,1.26,3.42,1.56,4.57a47.23,47.23,0,0,1,1.25,6.53c.27,2.21.39,4.42.65,6.62.1.79.41,3.15-.59,3.47-.37.12-1-.4-1-.72-.23-1.44.29-3.13.28-4.61a45.93,45.93,0,0,0-.23-5.47c-.22-1.73-.44-3.47-.77-5.2s-1.15-3.52-1.13-5.2m-1.89,15.53c.77.43,2.19,1.86,2.27,2.78a2.85,2.85,0,0,1-2.41,2.75c-1.58.24-2-1.3-2.38-2.51-.25-.89,1.94-2.49,2.52-3m18.23-15.84a58.6,58.6,0,0,0-1.78,6.14,24.76,24.76,0,0,1-.16,3c-.28,1-1,1.74-1.34,2.68,2-1.13,2.27-3.16,2.38-5.21s.49-4.62,1.91-6.31c.39-.46,1.87.06,2.31.21,1.06.38.56,1.22.12,2-1.32,2.27-3.2,4.56-3.41,7.26a2.33,2.33,0,0,0,.91,2.16c0-.7-.19-1.4-.2-2.1a6,6,0,0,1,.66-2.23,33.17,33.17,0,0,1,1.51-3.1c.5-.92,2.23-3.92,3.3-1.92a18.2,18.2,0,0,1,2,7.32c.21,2.32.14,5.22-1,7.33a8.76,8.76,0,0,1-4.42,4c-1.16.43-1.58,0-2.65-.37s-2.29.64-3.47.47c-2.14-.32-3.93-3-4.58-4.86-.82-2.3-1.46-5.29-.88-7.7a13.35,13.35,0,0,1,3.55-5.88c1-1,3.66-3.74,5.21-2.86M82.14,157.84c-.48-.15-.87-.53-1.37-.67s-1.3.58-2,.16c-1.11-.68-.14-2.47.55-3.06s.87-.84,1.55-.47a4.86,4.86,0,0,1,1.28,1.06c1,1,1.43,2.26,0,3m6-1.35a6.69,6.69,0,0,0-.41-2.47c-.19-1-.38-1.9-.59-2.84-.47-1.94.1-3,1.12-4.58,1.56-2.45,5-6,8.21-5.73C95.8,142.11,94.2,143,93.2,144a17.19,17.19,0,0,0-3.12,4.22,11.89,11.89,0,0,0-1.39,4.39,13.79,13.79,0,0,0-.27,2,2.82,2.82,0,0,1-.32,1.89M75,155.67c0-.82,0-1.65.07-2.47a2.61,2.61,0,0,1-.07,2.47m36.65-1c-.86-1.72-1.31-3.62-2.12-5.37-.7-1.52-1.9-3.12-1.82-4.87,1.61.57,2.52,2.68,3.07,4.17.48,1.33,1.95,4.77.87,6.08m-33.13-.87c-.69-1.08,0-1.93.69-2.79.9-1.11,1.66-1.2,2.68-.25a2.39,2.39,0,0,1,.73,1.34c.16.93-1,1-1.54.87-1.06-.19-1.56.69-2.56.83m64.93-1.92c.51,0,1.94-.44,1.93.38,0,.48-.46,1.31-1,1.29a1.91,1.91,0,0,1-1.7-1M112.74,142.3c1.21.27,2.21,1.26,3.24,1.9,1.21.76,2.45,1.45,3.72,2.1a34.07,34.07,0,0,0,8.95,3.07,50.53,50.53,0,0,0,9.28,1c1.48,0,3,0,4.45,0,1.08,0,3.1-.47,4.08,0-.77.93-2.78.89-3.88.9-1.63,0-3.25,0-4.87.09a33.6,33.6,0,0,1-9.73-1.22,46.78,46.78,0,0,1-9.64-3.43c-1.48-.75-5.66-2.34-5.6-4.39m-30.88,7.12a8.84,8.84,0,0,0-2.5.21c-1.1.22-.72-1.49-.38-2,.58-.85,1.27-1.23,2.19-.6a2,2,0,0,1,.69,2.41m30.69-9.35a1.64,1.64,0,0,1,2.4.12c.48.74,1.08,2.32,2,2.6s2.28-.37,3.09.56a7.06,7.06,0,0,0,1.31,1.54c.58.35,1.43,0,2.07,0,1.68,0,2.21,1.28,3.61,1.79s2.53-1.09,3.91-.73c1.09.29,2.19,2.2,3.32,1.89s2.41-.89,3.67-1.2,2.17,1.26,3.36,1.45c1.57.27,3.52-2.31,5-1,.46.41,1,.84,1.16,1.48-.71,0-2.07-1.36-2.74-1.09a21.26,21.26,0,0,1-3.31,1.43c-1,.24-1.82-.75-2.49-1.36-1.18-1.08-3.49.68-4.78,1-1.49.32-2.33-2-4-1.64-1,.21-2.18,1.17-3.21,1-.87-.17-1.64-1.58-2.4-2-1-.59-2.39.47-3.46,0-.75-.36-1-1.25-1.54-1.85-.72-.86-2.07-.75-3.09-.82s-1.45-2.28-2.29-2.79c-.47-.33-1.11,0-1.62-.32M86.36,147.8c-1-2,.79-3.71,2.24-4.88,1.22-1,3.91-3,5.63-2.59a4.43,4.43,0,0,1-1.66,1.32,12,12,0,0,0-2.32,1.73c-1.37,1.29-2.32,3.42-3.89,4.42m25,.42c-.27-.94-1-1.81-1.17-2.75,1.33-.2,1.9,1.87,1.17,2.75m-29.88-2.29a9.52,9.52,0,0,0-2.15.3c-1.26.16-1.21-.94-.78-1.8a2.42,2.42,0,0,1,.87-.89c.34-.25.89.14,1.26.28.93.36.82,1.32.8,2.12m34.09-7.27a5.77,5.77,0,0,1,1.93,1.95c.47.62,1.16.47,1.87.46,1.17,0,1.34.71,2.13,1.38a2.59,2.59,0,0,0,2.41.6c2.13-.15,2.92,2.22,5.19,1.46a4,4,0,0,1,3.26-.18c.6.31,1.65,1.48,2.39,1.39,1.12-.16,2.07-.82,3.19-1,1.58-.18,2.42,1.74,4,1.48s2.88-1.87,4.49-.87a5.86,5.86,0,0,1,2.1,1.83c-.86.35-2.08-1-2.87-1.24-1.46-.51-2.9,1.88-4.22,1.32-1.07-.47-2-1.67-3.26-1.58-1.41.11-2.84,1.8-4.29,1-.51-.29-2.06-1.88-2.66-1.72a23.51,23.51,0,0,1-3.21.83c-1.19.11-1.84-1-2.72-1.57-1.11-.71-2,.27-3.16,0s-1.34-1.53-2-2.18c-.92-.85-2.23.29-3.11-.53a4.91,4.91,0,0,1-1.43-2.84m-30.1,6.16c-.49-1-3.27-6-1.07-6.46s5.2.67,7.38,1.18c-.27,1.19-1.83,1.84-2.76,2.4-1.32.78-2.15,2.25-3.55,2.88m-4.9-2.12c-.66-.23-1.11.09-1.73.25s-1.28-.22-.79-1c.62-1,3.37-.64,2.52.75m31.67-8.83c1.2.67,2,1.87,3,2.74a21.8,21.8,0,0,0,4.3,2.69A29.72,29.72,0,0,0,130,142.16c3.53.36,7.07.57,10.61.72,1.84.08,3.69,0,5.53.07s3.6-.43,5.42-.37c-1.21,2.17-5.66,1.38-7.65,1.22s-4,0-6.07-.1c-2.24-.1-4.4-.49-6.61-.78-4-.52-7.77-1.15-11.45-2.95a23.43,23.43,0,0,1-4.68-2.45c-1.07-.87-2.77-2.15-2.9-3.65m-29.15,7.42A3.12,3.12,0,0,1,82.6,140a.85.85,0,0,1,.47,1.25m34.27-14a6.88,6.88,0,0,0,1.95,1c0-1.59-.69-2.93-.87-4.47,1.47.27,2.46,1.69,3.91,2.09,0-1.75-1.13-3.27-1.11-5,1.38.31,3.2,2.85,4.64,2.35a24.12,24.12,0,0,1-1.86-4.5c1.17-.06,2.28.66,3.33,1.07a11.82,11.82,0,0,1,3.42,1.89,40.88,40.88,0,0,1,6.16,6.25,45.22,45.22,0,0,1,4.65,6.92c.68,1.27,1.33,2.56,2,3.85.19.37,1.68,2.73.84,2.89-3.21.6-6.52-.23-9.73-.33a50.53,50.53,0,0,1-9.69-1.08c-2.23-.51-3-3.28-3.74-5.13a31.27,31.27,0,0,0-1.87-3.73c-.64-1.18-2-2.72-2-4.13m-35.08,7.23c-1.28.25-.84,2-1.34,2.85a2.9,2.9,0,0,1-1.24,1.23c-.73.25-.92.53-1.29,1.26,3,0,3.79-2.9,3.86-5.33m67.4,6c0-.84.29-1.62.32-2.46a8.49,8.49,0,0,1-1.78,1.69c.13-.74.41-1.47.55-2.22-.68.36-1.09,1.06-1.77,1.43a21.09,21.09,0,0,1,.55-2.46c-.81.39-1.28,1.21-2,1.68,0-1,.61-1.94.57-3-.65.34-1,1.36-1.77,1.43,0-.62.41-1.38.3-2a7.19,7.19,0,0,1-1.26.71c0-.57,0-1.16,0-1.73a2.57,2.57,0,0,1-1,.47,2.5,2.5,0,0,0,0-1.24c-1.18.37-2.32-1.24-2.41-2.29a12.34,12.34,0,0,1,3.68,1.92,35,35,0,0,1,3.84,2.62c1,.8,5.13,3.39,4.11,5.18a2,2,0,0,1-.22-1.25c-.6.3-1.08,1.58-1.77,1.43m-37.39-18.31c.82-.13,1.74,1.84,2.1,2.43.57,1,2,2.67,2,3.81,0,.63-1.61,1.16-2.06,1.39a6.48,6.48,0,0,0-2.43,2.07c-1.52,2.15,0,4.56-.7,6.84-.2.69-.61.68-1.26.48-1-.29-4.63-1.32-4.53-2.75.07-1.07,1.11-2.35,1.61-3.27.67-1.23,1.37-2.43,2-3.7,1.15-2.4,2.07-4.94,3.34-7.3m-.18,16.33c-.13-.83.9-.8,1.49-.82a1.68,1.68,0,0,1,1.72.91c-1-.19-2.28.47-3.22-.09m8.45-1.25a6.4,6.4,0,0,0-.69-2c-.1.33-.21.64-.28,1-.66-.59-.66-2.66-.65-3.48a4.25,4.25,0,0,0-.56,2.4c0,.09-.48.13-.5,0s0-.48-.08-.78a17.28,17.28,0,0,1,0-3.35,4.73,4.73,0,0,0-.8,2.45c-.68-.61-.45-1.91-.43-2.73a3.9,3.9,0,0,0-1.06,2.69,3.82,3.82,0,0,1-.09-3.09c.34-.55,1.08-.56,1.63-.69,1.43-.35,4.8,6.93,3.56,7.62m-16.31-1.19c.08-1.24,1-2.32,1.62-3.32a36.21,36.21,0,0,0,2.25-4.46,31.62,31.62,0,0,0,1.74-3.93c.29-1,.81-3.07,1.71-3.68.51,1-.2,2.39-.64,3.3-.75,1.55-1.4,3.18-2.25,4.67s-1.59,2.88-2.33,4.36c-.29.59-1.2,3.26-2.11,3.06m-1.17-21.32c1.21.28,2.14,1.76,3,2.52a11.65,11.65,0,0,0,3.47,2.06c1.32.48,1,.85.55,2-.56,1.47-1.23,2.92-1.84,4.36a50.1,50.1,0,0,1-4.45,8.78c-1,1.41-1.48,1.52-3.12,1-.9-.29-2.34-.5-2.88-1.39s.32-2.24.62-3.08c.59-1.69,1.24-3.31,1.72-5,1-3.69,1.92-7.44,2.87-11.18M114,132.44c-.22-.23-.39-.55-.73-.51a2,2,0,0,1,1.27-1,2,2,0,0,1-.53,1.47m29.63-25.71c3.9,2.48,1,8.62-.28,11.69-1,2.33-1.94,4.66-2.94,7a6.59,6.59,0,0,1-1.43,2.54c-.81.66-1.7-.48-2.15-1-.65-.82-1.13-1.42-.87-2.48a20.62,20.62,0,0,1,1.81-3.88c.75-1.54,1.46-3.1,2.16-4.66,1.32-3,2.13-6.29,3.69-9.13m-16.89,11.93c-1.16-.27-2.35-.87-3.49-.69-.52.08.6,3,.7,3.34-1.2-.06-2.7-1.16-3.66-1.83-.43,1.32.41,3.15.62,4.47-1.33,0-2.23-1.17-3.42-1.57-.36,1.25.43,2.68.4,4a4.86,4.86,0,0,1-2.42-1.48c-.26-.26-1-1.3-.76-1.68a13.37,13.37,0,0,1,3.52-3.82,14.35,14.35,0,0,1,4.45-2.9c1.43-.44,3.43,1,4.07,2.2m18.45-33.17c.91.6.37,2.22.49,3.11a32.87,32.87,0,0,1-.17,4.92c0,.85-.21,1.69-.29,2.54a17.5,17.5,0,0,1-.26,2.88c-.4,1.54-.62,3.16-1.07,4.67a91.47,91.47,0,0,1-3.75,10,93.59,93.59,0,0,1-4.81,10.17c-.32.53-.37.53-.87.21-1-.61-3.18-2.11-2.44-3.48s1.9-2.41,2.72-3.68a41.37,41.37,0,0,0,2.35-4.13,44,44,0,0,0,3.39-9.26,26.57,26.57,0,0,0,.64-4.92,20.25,20.25,0,0,1-.11-2,10.48,10.48,0,0,1,.75-2.13c.56-1.47,1.12-3,1.73-4.41a44.49,44.49,0,0,1,1.68-4.49m-31.41,37c-1-1.51,1.28-3.29,2.26-4.13,1.14-1,4.13-4.2,5.81-3.2,1.14.67-2.56,2.92-2.93,3.21-.88.7-1.74,1.43-2.6,2.17s-1.51,1.66-2.53,1.95m-1.2-1.76c-.74-1.46,1.46-3.22,2.35-4.09,1.3-1.28,3-3.32,5-2.93.87.16-2.2,2.51-2.33,2.61a30.26,30.26,0,0,0-2.84,2.68c-.62.65-1.26,1.56-2.21,1.72M140.36,99a31.72,31.72,0,0,1-2.89,11.31c-1.43,3.36-3.29,7-6,9.51-.76.72-2.23,0-2.56-.89-.51-1.38,1.86-3.65,2.55-4.69,1.26-1.88,2.33-3.88,3.45-5.83s2.24-3.8,3.21-5.75c.44-.89,1-3.44,2.21-3.66m-28.49,20c-1-2.06-.11-4.51-.08-6.68a66,66,0,0,1,.34-7.53,19.46,19.46,0,0,1,2.19-6.52,42.61,42.61,0,0,0,2.49-7.35c.43.48.13,1.3,0,1.83a7.31,7.31,0,0,0-.12,2.62,10.23,10.23,0,0,0,.73-2.77,11.79,11.79,0,0,1,1-2.54c.63-1.26,1.67-2.84,3.22-3-.17,1.12-1.11,2-1.43,3.06a14.76,14.76,0,0,0-.72,3.87c0,.49-.14,1-.15,1.47a8.64,8.64,0,0,0,.36,1.65,18.48,18.48,0,0,1,.06,4.37,46.44,46.44,0,0,1-.71,5.95c-.24,1.25-.82,3.06-2.45,2.5.23,1,1,1.8.18,2.73a5,5,0,0,1,.9.36c.48.27.22.51-.08.87-.79,1-2,1.7-2.88,2.61-.69.7-1.73,2.34-2.8,2.46m15.63-1.33a9.08,9.08,0,0,1-3.86-2.46c-.91-1.06.64-3,1.24-3.95a53.52,53.52,0,0,0,3-5,91.42,91.42,0,0,0,4.74-10.94c1.31-3.65,2.25-7.44,3.45-11.13a34.45,34.45,0,0,0,1-4.36c.09-.46.41-2.42,1.23-2.08a18.8,18.8,0,0,1,3.93,2.74c1.1.87,3,2.24,2.61,3.87a91.5,91.5,0,0,1-3.39,9.15,83.44,83.44,0,0,1-4.23,9.47c-1.56,3-3.26,5.85-5,8.7-.8,1.31-1.53,2.64-2.39,3.91-.44.65-1.34,2.22-2.3,2m-7.19-8.86a5.53,5.53,0,0,1,.19,2.48,15,15,0,0,0,1.76-.94,6.77,6.77,0,0,1,.26,1.47c.11.45.73.68.66,1.18a1.2,1.2,0,0,1-1.14.91,8.65,8.65,0,0,1-2.54-1c-.88-.4-1.61-1-1.47-2.08s1.46-1.79,2.29-2m-9.49,3.22a1.83,1.83,0,0,1,0-1.24,1,1,0,0,1,0,1.24m-1.7-1.28c-.88-1.7,1.37-4,1.63-5.65-.44,0-4.49.22-4.42-.65s1-1.2,1.58-1.61c.37-.26,1.67-.4,1.68-1,0-.76-3.67-2-2.63-3.29.62-.76,3.82.28,4.44.61.16-1-.57-1.94-.86-2.9a11.16,11.16,0,0,1-.48-3.08c1.65.14,2.14,2,3.39,2.81.33-1.43.63-3.9,2.11-4.65a12.76,12.76,0,0,1-.86,4.95c-.64,1.43-1.44,2.8-2,4.26a16.82,16.82,0,0,0-1.13,4.61c-.13,1.28.19,3-.44,4.13a3.48,3.48,0,0,1-2,1.44m14.87-.84c-.31-.28-.64-.51-1-.77.46-.29,1.33.23,1,.77m.29-1.24a1.57,1.57,0,0,1,1.52-1.44,3,3,0,0,1-.35,1.33c-.19.46-.82.2-1.18.12m-1.73,0c-.77-.18-2.33-1.21-2.42-2,.66.22,2.64,1.19,2.42,2m-15.81-1.16a1.56,1.56,0,0,1,1-1.34c.2-.09,1.77-.72,1.76-.23a2.35,2.35,0,0,1-.9,1.61c-.43.41-1.36,0-1.86,0m15-3.81a12.64,12.64,0,0,0,.18,2.73,5.13,5.13,0,0,1,2-.94c0,.5.12,1.65-.42,2-.71.42-2.12-.8-2.67-1.21-1.28-.91-.44-2.28.9-2.55m-1.17-2.76c1.53.11,2.69,1.5,3.87,2.34.89.63,2.64,1.51,2.68,2.78-1.54-.07-2.6-1.6-3.8-2.38-.91-.57-2.77-1.46-2.75-2.74m2.34-4.15A13.26,13.26,0,0,1,123,99.5c.26,0,2-1,2-.87a8,8,0,0,1,.15,2.91c.75-.42,1.42-1.2,2.27-1.43.37.74,0,1.53.28,2.28.14.43.68.86.52,1.36-.46,1.47-2.08.2-2.77-.37-1.45-1.17-3.14-2-4.47-3.34-.73-.73-.27-1.3.2-2s.78-1.21,1.62-1.29M106.36,102c-.08-.48.12-.61.53-.73.22-.06,1-.2,1.21,0s0,.56,0,.68c0,.42-1.59.09-1.72,0m14.58-8.27c1.13-.07,2.19.83,3.07,1.43,1.09.72,2.19,1.43,3.28,2.17.24.16,3.5,2.47,2.39,2.83-.94.3-3.38-2.1-4-2.58-1-.74-2.06-1.46-3.13-2.14-.59-.38-1.61-.88-1.57-1.7m1.49-.22c0-.49-.1-.68.36-.9a7.84,7.84,0,0,1,1.38-.7c.53-.14.6.8,1.4.57.52-.15,1.26-1.38,1.57-.34.25.79.31,1.67.48,2.48.82-.24,1.28-1,2-1.43a4,4,0,0,1,.23,1.67,9.26,9.26,0,0,1,.18,1.8,9.79,9.79,0,0,1,1.26-.71c0,.31-.48,2.84-.87,2.67-3-1.19-4.93-4.07-8-5.12M108,95.89c.81,0,2.25.57,1.81,1.69-.23.58-.78.08-1.15-.24a1.83,1.83,0,0,1-.66-1.45m4.07-4.33A1.59,1.59,0,0,1,113,94c-.25.47-1-.86-1.11-1a1.71,1.71,0,0,1,.15-1.41m12.45-2.9c1.47-.77,3.46,1.12,4.71,1.74.73.38,3.76,1.71,3.09,2.92-1.54-.48-2.77-1.59-4.2-2.3-1.23-.6-2.89-1.1-3.6-2.37M120.22,93c.26-1.36,2.23-2.27,3.52-2.14A4.77,4.77,0,0,1,120.22,93m4.87-6.55a9.26,9.26,0,0,1-1.43.48c-1.67.17-2.42-2.18-2.39-3.48a2.67,2.67,0,0,1,1-2.28c.27-.23,1.06-1,1.44-.7s.22,1.15.25,1.45a22.34,22.34,0,0,0,.4,2.28c.25-.14,2.17-1.93,2.3-1.61a28.18,28.18,0,0,1,.63,3.18c.88-.48,1.68-1.69,2.76-1.66,0,1.08.19,2.13.16,3.22,1-.11,1.53-1.38,2.51-1.66.37.86.09,1.8.43,2.67a3.41,3.41,0,0,1-.16,2.94c-.53,1-4.14-1.69-4.73-2-1.18-.65-3.06-1.19-3.22-2.78M121,90.55c-.7-1.43,2-2.87,3-3.14,0,1.31-2,2.54-3,3.14m.11-13.62c1.26-.23,2.74,1.16,3.78,1.71,1.63.88,3.28,1.72,4.9,2.63.32.18,5.87,3.06,5.16,3.74s-2.09-.66-2.56-1c-1.37-.89-2.81-1.69-4.22-2.5S125,79.82,123.41,79c-.93-.43-2.37-.83-2.29-2.12m2.67-7.35c-.29-1.83,4.83,1.54,5.18,1.74,1.55.9,3,1.95,4.47,3,1.06.72,2.82,1.43,3.36,2.67.4.93-.78.28-1.12.08-1.08-.64-2.1-1.41-3.12-2.15-2.7-2-5.58-4.21-8.78-5.3"/><path class="g" d="M121.59,51.62l6-.57,2.2-3.3,1.38-5.11c-1.09-1.39-2.19-2.69-3.38-4l-1.69.26-2.18-.43c-1.38.59-2.76,1.19-4.15,1.76l-.67,2-1.31.56-.7,2,2.24,5.25,2.32,1.53"/><path class="h" d="M116.73,62.32l4.23-.55,2-1.7,1.43.06,1.85,4.24-.06,4,.56.66,1,0,.26-1.81L127.32,62l.48-2.39L129.53,61c1.95.85,3.91,1.66,5.88,2.46l1.66-3.34-1.63-3.63-1.81-1-2.09-.36a34.26,34.26,0,0,0-4.11,3.46l-.77-.16-1-5.55-1.92-1,1,6.76-4.24-3.34a45.71,45.71,0,0,0-5-1.07l-1.76,1.28-.24,1.61-1.59,2.23.31,2.24,4.54.74"/><path class="h" d="M55.57,26.3l2.94-.14L61,28.08l1.68,0,3.12-4.33a76.38,76.38,0,0,1,7.34-6.51l4.91-2.31,5.95-1,.47-1.76L84,9.06c-2.47,0-4.89.33-7.35.59L74.85,7l-1.69.32,1.43,1.93-1.7,2.84-2.23.3a11.34,11.34,0,0,1,.87-2.7l-.89-1.09c-1.53-.54-3-1.08-4.5-1.77l-1.72-.28L63.36,10l-.12,4.44.89.49,2.44-1.4,1.19,0-1,3-2.68,2.18-4.73-3.57-1.06.56,1.14,2.63,2.67,1.18-.35,2.95L59,24.95l-.42-2.21-1.07-.91L54.79,22l-.37,1.39-2.17.35-1.7,1.75,2.73-.19,2.29,1"/><polyline class="i" points="28.22 94.08 27.66 93.12 27.28 93 26.89 92.56 25.34 92.3 24.31 94.59 25.76 94.82 26.77 94.75 28.22 94.08"/><path class="i" d="M33.29,84.2l1.2-.7a38.32,38.32,0,0,0,2.53-3l.33-2.36-.62-1.94-1.06,1.07.09.61.29.66-.1.64.22,1.49-1.64,1.45-.5.14-.24.24-.55,0-1.46.39.38,1,.28.24.88,0"/><path class="i" d="M46.92,106.08l-1.51-.46a156.25,156.25,0,0,0-20-1.47l.17,2,2.91,5.92,2.41,3.33-.06.06L36,122.09l1.14.66c1.35,1.17,2.67,2.34,4,3.49l1.74.75,3.77.91-.88-3.48,1.3.27L49.28,126l.16-1.18-.61-3.28,2.62,1.19.9.09-.42-3.28,1.67.18-.76-2.77-.11-.23-1.51-1.85-4.3-8.76"/><path class="i" d="M48.34,75.29l-.32,2v.36a10.25,10.25,0,0,0-.32,1.64,20.76,20.76,0,0,0-1,3.07l-.51.9-.07.19c-.82,1.27-1.52,2.6-2.28,3.91l-.57.52-.33.5c-1.29,1-2.49,2.08-3.71,3.19l-.78.37,0,0c-1.23.54-2.43,1.12-3.64,1.68l.39.85.34.07c3,0,5.91,1.09,8.76,1.78C46,97,47.82,97.5,49.57,98c2.57,1.42,5.23,2.74,7.71,4.3l.56-1.22c0-8.32.16-16.48-.78-24.74l-2.7-5.49c-1-1.37-2.09-2.73-3.19-4.06l-4.65,1.31c.39,1.32.89,2.58,1.38,3.86l.44,3.3"/><path class="g" d="M37.16,122.75l-2.11-1.23-2.63-3.76-1.32.11c-2.38,4-3.95,8.4-5.75,12.7l-1.13,4.89a47.93,47.93,0,0,0,2.2,5.94,91.78,91.78,0,0,0-2.23,19.39l1.13,3c2.32,2,4.7,3.83,7.16,5.67,1.83-6.44,3.44-13.07,5.83-19.34,2.45-6.45,5.94-12.39,9.21-18.45q-5.2-4.42-10.36-8.88"/><path class="g" d="M54.17,70.49c1,2,1.93,3.93,2.9,5.9.92,8.1.72,16.06,1.06,24.2l9.51,5.53,17.94,4.71,1.43-4c-2.8-8.4-4.61-15.75-4.65-24.66l-.66-.09-6.13.18-3.49,1L72,83.22h0l-1.48-1A56.92,56.92,0,0,0,63,71.38a76.15,76.15,0,0,0-7.19-4.84l-3.07-.92-1.7,1.07c1,1.26,2.07,2.52,3.11,3.8"/><path class="g" d="M59,106.51l-.33,1.28L58.56,114l-2.42,2.27-2.92,1.24a78.41,78.41,0,0,0,5,8.13l1.31,1.25a8.14,8.14,0,0,0,1.92.53l.43.32.42.15a15.46,15.46,0,0,0,2.17,1.76c.37.43.74.84,1.14,1.24s.82,1,1.26,1.43l.45,1,.54.8a21.18,21.18,0,0,0,1.5,4l0,1.39.37,1.38,15.91-25,0-.43-25.23-9H59"/><path class="g" d="M51.16,161.35l-1.46.07-.35,5.42.49,3.59.7.56,6.2-9.92a34,34,0,0,0-4.91.51l-.68-.25"/><path class="g" d="M98.66,82l-1.37,1.23c-.91,5-1.8,9.94-2.38,15l1,1.42c3.65-5.26,7.11-10.64,10.56-16l-3.34-1.37-2.58-.31L98.66,82"/><path class="h" d="M68.18,135.52c-.46-1.06-.9-2.13-1.35-3.19l-2.39-2.67-3-2.23L59.18,127c-.26,5.42-.34,10.86-1.07,16.23a62.11,62.11,0,0,1-3.2,7.42l-.48,3.21-1.58,3.07-3,2.56-.49,1.24,2.44.89,5.21-1c4.13-6.35,8-12.89,12.15-19.19l.12-3.21-1.15-2.7"/><path class="h" d="M18.38,107.82l6.93,5.71,4.84,2.63.71-.75-5.14-7.06c-.13-1.45-.25-2.92-.38-4.37,7.2.14,14.61,0,21.57,2.1l4.29,8.76,2,2.48,3.5-1.76,1.77-2.74c-.13-3.26,0-6.5-.07-9.76-2.91-1.77-5.9-3.37-8.88-5A111.19,111.19,0,0,0,37,94.75c-4.11-.74-8.54-.11-12.67.17L21.17,98.8l-3.38,6,.59,3.06"/><path class="h" d="M59.81,68.85,63,71.31A90,90,0,0,1,70.8,82.1l1.28,1.17,3.7-1.07L80,81.85l5.74.78,2.34.73L93.32,82l5.59-.26,7.13.85.74-1.69L106.6,80l.13.41.89,1.34c1.76-2,2.55-4.63,4.3-6.64l-1.41-2.88a40.4,40.4,0,0,0-8.37-5.92L101,66.9l.83,1.09c-2.09-1.94-4.17-3.69-6.44-5.42l-4.83-1.87L87,62.59l-5.24.67L77.23,63l-2.89-.63L70.74,61l-3.33-2-13,5.58.12,1.29,5.24,3"/><path class="h" d="M27.66,93.12l2.39.82,4.42-.41,4-1.51L43,88.44l3.18-4.94,1.53-4.16.62-4L47.9,72l-1.13-3-1.62-.81-4.07,2.5-2,1.76L36.59,75.8c.26.79.5,1.58.76,2.38-.12.83-.23,1.65-.35,2.48-.82,1-1.62,1.95-2.51,2.85l-1.2.7c-1,0-1.9,0-2.85,0-1.51,2.41-3,4.85-4.47,7.28L27.28,93l.39.13"/><path class="h" d="M34,82.3l1.73-1.79.3-1.94-.56-1.31a24.86,24.86,0,0,0-3,3.87l-.29,1.32,1.59.09L34,82.3"/><path d="M66.74,13.84a3.15,3.15,0,0,1-.89,2.95c-.61.67-2.1,1.58-3,.87s-.38-1.76-1.49-2.25a9.32,9.32,0,0,0-3.58-.81,5.21,5.21,0,0,0,.59,2.84,4.8,4.8,0,0,0,.8,1.17,8.85,8.85,0,0,0,2,.76c1.71.78-.7,4.71-2.12,4.92a1.51,1.51,0,0,0-.14-1.74c-.31-.4-1.11-1.43-1.67-1.39-.81,0-2.69,0-3.13.92-.15.31-.08.83-.48.88a4.89,4.89,0,0,0-1.36.2c-1,.41-2.64,1.52-2.66,2.76,0,.33,1.77,0,2,0A6,6,0,0,1,55,26.7c.92.44,2.12-.33,3.14,0s2.2,2.29,3.48,2.13c0,1.66-1.1,3.11-2.06,4.37-1.13,1.5-2.16,3.06-3.15,4.66-2.14,3.47-4,7.09-6.06,10.59s-2.52,7.23-3.09,11.22c-.27,1.89-.9,3.71-1.31,5.56a4,4,0,0,1-2.29,3.22c-3.38,1.44-5.95,4.95-8.16,7.76a112.16,112.16,0,0,0-6.82,10.1c-2.16,3.45-4.19,7-6.45,10.36-1.15,1.71-2.32,3.41-3.39,5.17-.89,1.44-2.21,3.08-1.51,4.85.89,2.28,3.32,3.84,5.2,5.25,1.25.93,2.55,1.78,3.88,2.6s2.81,1.24,3.78,2.27-.19,2.16-.59,3c-.73,1.49-1.41,3-2,4.55a57.08,57.08,0,0,0-3.3,8.95,7.38,7.38,0,0,0,0,4.2c.44,1.24,1.91,2.9,1.73,4.28s-.76,2.79-1.07,4.17a27.88,27.88,0,0,0-.73,5c-.06,1.56-.32,3.1-.36,4.66s0,3.19.08,4.8c.16,3.24,2.33,4.66,4.63,6.59a97,97,0,0,0,8,5.9,57.05,57.05,0,0,0,8.56,5.23c.58.26.61.3,1-.25a10.92,10.92,0,0,0,1-1.52c.25-.54-.43-1-.53-1.6a11.23,11.23,0,0,0-.63-3c-.53.24-2.38,2-2.82,1.43-.79-1-.59-2.31-.84-3.51-1,.17-1.8,1.27-2.76,1.66a15.28,15.28,0,0,1-.41-3.47c-1.14.16-1.89,1.21-3,1.41-.13-.92.06-2.33-.32-3.16-.16-.36-.64-.84-1-.41a1.81,1.81,0,0,1-1.14.77c0-.48.38-3.49,1.38-3.31a14.16,14.16,0,0,1,3.95,2c1.43.84,2.89,1.68,4.33,2.5,2.19,1.26,5.93,2.08,5.75,5.19a4.94,4.94,0,0,0,1.54-2.43c-1,.39-.69-2.08-.72-2.5a21.43,21.43,0,0,1-.16-2.51c0-.89-.39-2.09-.11-2.92.41-1.21,2.55-.36,3.49-.48,1.61-.22,3,0,3.94-1.54-1,.25-7.37,2.09-7.32-.32,0-1.83,2.83-1.4,3.89-1.43a11.27,11.27,0,0,0,2.91-.54,13,13,0,0,1,1.34-.41c.31-.06.91.16,1.12-.17a9.87,9.87,0,0,0,1.17-2c-2.73,1.2-4.87,2.59-8,2.51,1.16-.94,2.71-1,4.11-1.24a10.47,10.47,0,0,0,3.9-2c.35-.24.69-.21,1-.54a9.14,9.14,0,0,0,.93-1.51,18,18,0,0,0,2-4.13c.92-3.55,1.24-7.61-.23-11.05a9.74,9.74,0,0,0-2.41-3.45c-.77-.69-2.36-1.85-1.91-3.09a15.13,15.13,0,0,1,5.6,7.7,14.92,14.92,0,0,1,.73,5.06c-.06,1.26-1,2.77-.83,4a5,5,0,0,0,1.33-1.95,4.91,4.91,0,0,0,.27-2.59,18.24,18.24,0,0,0-1.39-6.56,12,12,0,0,0-3.32-4.58c-1.35-1.16-3.13-2.07-2.81-4.13.07-.43,1-.5,1.39-.4,2.28.76,4.68,3.23,5.93,5.23a18,18,0,0,1,2.49,8.87c1.56-1.23.48-3.77-.06-5.25a14.84,14.84,0,0,1-1.13-3.8,15.74,15.74,0,0,1,.73-4.42c.66-2.91,1.44-5.79,2.37-8.63.42-1.3,1.61-7.08,3.67-6.76a3.82,3.82,0,0,1,1.51.57c1.28.78.49,2.54.25,3.69-.43,2-.88,3.91-1.32,5.87-.86,3.83-.88,7.82-1.64,11.67,1.33-.73,1.25-2.33,1.37-3.6.17-1.9.37-3.81.72-5.69s.53-3.6.93-5.38.67-3.88,1.72-5.32c.61-.83,2-.29,2.76,0,1.48.48,3,.89,4.42,1.47.45.18,1.1-1.3,1.27-1.57a3.33,3.33,0,0,0,.32-2.95c-.54-2.23,1.39-5.75,3.9-5.71a2.63,2.63,0,0,1,.87.18c.52.21.53-.3.8-.73.61-1,1.29-2,1.94-3a21.6,21.6,0,0,0,1.42-2.45c.35-.75-.51-1.51-.41-2.28a2.88,2.88,0,0,1,.69,1.75c1.47-1.21,0-3.25-.22-4.7-.2-1.15-.53-3.22.68-3.95-.06,2.33.59,4.42.82,6.7.75-.58.6-1.47.46-2.3-.24-1.33-.41-2.68-.52-4a53.81,53.81,0,0,1,.17-7.25c0-.08.46-.08.49,0,.29.3,0,1.3,0,1.66-.12,1.11-.07,2.27-.1,3.38,0,1.44-.08,4.94,1.84,5.4.3-.87-.33-1.85-.63-2.63A6.57,6.57,0,0,1,98.78,89a25.29,25.29,0,0,1,.55-6.7c1.42.49,3,.21,4.43.53.17,0,2.61,1,2.74.83s1.59-2.14,1.18-2.44a1.57,1.57,0,0,1-.62-1.2c.29.15,1.15.67,1.47.53s.66-1.1.89-1.48a16.16,16.16,0,0,0,1.69-2.91,3.25,3.25,0,0,0-1.47-.29c0,.8-.27,3.29-1.65,2.09-.45-.39-1.11-.85-1.18-1.5,0-.21.76-2.42.44-2.49-.85-.17-1.95.61-2.36-.58-.06-.18-.67-1.87-.24-1.86a2.49,2.49,0,0,0,1.64-.46c-.37-.68-1.6-1.1-2.24-1.52-.14-.09,0-.9,0-1.08,0-.57,1.27.08,1.48.2a3.06,3.06,0,0,1,1.6,2.7c.2,2.48,2.75,3.26,4.73,3.81.6-2.23-1.51-3-2.4-4.81a17.27,17.27,0,0,1-.81-2.9,5.51,5.51,0,0,1-.48-2.53c1.37.2,2.39,1.43,3.43,2.22a31.51,31.51,0,0,0,3.61,2.67c0-.23.31-.6.27-.73s-1.09-.66-1.25-.79c-.63-.51-1.3-1-2-1.45a24,24,0,0,1-3.85-3.06,7.51,7.51,0,0,1-1.67-3.73c-.44-1.75-.91-3.49-1.4-5.24-1-3.43-1.78-6.9-2.69-10.34-.46-1.72-.86-3.45-1.34-5.16-.2-.71-.42-1.42-.62-2.12-.14-.45-.63-1-.49-1.46.36-1.23,1.23-2.13,1.36-3.46a4.92,4.92,0,0,0-1.43-3.52c-.87-1-.42-1.9-.61-3.12s-1.1-1.95-2.25-2.6-1.54-1.91-2.27-3a12.49,12.49,0,0,0-3.2-3,21.39,21.39,0,0,0-3.51-2c-.52-.23-3.29-.84-3.31-1.57A18.9,18.9,0,0,0,85,10.06c-.13-.61-.21-2.18-1-2.14a5.53,5.53,0,0,0-1.72.41,4,4,0,0,0-.47-1,4.65,4.65,0,0,1-3,1.45c-.68,0-2.25,0-2.28-1,0-.5.26-1-.32-1.19-.82-.24-1.65.2-2.49.07-.62-.09-1.47-.29-1.82.42.77.11,2.38,1.65,2.09,2.47-.38,1.07-1.73,2.36-2.95,2.21.2-.52.48-1,.7-1.52.3-.75-.11-1-.6-1.58-.81-1-1.88-.84-2.95-1.18.24-.13.48-.73.11-.74a23.26,23.26,0,0,1-3.5-.55c-1.39-.23-1.55,2.48-1.83,3.31a10.13,10.13,0,0,0,0,5c.13.6,1.51.78,2,.76.91-.06,1.38-.75,1.82-1.38m-1.54-7c.35.79,1.15.69,1.86.56.27,0,.49,1.74.54,2,.63-.3,1.29-.93,2-.69.32.1,1.43.39,1.4.82s-.47,1.92-1.15,1.91S68.59,10.33,68.11,10a4.9,4.9,0,0,0-2.68-.86c-.12,0-.19.87-.79.72.11.78,1,.7,1.2,1.27s-.71,1.44-.79,2a1.31,1.31,0,0,0,.75-.23,1.57,1.57,0,0,1-2.07,1.5c-.68-.29.22-2.34.76-2.5a15.31,15.31,0,0,1-.54-2.29c.38-1,0-2.69,1.26-2.66m9.39.49c-.33.6-.46.6-.74,0l.74,0m9.1,2c-.5.73-1.59.63-2.37.73a18.88,18.88,0,0,0-3.88,1.11A28.49,28.49,0,0,0,70,15a31.68,31.68,0,0,0-5.33,5.4c-.89,1.09-1.75,2.2-2.64,3.29-.58.71-1.56,2.45-2.57,2.6-.14-1,.94-1.82,1.5-2.51l2.7-3.32a28.24,28.24,0,0,1,5.46-5.61c4.42-3,9-5.46,14.53-5.49M76,9.64c.12.65-.49.64-1,.71.08-.44.48-1.65,1-.71m6.91.93c0,.77.75,2.54,0,2.9a6.89,6.89,0,0,1-1.1.29c-.17-1.18.72-1.61-.17-2.73a3,3,0,0,1,1.25-.46M67.79,11.66c-.46-.07-1.14-.12-1-.77.43.1.93.28,1,.77m12.39-.42a4.59,4.59,0,0,0-.29,1.47,1.77,1.77,0,0,1-.41-1c-.11-.64.08-.52.69-.49m3.95.35a.6.6,0,0,1-.75.48,1.27,1.27,0,0,1,.75-.48M70,12.45a2,2,0,0,1-.77,1.1c-.41.29-.68.47-1,0-.59-1,1.11-1.32,1.72-1.11m6.2-.09c-.18.94.51,1.61.67,2.49-.14,0-1,.31-1,.16a6.15,6.15,0,0,1-.65-2.14c0-.45.57-.45,1-.51m4.92,1.13c-.42.61-1.39.2-1-.52a5.18,5.18,0,0,1,1,.52m-6.67-.42a8.14,8.14,0,0,1,.22,1,2.83,2.83,0,0,0-1.49.21c-.2-.61.8-1.1,1.28-1.21M72.68,14c.1.79-2,1.49-2.53,2s-.74,1,0,1.42,1.16-.08,1.74-.21a9.48,9.48,0,0,1-2.24,2.3c-.39.32-1.28,1.43-1.82,1.32s-.69-1-1.46-1a1.76,1.76,0,0,1,.64-1c.53-.4.54.09,1,.39.67.43,1.5-1.3.13-1.35a4.12,4.12,0,0,1,1.78-2.13c.84-.66,1.66-1.57,2.78-1.72m22.55,8.52c-1.27-.8-2.07-2.29-3.18-3.29a8.58,8.58,0,0,0-4.87-2.19,23.49,23.49,0,0,0-5.38.48c-2,.27-4,.58-6,1a11.27,11.27,0,0,0-4.63,2A20.27,20.27,0,0,0,67.7,25c-1.06,1.54-2.11,3.08-3.25,4.56-1,1.29-2.39,2.76-2.44,4.48,1.47-.22,1.87-2.39,3-3.14a11.18,11.18,0,0,1-1.6,4.69c-.82,1.52-.39,3.24-.84,4.86-1,3.61-2.56,7.2-3.86,10.72a93.59,93.59,0,0,1-4.25,10.43c-.72,1.4-1.14,3-2.51,3.93-.18.12-3.25,1.64-3.23,1.22,0-1.26,1.08-2.94,1.6-4.07.75-1.63,1.65-3.18,2.42-4.8s1.44-3.37,2.28-5a32.33,32.33,0,0,0,2.12-4.75c.5-1.6.28-3.42.38-5.09a19,19,0,0,1,1.18-5.22,56.24,56.24,0,0,1,4.41-9.61c3.35-5.64,8.79-11.1,15.23-13A15.12,15.12,0,0,1,88.84,16c2.33,1,6.52,3.48,6.39,6.48M73.89,15a2.22,2.22,0,0,0,1.23.28,1.93,1.93,0,0,1-1.26.71,1.23,1.23,0,0,1,0-1m-14.36.61c.28.48.81.8,1,1.3s.4,1.28-.34,1.15a1.44,1.44,0,0,1-1.16-1.16c-.19-.57-.58-1.51.45-1.29M71.4,16a1.51,1.51,0,0,1-.75.48A1.23,1.23,0,0,1,71.4,16m2,.3a1.49,1.49,0,0,1-1,.71,1.44,1.44,0,0,1,1-.71m13.33,1.58c-.17.93-.51,2.38-1.55,2.68a11.18,11.18,0,0,0,.31-2.22c-.36.44-.51,1.17-1,1.43a4.2,4.2,0,0,1-2.23.7,2.18,2.18,0,0,1,.52-1.23c-.73.1-2.73.86-2.9,1.62-.33,1.47,1.65.78,1.56,2.31C80.18,23,79,22.94,78.7,21.59a3.71,3.71,0,0,1,.8-2.3,4.09,4.09,0,0,1,2-1.09,13.54,13.54,0,0,1,2.74-.45,4,4,0,0,1,2.49.08m5.57,4.35a23.9,23.9,0,0,0-2.81-1.87,3.46,3.46,0,0,1-2-2.45c1.21,0,2.45,1,3.47,1.56a2.75,2.75,0,0,1,1.37,2.76M68.61,18.36l-.26.24a2.81,2.81,0,0,0,.26-.24m-5,.6a1.29,1.29,0,0,1-1,1.21l0-1.2a4.58,4.58,0,0,1,1,0m14.09.39c0,.6-.36,1.57-1,1.7,0-.7.23-1.6,1-1.7m16,3.88c-.94.19-.71-1.23-.69-1.75,2.35,1.35,3.57,5.2,3.51,7.77-.45.06-.84-.2-1.29-.18a6.3,6.3,0,0,0-1.87.28,4.49,4.49,0,0,0-2.24,1.77c-1.42,2-.68,4.73-.23,6.94.13.6,1.31,6.16.12,6.16a3.3,3.3,0,0,1-1.87-.74,3.51,3.51,0,0,0-2.64-.37l0-1.24c-.53.33-.94,1.35-.44,1.85s1.36.39,2.11.51,1.36.71,2.09.52c.91-.24,1.58-.31,1.67-1.35.24-2.87-.92-5.63-.79-8.48,0-.27.75-.11,1-.11-.22.9-.17,1.49.69,2a8.14,8.14,0,0,1-.22-1,3.38,3.38,0,0,0,1.69-.18c.48-.26.73-.92,1.32-1a11.18,11.18,0,0,1-.31,2.22,2.63,2.63,0,0,1,1-.22c.57,4.8-1,9.72-3.32,13.88-1.85,3.29-5,6.42-9.06,5.69a21,21,0,0,1-6.27-2.76c-1.95-1.08-3.16-3-4.95-4.31A20,20,0,0,0,79.43,55c2.85,1.51,5.54,2.36,8.73,1.58,1-.25,1,3.66.77,4.21-.56,1.41-2.44,1.64-3.74,1.88a27.94,27.94,0,0,1-5.53.32c-3.49-.1-7.8-.86-10.44-3.33-1-.9.16-3.26.42-4.29A53.92,53.92,0,0,0,70.7,50a3.07,3.07,0,0,1,.71-2c.35-.35.94-.92.9-1.47a43.93,43.93,0,0,1,.17-6.15c-.66-.17-.67.94-1,1.4s-4.32-4.76-2.15-4.44a8.56,8.56,0,0,1-.22-1c1,.25.78,1.78,1.67,2.27C70.61,37.76,72,38,72.55,38c-.1-.88-.6-1.76-.41-2.66a16.78,16.78,0,0,1,1.8-3.5c1-2-.63-4.12-.58-6.19A3.31,3.31,0,0,0,76,25.1a5.27,5.27,0,0,0,1.43-1.92c.25-.42.13-.37.6-.27,1,.2,2,1,3,.8.77-.17,1-1.1,1.57-1.46s1.65-.36,2.4-.74a12.94,12.94,0,0,1,2-1.12c.79-.24,1.75.44,2.31.94s0,2.32,1.26,2.62a2.94,2.94,0,0,0,3.09-.72m-19.48-3c.33.71.42,1.6,1.19,2l0-1.24a3,3,0,0,1,.6,1.56c0,.14.3,1.44.27,1.48a1.81,1.81,0,0,1-1.72.89c.17-.53.87-.87,1.27-1.21-.87.17-1.58-.77-1.69-1.52-3.88.94-2,6.71-2.65,9.28-.45,1.82-2.66,2.4-3.42,4.08a3.22,3.22,0,0,0-.26,2.83,9.26,9.26,0,0,1,1.24,2.81c.13,1-.34,2.37-1.65,2.12C67.7,41,66.2,39,66.9,36.65a10,10,0,0,1,1.6-3.12c.59-.8,1.69-1.5,2.07-2.42.82-2-.08-4.31.42-6.41.4-1.62,1.35-4.23,3.27-4.45m-7.69.53c-.25.47-.45.88-1,1,0-.25.13-.49.2-.73s.45-.24.82-.23M91,22.65c0,.25-.14.87-.5.48s.26-.54.5-.48M57.13,22c0,.15-.13.9,0,1s1,0,1.24,0c0,1-.57,1.44-1,2.2-.23-.39.1-.88.28-1.23-1-.07-1,.08-1-1a6.93,6.93,0,0,1-1.74.21c0-1.18,1.43-1.09,2.27-1.18m8.63,1c-.24,1.25-1.46.48-2.24.44.07-1.52,1.41-.64,2.24-.44m5-.12a10.15,10.15,0,0,1-.81,2.7c-.25-.17-.48-.37-.73-.51-.42,1.78,0,3.38-.14,5.17-.07,1.37-.49,3-1.82,3.7a5.7,5.7,0,0,1,.08-2c.22-.57.6-1.07.82-1.65.36-1,.5-2.36-.48-3,.28,1.52-.06,3.61-1.6,4.41a9.08,9.08,0,0,1,1.38-5c.52-.76,1.11-1.48,1.63-2.25.42-.6.86-1.48,1.67-1.58m27.92,1.72a2.36,2.36,0,0,0-.52,1.23A3.33,3.33,0,0,1,96,23.88c-.11-.35.78-.24.91-.23a3.15,3.15,0,0,1,1.76.94m-25.71-.93a15.08,15.08,0,0,0-.23,3.46c.18,1.15.86,2.18.77,3.36a8.35,8.35,0,0,1-1.41,3.17c-.43.8-.54,2.21-1.21,2.83-1.76-1.76,2-4.19,1.83-6-.15-1.4-.26-2.79-.39-4.2-.07-.84-.25-2.08.62-2.6m-18.58.51a5.06,5.06,0,0,1-2.74.67,2.37,2.37,0,0,1,2.74-.67m8.15.46c.47.38,1,.69,1.45,1-.27.46-1.09,1.42-1.7,1a2.14,2.14,0,0,1-.4-1.07,1.45,1.45,0,0,1,.64-.91m-6.2.58a.76.76,0,0,1-1,.22.78.78,0,0,1,1-.22m5.15,2.12c.17.76-.29.44-.49,0a2.07,2.07,0,0,1,.49,0m37.09,1.22A3.22,3.22,0,0,1,99.9,31c.19.91-.93,1.78-.75,2.73.51-.53,1.06-1.73,1.78-1.93a3.41,3.41,0,0,1-1.25,2.09c-.8.88-.59,1.84-1,2.86-.25.57-1-.52-1.11-.86a5.17,5.17,0,0,1,.63-3.55,3.3,3.3,0,0,0,.42-2.14c-.1-.51-.43-1.21,0-1.67m-23.1,3.1a8.11,8.11,0,0,0,2.09-1.15,8,8,0,0,1,2.92-1,8.41,8.41,0,0,1,2.94.22,28.71,28.71,0,0,0,3.22.69c-2.31-3.23-9.4-2.18-11.16,1.19m-5.38-2.36c0,.25,0,.49,0,.74a.54.54,0,0,1,0-.74m26.62,4.16A17,17,0,0,0,93.84,32c-1-.36-1.89.66-2.84.8-.09-.46.48-1.91.91-2.06,1.3-.44,4-1.63,4.8.2a2.54,2.54,0,0,1,0,2.5m-20.06.22c.17,1,1.15,1.74,1.66,2.51a1.48,1.48,0,0,0,.28-1c1.23.84,3.78,1.35,5.19.63a8.14,8.14,0,0,1,.22,1,2.76,2.76,0,0,0,1.3-2.2,4.79,4.79,0,0,1-1.49.21c.52-.57,1.73-1.44.85-2.19a3.36,3.36,0,0,0-3.51-.76,38,38,0,0,0-4.48,1.77m7.44-.54a22.18,22.18,0,0,0-3.71-.1c.8-1,3.27-1.41,3.71.1M95,32.67a4.26,4.26,0,0,1-2.48.43c.2-1,1.82-.8,2.48-.43m-.51.71a2.59,2.59,0,0,1-.28,1c-.29-.41-.48-1.15.28-1m-11.64,0c0,.3-.14,1.36-.76.72a2.67,2.67,0,0,1,0-.74c.09-.09.62,0,.74,0M80.05,35a2.29,2.29,0,0,1-1.23-.28.68.68,0,0,1,1.23.28M66,34.12a28.92,28.92,0,0,0-.58,3.45c-.87-.86-.39-2.86.58-3.45m15.82.66a2.79,2.79,0,0,0,1,.28c-.4.3-.81.12-1.24,0a2,2,0,0,1,.26-.25m42.7,22.91c-2.07-.39-3.07-2.78-5.1-3.34-2.28-.62-4.49-.86-6.08,1.22a4.21,4.21,0,0,0-.49,1.33,9.3,9.3,0,0,1-.83,1.46,4.75,4.75,0,0,0-.72,3c.25,1.13,1.72.93,2.63,1,1.43.08,2.38.86,3.8.41a4.6,4.6,0,0,1,1.84-.4,3.72,3.72,0,0,0,1.67-.26c.76-.33,1.7-2.12,2.67-1.56,1.43.8,1.66,3,1.85,4.47a14.24,14.24,0,0,1,.08,2.51c-.06.94.09,1.1.78,1.67.2.17,1.3.44,1.43.17,1.39-2.81-1.06-6.16.08-9.1,1,1,1.94,2.19,3.36,2.48a7.75,7.75,0,0,1,2.25.9c.58.31,1.36.47,1.74-.22-1.23-.68-2.26-2.1-3.78-2.06-1.77,0-2.24-2.3-3.78-2.34A3.25,3.25,0,0,1,131.77,58a6.47,6.47,0,0,1,1.9,1.32c.54.59,1,1.45,1.85,1.69,0-2.71-3-3.73-5.09-4.33a1.43,1.43,0,0,1,1.66-1c.89.26,1.94.19,2.56,1A26.48,26.48,0,0,1,137,60.31c1.11-.73-.63-2.67-.93-3.46-.4-1-1.24-1-2.2-1.4-.55-.21-1.6-1-2.21-.63a6.33,6.33,0,0,0-2.21,1.56,4.31,4.31,0,0,1-2.55,1.68c-.19-1.92-1.74-4.29-.17-5.95a13.14,13.14,0,0,0,2.55-2.78,25.54,25.54,0,0,0,1.9-3.74,4.7,4.7,0,0,0-.07-3.38A11,11,0,0,0,130,40.79c-.42-.47-.51-1.1-1-1.52a6.89,6.89,0,0,0-1.26-.79c-.61-.36-1.37.14-2,.17-1.16,0-2.07-.72-3.25-.17-.47.22-.82.59-1.29.8a10,10,0,0,0-1.56.68c-.55.39-.71,1-1,1.55s-1,.88-1.44,1.39c-1.93,2.25.61,6.29,2.31,8,1,1,2.68,1.36,3.56,2.46a8.58,8.58,0,0,1,1.43,4.31M64.16,37.05a29.32,29.32,0,0,1,.41,3.23,3,3,0,0,1-.41-3.23m36.36,1c1,2.1,1.11,4.66,1.74,6.9q1.2,4.23,2.3,8.49c.7,2.75,1.39,5.5,2.08,8.25s1.84,5.27,2,8a7.17,7.17,0,0,1-2.39-1.31c-1.1-.69-2.27-1.25-3.34-2-.69-.49-.78-1.69-.9-2.44-.23-1.41-.51-2.8-.83-4.19-.73-3.17-1.45-6.32-2.17-9.5-.34-1.48-.68-3-1-4.45-.22-1-.5-2,.18-2.88A4.32,4.32,0,0,0,99.42,40c0-1,.16-1.55,1.1-2M127,45.88a4.56,4.56,0,0,1,.33-2c.34-.62,1-1.4.77-2.16-1,.29-1.06,1.2-1.42,2s-1.66,1-2.39,1.38c0-1.1.3-2.13.33-3.21-1.49,0-1.08,1.73-1.06,2.69-.15,0-.9-.13-1,0s0,1,0,1.24c-1.72-.38-1.07-2.57-2.19-3.29a3.06,3.06,0,0,0-.69-.3c0-.23-.06-1.08.12-1.2.65-.46,1.08-.66,1.64,0,.53-.59,1-1.28,1.44-1.91s1.43,0,1.93.43c1,.78,1.56-.36,2.6-.36s1.69,1.33,2.13,2c.6.89,1.36,1.51,1,2.69-.09.32-.09.8-.45.94-.91.34-2.15,1.11-3.13,1.1M97.78,38.66a4.39,4.39,0,0,1,.92,2.75,2.07,2.07,0,0,0-1.48,0c-.21-.75-.22-2.23.56-2.71m-40.07-.79c-.26,2.54-1.25,4.83-.79,7.44a7.73,7.73,0,0,1-.72,3.63,36,36,0,0,1-1.56,3.85c-1.2,2.47-2.38,5-3.62,7.41-.61,1.21-1.13,2.44-1.65,3.68-.41.94-.8,2.66-1.65,3.32a3.55,3.55,0,0,1-1.65.32c.28-2.78,1.57-5.35,1.9-8.14a28,28,0,0,1,1.68-8,73.49,73.49,0,0,1,3.84-7.31,34.81,34.81,0,0,1,2.33-3.75c.58-.81,1-1.95,1.91-2.43m8.36,1.7c.41,2-.45,3-1.4,4.66s.41,2.75,1.92,3.28c.08-.26.4-1.72.62-1.71.41,0,.53.06.57.5.07.75-1.25,2.09-2.1,1.83-.61-.18-1.21-.55-1.81-.69.43.91,1.44,1,1.91,1.75,1,1.57.12,3.26-.36,4.87-.54,1.86-.94,4.09-2,5.75-.87,1.42-3.24,1.83-4.66,2.43-.84.36-1.7.67-2.51,1.08-.63.32-1.5.88-2.25.69a16.24,16.24,0,0,1,1.72-4.19c.81-1.66,1.5-3.4,2.15-5.14,1.32-3.52,2.8-7,4.07-10.52a2.72,2.72,0,0,1,.63,1.33c.25.69.81,1.22,1,1.94a5.22,5.22,0,0,0-.15-2.21,3.71,3.71,0,0,1,.64-2c.34-.64,1-1.13,1.19-1.83a4.39,4.39,0,0,1,.76-1.84M118.45,43c.31,0,.81-.07,1,.17s1.44,1.5,1,2.06c-.1.15-.62,1-.75,1a3.29,3.29,0,0,1-2-1.45,1.18,1.18,0,0,1,.71-1.78m-21.53.09c.89,3.75,1.64,7.54,2.42,11.32s2.12,7.53,2.18,11.32c-1.87,0-3.85-1.59-5-2.94C94.83,61,95.22,58.21,95,55.88c-.13-1.26-.16-2.51-.33-3.77s.41-1.86,1.1-2.88c1.16-1.72-1.08-4.75,1.17-6.13m-26.74.3a2.2,2.2,0,0,1-.31,2.22,1.24,1.24,0,0,1,.31-2.22M67,43.56c-.08,1.1-.54,2.07-.58,3.21-1.15-.21-1-1-.94-2,.06-.56,1-1.11,1.52-1.25m59.78,4c1.11-.5,1.77-1.59,3-1.9a1.44,1.44,0,0,1-.13,1.24c-.21.49-.36.75-.91.47-.33.89-.32,2.23-1.31,2.69a7.29,7.29,0,0,1,.29-1.72,8.58,8.58,0,0,0-1.32,1.37c-.38.58-.87,0-1.43-.2a4.2,4.2,0,0,1-.78,1.46,2.34,2.34,0,0,1-.47-1.25,1.87,1.87,0,0,1-1.74.45c0,.57.16,1.23-.62,1-1.82-.66-2.8-2.51-3.26-4.27.48.09.82.5,1.28.6s.87.23,1.2-.12.34-.91.9-.83c.84.13,1.64,1,2.29,1.49a4.28,4.28,0,0,1,1.48-2.24c1-.63,1.32,1.17,1.51,1.8M71.38,44.92c0,.1.51,2.52-.15,2.19a1.3,1.3,0,0,1,.15-2.19M87,45.57c.53.8,2.68.72,3.45.34-.37-.63-2.89-.49-3.45-.34m-2,.19a8.75,8.75,0,0,0-.53,1.47c2.06.06,4.12.45,6.18.11.81-.13,1-.63,1-1.41-1.21.78-2.62.65-4,.65-.51,0-1.38.16-1.78-.25s-.43-.67-.9-.58M69.84,47.11a1,1,0,0,1-.78,1.46,1.65,1.65,0,0,1,.78-1.46m25.47.66a1.89,1.89,0,0,1-.53,1.47,1.31,1.31,0,0,1,.53-1.47m-5.22.6a6,6,0,0,1-3.72.4c.26,1.5,4.36.69,3.72-.4M69.25,50.79c-.72.12-2.69-1.3-1.62-1.63.76-.25.89-.11,1.61.26.4.21.06,1.11,0,1.38m17.83-.51c.46.35,1.71.13,1.94.67.31.73.81,1.69.06,2.32S87.91,54.53,87,54.34a7.74,7.74,0,0,0-2.68-.44c.11.9,2,1,2.65,1.23,1,.26,2.11-1,2.6-1.7a2.05,2.05,0,0,0,.1-2.69c-.47-.61-.48-.74-1.24-.81a3.37,3.37,0,0,0-1.31.35m-11.62-.55a.93.93,0,0,0,.72.76.81.81,0,0,0-.72-.76m1.45,1c.13.29.18.59.48.75a1.51,1.51,0,0,0-.48-.75m16.82.45a26.08,26.08,0,0,1,.82,5.25c0,.5.56,4.64.21,4.75a2.92,2.92,0,0,1-3.29-2c-.5-2.84-.68-6.38,2.26-8m-15.84.08c.12.44.23.87.71,1a1.49,1.49,0,0,0-.71-1m-10.64,0a14.86,14.86,0,0,1-1.18,3.93,25.53,25.53,0,0,1-1.51,4.41c-.47-.5,0-1.4.2-1.92.31-.91.55-1.84.81-2.76.17-.61.83-3.9,1.68-3.66m59.68,17.41a8.44,8.44,0,0,1-.38-2.18,14.86,14.86,0,0,1-.29-2.1,6.51,6.51,0,0,0-.86-3.6c-.37-.5,0-.8.08-1.34a5.66,5.66,0,0,0-.29-1.94,40.58,40.58,0,0,1-1.32-4.77c1.19,0,1.35,1.66,1.45,2.51a24.41,24.41,0,0,0,1.21,4.95,5.32,5.32,0,0,1,.19,2.2A19.79,19.79,0,0,0,127,65c.13.93.88,2.9-.09,3.62M79.11,51.79a9,9,0,0,0,.22,1c.31-.36.07-.69-.22-1M68.48,52a7.3,7.3,0,0,1-.55,2.22c-.48-.56,0-1.87.55-2.22m11.86.56c.12.44.23.87.71,1a1.47,1.47,0,0,0-.71-1m1.23.51a1.47,1.47,0,0,0,.71,1c-.06-.43-.22-.93-.71-1m1.48.3c0,.16.4,1.55.77,1.2s-.43-1-.77-1.2m37.54,3a7.89,7.89,0,0,0-5.51,2.57,7.51,7.51,0,0,0,2.27-1.14,5.41,5.41,0,0,1,2.81-.54c1.56.09,3.51.71,4.31,2.18a3,3,0,0,0-1.6-.1c-.82.36-1.17,1.33-1.91,1.77s-1.42-.41-2.2,0c-1,.51-1.43.88-2.54.51s-2.4.06-3.46-.45c-.37-.18-.48-1-.43-1.32a2.37,2.37,0,0,1,.79-1.46c.17-.17,1.49-.87,1.49-1,0-.76-1.23-.6-.73-1.43.79-1.31,2.57-1.45,3.95-1.25.87.13,2.64.61,2.76,1.67M67.66,54.47c-.06.92-.5,3.95-1.59,4.17a12,12,0,0,1,.81-2.3c.25-.62.28-1.39.78-1.87m23,1.58c0,1.15.71,2.93.14,4-.47-.5-.83-3.55-.14-4m.84,5.48c0,1.45-3.49,2-4.47,2.31a25.73,25.73,0,0,1-8,.57,28.54,28.54,0,0,1-7.41-1.72c-1.32-.46-4.55-1.2-4.55-3,1.78,0,3.75,1.59,5.29,2.35a14.87,14.87,0,0,0,5.91,1.41,28.38,28.38,0,0,0,6.86-.14,19.39,19.39,0,0,0,3.18-.8,8.42,8.42,0,0,1,3.23-.92m-27.21-.22c.11.72-1.38,1.55-1.82,2a8.71,8.71,0,0,1-2.8,2.2c-.72.25-1.57-.48-2.12-.86-.71-.49-.39-.93.25-1.32A29.94,29.94,0,0,1,61,62c.89-.43,2.32-1.21,3.31-.67m2.47.06A15.9,15.9,0,0,0,69.92,63a18.69,18.69,0,0,0,3.43,1.3c-.94.75-2.76-.56-3.66-.92-.61-.25-3.2-1-2.95-2M65,62.2c.55.19,1.66.37,1.49,1.18A7.41,7.41,0,0,1,64.74,66c-.54.7-1.45,1.91-2.5,1.61a2.17,2.17,0,0,1-1.39-1.15C60,65,64,62.66,65,62.2m28,.6c-.19,1.15-2.54,1.69-3.41,2a21.54,21.54,0,0,1-5.41,1.14,25.65,25.65,0,0,1-10.53-1.16c.84-.6,3,.41,3.93.53a33.31,33.31,0,0,0,5.44.24,29.47,29.47,0,0,0,5.46-1c1.52-.35,3-1.72,4.52-1.75m2.46.32a17.18,17.18,0,0,1,4.5,3.65,16.21,16.21,0,0,1,3.35,4.76,33.56,33.56,0,0,1,2.21,6c.24.94,1.29,3.54.26,4.28-.76.53-2.06,0-2.86-.18a42.17,42.17,0,0,0-4.74-.43,27.64,27.64,0,0,0-9.66,1.5c-1.2.38-2.63-.4-3.82-.67a23.2,23.2,0,0,0-4.78-.8,20,20,0,0,0-4.8.51c-.81.21-2.91,1.52-3.48.56a49.27,49.27,0,0,0-6.95-9.95c-2.72-2.78-6.07-5.8-9.8-7.1-.15,0-.17-.49,0-.55,2.1-.77,4.77,1.69,6.27,2.9a51.75,51.75,0,0,1,5.55,5.17,28.31,28.31,0,0,1,4.21,5.88c.36.68,1,1.65,1.78,1.81,1.3.24,2.84-.36,4.16-.44a30,30,0,0,1,7.64.46c1,.21,2.06.84,3.07.57a30.42,30.42,0,0,1,3.74-.94,28,28,0,0,1,7.55-.28c.79.11,5.93,1.29,6.08,0,.35-3.13-1.49-6.5-3.14-9.06a28.5,28.5,0,0,0-3.16-4.07,16.37,16.37,0,0,0-3.43-3.38c.1-.06.19-.19.28-.23m-35.77,0c-.42.27.06,1.06.48.76s-.08-1-.48-.76m43.81,14c-1-.61-1.43-1.94-2-2.91a38.66,38.66,0,0,0-2.73-4,21.84,21.84,0,0,0-3-3.36c-.8-.72-2.14-1.66-2.14-2.88,1.19,0,2.12,1,2.87,1.75a32.21,32.21,0,0,1,2.93,3.42,27.9,27.9,0,0,1,4,7.95M66,70.75c-1.31-.27-1.77-1.16-2.3-2.26-.22-.44.89-1.81,1.13-2.09a24.41,24.41,0,0,1,2.55-2.5c.55-.46,1.55.18,1.64.76.12.83-.83,1.87-1.23,2.54A17.56,17.56,0,0,0,66,70.75m36.89,8.9c-1.08-.13-2.18-.12-3.25-.34-.62-.12-2.52,0-2.92-.66-1.2-1.9-1.65-4.14-2.54-6.18-.46-1-.9-2.1-1.43-3.11a10.26,10.26,0,0,1-1.43-2.82c-.09-.51-.26-1.09.4-1.3,1.44-.47,2.8,1,3.68,1.93a45.22,45.22,0,0,1,3.34,4.06,42.73,42.73,0,0,1,2.94,4.57c.53,1,1.84,2.68,1.22,3.84m-34-5.85A3.81,3.81,0,0,1,67,72.26c-.87-1.32.28-3.07.84-4.28.37-.78,1.12-2.72,2.14-2.84.79-.08,2.28-.12,2.06,1.14-.48,2.63-2.37,5-3.18,7.51m-6.34-8.58c-.42.27,0,1,.48.76s-.12-.93-.48-.76M95.73,79c-.85,0-3.85.9-4.42,0a10.53,10.53,0,0,1-.91-3.16c-.34-1.39-.68-2.78-1.08-4.15s-.89-2.6-1.26-3.93.43-1.56,1.5-1.5c1.77.09,2.86,3.85,3.41,5.17,1,2.34,2.51,5,2.75,7.59m-23.26-.11c-1.29-.06-3-3.26-2.94-4.37.24-2.5,1.76-4.76,2.79-7,.45-1,1.28-1.67,2.33-1.1.37.2,1.09.42,1,1a32.6,32.6,0,0,1-1.52,5.93,41.12,41.12,0,0,0-1.68,5.58M85.9,66.68c1.82.17,2.33,3,2.65,4.42.24,1,.53,2,.79,3.08a23.77,23.77,0,0,1,1.06,4.38c.1,2-4.39,2.63-5.23,1A4.85,4.85,0,0,1,85.1,77,14.28,14.28,0,0,0,85,74c-.12-1.12-.29-2.24-.45-3.34-.13-.87-.73-2.48-.3-3.32.29-.53,1.11-.58,1.63-.64m16.55,1.57c-.51-.26-.61-.73-.71-1.26a.81.81,0,0,1,.71,1.26m-45,6.49c-1.07-1.61-2-3.31-3.24-4.83-.54-.69-2.7-2.2-2.36-3.21.72-2,5,.63,5.91,1.17,1.1.68,2.08,1.52,3.15,2.25.6.41,1.81,1,1.93,1.83.09.63,0,.93-.65,1.19-1.55.58-3.16,1.1-4.74,1.6M73.2,79.62a27.2,27.2,0,0,1,1.55-6.3c.62-1.93.81-4.54,2.07-6.19a1.65,1.65,0,0,1,1.33-.19c.62.25,1,.31,1,1a44.35,44.35,0,0,1-.34,6c-.1.94-.09,1.89-.26,2.82-.08.45-.2,2-.78,2.14a14.9,14.9,0,0,1-4.59.73M80.7,67c1.15-.07,2.19,0,2.77,1.09.77,1.39.82,3.64.94,5.2a13.94,13.94,0,0,1-.38,6c-.26.66-4.17.17-4.59-.31-1-1.19,0-4.39.09-5.73s.08-2.62.11-3.94c0-.85.09-2,1.06-2.28M57.27,101.71c-1.48-.3-2.88-1.67-4.24-2.34a53.07,53.07,0,0,0-5.34-2.44c-2-.71-4-1.31-6-1.83s-4-.67-6-1.12c.52-.68,2-1.11,2.73-1.53a25.17,25.17,0,0,0,3.06-2.13,18,18,0,0,0,4.76-5.9,23.13,23.13,0,0,0,2.27-7.59,13.88,13.88,0,0,0-.12-4A18.06,18.06,0,0,0,48,71a5.86,5.86,0,0,1-.54-1.87c.06-.78.16-.87.94-1.08,1.29-.35,1.91-.35,2.64.85A40.2,40.2,0,0,1,54.28,76c1,2.7,1.44,5.47,2.26,8.22a27.49,27.49,0,0,1,.72,8.39c-.08,3,.09,6,0,9.06m8.79-33.44c-.25-.08-.58-.26-.84-.15s-.57.46-.42.74c.39.7,1.1-.28,1.26-.59M26.61,91c1.49,0,2.76,1.08,4.3,1.14a11.68,11.68,0,0,0,4.37-.51,15.67,15.67,0,0,0,6.84-5.17,22,22,0,0,0,3.77-7.55,13.13,13.13,0,0,0,.29-5,12.88,12.88,0,0,0-.51-2.51A6.67,6.67,0,0,1,45,68.73c2.89.42,3,5.36,2.82,7.64a19.55,19.55,0,0,1-3,8.9,17.55,17.55,0,0,1-6.6,6.55c-2.66,1.37-6.32,2.33-9.26,1.45-1-.31-2.51-1-2.33-2.26m26.06-21.6c3.68,2.94,4.82,9.33,4.84,13.75-.79-.61-.88-1.88-1.1-2.77A33.42,33.42,0,0,0,55.1,76a42.71,42.71,0,0,0-1.67-4c-.34-.61-1.24-1.92-.75-2.64M27.39,89.79c.31-.49,1.75,0,2.16.12a8.09,8.09,0,0,0,3.2.13,13.87,13.87,0,0,0,7.5-4.53,16.24,16.24,0,0,0,4-7.48,11.82,11.82,0,0,0-.09-4.33,8,8,0,0,0-.53-2c-.15-.34-.52-.91-.41-1.3s.4-1.26.9-.67c1.87,2.19,1.75,5.78,1.26,8.44a19.06,19.06,0,0,1-3.88,8A13,13,0,0,1,34,91.24c-1.46.37-6.21.91-6.66-1.45m81.66-18.4a4.59,4.59,0,0,1,1.68,1.77c-.75.14-2.22-1-1.68-1.77m-41.58.15c.48.29,1.2.07,1.14-.56-.09-1-1,.26-1.14.56M28.4,89.09c-.08-1.42,1-2.81,1.78-3.9a1.91,1.91,0,0,1,1.15-.81c.32-.07,1.4.08,1.42-.38s-.48-.08-.73-.51A2.92,2.92,0,0,1,33.37,83a18.38,18.38,0,0,0,1.89-.9c-.53.87-1.52,1.3-2,2.18,2.19-1.06,4.36-2.86,4.36-5.54,0-1.17-.74-2.51-.18-3.6a15.08,15.08,0,0,1,2.3-3c.48-.53.89-.34,1.41,0A2.4,2.4,0,0,1,41.61,75c-.56.88-2.28.73-2.71,1.6-.11.21-.72,1.1-.18,1.23a9,9,0,0,0,2.62,0c.71,0,1.67.14,1.82,1a3.09,3.09,0,0,1-1.47,2.8c-1,.49-2-.93-3.14-.42-.51.23,1.61,2.33,1.66,2.5.31,1-1,1.85-1.72,2.07-1.27.38-1.45-1.28-2.66-1.12-.48.06-.29.72-.19,1a3.87,3.87,0,0,1,.22,2c-.12.91-1.86,1.37-2.61,1-1.16-.49.17-2.19-.87-2.76s-1.28,1.89-1.77,2.21a3.65,3.65,0,0,1-2.21.88M58.12,78.72a17.65,17.65,0,0,1-.3-2.39c0-1,1.91-1.52,2.65-1.81s2.74-1.22,3.59-.75c.31.17.85.31.92.68.23,1-2.09,1.76-2.68,2.13-1,.59-3,2.37-4.19,2.14m13-4.36a.72.72,0,0,0-.4.73,4,4,0,0,0,1,.63c.72-.21.2-1.78-.6-1.37m-5,1.35a14.46,14.46,0,0,1,.16,3.46,4.46,4.46,0,0,0,1.29-.54c.55-.3.72.22.55.7-.57,1.65-1.91,3.11-2.83,4.58A19.06,19.06,0,0,0,63,89.19a16.27,16.27,0,0,0-.46,6.21,28,28,0,0,0,.53,3,14.72,14.72,0,0,1,.84,3.24c-1.13-.82-1.75-2.93-2.32-4.16a38.51,38.51,0,0,1-2.09-5.57,20.43,20.43,0,0,1-.87-6.18c0-.94,0-1.88.07-2.82a16.79,16.79,0,0,1-.17-2.7c.59.24.51,1.2.53,1.7a17.9,17.9,0,0,0,.5,3.32c.35,1.48.73,3.63,2.17,4.47.82-2.9,1.31-5.9,2-8.83.31-1.2.68-5,2.32-5.18M99.3,76.83c-.09.19-.48.74-.43.93s.78.45,1,.35a3.08,3.08,0,0,0,.27-1,.6.6,0,0,0-.81-.33m-6.43.08c-.6.26,0,1.56.6,1.26s.14-1.64-.6-1.26m-28.76-.26a28.55,28.55,0,0,1-1.46,5.7c-.38,1.35-1.29,3.44-1,4.87C60,86.87,60,82.65,59.87,81.51c-.35-2.44,1.81-4.55,4.25-4.85M76.48,77c-.5,0-2,.33-1.21,1.16a1.19,1.19,0,0,0,1-.1A2.59,2.59,0,0,0,76.48,77m4.77.37c-.06.18-.37.77-.3.93s.62.44.81.33c.48-.27.22-1.69-.51-1.26m7.1.2c-.31,0-.89-.06-1.13.22a1.25,1.25,0,0,0,0,1.11c.28.32.82.12,1-.15a2.82,2.82,0,0,0,.15-1.18m-52-.87c.75.68.44,2.34.41,3.23-.36-.42-.73-2.81-.41-3.23m-.78,1.46c.44,1.69-1.21,4.32-3.08,4.13A7.55,7.55,0,0,1,34,79.51c.5-.77.61-1.4,1.58-1.38m31.05,5c.12-.77,1.8-3.66,2.71-2.43.58.78,0,1.39-.64,1.76a4.07,4.07,0,0,1-2.07.67m28.73-.73c-.22,3.62-1,7.23-1.4,10.84-.2,1.63-.14,3.3-.49,4.91s.09,3.34.11,5c-.91-1-.41-3.63-.37-4.85.06-2.12.09-4.22.17-6.33,0-1.09.13-10,2-9.57m1.48,0a52.87,52.87,0,0,1-1.43,7.63,1.88,1.88,0,0,1-.14-1.61c.2-.91.24-1.86.36-2.79.09-.59.09-3.46,1.22-3.23m-17.13,2c-.09-.53.26-1.18.29-1.72a4.06,4.06,0,0,1,.55,2.46,31.65,31.65,0,0,1,0,3.49c-.79-.66-1-2-1.59-2.89-.81-1.12-2.08-1.91-2.7-3.16,1.51,0,2.1,1.5,3.42,1.81m2-1.67c-.41,2.19.13,4.48.07,6.69-.52-.59-.43-2.67-.42-3.42,0-.54-.69-3.44.35-3.27m2,0a85.48,85.48,0,0,0,.78,11.36,32.15,32.15,0,0,0,1.17,5.46c.48,1.64,1.24,3.31,1.19,5-1.18-.94-1.47-3.64-1.92-5a42,42,0,0,1-1.57-6.12,57.94,57.94,0,0,1-.69-6.54c0-.92-.5-4.23,1-4.23m4.14,21.38c-1-.75-1.26-3.42-1.56-4.57a47.23,47.23,0,0,1-1.25-6.53c-.27-2.21-.39-4.42-.65-6.62-.1-.79-.41-3.15.59-3.47.37-.12,1,.4,1,.72.23,1.44-.29,3.13-.28,4.61A45.93,45.93,0,0,0,86,93.85c.22,1.73.44,3.47.77,5.2s1.15,3.52,1.13,5.2m1.89-15.53c-.77-.43-2.19-1.86-2.27-2.78a2.85,2.85,0,0,1,2.41-2.75c1.58-.24,2,1.3,2.38,2.51.25.89-1.94,2.49-2.52,3M71.55,104.55a58.6,58.6,0,0,0,1.78-6.14,24.76,24.76,0,0,1,.16-3c.28-1,1-1.74,1.34-2.68-2,1.13-2.27,3.16-2.38,5.21s-.49,4.62-1.91,6.31c-.39.46-1.87-.06-2.31-.21-1.06-.38-.56-1.22-.12-2,1.32-2.27,3.2-4.56,3.41-7.26a2.33,2.33,0,0,0-.91-2.16c0,.7.19,1.4.2,2.1A6,6,0,0,1,70.16,97a33.17,33.17,0,0,1-1.51,3.1c-.5.92-2.23,3.92-3.3,1.92a18.2,18.2,0,0,1-2-7.32c-.21-2.32-.14-5.22,1-7.33a8.76,8.76,0,0,1,4.42-4c1.16-.43,1.58,0,2.65.37s2.29-.64,3.47-.47c2.14.32,3.93,3,4.58,4.86.82,2.3,1.46,5.29.88,7.7a13.35,13.35,0,0,1-3.55,5.88c-1,1-3.66,3.74-5.21,2.86M88.06,88.4c.48.15.87.53,1.37.67s1.3-.58,2-.16c1.11.68.14,2.47-.55,3.06s-.87.84-1.55.47A4.86,4.86,0,0,1,88,91.38c-1-1-1.43-2.26,0-3m-6,1.35a6.69,6.69,0,0,0,.41,2.47c.19,1,.38,1.9.59,2.84.47,1.94-.1,3-1.12,4.58-1.56,2.45-5,6-8.21,5.73.64-1.24,2.25-2.17,3.25-3.12A17.19,17.19,0,0,0,80.11,98a11.89,11.89,0,0,0,1.39-4.39,13.79,13.79,0,0,0,.27-2,2.82,2.82,0,0,1,.32-1.89m13.09.83c0,.82,0,1.65-.07,2.47a2.61,2.61,0,0,1,.07-2.47m-36.65,1c.86,1.72,1.31,3.62,2.12,5.37.7,1.52,1.9,3.12,1.82,4.87-1.61-.57-2.52-2.68-3.07-4.17-.48-1.33-1.95-4.77-.87-6.08m33.13.87c.69,1.08,0,1.93-.69,2.79-.9,1.11-1.66,1.2-2.68.25a2.39,2.39,0,0,1-.73-1.34c-.16-.93,1-1,1.54-.87,1.06.19,1.56-.69,2.56-.83M26.73,94.39c-.51,0-1.94.44-1.93-.38,0-.48.46-1.31,1-1.29a1.91,1.91,0,0,1,1.7,1M57.46,104c-1.21-.27-2.21-1.26-3.24-1.9-1.21-.76-2.45-1.45-3.72-2.1a34.07,34.07,0,0,0-8.95-3.07,50.53,50.53,0,0,0-9.28-1c-1.48,0-3,0-4.45,0-1.08,0-3.1.47-4.08,0,.77-.93,2.78-.89,3.88-.9,1.63,0,3.25,0,4.87-.09a33.6,33.6,0,0,1,9.73,1.22,46.78,46.78,0,0,1,9.64,3.43c1.48.75,5.66,2.34,5.6,4.39m30.88-7.12a8.84,8.84,0,0,0,2.5-.21c1.1-.22.72,1.49.38,2-.58.85-1.27,1.23-2.19.6a2,2,0,0,1-.69-2.41m-30.69,9.35a1.64,1.64,0,0,1-2.4-.12c-.48-.74-1.08-2.32-2-2.6s-2.28.37-3.09-.56a7.06,7.06,0,0,0-1.31-1.54c-.58-.35-1.43,0-2.07,0-1.68,0-2.21-1.28-3.61-1.79s-2.53,1.09-3.91.73c-1.09-.29-2.19-2.2-3.32-1.89s-2.41.89-3.67,1.2-2.17-1.26-3.36-1.45c-1.57-.27-3.52,2.31-5,1-.46-.41-1-.84-1.16-1.48.71,0,2.07,1.36,2.74,1.09a21.26,21.26,0,0,1,3.31-1.43c1-.24,1.82.75,2.49,1.36,1.18,1.08,3.49-.68,4.78-1,1.49-.32,2.33,2,4,1.64,1-.21,2.18-1.17,3.21-1,.87.17,1.64,1.58,2.4,2,1,.59,2.39-.47,3.46,0,.75.36,1,1.25,1.54,1.85.72.86,2.07.75,3.09.82s1.45,2.28,2.29,2.79c.47.33,1.11,0,1.62.32m26.19-7.74c1,2-.79,3.71-2.24,4.88-1.22,1-3.91,3-5.63,2.59a4.43,4.43,0,0,1,1.66-1.32,12,12,0,0,0,2.32-1.73c1.37-1.29,2.32-3.42,3.89-4.42m-25-.42c.27.94,1,1.81,1.17,2.75-1.33.2-1.9-1.87-1.17-2.75m29.88,2.29a9.52,9.52,0,0,0,2.15-.3c1.26-.16,1.21.94.78,1.8a2.42,2.42,0,0,1-.87.89c-.34.25-.89-.14-1.26-.28-.93-.36-.82-1.32-.8-2.12m-34.09,7.27a5.77,5.77,0,0,1-1.93-1.95c-.47-.62-1.16-.47-1.87-.46-1.17,0-1.34-.71-2.13-1.38a2.59,2.59,0,0,0-2.41-.6c-2.13.15-2.92-2.22-5.19-1.46a4,4,0,0,1-3.26.18c-.6-.31-1.65-1.48-2.39-1.39-1.12.16-2.07.82-3.19,1-1.58.18-2.42-1.74-4-1.48s-2.88,1.87-4.49.87A5.86,5.86,0,0,1,21.71,99c.86-.35,2.08,1,2.87,1.24,1.46.51,2.9-1.88,4.22-1.32,1.07.47,2,1.67,3.26,1.58,1.41-.11,2.84-1.8,4.29-1,.51.29,2.06,1.88,2.66,1.72a23.51,23.51,0,0,1,3.21-.83c1.19-.11,1.84,1,2.72,1.57,1.11.71,2-.27,3.16,0s1.34,1.53,2,2.18c.92.85,2.23-.29,3.11.53a4.91,4.91,0,0,1,1.43,2.84m30.1-6.16c.49,1,3.27,6,1.07,6.46s-5.2-.67-7.38-1.18c.27-1.19,1.83-1.84,2.76-2.4,1.32-.78,2.15-2.25,3.55-2.88m4.9,2.12c.66.23,1.11-.09,1.73-.25s1.28.22.79,1c-.62,1-3.37.64-2.52-.75M58,112.38c-1.2-.67-2-1.87-3-2.74a21.8,21.8,0,0,0-4.3-2.69,29.72,29.72,0,0,0-10.44-2.86c-3.53-.36-7.07-.57-10.61-.72-1.84-.08-3.69,0-5.53-.07s-3.6.43-5.42.37c1.21-2.17,5.66-1.38,7.65-1.22s4,0,6.07.1c2.24.1,4.4.49,6.61.78,4,.52,7.77,1.15,11.45,2.95a23.43,23.43,0,0,1,4.68,2.45c1.07.87,2.77,2.15,2.9,3.65M87.13,105a3.12,3.12,0,0,1,.47,1.25.85.85,0,0,1-.47-1.25m-34.27,14a6.88,6.88,0,0,0-1.95-1c0,1.59.69,2.93.87,4.47-1.47-.27-2.46-1.69-3.91-2.09,0,1.75,1.13,3.27,1.11,5-1.38-.31-3.2-2.85-4.64-2.35a24.12,24.12,0,0,1,1.86,4.5c-1.17.06-2.28-.66-3.33-1.07a11.82,11.82,0,0,1-3.42-1.89,40.88,40.88,0,0,1-6.16-6.25,45.22,45.22,0,0,1-4.65-6.92c-.68-1.27-1.33-2.56-2-3.85-.19-.37-1.68-2.73-.84-2.89,3.21-.6,6.52.23,9.73.33a50.53,50.53,0,0,1,9.69,1.08c2.23.51,3,3.28,3.74,5.13a31.27,31.27,0,0,0,1.87,3.73c.64,1.18,2,2.72,2,4.13m35.08-7.23c1.28-.25.84-2,1.34-2.85a2.9,2.9,0,0,1,1.24-1.23c.73-.25.92-.53,1.29-1.26-3,0-3.79,2.9-3.86,5.33m-67.4-6c0,.84-.29,1.62-.32,2.46A8.49,8.49,0,0,1,22,106.47c-.13.74-.41,1.47-.55,2.22.68-.36,1.09-1.06,1.77-1.43a21.09,21.09,0,0,1-.55,2.46c.81-.39,1.28-1.21,2-1.68,0,1-.61,1.94-.57,3,.65-.34,1-1.36,1.77-1.43,0,.62-.41,1.38-.3,2a7.19,7.19,0,0,1,1.26-.71c0,.57,0,1.16,0,1.73a2.57,2.57,0,0,1,1-.47,2.5,2.5,0,0,0,0,1.24c1.18-.37,2.32,1.24,2.41,2.29a12.34,12.34,0,0,1-3.68-1.92,35,35,0,0,1-3.84-2.62c-1-.8-5.13-3.39-4.11-5.18a2,2,0,0,1,.22,1.25c.6-.3,1.08-1.58,1.77-1.43M57.93,124c-.82.13-1.74-1.84-2.1-2.43-.57-1-2-2.67-2-3.81,0-.63,1.61-1.16,2.06-1.39a6.48,6.48,0,0,0,2.43-2.07c1.52-2.15,0-4.56.7-6.84.2-.69.61-.68,1.26-.48,1,.29,4.63,1.32,4.53,2.75-.07,1.07-1.11,2.35-1.61,3.27-.67,1.23-1.37,2.43-2,3.7-1.15,2.4-2.07,4.94-3.34,7.3m.18-16.33c.13.83-.9.8-1.49.82a1.68,1.68,0,0,1-1.72-.91c1,.19,2.28-.47,3.22.09m-8.45,1.25a6.4,6.4,0,0,0,.69,2c.1-.33.21-.64.28-1,.66.59.66,2.66.65,3.48a4.25,4.25,0,0,0,.56-2.4c0-.09.48-.13.5,0s0,.48.08.78a17.28,17.28,0,0,1,0,3.35,4.73,4.73,0,0,0,.8-2.45c.68.61.45,1.91.43,2.73a3.9,3.9,0,0,0,1.06-2.69,3.82,3.82,0,0,1,.09,3.09c-.34.55-1.08.56-1.63.69-1.43.35-4.8-6.93-3.56-7.62M66,110.12c-.08,1.24-1,2.32-1.62,3.32a36.21,36.21,0,0,0-2.25,4.46,31.62,31.62,0,0,0-1.74,3.93c-.29,1-.81,3.07-1.71,3.68-.51-1,.2-2.39.64-3.3.75-1.55,1.4-3.18,2.25-4.67s1.59-2.88,2.33-4.36c.29-.59,1.2-3.26,2.11-3.06m1.17,21.32c-1.21-.28-2.14-1.76-3-2.52a11.65,11.65,0,0,0-3.47-2.06c-1.32-.48-1-.85-.55-2,.56-1.47,1.23-2.92,1.84-4.36a50.1,50.1,0,0,1,4.45-8.78c1-1.41,1.48-1.52,3.12-1,.9.29,2.34.5,2.88,1.39s-.32,2.24-.62,3.08c-.59,1.69-1.24,3.31-1.72,5-1,3.69-1.92,7.44-2.87,11.18M56.21,113.81c.22.23.39.55.73.51a2,2,0,0,1-1.27,1,2,2,0,0,1,.53-1.47M26.58,139.52c-3.9-2.48-1-8.62.28-11.69,1-2.33,1.94-4.66,2.94-7a6.59,6.59,0,0,1,1.43-2.54c.81-.66,1.7.48,2.15,1,.65.82,1.13,1.42.87,2.48a20.62,20.62,0,0,1-1.81,3.88c-.75,1.54-1.46,3.1-2.16,4.66-1.32,3-2.13,6.29-3.69,9.13m16.89-11.93c1.16.27,2.35.87,3.49.69.52-.08-.6-3-.7-3.34,1.2.06,2.7,1.16,3.66,1.83.43-1.32-.41-3.15-.62-4.47,1.33,0,2.23,1.17,3.42,1.57.36-1.25-.43-2.68-.4-4a4.86,4.86,0,0,1,2.42,1.48c.26.26,1,1.3.76,1.68A13.37,13.37,0,0,1,52,126.89a14.35,14.35,0,0,1-4.45,2.9c-1.43.44-3.43-1-4.07-2.2M25,160.77c-.91-.6-.37-2.22-.49-3.11a32.87,32.87,0,0,1,.17-4.92c0-.85.21-1.69.29-2.54a17.5,17.5,0,0,1,.26-2.88c.4-1.54.62-3.16,1.07-4.67a91.47,91.47,0,0,1,3.75-10,93.59,93.59,0,0,1,4.81-10.17c.32-.53.37-.53.87-.21,1,.61,3.18,2.11,2.44,3.48s-1.9,2.41-2.72,3.68a41.37,41.37,0,0,0-2.35,4.13,44,44,0,0,0-3.39,9.26,26.57,26.57,0,0,0-.64,4.92,20.25,20.25,0,0,1,.11,2,10.48,10.48,0,0,1-.75,2.13c-.56,1.47-1.12,3-1.73,4.41A44.49,44.49,0,0,1,25,160.77m31.41-37c1,1.51-1.28,3.29-2.26,4.13-1.14,1-4.13,4.2-5.81,3.2-1.14-.67,2.56-2.92,2.93-3.21.88-.7,1.74-1.43,2.6-2.17s1.51-1.66,2.53-1.95m1.2,1.76c.74,1.46-1.46,3.22-2.35,4.09-1.3,1.28-3,3.32-5,2.93-.87-.16,2.2-2.51,2.33-2.61a30.26,30.26,0,0,0,2.84-2.68c.62-.65,1.26-1.56,2.21-1.72m-27.8,21.78A31.72,31.72,0,0,1,32.73,136c1.43-3.36,3.29-7,6-9.51.76-.72,2.23,0,2.56.89.51,1.38-1.86,3.65-2.55,4.69-1.26,1.88-2.33,3.88-3.45,5.83S33,141.66,32,143.6c-.44.89-1,3.44-2.21,3.66m28.49-20c1,2.06.11,4.51.08,6.68a66,66,0,0,1-.34,7.53A19.46,19.46,0,0,1,55.89,148a42.61,42.61,0,0,0-2.49,7.35c-.43-.48-.13-1.3,0-1.83a7.31,7.31,0,0,0,.12-2.62,10.23,10.23,0,0,0-.73,2.77,11.79,11.79,0,0,1-1,2.54c-.63,1.26-1.67,2.84-3.22,3,.17-1.12,1.11-2,1.43-3.06a14.76,14.76,0,0,0,.72-3.87c0-.49.14-1,.15-1.47a8.64,8.64,0,0,0-.36-1.65,18.48,18.48,0,0,1-.06-4.37,46.44,46.44,0,0,1,.71-5.95c.24-1.25.82-3.06,2.45-2.5-.23-1-1-1.8-.18-2.73a5,5,0,0,1-.9-.36c-.48-.27-.22-.51.08-.87.79-1,2-1.7,2.88-2.61.69-.7,1.73-2.34,2.8-2.46m-15.63,1.33A9.08,9.08,0,0,1,46.57,131c.91,1.06-.64,3-1.24,3.95a53.52,53.52,0,0,0-3,5,91.42,91.42,0,0,0-4.74,10.94c-1.31,3.65-2.25,7.44-3.45,11.13a34.45,34.45,0,0,0-1,4.36c-.09.46-.41,2.42-1.23,2.08A18.8,18.8,0,0,1,28,165.7c-1.1-.87-3-2.24-2.61-3.87a91.5,91.5,0,0,1,3.39-9.15A83.44,83.44,0,0,1,33,143.21c1.56-3,3.26-5.85,5-8.7.8-1.31,1.53-2.64,2.39-3.91.44-.65,1.34-2.22,2.3-2m7.19,8.86a5.53,5.53,0,0,1-.19-2.48,15,15,0,0,0-1.76.94,6.77,6.77,0,0,1-.26-1.47c-.11-.45-.73-.68-.66-1.18a1.2,1.2,0,0,1,1.14-.91,8.65,8.65,0,0,1,2.54,1c.88.4,1.61,1,1.47,2.08s-1.46,1.79-2.29,2m9.49-3.22a1.83,1.83,0,0,1,0,1.24,1,1,0,0,1,0-1.24m1.7,1.28c.88,1.7-1.37,4-1.63,5.65.44,0,4.49-.22,4.42.65s-1,1.2-1.58,1.61c-.37.26-1.67.4-1.68,1,0,.76,3.67,2,2.63,3.29-.62.76-3.82-.28-4.44-.61-.16,1,.57,1.94.86,2.9a11.16,11.16,0,0,1,.48,3.08c-1.65-.14-2.14-2-3.39-2.81-.33,1.43-.63,3.9-2.11,4.65a12.76,12.76,0,0,1,.86-4.95c.64-1.43,1.44-2.8,2-4.26A16.82,16.82,0,0,0,58.66,141c.13-1.28-.19-3,.44-4.13a3.48,3.48,0,0,1,2-1.44m-14.87.84c.31.28.64.51,1,.77-.46.29-1.33-.23-1-.77m-.29,1.24A1.57,1.57,0,0,1,44.41,139a3,3,0,0,1,.35-1.33c.19-.46.82-.2,1.18-.12m1.73,0c.77.18,2.33,1.21,2.42,2-.66-.22-2.64-1.19-2.42-2m15.81,1.16a1.56,1.56,0,0,1-1,1.34c-.2.09-1.77.72-1.76.23a2.35,2.35,0,0,1,.9-1.61c.43-.41,1.36,0,1.86,0m-15,3.81a12.64,12.64,0,0,0-.18-2.73,5.13,5.13,0,0,1-2,.94c0-.5-.12-1.65.42-2,.71-.42,2.12.8,2.67,1.21,1.28.91.44,2.28-.9,2.55m1.17,2.76c-1.53-.11-2.69-1.5-3.87-2.34-.89-.63-2.64-1.51-2.68-2.78,1.54.07,2.6,1.6,3.8,2.38.91.57,2.77,1.46,2.75,2.74m-2.34,4.15a13.26,13.26,0,0,1-.18-2.73c-.26,0-2,1-2,.87A8,8,0,0,1,45,144.7c-.75.42-1.42,1.2-2.27,1.43-.37-.74,0-1.53-.28-2.28-.14-.43-.68-.86-.52-1.36.46-1.47,2.08-.2,2.77.37,1.45,1.17,3.14,2,4.47,3.34.73.73.27,1.3-.2,2s-.78,1.21-1.62,1.29m16.48-5.26c.08.48-.12.61-.53.73-.22.06-1,.2-1.21,0s0-.56,0-.68c0-.42,1.59-.09,1.72,0m-14.58,8.27c-1.13.07-2.19-.83-3.07-1.43-1.09-.72-2.19-1.43-3.28-2.17-.24-.16-3.5-2.47-2.39-2.83.94-.3,3.38,2.1,4,2.58,1,.74,2.06,1.46,3.13,2.14.59.38,1.61.88,1.57,1.7m-1.49.22c0,.49.1.68-.36.9a7.84,7.84,0,0,1-1.38.7c-.53.14-.6-.8-1.4-.57-.52.15-1.26,1.38-1.57.34-.25-.79-.31-1.67-.48-2.48-.82.24-1.28,1-2,1.43a4,4,0,0,1-.23-1.67,9.26,9.26,0,0,1-.18-1.8,9.79,9.79,0,0,1-1.26.71c0-.31.48-2.84.87-2.67,3,1.19,4.93,4.07,8,5.12m14.42-2.35c-.81,0-2.25-.57-1.81-1.69.23-.58.78-.08,1.15.24a1.83,1.83,0,0,1,.66,1.45m-4.07,4.33a1.59,1.59,0,0,1-1-2.43c.25-.47,1,.86,1.11,1a1.71,1.71,0,0,1-.15,1.41m-12.45,2.9c-1.47.77-3.46-1.12-4.71-1.74-.73-.38-3.76-1.71-3.09-2.92,1.54.48,2.77,1.59,4.2,2.3,1.23.6,2.89,1.1,3.6,2.37M50,153.25c-.26,1.36-2.23,2.27-3.52,2.14A4.77,4.77,0,0,1,50,153.25m-4.87,6.55a9.26,9.26,0,0,1,1.43-.48c1.67-.17,2.42,2.18,2.39,3.48a2.67,2.67,0,0,1-1,2.28c-.27.23-1.06,1-1.44.7s-.22-1.15-.25-1.45a22.34,22.34,0,0,0-.4-2.28c-.25.14-2.17,1.93-2.3,1.61a28.18,28.18,0,0,1-.63-3.18c-.88.48-1.68,1.69-2.76,1.66,0-1.08-.19-2.13-.16-3.22-1,.11-1.53,1.38-2.51,1.66-.37-.86-.09-1.8-.43-2.67a3.41,3.41,0,0,1,.16-2.94c.53-1,4.14,1.69,4.73,2,1.18.65,3.06,1.19,3.22,2.78m4.07-4.11c.7,1.43-2,2.87-3,3.14,0-1.31,2-2.54,3-3.14m-.11,13.62c-1.26.23-2.74-1.16-3.78-1.71-1.63-.88-3.28-1.72-4.9-2.63-.32-.18-5.87-3.06-5.16-3.74s2.09.66,2.56,1c1.37.89,2.81,1.69,4.22,2.5s3.15,1.72,4.77,2.49c.93.43,2.37.83,2.29,2.12m-2.67,7.35c.29,1.83-4.83-1.54-5.18-1.74-1.55-.9-3-1.95-4.47-3-1.06-.72-2.82-1.43-3.36-2.67-.4-.93.78-.28,1.12-.08,1.08.64,2.1,1.41,3.12,2.15,2.7,2,5.58,4.21,8.78,5.3"/></svg>