<svg xmlns="http://www.w3.org/2000/svg" viewBox="0 0 169.01 246.76"><defs><style>.a,.d{fill:#fff;}.a,.b,.e{stroke:#000;}.a{stroke-width:2.5px;}.b,.e{fill:none;}.c,.f{fill:#e6180a;}.e{stroke-width:7.25px;}.f{isolation:isolate;font-size:45.45px;font-family:Arial-BoldMT, Arial;font-weight:700;}.g{fill:#e61408;}.h{fill:#1c1585;}.i{fill:#f8c20f;}</style></defs><title>hk</title><path class="a" d="M1.25,238a6.89,6.89,0,0,0,6.87,6.87H160.91a6.88,6.88,0,0,0,6.86-6.87V9.72a6.88,6.88,0,0,0-6.86-6.87H8.12A6.89,6.89,0,0,0,1.25,9.72Z"/><path class="b" d="M9.25,63V240.31"/><path class="b" d="M9.25,240.31H141.47"/><path class="b" d="M160.76,184V6.46"/><path class="b" d="M160.76,6.46H28.54"/><path class="c" d="M55.72,24.07c0,11.3-14.18,19.53-18.33,28.48C33.19,43.62,19,35.46,18.92,24.16a9.42,9.42,0,0,1,9.16-9.67,9.44,9.44,0,0,1,9.24,9.62,9.21,9.21,0,1,1,18.4,0Z"/><rect class="d" x="18.82" y="14.52" width="9.69" height="37.95"/><path class="c" d="M114.29,222.82c0-11.3,14.18-19.53,18.33-28.48,4.2,8.92,18.38,17.08,18.47,28.38a9.21,9.21,0,1,1-18.4,0,9.21,9.21,0,1,1-18.4,0Z"/><rect class="d" x="141.94" y="194.41" width="9.69" height="37.95"/><line class="e" x1="45.09" y1="185.37" x2="124.92" y2="61.39"/><circle class="d" cx="47.41" cy="182.24" r="2.2" transform="translate(-5.7 1.58) rotate(-1.8)"/><circle cx="47.41" cy="182.24" r="0.7" transform="translate(-5.7 1.58) rotate(-1.8)"/><circle class="d" cx="50.56" cy="177.35" r="2.2" transform="translate(-5.55 1.68) rotate(-1.8)"/><circle cx="50.56" cy="177.35" r="0.7" transform="translate(-5.55 1.68) rotate(-1.8)"/><circle class="d" cx="53.72" cy="172.46" r="2.2" transform="translate(-5.39 1.77) rotate(-1.8)"/><circle cx="53.72" cy="172.46" r="0.7" transform="translate(-5.39 1.77) rotate(-1.8)"/><circle class="d" cx="56.86" cy="167.57" r="2.2" transform="translate(-5.24 1.87) rotate(-1.8)"/><circle cx="56.86" cy="167.57" r="0.7" transform="translate(-5.24 1.87) rotate(-1.8)"/><circle class="d" cx="60.01" cy="162.67" r="2.2" transform="translate(-5.08 1.97) rotate(-1.8)"/><circle cx="60.01" cy="162.67" r="0.7" transform="translate(-5.08 1.97) rotate(-1.8)"/><circle class="d" cx="63.17" cy="157.78" r="2.2" transform="translate(-4.92 2.06) rotate(-1.8)"/><circle cx="63.17" cy="157.78" r="0.7" transform="matrix(1, -0.03, 0.03, 1, -4.92, 2.06)"/><circle class="d" cx="66.31" cy="152.89" r="2.2" transform="translate(-4.77 2.16) rotate(-1.8)"/><circle cx="66.31" cy="152.89" r="0.7" transform="translate(-4.77 2.16) rotate(-1.8)"/><circle class="d" cx="69.46" cy="148" r="2.2" transform="translate(-4.61 2.25) rotate(-1.8)"/><circle cx="69.46" cy="148" r="0.7" transform="matrix(1, -0.03, 0.03, 1, -4.61, 2.25)"/><circle class="d" cx="72.61" cy="143.11" r="2.2" transform="translate(-4.46 2.35) rotate(-1.8)"/><circle cx="72.61" cy="143.11" r="0.7" transform="translate(-4.46 2.35) rotate(-1.8)"/><circle class="d" cx="75.76" cy="138.21" r="2.2" transform="translate(-4.3 2.45) rotate(-1.8)"/><circle cx="75.76" cy="138.21" r="0.7" transform="matrix(1, -0.03, 0.03, 1, -4.3, 2.45)"/><circle class="d" cx="78.91" cy="133.32" r="2.2" transform="translate(-4.15 2.54) rotate(-1.8)"/><circle cx="78.91" cy="133.32" r="0.7" transform="matrix(1, -0.03, 0.03, 1, -4.15, 2.54)"/><circle class="d" cx="82.06" cy="128.43" r="2.2" transform="translate(-3.99 2.64) rotate(-1.8)"/><circle cx="82.06" cy="128.43" r="0.7" transform="translate(-3.99 2.64) rotate(-1.8)"/><circle class="d" cx="85.21" cy="123.54" r="2.2" transform="translate(-3.84 2.74) rotate(-1.8)"/><circle cx="85.21" cy="123.54" r="0.7" transform="translate(-3.84 2.74) rotate(-1.8)"/><circle class="d" cx="88.36" cy="118.65" r="2.2" transform="translate(-3.68 2.83) rotate(-1.8)"/><circle cx="88.36" cy="118.65" r="0.7" transform="translate(-3.68 2.83) rotate(-1.8)"/><circle class="d" cx="91.51" cy="113.75" r="2.2" transform="translate(-3.53 2.93) rotate(-1.8)"/><circle cx="91.51" cy="113.75" r="0.7" transform="translate(-3.53 2.93) rotate(-1.8)"/><circle class="d" cx="94.66" cy="108.86" r="2.2" transform="translate(-3.37 3.03) rotate(-1.8)"/><circle cx="94.66" cy="108.86" r="0.7" transform="translate(-3.37 3.03) rotate(-1.8)"/><circle class="d" cx="97.81" cy="103.97" r="2.2" transform="translate(-3.22 3.12) rotate(-1.8)"/><circle cx="97.81" cy="103.97" r="0.7" transform="translate(-3.22 3.12) rotate(-1.8)"/><circle class="d" cx="100.96" cy="99.08" r="2.2" transform="translate(-3.06 3.22) rotate(-1.8)"/><circle cx="100.96" cy="99.08" r="0.7" transform="translate(-3.06 3.22) rotate(-1.8)"/><circle class="d" cx="104.11" cy="94.18" r="2.2" transform="translate(-2.91 3.32) rotate(-1.8)"/><circle cx="104.11" cy="94.18" r="0.7" transform="translate(-2.91 3.32) rotate(-1.8)"/><circle class="d" cx="107.26" cy="89.29" r="2.2" transform="translate(-2.75 3.41) rotate(-1.8)"/><circle cx="107.26" cy="89.29" r="0.7" transform="translate(-2.75 3.41) rotate(-1.8)"/><circle class="d" cx="110.41" cy="84.4" r="2.2" transform="translate(-2.6 3.51) rotate(-1.8)"/><circle cx="110.41" cy="84.4" r="0.7" transform="translate(-2.6 3.51) rotate(-1.8)"/><circle class="d" cx="113.56" cy="79.51" r="2.2" transform="translate(-2.44 3.61) rotate(-1.8)"/><circle cx="113.56" cy="79.51" r="0.7" transform="translate(-2.44 3.61) rotate(-1.8)"/><circle class="d" cx="116.71" cy="74.62" r="2.2" transform="translate(-2.29 3.7) rotate(-1.8)"/><circle cx="116.71" cy="74.62" r="0.7" transform="translate(-2.29 3.7) rotate(-1.8)"/><circle class="d" cx="119.86" cy="69.72" r="2.2" transform="translate(-2.13 3.8) rotate(-1.8)"/><circle cx="119.86" cy="69.72" r="0.7" transform="translate(-2.13 3.8) rotate(-1.8)"/><circle class="d" cx="123" cy="64.83" r="2.2" transform="translate(-1.98 3.9) rotate(-1.8)"/><circle cx="123" cy="64.83" r="0.7" transform="translate(-1.98 3.9) rotate(-1.8)"/><text class="f" transform="translate(5.25 38.99) scale(0.53 1)">K</text><text class="f" transform="translate(164.76 207.77) rotate(180) scale(0.53 1)">K</text><path class="c" d="M22.56,49.06c0,4.71-5.91,8.14-7.64,11.87-1.75-3.72-7.66-7.12-7.7-11.83a3.92,3.92,0,0,1,3.82-4,3.93,3.93,0,0,1,3.85,4,3.92,3.92,0,0,1,3.82-4A3.93,3.93,0,0,1,22.56,49.06Z"/><path class="c" d="M147.45,197.7c0-4.71,5.91-8.14,7.64-11.87,1.75,3.72,7.66,7.12,7.7,11.83a3.84,3.84,0,1,1-7.67,0,3.84,3.84,0,1,1-7.67,0Z"/><polyline class="g" points="57.09 180.03 57.53 172.38 51.08 182.22 57.09 180.03"/><path class="h" d="M71.92,184.09l8.27-6.43,1.21,0c3.56,1.69,7.59,3.08,10.92,5.18s5.27,6.1,7.37,9.28l3.06.19L98,177a42.42,42.42,0,0,0-10.09-5.2l-2-7,1.27-7.29a19.71,19.71,0,0,1-7.46-.21,43,43,0,0,1,.4,5.85,34.71,34.71,0,0,1-1.33,5.4l-2.21,2.91V172c-1.18.72-1.91,1.86-3.08,2.65l-4.75,3.19v-.13l-.07,0c-1.15,3.95-2.19,7.84-3.07,11.85l1.64-.74,4.71-4.73"/><path class="g" d="M89,130.51v3.92l6.3-.32.4-20.68L89,123.71c0,1.71-.3,3.64.29,5.29l-.3,1.5"/><polyline class="g" points="94.88 135.59 81.39 135.42 75.45 144.77 95.17 144.69 94.88 135.59"/><path class="i" d="M89,130.51l.3-1.5-1-4.12c-2.06,3.12-4.12,6.21-6,9.42l6,.21.8-4"/><polyline class="g" points="152.34 140.79 153.79 140.79 153.79 139.43 152.34 139.43 152.34 140.79"/><polyline class="i" points="149.15 127.28 152.88 127.3 152.19 125.68 150.14 125.4 149.15 127.28"/><polyline class="h" points="136.22 130.31 136.22 130.05 135.29 130.6 135.71 131.16 136.22 130.31"/><path class="h" d="M123.84,98.11l-1.26,2.33c-.23,8.34-2,16.35-4,24.41l-.16-.25v2.15l4.39,1.92,2.59,4.73-.43.85h1.13c.22-.71.5-1.43.76-2.13l1.23.82-.27-2.17,2.47-6.82,1.21,1.6c-2.39-10.46-.31-21.42,1.73-31.69h-1.28l-8.11,4.24"/><path class="g" d="M140.08,140.75l-4.71-4.26L134,133.93l1.66-2.76-.43-.56-1.1.65-2-1.77-.73-3.91-1.21-1.6-2.47,6.82.27,2.17.14.09a60.89,60.89,0,0,1,5.26,19.09c.82,6.7-.1,13.28.14,20l.74,0a47.34,47.34,0,0,0,2.78-8.33,30.75,30.75,0,0,1,3.18-7.85l4-3.58v-9.85l-.26-.34-.87.13-3.07-1.59"/><path class="g" d="M124.31,181.2c4.19-9.51.79-19.52-2.86-28.5,1.26-2.65.73-6.46,1.83-9.13a47.22,47.22,0,0,0,2.82-9.31H125l.43-.85-2.59-4.73-4.39-1.92v-2.15l.16.25c2-8.07,3.8-16.07,4-24.41l1.26-2.33,8.67-4.52c2.3-4.7,3.13-10.18,4.51-15.25l.51-.69c.57-2.16,1.21-4.29,1.86-6.43l-.48-1-11.52-6c-7.25,10.22-13.63,21.1-20.32,31.7l-3.28,40.36,1.4,46.71h22.27l-3.17-1.79"/><path class="i" d="M145.14,105.81a106.79,106.79,0,0,1-.92,13.54l1.75.4c.68-1.45,1.38-2.89,2-4.37.51-1.27,2.35-2.42,3.33-3.29-.68-2.74-1.44-4.91-1.49-7.75l-.86-2.08-1.43-.53c-.75,1.39-1.52,2.74-2.36,4.09"/><path class="i" d="M157,127.91l-17.67.26,1.24-.73c-.82-4.55-1.74-8.74-1.55-13.34l.39-9.23c.08-1.89,1-3.7,1.16-5.59.49-5.06,1-10.13,1.72-15.17.39-2.55.9-5.1,1.35-7.63.38-2.16,1.72-4.41,2.53-6.44A26.6,26.6,0,0,0,137,78.35c-1.13,4.12-2.36,8.24-3.19,12.43-.75,3.81-2.09,7.81-2.45,11.65a94.62,94.62,0,0,0,.84,27.06l2,1.77,2.28-1.36-2.43,4,1.33,2.56a36,36,0,0,0,7.8,5.85l.88-.13.09-11.09c4.67-.3,9.3-.54,13.93-1.17v-1.33l-1-.71"/><polyline class="i" points="152.19 139.11 153.97 139.16 156.32 134.87 157.97 134.81 158.07 129.95 152.22 132.35 152.19 139.11"/><path class="i" d="M133.77,165.15c.5-11.12-.75-22-5.55-32.1l-1.37-.92c-1.21,3.25-1.6,6.6-2.92,9.83s-1.57,6.66-3.06,9.81c3.65,9,7.63,19.93,3.43,29.44l2.58,0c3.39-2.38,5.26-4.25,6.77-8.14-.1-2.67,0-5.26.11-7.93"/><path class="i" d="M74.75,173.73l4-5.25a34.71,34.71,0,0,0,1.33-5.4,43,43,0,0,0-.4-5.85,19.71,19.71,0,0,0,7.46.21l-1.27,7.29,2,7,9,2.91,1.5-4.24L94.93,147.9c-7.2.37-14.36-.41-21.58.1-2.85,4.32-2.79,10.88-3.57,15.85-.72,4.61-.81,9.28-1.09,13.94l6.06-4.07"/><path class="i" d="M109.92,229.75c-1.33-1.94-3.12-3.44-4.4-5.36a19.36,19.36,0,0,1-2.88-6.61c-10.88,4-22.82,6.64-34,2.57-1,2.27-1.94,5.89-3.85,7.61-2.4,2.15-3.78,4.64-5.75,7.17a13.06,13.06,0,0,1,3.1.84A14.17,14.17,0,0,1,67,234.5l1-1-.21-3.22A5.1,5.1,0,0,1,66,228.69l1.6-1,2.1.37,2,1.38.1,1.92-.8,2,.17,3,.48.22,1.06-.32.66-1.48L73.22,231a15.25,15.25,0,0,1,2.35-1.78l3.12-.18.85,1.32-2.47,1.11-1.78,2,.92,2.6,2.32.1.22,2.62,3.66.25,2.33-1.15.23-1.76,1.39-.2,1-.65.53-2.52a15,15,0,0,0-4-2l1.06-1.5,4.19-.08,3,2.45.93,5,.77.17.7-.73.59-1.41c-.62-1.22-1.25-2.44-1.86-3.67l1.37-3.35,2.93-.84,2.36,2-1.6.35-1.79,2.57,1.72,2.68,1.6-.45.48,2.12,3.68.87,1.48-2.29.49-2.4,2.77.94a38.5,38.5,0,0,1,4.28.14l.53-.88a16,16,0,0,1-3.54-2.6"/><path d="M85.23,236.27c1,0,1.51,0,2.09-.85A5.65,5.65,0,0,0,88,232.8c.14-.94-3.19-2.57-3.86-2.21,1-1.8,4.13-1.45,5.64-.58a3.3,3.3,0,0,1,1.83,2.48c0,.65-.67,2.4,0,3,.37.33,1.92,2.22,2.53,1.18s1.38-1.82.85-2.94c-.32-.67-1.65-2.23-1.39-3a6.75,6.75,0,0,1,.69-1.89,8.84,8.84,0,0,1,1.2-1,4.08,4.08,0,0,1,1.8-.33,2.13,2.13,0,0,1,1.69,1A2.84,2.84,0,0,0,96.55,230a4.78,4.78,0,0,0-.65,1.49c-.08.88.89,1.91,1.41,2.54s1.58.75,2.2,1.5,1.43.89,2.37,1.31c.76.34,1.9,1,2.54.11a10.54,10.54,0,0,0,1.31-2.11c.23-.56.16-1.88.81-2.16s1.25.42,1.69.6c.69.31,1.38,0,2.1.15,1,.18,2.93.75,3.34-.69.24-.84-1-1.09-1.5-1.32a6.84,6.84,0,0,1-2.37-2.28,7.06,7.06,0,0,1-.74-1.34,6.28,6.28,0,0,0-1.26-1.45c-.48-.53-.89-1.11-1.36-1.65s-1-.76-1.36-1.35a8.6,8.6,0,0,1-1-7.88,12.27,12.27,0,0,0,.85-3.45,5.91,5.91,0,0,1,1.2-3.58c1.46-1.55,3.78-1.83,5.67-2.58,2.41-1,2.92-3,4-5.11.6-1.18,2.68-1.23,3.59-2.24a10.28,10.28,0,0,0,2.54-4.6c.17-.94-1.14-2.25-.81-3.14.48-1.34,2.5-2.21,3.59-3a15.9,15.9,0,0,0,4-4,67.67,67.67,0,0,0,5.63-10.62A84.68,84.68,0,0,0,138,162a16,16,0,0,1,2.32-4.88c.86-1.21,2.2-3.1,3.69-3.55,0,1.71.28,3.39.3,5.12l.06,5.24c0,3.38.4,6.78.34,10.16a45.65,45.65,0,0,0,0,4.94,25.59,25.59,0,0,0,.48,4.62c.17.56,2.77,4.84,3.67,4.3a10.52,10.52,0,0,0,3.54-4.23c.79-1.86.26-4.73.24-6.71q-.07-7.66-.16-15.32c-.06-5.12-.35-10.26-.21-15.38a9.4,9.4,0,0,1,.5-3.35c.42-1,1.1-1.95,1.61-2.93.69-1.32,1.07-4.38,2.76-4.87.19,0,.59.11.74-.06s.08-.74-.11-.75a2.87,2.87,0,0,1-2.46-1.69,1.16,1.16,0,0,1,.43-1.29,1.88,1.88,0,0,1,1-.53c.34,0,1.08.19,1.19-.19.06-.22.11-.43.15-.65.17-.87-3.81-.28-4.07-.22a27.17,27.17,0,0,1-5.76,1,45.1,45.1,0,0,1-6.42-.53,5.47,5.47,0,0,0-2.74,0c-.32.16-1.26.35-1.37.73s-.75,2.39.23,2.38c.8,0,.86,0,1.35-.61a1.58,1.58,0,0,0,.26-1.14c.88,1,.61,1.77-.45,2.44-.58.38-.63.53-1.26.28s-1.1-.35-1.44-.9c-1.35-2.11.62-4.26,2.9-4.3,1.43,0,2.83-.33,4.25-.36,1.63,0,3.27,0,4.9-.08s3-.18,4.58-.2,3.36.17,5,.19c0-.25,0-1.48-.37-1.48a9.13,9.13,0,0,1-5.22-1.49c-.45-.27-.79-1.28-.1-1.51a3.23,3.23,0,0,1,1.94-.27,10.45,10.45,0,0,1,3.45,1.54c.07-.44-.18-.84-.13-1.28a7.48,7.48,0,0,0,.1-1.69,13.1,13.1,0,0,1-.36-3.45c.11-1.16-.54-2.12-.56-3.26,0-1,0-1.86-.9-2.43a6.23,6.23,0,0,0-3.18-.73c-1,0-1.26-1-1.44-1.84a20.07,20.07,0,0,0-1.31-3.65c-.47-1.06.38-2.45-.13-3.63a3.36,3.36,0,0,0-2-2.19c-.47-.14-1.18-.42-1.36.08a2.63,2.63,0,0,1-.86,1.43,6,6,0,0,0-.28-2.72c-.66.77-.49,2.08-.47,3,0,1.4-.16,2.78-.2,4.17-.67-.19-1.32-.51-2-.72a2.64,2.64,0,0,0,.24-1,1.74,1.74,0,0,0,1,.73c0-.56.06-1.12.11-1.68s-.24-1-.2-1.44-.08-.53-.48-.73-.71-.82-1-1.32c-.42.38-.5,1-.88,1.39s-1,.54-1.08,1.12a2.29,2.29,0,0,1-.24-.88c0-.59.09-.15.36-.42.76-.68.57-1.64.65-2.57a9.2,9.2,0,0,0-.34-2.81c-.68.5-.69,1.65-.8,2.4-.18,1.21-.44,2.39-.59,3.6-.33,2.68-.85,5.37-.94,8.09a52.91,52.91,0,0,0,.3,8.11c.16,1.32.27,2.67.54,4,.19.9,1.14,2.82.75,3.7-.09.22-.12.58-.38.52a3.18,3.18,0,0,1-1-.26c-1.4-1.06-1.18-4.22-1.38-5.72-.16-1.23-.35-2.43-.44-3.67s.17-2.48.14-3.72a94.4,94.4,0,0,1,1.39-15.65c.76-5.26,1.55-10.58,2.66-15.78.51-2.42,1-4.81,1.71-7.19.48-1.68,1-3.83,2.7-4.7a19.22,19.22,0,0,1-1.07,2.5,21,21,0,0,0-.88,2.91,59.75,59.75,0,0,0-1.23,6.18c-.38,2.29-.65,4.57-.92,6.87A38.65,38.65,0,0,0,141,95.9c.39-.49.26-1.3.34-1.88.12-.9.28-1.8.44-2.69a20.79,20.79,0,0,1,1-3.62,1.74,1.74,0,0,0,.5-.08c.57-.27,1-.76.49-1.38s-.78-1-.45-1.81a11.9,11.9,0,0,0,.8-1.68,6.84,6.84,0,0,1-.9,0c-.22,0-.08-1.42-.06-1.61a23.15,23.15,0,0,1,.94-4.24,33.3,33.3,0,0,1,1.34-4.12c.29-.66,1.28-2.53,2.06-2.34,1.06.25,1.9,1.16,2.95,1.34a4.4,4.4,0,0,0-6.22-1.43c-2,1.43-3.47,3.77-5.61,5,.28-1,.59-2,.87-3,.34-1.21.34-1.82-.68-2.62a28.25,28.25,0,0,0-5-2.81c-2-1-3.91-2-5.88-2.94-1-.48-3.18,3.85-3.5,4.56.87-.53,2.19-3.95,3.31-3.64,1.81.5,3.44,2.07,5.33,2.31-.53,2-1.52,3.89-2,6a16.93,16.93,0,0,0-.68,6.24c.34,2.27.51,4.49,1,6.73.43,1.84,1.58,4.14,1.13,6.06s-2.53-1-2.92-1.6c-.5-.73-.92-1.5-1.37-2.27A14.68,14.68,0,0,1,126,83.66c.9,0,1.12-.47,1.41-1.22s-.43-1.39-.91-1.83A9.26,9.26,0,0,0,123,78.75a31,31,0,0,0-.06,4.79c.21,1.24,1.87,1,2.59,1.64,1,.93,1.5,2.66,2.16,3.85.8,1.45,2.76,5.16.64,6.34-.33.18-1,.56-1.3.32a8.29,8.29,0,0,1-2-2.74,15.82,15.82,0,0,0-2.6-3.45c-1.82-1.74-3.87-3.09-6.48-2.51a3,3,0,0,0-1.95,2.25c-.69,2.89.64,5.77,2.21,8.13.79,1.2,1.69,2.34,2.6,3.45,1,1.29,2.49,2.38,3.09,4,.23.59-.1,1-.69,1.24-1.65.73-4.61-1.2-5.74-2.27-.57-.54.16-2.24-1-2.51a5.71,5.71,0,0,0-2.55-.2c-.41.07-2.08,0-1.68.79a24.9,24.9,0,0,0,1.67,3,2.81,2.81,0,0,0,1.47.56c.48-.06.85-.7,1-1.11,1.43.9,3,1.63,4.39,2.56.91.6,2.92,2.24,2.46,3.51-.38,1-1.69,1.32-2.69,1.44a14,14,0,0,1-4.14-.48,2.15,2.15,0,0,1-1.45-.78c-.38-.54-.42-1.13-1.06-1.46-1.25-.68-3.41,1-4.18,1.92-.44.5,3,4.51,4.51,2.1.9-1.44,2.69-.67,4-.46,1.16.19,3.94.45,4.28,2,.3,1.34-1.74,2.38-2.69,2.83-1.49.71-3.6,2.21-5.28,2.21-.1-1.06-.31-2.22-1.73-1.73-1,.33-1.64,1.56-2.19,2.32s-1.4,1.95.13,2.19a20.7,20.7,0,0,0,3.32.45c1.28,0,1.23-1.2,1-2.19-.12-.58,3.73-1.61,4.26-1.7a2.92,2.92,0,0,1,1.66.54c1.26.59-.38,1.94-1,2.36a44.78,44.78,0,0,0-4.78,3.86,24.13,24.13,0,0,0-3.85,4.66c-1,1.6-2.18,3.7-2.15,5.63-.8-1.18-.5-2.92-.57-4.27-.09-1.69-.11-3.38-.21-5.07s.19-3.41.17-5.15-.11-3.32,0-5c.28-3.48.07-7,.34-10.49.13-1.67.16-3.32.14-5,0-1.89.21-3.77.19-5.65a6.07,6.07,0,0,0-1.79,2.37c-.71,1.22-1.5,2.38-2.25,3.59-1.71,2.76-3.55,5.45-5.29,8.19s-3.49,5.54-5.28,8.29c-.83,1.27-1.67,2.53-2.49,3.81a15.84,15.84,0,0,0-2.1,3.54c-.06.19.31.66.38.83a5.58,5.58,0,0,1,.07,2.26c-.1,1.72-.11,3.44-.35,5.16-.1.69-.27.53-1,.56-1.5.06-3,0-4.52,0a2.9,2.9,0,0,1,1-1.25c0,1.41,1.77.53,1.46-.57a1.49,1.49,0,0,0-.66-1c-.79-.42-5,7.12-5.63,8.07q-1.53,2.42-3.11,4.83c-.83,1.28-2.31,2.84-2.53,4.38,1.4-.41,1.81,1.77,2.28,2.64a7.06,7.06,0,0,0,3.33,3.39C82,156,86.08,156.11,89,154a8.68,8.68,0,0,0,2.38-2.57c.54-.84.41-2.18,1.28-2.81a1.54,1.54,0,0,1,1.46-.11c.6.19.63,1,.77,1.51.42,1.56-1.62,2.31-2.55,3.11a12.23,12.23,0,0,0-3,4.33,15.41,15.41,0,0,0-.87,7.4A18.55,18.55,0,0,0,91,172.37c-1.82-.47-3.47-3-4-4.68a14.31,14.31,0,0,1-.53-5.93c.09-.58,1.43-4.7.8-4.7-1.38,0-2.69.35-4.09.29s-2.79-.7-4.26-.7c.17,2.17,1,4.19.76,6.38a14.6,14.6,0,0,1-1.82,6.09,17.69,17.69,0,0,1-3.6,3.94c-1.34,1.18-3.19,3.2-5,3.49.49-.84,1.47-1.2,2.16-1.85s1.62-1.51,2.39-2.34a15.73,15.73,0,0,0,3.43-6c1.2-3.9.92-8.79-1.89-12-.8-.91-2.64-2.28-2.77-3.54a5.35,5.35,0,0,1,.12-1.48c-1.17.69-1.81,2.4-2.52,3.5-1.17,1.78-2.31,3.58-3.44,5.37-2.33,3.66-4.72,7.28-7.09,10.92a25,25,0,0,0-2.78,4.7,22.54,22.54,0,0,1-2.39,5c-1,1.42-2.56,2.21-3.49,3.63a28.22,28.22,0,0,0-2.75,4.64c-.17.47-.06.25.28.49a15.69,15.69,0,0,0,3.11,1.68c.77.33,1.95.65,2.41,1.42s.1,2.27-.12,3.25c-.11.48-.62.73-.87,1.12a4.15,4.15,0,0,0-.53,1.67c-.29,2.33,2.21,3.66,3.92,4.55a4.49,4.49,0,0,0,2.83.79,7.6,7.6,0,0,1,3.55-.23c1.93.56.91,4.34,1.11,5.75.35,2.48,2,3.57,3.63,5.35.32.38,0,1.71,0,2.18a13.1,13.1,0,0,0,.48,3.92c.45,1.94-1.09,4.37-1.9,6.09a11.87,11.87,0,0,1-1.69,2.8c-.72.81-1.69,1.36-2.43,2.15a30.67,30.67,0,0,0-2.1,3c-.27.38-1.92,1.35-1.79,1.74.25.68,1.17.65,1.75.64a6,6,0,0,1,2.26.55c.53.2,1.15-.52,1.57-.74.71-.37,1.45.15,2.18-.09a3.71,3.71,0,0,0,2.35-1.64c.33-.76-.07-2.19-.19-3a2.45,2.45,0,0,0-1.67-1.78c.44-.39,1.26-1,1.87-.81.88.32,2,.48,2.64,1.22a2,2,0,0,1,.52,2.36,5.67,5.67,0,0,0-1.13,2.6c0,.85,0,1.91,1,2.32a1.43,1.43,0,0,0,2.12-.82c.73-1.67-.45-3.53.45-5.2a2.64,2.64,0,0,0-1,.5,12.53,12.53,0,0,0-1.27-2.71c1.59-.34,3.09.16,4.7.2-.61.76-1.7.87-2.21,1.75a7.29,7.29,0,0,1,4.95-.3c-1,.5-4,1.73-4.07,3.07a5.12,5.12,0,0,0,.83,2.68,1.88,1.88,0,0,0,1.08.85c.39.09,1-.12,1,.46a2.27,2.27,0,0,0,1.39,2.18,14.2,14.2,0,0,0,2.79.54c.74,0,1.77-.84,2.41-1.17s.8-1.5.77-2.23M80.54,238c-.75.18-1.56.24-1.77-.66-.13-.56.46-1.57.75-2-1.1-.09-2.1.53-3.22.53,0-.77-1-2.11-.57-2.75.26-.45.92-.47,1.3-.76s.7-.89,1.24-1c.82-.2,1.53.65,2,1.15s1.42.76,1.42,1.36-.42.77-1,.75c0,1,.76,1.73.77,2.71.62-.83.8-1.95,1.36-2.84s0-1.91.77-2.57a1.66,1.66,0,0,1,1.65-.24c.44.2.3.72.62.91.16.08.59-.21.82-.11.84.35.85.78.49,1.58-.25.55-.34,1.45-1,1.53s-1.28-.38-2-.51c.1.63.62,1.56.39,2.17-.4,1-1,.79-1.84.33-.2.65-.25,1.06-1,1.16s-1.11.12-1.27-.66m19.74-4.91c-.77.14-1.44.63-2.22.76.19-1-1.5-2-1-2.74a3.06,3.06,0,0,1,2.89-1.48,13.18,13.18,0,0,1-1,2,2.52,2.52,0,0,1,2.25,1.95c.3-.3.37-.58.74-.33a1.38,1.38,0,0,1,.5.81c.25-.59.42-1.21.66-1.8.14-.34.8-.86.73-1.23a4.05,4.05,0,0,1,0-1.2c-.5,0-1,.21-1-.48s-.49-.49-1-.48a1.2,1.2,0,0,1,1.62-.78c.35.15.55.52.83.75a3.3,3.3,0,0,0,1.18.47c.28.09-.07,1.74.07,2,.23.48-.42.64-.53,1.08-.16.59.38,1.25,0,1.81-.54.75-1.06,2.8-2.28,2.18-.5-.26-1.77-.56-2.07-1a4,4,0,0,1-.48-2.32m-6.89,3.3a4.24,4.24,0,0,1-.38-2,3.57,3.57,0,0,1,.33-.87c.1-.3-.55-.44-.73-.6,2-1.06,3.06,3.12.78,3.45m-21.77,0c-.41-.21-.2-.94-.13-1.28a3.32,3.32,0,0,0-.15-2.19c1-.51,1.85.1,1.94,1.22a2.3,2.3,0,0,1-1.66,2.25m-9.91-.64a2.33,2.33,0,0,0-1.5-1.46c.33.54-.36.68-.73.75.69-1.23,1.72-2.26,2.43-3.49a1.89,1.89,0,0,1,.26,1.24c.41-.3.61-.76,1-1.1s1-.06,1.46.34c.12-.53.23-1.07.35-1.6s1.07-.38,1.36-.4c.46,0,1.18-.12,1.34.53.09.36-.36,1.14-.55,1.44.79.17.77.68.78,1.38,0,.35-1.29.81-1.63.91-.63.19-1.29.55-1.74-.16a3.82,3.82,0,0,1-.62-1.85c-.56,1.13-.37,3.41-2.19,3.47m18.54-2.18H79c.22.57,1.13.71,1.24,0m26.2-2.74c-.07-1.09-.72-1.82-1-2.81-.1-.47,0-.34.34-.5a4.62,4.62,0,0,1,1.09-.4c0,.33,0,.66,0,1a4.9,4.9,0,0,1,1.48-.27c-.1.53-.51.64-1,.75a3.85,3.85,0,0,0,1.5,2.21c0-.42,0-.82,0-1.24a3.36,3.36,0,0,1,1.8,1.19c.67.72,1.56,1.23,2.19,2-.93.49-1.55,0-2.43-.26-.68-.17-1.31.38-1.94.18-1-.3-.88-1.83-2.08-1.83m-5.44.31a1.77,1.77,0,0,1,1-1,1.72,1.72,0,0,1,.14,1.15c-.21.56-.67.06-1.12-.15m-19.78.45c-.35-1.07-1.23-1.75-1.76-2.7a35.05,35.05,0,0,1,5.2-.06c-.56.68-1.37,1.13-2,1.78s-.65,1-1.46,1m11.38-.37a11.15,11.15,0,0,0-3.49-2.68,3.61,3.61,0,0,1,2-.65,13.32,13.32,0,0,1,3.17-.63,8,8,0,0,1-.84,2.2c-.27.57-.31,1.36-.85,1.77m-29.71-.67c0-.49.55-.67,1-.75-.09.53-.5.64-1,.75m38.33-2.63c0-.65.32-1.71,1-2a3.72,3.72,0,0,1,2.37.1c.4.14.42.44.12.77s-1.06.28-1.55.39c-.67.15-1.25.57-1.92.73m-18.06.19c0-1.23.93-1.71,1.43-2.68.36-.68-1.77-1.88-.66-2.44,1.3-.66,3-.31,4.41-.57,1.59-.3,3.18-.65,4.77-1A35,35,0,0,0,97.9,220c1.49-.53,3.09-1.51,4.7-1.51-.41.5-.92.87-1.33,1.4-.6.76-.57,1-.14,1.88a2.6,2.6,0,0,0,1.68.82c.41,0,.81-.07,1.21-.14s.32.69.35.89c.14.81-7.25,2.38-7.63,2.38.25-1.35,1.89-2,2.32-3.3s-2.82-1.14-3.54-.86-3.17,1.33-3.12,2.46c0,1,2.88,1.36,3.6,1.7-1.17,1.19-3.93,1.25-5.45,1.53a45.21,45.21,0,0,1-7.39.83m17.07-.43a20.57,20.57,0,0,0-2-1.22c.48-.71,1.95-.76,2.71-.77a5.91,5.91,0,0,1-.72,2m-34.88.37c.18-.9,1.57-1.68,2.22-.76a5.64,5.64,0,0,1-2.22.76m14.84-.4c.5-1,.77.15,0,0m-1.49-.24c0-.14,0-.92.31-.69a1.53,1.53,0,0,1,.44.68h-.74m-1.48,0c0-.57,0-1.36.72-1.49,0,.41,0,.81,0,1.22s-.33.27-.73.28m-1.24,0c-.39-.71-.47-4.46.62-4.46.46,0,0,4-.62,4.46m-1.73-.23c0-.52.15-1.13.73-1.25.06.56,0,1.37-.73,1.25m14.83-.65a2.31,2.31,0,0,0,.83-.83c.3-.62.33-.64.06-1.27a2,2,0,0,0-.77-1.1c-.36-.26-1.07,0-1.48,0-.65.07-1.28,1.39-.88,1.87s1.23,1.86,2.25,1.29M72.76,227c0-.68.12-1.48,1-1.49a2.48,2.48,0,0,1-.15,1c-.12.61-.21.49-.82.49m-1.48-.23a28,28,0,0,1,.35-4c0-.34,0-1,.58-.75.74.4-.15,3.35-.18,4s0,.71-.75.72m9.89-.36c.6-.57,2.15-1.44,3-1a4.47,4.47,0,0,1-3,1m-10.89.12a1,1,0,0,1,.23-1.73c0,.51.15,1.3-.23,1.73m18-2.17c-.2.58.24,1.24.51,1.73-.43,0-1-.11-1-.56s-.14-1,.51-1.17m-8.64,1.82a1.48,1.48,0,0,1-.75-1,.74.74,0,0,1,.75,1m-11.13.12c0-.61-.31-1.35.48-1.25a1.49,1.49,0,0,1-.48,1.25m20.53-.47a1.17,1.17,0,0,0-.51-1.47c1-.79,1.71,1.76.51,1.47m4.19-1.77a2.51,2.51,0,0,1,1-1c.12.85,1.23,1.39,2,1.46-.69.63-2.34,0-3-.47m-15.59.16c0-.6-.31-1.34.48-1.25a1.47,1.47,0,0,1-.48,1.25m-9.9.11c.14-.54.61-.93.72-1.49a1.79,1.79,0,0,1,1.25,1.23,10.84,10.84,0,0,1-2,.27m29.68-1.06c-.12-.51-.56-.76-1-1a2.06,2.06,0,0,1,1.4.1c.69.28.29,1-.4.88m-22.76.24c0-.23,0-.46,0-.68s.44-.12.49-.06c.41.36-.11.81-.48.74m-1.48-.23c0-.23,0-.46,0-.68s.44-.12.49-.06c.44.38-.14.77-.48.74m-3-.71c0-.25,0-1.65.73-1,.17.14,0,.76,0,1s-.66,0-.74,0M102.4,222a1,1,0,0,1-.51-1.47,1.93,1.93,0,0,1,.51,1.47m-30.47-3.64c-.33-.16-.74-.15-1-.31-.62-.34-.66-.6-.94-1.26a2.79,2.79,0,0,1,.15-2.5c.23-.27.69-.52.93-.2a2.41,2.41,0,0,0,1,.71,3.85,3.85,0,0,0,2.89.31c-.24.7-1.31.5-1.87.46a3.58,3.58,0,0,1-2.34-.91,3.08,3.08,0,0,0,2.55,1.54c1.16-.18,2.6-.15,2.89-1.6a1.23,1.23,0,0,0-.74.26,2.8,2.8,0,0,1,.48-1.13c.12-.18.91-.88,1-.51a7.51,7.51,0,0,1-.5,4.08c-.17.54-.38.55-.91.75-.81.3-1.89.09-2.76.31a4.15,4.15,0,0,0,2.8.23c1.27-.55,1.54-2,1.86-3.18.43-1.58-.15-2.92-.4-4.49s-.14-3.2-.44-4.79c-.16-.82-.32-2.28.86-2.37a4.78,4.78,0,0,1,2.24.25c.8.34,1.32,1,2.25.91.72-.1,0,.94-.19,1.11a1.88,1.88,0,0,1-1.18.38c.81.48,1.47-.18,2-.69a4.2,4.2,0,0,1,2.14-1.08c-.59-.22-1.27.14-1.83-.18a7,7,0,0,0-2.41-.84c-1.24-.21-2.53-.71-2.71-2.13.52.12,2.19-.13,2,.72a2.72,2.72,0,0,1,1-.5c0,.16,0,.34,0,.49.76-.38,1.42-.51,2,.23.19-.68.71-1.59,1.46-1.75a8.55,8.55,0,0,0,.26,1,4.38,4.38,0,0,1,3.63-2c1.57,0,2.78.79,2.8,2.44-.57-.1-1.48-1.41-2-1.27l-1.31.29c-.8.18-1.83,1.76-2.1,2.52.75-.94,1.39-1.93,2.65-2,.65,0,1.31-.23,1.78.35a2.27,2.27,0,0,1,.51,1.57c2.56-.56.6-4.18-1.08-4.61a8.36,8.36,0,0,0-3.06-.1c-.85.09-2.41.7-3.2.33-1-.47-1.38-1.3-2.51-1.46a4.73,4.73,0,0,0-3.43.6c-1,.64-1,2-2.27,2.08-1.06.07-1.84-1.44-2.47-2.08-.93-1-2.48.1-3.35-.65-.57-.48-1-.7-1.12-1.46a12.29,12.29,0,0,1-.13-1.81c.73.18,1.17.89,1.79,1.26a7.14,7.14,0,0,0,3.18.67c-1-.91-3.77-.83-4-2.43h.74a10.24,10.24,0,0,1-.27-2c.68.21.92,1,1.4,1.48s1.2,1.36,2.1,1.44c-.79-.62-1.91-1.19-2.25-2.2a10.12,10.12,0,0,1,2.24.48c-.82-.72-1.89-1.19-2.37-2.21s0-2.5,1.08-2.72c-.12.75-.57,1.21-.16,1.93s.64,1.51,1.68,1.51a2.79,2.79,0,0,0-.75-.73.88.88,0,0,1,1,0c-.36-.57-1.16-1-1.26-1.72h.74a5.29,5.29,0,0,1-.26-1.24c1.57.38,1.78,2.68,2,3.94.31-.69.1-1.72.72-2.24a3.29,3.29,0,0,1,.51,1.48c.22-.44.08-2,.48-2.24.22-.16.62,0,.74.24,0-.91,0-2.73,1.21-3a12.42,12.42,0,0,0,.77,3c.5-1-.3-2.18.22-3.22,1,.59,1.51,2.38,1.52,3.44.58-1.09-.36-2.46-.43-3.58-.06-.9-.14-2.62.85-3.1a8.79,8.79,0,0,0,.52,3c.32-.65,0-1.51.23-2.23a2.83,2.83,0,0,1,.76,1.47,21.49,21.49,0,0,1,.83-2.07c.45-.72,1-1.1,1.86-.67a3.12,3.12,0,0,0-1,1.49,1.67,1.67,0,0,1,1.49.72,3,3,0,0,0,.24-1.24c1,.61.3,2.15,0,3a2.17,2.17,0,0,1,.84-.42c.48-.06.51,0,.53.52,0,.76-.62,1.42-.85,2.11a4,4,0,0,0,1.25-1.75,1.16,1.16,0,0,0,.2-.64c0-.16.5-.18.5,0,0,.54,0,1.08,0,1.62.83-1.07.42-2,.21-3.22a2,2,0,0,1,1.26,2.26,15.94,15.94,0,0,1-.71,2.68c1.49.46,2.22-1.31,2.2-2.49a13,13,0,0,0-.72,1.49c-.4-.49-.13-1.6.09-2.14.46-1.14,1.45,1.18,1.58,1.58.53,1.76-1.4,3.49-1.38,5.25a4.84,4.84,0,0,1,1.27-1.62,5,5,0,0,0,1.92-1.62,4,4,0,0,1-1.47.51c0-.36.22-3.11,1.06-3,.44.06,1.2,0,1.46.44a4.48,4.48,0,0,1,.85,1.58,4,4,0,0,1-.62,3.11,29.15,29.15,0,0,0-2.19,2.54,8.79,8.79,0,0,1,2.22-1,14.55,14.55,0,0,1-.12,1.73,4.62,4.62,0,0,0-.34,1.49c1-.69,1.21-2.35,1.2-3.47.94.23.88,1.49,1,2.23.29,2.06-1.75,3.69-2.51,5.42-.89,2,.38,4.17,1.08,6,.25.64-.14.69-.56,1.06a2.87,2.87,0,0,0-.85,1.58c-.22,1.09.09,2.46,1.34,2.72a14.39,14.39,0,0,1-.76-2.17c-.09-.74,1.4-1.26,2-1.21,2.17.18,2.35,2.38,2,4.08s-1,3.43-1.32,5.2c-.07.38-.76.29-1,0-.72-.89.49-2.48.28-3.49a7.64,7.64,0,0,0-1.08,3.27,5.19,5.19,0,0,1-.09,1.11c-.12.38-.78.06-.84-.21a6.4,6.4,0,0,1-.1-2.26c.18-1.83,2.07-2.91,2.43-4.63a5.57,5.57,0,0,0-.14-1.34,1.07,1.07,0,0,0-1.47-.87c.85.7,1.45,1.39.92,2.53-.76,1.6-2.35,2.92-2.91,4.57-.46,1.35-.36,3.07-2,3.44-3.79.86-7.67,1.71-11.59,1.43a51.09,51.09,0,0,1-5.5-.43c-1.18-.21-3.29-.36-4-1.48s.56-1.69,1.39-1.91M69,221.51s-.17-.13.08-.09c0,.13-.06,0-.08.09m24.72-1.91c0-.49,0-1,0-1.48.45.31.92,1.68,0,1.48m-.54-4.94a16.68,16.68,0,0,1-2.27,2.15A12.66,12.66,0,0,1,87,217.87a6.84,6.84,0,0,1-4,.09,5.9,5.9,0,0,1-1.68-.82,2.7,2.7,0,0,0-1.47-.85c0,1.52,1.4,2.19,2.7,2.52a7.49,7.49,0,0,0,3.88-.22c1.45-.4,3-.51,4.41-1,1-.34,2.82-1.71,2.35-2.94m-24,4.45c-1.53-.87-1.79-3.24-1-4.69.65.42.48,1.36.64,2,.21.84,1.08,1.82.4,2.69m29-19.11c-1.39-.52-2.68,2.2-2.69,3.25-.54-.57,0-2.47.45-3,1.45-2.06,4.59-1,6.09-2.89.62-.78,1.24-2.38.07-3.06a3.81,3.81,0,0,1-.58,2.57,3,3,0,0,1-2.35.92c.4-.53,1.16-.62,1.54-1.21.23-.35,1-1.37.65-1.78-.06-.08-1-.37-1.24-.48a4.27,4.27,0,0,1-.66,1.44c-.29.39-1,.39-1.07-.19a2.33,2.33,0,0,1,1.77-2.53,2.85,2.85,0,0,1,2.74,1,3.37,3.37,0,0,1,.61,1.43,4.52,4.52,0,0,1-1.82,3.48,17.88,17.88,0,0,0-3.12,3.24c-1.31,1.72-.12,4.41,1,5.87.22.29.45.55.69.82-1-1.83-2.22-4-1.31-6.12a6.76,6.76,0,0,1,4.91-4.07,2.54,2.54,0,0,1,0-1.85,10.06,10.06,0,0,0,.2-2.61c1,0,1,1.23,1.26,2,.81-1,0-2.41-1-3,.7-.54,1.69.55,1.92,1.16a3.26,3.26,0,0,1-.14,2.78c.61-.37,1.09-.94,1.72-1.26.13,1.31-1.22,2.38-2.29,2.84s-2.68.52-3.62,1.28c-1.11.88-2.13,1.56-2.49,3s.1,2.37.36,3.87c.47-.87,0-2.18.27-3.16a5.19,5.19,0,0,1,3.25-3.39c1-.43,2.07-.62,3-1.1s1.45-1.17,2.29-1.59c-.58,3.67-7.81,1.84-7.86,6.27a7.76,7.76,0,0,1,4.42-3.06,7.12,7.12,0,0,0,4.06-3.18c.26-.44.75-.41.62.2.73-1.39-.76-2.48-1-3.7,1.42.45,1.82,1.82,1.87,3.16,0,1.15-1.54,2.65-2.45,3.12-1.42.71-3,1-4.4,1.75a5.37,5.37,0,0,0-2.33,2.94c.24-.13.57-.17.48-.49a4,4,0,0,1,.5,2.21c.09,1.24.43,2.43.63,3.66a7.24,7.24,0,0,1-1.31,6c-.25.29-.68,1-1.07,1.09s-1.37.42-1.73-.12c-1.29-1.84,1-4.67.29-6.77-.78-2.48-2.7-4.58-3-7.21a3.28,3.28,0,0,1,1.9-3.51m4.62,16.29c.17-1,.65-2,.82-3s.23-2.1.3-3.14c.11-1.53.06-3.35,1.71-4.09,1.94-.86,4.27-1,6.1-2.08a5.75,5.75,0,0,0,1.89-1.89c.32-.55.47-1.49,1.15-1.73a5,5,0,0,1-2.46,4.59c-1.55,1.08-3.41,1-5,1.87a5.67,5.67,0,0,0-2.91,4.6c-.17,1.6-.08,3.88-1.58,4.9m-12.16-3.1h1.24c-.23-1-1.56-1.47-2-2.45-.25.44-.15.93-.54,1.31s-.55-.4-1-.56a3,3,0,0,0-2.86.3,2.19,2.19,0,0,1,1.26,2c-.94-.78-1.56-.63-2.73-.47A1.39,1.39,0,0,1,85,212a2.16,2.16,0,0,0-1-.48,3,3,0,0,0,.48-1.25c-.55.1-2.52,1.9-2.39,2.51.24,1.13.1,3.43,1.71,3.42a8.68,8.68,0,0,1-.51-1.47,3.32,3.32,0,0,0,3.34.29c1.09-.48,2.12-1.42,3.33-1.59-1.08.89-2.48,1.49-3.19,2.76a6,6,0,0,0,2.5-1.44c.51-.37,1.46-.82,1.43-1.57m9.93,2.38a12.3,12.3,0,0,0,.9-3.39,6.13,6.13,0,0,0-1-3.29c-.51.81.35,2.14.49,3,.25,1.31-.69,2.48-.92,3.72a2.76,2.76,0,0,0,.49,0M84.5,214.5c.25-.41.46-.77,1-.5a1.26,1.26,0,0,1-1,.5m-12.38-.86c.47.1.89.2,1,.73-.5-.06-1.07-.07-1-.73m2,.23A4.15,4.15,0,0,0,73,213c-.21-.13-.87.14-1.12.19,0-2.49,3.79-.3,2.24.72m-4.95-.2a15.91,15.91,0,0,1-1.26-1.77,7.54,7.54,0,0,0-1.4-1.17,4.16,4.16,0,0,1-2.11-3.2c.58.17.88.9,1.21,1.35a11.09,11.09,0,0,0,1.84,1.62c.75.62,2.54,2,1.71,3.17m18.3-.44a3,3,0,0,1-.51-1.73c.74,0,1,0,1.28.77.16.46-.32.88-.76,1m-11.14-.87a13.74,13.74,0,0,1-1.75-1.46,4.79,4.79,0,0,1,.27,1.48,6.19,6.19,0,0,0-2-.74,3.46,3.46,0,0,0-2,.78c.08-.93-.58-1.72-.93-2.52a4.35,4.35,0,0,1-.36-2.64c.15-.82,1-4.25,2.19-4.25,0,.42,0,.82,0,1.24.43-.3.27-.83.83-.62s1.11,1,1.62,1.42A6.09,6.09,0,0,1,76,206.68c.49.77.28,1.8.31,2.66s.67,2.19,0,3m-7.18-1.66c-1.14-.89-3.44-1.48-3.49-3.18.81.28,4.21,2.06,3.49,3.18m34.11-2.83c-.4-.75.3-2.38.79-3,1-1.26,3-1.52,4.43-2a8.48,8.48,0,0,0,4.33-3.49c1.2.73-.15,2.32-.76,2.92-1.27,1.26-3.34,1.5-4.94,2.15a9.37,9.37,0,0,0-2.35,1.35c-.7.56-.82,1.55-1.51,2.1m-35.38.38c-.59-.4-1.44-.54-1.86-1.17s-.49-1.54-.93-2.25c-.93-1.53-.27-4-1.69-5.24a5.2,5.2,0,0,0-1.52-.62c-.82-.32-1.77.44-2.48.74a6.84,6.84,0,0,1-3.42.39,3.32,3.32,0,0,1-2.3-1.8c-.3-.74-.66-2.28.48-2.51a3.58,3.58,0,0,0,2.39,3.11,7.85,7.85,0,0,0,1.37.07c-.68-.33-1.43-.48-2.13-.83a5.7,5.7,0,0,1-.84-2.15c.06-.2.21-1,.39-1.11s1-.51,1.3-.48c1,.1,1,1.15,1,1.85a3.34,3.34,0,0,0,.44-.4c.29-.34.25-.41.6-.13A1.88,1.88,0,0,1,59.1,197c-1.32,0-2.72-.12-3-1.7a1.56,1.56,0,0,0,.65,2.08c1.95,1.32,4.19-.55,6.37-.33.42,0,.83.69,1.11,1,1.2,1.21.77,3.23,1,4.75a5.7,5.7,0,0,0,1.42,2.57c.53.64,1.46,1,1.64,1.94a16.21,16.21,0,0,1-1.74-.72c.4.35,1.6,1.1,1.26,1.71m28.94-.8a5.32,5.32,0,0,1-1.27-3c.5.5,1.52,2.27,1.27,3m6.17-2a3.91,3.91,0,0,1,1.1-2.61c1.43-.84,3.18-.75,4.61-1.66a6.48,6.48,0,0,0,1.7-1.45c.38-.48.78-1.14,1.42-1.29a3.45,3.45,0,0,1-1,2.71c-1.21,1-2.75,1.19-4.21,1.64s-2.32,1.79-3.61,2.66m-34.64.12a3.73,3.73,0,0,1-2.4-2.8,26.69,26.69,0,0,1-.9-5.58,2.76,2.76,0,0,1,1.26,2,3.44,3.44,0,0,0,.23-1.73c.93.18,1.28,1.26,1.75,2,.18-.26.23-.57.48-.74.41.78-.08,1.58-.45,2.27a5.54,5.54,0,0,0-.49,2.68,1.3,1.3,0,0,0-.74-.24c.22.72,1.41,1.48,1.27,2.22m.73-.75c-.43-.25-.85-.48-1-1,.47,0,1.36.42,1,1m15.83-.42c.22-.22.54-.41.48-.74a.72.72,0,0,0-.48.74m-15.38-3.3c.15-1.22,2.59-1.06,3.34-.72s1.52.82,2.3,1.22c.5.26.78.1.85.68s.15.61-.17.93a2,2,0,0,1-.86.56c-2.32.74-3.4-2.35-5.46-2.67m-.21,3c-.27-.29-1-1-.83-1.47A1.34,1.34,0,0,1,70,202c-.43.6,0,1.52-.72,2M77,202.71a2.45,2.45,0,0,1-.26-1c.29.29.54.61.26,1m-18.57-1.3A4.12,4.12,0,0,1,61,200c.9-.12,2.53-.13,2.58,1.11a13.28,13.28,0,0,0-2.58.16c-.83.18-1.8.58-2.61.15m18.3-1.18c0-1.66,1.32-2,2.7-2.19a2.71,2.71,0,0,1,3.24,1.62,38.42,38.42,0,0,1-5.94.56m43-6.14c-.15.93-1.38,1.71-2.21,2,1,.37,1.91-.62,2.71-1a3.36,3.36,0,0,1-3.19,2.5,3.15,3.15,0,0,0,1.48.23c-.26.82-1,1.11-1.67,1.46-1.16.56-2.39-1-3.33-1.43s-2.3-1.36-2.11-2.48c0-.23,0-.93.33-1,1.28-.14,2.86.56,4.12.78,1.65.27,2.4-.66,3.86-1.09m-50.17,4.48c.72,0,2.23-.55,2.48.47-.75,0-2.26.63-2.48-.47m5.67-1.79c0-.49,0-1,0-1.48a1.28,1.28,0,0,0,0,1.48m3.22-.29a5.25,5.25,0,0,1,2-1,2,2,0,0,0-1.4-.25c-.78,0-1.53-.28-2.32-.21a5.16,5.16,0,0,1,.27,1.48,1.86,1.86,0,0,0,.48-.74,10.59,10.59,0,0,0,1,.72m-2.23,0a2.24,2.24,0,0,0-.26-1.24,1.06,1.06,0,0,0,.26,1.24m-12.88-1.85c.14.71-1,.92-1.52,1.12-.32.12-2.28.66-2.17-.19s.08-1.31,1.07-1.4a3.59,3.59,0,0,1,2.62.47m22.51.26a6.52,6.52,0,0,1,.48-1.73,1.21,1.21,0,0,0-.48,1.73m9.56-8.76a7.28,7.28,0,0,1-4.42-1.42c-.61-.41-1.17-1-1.8-1.3a14.27,14.27,0,0,1-2-.85,7.27,7.27,0,0,0-1.57-1.22,8,8,0,0,0-2.65-.41c-1.61-.12-3.57-.46-4.83.82a2.52,2.52,0,0,1-1.5.85A7.14,7.14,0,0,0,74.3,184a29.76,29.76,0,0,0-3.91,3.58,9.61,9.61,0,0,0-2,4.16c-.26.85-1.06,1.34-1.47,2.1-.25.46-.26,1.28-.85,1.26a2,2,0,0,1-.67-.21c-.87-.41-.25-2.41,0-3A9.3,9.3,0,0,1,68,188.44c1.25-1.19,2.48-2.4,3.77-3.55a51.86,51.86,0,0,1,7.94-6.39c1.28-.75,2.38-.39,3.64.17,1.62.71,3.2,1.54,4.78,2.35,1.37.69,2.74,1.38,4,2.17s2.71,1.52,3.15,3m18.39,7.73c.56-.86,3-.57,3.23.46a7.14,7.14,0,0,1-3.23-.46m-29.18.8a18.79,18.79,0,0,0,.71-2.73c-.71.36-1.31,2.1-.71,2.73m-5.21-.45c-.43-.3-1.41-.53-1.24.26a2.53,2.53,0,0,0,1.24-.26m41.06-.92a11.39,11.39,0,0,1-.76-2c1.21,0,1.85,2.22.76,2m-3.71-.46a1,1,0,0,1,2,.23,2.22,2.22,0,0,1-2-.23m-59.63.62c.44-.82,1.16-.78,2-.76,0,1.12-1.2,1.28-2,.76m40-4.38c.45.26,2.22,2,1.85,2.73-.12.23-.39,1-.63,1.11-1.22.35-1.43-.24-1.5-1.35a8.19,8.19,0,0,1,.29-2.49M72.9,193.35l-.25-.25.25.25m-18.06.19a1.37,1.37,0,0,1,1-1.49c.06.69-.16,1.46-1,1.49m29.19-.8a5.47,5.47,0,0,0,.21-3.46c-.39.43-.13,1-.24,1.52a18.44,18.44,0,0,0-.47,1.94,1.66,1.66,0,0,0,.49,0m-1-.24a6.5,6.5,0,0,0,.26-3.2,9.25,9.25,0,0,1,.17-3c-.86.5-.78,1.74-.67,2.58a8.71,8.71,0,0,1,.15,1.6c0,.69-.4,1.33-.41,2a1.72,1.72,0,0,0,.5,0M66.18,189c.35-1.48.45-2.93,1.5-4.13a28.2,28.2,0,0,1,3.57-3c2.59-2.07,5.47-4.55,8.58-5.8,1.55-.62,3.24,0,4.69.61s3.23,1.23,4.79,2a55.46,55.46,0,0,1,9.09,5.55c.81.58,1,2.22,1.35,3.11.58,1.56,1.56,3,2.08,4.55-1.19,0-2-.08-2.66-1.15-2-3-4-6.7-7.34-8.44-1.64-.86-3.33-1.63-5-2.49a23.73,23.73,0,0,0-5.48-2.47c-1.32-.31-2.64.92-3.57,1.67-1.44,1.17-2.91,2.29-4.34,3.46a31.7,31.7,0,0,0-4.09,3.81c-.84,1-1.85,2.5-3.21,2.78m27.95-.53a11.69,11.69,0,0,1,.36,1.43c.07.44-.48,1.09-.57,1.53,1.43-.21,1.92-3,.22-3m-20.29,0a6.12,6.12,0,0,1-.46-1.48c0-.29.15-1,.45-1.12s.79,1.54.86,1.77c.24.75-.2.72-.85.83m75.2-1.28a32.31,32.31,0,0,1-.32-6.85c0-2.37,0-4.73-.08-7.1-.06-4.53-.32-9.11-.15-13.64s-.07-9.19-.14-13.79c0-2.25,0-4.48-.07-6.73,0-1.19,0-2.38,0-3.56a7.37,7.37,0,0,1,0-2.55c.22-.61.21-1,.81-1.22a3.82,3.82,0,0,1,1.6-.25c.7,0,1-.24,1,.5.06,4.17.39,8.31.4,12.48s-.24,8.42-.24,12.65c0,4.6.2,9.2.22,13.81,0,2.2.33,4.37.35,6.56s.57,4.89-.58,6.69a8.55,8.55,0,0,1-2.77,3m-1-.73a8,8,0,0,1-1.89-2.64c-.49-1-.19-2.06-.41-3.09a32.87,32.87,0,0,1-.31-6.91c0-4.88-.36-9.72-.41-14.59-.06-5.19,0-10.39-.3-15.57-.13-2.19-.16-4.29-.19-6.46,0-1.2-.64-4.57.48-5.44a2,2,0,0,1,1.38-.2c.75.15.91.28,1.12,1a10.17,10.17,0,0,1,.21,2.9c0,1.11.17,2.2.21,3.3.1,2.28,0,4.57,0,6.85-.06,4.73,0,9.47.09,14.2l.15,14.35c0,2.38,0,4.77.08,7.16,0,.91,0,1.83.07,2.74a3.53,3.53,0,0,1-.24,2.38m-72.73.76c-.75-1.16-.94-2.68.46-3.47.06.7-.21,1.37-.13,2.07,0,.47.11,1.09-.33,1.41m.73-1c.07-.92.22-2.15,1.46-2-.1.74-.65,1.86-1.46,2m3.19-2.76a1.45,1.45,0,0,1,1-1.49c-.13.59-.18,1.63-1,1.49m-1.24,0c0-.48.21-1.12.73-1.25.06.56,0,1.37-.73,1.25M82,169.74c1.27-.28,3.34,1.08,4.37,1.69,2.1,1.22,4.28,2.28,6.38,3.49,1.43.82,4,1.88,4.73,3.47.23.52,1,4.06.3,3.93-1.44-.24-2.72-1.27-4-2-1.44-.84-2.89-1.66-4.39-2.41a29,29,0,0,0-4.17-1.75c-1.16-.37-2.63-.75-3.22-1.93a3.19,3.19,0,0,1-.08-1.75,23.22,23.22,0,0,0,0-2.75M107,138.56a11.24,11.24,0,0,0,2.06,1.33,3.07,3.07,0,0,0,2.4.1c3-.89,5.23-3.4,7.26-5.64a13.48,13.48,0,0,0,2-2.94c.44-.82,1-2,2-2.17.2,2-1.56,4.14-2.58,5.72-.76,1.17-1.56,2.32-2.38,3.45-.32.45-1,1.64-1.65,1.56s-2-.44-2.39.41a13.9,13.9,0,0,0-.73,5c.8-.18,5.41-2.23,4.58-3.57-.29-.47-.66-.53-.57-1.07.17-1.08,6.22-9.3,7.49-8.1.48.48-.83,2.25-1.09,2.67-1,1.65-1.76,3.5-2.65,5.23a28.33,28.33,0,0,0-2.35,6.15,12.5,12.5,0,0,0,.7,6.53,41.45,41.45,0,0,1,1.63,13,35.56,35.56,0,0,1-.39,6.41c-.17.91-1.13,4.87.16,5.29.52.17.88-.72,1-1.08a15,15,0,0,0,.25-5.28,42.38,42.38,0,0,1,0-5.49,27,27,0,0,0-.38-5.71c-.3-1.81-1-3.94-.71-5.78.08-.58.48-.85.79-.24a32.81,32.81,0,0,1,2.64,5.75,40,40,0,0,1,1.16,6.84,53.92,53.92,0,0,1,.4,7.25c-.06,2.23-.16,4.77-1.46,6.67-.42.6-.51.61-1.24.8a3.92,3.92,0,0,1-1.51-.07,7.75,7.75,0,0,1-5-3.94,59.88,59.88,0,0,1-6.72-18.07,109.1,109.1,0,0,1-2.73-21M68.82,182c0-.39-.22-3.76.47-3.23.47.4,0,2.94-.47,3.23m56.4-1.08a42.85,42.85,0,0,0,.92-6.72c0-2.54-.13-5.08-.4-7.61a32.28,32.28,0,0,0-1.41-7.07c-.81-2.34-2.11-4.48-2.89-6.83-.3-.91.23-1.79.48-2.67,2.06,1.1,2.5,4.77,3.06,6.79.48,1.76.8,3.55,1.24,5.32a36.56,36.56,0,0,1,.7,5.09,78.76,78.76,0,0,1,.22,9c0,1.27,0,4.63-1.92,4.65M70.29,181c0-1.16,0-2.31,0-3.46.79.48.79,2.94,0,3.46m1.47-1c0-.58-.14-1.15-.17-1.73s.18-1.15.13-1.73c.79.49.79,2.94,0,3.46m1.47-1c0-1.16,0-2.31,0-3.46.79.48.79,2.94,0,3.46m54.42-.82c0-1.6.23-4.42,1.81-5.38a2,2,0,0,1,.75-.32c.19,0,.66,1.57.7,1.65a3.24,3.24,0,0,1,.06,2.82c-.26.46-.5.79-1.06.82-.78,0-1.51.37-2.27.41M74.72,178c0-.15-.16-4.31.46-3.72s0,3.4-.46,3.72m1.47-1c.09-.64-.53-3.46.38-3.46.25,0,.17,3.08-.38,3.46m55.9-1.58c.06-1.79.34-3.57.41-5.36s0-3.81,0-5.71a75.21,75.21,0,0,0-.56-10.87c-.52-3.65-1.56-7.25-2.43-10.84a27.63,27.63,0,0,0-1.67-5.07c-.75-1.65-1.29-2.82-.92-4.66,1.47.28,2,2.56,2.41,3.7a48.68,48.68,0,0,1,2,5.57,49.74,49.74,0,0,1,2,11.67c0,2,.46,4,.19,6s0,3.94,0,5.88-.24,3.78-.22,5.69c0,1.23,0,3.2-1.19,4M77.67,176c0-.83,0-1.66,0-2.5,0-.19-.1-1.46.48-1,.32.28.07,1.44,0,1.81,0,.53.36,1.69-.5,1.66m1.47-1c0-.15-.16-4.31.46-3.72s0,3.39-.46,3.72m1.47-.5c0-1,0-2-.06-2.94,0-.24-.06-1.79.5-1.27s0,3.29,0,3.91c0,.39-.08.31-.49.3m12.74-13c0,.46.09,1.86-.38,2.14a4.4,4.4,0,0,0-1.81,1.35c.49,0,1.9-.46,2.25,0a12.35,12.35,0,0,1,2.06,2.95c.45,1.15-.07,2.3,0,3.46a3.38,3.38,0,0,0,1-1.49c.82.76.46,2.17.18,3.06s-2.6.11-2.79-.29L93,170.9c-.34-.7,2.53-3.8.76-3.48-.54.1-.82.54-1.33.74a2.2,2.2,0,0,1-1.65-.2c-1-.46-1.41-1.7-1.67-2.68a3.84,3.84,0,0,1,.6-3c.78-1.29,2.4-.6,3.63-.83m34.5,10.78a12.64,12.64,0,0,1,.23-3.51c.3-1.1.88-2,1.25-3.08s1,.18,1.23.53a10.78,10.78,0,0,1,1.32,3.48,2,2,0,0,1-.44,2c-.55.47-1.2-.44-1.36-.92-.56.69-1.28,1.52-2.23,1.51m-57.2-4.11a2.92,2.92,0,0,1,1.26,2c.45-.9-.38-1.93-.09-2.87a10.28,10.28,0,0,1,1.75-2.93c.43-.51,1.39-.42,2-.43-.36-.66-1.22-.8-1.69-1.36s-.64-1.88-1-2.68a4.86,4.86,0,0,1-.62-2.8c.24-1.16-.14-2.13,0-3.26.08-.68.23-.8.88-.54a3.49,3.49,0,0,1,1.73,2.59c.22,1.15-.85,1.88-1.15,2.83-.22.7-.12.85.62.8s.87-.2,1.55.1c1,.45,1.13,1.7,1.27,2.7s-.07,3.4-1.1,3.82c-.4.16-1.09-.13-1.48-.21,0,.25,0,.49,0,.74a5.64,5.64,0,0,1-1.73-.48c-.2.58.27,1.08.63,1.46a4.42,4.42,0,0,1,.87,1.7c.36,1.06-.9,2.5-1.69,3a2.55,2.55,0,0,1-1.62.47c-1-.3-1.09-.3-1.19-1.35a6.75,6.75,0,0,1,.79-3.3m63.14,3.55c.09-5.22.59-10.37.32-15.6-.29-5.39-1.82-10.65-1.88-16.05l-.49.5c-.39-1.28,0-3,.16-4.33a37.93,37.93,0,0,1,.73-4.83c.49.71.19,1.85.06,2.62a22.33,22.33,0,0,0-.24,3.81,10.56,10.56,0,0,0,.54-3c.07-.39-.13-1.43.15-1.71.68-.68.18,2.84.16,3.12-.17,1.75-.25,3.55-.32,5.31.29-.56,1-6.2,1-6.2.84,0,.48,2.85.46,3.45.26-.52.23-1.38.72-1.74a3.67,3.67,0,0,1,.27,1.73c.29-.17.62-.61.89-.36a27.31,27.31,0,0,0,3.45,2.86,32.72,32.72,0,0,0,3.76,1.91c.63.33.42,1.71.39,2.28-.07,1.33,0,2.66,0,4s0,2.45-1,3.54-2.19,2.25-3.13,3.49C138,159,137.48,162,136.69,165c-.25,1-1.67,6.9-2.9,6.7M86.51,170.2a12.3,12.3,0,0,0-4-1.64c-1.5-.25-2.54,1.24-4,1.47a13.05,13.05,0,0,1,.9-2.55,14.43,14.43,0,0,0,.66-3.17,17.4,17.4,0,0,0,.08-3c0-1.07-.47-2.38-.06-3.4,0,.48,6.21.33,6.21.48,0,1-.45,1.91-.46,2.9,0,1.16-.29,2.31-.22,3.46a13.59,13.59,0,0,0,.54,3.22c.19.6.68,1.6.25,2.2m9-10.24c.64,1.23.48,2.75.57,4.09,0,.37.5,2.7-.48,2.21s-1.5-2.14-1.4-3.26.28-2.46,1.31-3m33.38-1.83c1.41-.12,2.6,3.47,2.95,4.46.12.35.26,2.18-.34,2.19a1.31,1.31,0,0,1-1.26-.46,2.67,2.67,0,0,1-.56-1c-.46.74-.66,1.76-1.55,2s-.93-1.39-.91-2a12.3,12.3,0,0,1,1.67-5.23m-58.06,8a15.15,15.15,0,0,1,.93-5.95c1.79.86,1.26,5.9-.93,5.95M93.34,161c-.47-1.34-2.29-1.22-2.65-2.69a3.66,3.66,0,0,1,1.24-3.55c.42-.39,1-.89,1.61-.78s1.59.15,1.74,1c.21,1.14.58,2.74,0,3.83-1.13-.64-1.36-2.09-2.5-2.69.69,1.31,2.34,3.93.54,4.94m34-9.51c.88,0,1.4.88,1.88,1.48a7,7,0,0,1,1.67,2.3c.17.66.83,2.33-.4,2.49-.78.11-1.47-.92-1.62-1.59-.51.82-.63,1.62-1.45,2.22s-1.24-.88-1.24-1.5c0-1.91.89-3.54,1.16-5.39m-47.53-3c-.18.94-1.3,1.34-1.46,2.25a3.35,3.35,0,0,1,3.46-.23c.63.29,1.22.53,1.42,1.19a4.29,4.29,0,0,1,.35,1.7c.56-1.11.23-2.29,1.36-3.08a4,4,0,0,1,1.82-.93c.7,0,1.31.41,2,.49-.29-.52-.7-1-1-1.47.86,0,1.73,0,2.6,0,.57,0,.69.14.82.69a1.43,1.43,0,0,1-.17,1.28c-.59.64-1.07,1.6-2,1.39s-1.38-.89-2.18-1.37c-.28,1,.13,1.84.12,2.81s-1.68,1.38-2.49,1.42-2.13.46-2.87-.36a2.14,2.14,0,0,1-.34-1.53c0-.55-.23-1-.77-.8s-.66.6-1,.85c-.55.36-1,.06-1.54-.13A2.84,2.84,0,0,1,76,150.8a2.23,2.23,0,0,1-.14-1.53c.2-.61.53-.7,1.09-.92a3,3,0,0,1,2.88.14m40.13,5c-1-.93-1.15-2.81-1.24-4.11a13.64,13.64,0,0,1,1.54-6.33c.74-1.75,1.65-3.43,2.39-5.18.49-1.16,1.12-3.2,2.54-3.48-.41,1.72-1.51,3.21-2.27,4.78s-1.46,3.33-2.19,5c-.62,1.43-1.42,3-1.15,4.63a15.46,15.46,0,0,0,.44,2.68c.21.63.49,1.46-.08,2m5.86-8c1.49.24,3.92,2,4.41,3.51.29.89,1,2.37-.45,2.38a1.49,1.49,0,0,1-1.36-.49c-.18-.19-.42-.87-.59-1-.56-.31-1.31,2-1.58,2.35-.73,1-1.72.21-1.83-.82-.19-1.94.82-4.15,1.4-6M120.46,151a12.2,12.2,0,0,1,1-7.46c.55-1.2,1.17-2.36,1.69-3.56a4.67,4.67,0,0,1,1.61-2.38c-.16,2.69-1.65,4.52-2.47,7-.31.88-.44,6.7-1.85,6.45m-39.61-2.8,4.95,0c0,1.93-4.93,2.13-4.95,0m42-.44c0-.64,1.62-9,3-8.49a4.93,4.93,0,0,1,2.67,3.73c0,.71-.28,1.75-1.1,1.87s-1.48-.63-2.11-.84a14.5,14.5,0,0,1-.41,2.47,1.89,1.89,0,0,1-2,1.26m-48.74-.24c0-1.44,1.65-1.59,2.77-1.59,1.83,0,3.67,0,5.5,0,.94,0,12.38-.21,12.26.52s-.13,1-.94,1.07c-3.19.11-6.34-.16-9.53-.12-3.35,0-6.7-.08-10.06.1m1.94-3.24c.24-1.15,1.16-2.08,1.71-3.09.36-.65.9-1.88,1.76-2a65.4,65.4,0,0,1,6.68,0c2.29,0,4.58-.1,6.87-.07,1.43,0,1.49.86,1.5,2.09,0,.75.32,2.54-.51,2.85a10.44,10.44,0,0,1-4,.31c-1.5,0-3,0-4.52,0-3.18,0-6.35-.17-9.53-.14m67.19-2.8c-1.63.57-2.79-1.27-3.22-2.5-.27-.76-1.07-3.59.34-3.62a7.84,7.84,0,0,1,2.31.23c.68.19.9,1,1,1.68.21,1,.5,3.59-.46,4.22m9.24-.91c-.29-2.16,2.37-.41.39,0m-18.46-.12c0-.57,0-1.16,0-1.73a1.55,1.55,0,0,0,0,1.73m18-1.68c0-1.08-.65-4.2.48-4.92.41-.27,1.14-.62,1.59-.31s.65.86.91,1.5c.48,1.17-1.88,3.69-3,3.72m-33.82-16c.15,1.12-1.12,1.66-1.78,2.32-1.12,1.13-2.36,2.15-3.42,3.33a21.12,21.12,0,0,0-2.66,3.68c-.59,1-1.57,2.43-1.38,3.69s1,2.14,2.23,1.71c2.37-.78,4.14-2.92,5.67-4.77a18,18,0,0,0,2-2.93c.38-.7.92-1.83,1.85-1.86,0,2.54-2.39,4.94-4,6.7s-4.09,4.36-6.82,4.41c-1.41,0-2.11-.35-2.4-1.75-.56-2.64,1.61-6.22,3.18-8.21,1.93-2.48,4.42-5.3,7.49-6.31m12.28,15c0-2.25.77-4.48.67-6.69.7.75.17,2.27,0,3.14-.17,1.11,0,2.6-.7,3.55m-36.37.39c-2.06,0-4.11.13-6.17.06-2.32-.08-4.64.25-6.95.07-.42,0-1-.06-1-.57a1.72,1.72,0,0,1,.66-1.35c1.55-1.31,3.72-.77,5.62-.71,2.34.08,4.69-.07,7,.08,1,.07.8,1.75.81,2.42m40.28-4.88a22.31,22.31,0,0,0,2.29,1.83c.37.19,1.87.82,1.16,1.39s-.74.27-1.45.08a2.19,2.19,0,0,1-1.11-.84,4.88,4.88,0,0,1-.88-2.45m-17.15-7.49c0,.56,0,1.14,0,1.7,0,.25,1.87-.34,1.76.22a9.42,9.42,0,0,1-1.28,2.61c-1.33,2.32-4.39,6.64-7.49,6.2-.31,0-.57-.84-.49-1.14a14.94,14.94,0,0,1,3.16-5.79c1.13-1.34,2.55-3.31,4.32-3.8m12.46,8.78a27.51,27.51,0,0,1,.93-6.2c.56.88-.1,2.29-.18,3.22s.14,2.36-.75,3m-12.69-6.54c-1.2-.28-2.91,1.72-3.65,2.48s-2.38,2.67-1.86,3.92c.42,1,2.81-1.44,3.11-1.78.86-.94,2.72-3.23,2.4-4.62M143,134.21c-1-.85-2.25-1.73-2.26-3.19,1,0,3.63,2.28,2.26,3.19m-13.85-.35c.3-1.54.44-3.12.69-4.67a26.4,26.4,0,0,0,.46-4.49c.68.72,0,2.85,0,3.72a42,42,0,0,1-.5,4.59c-.11.56,0,.94-.64.85m28.57-.79c.32-.58.26-.56-.11-1.12-.23-.35-.51-.67-.9-.23-.64.72.13,2,1,1.35m-62.43-18.4c-.06,3.44-.23,6.93-.41,10.37-.1,1.9-.2,3.76-.18,5.67,0,.91.37,2.7-.83,3-.76.22-2.47.68-2.84-.3-.58-1.55-.41-3.67-.38-5.31,0-2,0-4,.14-6a7.52,7.52,0,0,1,1.8-3.87c.83-1.18,1.39-2.88,2.69-3.61m-5.74,19.11a23.84,23.84,0,0,1-.18-2.78,23,23,0,0,0,.12-2.74c0-1.08,0-2.16,0-3.24,0-.74-.19-1.83.47-2.38.86,1.65.1,3.68.07,5.42,0,1.48.56,4.41-.44,5.71m36.12-.87a13.12,13.12,0,0,1-.86-2,9.92,9.92,0,0,0-1.43-2.13c-1.16-1.45-2.59-1.77-4.22-2.46-.64-.28-.44-.47-.3-1.09.51-2.25,1.28-4.41,1.77-6.67s.93-4.73,1.43-7.09a40.3,40.3,0,0,0,.87-6.62,34.28,34.28,0,0,0,0-3.49,2.43,2.43,0,0,1,.57-2.16A30.48,30.48,0,0,1,127.92,97c.8-.42,1.64-.75,2.42-1.21a6.09,6.09,0,0,1,2.14-1,3.59,3.59,0,0,1-.92,2.69c-1.82,1.52-4,2.35-6,3.6-1.18.75-.67,3.07-.72,4.22-.1,2.2-.47,4.35-.77,6.52s-.57,4.11-1,6.14-1.26,4-1.67,6.09c-.15.69.88,1.41,1.38,1.72a17.61,17.61,0,0,1,2.58,1.94,2.5,2.5,0,0,1,.58,1.82,5.66,5.66,0,0,0-.52,2,16.77,16.77,0,0,0,2.65-4.76c.8-1.92,1-4.07,1.94-5.92,1.12,1.32-.85,4.76-1.33,6s-1,2.33-1.43,3.5c-.35.89-.66,2.1-1.56,2.62m-39.4-5.27c-.27.41-.79,1.93-.25,2.3.18.13.6.54.81.46.59-.26.38-1.17.29-1.62a1.81,1.81,0,0,0-.85-1.13m48.51,2a13.32,13.32,0,0,1,.23-2c.52.14,1.06.32.87.88a2.51,2.51,0,0,1-1.1,1.1m-1.09-9.39c1.51.3,2.8,2.61,3.33,3.92.26.62.57,1.71.08,2.31-.67.81-2-.17-2.6-.54-.18.56-.49,2.44-1.21,2.56-1,.17-1-2-1.14-2.6a9.56,9.56,0,0,1,1.54-5.64m10.13-1.1c-.78-.15-2.2-.6-2.72.28a3.36,3.36,0,0,1,1.87.32,2.27,2.27,0,0,1,1.15,1.63c.09.46.59,1.57.24,2s-1,.07-1.48.75c1.39,0,3.06.94,4.29,0a13.53,13.53,0,0,1,1.79-1.49,6.73,6.73,0,0,1,2.56-.58c-.36.61-1.06,1-1.29,1.68s0,1.11-.56,1.53a1.29,1.29,0,0,1-1.33.29c0,.36.21,1.2-.18,1.41a10,10,0,0,1-4.8.54c-1.07-.11-2,0-2.49-1.14a29.58,29.58,0,0,1-1.74-9.36c0-1.12.14-2.16,1.27-2.63a7.41,7.41,0,0,1,3.32-.43c1.66.07.5,4.47.12,5.22m-17.48,8.6a12.29,12.29,0,0,0-2.78-2.52c-.8-.55-1.57-1.1-1.22-2.19a73.32,73.32,0,0,0,2.23-10.31,57.21,57.21,0,0,0,.66-5.82c.06-.89.09-1.78.1-2.67a4.38,4.38,0,0,1,.23-2.15c.5-.81,2-1.21,2.77-1.61.52-.27,2.51-1.61,3.07-1.07.24.23-.21,1.22-.33,1.52-.65,1.62-2.95,1.39-3.57,2.93a8,8,0,0,0-.22,2.47c-.07,1.19-.11,2.37-.2,3.55a62.25,62.25,0,0,1-1.08,7c-.22,1.19-.44,2.37-.69,3.54-.16.76-1.06,2.76-.52,3.47s2.39,1.56,2.27,2.71c0,.57,0,1.27-.71,1.14m23.25-.74c.35-1.78,2.31-1.28,3,0a19.76,19.76,0,0,1-3,0m-18.8-23.8c0,4.39-1.09,8.73-.72,13.12.17,2-.7,3.9-1.22,5.81-.17.62-.46,2.91-1.49,2.65a2,2,0,0,1-1.66-2.4c.55-3.25,1.22-6.47,1.71-9.73.24-1.55.48-3.11.62-4.67.08-.89-.34-2.87.34-3.56a3.15,3.15,0,0,1,2.42-1.22M150.6,124c.07-.55.72-.93,1.23-1a1.39,1.39,0,0,1-1.23,1m-3.74-2.93a7.31,7.31,0,0,1,2.38-1.64c.89-.2,2.79-.35,2.56,1.09a3,3,0,0,1,3.43-.15c.53.27,1.43.46,1.57,1.1a11,11,0,0,1,.22,2.21,5.81,5.81,0,0,1-2.75-.51c-.87-.45-1.23-1.39-2.17-1.82s-1.83,0-2.69.15a4.25,4.25,0,0,1-2.56-.42m-1,2.73a12.81,12.81,0,0,0-.27-2c.4,0,2.09.14,1.92.67a1.92,1.92,0,0,1-1.65,1.31m.7-4.21a2.6,2.6,0,0,1,1,.24.61.61,0,0,1-1-.24m1.47-.76c.57-.89.83-1.74,1.82-2.26a2.19,2.19,0,0,1,1.3-.21c.74.17.85.34,1.32.93a2.88,2.88,0,0,1,.37-.74c.28-.57,2.36.27,2.8.42.73.25.9.84,1.2,1.48.22.46-.63,1.22-1.08,1.18a26.91,26.91,0,0,1-3.92-1c-1.26-.33-2.54.1-3.8.15m-13.92-6.28c.85,1.35,2,2.83,2.21,4.43.11.7.1,2-.55,2.41s-1.68-.65-2.55-.24-1.33,1.11-2,.14a3.53,3.53,0,0,1-.21-2.47c.41-1.43,1.36-4,3.08-4.28m11,6.81c-.26-.65-.47-2.26.47-2.47,0,.68.2,2-.47,2.47m.74-.26c0-.25,0-.49,0-.74a.54.54,0,0,1,0,.74m1.23-1.25c.25-.41.46-.77,1-.5a1.22,1.22,0,0,1-1,.5m2.95-2c-.48-.87,0-1.35.61-1.91s1.52,0,2.09.4c0-1.12,1-1.28,1.91-.93a4.48,4.48,0,0,1,1.46,1,1.89,1.89,0,0,1-.06,1.34c-.55.6-1.79.22-2.45.07a6.41,6.41,0,0,0-3.56,0m-1-2.22c-.72,1-1.76,1.06-1.7,2.49-1.08,0-1.42-1-1-1.8s1.62-.94,2.65-.69m-.72,1.74a.61.61,0,0,1,.74-.5,1.4,1.4,0,0,1-.74.5m-3,0a1.45,1.45,0,0,1,.23-1.73,1.42,1.42,0,0,1-.23,1.73m1.93-4.72a15.89,15.89,0,0,1,2.47,0,1.08,1.08,0,0,1,.85.51c.34.53.24.63,0,1.24-.13.41-1.93.24-2.29.22-1.11,0-1.06-1.14-1.09-1.94M141.09,113c-.64-1.19,0-2.59-.27-3.85-.12-.7-.76.66-.75.65-.43-.47-.48-2.27-.48-2.87,0-1,.63-2.34.43-3.31.66.71,0,1.88,1,2.46,0-.66,0-1.32,0-2,.7.46.76,1.92.77,2.65,0-.1-.86.23-1,.34-.45.42-.67.58-.18,1.09s1.2,2.33,2,1.49c.37-.37.42-.88.86-1.2a2.72,2.72,0,0,1,1.26-.46c0,1.5-.14,3-.2,4.45-1-.2-.76-1.92-.77-2.67,0-.15-.49,0-.48.45,0,.75-.21,1.49-.23,2.25-.78-.11-.7-1.15-.76-1.72-.88.49-.47,1.7-1.24,2.22m-7-2.15c-.84-.15-.83,1.39-1.76,1.25-.49-.08-1,0-1.12-.54a4.53,4.53,0,0,1-.07-1.32,7.9,7.9,0,0,1,2.75-4.83c.52-.38.59,0,.9.49a12.4,12.4,0,0,1,1.73,3.81c.17.76.18,2.07-.68,2.48s-1.58-.67-1.75-1.35m12.38.86c0-.25,0-.49,0-.74a.54.54,0,0,1,0,.74m9.89-.85a7.9,7.9,0,0,0,1-3.72,4.93,4.93,0,0,0-1.23.5,26.13,26.13,0,0,0,1.18-3.3c.37-1.47-1-1.83-1.25-3.14a4.66,4.66,0,0,0-.72,1.21c-.25.4-.85.68-.63,1.24a22.57,22.57,0,0,1,.75,2.4c.4,1.52-.75.26-1.36,1.33-.13.21.21.66.3.88.24.53,1.33,0,1.21.7a3.23,3.23,0,0,0-.09.92c.06.52.29,1.09.89,1M146,110.19a.93.93,0,0,1,.73-.75c.11.55-.19.85-.73.75m1.72-.51a1.29,1.29,0,0,1,.75-1.29,1.72,1.72,0,0,1,1.63.33c.08.12.46.63.28.71a6.52,6.52,0,0,1-2.66.25m-2.25-1.7a15.16,15.16,0,0,1,.23-2.23c.46.47.77,2.45-.23,2.23m2-1.75c0-.6,0-4.82,1.27-3.7a2.19,2.19,0,0,1,.6,2.26c-.18.59-.17.82-.68,1.13a2.23,2.23,0,0,1-1.19.32m-12.64-2.59c-.67.14-1.5,1.27-2.27.92s-.85-1.59-.59-2.38a10.07,10.07,0,0,1,3.1-4.31c.43-.38.44,0,.62.27.93,1.51,2.18,4.9,1.06,6.54-.62.91-1.81-.35-1.92-1m-9-7.09c-.46.82-1.47-.8-1.69-1.13a34.46,34.46,0,0,0-2.51-3.56c-.79-.93-3.84-4.09-5.08-2.34a3.7,3.7,0,0,0-.86,1.44c-.25,2.2,1.76,5,3.12,6.52,1.19,1.34,4.3,3.44,3.37,5.53a4.61,4.61,0,0,1-2-1.69c-.72-.83-1.47-1.61-2.16-2.49a20.1,20.1,0,0,1-3.31-6c-.61-1.84-.56-4.77,1.84-5.2,2.25-.41,4.29,1.26,5.72,2.79a13.49,13.49,0,0,1,3.53,6.1m18.37,5.25c0-.29.1-3.34-.52-2.71-.28.27,0,1.29,0,1.62,0,.49-.24,1.15.51,1.09m-1.5-1.46c0-.65.14-2.1-.76-2.22.14.67.15,1.76.76,2.22m6.19-.56c.21-.85.81-1.25,1.43-1.8.19-.17.12-.89-.16-1a3.4,3.4,0,0,0-1.31-.19,20.11,20.11,0,0,1,.7-3.66,4.16,4.16,0,0,0,.25-1.2c0-.35-.69,0-.76.16a6,6,0,0,1-.51-2c-.55.4-.45,1.4-.48,2a5.26,5.26,0,0,1-1.24-.24c0,1.16,1.9,4,.66,4.73-.34.21-.79.4-1,.78s1.75,2.4,2.38,2.39m-27.22,0A11.92,11.92,0,0,0,120,98a18.53,18.53,0,0,1-2-2.67c-.74-1.13-2.62-3.68-1.56-5.11.38-.5,1-.41,1.56-.41,1.41,0,2.71,1.79,3.5,2.74s2.6,3,2.42,4.39c-.09.58-.76.88-1.16,1.22s-.43.91-.43,1.5c0,.29-.49.15-.75.15m14.07-3.61c-.57.3-1.25,1.22-1.95,1.15-.91-.1-.77-1.56-.47-2.14.41-.76,2.42-4.3,3.45-3.48a3.63,3.63,0,0,1,.83,1.87c.27.91.83,1.88.6,2.86s-.19,2-1.28,1.71c-.92-.22-1-1.15-1.2-2m-13.34,1.62a8.69,8.69,0,0,0-2.46-5.35c-.31-.31-1.25-.83-1.68-.56-.66.41,0,1.56.13,2a7.29,7.29,0,0,0,4,3.9m14.76-8.08c-.78-.18-.82,1.15-1.65,1.21-.54,0-.82.15-1.12-.35a1.61,1.61,0,0,1,0-1.14,7.32,7.32,0,0,1,1.74-3c.09-.09,1.94-1.62,2-1.41a21.09,21.09,0,0,1,1.17,4c.1.69.15,2-.71,2.27-1,.32-1.2-.82-1.41-1.6m20.54,1c0-.49,0-1,0-1.48-.59.3-1,1.68,0,1.48m-24.49-.48a21.29,21.29,0,0,1-1.55-5.49,28.68,28.68,0,0,1-.82-6.08,22.07,22.07,0,0,1,.76-5.63c.44-1.58,1.06-3.6,2.27-4.77.49-.48.64.48.73.77.19.62-.31,1.48-.49,2.07-.34,1.06-.68,2.11-.94,3.19a22.9,22.9,0,0,0-.54,6.36,35.41,35.41,0,0,0,1,5.73c.25,1.13.75,3-.4,3.85m20-.46c.19-.37.36-2.59-.51-2-.25.17-.23,1-.21,1.22.06.48.15.87.72.76m3.7-1.28c0-.33,0-.66,0-1a.78.78,0,0,0,0,1m-3.24-1.95a5.34,5.34,0,0,1,.19-2.46c0-.21.48-1.4.19-1.54s-.86-.43-.93-.94c-.66.2-.86.94-1.62,1-.39,0,.87,3.38.93,3.71l-1.73,0c0,.72.07,1.23.84,1.25,1.27.06,3.1.55,3.54-.88.18-.52-1.2-.27-1.41-.15m2.71-.52c0-.42,0-.82,0-1.24a1,1,0,0,0,0,1.24m-22-.51c-2.52-4.6-1.1-10.78.68-15.36.52-1.36,1.83-.75,2.79-.26a2.86,2.86,0,0,1,1.15,1c.27.64-.23,1.48-.43,2.08-.32,1-.75,1.91-1.08,2.89-.36-.48-.11-1.22,0-1.73a10.9,10.9,0,0,0,.18-2.72c-1.65,2.23-1.92,4.78-1.9,7.44,1.43-.75.31,1.82.09,2.48s-.46,1.41-.66,2.11-.27,1.67-.84,2.12m3.68-2.26c-.4.41-.94,1.08-1.56,1.08-.84,0-.48-1.41-.34-1.8.39-1,1.65-2.54,2.81-2.71.8-.12,1.24,2.11,1.29,2.62s.09,3.34-1.24,2.59c-.58-.34-.75-1.2-1-1.78m17.82.8c0-.49,0-1,0-1.48a1.3,1.3,0,0,0,0,1.48m-.52-2.72c0-.33,0-.66,0-1a.79.79,0,0,0,0,1m-.75-1.47c0-.25,0-.49,0-.74a.53.53,0,0,0,0,.74m-15.11-1.57c-.76.37-1.33,1-2.22,1a4.69,4.69,0,0,1,1.31-2.65c.5-.65,1.15-1.91,2.06-2,.42-.07.34.13.44.52a10.69,10.69,0,0,1,.35,3.8c0,.51-.58,1.07-1.1.83s-.65-1-.83-1.47m8.65-.83c.63-.18,1.82-.32,1.36-1.17a.87.87,0,0,0-1.61.43c-.52-.36-2.38-1.55-2.16-.06.13.83.94.27,1.34.62s.09,1,.1,1.43a.91.91,0,0,0,1-1.25m5.69.19a3.18,3.18,0,0,0-.26-1.24,2,2,0,0,0-.24,1.24,2.75,2.75,0,0,0,.49,0m-1-1.72c0-.25,0-.49,0-.74a.55.55,0,0,0,0,.74m-5.2,0a13.37,13.37,0,0,0,.83-2.2,1.1,1.1,0,0,0-.17-1c-.13-.16-.82-.7-1-.47a3.33,3.33,0,0,1-.64.7c-.64.53.48,2.51,1,2.95m4.2-2a1.23,1.23,0,0,0-.26-.74,1.3,1.3,0,0,0-.24.74,2.75,2.75,0,0,0,.49,0m-10.4-.14a2.79,2.79,0,0,1,1.47-1.26c0,.77-.63,1.72-1.47,1.26"/><polyline class="g" points="112.98 66.79 112.55 74.44 118.99 64.6 112.98 66.79"/><path class="h" d="M98.16,62.73l-8.27,6.43-1.21,0c-3.56-1.69-7.59-3.08-10.92-5.18s-5.27-6.1-7.37-9.28l-3.06-.19,4.76,15.29a42.42,42.42,0,0,0,10.09,5.2l2,7L83,89.38a19.71,19.71,0,0,1,7.46.21,43,43,0,0,1-.4-5.85,34.71,34.71,0,0,1,1.33-5.4l2.21-2.91v-.56c1.18-.72,1.91-1.86,3.08-2.65L101.38,69v.13l.07,0c1.15-3.95,2.19-7.84,3.07-11.85l-1.64.74-4.71,4.73"/><path class="g" d="M81.11,116.31v-3.92l-6.3.32-.4,20.68,6.68-10.28c0-1.71.3-3.64-.29-5.29l.3-1.5"/><polyline class="g" points="75.2 111.23 88.69 111.4 94.62 102.05 74.9 102.13 75.2 111.23"/><path class="i" d="M81.11,116.31l-.3,1.5,1,4.12c2.06-3.12,4.12-6.21,6-9.42l-6-.21-.8,4"/><polyline class="g" points="17.73 106.04 16.28 106.04 16.28 107.39 17.73 107.39 17.73 106.04"/><polyline class="i" points="20.93 119.55 17.19 119.53 17.88 121.14 19.93 121.43 20.93 119.55"/><polyline class="h" points="33.85 116.51 33.85 116.78 34.78 116.22 34.36 115.67 33.85 116.51"/><path class="h" d="M46.23,148.71l1.26-2.33c.23-8.34,2-16.35,4-24.41l.16.25v-2.15l-4.39-1.92-2.59-4.73.43-.85H44c-.22.71-.5,1.43-.76,2.13L42,113.88l.27,2.17-2.47,6.82-1.21-1.6c2.39,10.46.31,21.42-1.73,31.69h1.28l8.11-4.24"/><path class="g" d="M30,106.08l4.71,4.26L36,112.9l-1.66,2.76.43.56,1.1-.65,2,1.77.73,3.91,1.21,1.6L42.27,116,42,113.87l-.14-.09A60.89,60.89,0,0,1,36.6,94.69c-.82-6.7.1-13.28-.14-20l-.74,0A47.34,47.34,0,0,0,32.94,83a30.75,30.75,0,0,1-3.18,7.85l-4,3.58v9.85l.26.34.87-.13L30,106.08"/><path class="g" d="M45.76,65.62c-4.19,9.51-.79,19.52,2.86,28.5-1.26,2.65-.73,6.46-1.83,9.13A47.22,47.22,0,0,0,44,112.57H45.1l-.43.85,2.59,4.73,4.39,1.92v2.15L51.5,122c-2,8.07-3.8,16.07-4,24.41l-1.26,2.33-8.67,4.52c-2.3,4.7-3.13,10.18-4.51,15.25l-.51.69c-.57,2.16-1.21,4.29-1.86,6.43l.48,1,11.52,6c7.25-10.22,13.63-21.1,20.32-31.7l3.28-40.36-1.4-46.71H42.6l3.17,1.79"/><path class="i" d="M24.93,141a106.79,106.79,0,0,1,.92-13.54l-1.75-.4c-.68,1.45-1.38,2.89-2,4.37-.51,1.27-2.35,2.42-3.33,3.29.68,2.74,1.44,4.91,1.49,7.75l.86,2.08,1.43.53c.75-1.39,1.52-2.74,2.36-4.09"/><path class="i" d="M13,118.91l17.67-.26-1.24.73c.82,4.55,1.74,8.74,1.55,13.34L30.63,142c-.08,1.89-1,3.7-1.16,5.59-.49,5.06-1,10.13-1.72,15.17-.39,2.55-.9,5.1-1.35,7.63-.38,2.16-1.72,4.41-2.53,6.44A26.6,26.6,0,0,0,33,168.48c1.13-4.12,2.36-8.24,3.19-12.43.75-3.81,2.09-7.81,2.45-11.65a94.62,94.62,0,0,0-.84-27.06l-2-1.77-2.28,1.36,2.43-4-1.33-2.56a36,36,0,0,0-7.8-5.85l-.88.13-.09,11.09c-4.67.3-9.3.54-13.93,1.17v1.33l1,.71"/><polyline class="i" points="17.89 107.71 16.11 107.66 13.75 111.96 12.1 112.02 12 116.88 17.85 114.47 17.89 107.71"/><path class="i" d="M36.3,81.67c-.5,11.12.75,22,5.55,32.1l1.37.92c1.21-3.25,1.6-6.6,2.92-9.83s1.57-6.66,3.06-9.81c-3.65-9-7.63-19.93-3.43-29.44l-2.58,0c-3.39,2.38-5.26,4.25-6.77,8.14.1,2.67,0,5.26-.11,7.93"/><path class="i" d="M95.33,73.09l-4,5.25A34.71,34.71,0,0,0,90,83.74a43,43,0,0,0,.4,5.85A19.71,19.71,0,0,0,83,89.38l1.27-7.29-2-7-9-2.91-1.5,4.24,3.48,22.54c7.2-.37,14.36.41,21.58-.1,2.85-4.32,2.79-10.88,3.57-15.85.72-4.61.81-9.28,1.09-13.94l-6.06,4.07"/><path class="i" d="M60.15,17.07c1.33,1.94,3.12,3.44,4.4,5.36A19.36,19.36,0,0,1,67.44,29c10.88-4,22.82-6.64,34-2.57,1-2.27,1.94-5.89,3.85-7.61,2.4-2.15,3.78-4.64,5.75-7.17a13.06,13.06,0,0,1-3.1-.84,14.17,14.17,0,0,1-4.84,1.47l-1,1,.21,3.22a5.1,5.1,0,0,1,1.82,1.55l-1.6,1-2.1-.37-2-1.38-.1-1.92.8-2-.17-3-.48-.22-1.06.32-.66,1.48.14,3.74a15.25,15.25,0,0,1-2.35,1.78l-3.12.18-.85-1.32L93,15.38l1.78-2-.92-2.6-2.32-.1-.22-2.62-3.66-.25L85.35,9l-.23,1.76-1.39.2-1,.65-.53,2.52a15,15,0,0,0,4,2l-1.06,1.5L81,17.73l-3-2.45-.93-5-.77-.17-.7.73L75,12.25c.62,1.22,1.25,2.44,1.86,3.67l-1.37,3.35-2.93.84-2.36-2,1.6-.35,1.79-2.57-1.72-2.68-1.6.45-.48-2.12L66.17,10l-1.48,2.29-.49,2.4-2.77-.94a38.5,38.5,0,0,1-4.28-.14l-.53.88a16,16,0,0,1,3.54,2.6"/><path d="M84.85,10.56c-1,0-1.51,0-2.09.85A5.65,5.65,0,0,0,82,14c-.14.94,3.19,2.57,3.86,2.21-1,1.8-4.13,1.45-5.64.58a3.3,3.3,0,0,1-1.83-2.48c0-.65.67-2.4,0-3-.37-.33-1.92-2.22-2.53-1.18s-1.38,1.82-.85,2.94c.32.67,1.65,2.23,1.39,3A6.75,6.75,0,0,1,75.76,18a8.84,8.84,0,0,1-1.2,1,4.08,4.08,0,0,1-1.8.33,2.13,2.13,0,0,1-1.69-1,2.84,2.84,0,0,0,2.45-1.51,4.78,4.78,0,0,0,.65-1.49c.08-.88-.89-1.91-1.41-2.54s-1.58-.75-2.2-1.5S69.15,10.4,68.21,10c-.76-.34-1.9-1-2.54-.11A10.54,10.54,0,0,0,64.36,12c-.23.56-.16,1.88-.81,2.16s-1.25-.42-1.69-.6c-.69-.31-1.38,0-2.1-.15-1-.18-2.93-.75-3.34.69-.24.84,1,1.09,1.5,1.32a6.84,6.84,0,0,1,2.37,2.28A7.06,7.06,0,0,1,61,19a6.28,6.28,0,0,0,1.26,1.45c.48.53.89,1.11,1.36,1.65s1,.76,1.36,1.35a8.6,8.6,0,0,1,1,7.88,12.27,12.27,0,0,0-.85,3.45A5.91,5.91,0,0,1,64,38.38c-1.46,1.55-3.78,1.83-5.67,2.58-2.41,1-2.92,3-4,5.11-.6,1.18-2.68,1.23-3.59,2.24a10.28,10.28,0,0,0-2.54,4.6c-.17.94,1.14,2.25.81,3.14-.48,1.34-2.5,2.21-3.59,3a15.9,15.9,0,0,0-4,4,67.67,67.67,0,0,0-5.63,10.62,84.68,84.68,0,0,0-3.67,11.2,16,16,0,0,1-2.32,4.88c-.86,1.21-2.2,3.1-3.69,3.55,0-1.71-.28-3.39-.3-5.12l-.06-5.24c0-3.38-.4-6.78-.34-10.16a45.65,45.65,0,0,0,0-4.94,25.59,25.59,0,0,0-.48-4.62c-.17-.56-2.77-4.84-3.67-4.3a10.52,10.52,0,0,0-3.54,4.23c-.79,1.86-.26,4.73-.24,6.71q.07,7.66.16,15.32c.06,5.12.35,10.26.21,15.38a9.4,9.4,0,0,1-.5,3.35c-.42,1-1.1,1.95-1.61,2.93-.69,1.32-1.07,4.38-2.76,4.87-.19,0-.59-.11-.74.06s-.08.74.11.75a2.87,2.87,0,0,1,2.46,1.69,1.16,1.16,0,0,1-.43,1.29,1.88,1.88,0,0,1-1,.53c-.34,0-1.08-.19-1.19.19-.06.22-.11.43-.15.65-.17.87,3.81.28,4.07.22a27.17,27.17,0,0,1,5.76-1,45.1,45.1,0,0,1,6.42.53,5.47,5.47,0,0,0,2.74,0c.32-.16,1.26-.35,1.37-.73s.75-2.39-.23-2.38c-.8,0-.86,0-1.35.61a1.58,1.58,0,0,0-.26,1.14c-.88-1-.61-1.77.45-2.44.58-.38.63-.53,1.26-.28s1.1.35,1.44.9c1.35,2.11-.62,4.26-2.9,4.3-1.43,0-2.83.33-4.25.36-1.63,0-3.27,0-4.9.08s-3,.18-4.58.2-3.36-.17-5-.19c0,.25,0,1.48.37,1.48a9.13,9.13,0,0,1,5.22,1.49c.45.27.79,1.28.1,1.51a3.23,3.23,0,0,1-1.94.27,10.45,10.45,0,0,1-3.45-1.54c-.07.44.18.84.13,1.28a7.48,7.48,0,0,0-.1,1.69,13.1,13.1,0,0,1,.36,3.45c-.11,1.16.54,2.12.56,3.26,0,1,0,1.86.9,2.43a6.23,6.23,0,0,0,3.18.73c1,0,1.26,1,1.44,1.84a20.07,20.07,0,0,0,1.31,3.65c.47,1.06-.38,2.45.13,3.63a3.36,3.36,0,0,0,2,2.19c.47.14,1.18.42,1.36-.08a2.63,2.63,0,0,1,.86-1.43,6,6,0,0,0,.28,2.72c.66-.77.49-2.08.47-3,0-1.4.16-2.78.2-4.17.67.19,1.32.51,2,.72a2.64,2.64,0,0,0-.24,1,1.74,1.74,0,0,0-1-.73c0,.56-.06,1.12-.11,1.68s.24,1,.2,1.44.08.53.48.73.71.82,1,1.32c.42-.38.5-1,.88-1.39s1-.54,1.08-1.12a2.29,2.29,0,0,1,.24.88c0,.59-.09.15-.36.42-.76.68-.57,1.64-.65,2.57a9.2,9.2,0,0,0,.34,2.81c.68-.5.69-1.65.8-2.4.18-1.21.44-2.39.59-3.6.33-2.68.85-5.37.94-8.09a52.91,52.91,0,0,0-.3-8.11c-.16-1.32-.27-2.67-.54-4-.19-.9-1.14-2.82-.75-3.7.09-.22.12-.58.38-.52a3.18,3.18,0,0,1,1,.26c1.4,1.06,1.18,4.22,1.38,5.72.16,1.23.35,2.43.44,3.67s-.17,2.48-.14,3.72a94.4,94.4,0,0,1-1.39,15.65c-.76,5.26-1.55,10.58-2.66,15.78-.51,2.42-1,4.81-1.71,7.19-.48,1.68-1,3.83-2.7,4.7a19.22,19.22,0,0,1,1.07-2.5,21,21,0,0,0,.88-2.91,59.75,59.75,0,0,0,1.23-6.18c.38-2.29.65-4.57.92-6.87a38.65,38.65,0,0,0,.56-6.84c-.39.49-.26,1.3-.34,1.88-.12.9-.28,1.8-.44,2.69a20.79,20.79,0,0,1-1,3.62,1.74,1.74,0,0,0-.5.08c-.57.27-1,.76-.49,1.38s.78,1,.45,1.81a11.9,11.9,0,0,0-.8,1.68,6.84,6.84,0,0,1,.9,0c.22,0,.08,1.42.06,1.61a23.15,23.15,0,0,1-.94,4.24A33.3,33.3,0,0,1,24.73,174c-.29.66-1.28,2.53-2.06,2.34-1.06-.25-1.9-1.16-2.95-1.34a4.4,4.4,0,0,0,6.22,1.43c2-1.43,3.47-3.77,5.61-5-.28,1-.59,2-.87,3-.34,1.21-.34,1.82.68,2.62a28.25,28.25,0,0,0,5,2.81c2,1,3.91,2,5.88,2.94,1,.48,3.18-3.85,3.5-4.56-.87.53-2.19,3.95-3.31,3.64-1.81-.5-3.44-2.07-5.33-2.31.53-2,1.52-3.89,2-6a16.93,16.93,0,0,0,.68-6.24c-.34-2.27-.51-4.49-1-6.73-.43-1.84-1.58-4.14-1.13-6.06s2.53,1,2.92,1.6c.5.73.92,1.5,1.37,2.27a14.68,14.68,0,0,1,2.18,4.71c-.9,0-1.12.47-1.41,1.22s.43,1.39.91,1.83a9.26,9.26,0,0,0,3.52,1.87,31,31,0,0,0,.06-4.79c-.21-1.24-1.87-1-2.59-1.64-1-.93-1.5-2.66-2.16-3.85-.8-1.45-2.76-5.16-.64-6.34.33-.18,1-.56,1.3-.32a8.29,8.29,0,0,1,2,2.74,15.82,15.82,0,0,0,2.6,3.45c1.82,1.74,3.87,3.09,6.48,2.51a3,3,0,0,0,1.95-2.25c.69-2.89-.64-5.77-2.21-8.13-.79-1.2-1.69-2.34-2.6-3.45-1-1.29-2.49-2.38-3.09-4-.23-.59.1-1,.69-1.24,1.65-.73,4.61,1.2,5.74,2.27.57.54-.16,2.24,1,2.51a5.71,5.71,0,0,0,2.55.2c.41-.07,2.08,0,1.68-.79a24.9,24.9,0,0,0-1.67-3,2.81,2.81,0,0,0-1.47-.56c-.48.06-.85.7-1,1.11-1.43-.9-3-1.63-4.39-2.56-.91-.6-2.92-2.24-2.46-3.51.38-1,1.69-1.32,2.69-1.44a14,14,0,0,1,4.14.48,2.15,2.15,0,0,1,1.45.78c.38.54.42,1.13,1.06,1.46,1.25.68,3.41-1,4.18-1.92.44-.5-3-4.51-4.51-2.1-.9,1.44-2.69.67-4,.46-1.16-.19-3.94-.45-4.28-2-.3-1.34,1.74-2.38,2.69-2.83,1.49-.71,3.6-2.21,5.28-2.21.1,1.06.31,2.22,1.73,1.73,1-.33,1.64-1.56,2.19-2.32s1.4-1.95-.13-2.19a20.7,20.7,0,0,0-3.32-.45c-1.28,0-1.23,1.2-1,2.19.12.58-3.73,1.61-4.26,1.7a2.92,2.92,0,0,1-1.66-.54c-1.26-.59.38-1.94,1-2.36a44.78,44.78,0,0,0,4.78-3.86,24.13,24.13,0,0,0,3.85-4.66c1-1.6,2.18-3.7,2.15-5.63.8,1.18.5,2.92.57,4.27.09,1.69.11,3.38.21,5.07s-.19,3.41-.17,5.15.11,3.32,0,5c-.28,3.48-.07,7-.34,10.49-.13,1.67-.16,3.32-.14,5,0,1.89-.21,3.77-.19,5.65A6.07,6.07,0,0,0,64.56,149c.71-1.22,1.5-2.38,2.25-3.59,1.71-2.76,3.55-5.45,5.29-8.19s3.49-5.54,5.28-8.29c.83-1.27,1.67-2.53,2.49-3.81a15.84,15.84,0,0,0,2.1-3.54c.06-.19-.31-.66-.38-.83a5.58,5.58,0,0,1-.07-2.26c.1-1.72.11-3.44.35-5.16.1-.69.27-.53,1-.56,1.5-.06,3,0,4.52,0a2.9,2.9,0,0,1-1,1.25c0-1.41-1.77-.53-1.46.57a1.49,1.49,0,0,0,.66,1c.79.42,5-7.12,5.63-8.07q1.53-2.42,3.11-4.83c.83-1.28,2.31-2.84,2.53-4.38-1.4.41-1.81-1.77-2.28-2.64a7.06,7.06,0,0,0-3.33-3.39c-3.2-1.43-7.26-1.53-10.23.56a8.68,8.68,0,0,0-2.38,2.57c-.54.84-.41,2.18-1.28,2.81a1.54,1.54,0,0,1-1.46.11c-.6-.19-.63-1-.77-1.51-.42-1.56,1.62-2.31,2.55-3.11a12.23,12.23,0,0,0,3-4.33,15.41,15.41,0,0,0,.87-7.4A18.55,18.55,0,0,0,79,74.46c1.82.47,3.47,3,4,4.68a14.31,14.31,0,0,1,.53,5.93c-.09.58-1.43,4.7-.8,4.7,1.38,0,2.69-.35,4.09-.29s2.79.7,4.26.7c-.17-2.17-1-4.19-.76-6.38a14.6,14.6,0,0,1,1.82-6.09,17.69,17.69,0,0,1,3.6-3.94c1.34-1.18,3.19-3.2,5-3.49-.49.84-1.47,1.2-2.16,1.85S97,73.65,96.22,74.47a15.73,15.73,0,0,0-3.43,6c-1.2,3.9-.92,8.79,1.89,12,.8.91,2.64,2.28,2.77,3.54a5.35,5.35,0,0,1-.12,1.48c1.17-.69,1.81-2.4,2.52-3.5,1.17-1.78,2.31-3.58,3.44-5.37,2.33-3.66,4.72-7.28,7.09-10.92a25,25,0,0,0,2.78-4.7,22.54,22.54,0,0,1,2.39-5c1-1.42,2.56-2.21,3.49-3.63a28.22,28.22,0,0,0,2.75-4.64c.17-.47.06-.25-.28-.49a15.69,15.69,0,0,0-3.11-1.68c-.77-.33-1.95-.65-2.41-1.42s-.1-2.27.12-3.25c.11-.48.62-.73.87-1.12a4.15,4.15,0,0,0,.53-1.67c.29-2.33-2.21-3.66-3.92-4.55a4.49,4.49,0,0,0-2.83-.79,7.6,7.6,0,0,1-3.55.23c-1.93-.56-.91-4.34-1.11-5.75-.35-2.48-2-3.57-3.63-5.35-.32-.38,0-1.71,0-2.18a13.1,13.1,0,0,0-.48-3.92c-.45-1.94,1.09-4.37,1.9-6.09a11.87,11.87,0,0,1,1.69-2.8c.72-.81,1.69-1.36,2.43-2.15a30.67,30.67,0,0,0,2.1-3c.27-.38,1.92-1.35,1.79-1.74-.25-.68-1.17-.65-1.75-.64a6,6,0,0,1-2.26-.55c-.53-.2-1.15.52-1.57.74-.71.37-1.45-.15-2.18.09a3.71,3.71,0,0,0-2.35,1.64c-.33.76.07,2.19.19,3a2.45,2.45,0,0,0,1.67,1.78c-.44.39-1.26,1-1.87.81-.88-.32-2-.48-2.64-1.22a2,2,0,0,1-.52-2.36,5.67,5.67,0,0,0,1.13-2.6c0-.85,0-1.91-1-2.32a1.43,1.43,0,0,0-2.12.82c-.73,1.67.45,3.53-.45,5.2a2.64,2.64,0,0,0,1-.5A12.53,12.53,0,0,0,98.5,18.6c-1.59.34-3.09-.16-4.7-.2.61-.76,1.7-.87,2.21-1.75a7.29,7.29,0,0,1-4.95.3c1-.5,4-1.73,4.07-3.07a5.12,5.12,0,0,0-.83-2.68,1.88,1.88,0,0,0-1.08-.85c-.39-.09-1,.12-1-.46a2.27,2.27,0,0,0-1.39-2.18A14.2,14.2,0,0,0,88,7.16c-.74,0-1.77.84-2.41,1.17s-.8,1.5-.77,2.23m4.69-1.78c.75-.18,1.56-.24,1.77.66.13.56-.46,1.57-.75,2,1.1.09,2.1-.53,3.22-.53,0,.77,1,2.11.57,2.75-.26.45-.92.47-1.3.76s-.7.89-1.24,1c-.82.2-1.53-.65-2-1.15s-1.42-.76-1.42-1.36.42-.77,1-.75c0-1-.76-1.73-.77-2.71-.62.83-.8,1.95-1.36,2.84s0,1.91-.77,2.57a1.66,1.66,0,0,1-1.65.24c-.44-.2-.3-.72-.62-.91-.16-.08-.59.21-.82.11-.84-.35-.85-.78-.49-1.58.25-.55.34-1.45,1-1.53s1.28.38,2,.51c-.1-.63-.62-1.56-.39-2.17.4-1,1-.79,1.84-.33.2-.65.25-1.06,1-1.16s1.11-.12,1.27.66M69.79,13.69c.77-.14,1.44-.63,2.22-.76-.19,1,1.5,2,1,2.74a3.06,3.06,0,0,1-2.89,1.48,13.18,13.18,0,0,1,1-2,2.52,2.52,0,0,1-2.25-1.95c-.3.3-.37.58-.74.33a1.38,1.38,0,0,1-.5-.81c-.25.59-.42,1.21-.66,1.8-.14.34-.8.86-.73,1.23a4.05,4.05,0,0,1,0,1.2c.5,0,1-.21,1,.48s.49.49,1,.48a1.2,1.2,0,0,1-1.62.78c-.35-.15-.55-.52-.83-.75a3.3,3.3,0,0,0-1.18-.47c-.28-.09.07-1.74-.07-2-.23-.48.42-.64.53-1.08.16-.59-.38-1.25,0-1.81.54-.75,1.06-2.8,2.28-2.18.5.26,1.77.56,2.07,1a4,4,0,0,1,.48,2.32m6.89-3.3a4.24,4.24,0,0,1,.38,2,3.57,3.57,0,0,1-.33.87c-.1.3.55.44.73.6-2,1.06-3.06-3.12-.78-3.45m21.77,0c.41.21.2.94.13,1.28a3.32,3.32,0,0,0,.15,2.19c-1,.51-1.85-.1-1.94-1.22a2.3,2.3,0,0,1,1.66-2.25m9.91.64a2.33,2.33,0,0,0,1.5,1.46c-.33-.54.36-.68.73-.75-.69,1.23-1.72,2.26-2.43,3.49A1.89,1.89,0,0,1,107.9,14c-.41.3-.61.76-1,1.1s-1,.06-1.46-.34c-.12.53-.23,1.07-.35,1.6s-1.07.38-1.36.4c-.46,0-1.18.12-1.34-.53-.09-.36.36-1.14.55-1.44-.79-.17-.77-.68-.78-1.38,0-.35,1.29-.81,1.63-.91.63-.19,1.29-.55,1.74.16a3.82,3.82,0,0,1,.62,1.85c.56-1.13.37-3.41,2.19-3.47M89.82,13.23h1.24c-.22-.57-1.13-.71-1.24,0M63.63,16c.07,1.09.72,1.82,1,2.81.1.47,0,.34-.34.5a4.62,4.62,0,0,1-1.09.4c0-.33,0-.66,0-1a4.9,4.9,0,0,1-1.48.27c.1-.53.51-.64,1-.75A3.85,3.85,0,0,0,61.15,16c0,.42,0,.82,0,1.24a3.36,3.36,0,0,1-1.8-1.19c-.67-.72-1.56-1.23-2.19-2,.93-.49,1.55,0,2.43.26.68.17,1.31-.38,1.94-.18,1,.3.88,1.83,2.08,1.83m5.44-.31a1.77,1.77,0,0,1-1,1A1.72,1.72,0,0,1,68,15.52c.21-.56.67-.06,1.12.15m19.78-.45c.35,1.07,1.23,1.75,1.76,2.7a35.05,35.05,0,0,1-5.2.06c.56-.68,1.37-1.13,2-1.78s.65-1,1.46-1m-11.38.37A11.15,11.15,0,0,0,81,18.27a3.61,3.61,0,0,1-2,.65,13.32,13.32,0,0,1-3.17.63,8,8,0,0,1,.84-2.2c.27-.57.31-1.36.85-1.77m29.71.67c0,.49-.55.67-1,.75.09-.53.5-.64,1-.75M68.85,18.89c0,.65-.32,1.71-1,2a3.72,3.72,0,0,1-2.37-.1c-.4-.14-.42-.44-.12-.77s1.06-.28,1.55-.39c.67-.15,1.25-.57,1.92-.73m18.06-.19c0,1.23-.93,1.71-1.43,2.68-.36.68,1.77,1.88.66,2.44-1.3.66-3,.31-4.41.57-1.59.3-3.18.65-4.77,1a35,35,0,0,0-4.79,1.43c-1.49.53-3.09,1.51-4.7,1.51.41-.5.92-.87,1.33-1.4.6-.76.57-1,.14-1.88a2.6,2.6,0,0,0-1.68-.82c-.41,0-.81.07-1.21.14s-.32-.69-.35-.89c-.14-.81,7.25-2.38,7.63-2.38-.25,1.35-1.89,2-2.32,3.3s2.82,1.14,3.54.86,3.17-1.33,3.12-2.46c0-1-2.88-1.36-3.6-1.7,1.17-1.19,3.93-1.25,5.45-1.53a45.21,45.21,0,0,1,7.39-.83m-17.07.43a20.57,20.57,0,0,0,2,1.22c-.48.71-1.95.76-2.71.77a5.91,5.91,0,0,1,.72-2m34.88-.37c-.18.9-1.57,1.68-2.22.76a5.64,5.64,0,0,1,2.22-.76m-14.84.4c-.5,1-.77-.15,0,0m1.49.24c0,.14,0,.92-.31.69a1.53,1.53,0,0,1-.44-.68h.74m1.48,0c0,.57,0,1.36-.72,1.49,0-.41,0-.81,0-1.22s.33-.27.73-.28m1.24,0c.39.71.47,4.46-.62,4.46-.46,0,0-4,.62-4.46m1.73.23c0,.52-.15,1.13-.73,1.25-.06-.56,0-1.37.73-1.25M81,20.25a2.31,2.31,0,0,0-.83.83c-.3.62-.33.64-.06,1.27a2,2,0,0,0,.77,1.1c.36.26,1.07,0,1.48,0,.65-.07,1.28-1.39.88-1.87S82,19.67,81,20.25m16.32-.42c0,.68-.12,1.48-1,1.49a2.48,2.48,0,0,1,.15-1c.12-.61.21-.49.82-.49m1.48.23a28,28,0,0,1-.35,4c0,.34,0,1-.58.75-.74-.4.15-3.35.18-4s0-.71.75-.72m-9.89.36c-.6.57-2.15,1.44-3,1a4.47,4.47,0,0,1,3-1M99.8,20.3A1,1,0,0,1,99.57,22c0-.51-.15-1.3.23-1.73m-18,2.17c.2-.58-.24-1.24-.51-1.73.43,0,1,.11,1,.56s.14,1-.51,1.17m8.64-1.82a1.48,1.48,0,0,1,.75,1,.74.74,0,0,1-.75-1m11.13-.12c0,.61.31,1.35-.48,1.25a1.49,1.49,0,0,1,.48-1.25M81,21a1.17,1.17,0,0,0,.51,1.47c-1,.79-1.71-1.76-.51-1.47m-4.19,1.77a2.51,2.51,0,0,1-1,1c-.12-.85-1.23-1.39-2-1.46.69-.63,2.34,0,3,.47M92.4,22.6c0,.6.31,1.34-.48,1.25a1.47,1.47,0,0,1,.48-1.25m9.9-.11c-.14.54-.61.93-.72,1.49a1.79,1.79,0,0,1-1.25-1.23,10.84,10.84,0,0,1,2-.27M72.61,23.55c.12.51.56.76,1,1a2.06,2.06,0,0,1-1.4-.1c-.69-.28-.29-1,.4-.88m22.76-.24c0,.23,0,.46,0,.68s-.44.12-.49.06c-.41-.36.11-.81.48-.74m1.48.23c0,.23,0,.46,0,.68s-.44.12-.49.06c-.44-.38.14-.77.48-.74m3,.71c0,.25,0,1.65-.73,1-.17-.14,0-.76,0-1s.66,0,.74,0m-32.16.58a1,1,0,0,1,.51,1.47,1.93,1.93,0,0,1-.51-1.47m30.47,3.64c.33.16.74.15,1,.31.62.34.66.6.94,1.26a2.79,2.79,0,0,1-.15,2.5c-.23.27-.69.52-.93.2a2.41,2.41,0,0,0-1-.71,3.85,3.85,0,0,0-2.89-.31c.24-.7,1.31-.5,1.87-.46a3.58,3.58,0,0,1,2.34.91,3.08,3.08,0,0,0-2.55-1.54c-1.16.18-2.6.15-2.89,1.6a1.23,1.23,0,0,0,.74-.26,2.8,2.8,0,0,1-.48,1.13c-.12.18-.91.88-1,.51a7.51,7.51,0,0,1,.5-4.08c.17-.54.38-.55.91-.75.81-.3,1.89-.09,2.76-.31a4.15,4.15,0,0,0-2.8-.23c-1.27.55-1.54,2-1.86,3.18-.43,1.58.15,2.92.4,4.49s.14,3.2.44,4.79c.16.82.32,2.28-.86,2.37a4.78,4.78,0,0,1-2.24-.25c-.8-.34-1.32-1-2.25-.91-.72.1,0-.94.19-1.11a1.88,1.88,0,0,1,1.18-.38c-.81-.48-1.47.18-2,.69a4.2,4.2,0,0,1-2.14,1.08c.59.22,1.27-.14,1.83.18a7,7,0,0,0,2.41.84c1.24.21,2.53.71,2.71,2.13-.52-.12-2.19.13-2-.72a2.72,2.72,0,0,1-1,.5c0-.16,0-.34,0-.49-.76.38-1.42.51-2-.23-.19.68-.71,1.59-1.46,1.75a8.55,8.55,0,0,0-.26-1,4.38,4.38,0,0,1-3.63,2c-1.57,0-2.78-.79-2.8-2.44.57.1,1.48,1.41,2,1.27l1.31-.29c.8-.18,1.83-1.76,2.1-2.52-.75.94-1.39,1.93-2.65,2-.65,0-1.31.23-1.78-.35a2.27,2.27,0,0,1-.51-1.57c-2.56.56-.6,4.18,1.08,4.61a8.36,8.36,0,0,0,3.06.1c.85-.09,2.41-.7,3.2-.33,1,.47,1.38,1.3,2.51,1.46a4.73,4.73,0,0,0,3.43-.6c1-.64,1-2,2.27-2.08,1.06-.07,1.84,1.44,2.47,2.08.93,1,2.48-.1,3.35.65.57.48,1,.7,1.12,1.46a12.29,12.29,0,0,1,.13,1.81c-.73-.18-1.17-.89-1.79-1.26a7.14,7.14,0,0,0-3.18-.67c1,.91,3.77.83,4,2.43h-.74a10.24,10.24,0,0,1,.27,2c-.68-.21-.92-1-1.4-1.48S98.3,52.09,97.4,52c.79.62,1.91,1.19,2.25,2.2a10.12,10.12,0,0,1-2.24-.48c.82.72,1.89,1.19,2.37,2.21s0,2.5-1.08,2.72c.12-.75.57-1.21.16-1.93s-.64-1.51-1.68-1.51a2.79,2.79,0,0,0,.75.73.88.88,0,0,1-1,0c.36.57,1.16,1,1.26,1.72h-.74a5.29,5.29,0,0,1,.26,1.24c-1.57-.38-1.78-2.68-2-3.94-.31.69-.1,1.72-.72,2.24a3.29,3.29,0,0,1-.51-1.48c-.22.44-.08,2-.48,2.24-.22.16-.62,0-.74-.24,0,.91,0,2.73-1.21,3a12.42,12.42,0,0,0-.77-3c-.5,1,.3,2.18-.22,3.22-1-.59-1.51-2.38-1.52-3.44-.58,1.09.36,2.46.43,3.58.06.9.14,2.62-.85,3.1a8.79,8.79,0,0,0-.52-3c-.32.65,0,1.51-.23,2.23A2.83,2.83,0,0,1,87.58,62a21.49,21.49,0,0,1-.83,2.07c-.45.72-1,1.1-1.86.67a3.12,3.12,0,0,0,1-1.49,1.67,1.67,0,0,1-1.49-.72,3,3,0,0,0-.24,1.24c-1-.61-.3-2.15,0-3a2.17,2.17,0,0,1-.84.42c-.48.06-.51,0-.53-.52,0-.76.62-1.42.85-2.11a4,4,0,0,0-1.25,1.75,1.16,1.16,0,0,0-.2.64c0,.16-.5.18-.5,0,0-.54,0-1.08,0-1.62-.83,1.07-.42,2-.21,3.22a2,2,0,0,1-1.26-2.26,15.94,15.94,0,0,1,.71-2.68c-1.49-.46-2.22,1.31-2.2,2.49a13,13,0,0,0,.72-1.49c.4.49.13,1.6-.09,2.14-.46,1.14-1.45-1.18-1.58-1.58-.53-1.76,1.4-3.49,1.38-5.25a4.84,4.84,0,0,1-1.27,1.62,5,5,0,0,0-1.92,1.62,4,4,0,0,1,1.47-.51c0,.36-.22,3.11-1.06,3-.44-.06-1.2,0-1.46-.44A4.48,4.48,0,0,1,74,57.61a4,4,0,0,1,.62-3.11A29.15,29.15,0,0,0,76.81,52a8.79,8.79,0,0,1-2.22,1,14.55,14.55,0,0,1,.12-1.73A4.62,4.62,0,0,0,75,49.74c-1,.69-1.21,2.35-1.2,3.47-.94-.23-.88-1.49-1-2.23-.29-2.06,1.75-3.69,2.51-5.42.89-2-.38-4.17-1.08-6-.25-.64.14-.69.56-1.06a2.87,2.87,0,0,0,.85-1.58c.22-1.09-.09-2.46-1.34-2.72a14.39,14.39,0,0,1,.76,2.17c.09.74-1.4,1.26-2,1.21-2.17-.18-2.35-2.38-2-4.08s1-3.43,1.32-5.2c.07-.38.76-.29,1,0,.72.89-.49,2.48-.28,3.49a7.64,7.64,0,0,0,1.08-3.27,5.19,5.19,0,0,1,.09-1.11c.12-.38.78-.06.84.21a6.4,6.4,0,0,1,.1,2.26c-.18,1.83-2.07,2.91-2.43,4.63a5.57,5.57,0,0,0,.14,1.34,1.07,1.07,0,0,0,1.47.87c-.85-.7-1.45-1.39-.92-2.53.76-1.6,2.35-2.92,2.91-4.57.46-1.35.36-3.07,2-3.44,3.79-.86,7.67-1.71,11.59-1.43a51.09,51.09,0,0,1,5.5.43c1.18.21,3.29.36,4,1.48s-.56,1.69-1.39,1.91m2.94-3.17s.17.13-.08.09c0-.13.06,0,.08-.09M76.36,27.23c0,.49,0,1,0,1.48-.45-.31-.92-1.68,0-1.48m.54,4.94A16.68,16.68,0,0,1,79.17,30,12.66,12.66,0,0,1,83.08,29a6.84,6.84,0,0,1,4-.09,5.9,5.9,0,0,1,1.68.82,2.7,2.7,0,0,0,1.47.85c0-1.52-1.4-2.19-2.7-2.52a7.49,7.49,0,0,0-3.88.22c-1.45.4-3,.51-4.41,1-1,.34-2.82,1.71-2.35,2.94m24-4.45c1.53.87,1.79,3.24,1,4.69-.65-.42-.48-1.36-.64-2-.21-.84-1.08-1.82-.4-2.69m-29,19.11c1.39.52,2.68-2.2,2.69-3.25.54.57,0,2.47-.45,3-1.45,2.06-4.59,1-6.09,2.89-.62.78-1.24,2.38-.07,3.06A3.81,3.81,0,0,1,68.54,50a3,3,0,0,1,2.35-.92c-.4.53-1.16.62-1.54,1.21-.23.35-1,1.37-.65,1.78.06.08,1,.37,1.24.48a4.27,4.27,0,0,1,.66-1.44c.29-.39,1-.39,1.07.19a2.33,2.33,0,0,1-1.77,2.53,2.85,2.85,0,0,1-2.74-1,3.37,3.37,0,0,1-.61-1.43,4.52,4.52,0,0,1,1.82-3.48,17.88,17.88,0,0,0,3.12-3.24c1.31-1.72.12-4.41-1-5.87-.22-.29-.45-.55-.69-.82,1,1.83,2.22,4,1.31,6.12a6.76,6.76,0,0,1-4.91,4.07,2.54,2.54,0,0,1,0,1.85,10.06,10.06,0,0,0-.2,2.61c-1,0-1-1.23-1.26-2-.81,1,0,2.41,1,3C65,54.1,64,53,63.81,52.4a3.26,3.26,0,0,1,.14-2.78c-.61.37-1.09.94-1.72,1.26-.13-1.31,1.22-2.38,2.29-2.84s2.68-.52,3.62-1.28c1.11-.88,2.13-1.56,2.49-3s-.1-2.37-.36-3.87c-.47.87,0,2.18-.27,3.16a5.19,5.19,0,0,1-3.25,3.39c-1,.43-2.07.62-3,1.1s-1.45,1.17-2.29,1.59c.58-3.67,7.81-1.84,7.86-6.27a7.76,7.76,0,0,1-4.42,3.06,7.12,7.12,0,0,0-4.06,3.18c-.26.44-.75.41-.62-.2-.73,1.39.76,2.48,1,3.7-1.42-.45-1.82-1.82-1.87-3.16,0-1.15,1.54-2.65,2.45-3.12,1.42-.71,3-1,4.4-1.75a5.37,5.37,0,0,0,2.33-2.94c-.24.13-.57.17-.48.49a4,4,0,0,1-.5-2.21c-.09-1.24-.43-2.43-.63-3.66a7.24,7.24,0,0,1,1.31-6c.25-.29.68-1,1.07-1.09s1.37-.42,1.73.12c1.29,1.84-1,4.67-.29,6.77.78,2.48,2.7,4.58,3,7.21a3.28,3.28,0,0,1-1.9,3.51M67.24,30.53c-.17,1-.65,2-.82,3s-.23,2.1-.3,3.14c-.11,1.53-.06,3.35-1.71,4.09-1.94.86-4.27,1-6.1,2.08a5.75,5.75,0,0,0-1.89,1.89c-.32.55-.47,1.49-1.15,1.73a5,5,0,0,1,2.46-4.59c1.55-1.08,3.41-1,5-1.87a5.67,5.67,0,0,0,2.91-4.6c.17-1.6.08-3.88,1.58-4.9m12.16,3.1H78.17c.23,1,1.56,1.47,2,2.45.25-.44.15-.93.54-1.31s.55.4,1,.56a3,3,0,0,0,2.86-.3,2.19,2.19,0,0,1-1.26-2c.94.78,1.56.63,2.73.47a1.39,1.39,0,0,1-1,1.25,2.16,2.16,0,0,0,1,.48,3,3,0,0,0-.48,1.25c.55-.1,2.52-1.9,2.39-2.51-.24-1.13-.1-3.43-1.71-3.42a8.68,8.68,0,0,1,.51,1.47,3.32,3.32,0,0,0-3.34-.29c-1.09.48-2.12,1.42-3.33,1.59,1.08-.89,2.48-1.49,3.19-2.76a6,6,0,0,0-2.5,1.44c-.51.37-1.46.82-1.43,1.57m-9.93-2.38a12.3,12.3,0,0,0-.9,3.39,6.13,6.13,0,0,0,1,3.29c.51-.81-.35-2.14-.49-3-.25-1.31.69-2.48.92-3.72a2.76,2.76,0,0,0-.49,0m16.09,1.07c-.25.41-.46.77-1,.5a1.26,1.26,0,0,1,1-.5m12.38.86c-.47-.1-.89-.2-1-.73.5.06,1.07.07,1,.73M96,33a4.15,4.15,0,0,0,1.12.91c.21.13.87-.14,1.12-.19,0,2.49-3.79.3-2.24-.72m4.95.2a15.91,15.91,0,0,1,1.26,1.77,7.54,7.54,0,0,0,1.4,1.17,4.16,4.16,0,0,1,2.11,3.2c-.58-.17-.88-.9-1.21-1.35a11.09,11.09,0,0,0-1.84-1.62c-.75-.62-2.54-2-1.71-3.17m-18.3.44a3,3,0,0,1,.51,1.73c-.74,0-1,0-1.28-.77-.16-.46.32-.88.76-1m11.14.87a13.74,13.74,0,0,1,1.75,1.46,4.79,4.79,0,0,1-.27-1.48,6.19,6.19,0,0,0,2,.74,3.46,3.46,0,0,0,2-.78c-.08.93.58,1.72.93,2.52a4.35,4.35,0,0,1,.36,2.64c-.15.82-1,4.25-2.19,4.25,0-.42,0-.82,0-1.24-.43.3-.27.83-.83.62s-1.11-1-1.62-1.42a6.09,6.09,0,0,1-1.74-1.63c-.49-.77-.28-1.8-.31-2.66s-.67-2.19,0-3m7.18,1.66c1.14.89,3.44,1.48,3.49,3.18-.81-.28-4.21-2.06-3.49-3.18M66.83,39c.4.75-.3,2.38-.79,3-1,1.26-3,1.52-4.43,2a8.48,8.48,0,0,0-4.33,3.49c-1.2-.73.15-2.32.76-2.92C59.3,43.29,61.38,43,63,42.4a9.37,9.37,0,0,0,2.35-1.35c.7-.56.82-1.55,1.51-2.1m35.38-.38c.59.4,1.44.54,1.86,1.17s.49,1.54.93,2.25c.93,1.53.27,4,1.69,5.24a5.2,5.2,0,0,0,1.52.62c.82.32,1.77-.44,2.48-.74a6.84,6.84,0,0,1,3.42-.39,3.32,3.32,0,0,1,2.3,1.8c.3.74.66,2.28-.48,2.51a3.58,3.58,0,0,0-2.39-3.11,7.85,7.85,0,0,0-1.37-.07c.68.33,1.43.48,2.13.83a5.7,5.7,0,0,1,.84,2.15c-.06.2-.21,1-.39,1.11s-1,.51-1.3.48c-1-.1-1-1.15-1-1.85a3.34,3.34,0,0,0-.44.4c-.29.34-.25.41-.6.13a1.88,1.88,0,0,1-.46-1.25c1.32,0,2.72.12,3,1.7a1.56,1.56,0,0,0-.65-2.08c-1.95-1.32-4.19.55-6.37.33-.42,0-.83-.69-1.11-1-1.2-1.21-.77-3.23-1-4.75a5.7,5.7,0,0,0-1.42-2.57c-.53-.64-1.46-1-1.64-1.94a16.21,16.21,0,0,1,1.74.72c-.4-.35-1.6-1.1-1.26-1.71m-28.94.8a5.32,5.32,0,0,1,1.27,3c-.5-.5-1.52-2.27-1.27-3m-6.17,2A3.91,3.91,0,0,1,66,44c-1.43.84-3.18.75-4.61,1.66a6.48,6.48,0,0,0-1.7,1.45c-.38.48-.78,1.14-1.42,1.29a3.45,3.45,0,0,1,1-2.71c1.21-1,2.75-1.19,4.21-1.64s2.32-1.79,3.61-2.66m34.64-.12a3.73,3.73,0,0,1,2.4,2.8,26.69,26.69,0,0,1,.9,5.58,2.76,2.76,0,0,1-1.26-2,3.44,3.44,0,0,0-.23,1.73c-.93-.18-1.28-1.26-1.75-2-.18.26-.23.57-.48.74-.41-.78.08-1.58.45-2.27a5.54,5.54,0,0,0,.49-2.68,1.3,1.3,0,0,0,.74.24c-.22-.72-1.41-1.48-1.27-2.22m-.73.75c.43.25.85.48,1,1-.47,0-1.36-.42-1-1m-15.83.42c-.22.22-.54.41-.48.74a.72.72,0,0,0,.48-.74m15.38,3.3c-.15,1.22-2.59,1.06-3.34.72s-1.52-.82-2.3-1.22c-.5-.26-.78-.1-.85-.68s-.15-.61.17-.93a2,2,0,0,1,.86-.56c2.32-.74,3.4,2.35,5.46,2.67m.21-3c.27.29,1,1,.83,1.47a1.34,1.34,0,0,1-1.55.51c.43-.6,0-1.52.72-2m-7.65,1.32a2.45,2.45,0,0,1,.26,1c-.29-.29-.54-.61-.26-1m18.57,1.3a4.12,4.12,0,0,1-2.61,1.42c-.9.12-2.53.13-2.58-1.11a13.28,13.28,0,0,0,2.58-.16c.83-.18,1.8-.58,2.61-.15m-18.3,1.18c0,1.66-1.32,2-2.7,2.19a2.71,2.71,0,0,1-3.24-1.62,38.42,38.42,0,0,1,5.94-.56m-43,6.14c.15-.93,1.38-1.71,2.21-2-1-.37-1.91.62-2.71,1a3.36,3.36,0,0,1,3.19-2.5A3.15,3.15,0,0,0,51.6,49c.26-.82,1-1.11,1.67-1.46,1.16-.56,2.39,1,3.33,1.43s2.3,1.36,2.11,2.48c0,.23,0,.93-.33,1-1.28.14-2.86-.56-4.12-.78-1.65-.27-2.4.66-3.86,1.09m50.17-4.48c-.72,0-2.23.55-2.48-.47.75,0,2.26-.63,2.48.47M94.91,50c0,.49,0,1,0,1.48a1.28,1.28,0,0,0,0-1.48m-3.22.29a5.25,5.25,0,0,1-2,1,2,2,0,0,0,1.4.25c.78,0,1.53.28,2.32.21a5.16,5.16,0,0,1-.27-1.48,1.86,1.86,0,0,0-.48.74,10.59,10.59,0,0,0-1-.72m2.23,0a2.24,2.24,0,0,0,.26,1.24,1.06,1.06,0,0,0-.26-1.24m12.88,1.85c-.14-.71,1-.92,1.52-1.12.32-.12,2.28-.66,2.17.19s-.08,1.31-1.07,1.4a3.59,3.59,0,0,1-2.62-.47m-22.51-.26a6.52,6.52,0,0,1-.48,1.73,1.21,1.21,0,0,0,.48-1.73m-9.56,8.76a7.28,7.28,0,0,1,4.42,1.42c.61.41,1.17,1,1.8,1.3a14.27,14.27,0,0,1,2,.85,7.27,7.27,0,0,0,1.57,1.22,8,8,0,0,0,2.65.41c1.61.12,3.57.46,4.83-.82a2.52,2.52,0,0,1,1.5-.85,7.14,7.14,0,0,0,2.22-1.37,29.76,29.76,0,0,0,3.91-3.58,9.61,9.61,0,0,0,2-4.16c.26-.85,1.06-1.34,1.47-2.1.25-.46.26-1.28.85-1.26a2,2,0,0,1,.67.21c.87.41.25,2.41,0,3a9.3,9.3,0,0,1-2.59,3.43c-1.25,1.19-2.48,2.4-3.77,3.55a51.86,51.86,0,0,1-7.94,6.39c-1.28.75-2.38.39-3.64-.17-1.62-.71-3.2-1.54-4.78-2.35-1.37-.69-2.74-1.38-4-2.17s-2.71-1.52-3.15-3M56.34,52.92c-.56.86-3,.57-3.23-.46a7.14,7.14,0,0,1,3.23.46m29.18-.8a18.79,18.79,0,0,0-.71,2.73c.71-.36,1.31-2.1.71-2.73m5.21.45c.43.3,1.41.53,1.24-.26a2.53,2.53,0,0,0-1.24.26m-41.06.92a11.39,11.39,0,0,1,.76,2c-1.21,0-1.85-2.22-.76-2m3.71.46a1,1,0,0,1-2-.23,2.22,2.22,0,0,1,2,.23M113,53.31c-.44.82-1.16.78-2,.76,0-1.12,1.2-1.28,2-.76M73,57.7c-.45-.26-2.22-2-1.85-2.73.12-.23.39-1,.63-1.11,1.22-.35,1.43.24,1.5,1.35A8.19,8.19,0,0,1,73,57.7m24.21-4.22.25.25-.25-.25m18.06-.19a1.37,1.37,0,0,1-1,1.49c-.06-.69.16-1.46,1-1.49M86,54.09a5.47,5.47,0,0,0-.21,3.46c.39-.43.13-1,.24-1.52a18.44,18.44,0,0,0,.47-1.94,1.66,1.66,0,0,0-.49,0m1,.24a6.5,6.5,0,0,0-.26,3.2,9.25,9.25,0,0,1-.17,3c.86-.5.78-1.74.67-2.58a8.71,8.71,0,0,1-.15-1.6c0-.69.4-1.33.41-2a1.72,1.72,0,0,0-.5,0m16.85,3.53c-.35,1.48-.45,2.93-1.5,4.13a28.2,28.2,0,0,1-3.57,3c-2.59,2.07-5.47,4.55-8.58,5.8-1.55.62-3.24,0-4.69-.61s-3.23-1.23-4.79-2a55.46,55.46,0,0,1-9.09-5.55c-.81-.58-1-2.22-1.35-3.11-.58-1.56-1.56-3-2.08-4.55,1.19,0,2,.08,2.66,1.15,2,3,4,6.7,7.34,8.44,1.64.86,3.33,1.63,5,2.49a23.73,23.73,0,0,0,5.48,2.47c1.32.31,2.64-.92,3.57-1.67,1.44-1.17,2.91-2.29,4.34-3.46a31.7,31.7,0,0,0,4.09-3.81c.84-1,1.85-2.5,3.21-2.78m-27.95.53A11.69,11.69,0,0,1,75.59,57c-.07-.44.48-1.09.57-1.53-1.43.21-1.92,3-.22,3m20.29,0a6.12,6.12,0,0,1,.46,1.48c0,.29-.15,1-.45,1.12s-.79-1.54-.86-1.77c-.24-.75.2-.72.85-.83M21,59.71a32.31,32.31,0,0,1,.32,6.85c0,2.37,0,4.73.08,7.1.06,4.53.32,9.11.15,13.64s.07,9.19.14,13.79c0,2.25,0,4.48.07,6.73,0,1.19,0,2.38,0,3.56a7.37,7.37,0,0,1,0,2.55c-.22.61-.21,1-.81,1.22a3.82,3.82,0,0,1-1.6.25c-.7,0-1,.24-1-.5-.06-4.17-.39-8.31-.4-12.48s.24-8.42.24-12.65c0-4.6-.2-9.2-.22-13.81,0-2.2-.33-4.37-.35-6.56s-.57-4.89.58-6.69a8.55,8.55,0,0,1,2.77-3m1,.73a8,8,0,0,1,1.89,2.64c.49,1,.19,2.06.41,3.09a32.87,32.87,0,0,1,.31,6.91c0,4.88.36,9.72.41,14.59.06,5.19,0,10.39.3,15.57.13,2.19.16,4.29.19,6.46,0,1.2.64,4.57-.48,5.44a2,2,0,0,1-1.38.2c-.75-.15-.91-.28-1.12-1a10.17,10.17,0,0,1-.21-2.9c0-1.11-.17-2.2-.21-3.3-.1-2.28,0-4.57,0-6.85.06-4.73,0-9.47-.09-14.2l-.15-14.35c0-2.38,0-4.77-.08-7.16,0-.91,0-1.83-.07-2.74A3.53,3.53,0,0,1,22,60.45m72.73-.76c.75,1.16.94,2.68-.46,3.47-.06-.7.21-1.37.13-2.07,0-.47-.11-1.09.33-1.41m-.73,1c-.07.92-.22,2.15-1.46,2,.1-.74.65-1.86,1.46-2m-3.19,2.76a1.45,1.45,0,0,1-1,1.49c.13-.59.18-1.63,1-1.49m1.24,0c0,.48-.21,1.12-.73,1.25-.06-.56,0-1.37.73-1.25M88,77.08c-1.27.28-3.34-1.08-4.37-1.69-2.1-1.22-4.28-2.28-6.38-3.49-1.43-.82-4-1.88-4.73-3.47-.23-.52-1-4.06-.3-3.93,1.44.24,2.72,1.27,4,2,1.44.84,2.89,1.66,4.39,2.41a29,29,0,0,0,4.17,1.75c1.16.37,2.63.75,3.22,1.93a3.19,3.19,0,0,1,.08,1.75,23.22,23.22,0,0,0,0,2.75M63.11,108.27a11.24,11.24,0,0,0-2.06-1.33,3.07,3.07,0,0,0-2.4-.1c-3,.89-5.23,3.4-7.26,5.64a13.48,13.48,0,0,0-2,2.94c-.44.82-1,2-2,2.17-.2-2,1.56-4.14,2.58-5.72.76-1.17,1.56-2.32,2.38-3.45.32-.45,1-1.64,1.65-1.56s2,.44,2.39-.41a13.9,13.9,0,0,0,.73-5c-.8.18-5.41,2.23-4.58,3.57.29.47.66.53.57,1.07-.17,1.08-6.22,9.3-7.49,8.1-.48-.48.83-2.25,1.09-2.67,1-1.65,1.76-3.5,2.65-5.23a28.33,28.33,0,0,0,2.35-6.15,12.5,12.5,0,0,0-.7-6.53,41.45,41.45,0,0,1-1.63-13,35.56,35.56,0,0,1,.39-6.41c.17-.91,1.13-4.87-.16-5.29-.52-.17-.88.72-1,1.08a15,15,0,0,0-.25,5.28,42.38,42.38,0,0,1,0,5.49,27,27,0,0,0,.38,5.71c.3,1.81,1,3.94.71,5.78-.08.58-.48.85-.79.24A32.81,32.81,0,0,1,46,86.75a40,40,0,0,1-1.16-6.84,53.92,53.92,0,0,1-.4-7.25c.06-2.23.16-4.77,1.46-6.67.42-.6.51-.61,1.24-.8a3.92,3.92,0,0,1,1.51.07,7.75,7.75,0,0,1,5,3.94,59.88,59.88,0,0,1,6.72,18.07,109.1,109.1,0,0,1,2.73,21m38.14-43.44c0,.39.22,3.76-.47,3.23-.47-.4,0-2.94.47-3.23M44.85,65.9a42.85,42.85,0,0,0-.92,6.72c0,2.54.13,5.08.4,7.61a32.28,32.28,0,0,0,1.41,7.07c.81,2.34,2.11,4.48,2.89,6.83.3.91-.23,1.79-.48,2.67C46.09,95.7,45.65,92,45.09,90c-.48-1.76-.8-3.55-1.24-5.32a36.56,36.56,0,0,1-.7-5.09,78.76,78.76,0,0,1-.22-9c0-1.27,0-4.63,1.92-4.65m54.92-.08c0,1.16,0,2.31,0,3.46-.79-.48-.79-2.94,0-3.46m-1.47,1c0,.58.14,1.15.17,1.73s-.18,1.15-.13,1.73c-.79-.49-.79-2.94,0-3.46m-1.47,1c0,1.16,0,2.31,0,3.46-.79-.48-.79-2.94,0-3.46m-54.42.82c0,1.6-.23,4.42-1.81,5.38a2,2,0,0,1-.75.32c-.19,0-.66-1.57-.7-1.65a3.24,3.24,0,0,1-.06-2.82c.26-.46.5-.79,1.06-.82.78,0,1.51-.37,2.27-.41m52.95.19c0,.15.16,4.31-.46,3.72s0-3.4.46-3.72m-1.47,1c-.09.64.53,3.46-.38,3.46-.25,0-.17-3.08.38-3.46M38,71.42c-.06,1.79-.34,3.57-.41,5.36s0,3.81,0,5.71a75.21,75.21,0,0,0,.56,10.87c.52,3.65,1.56,7.25,2.43,10.84a27.63,27.63,0,0,0,1.67,5.07c.75,1.65,1.29,2.82.92,4.66-1.47-.28-2-2.56-2.41-3.7a48.68,48.68,0,0,1-2-5.57,49.74,49.74,0,0,1-2-11.67c0-2-.46-4-.19-6s0-3.94,0-5.88.24-3.78.22-5.69c0-1.23,0-3.2,1.19-4m54.43-.57c0,.83,0,1.66,0,2.5,0,.19.1,1.46-.48,1-.32-.28-.07-1.44,0-1.81,0-.53-.36-1.69.5-1.66m-1.47,1c0,.15.16,4.31-.46,3.72s0-3.39.46-3.72m-1.47.5c0,1,0,2,.06,2.94,0,.24.06,1.79-.5,1.27s0-3.29,0-3.91c0-.39.08-.31.49-.3m-12.74,13c0-.46-.09-1.86.38-2.14a4.4,4.4,0,0,0,1.81-1.35c-.49,0-1.9.46-2.25,0A12.35,12.35,0,0,1,74.6,79c-.45-1.15.07-2.3,0-3.46a3.38,3.38,0,0,0-1,1.49c-.82-.76-.46-2.17-.18-3.06s2.6-.11,2.79.29l.8,1.71c.34.7-2.53,3.8-.76,3.48.54-.1.82-.54,1.33-.74a2.2,2.2,0,0,1,1.65.2c1,.46,1.41,1.7,1.67,2.68a3.84,3.84,0,0,1-.6,3c-.78,1.29-2.4.6-3.63.83M42.22,74.59A12.64,12.64,0,0,1,42,78.1c-.3,1.1-.88,2-1.25,3.08s-1-.18-1.23-.53a10.78,10.78,0,0,1-1.32-3.48,2,2,0,0,1,.44-2c.55-.47,1.2.44,1.36.92.56-.69,1.28-1.52,2.23-1.51m57.2,4.11a2.92,2.92,0,0,1-1.26-2c-.45.9.38,1.93.09,2.87a10.28,10.28,0,0,1-1.75,2.93c-.43.51-1.39.42-2,.43.36.66,1.22.8,1.69,1.36s.64,1.88,1,2.68a4.86,4.86,0,0,1,.62,2.8c-.24,1.16.14,2.13,0,3.26-.08.68-.23.8-.88.54A3.49,3.49,0,0,1,95.21,91c-.22-1.15.85-1.88,1.15-2.83.22-.7.12-.85-.62-.8s-.87.2-1.55-.1c-1-.45-1.13-1.7-1.27-2.7s.07-3.4,1.1-3.82c.4-.16,1.09.13,1.48.21,0-.25,0-.49,0-.74a5.64,5.64,0,0,1,1.73.48c.2-.58-.27-1.08-.63-1.46a4.42,4.42,0,0,1-.87-1.7c-.36-1.06.9-2.5,1.69-3A2.55,2.55,0,0,1,99,74.05c1,.3,1.09.3,1.19,1.35a6.75,6.75,0,0,1-.79,3.3M36.28,75.14c-.09,5.22-.59,10.37-.32,15.6.29,5.39,1.82,10.65,1.88,16.05l.49-.5c.39,1.28,0,3-.16,4.33a37.93,37.93,0,0,1-.73,4.83c-.49-.71-.19-1.85-.06-2.62a22.33,22.33,0,0,0,.24-3.81,10.56,10.56,0,0,0-.54,3c-.07.39.13,1.43-.15,1.71-.68.68-.18-2.84-.16-3.12.17-1.75.25-3.55.32-5.31-.29.56-1,6.2-1,6.2-.84,0-.48-2.85-.46-3.45-.26.52-.23,1.38-.72,1.74a3.67,3.67,0,0,1-.27-1.73c-.29.17-.62.61-.89.36a27.31,27.31,0,0,0-3.45-2.86,32.72,32.72,0,0,0-3.76-1.91c-.63-.33-.42-1.71-.39-2.28.07-1.33,0-2.66,0-4s0-2.45,1-3.54,2.19-2.25,3.13-3.49c1.88-2.49,2.37-5.55,3.16-8.49.25-1,1.67-6.9,2.9-6.7m47.27,1.48a12.3,12.3,0,0,0,4,1.64c1.5.25,2.54-1.24,4-1.47a13.05,13.05,0,0,1-.9,2.55,14.43,14.43,0,0,0-.66,3.17,17.4,17.4,0,0,0-.08,3c0,1.07.47,2.38.06,3.4,0-.48-6.21-.33-6.21-.48,0-1,.45-1.91.46-2.9,0-1.16.29-2.31.22-3.46a13.59,13.59,0,0,0-.54-3.22c-.19-.6-.68-1.6-.25-2.2m-9,10.24c-.64-1.23-.48-2.75-.57-4.09,0-.37-.5-2.7.48-2.21s1.5,2.14,1.4,3.26-.28,2.46-1.31,3M41.13,88.7c-1.41.12-2.6-3.47-2.95-4.46-.12-.35-.26-2.18.34-2.19a1.31,1.31,0,0,1,1.26.46,2.67,2.67,0,0,1,.56,1c.46-.74.66-1.76,1.55-2s.93,1.39.91,2a12.3,12.3,0,0,1-1.67,5.23m58.06-8a15.15,15.15,0,0,1-.93,5.95c-1.79-.86-1.26-5.9.93-5.95M76.73,85.86c.47,1.34,2.29,1.22,2.65,2.69a3.66,3.66,0,0,1-1.24,3.55c-.42.39-1,.89-1.61.78s-1.59-.15-1.74-1c-.21-1.14-.58-2.74,0-3.83,1.13.64,1.36,2.09,2.5,2.69-.69-1.31-2.34-3.93-.54-4.94m-34,9.51c-.88,0-1.4-.88-1.88-1.48a7,7,0,0,1-1.67-2.3c-.17-.66-.83-2.33.4-2.49.78-.11,1.47.92,1.62,1.59.51-.82.63-1.62,1.45-2.22s1.24.88,1.24,1.5c0,1.91-.89,3.54-1.16,5.39m47.53,3c.18-.94,1.3-1.34,1.46-2.25a3.35,3.35,0,0,1-3.46.23c-.63-.29-1.22-.53-1.42-1.19a4.29,4.29,0,0,1-.35-1.7c-.56,1.11-.23,2.29-1.36,3.08a4,4,0,0,1-1.82.93c-.7,0-1.31-.41-2-.49.29.52.7,1,1,1.47-.86,0-1.73,0-2.6,0-.57,0-.69-.14-.82-.69A1.43,1.43,0,0,1,79,96.45c.59-.64,1.07-1.6,2-1.39s1.38.89,2.18,1.37c.28-1-.13-1.84-.12-2.81s1.68-1.38,2.49-1.42,2.13-.46,2.87.36a2.14,2.14,0,0,1,.34,1.53c0,.55.23,1,.77.8s.66-.6,1-.85c.55-.36,1-.06,1.54.13A2.84,2.84,0,0,1,94,96a2.23,2.23,0,0,1,.14,1.53c-.2.61-.53.7-1.09.92a3,3,0,0,1-2.88-.14m-40.13-5c1,.93,1.15,2.81,1.24,4.11a13.64,13.64,0,0,1-1.54,6.33c-.74,1.75-1.65,3.43-2.39,5.18-.49,1.16-1.12,3.2-2.54,3.48.41-1.72,1.51-3.21,2.27-4.78s1.46-3.33,2.19-5c.62-1.43,1.42-3,1.15-4.63A15.46,15.46,0,0,0,50,95.33c-.21-.63-.49-1.46.08-2m-5.86,8c-1.49-.24-3.92-2-4.41-3.51-.29-.89-1-2.37.45-2.38a1.49,1.49,0,0,1,1.36.49c.18.19.42.87.59,1,.56.31,1.31-2,1.58-2.35.73-1,1.72-.21,1.83.82.19,1.94-.82,4.15-1.4,6m5.38-5.49a12.2,12.2,0,0,1-1,7.46c-.55,1.2-1.17,2.36-1.69,3.56a4.67,4.67,0,0,1-1.61,2.38c.16-2.69,1.65-4.52,2.47-7,.31-.88.44-6.7,1.85-6.45m39.61,2.8-4.95,0c0-1.93,4.93-2.13,4.95,0m-42,.44c0,.64-1.62,9-3,8.49a4.93,4.93,0,0,1-2.67-3.73c0-.71.28-1.75,1.1-1.87s1.48.63,2.11.84a14.5,14.5,0,0,1,.41-2.47,1.89,1.89,0,0,1,2-1.26m48.74.24c0,1.44-1.65,1.59-2.77,1.59-1.83,0-3.67,0-5.5,0-.94,0-12.38.21-12.26-.52s.13-1,.94-1.07c3.19-.11,6.34.16,9.53.12,3.35,0,6.7.08,10.06-.1M94,102.51c-.24,1.15-1.16,2.08-1.71,3.09-.36.65-.9,1.88-1.76,2a65.4,65.4,0,0,1-6.68,0c-2.29,0-4.58.1-6.87.07-1.43,0-1.49-.86-1.5-2.09,0-.75-.32-2.54.51-2.85a10.44,10.44,0,0,1,4-.31c1.5,0,3,0,4.52,0,3.18,0,6.35.17,9.53.14m-67.19,2.8c1.63-.57,2.79,1.27,3.22,2.5.27.76,1.07,3.59-.34,3.62a7.84,7.84,0,0,1-2.31-.23c-.68-.19-.9-1-1-1.68-.21-1-.5-3.59.46-4.22m-9.24.91c.29,2.16-2.37.41-.39,0m18.46.12c0,.57,0,1.16,0,1.73a1.55,1.55,0,0,0,0-1.73m-18,1.68c0,1.08.65,4.2-.48,4.92-.41.27-1.14.62-1.59.31s-.65-.86-.91-1.5c-.48-1.17,1.88-3.69,3-3.72M51.4,124c-.15-1.12,1.12-1.66,1.78-2.32,1.12-1.13,2.36-2.15,3.42-3.33a21.12,21.12,0,0,0,2.66-3.68c.59-1,1.57-2.43,1.38-3.69s-1-2.14-2.23-1.71c-2.37.78-4.14,2.92-5.67,4.77a18,18,0,0,0-2,2.93c-.38.7-.92,1.83-1.85,1.86,0-2.54,2.39-4.94,4-6.7s4.09-4.36,6.82-4.41c1.41,0,2.11.35,2.4,1.75.56,2.64-1.61,6.22-3.18,8.21C57,120.15,54.46,123,51.4,124M39.11,109c0,2.25-.77,4.48-.67,6.69-.7-.75-.17-2.27,0-3.14.17-1.11,0-2.6.7-3.55m36.37-.39c2.06,0,4.11-.13,6.17-.06,2.32.08,4.64-.25,6.95-.07.42,0,1,.06,1,.57a1.72,1.72,0,0,1-.66,1.35c-1.55,1.31-3.72.77-5.62.71-2.34-.08-4.69.07-7-.08-1-.07-.8-1.75-.81-2.42m-40.28,4.88a22.31,22.31,0,0,0-2.29-1.83c-.37-.19-1.87-.82-1.16-1.39s.74-.27,1.45-.08a2.19,2.19,0,0,1,1.11.84,4.88,4.88,0,0,1,.88,2.45M52.36,121c0-.56,0-1.14,0-1.7,0-.25-1.87.34-1.76-.22a9.42,9.42,0,0,1,1.28-2.61c1.33-2.32,4.39-6.64,7.49-6.2.31,0,.57.84.49,1.14a14.94,14.94,0,0,1-3.16,5.79c-1.13,1.34-2.55,3.31-4.32,3.8M39.9,112.22a27.51,27.51,0,0,1-.93,6.2c-.56-.88.1-2.29.18-3.22s-.14-2.36.75-3m12.69,6.54c1.2.28,2.91-1.72,3.65-2.48s2.38-2.67,1.86-3.92c-.42-1-2.81,1.44-3.11,1.78-.86.94-2.72,3.23-2.4,4.62M27,112.61c1,.85,2.25,1.73,2.26,3.19-1,0-3.63-2.28-2.26-3.19m13.85.35c-.3,1.54-.44,3.12-.69,4.67a26.4,26.4,0,0,0-.46,4.49c-.68-.72,0-2.85,0-3.72a42,42,0,0,1,.5-4.59c.11-.56,0-.94.64-.85m-28.57.79c-.32.58-.26.56.11,1.12.23.35.51.67.9.23.64-.72-.13-2-1-1.35m62.43,18.4c.06-3.44.23-6.93.41-10.37.1-1.9.2-3.76.18-5.67,0-.91-.37-2.7.83-3,.76-.22,2.47-.68,2.84.3.58,1.55.41,3.67.38,5.31,0,2,0,4-.14,6a7.52,7.52,0,0,1-1.8,3.87c-.83,1.18-1.39,2.88-2.69,3.61M80.48,113a23.84,23.84,0,0,1,.18,2.78,23,23,0,0,0-.12,2.74c0,1.08,0,2.16,0,3.24,0,.74.19,1.83-.47,2.38-.86-1.65-.1-3.68-.07-5.42,0-1.48-.56-4.41.44-5.71m-36.12.87a13.12,13.12,0,0,1,.86,2A9.92,9.92,0,0,0,46.66,118c1.16,1.45,2.59,1.77,4.22,2.46.64.28.44.47.3,1.09-.51,2.25-1.28,4.41-1.77,6.67S48.47,133,48,135.33a40.3,40.3,0,0,0-.87,6.62,34.28,34.28,0,0,0,0,3.49,2.43,2.43,0,0,1-.57,2.16,30.48,30.48,0,0,1-4.37,2.27c-.8.42-1.64.75-2.42,1.21a6.09,6.09,0,0,1-2.14,1,3.59,3.59,0,0,1,.92-2.69c1.82-1.52,4-2.35,6-3.6,1.18-.75.67-3.07.72-4.22.1-2.2.47-4.35.77-6.52s.57-4.11,1-6.14,1.26-4,1.67-6.09c.15-.69-.88-1.41-1.38-1.72a17.61,17.61,0,0,1-2.58-1.94,2.5,2.5,0,0,1-.58-1.82,5.66,5.66,0,0,0,.52-2A16.77,16.77,0,0,0,42,120.15c-.8,1.92-1,4.07-1.94,5.92-1.12-1.32.85-4.76,1.33-6s1-2.33,1.43-3.5c.35-.89.66-2.1,1.56-2.62m39.4,5.27c.27-.41.79-1.93.25-2.3-.18-.13-.6-.54-.81-.46-.59.26-.38,1.17-.29,1.62a1.81,1.81,0,0,0,.85,1.13m-48.51-2a13.32,13.32,0,0,1-.23,2c-.52-.14-1.06-.32-.87-.88a2.51,2.51,0,0,1,1.1-1.1m1.09,9.39c-1.51-.3-2.8-2.61-3.33-3.92-.26-.62-.57-1.71-.08-2.31.67-.81,2,.17,2.6.54.18-.56.49-2.44,1.21-2.56,1-.17,1,2,1.14,2.6a9.56,9.56,0,0,1-1.54,5.64m-10.13,1.1c.78.15,2.2.6,2.72-.28a3.36,3.36,0,0,1-1.87-.32,2.27,2.27,0,0,1-1.15-1.63c-.09-.46-.59-1.57-.24-2s1-.07,1.48-.75c-1.39,0-3.06-.94-4.29,0a13.53,13.53,0,0,1-1.79,1.49,6.73,6.73,0,0,1-2.56.58c.36-.61,1.06-1,1.29-1.68s0-1.11.56-1.53a1.29,1.29,0,0,1,1.33-.29c0-.36-.21-1.2.18-1.41a10,10,0,0,1,4.8-.54c1.07.11,2,0,2.49,1.14a29.58,29.58,0,0,1,1.74,9.36c0,1.12-.14,2.16-1.27,2.63a7.41,7.41,0,0,1-3.32.43c-1.66-.07-.5-4.47-.12-5.22m17.48-8.6a12.29,12.29,0,0,0,2.78,2.52c.8.55,1.57,1.1,1.22,2.19a73.32,73.32,0,0,0-2.23,10.31,57.21,57.21,0,0,0-.66,5.82c-.06.89-.09,1.78-.1,2.67a4.38,4.38,0,0,1-.23,2.15c-.5.81-2,1.21-2.77,1.61-.52.27-2.51,1.61-3.07,1.07-.24-.23.21-1.22.33-1.52.65-1.62,2.95-1.39,3.57-2.93a8,8,0,0,0,.22-2.47c.07-1.19.11-2.37.2-3.55A62.25,62.25,0,0,1,44,130c.22-1.19.44-2.37.69-3.54.16-.76,1.06-2.76.52-3.47s-2.39-1.56-2.27-2.71c0-.57,0-1.27.71-1.14m-23.25.74c-.35,1.78-2.31,1.28-3,0a19.76,19.76,0,0,1,3,0m18.8,23.8c0-4.39,1.09-8.73.72-13.12-.17-2,.7-3.9,1.22-5.81.17-.62.46-2.91,1.49-2.65a2,2,0,0,1,1.66,2.4c-.55,3.25-1.22,6.47-1.71,9.73-.24,1.55-.48,3.11-.62,4.67-.08.89.34,2.87-.34,3.56a3.15,3.15,0,0,1-2.42,1.22M19.47,122.83c-.07.55-.72.93-1.23,1a1.39,1.39,0,0,1,1.23-1m3.74,2.93a7.31,7.31,0,0,1-2.38,1.64c-.89.2-2.79.35-2.56-1.09a3,3,0,0,1-3.43.15c-.53-.27-1.43-.46-1.57-1.1a11,11,0,0,1-.22-2.21,5.81,5.81,0,0,1,2.75.51c.87.45,1.23,1.39,2.17,1.82s1.83,0,2.69-.15a4.25,4.25,0,0,1,2.56.42m1-2.73a12.81,12.81,0,0,0,.27,2c-.4,0-2.09-.14-1.92-.67A1.92,1.92,0,0,1,24.17,123m-.7,4.21a2.6,2.6,0,0,1-1-.24.61.61,0,0,1,1,.24M22,128c-.57.89-.83,1.74-1.82,2.26a2.19,2.19,0,0,1-1.3.21c-.74-.17-.85-.34-1.32-.93a2.88,2.88,0,0,1-.37.74c-.28.57-2.36-.27-2.8-.42-.73-.25-.9-.84-1.2-1.48-.22-.46.63-1.22,1.08-1.18a26.91,26.91,0,0,1,3.92,1c1.26.33,2.54-.1,3.8-.15m13.92,6.28c-.85-1.35-2-2.83-2.21-4.43-.11-.7-.1-2,.55-2.41s1.68.65,2.55.24,1.33-1.11,2-.14A3.53,3.53,0,0,1,39,130c-.41,1.43-1.36,4-3.08,4.28m-11-6.81c.26.65.47,2.26-.47,2.47,0-.68-.2-2,.47-2.47m-.74.26c0,.25,0,.49,0,.74a.54.54,0,0,1,0-.74M23,129c-.25.41-.46.77-1,.5a1.22,1.22,0,0,1,1-.5M20,131c.48.87,0,1.35-.61,1.91s-1.52,0-2.09-.4c0,1.12-1,1.28-1.91.93a4.48,4.48,0,0,1-1.46-1A1.89,1.89,0,0,1,14,131c.55-.6,1.79-.22,2.45-.07A6.41,6.41,0,0,0,20,131m1,2.22c.72-1,1.76-1.06,1.7-2.49,1.08,0,1.42,1,1,1.8s-1.62.94-2.65.69m.72-1.74a.61.61,0,0,1-.74.5,1.4,1.4,0,0,1,.74-.5m3,0a1.45,1.45,0,0,1-.23,1.73,1.42,1.42,0,0,1,.23-1.73m-1.93,4.72a15.89,15.89,0,0,1-2.47,0,1.08,1.08,0,0,1-.85-.51c-.34-.53-.24-.63,0-1.24.13-.41,1.93-.24,2.29-.22,1.11,0,1.06,1.14,1.09,1.94M29,133.87c.64,1.19,0,2.59.27,3.85.12.7.76-.66.75-.65.43.47.48,2.27.48,2.87,0,1-.63,2.34-.43,3.31-.66-.71,0-1.88-1-2.46,0,.66,0,1.32,0,2-.7-.46-.76-1.92-.77-2.65,0,.1.86-.23,1-.34.45-.42.67-.58.18-1.09s-1.2-2.33-2-1.49c-.37.37-.42.88-.86,1.2a2.72,2.72,0,0,1-1.26.46c0-1.5.14-3,.2-4.45,1,.2.76,1.92.77,2.67,0,.15.49,0,.48-.45,0-.75.21-1.49.23-2.25.78.11.7,1.15.76,1.72.88-.49.47-1.7,1.24-2.22m7,2.15c.84.15.83-1.39,1.76-1.25.49.08,1,0,1.12.54a4.53,4.53,0,0,1,.07,1.32,7.9,7.9,0,0,1-2.75,4.83c-.52.38-.59,0-.9-.49a12.4,12.4,0,0,1-1.73-3.81c-.17-.76-.18-2.07.68-2.48s1.58.67,1.75,1.35m-12.38-.86c0,.25,0,.49,0,.74a.54.54,0,0,1,0-.74m-9.89.85a7.9,7.9,0,0,0-1,3.72,4.93,4.93,0,0,0,1.23-.5,26.13,26.13,0,0,0-1.18,3.3c-.37,1.47,1,1.83,1.25,3.14a4.66,4.66,0,0,0,.72-1.21c.25-.4.85-.68.63-1.24a22.57,22.57,0,0,1-.75-2.4c-.4-1.52.75-.26,1.36-1.33.13-.21-.21-.66-.3-.88-.24-.53-1.33,0-1.21-.7a3.23,3.23,0,0,0,.09-.92c-.06-.52-.29-1.09-.89-1m10.39.63a.93.93,0,0,1-.73.75c-.11-.55.19-.85.73-.75m-1.72.51a1.29,1.29,0,0,1-.75,1.29,1.72,1.72,0,0,1-1.63-.33c-.08-.12-.46-.63-.28-.71a6.52,6.52,0,0,1,2.66-.25m2.25,1.7a15.16,15.16,0,0,1-.23,2.23c-.46-.47-.77-2.45.23-2.23m-2,1.75c0,.6,0,4.82-1.27,3.7a2.19,2.19,0,0,1-.6-2.26c.18-.59.17-.82.68-1.13a2.23,2.23,0,0,1,1.19-.32m12.64,2.59c.67-.14,1.5-1.27,2.27-.92s.85,1.59.59,2.38A10.07,10.07,0,0,1,35,149c-.43.38-.44,0-.62-.27-.93-1.51-2.18-4.9-1.06-6.54.62-.91,1.81.35,1.92,1m9,7.09c.46-.82,1.47.8,1.69,1.13A34.46,34.46,0,0,0,48.46,155c.79.93,3.84,4.09,5.08,2.34a3.7,3.7,0,0,0,.86-1.44c.25-2.2-1.76-5-3.12-6.52-1.19-1.34-4.3-3.44-3.37-5.53a4.61,4.61,0,0,1,2,1.69c.72.83,1.47,1.61,2.16,2.49a20.1,20.1,0,0,1,3.31,6c.61,1.84.56,4.77-1.84,5.2-2.25.41-4.29-1.26-5.72-2.79a13.49,13.49,0,0,1-3.53-6.1M25.88,145c0,.29-.1,3.34.52,2.71.28-.27,0-1.29,0-1.62,0-.49.24-1.15-.51-1.09m1.5,1.46c0,.65-.14,2.1.76,2.22C28,148,28,147,27.39,146.5m-6.19.56c-.21.85-.81,1.25-1.43,1.8-.19.17-.12.89.16,1a3.4,3.4,0,0,0,1.31.19,20.11,20.11,0,0,1-.7,3.66,4.16,4.16,0,0,0-.25,1.2c0,.35.69,0,.76-.16a6,6,0,0,1,.51,2c.55-.4.45-1.4.48-2a5.26,5.26,0,0,1,1.24.24c0-1.16-1.9-4-.66-4.73.34-.21.79-.4,1-.78s-1.75-2.4-2.38-2.39m27.22,0a11.92,11.92,0,0,0,1.63,1.82,18.53,18.53,0,0,1,2,2.67c.74,1.13,2.62,3.68,1.56,5.11-.38.5-1,.41-1.56.41-1.41,0-2.71-1.79-3.5-2.74s-2.6-3-2.42-4.39c.09-.58.76-.88,1.16-1.22s.43-.91.43-1.5c0-.29.49-.15.75-.15m-14.07,3.61c.57-.3,1.25-1.22,1.95-1.15.91.1.77,1.56.47,2.14-.41.76-2.42,4.3-3.45,3.48a3.63,3.63,0,0,1-.83-1.87c-.27-.91-.83-1.88-.6-2.86s.19-2,1.28-1.71c.92.22,1,1.15,1.2,2M47.69,149a8.69,8.69,0,0,0,2.46,5.35c.31.31,1.25.83,1.68.56.66-.41,0-1.56-.13-2a7.29,7.29,0,0,0-4-3.9m-14.76,8.08c.78.18.82-1.15,1.65-1.21.54,0,.82-.15,1.12.35a1.61,1.61,0,0,1,0,1.14,7.32,7.32,0,0,1-1.74,3c-.09.09-1.94,1.62-2,1.41a21.09,21.09,0,0,1-1.17-4c-.1-.69-.15-2,.71-2.27,1-.32,1.2.82,1.41,1.6m-20.54-1c0,.49,0,1,0,1.48.59-.3,1-1.68,0-1.48m24.49.48A21.29,21.29,0,0,1,38.44,162a28.68,28.68,0,0,1,.82,6.08,22.07,22.07,0,0,1-.76,5.63c-.44,1.58-1.06,3.6-2.27,4.77-.49.48-.64-.48-.73-.77-.19-.62.31-1.48.49-2.07.34-1.06.68-2.11.94-3.19a22.9,22.9,0,0,0,.54-6.36,35.41,35.41,0,0,0-1-5.73c-.25-1.13-.75-3,.4-3.85m-20,.46c-.19.37-.36,2.59.51,2,.25-.17.23-1,.21-1.22-.06-.48-.15-.87-.72-.76m-3.7,1.28c0,.33,0,.66,0,1a.78.78,0,0,0,0-1m3.24,1.95a5.34,5.34,0,0,1-.19,2.46c0,.21-.48,1.4-.19,1.54s.86.43.93.94c.66-.2.86-.94,1.62-1,.39,0-.87-3.38-.93-3.71l1.73,0c0-.72-.07-1.23-.84-1.25-1.27-.06-3.1-.55-3.54.88-.18.52,1.2.27,1.41.15m-2.71.52c0,.42,0,.82,0,1.24a1,1,0,0,0,0-1.24m22,.51c2.52,4.6,1.1,10.78-.68,15.36-.52,1.36-1.83.75-2.79.26a2.86,2.86,0,0,1-1.15-1c-.27-.64.23-1.48.43-2.08.32-1,.75-1.91,1.08-2.89.36.48.11,1.22,0,1.73a10.9,10.9,0,0,0-.18,2.72c1.65-2.23,1.92-4.78,1.9-7.44-1.43.75-.31-1.82-.09-2.48s.46-1.41.66-2.11.27-1.67.84-2.12M32,163.52c.4-.41.94-1.08,1.56-1.08.84,0,.48,1.41.34,1.8-.39,1-1.65,2.54-2.81,2.71-.8.12-1.24-2.11-1.29-2.62s-.09-3.34,1.24-2.59c.58.34.75,1.2,1,1.78m-17.82-.8c0,.49,0,1,0,1.48a1.3,1.3,0,0,0,0-1.48m.52,2.72c0,.33,0,.66,0,1a.79.79,0,0,0,0-1m.75,1.47c0,.25,0,.49,0,.74a.53.53,0,0,0,0-.74m15.11,1.57c.76-.37,1.33-1,2.22-1a4.69,4.69,0,0,1-1.31,2.65c-.5.65-1.15,1.91-2.06,2-.42.07-.34-.13-.44-.52a10.69,10.69,0,0,1-.35-3.8c0-.51.58-1.07,1.1-.83s.65,1,.83,1.47m-8.65.83c-.63.18-1.82.32-1.36,1.17a.87.87,0,0,0,1.61-.43c.52.36,2.38,1.55,2.16.06-.13-.83-.94-.27-1.34-.62s-.09-1-.1-1.43a.91.91,0,0,0-1,1.25m-5.69-.19a3.18,3.18,0,0,0,.26,1.24,2,2,0,0,0,.24-1.24,2.75,2.75,0,0,0-.49,0m1,1.72c0,.25,0,.49,0,.74a.55.55,0,0,0,0-.74m5.2,0a13.37,13.37,0,0,0-.83,2.2,1.1,1.1,0,0,0,.17,1c.13.16.82.7,1,.47a3.33,3.33,0,0,1,.64-.7c.64-.53-.48-2.51-1-2.95m-4.2,2a1.23,1.23,0,0,0,.26.74,1.3,1.3,0,0,0,.24-.74,2.75,2.75,0,0,0-.49,0m10.4.14a2.79,2.79,0,0,1-1.47,1.26c0-.77.63-1.72,1.47-1.26"/></svg>