<svg xmlns="http://www.w3.org/2000/svg" viewBox="0 0 169.01 246.76"><defs><style>.a{fill:#fff;stroke:#000;stroke-width:2.5px;}.b{isolation:isolate;font-size:45.45px;font-family:Arial-BoldMT, Arial;font-weight:700;}</style></defs><title>s6</title><path class="a" d="M1.25,238a6.89,6.89,0,0,0,6.87,6.87H160.91a6.88,6.88,0,0,0,6.86-6.87V9.72a6.88,6.88,0,0,0-6.86-6.87H8.12A6.89,6.89,0,0,0,1.25,9.72Z"/><text class="b" transform="translate(5.25 38.99) scale(0.53 1)">6</text><text class="b" transform="translate(164.76 207.77) rotate(180) scale(0.53 1)">6</text><path d="M11,60.92c1.67,0,2.55-1.78,3-3.56a17.75,17.75,0,0,0,.5-3.56h.85s.16,7.13,3.5,7.13Z"/><path d="M8.15,53.79c0-3.47,5.22-6,6.75-8.73,1.53,2.75,6.74,5.27,6.75,8.73a3.19,3.19,0,0,1-3.38,3,3.19,3.19,0,0,1-3.37-3,3.19,3.19,0,0,1-3.38,3A3.18,3.18,0,0,1,8.15,53.79Z"/><path d="M159,185.85c-1.67,0-2.55,1.78-3,3.56a17.75,17.75,0,0,0-.5,3.56h-.85s-.16-7.13-3.5-7.13Z"/><path d="M161.87,193c0,3.47-5.22,6-6.75,8.73-1.53-2.75-6.74-5.27-6.75-8.73a3.4,3.4,0,0,1,6.75,0,3.4,3.4,0,0,1,6.75,0Z"/><path d="M35.69,58.63c4,0,6.12-4.27,7.22-8.54a42.61,42.61,0,0,0,1.2-8.54l2,0s.38,17.11,8.4,17.11Z"/><path d="M28.9,41.52c0-8.32,12.52-14.37,16.19-20.94,3.67,6.6,16.17,12.64,16.19,20.94,0,3.93-3.62,7.13-8.11,7.13s-8.08-3.19-8.08-7.13c0,3.93-3.62,7.13-8.11,7.13S28.9,45.45,28.9,41.52Z"/><path d="M35.69,135.54c4,0,6.12-4.27,7.22-8.54a42.61,42.61,0,0,0,1.2-8.54l2,0s.38,17.11,8.4,17.11Z"/><path d="M28.9,118.43c0-8.32,12.52-14.37,16.19-20.94,3.67,6.6,16.17,12.64,16.19,20.94,0,3.93-3.62,7.13-8.11,7.13s-8.08-3.19-8.08-7.13c0,3.93-3.62,7.13-8.11,7.13S28.9,122.37,28.9,118.43Z"/><path d="M54.5,184c-4,0-6.12,4.27-7.22,8.54a42.61,42.61,0,0,0-1.2,8.54l-2,0S43.65,184,35.64,184Z"/><path d="M61.29,201.09c0,8.32-12.52,14.37-16.19,20.94-3.67-6.6-16.17-12.64-16.19-20.94,0-3.93,3.62-7.13,8.11-7.13s8.08,3.19,8.08,7.13c0-3.93,3.62-7.13,8.11-7.13S61.29,197.16,61.29,201.09Z"/><path d="M115.52,58.63c4,0,6.12-4.27,7.22-8.54a42.61,42.61,0,0,0,1.2-8.54l2,0s.38,17.11,8.4,17.11Z"/><path d="M108.73,41.52c0-8.32,12.52-14.37,16.19-20.94,3.67,6.6,16.17,12.64,16.19,20.94,0,3.93-3.62,7.13-8.11,7.13s-8.08-3.19-8.08-7.13c0,3.93-3.62,7.13-8.11,7.13S108.73,45.45,108.73,41.52Z"/><path d="M115.52,135.54c4,0,6.12-4.27,7.22-8.54a42.61,42.61,0,0,0,1.2-8.54l2,0s.38,17.11,8.4,17.11Z"/><path d="M108.73,118.43c0-8.32,12.52-14.37,16.19-20.94,3.67,6.6,16.17,12.64,16.19,20.94,0,3.93-3.62,7.13-8.11,7.13s-8.08-3.19-8.08-7.13c0,3.93-3.62,7.13-8.11,7.13S108.73,122.37,108.73,118.43Z"/><path d="M134.32,184c-4,0-6.12,4.27-7.22,8.54a42.61,42.61,0,0,0-1.2,8.54l-2,0s-.38-17.11-8.4-17.11Z"/><path d="M141.11,201.09c0,8.32-12.52,14.37-16.19,20.94-3.67-6.6-16.17-12.64-16.19-20.94,0-3.93,3.62-7.13,8.11-7.13s8.08,3.19,8.08,7.13c0-3.93,3.62-7.13,8.11-7.13S141.11,197.16,141.11,201.09Z"/></svg>